<svg version="1.1" xmlns="http://www.w3.org/2000/svg" xmlns:xlink="http://www.w3.org/1999/xlink" width="492" height="365"><g transform="translate(8,2)"><g data-paper-data="{&quot;isPaintingLayer&quot;:true}" fill="none" fill-rule="nonzero" stroke="none" stroke-width="none" stroke-linecap="butt" stroke-linejoin="miter" stroke-miterlimit="10" stroke-dasharray="" stroke-dashoffset="0" font-family="none" font-weight="none" font-size="none" text-anchor="none" style="mix-blend-mode: normal"><path d="M-8,363v-365h492v365z" fill="#ff6400" stroke-width="0"/><text transform="translate(22.20455,169.84024) scale(0.47666,0.47666)" font-size="40" xml:space="preserve" data-paper-data="{&quot;origPos&quot;:null}" fill="#ffffff" fill-rule="nonzero" stroke="none" stroke-width="1" stroke-linecap="butt" stroke-linejoin="miter" stroke-miterlimit="10" stroke-dasharray="" stroke-dashoffset="0" font-family="Sans Serif" font-weight="normal" text-anchor="start" style="mix-blend-mode: normal"><tspan x="0" dy="0">Sharing is caring! Show the world your flipnotes</tspan><tspan x="0" dy="48px">by heading to the forum link in the description</tspan><tspan x="0" dy="48px">and post your code! (Project comments are too</tspan><tspan x="0" dy="48px">short for codes)</tspan></text><g data-paper-data="{&quot;origPos&quot;:null}" fill="#ffffff" stroke-width="1"><path d="M25.68546,12.30486l4.68797,0.26046l3.62008,1.30219l2.47422,2.29185l1.1719,2.78662l0.13029,2.86485l-0.39063,2.55232l-1.17202,2.29185l-7.00586,-1.30231l1.09392,-2.55232l-0.70316,-2.29185l-2.73456,-0.75523l-3.51607,0.49489l-2.34392,1.27616l-1.17202,1.27604l-0.6511,1.77105l0.6511,1.30207l2.47422,1.27616l2.21375,0.78139l3.51595,1.27616l3.38577,1.01582l2.44806,1.30207l1.69295,1.27616l1.17202,1.27616l1.1719,2.29185l0.6511,1.79708l0.26046,1.92726l-0.26046,1.92726l-0.57299,1.27604l-0.59903,1.27616l-1.17202,1.27616l-1.17202,1.27616l-2.34404,1.27616l-5.18274,1.04173l-6.51096,0.26046l-4.66193,-0.78139l-2.34404,-0.78127v-6.64126l4.66193,0.49489l4.81814,0.26034l3.77641,-0.49489l1.43249,-2.03139l-1.17202,-2.08358l-1.82312,-0.75523l-3.90658,-1.27616l-3.12531,-1.27616l-2.70852,-1.30219l-1.95329,-1.27616l-1.17202,-1.27616l-1.1719,-1.53662l-0.26046,-3.07324l0.26046,-3.07312l0.6511,-2.05743l0.91156,-1.79708l1.17202,-1.51059l1.43236,-1.53662l1.69283,-1.27616l3.09928,-1.53662z" id="path823"/><path d="M43.99438,11.94026h6.95379l0.26034,14.74103l1.92726,-1.61472l2.42215,-1.32823l2.89088,-0.52093l3.15135,0.26046l2.70864,0.8073l1.92726,1.61472l1.43236,2.16168l0.62506,3.17738v18.20479h-6.69332v-16.3296l-0.62506,-1.58869l-1.66679,-1.06776l-2.44818,-0.26046l-2.1876,0.78127l-1.95329,1.35426l-1.14599,2.37008l0.26046,14.74091h-6.69345z" id="path825"/><path d="M93.42613,31.21294l-3.28164,-1.35426l-2.96899,-0.20839l-2.73456,0.26046l-3.04721,1.0938l-1.51059,2.08358l-0.7292,2.05743l-0.26046,2.29185l0.52093,2.73456l1.56266,2.23979l2.60439,0.96363h2.34404l2.55232,-1.32823l1.74489,-2.16168l0.98966,-3.25548l0.85937,-5.31303zM95.06689,31.08277l2.70864,-0.20827l1.71898,18.67352h-5.7297l-0.49489,-5.23493l-2.03139,2.99514l-2.16168,1.61472l-2.68261,0.62506h-4.87033l-3.02105,-0.49489l-2.03139,-1.35426l-1.51059,-1.82312l-1.22409,-2.63042l-0.78127,-4.58383l0.26046,-3.82848l0.7292,-3.67227l0.98954,-2.10962l2.50025,-2.63042l2.52628,-1.58869l2.99502,-1.06776l3.464,-0.5208l3.51595,0.20839l2.76071,0.6511l2.63054,1.04173l2.91692,2.03151z" data-paper-data="{&quot;origPos&quot;:null}" id="path827"/><path d="M110.27654,23.19126l0.57312,8.25598l2.34392,-3.48991l2.10949,-1.64076l2.63042,-1.3803l3.38577,-1.14599l2.21375,5.83383l-1.84915,0.26046l-1.84903,1.11983l-1.87519,1.38042l-1.32823,1.66679l-1.84915,1.64076l-1.06776,1.90122l-1.04185,3.04721l-0.80742,4.50549v4.16704h-6.64126l-1.32823,-25.00225z" id="path829"/><path d="M129.49714,24.46742h7.05792l-1.0938,25.10651h-6.66729zM130.7733,14.57068l2.13565,-0.78127l2.13553,0.3646l1.58869,0.91156l0.78127,2.29185l-0.33857,2.83881l-1.84915,1.30219l-2.10962,0.52093l-2.42203,-0.49477l-1.3803,-1.82312l-0.26046,-1.92726l0.26046,-1.92726z" id="path831"/><path d="M150.09804,23.32156l0.13029,3.04721l2.42215,-1.87519l2.55232,-0.6511l2.50013,-0.13029l2.63054,0.7292l1.27616,0.88553l1.51059,1.40633l1.45852,2.03151l0.46874,2.65645l0.28662,4.53164l-0.26058,4.53164l-0.49477,9.08932h-6.61522l0.5208,-7.86535l0.26046,-3.90658l-0.26046,-3.93261l-1.01557,-1.56266l-1.79708,-0.85937l-2.26582,-0.02603l-1.74502,1.14599l-0.85949,1.27616l-0.3646,1.77105l0.13029,6.97982l0.13029,6.97982h-7.34442l-0.70329,-25.88777z" id="path833"/><path d="M189.112,24.98835l-0.85949,4.66193l-4.53164,-1.17202l-2.00536,0.20839l-2.00548,1.19806l-1.45852,1.64076l-0.4427,2.18772l-0.26046,2.73456l0.3646,2.73468l0.85949,1.48455l1.71886,1.64076l2.89088,0.3646l2.89088,-0.62506l2.76071,-1.3803l0.70329,-2.78675v-6.4589zM189.00787,23.86852l-0.05207,-0.41667l6.537,-0.5208l1.0157,12.68336l0.05219,5.99016l0.05207,4.97446l-0.67725,6.06826l-0.93747,2.78675l-1.19806,1.90122l-1.48443,1.40633l-2.39611,0.88553l-3.33358,0.62506l-3.33371,0.13017l-3.33358,-0.13017l-3.30755,-0.62506l-1.87519,-0.83346l-1.84903,-1.32823l2.52616,-6.19843l3.62008,1.3803l3.6202,0.52093l3.35962,-0.26046l2.42203,-1.3803l1.74489,-2.89088v-2.94307l-2.44806,1.66679l-2.65658,1.11995l-3.64612,0.26034l-3.62008,-0.26034l-2.65658,-1.11995l-1.66679,-1.66679l-1.69283,-2.52628l-0.70316,-3.02118l-0.52093,-4.19308l0.52093,-4.16704l0.33857,-1.64076l0.88553,-1.64076l0.91156,-1.40645l0.96363,-1.3803l1.74502,-1.40633l1.87519,-0.85949l4.19308,-0.78139l3.12531,0.26046z" id="path835"/></g></g></g></svg>