<svg version="1.1" xmlns="http://www.w3.org/2000/svg" xmlns:xlink="http://www.w3.org/1999/xlink" width="492" height="365"><g transform="translate(8,2)"><g data-paper-data="{&quot;isPaintingLayer&quot;:true}" fill="none" fill-rule="nonzero" stroke="none" stroke-width="none" stroke-linecap="butt" stroke-linejoin="miter" stroke-miterlimit="10" stroke-dasharray="" stroke-dashoffset="0" font-family="none" font-weight="none" font-size="none" text-anchor="none" style="mix-blend-mode: normal"><path d="M-8,363v-365h492v365z" fill="#ff6400" stroke-width="0"/><g data-paper-data="{&quot;origPos&quot;:null}" fill="#ffffff" stroke-width="0.26459"><path d="M36.05793,12.6752v7.92097l-8.04638,0.22559l1.50394,27.69835h-8.39726l-1.15305,-27.19696l-9.19932,0.17549v-7.99617z" id="path825"/><path d="M48.71651,23.12799l-0.57658,4.33652l-0.30079,4.36163l0.1755,4.33641l0.70187,3.83514l2.3813,2.08051h3.13326l3.00798,-1.82982l0.87737,-2.43139l-0.12529,-14.43832l6.66761,-0.25069l0.50128,25.39225h-6.51723v-2.83249l-1.77973,1.90502l-2.25601,0.92746l-3.96054,0.50127l-3.96054,-0.50127l-2.256,-1.32855l-1.12795,-1.35354l-1.12806,-2.65698l-0.80206,-4.48692l-0.32589,-5.48958l0.2006,-5.01329l0.67677,-4.98819z" id="path827"/><path d="M76.41487,12.60001l6.66772,0.52649l-0.52638,1.90501l-0.52649,3.03309l-0.52638,3.13326l5.63997,-0.15039v6.84311l-5.99085,-0.0502l-0.15039,4.11093l-0.12528,2.83248v2.68209l0.52638,2.70719l1.95511,1.65444h1.57924l1.60423,-0.52638l0.87737,6.44203l-3.03308,0.70188l-3.03308,0.17549l-3.93543,-1.37864l-2.2058,-2.5317l-0.87737,-2.88257l-0.65177,-3.13327l0.12528,-3.13338v-3.13327l0.27568,-4.43671l-3.86013,-0.10029v-6.34173l4.6623,-0.35099l0.32589,-3.08318l0.67677,-3.08317z" id="path829"/><path d="M104.76489,23.00258l2.98288,-0.25069l2.50659,0.25069l2.88258,1.25335l1.90502,1.25335l1.20314,1.25335l1.20315,1.25334l0.95245,2.48149l0.72698,3.13327l0.12529,3.96054l-0.57658,3.45916l-1.45383,2.73229l-1.67955,1.98033l-1.93012,1.25335l-4.06085,1.25334l-2.98288,0.12529l-3.96054,-0.12529l-3.83514,-1.50393l-1.67943,-1.25335l-1.93012,-2.70719l-0.95245,-2.98287l0.02522,-3.73485l0.50127,-2.83248l0.95256,-2.7574l1.20315,-2.48149l1.17816,-1.50393l1.20315,-1.00266l2.40641,-1.50394zM105.49186,29.01854l-1.65444,0.75196l-1.45383,1.25335l-1.20315,2.23091l-0.47629,3.05807l0.35088,2.60689l1.30344,1.60424l2.50659,0.97755l2.15571,0.25069l2.45649,-0.50127l1.27847,-1.22825l1.80471,-2.10562l-0.15039,-3.55946l-0.72686,-2.60688l-1.17815,-1.72952l-1.67954,-1.00266z" id="path831"/><path d="M130.50813,23.25328l0.55148,7.94607l2.25601,-3.35886l2.03043,-1.57924l2.53169,-1.32854l3.25868,-1.10297l2.13061,5.61487l-1.77973,0.2507l-1.77961,1.07798l-1.80471,1.32855l-1.27846,1.60423l-1.77973,1.57924l-1.02776,1.82983l-1.00267,2.93278l-0.77706,4.33653v4.01063h-6.39194l-1.27846,-24.0637z" id="path833"/><path d="M149.00705,24.48153h6.79303l-1.05275,24.164h-6.41693zM150.23531,14.95631l2.05552,-0.75196l2.05542,0.35088l1.52903,0.87737l0.75196,2.2058l-0.32589,2.73229l-1.77973,1.25335l-2.03042,0.50128l-2.33121,-0.47629l-1.32855,-1.75463l-0.25069,-1.85493l0.25069,-1.85493z" id="path835"/><path d="M180.86644,30.97365l-3.15837,-1.30345l-2.85759,-0.2006l-2.63199,0.2507l-2.93279,1.05286l-1.45383,2.00532l-0.70188,1.98033l-0.25069,2.2058l0.50127,2.632l1.50393,2.15571l2.5066,0.92746h2.25601l2.45661,-1.27846l1.67943,-2.08051l0.95256,-3.13327l0.82716,-5.11359zM182.44568,30.84847l2.60689,-0.2006l1.65445,17.97266h-5.51458l-0.47628,-5.03829l-1.95511,2.88257l-2.0804,1.55415l-2.58178,0.60169h-4.68741l-2.90767,-0.47629l-1.95511,-1.30344l-1.45384,-1.75463l-1.17816,-2.53169l-0.75196,-4.41173l0.2507,-3.68474l0.70187,-3.53436l0.95256,-2.03042l2.4064,-2.53169l2.4314,-1.52904l2.88268,-1.02765l3.33387,-0.50127l3.38396,0.20059l2.65699,0.62668l2.53169,1.00266l2.80738,1.95512z" id="path837"/><path d="M192.09617,12.42463h6.99352l-1.15305,36.1958h-6.99351z" id="path839"/><path d="M214.78124,23.22829h2.63199l2.63199,0.25069l2.33121,1.25335l1.60424,1.72964l0.87737,1.98021l0.37599,2.23091v2.78239h-5.1888v-1.72951l-1.10284,-2.25601l-2.75728,-0.37598l-2.75728,0.37598l-2.2058,1.00266l-1.00266,1.72964l2.85758,1.00266l2.5568,0.75196l3.30876,1.50394l3.33387,1.47895l2.2058,1.50392l0.75197,2.13061l-0.12529,2.05541l-0.37599,1.80483l-1.10284,1.72952l-1.85493,1.00266l-2.83248,1.25335l-3.18336,0.60157l-3.20846,0.12529l-3.20847,-0.12529l-3.20846,-0.60157l-0.10019,-6.24155l3.68474,0.85226l2.6822,0.12529l2.65699,-0.12529l2.68208,-0.35088l0.2507,-2.00532l-3.08318,-1.60423l-5.58987,-1.60422l-3.43406,-1.25335l-1.55414,-1.50394l-0.2507,-2.48148l0.2507,-2.5066l0.85226,-1.75463l1.60424,-1.72964l1.35354,-1.00265l3.23356,-1.50393z" id="path841"/></g><text transform="translate(26.20853,151.96056) scale(0.47666,0.47666)" font-size="40" xml:space="preserve" data-paper-data="{&quot;origPos&quot;:null}" fill="#ffffff" fill-rule="nonzero" stroke="none" stroke-width="1" stroke-linecap="butt" stroke-linejoin="miter" stroke-miterlimit="10" stroke-dasharray="" stroke-dashoffset="0" font-family="Sans Serif" font-weight="normal" text-anchor="start" style="mix-blend-mode: normal"><tspan x="0" dy="0">In the description is a link to a YouTube playlist</tspan><tspan x="0" dy="48px">containing several tutorials for this program. If</tspan><tspan x="0" dy="48px">you're finding it difficult to use this program or</tspan><tspan x="0" dy="48px">want to learn some tips and tricks, then check</tspan><tspan x="0" dy="48px">them out!</tspan></text></g></g></svg>