<svg version="1.1" xmlns="http://www.w3.org/2000/svg" xmlns:xlink="http://www.w3.org/1999/xlink" width="311.13007" height="160.53411" viewBox="0,0,311.13007,160.53411"><g transform="translate(-84.43497,-27.09271)"><g data-paper-data="{&quot;isPaintingLayer&quot;:true}" fill="none" fill-rule="nonzero" stroke="none" stroke-width="none" stroke-linecap="butt" stroke-linejoin="miter" stroke-miterlimit="10" stroke-dasharray="" stroke-dashoffset="0" font-family="none" font-weight="none" font-size="none" text-anchor="none" style="mix-blend-mode: normal"><path d="M395.56504,61.11696c0,29.0892 -4.76945,28.6559 -32.69639,36.79637c1.41168,4.57959 13.41232,42.01249 -20.08506,49.92964c-9.52358,2.2509 -0.7732,39.57702 -10.55451,39.27558c-44.47715,-1.3707 -104.04761,1.74747 -177.34048,-0.08759c-12.52348,-4.09674 -11.493,-14.79325 -16.31545,-27.05558c-3.9862,-10.13593 -9.82549,-22.11495 -9.82549,-22.11495c0,0 -40.15646,-27.04817 -40.15646,-57.11141c0,-30.06324 -13.06752,-44.61829 7.13893,-44.61829c0,0 46.22099,-9.35042 77.60958,-9.02997c10.46286,0.10682 71.67376,9.9805 82.13549,10.16798c14.28655,0.25604 9.82953,-5.72722 24.08869,-4.80669c39.25159,2.53396 116.00115,-1.40831 116.00115,28.65493z" data-paper-data="{&quot;origPos&quot;:null}" fill="#ff6400" stroke-width="0"/><path d="M150.97513,145.86164c-3.67401,0.26412 -7.34181,0.56443 -8.15064,0.66732c-0.89436,0.11378 -1.54033,-0.02154 -1.64855,-0.34536c-0.64765,-1.93793 -2.49434,-10.6541 -2.29873,-10.84971c0.13208,-0.13207 1.90615,-0.32511 3.94237,-0.42898c20.0724,-1.02395 28.41832,-2.57015 28.41832,-5.26491c0,-2.55808 -3.62309,-3.85222 -18.19239,-6.49809c-11.17343,-2.02917 -13.78838,-2.84633 -16.47943,-5.14976c-3.19814,-2.73749 -4.34219,-6.09367 -3.54793,-10.40814c0.54008,-2.9337 1.23695,-4.38248 3.59573,-7.47538c5.90382,-7.74133 19.01179,-12.70548 31.68252,-11.99859c7.56425,0.42201 12.67873,2.69405 15.17223,6.74007c1.17262,1.90273 1.35199,2.61301 1.35199,5.35368c0,2.67737 -0.22526,3.61745 -1.47523,6.15624c-0.90061,1.82923 -1.75193,2.99634 -2.18556,2.99634c-0.39066,0 -3.56743,-0.5343 -7.0595,-1.18735l-6.34918,-1.18735l1.29805,-2.30001c1.79195,-3.17518 1.72921,-4.54264 -0.24632,-5.36807c-6.0564,-2.53053 -20.37571,2.85403 -21.4155,8.05296c-0.49605,2.48026 0.81983,3.11793 10.53159,5.10356c18.69574,3.82247 24.61594,6.3447 27.85157,11.86588c1.53432,2.61813 1.89734,6.56208 0.85515,9.29098c-1.59034,4.16425 -6.19309,7.40434 -12.98649,9.14181c-4.45087,1.13834 -14.44189,2.50177 -22.66404,3.09287zM213.43356,143.87079c-5.30445,1.21629 -10.7325,1.29132 -14.08196,0.19462c-6.90428,-2.2606 -9.83966,-8.57234 -9.85142,-21.18294l-0.00356,-3.61931l-1.94074,0.21875l-1.94074,0.21875l-0.30304,-2.83414c-0.16669,-1.55878 -0.42137,-3.78604 -0.56598,-4.94947l-0.26292,-2.11534h1.56037c0.85822,0 2.16023,-0.11997 2.89339,-0.26658l1.33302,-0.2666l0.53529,-5.34521c0.2944,-2.93986 0.65136,-5.64767 0.79321,-6.01733c0.21847,-0.56932 1.04799,-0.62814 5.42407,-0.3845c2.84138,0.15818 5.87463,0.39109 6.74058,0.51756l1.57445,0.22995l-0.79982,4.7502c-0.4399,2.61262 -0.73504,4.94449 -0.65589,5.182c0.08419,0.25257 2.09646,0.38327 4.84786,0.31487l4.70392,-0.11692l0.37187,2.14863c0.34195,1.97589 0.39292,1.76498 0.63374,-2.62314c0.14403,-2.62446 0.3524,-4.8592 0.46302,-4.96608c0.11064,-0.10691 2.81231,-0.08693 6.00374,0.0444l5.80259,0.23875l-0.17847,8.67933c-0.19992,9.72126 0.08501,11.43373 2.19824,13.2119c1.11337,0.93686 1.82352,1.14593 3.88864,1.14548c6.96663,-0.00192 8.83622,-4.03367 7.55514,-16.29264c-0.38171,-3.65278 -0.6201,-6.72207 -0.52971,-6.8206c0.09039,-0.09855 2.81561,-0.19876 6.05606,-0.22266l5.89173,-0.04351l1.75106,15.4839c0.96308,8.51615 1.67138,15.55961 1.57401,15.65213c-0.09737,0.09253 -2.68205,0.23899 -5.74373,0.32549l-5.56669,0.15725l-0.13956,-1.44734c-0.07675,-0.79604 -0.23135,-1.44734 -0.34354,-1.44734c-0.1122,0 -0.98188,0.51476 -1.93259,1.14391c-2.5593,1.69367 -5.50331,2.41939 -9.79048,2.41347c-6.25294,-0.00864 -9.76258,-1.25864 -12.80691,-4.56136c-2.09634,-2.27426 -3.52273,-5.73864 -3.96224,-9.62329l-0.30918,-2.73278h-3.66568c-2.01612,0 -4.59544,0.12745 -5.73183,0.2832l-2.06617,0.2832l0.00248,5.17215c0.00137,2.8447 0.21156,5.92497 0.46707,6.84507c0.93108,3.35268 3.21917,4.17207 7.80033,2.79335c1.19722,-0.36031 2.30634,-0.51062 2.46471,-0.334c0.36454,0.40649 3.07078,8.60647 3.07078,9.30454c0,0.28593 -1.45291,0.85301 -3.22868,1.2602zM284.71327,141.96604c-3.11802,1.22029 -11.49072,1.54283 -14.93855,0.5755c-5.65979,-1.58792 -10.73459,-5.51196 -12.90414,-9.97796c-1.06987,-2.20232 -1.2157,-3.02802 -1.22789,-6.95248c-0.0122,-3.92605 0.12873,-4.75759 1.19026,-7.02289c2.22221,-4.74222 7.59702,-8.71905 13.71463,-10.14749c4.61221,-1.07693 12.04974,-0.54384 16.21365,1.16213c0.80697,0.33062 0.83519,0.1712 0.56263,-3.17787c-0.15782,-1.93928 -0.42038,-6.08105 -0.58346,-9.20397l-0.29649,-5.67803h6.6796h6.6796l0.30178,7.23669c0.166,3.98017 0.70972,15.32423 1.20827,25.20901c0.49856,9.88478 0.84439,18.03282 0.76851,18.10675c-0.0759,0.07392 -2.74318,0.19762 -5.92733,0.27486l-5.78936,0.14044l-0.13709,-1.88415l-0.13709,-1.88415l-1.50661,1.14915c-0.82862,0.63204 -2.57055,1.56554 -3.87092,2.07446zM273.94876,133.19744c5.49993,1.96066 11.58979,-0.54582 13.26395,-5.45925c0.74228,-2.17845 0.92685,-9.05464 0.33203,-12.36981l-0.31961,-1.78134l-1.04503,2.78334c-0.57476,1.53084 -1.1853,2.78334 -1.35674,2.78334c-0.17142,0 -1.26778,-0.32576 -2.43629,-0.72391c-3.18416,-1.08496 -8.14027,-0.67014 -10.47814,0.87698c-5.38688,3.56487 -4.19706,11.66728 2.03981,13.89066zM330.56245,136.98116c-5.9263,-1.07831 -10.2509,-3.96148 -11.72275,-7.81546c-1.14682,-3.00287 -0.72568,-7.80262 0.95663,-10.90291c2.76534,-5.09618 7.93496,-8.68023 14.55001,-10.0874c13.59829,-2.89267 24.10678,6.5754 20.55866,18.5232c-1.31391,4.42442 -5.70731,7.91512 -12.02064,9.5508c-3.37018,0.87315 -9.53328,1.23918 -12.32191,0.73178zM331.20139,128.67473c1.08025,0.54944 2.35677,0.71304 4.81047,0.61652c7.40894,-0.29146 10.74314,-4.34657 7.99806,-9.72738c-2.22639,-4.36409 -7.98605,-5.12725 -12.23893,-1.62167c-4.06632,3.3518 -4.35583,8.80676 -0.56961,10.73252zM317.13526,133.23582c-0.02758,0.02972 -2.82146,0.15524 -6.20863,0.27893c-4.35474,0.15902 -6.20329,0.07797 -6.31152,-0.27671c-0.08418,-0.27587 -0.27158,-5.1108 -0.41645,-10.74429c-0.14486,-5.63349 -0.38738,-12.28563 -0.53894,-14.78254l-0.27555,-4.53984l6.18247,-0.13618c3.40034,-0.0749 6.28266,-0.06964 6.40513,0.01172c0.18078,0.12009 1.33263,30.0067 1.1635,30.18892zM118.56362,104.37563c-9.1946,1.61837 -9.19427,1.61834 -9.42486,0.8614c-0.09328,-0.30617 -0.90733,-7.0697 -1.80901,-15.03006c-0.90169,-7.96037 -2.10621,-18.17855 -2.6767,-22.70708c-0.6736,-5.34698 -0.88121,-8.33015 -0.59213,-8.50881c0.24485,-0.15132 4.06615,-0.9198 8.49179,-1.70775c6.2886,-1.11963 8.12197,-1.31071 8.39158,-0.87449c0.18973,0.30698 0.48299,2.39933 0.6517,4.64965c0.16872,2.25031 0.45369,4.32922 0.63327,4.6198c0.24997,0.40447 1.56958,0.36837 5.6295,-0.15397c6.64066,-0.85436 18.53099,-2.03748 20.47674,-2.03748c1.81671,0 1.83173,0.04846 2.21317,7.14426l0.30026,5.5856l-9.95694,1.00399c-5.47632,0.5522 -11.6003,1.21963 -13.60886,1.48321c-3.60136,0.47258 -3.64922,0.49541 -3.45645,1.6491c0.1075,0.64345 0.70296,5.57871 1.32321,10.96727c0.62025,5.38855 1.21772,10.20908 1.32772,10.71226c0.18766,0.85846 -0.3005,1.00298 -7.91398,2.34306zM301.72106,93.33449c0,-2.2467 1.51588,-4.26815 4.17699,-5.5701c4.262,-2.0852 8.11716,-1.39126 10.10066,1.81814c2.05348,3.32261 1.0846,7.03278 -2.28526,8.75112c-4.31846,2.20203 -11.99239,-0.99692 -11.99239,-4.99916zM198.47862,93.60939c-3.08685,0.32264 -2.97661,0.43399 -3.36842,-3.40241c-0.13758,-1.34714 -1.35524,-12.26045 -2.70589,-24.2518c-1.35066,-11.99134 -2.30692,-21.9364 -2.12504,-22.10012c0.18188,-0.16372 3.18642,-0.43159 6.67672,-0.59524l6.34602,-0.29755v1.83804c0,1.01093 0.15029,1.77126 0.334,1.68961c0.18371,-0.08163 1.83701,-0.89726 3.67401,-1.81248c4.29209,-2.1384 8.5051,-2.82786 13.32007,-2.17987c10.63491,1.43124 16.51277,6.59537 17.92468,15.7482c1.20935,7.83966 -2.0953,14.95569 -8.41182,18.11347c-4.95683,2.47805 -12.33804,2.84928 -19.27024,0.96919c-1.83701,-0.49823 -3.44977,-0.9106 -3.58393,-0.91634c-0.13415,-0.00576 0.19806,3.64643 0.73825,8.11599c0.73302,6.06508 0.85139,8.20969 0.46658,8.45454c-0.28357,0.18045 -2.0393,0.33134 -3.9016,0.3349c-1.86231,0.00376 -4.61333,0.1351 -6.11338,0.29189zM205.79165,66.4655c0.16741,2.2807 0.37155,4.14671 0.45366,4.14671c0.08211,0 0.58477,-1.01228 1.117,-2.24951c0.74156,-1.72382 1.13472,-2.17883 1.68239,-1.94705c4.32624,1.83088 5.42972,2.11556 8.29744,2.14054c3.93503,0.03429 5.80806,-0.93185 7.22462,-3.72656c3.31553,-6.54119 -2.14683,-13.22089 -10.053,-12.29343c-6.68093,0.78372 -9.37163,5.08077 -8.7221,13.9293zM257.4919,91.81443c-0.04491,0.03503 -3.15571,0.15831 -6.91289,0.27397c-4.74069,0.14593 -6.87954,0.06057 -6.98913,-0.27892c-0.21922,-0.67915 -4.57481,-35.19925 -4.4586,-35.3365c0.05177,-0.06115 3.13361,-0.24273 6.84854,-0.40354l6.7544,-0.29236v1.85087c0,1.90917 0.40745,2.30171 1.28794,1.24078c0.27848,-0.33555 1.75591,-1.18726 3.2832,-1.89267c2.62569,-1.21276 3.10418,-1.2826 8.7889,-1.2826c8.92902,0 13.6218,1.84635 16.80723,6.6128c2.48202,3.71388 2.83752,5.66249 3.11008,17.04695c0.13564,5.66483 0.1274,10.77505 -0.01827,11.35604l-0.26486,1.05636l-6.69272,-0.08812l-6.69273,-0.08813l-0.14074,-10.15459c-0.15183,-10.95544 -0.34021,-11.93878 -2.60848,-13.61686c-1.60477,-1.18721 -4.60689,-1.67079 -7.28486,-1.17346c-2.58973,0.48093 -4.18348,1.52027 -5.12135,3.33979c-0.95994,1.86234 -1.10558,10.38913 -0.28443,16.65256c0.36873,2.81266 0.6337,5.14257 0.58877,5.17761zM313.74509,84.46509c-3.24928,1.01719 -11.50845,1.51028 -14.47339,0.86408c-5.48535,-1.19551 -9.66241,-3.8591 -11.45644,-7.30542c-1.36756,-2.62713 -1.37415,-7.70869 -0.0138,-10.6756c1.41106,-3.07756 3.32954,-5.32545 6.13338,-7.18654c4.16592,-2.76519 6.81557,-3.4913 12.90755,-3.53718c5.09461,-0.03836 5.48012,0.02424 8.2598,1.34147c3.88228,1.83972 5.89857,3.69365 7.49787,6.89414c1.61784,3.23757 2.09362,6.58266 1.40681,9.89095c-0.95904,4.61967 -4.40329,7.88007 -10.2618,9.71411zM303.05707,77.87338c1.3502,0.22489 3.58131,-0.01665 6.12955,-0.66361c2.36835,-0.60126 4.55847,-2.92954 4.55847,-4.84599c0,-1.6954 -1.09253,-4.32778 -2.35925,-5.68446c-4.70936,-5.04378 -14.11814,-1.14197 -14.11814,5.85475c0,3.11309 1.66991,4.6532 5.78936,5.33931zM369.28198,84.14064c-4.41302,0.91584 -7.63558,1.1172 -10.73541,0.67076c-2.68987,-0.38738 -6.04138,-1.75073 -6.92696,-2.8178c-0.41217,-0.49665 -0.77699,-0.4667 -2.15138,0.17673c-2.97047,1.39062 -7.37709,2.3607 -10.8363,2.38555c-5.98252,0.04294 -10.09865,-2.87736 -11.80229,-8.37349c-0.40242,-1.29825 -0.79371,-4.76788 -0.93637,-8.30306l-0.24509,-6.07287l-1.66179,0.2229c-1.59525,0.21397 -1.67257,0.16292 -1.93113,-1.27515c-0.14815,-0.82394 -0.40052,-2.82847 -0.56083,-4.45453l-0.29148,-2.95646l2.39443,-0.32612c2.63996,-0.35954 3.04556,-0.70965 3.05562,-2.6375c0.00375,-0.71822 0.23343,-3.07292 0.51041,-5.23269l0.5036,-3.92685h6.17643c4.64852,0 6.17446,0.1377 6.16844,0.55667c-0.00438,0.30617 -0.29649,2.45227 -0.6491,4.76914c-0.35263,2.31685 -0.54706,4.30655 -0.43207,4.42151c0.11496,0.11496 2.04354,-0.03521 4.28574,-0.33374c3.1213,-0.41555 4.15258,-0.41999 4.40045,-0.01892c0.3606,0.58345 1.05162,7.9346 0.77215,8.21408c-0.09758,0.09758 -2.27107,0.48719 -4.82996,0.86581c-2.55889,0.37862 -4.93199,0.79037 -5.27353,0.91501c-0.5042,0.18399 -0.57541,1.28229 -0.3786,5.83932c0.29712,6.87976 0.83814,7.96429 3.95215,7.92247c1.07037,-0.01438 2.86983,-0.38154 3.9988,-0.81592c1.95177,-0.75095 2.07886,-0.90685 2.58589,-3.17251c0.29329,-1.31052 1.31078,-3.58576 2.26111,-5.0561c4.29669,-6.64785 13.90091,-11.17215 22.56836,-10.63141c9.41555,0.58742 12.07692,5.99551 5.79845,11.78282c-3.08813,2.84654 -9.04983,6.27101 -14.87981,8.54712l-2.32543,0.90788l-1.66556,-1.99255c-0.91606,-1.09591 -1.81853,-1.99255 -2.00547,-1.99255c-0.4849,0 0.07703,2.71035 0.80425,3.87919c0.87589,1.4078 3.3963,1.95861 6.7676,1.479c4.41338,-0.62787 8.44349,-3.03613 10.89064,-6.50794l1.34778,-1.91213l2.93984,1.51221c4.49234,2.31079 4.32905,2.11147 3.21121,3.9202c-1.49878,2.42509 -5.93837,6.29424 -8.94765,7.798c-1.49438,0.74676 -4.16157,1.65752 -5.92709,2.02392zM359.24837,69.93455c4.5604,-1.37937 11.67728,-5.09853 12.57542,-6.57171c0.6795,-1.11457 -0.40298,-1.74751 -2.55099,-1.49157c-3.67706,0.43813 -8.72217,3.85778 -10.35774,7.02061c-0.69248,1.33911 -0.68844,1.35172 0.33331,1.04268zM171.68323,84.37185l-6.51485,0.13421c-4.0773,0.08399 -6.56312,-0.03242 -6.64389,-0.31112c-0.07099,-0.24494 -0.36163,-5.75596 -0.64589,-12.24671c-0.28426,-6.49076 -0.78692,-17.50545 -1.11703,-24.4771c-0.3301,-6.97165 -0.50276,-12.83336 -0.38367,-13.02605c0.11908,-0.19269 3.09454,-0.35032 6.61214,-0.35032h6.39564l0.24884,2.78334c0.23912,2.67456 2.06502,43.82474 2.05407,46.29197zM189.13826,82.19093h-6.87821h-6.87821l-0.29353,-9.68603c-0.16144,-5.32733 -0.42225,-12.84772 -0.57957,-16.71202l-0.28604,-7.02598l6.85764,0.12329l6.85764,0.12329l0.27726,6.90269c0.15249,3.79648 0.42259,11.26141 0.60017,16.58873zM97.9833,58.42594c-0.8617,0.33067 -0.91527,0.12045 -1.76571,-6.92622c-0.51955,-4.305 -0.58384,-6.05991 -0.23003,-6.2786c1.83027,-1.13116 29.93787,-6.22546 45.38046,-8.22487c10.90697,-1.41217 11.52866,-1.41839 11.814,-0.11816c0.26262,1.19669 1.55214,12.10867 1.43636,12.15454c-0.04433,0.01754 -4.68982,0.58698 -10.32331,1.26536c-12.10503,1.45771 -27.79057,4.03259 -38.18816,6.26885c-4.10303,0.88244 -7.75866,1.71905 -8.12362,1.85909zM185.36807,43.90824c-2.75025,1.24847 -5.79143,1.03305 -9.35161,-0.66244c-6.74961,-3.2144 -3.57858,-11.27587 4.77456,-12.13799c4.3541,-0.44938 7.74441,2.42616 8.12881,6.89457c0.23459,2.72708 -0.97312,4.73529 -3.55176,5.90586z" data-paper-data="{&quot;origPos&quot;:null}" id="path4576" fill="#ffffff" stroke-width="0.5"/><g data-paper-data="{&quot;origPos&quot;:null}" fill="#ffe0aa" stroke-width="1"><path d="M156.68113,160.85974l2.18356,0.12131l1.68621,0.60655l1.15243,1.06751l0.5459,1.29801l0.06066,1.3344l-0.18197,1.18884l-0.5459,1.06751l-3.26321,-0.60654l0.5095,-1.18884l-0.32753,-1.06753l-1.27375,-0.35179l-1.63766,0.23048l-1.09178,0.59441l-0.5459,0.59441l-0.30327,0.8249l0.30327,0.60654l1.15245,0.59441l1.03111,0.36392l1.63768,0.59441l1.57702,0.47311l1.1403,0.60654l0.78852,0.59441l0.54588,0.59441l0.5459,1.06751l0.30327,0.83704l0.12132,0.89768l-0.12132,0.89768l-0.26687,0.59441l-0.27901,0.59441l-0.5459,0.59441l-0.5459,0.59441l-1.09178,0.59441l-2.41405,0.48523l-3.03272,0.12131l-2.17144,-0.36392l-1.09177,-0.36392v-3.09339l2.17144,0.23048l2.2442,0.12131l1.75899,-0.23048l0.6672,-0.94622l-0.5459,-0.97047l-0.84917,-0.35179l-1.81963,-0.59441l-1.45571,-0.59441l-1.26162,-0.60654l-0.90982,-0.59441l-0.5459,-0.59441l-0.5459,-0.71572l-0.12131,-1.43145l0.12131,-1.43144l0.30328,-0.95834l0.42457,-0.83703l0.5459,-0.70359l0.6672,-0.71572l0.7885,-0.59441l1.44357,-0.71572z" id="path831"/><path d="M171.10477,165.99113l1.50423,0.06061l1.4921,0.30328l0.77639,0.36392l0.76425,0.37606l0.58228,0.49737l-1.4072,2.71732l-0.5944,-0.61868l-0.92197,-0.49736l-1.1767,-0.24263l-1.16456,0.24263l-1.04326,0.5095l-0.83704,1.10391l-0.36392,1.54063l0.24263,1.43144l1.20095,0.8613l1.55276,0.24262l1.92881,-0.36392l0.87342,-0.3154l0.88556,-0.30327l0.58228,3.08125l-1.16456,0.61868l-1.46784,0.43671l-1.46784,0.18197h-1.16456l-1.46784,-0.06069l-1.45572,-0.55801l-0.8249,-0.37607l-0.93408,-0.86129l-0.5823,-1.23735l-0.24262,-1.67407v-1.44357l0.36392,-1.32228l0.29113,-0.92195l0.41245,-0.81277l0.5823,-0.84917l0.71572,-0.73999l1.06751,-0.73999l1.04326,-0.37606z" id="path833"/><path d="M181.62228,165.93047l0.26689,3.8455l1.09177,-1.62554l0.98261,-0.76425l1.22522,-0.64294l1.57702,-0.53376l1.03113,2.71733l-0.86128,0.12131l-0.8613,0.52162l-0.87342,0.64295l-0.61868,0.77637l-0.8613,0.76425l-0.49736,0.88555l-0.48523,1.41932l-0.37607,2.09864v1.94095h-3.09339l-0.61866,-11.64566z" id="path835"/><path d="M199.53962,169.66678l-1.5285,-0.63081l-1.38293,-0.09704l-1.27374,0.12131l-1.41933,0.5095l-0.70359,0.97047l-0.33967,0.95833l-0.12131,1.06753l0.24262,1.27374l0.72786,1.04326l1.21309,0.44885h1.09178l1.18882,-0.61869l0.81277,-1.00686l0.46099,-1.51637l0.40032,-2.4747zM200.30386,169.60617l1.26162,-0.09704l0.80064,8.69785h-2.66881l-0.23048,-2.43831l-0.94622,1.39506l-1.00687,0.75212l-1.24948,0.29113h-2.26848l-1.40718,-0.23048l-0.94622,-0.6308l-0.70359,-0.84917l-0.57015,-1.22522l-0.36392,-2.13504l0.12132,-1.78324l0.33965,-1.71046l0.46098,-0.98259l1.16456,-1.22523l1.1767,-0.73999l1.39506,-0.49737l1.61341,-0.24262l1.63768,0.09704l1.28587,0.30327l1.22522,0.48523l1.35867,0.94621z" id="path837"/><path d="M207.41258,160.77482l3.22681,0.25475l-0.25475,0.92197l-0.25475,1.46783l-0.25475,1.51637l2.72946,-0.0728v3.31175l-2.8993,-0.02428l-0.07277,1.98947l-0.06069,1.37079v1.29801l0.25475,1.31013l0.94621,0.80066h0.76424l0.77639,-0.25476l0.42459,3.11764l-1.46784,0.33967l-1.46784,0.08492l-1.90455,-0.6672l-1.06753,-1.22523l-0.42457,-1.39504l-0.31541,-1.51637l0.06069,-1.51637v-1.51637l0.13343,-2.14717l-1.86816,-0.04851v-3.06912l2.25635,-0.16984l0.1577,-1.4921l0.32754,-1.4921z" id="path839"/><path d="M221.81197,165.99113l1.50423,0.06061l1.4921,0.30328l0.77639,0.36392l0.76424,0.37606l0.58228,0.49737l-1.40718,2.71732l-0.59441,-0.61868l-0.92195,-0.49736l-1.1767,-0.24263l-1.16456,0.24263l-1.04326,0.5095l-0.83703,1.10391l-0.36392,1.54063l0.24263,1.43144l1.20095,0.8613l1.55274,0.24262l1.92883,-0.36392l0.87342,-0.3154l0.88555,-0.30327l0.5823,3.08125l-1.16456,0.61868l-1.46784,0.43671l-1.46784,0.18197h-1.16456l-1.46784,-0.06069l-1.45571,-0.55801l-0.8249,-0.37607l-0.93408,-0.86129l-0.58228,-1.23735l-0.24263,-1.67407v-1.44357l0.36392,-1.32228l0.29114,-0.92195l0.41245,-0.81277l0.58228,-0.84917l0.71573,-0.73999l1.06751,-0.73999l1.04326,-0.37606z" id="path841"/><path d="M229.35739,160.68991h3.23895l0.12132,6.86609l0.89768,-0.75212l1.12817,-0.61868l1.34652,-0.24263l1.46784,0.12132l1.26162,0.37606l0.89769,0.75212l0.6672,1.00687l0.29113,1.47998v8.47949h-3.11764v-7.60607l-0.29114,-0.73999l-0.77637,-0.49736l-1.14031,-0.12132l-1.01899,0.36392l-0.90982,0.63081l-0.53376,1.10391l0.12131,6.86609h-3.11764z" id="path843"/><path d="M253.72838,167.58026l7.99427,-0.08492l0.0728,1.45572l-0.0728,1.54063l-7.98213,0.12131zM253.01267,172.76015l0.18197,1.32228l0.52163,0.5095l2.37765,0.25476l2.38979,-0.1941l3.76058,-0.41245l1.41932,-0.18197l0.06069,3.44517l-1.35865,0.30327l-3.22683,0.41246l-3.29961,0.16984l-2.17144,-0.06069l-1.84389,-0.16984l-0.97047,-0.24263l-0.83703,-0.71572l-0.5823,-1.298l-0.18197,-3.39666l0.29114,-2.85077l0.59441,-2.81436l0.48523,-1.62554l3.48157,0.29114l-0.98261,4.34287zM249.54322,165.20261l-0.10918,-1.24948v-2.37766l3.23895,-0.24262l9.69259,-0.35181v3.6878l-7.4969,0.25475l-3.45731,0.09705z" id="path845"/><path d="M275.41844,160.99319h3.05699l-0.07278,17.09245h-2.74158v-2.18356l-0.76425,0.97047l-0.97047,0.72785l-1.84389,0.60655h-1.73472l-1.64981,-0.36392l-0.93408,-0.48523l-0.55803,-0.60655l-0.57015,-0.84916l-0.31541,-1.21309l-0.18197,-2.12291l0.30327,-2.12291l0.43671,-1.32226l0.69146,-0.97047l0.80064,-0.72786l1.37079,-0.84917l1.4921,-0.48523l1.32226,-0.06069l1.33441,0.13344l1.45571,0.25475l-0.44885,3.06912l-1.78324,-0.48523l-1.96521,0.24262l-1.12817,0.71572l-0.55801,0.72786l-0.36392,1.57702l0.12131,1.45571l0.57015,0.84917l0.80064,0.48523l1.34654,0.18197l1.34652,-0.30327l1.37079,-0.97047l0.80064,-1.45571z" id="path847"/><path d="M281.21701,166.52488h3.28748l-0.5095,11.6942h-3.1055zM281.81143,161.91513l0.99473,-0.36392l0.99475,0.16984l0.73999,0.42457l0.36392,1.06753l-0.15769,1.32226l-0.8613,0.60655l-0.98259,0.24262l-1.12819,-0.23048l-0.64294,-0.84917l-0.12131,-0.89768l0.12131,-0.89768z" id="path849"/><path d="M290.33946,160.77482l3.22683,0.25475l-0.25475,0.92197l-0.25475,1.46783l-0.25475,1.51637l2.72946,-0.0728v3.31175l-2.8993,-0.02428l-0.07278,1.98947l-0.06062,1.37079v1.29801l0.25475,1.31013l0.94622,0.80066h0.76424l0.77639,-0.25476l0.42457,3.11764l-1.46784,0.33967l-1.46784,0.08492l-1.90455,-0.6672l-1.06751,-1.22523l-0.42459,-1.39504l-0.3154,-1.51637l0.06061,-1.51637v-1.51637l0.13344,-2.14717l-1.86816,-0.04851v-3.06912l2.25635,-0.16984l0.1577,-1.4921l0.32754,-1.4921z" id="path851"/><path d="M299.17075,166.52488h3.28748l-0.5095,11.6942h-3.1055zM299.76518,161.91513l0.99475,-0.36392l0.99473,0.16984l0.73999,0.42457l0.36392,1.06753l-0.1577,1.32226l-0.86128,0.60655l-0.98261,0.24262l-1.12817,-0.23048l-0.64295,-0.84917l-0.12131,-0.89768l0.12131,-0.89768z" id="path853"/><path d="M310.51317,165.80916l1.44357,-0.12132l1.21311,0.12132l1.39504,0.60654l0.92195,0.60654l0.58228,0.60655l0.5823,0.60655l0.46098,1.20095l0.35181,1.51637l0.06061,1.91668l-0.279,1.67407l-0.70359,1.32228l-0.81278,0.95834l-0.93408,0.60654l-1.96519,0.60655l-1.44357,0.06069l-1.91669,-0.06069l-1.85603,-0.72786l-0.81277,-0.60655l-0.93408,-1.31014l-0.46096,-1.44357l0.01211,-1.8075l0.24262,-1.37079l0.46098,-1.3344l0.58228,-1.20095l0.57015,-0.72786l0.5823,-0.48524l1.16456,-0.72785zM310.86495,168.72057l-0.80064,0.36392l-0.70359,0.60655l-0.58228,1.07965l-0.23048,1.47996l0.16984,1.26162l0.6308,0.77639l1.21309,0.47311l1.04326,0.12131l1.18884,-0.24262l0.61868,-0.59441l0.87342,-1.019l-0.07278,-1.72259l-0.35179,-1.26162l-0.57015,-0.83703l-0.81278,-0.48523z" id="path855"/><path d="M323.46897,165.99113l0.06062,1.41931l1.12817,-0.87342l1.18884,-0.30327l1.16456,-0.06069l1.22522,0.33967l0.59441,0.41245l0.70359,0.65508l0.67932,0.94621l0.21836,1.23735l0.13344,2.11078l-0.12131,2.11078l-0.2305,4.2337h-3.08125l0.24263,-3.66354l0.12131,-1.81964l-0.12131,-1.83177l-0.47311,-0.72785l-0.83704,-0.40032l-1.05537,-0.01211l-0.81278,0.53376l-0.40032,0.59441l-0.16984,0.8249l0.06069,3.25109l0.06069,3.25109h-3.42092l-0.32756,-12.05813z" id="path857"/></g></g></g></svg>