<svg version="1.1" xmlns="http://www.w3.org/2000/svg" xmlns:xlink="http://www.w3.org/1999/xlink" width="252.25437" height="157.1052"><g transform="translate(-209.27082,-60.04985)"><g data-paper-data="{&quot;isPaintingLayer&quot;:true}" fill="none" fill-rule="nonzero" stroke="none" stroke-width="none" stroke-linecap="none" stroke-linejoin="miter" stroke-miterlimit="10" stroke-dasharray="" stroke-dashoffset="0" font-family="none" font-weight="none" font-size="none" text-anchor="none" style="mix-blend-mode: normal"><path d="M347.12289,126.57598l-6.20255,-0.07351l0.22623,-66.45262l6.20255,0.0735z" data-paper-data="{&quot;origPos&quot;:null,&quot;origRot&quot;:0}" fill="#005123" stroke="none" stroke-width="0" stroke-linecap="butt"/><path d="M339.08776,125.55959l-6.20255,-0.03894l0.22623,-35.20713l6.20255,0.03894z" data-paper-data="{&quot;origPos&quot;:null,&quot;origRot&quot;:0}" fill="#005123" stroke="none" stroke-width="0" stroke-linecap="butt"/><path d="M333.0304,125.31328l0.16667,-35.23571l6.16667,0.51067l-0.16667,34.72504" data-paper-data="{&quot;origPos&quot;:null}" fill="none" stroke="#418200" stroke-width="0.5" stroke-linecap="round"/><path d="M331.6217,125.87106l-6.20255,-0.02375l0.22623,-21.46664l6.20255,0.02375z" data-paper-data="{&quot;origPos&quot;:null,&quot;origRot&quot;:0}" fill="#005123" stroke="none" stroke-width="0" stroke-linecap="butt"/><path d="M325.56439,125.72088l0.16667,-21.48407l6.16667,0.31137l-0.16667,21.1727" data-paper-data="{&quot;origPos&quot;:null}" fill="none" stroke="#418200" stroke-width="0.5" stroke-linecap="round"/><path d="M323.20718,125.99284l-6.20255,-0.01271l0.22623,-11.49067l6.20255,0.01271z" data-paper-data="{&quot;origPos&quot;:null,&quot;origRot&quot;:0}" fill="#005123" stroke="none" stroke-width="0" stroke-linecap="butt"/><path d="M317.14984,125.91245l0.16667,-11.5l6.16667,0.16667l-0.16667,11.33333" data-paper-data="{&quot;origPos&quot;:null}" fill="none" stroke="#418200" stroke-width="0.5" stroke-linecap="round"/><path d="M271.73177,149.63687l-6.20255,-0.01271l0.22623,-11.49067l6.20255,0.01271z" data-paper-data="{&quot;origPos&quot;:null,&quot;origRot&quot;:0}" fill="#005123" stroke="none" stroke-width="0" stroke-linecap="butt"/><path d="M265.67445,149.55648l0.16667,-11.5l6.16667,0.16667l-0.16667,11.33333" data-paper-data="{&quot;origPos&quot;:null}" fill="none" stroke="#418200" stroke-width="0.5" stroke-linecap="round"/><path d="M433.14077,211.08039l-6.20255,-0.02492l0.22623,-22.52947l6.20255,0.02492z" data-paper-data="{&quot;origPos&quot;:null,&quot;origRot&quot;:0}" fill="#005123" stroke="none" stroke-width="0" stroke-linecap="butt"/><path d="M427.08345,210.92276l0.16667,-22.54777l6.16667,0.32679l-0.16667,22.22098" data-paper-data="{&quot;origPos&quot;:null}" fill="none" stroke="#418200" stroke-width="0.5" stroke-linecap="round"/><path d="M425.01577,210.95539l-6.20255,-0.01792l0.22623,-16.20387l6.20255,0.01792z" data-paper-data="{&quot;origPos&quot;:null,&quot;origRot&quot;:0}" fill="#005123" stroke="none" stroke-width="0" stroke-linecap="butt"/><path d="M418.95845,210.84202l0.16667,-16.21703l6.16667,0.23503l-0.16667,15.98199" data-paper-data="{&quot;origPos&quot;:null}" fill="none" stroke="#418200" stroke-width="0.5" stroke-linecap="round"/><path d="M417.64077,210.95539l-6.20255,-0.01271l0.22623,-11.49067l6.20255,0.01271z" data-paper-data="{&quot;origPos&quot;:null,&quot;origRot&quot;:0}" fill="#005123" stroke="none" stroke-width="0" stroke-linecap="butt"/><path d="M411.58345,210.875l0.16667,-11.5l6.16667,0.16667l-0.16667,11.33333" data-paper-data="{&quot;origPos&quot;:null}" fill="none" stroke="#418200" stroke-width="0.5" stroke-linecap="round"/><path d="M369.26577,211.58039l-6.20255,-0.01271l0.22623,-11.49067l6.20255,0.01271z" data-paper-data="{&quot;origPos&quot;:null,&quot;origRot&quot;:0}" fill="#005123" stroke="none" stroke-width="0" stroke-linecap="butt"/><path d="M363.20845,211.5l0.16667,-11.5l6.16667,0.16667l-0.16667,11.33333" data-paper-data="{&quot;origPos&quot;:null}" fill="none" stroke="#418200" stroke-width="0.5" stroke-linecap="round"/><path d="M348.64077,211.20539l-6.20255,-0.01271l0.22623,-11.49067l6.20255,0.01271z" data-paper-data="{&quot;origPos&quot;:null,&quot;origRot&quot;:0}" fill="#005123" stroke="none" stroke-width="0" stroke-linecap="butt"/><path d="M342.58345,211.125l0.16667,-11.5l6.16667,0.16667l-0.16667,11.33333" data-paper-data="{&quot;origPos&quot;:null}" fill="none" stroke="#418200" stroke-width="0.5" stroke-linecap="round"/><path d="M320.83907,211.22658h140.68612v5.92847h-137.29369c-0.89411,-0.32045 -1.84714,-0.51716 -2.83844,-0.5695c-0.18164,-0.08897 -0.36637,-0.17259 -0.55399,-0.25066z" data-paper-data="{&quot;origPos&quot;:null}" fill="#00642b" stroke="none" stroke-width="0" stroke-linecap="butt"/><path d="M459.53698,211.25003l-139.12761,-0.25" data-paper-data="{&quot;origPos&quot;:null}" fill="none" stroke="#418200" stroke-width="1.5" stroke-linecap="round"/><path d="M278.17958,191.99646l3.81442,-6.69624l44.8167,25.52918l-3.45074,6.05779c-0.63349,-0.16324 -1.29129,-0.26597 -1.96686,-0.30164c-0.09019,-0.04417 -0.18113,-0.08703 -0.27283,-0.12855z" data-paper-data="{&quot;origPos&quot;:null,&quot;origRot&quot;:0}" fill="#00642b" stroke="none" stroke-width="0" stroke-linecap="butt"/><path d="M326.4471,210.69073l-44.23181,-25.40158" data-paper-data="{&quot;origPos&quot;:null,&quot;origRot&quot;:0}" fill="none" stroke="#418200" stroke-width="1.5" stroke-linecap="round"/><path d="M264.39072,185.08039l-6.20255,-0.01271l0.22623,-11.49067l6.20255,0.01271z" data-paper-data="{&quot;origPos&quot;:null,&quot;origRot&quot;:0}" fill="#005123" stroke="none" stroke-width="0" stroke-linecap="butt"/><path d="M209.87487,196.15504v-10.78562h72.18612v10.78562z" data-paper-data="{&quot;origPos&quot;:null}" fill="#006b2e" stroke="none" stroke-width="0" stroke-linecap="butt"/><path d="M210.02082,185.00002l71.38645,0.25" data-paper-data="{&quot;origPos&quot;:null}" fill="none" stroke="#418200" stroke-width="1.5" stroke-linecap="round"/><path d="M258.3334,185l0.16667,-11.5l6.16667,0.16667l-0.16667,11.33333" fill="none" stroke="#418200" stroke-width="0.5" stroke-linecap="round"/><path d="M405.4582,184.98956v-6.11349h18.11764v6.11349z" data-paper-data="{&quot;origPos&quot;:null}" fill="#006b2e" stroke="none" stroke-width="0" stroke-linecap="butt"/><path d="M381.12487,175.98956v-6.11349h18.11764v6.11349z" data-paper-data="{&quot;origPos&quot;:null}" fill="#006b2e" stroke="none" stroke-width="0" stroke-linecap="butt"/><path d="M361.32487,170.05623v-6.11349h18.11764v6.11349z" data-paper-data="{&quot;origPos&quot;:null}" fill="#006b2e" stroke="none" stroke-width="0" stroke-linecap="butt"/><path d="M336.12483,168.15623v-6.11348h18.11764v6.11348z" data-paper-data="{&quot;origPos&quot;:null}" fill="#006b2e" stroke="none" stroke-width="0" stroke-linecap="butt"/><path d="M405.67101,178.69658l17.66666,0.33333" data-paper-data="{&quot;origPos&quot;:null}" fill="none" stroke="#418200" stroke-width="0.5" stroke-linecap="round"/><path d="M399.02455,170.22571l-17.66667,-0.33333" data-paper-data="{&quot;origPos&quot;:null}" fill="none" stroke="#418200" stroke-width="0.5" stroke-linecap="round"/><path d="M361.51289,163.77778l17.66666,0.33333" data-paper-data="{&quot;origPos&quot;:null}" fill="none" stroke="#418200" stroke-width="0.5" stroke-linecap="round"/><path d="M354.00006,162.23043l-17.66666,-0.33333" data-paper-data="{&quot;origPos&quot;:null}" fill="none" stroke="#418200" stroke-width="0.5" stroke-linecap="round"/><path d="M321.14286,216.28571l3,0.57143" fill="none" stroke="#00642b" stroke-width="0.5" stroke-linecap="round"/><path d="M258.18411,160.88915v-10.78562h72.18612v10.78562z" data-paper-data="{&quot;origPos&quot;:null}" fill="#006b2e" stroke="none" stroke-width="0" stroke-linecap="butt"/><path d="M329.71653,149.98413l-71.38645,-0.25" data-paper-data="{&quot;origPos&quot;:null}" fill="none" stroke="#418200" stroke-width="1.5" stroke-linecap="round"/><path d="M276.05929,136.73469v-6.11348h28.5509v6.11348z" data-paper-data="{&quot;origPos&quot;:null}" fill="#006b2e" stroke="none" stroke-width="0" stroke-linecap="butt"/><path d="M304.38723,130.84298l-28.15271,-0.33333" data-paper-data="{&quot;origPos&quot;:null}" fill="none" stroke="#418200" stroke-width="0.5" stroke-linecap="round"/><path d="M308.94451,131.68083v-6.11348h43.53684v6.11348z" data-paper-data="{&quot;origPos&quot;:null}" fill="#006b2e" stroke="none" stroke-width="0" stroke-linecap="butt"/><path d="M309.10652,125.47035l43.13462,0.33333" data-paper-data="{&quot;origPos&quot;:null}" fill="none" stroke="#418200" stroke-width="0.5" stroke-linecap="round"/></g></g></svg>