<svg version="1.1" xmlns="http://www.w3.org/2000/svg" xmlns:xlink="http://www.w3.org/1999/xlink" width="53.52198" height="53.52194"><g transform="translate(-220.98899,-160.48905)"><g data-paper-data="{&quot;isPaintingLayer&quot;:true}" fill="none" fill-rule="nonzero" stroke="none" stroke-width="1" stroke-linecap="butt" stroke-linejoin="miter" stroke-miterlimit="10" stroke-dasharray="" stroke-dashoffset="0" font-family="none" font-weight="none" font-size="none" text-anchor="none" style="mix-blend-mode: normal"><path d="M260.26155,160.48905c7.86695,0 14.24942,6.38245 14.24942,14.24942c0,7.84918 0,17.16507 0,25.02312c0,7.86695 -6.38247,14.2494 -14.24942,14.2494c-7.84917,0 -15.24498,0 -22.62305,0c-9.19145,0 -16.64951,-7.45804 -16.64951,-16.64949c0,-7.37805 0,-12.84491 0,-20.22296c0,-9.19144 7.45805,-16.64949 16.64951,-16.64949c7.37805,0 14.77386,0 22.62305,0z" data-paper-data="{&quot;origPos&quot;:null}" id="b1yS31SGJN 1" fill="#007c67"/><path d="M268.84877,186.41138c0,2.729 -2.2223,4.9513 -4.9513,4.9513c-2.72898,0 -4.94239,-2.2223 -4.94239,-4.9513c0,-2.72898 2.21341,-4.94239 4.94239,-4.94239c2.72898,0 4.9513,2.21341 4.9513,4.94239z" data-paper-data="{&quot;origPos&quot;:null}" id="aI9nvowIY 1" fill="#1d1d1d"/><path d="M251.50059,186.41138c0,2.729 -2.2223,4.9513 -4.9513,4.9513c-2.72898,0 -4.94239,-2.2223 -4.94239,-4.9513c0,-2.72898 2.21341,-4.94239 4.94239,-4.94239c2.72898,0 4.9513,2.21341 4.9513,4.94239z" data-paper-data="{&quot;origPos&quot;:null}" id="aI9nvowIY 1" fill="#1d1d1d"/></g></g></svg>