<svg xmlns="http://www.w3.org/2000/svg" xmlns:xlink="http://www.w3.org/1999/xlink" version="1.1" width="149.08068404274988" height="44.35166869240808" viewBox="0.5818646665523062 1.757664513201476 149.08068404274988 44.35166869240808">
  <!-- Exported by Scratch - http://scratch.mit.edu/ -->
  <g id="ID0.5048368093557656">
    <g id="layer1">
      <g id="g4646">
        <g id="g4609">
          <path id="path4611" fill="none" stroke="#3468a1" stroke-width="4.257670737085817" stroke-linecap="round" stroke-linejoin="round" opacity="1" d="M 97.9154 6.5108 C 92.7027 6.5172 88.4089 10.6069 88.1489 15.8132 C 88.1415 15.9222 88.136 16.0315 88.1324 16.1412 C 88.1292 16.1947 88.1266 16.248 88.1244 16.3012 C 88.125 16.3257 88.126 16.3502 88.127 16.3744 C 88.1266 16.4054 88.1244 16.436 88.1244 16.467 C 88.1244 16.4931 88.126 16.5189 88.1263 16.545 C 88.126 16.5747 88.1244 16.6037 88.1244 16.6334 C 88.1244 16.6599 88.126 16.6863 88.1263 16.7127 C 88.126 16.7418 88.1244 16.7705 88.1244 16.7995 C 88.1244 16.8263 88.126 16.8524 88.1263 16.8792 C 88.126 16.9079 88.1244 16.9366 88.1244 16.9653 C 88.1244 16.9924 88.126 17.0188 88.1263 17.0459 C 88.126 17.0747 88.1244 17.103 88.1244 17.1317 C 88.1244 17.1588 88.126 17.1853 88.1263 17.2124 C 88.126 17.2408 88.1244 17.2695 88.1244 17.2979 C 88.1244 17.3249 88.126 17.3511 88.1263 17.3778 C 88.126 17.4066 88.1244 17.4349 88.1244 17.4636 C 88.1244 17.4907 88.126 17.5172 88.1263 17.5443 C 88.126 17.573 88.1244 17.6014 88.1244 17.6301 C 88.1244 17.6569 88.126 17.6833 88.1263 17.7101 C 88.126 17.7385 88.1244 17.7668 88.1244 17.7956 C 88.1244 17.8226 88.126 17.8494 88.1263 17.8762 C 88.126 17.9049 88.1244 17.9333 88.1244 17.962 C 88.1244 17.9891 88.126 18.0155 88.1263 18.0426 C 88.126 18.0713 88.1244 18.0997 88.1244 18.1284 C 88.1244 18.1552 88.126 18.1813 88.1263 18.2084 C 88.126 18.2368 88.1244 18.2652 88.1244 18.2939 C 88.1244 18.321 88.126 18.3478 88.1263 18.3745 C 88.126 18.4032 88.1244 18.4316 88.1244 18.4603 C 88.1244 18.4871 88.126 18.5135 88.1263 18.5403 C 88.126 18.569 88.1244 18.5974 88.1244 18.6261 C 88.1244 18.6529 88.126 18.6797 88.1263 18.7068 C 88.126 18.7351 88.1244 18.7635 88.1244 18.7922 C 88.1244 18.8193 88.126 18.8458 88.1263 18.8729 C 88.126 18.9016 88.1244 18.93 88.1244 18.9587 C 88.1244 18.9854 88.126 19.0119 88.1263 19.0387 C 88.126 19.0674 88.1244 19.0958 88.1244 19.1241 C 88.1244 19.1512 88.126 19.178 88.1263 19.2048 C 88.126 19.2335 88.1244 19.2619 88.1244 19.2906 C 88.1244 19.3173 88.126 19.3438 88.1263 19.3706 C 88.126 19.3993 88.1244 19.4277 88.1244 19.4564 C 88.1244 19.4835 88.126 19.5099 88.1263 19.537 C 88.126 19.5654 88.1244 19.5941 88.1244 19.6225 C 88.1244 19.6496 88.126 19.6763 88.1263 19.7031 C 88.126 19.7318 88.1244 19.7602 88.1244 19.7889 C 88.1244 19.8157 88.126 19.8421 88.1263 19.8689 C 88.126 19.8976 88.1244 19.926 88.1244 19.9547 C 88.1244 19.9815 88.126 20.0083 88.1263 20.0353 C 88.126 20.0637 88.1244 20.0924 88.1244 20.1208 C 88.1244 20.1476 88.126 20.174 88.1263 20.2008 C 88.126 20.2295 88.1244 20.2579 88.1244 20.2866 C 88.1244 20.3137 88.126 20.3402 88.1263 20.3672 C 88.126 20.396 88.1244 20.4243 88.1244 20.453 C 88.1244 20.4798 88.126 20.5066 88.1263 20.5337 C 88.126 20.5621 88.1244 20.5905 88.1244 20.6192 C 88.1244 20.6463 88.126 20.6724 88.1263 20.6992 C 88.126 20.7279 88.1244 20.7562 88.1244 20.785 C 88.1244 20.812 88.126 20.8385 88.1263 20.8656 C 88.126 20.8943 88.1244 20.9227 88.1244 20.9514 C 88.1244 20.9782 88.126 21.0046 88.1263 21.0314 C 88.126 21.0598 88.1244 21.0882 88.1244 21.1169 C 88.1244 21.144 88.126 21.1707 88.1263 21.1975 C 88.126 21.2262 88.1244 21.2546 88.1244 21.2833 C 88.1244 21.3104 88.126 21.3368 88.1263 21.3639 C 88.126 21.3926 88.1244 21.421 88.1244 21.4494 C 88.1244 21.4765 88.126 21.5026 88.1263 21.5294 C 88.126 21.5581 88.1244 21.5865 88.1244 21.6152 C 88.1244 21.6423 88.126 21.6687 88.1263 21.6958 C 88.126 21.7245 88.1244 21.7529 88.1244 21.7816 C 88.1244 21.8084 88.126 21.8349 88.1263 21.8616 C 88.126 21.8903 88.1244 21.9187 88.1244 21.9471 C 88.1244 21.9742 88.126 22.001 88.1263 22.0277 C 88.126 22.0564 88.1244 22.0848 88.1244 22.1135 C 88.1244 22.1406 88.126 22.1671 88.1263 22.1942 C 88.126 22.2229 88.1244 22.2513 88.1244 22.28 C 88.1244 22.3067 88.126 22.3332 88.1263 22.36 C 88.126 22.3884 88.1244 22.4167 88.1244 22.4454 C 88.1244 22.4725 88.126 22.4993 88.1263 22.5261 C 88.126 22.5548 88.1244 22.5832 88.1244 22.6119 C 88.1244 22.6387 88.126 22.6651 88.1263 22.6919 C 88.126 22.7206 88.1244 22.749 88.1244 22.7777 C 88.1244 22.8044 88.126 22.8312 88.1263 22.8583 C 88.126 22.8867 88.1244 22.9151 88.1244 22.9438 C 88.1244 22.9709 88.126 22.9977 88.1263 23.0244 C 88.126 23.0531 88.1244 23.0815 88.1244 23.1102 C 88.1244 23.137 88.126 23.1634 88.1263 23.1902 C 88.126 23.2189 88.1244 23.2473 88.1244 23.276 C 88.1244 23.3028 88.126 23.3296 88.1263 23.3567 C 88.126 23.385 88.1244 23.4134 88.1244 23.4421 C 88.1244 23.4689 88.126 23.4953 88.1263 23.5221 C 88.126 23.5508 88.1244 23.5792 88.1244 23.6079 C 88.1244 23.635 88.126 23.6615 88.1263 23.6886 C 88.126 23.7173 88.1244 23.7456 88.1244 23.774 C 88.1244 23.8011 88.126 23.8279 88.1263 23.8547 C 88.126 23.8834 88.1244 23.9118 88.1244 23.9405 C 88.1244 23.9672 88.126 23.9937 88.1263 24.0205 C 88.126 24.0492 88.1244 24.0776 88.1244 24.1063 C 88.1244 24.1334 88.126 24.1598 88.1263 24.1869 C 88.126 24.2153 88.1244 24.244 88.1244 24.2724 C 88.1244 24.2995 88.126 24.3256 88.1263 24.3524 C 88.126 24.3811 88.1244 24.4095 88.1244 24.4382 C 88.1244 24.4653 88.126 24.4917 88.1263 24.5188 C 88.126 24.5475 88.1244 24.5759 88.1244 24.6046 C 88.1244 24.6314 88.126 24.6581 88.1263 24.6852 C 88.126 24.7136 88.1244 24.7423 88.1244 24.7707 C 88.1244 24.7978 88.126 24.8239 88.1263 24.8507 C 88.126 24.8794 88.1244 24.9078 88.1244 24.9365 C 88.1244 24.9636 88.126 24.99 88.1263 25.0171 C 88.126 25.0458 88.1244 25.0742 88.1244 25.1029 C 88.1244 25.1297 88.126 25.1562 88.1263 25.1829 C 88.126 25.2113 88.1244 25.2397 88.1244 25.2684 C 88.1244 25.2955 88.126 25.3223 88.1263 25.349 C 88.126 25.3778 88.1244 25.4061 88.1244 25.4348 C 88.1244 25.4619 88.126 25.4884 88.1263 25.5155 C 88.126 25.5442 88.1244 25.5726 88.1244 25.6013 C 88.1244 25.6281 88.126 25.6542 88.1263 25.6813 C 88.126 25.7097 88.1244 25.738 88.1244 25.7667 C 88.1244 25.7938 88.126 25.8206 88.1263 25.8474 C 88.126 25.8761 88.1244 25.9045 88.1244 25.9332 C 88.1244 25.9603 88.126 25.9867 88.1263 26.0138 C 88.126 26.0425 88.1244 26.0709 88.1244 26.0993 C 88.1244 26.1264 88.126 26.1525 88.1263 26.1793 C 88.126 26.208 88.1244 26.2364 88.1244 26.2651 C 88.1244 26.2922 88.126 26.3186 88.1263 26.3457 C 88.126 26.3744 88.1244 26.4028 88.1244 26.4315 C 88.1244 26.4583 88.126 26.4847 88.1263 26.5115 C 88.126 26.5402 88.1244 26.5686 88.1244 26.597 C 88.1244 26.6241 88.126 26.6509 88.1263 26.6776 C 88.126 26.7063 88.1244 26.7347 88.1244 26.7634 C 88.1244 26.7905 88.126 26.817 88.1263 26.8441 C 88.126 26.8728 88.1244 26.9012 88.1244 26.9299 C 88.1244 26.9566 88.126 26.9831 88.1263 27.0099 C 88.126 27.0382 88.1244 27.067 88.1244 27.0953 C 88.1244 27.1224 88.126 27.1492 88.1263 27.176 C 88.126 27.2047 88.1244 27.2331 88.1244 27.2618 C 88.1244 27.2885 88.126 27.315 88.1263 27.3418 C 88.126 27.3705 88.1244 27.3989 88.1244 27.4276 C 88.1244 27.4543 88.126 27.4811 88.1263 27.5082 C 88.126 27.5366 88.1244 27.5653 88.1244 27.5937 C 88.1244 27.6208 88.126 27.6475 88.1263 27.6743 C 88.126 27.703 88.1244 27.7314 88.1244 27.7601 C 88.1244 27.7869 88.126 27.8133 88.1263 27.8401 C 88.126 27.8688 88.1244 27.8972 88.1244 27.9259 C 88.1244 27.9527 88.126 27.9794 88.1263 28.0065 C 88.126 28.0349 88.1244 28.0633 88.1244 28.092 C 88.1244 28.1188 88.126 28.1452 88.1263 28.172 C 88.126 28.2007 88.1244 28.2291 88.1244 28.2578 C 88.1244 28.2849 88.126 28.3114 88.1263 28.3384 C 88.126 28.3672 88.1244 28.3955 88.1244 28.4239 C 88.1244 28.451 88.126 28.4778 88.1263 28.5046 C 88.126 28.5333 88.1244 28.5617 88.1244 28.5904 C 88.1244 28.6171 88.126 28.6436 88.1263 28.6704 C 88.126 28.6991 88.1244 28.7274 88.1244 28.7562 C 88.1244 28.7832 88.126 28.8097 88.1263 28.8368 C 88.126 28.8652 88.1244 28.8939 88.1244 28.9223 C 88.1244 28.9494 88.126 28.9755 88.1263 29.0023 C 88.126 29.031 88.1244 29.0593 88.1244 29.0881 C 88.1244 29.1151 88.126 29.1416 88.1263 29.1687 C 88.126 29.1974 88.1244 29.2258 88.1244 29.2545 C 88.1244 29.2813 88.126 29.308 88.1263 29.3351 C 88.126 29.3635 88.1244 29.3922 88.1244 29.4206 C 88.1244 29.4477 88.126 29.4738 88.1263 29.5006 C 88.126 29.5293 88.1244 29.5577 88.1244 29.5864 C 88.1244 29.6135 88.126 29.6399 88.1263 29.667 C 88.126 29.6957 88.1244 29.7241 88.1244 29.7528 C 88.1244 29.7796 88.126 29.8061 88.1263 29.8328 C 88.126 29.8612 88.1244 29.8896 88.1244 29.9183 C 88.1244 29.9454 88.126 29.9722 88.1263 29.9989 C 88.126 30.0276 88.1244 30.056 88.1244 30.0847 C 88.1244 30.1118 88.126 30.1383 88.1263 30.1654 C 88.126 30.1941 88.1244 30.2225 88.1244 30.2512 C 88.1244 30.2779 88.126 30.3041 88.1263 30.3312 C 88.126 30.3596 88.1244 30.3879 88.1244 30.4166 C 88.1244 30.4437 88.126 30.4705 88.1263 30.4973 C 88.126 30.526 88.1244 30.5544 88.1244 30.5831 C 88.1244 30.6099 88.126 30.6363 88.1263 30.6631 C 88.126 30.6918 88.1244 30.7202 88.1244 30.7489 C 88.1244 30.7756 88.126 30.8024 88.1263 30.8295 C 88.126 30.8579 88.1244 30.8863 88.1244 30.915 C 88.1244 30.9421 88.126 30.9685 88.1263 30.9956 C 88.126 31.0243 88.1244 31.0527 88.1244 31.0814 C 88.1244 31.1082 88.126 31.1346 88.1263 31.1614 C 88.126 31.1901 88.1244 31.2185 88.1244 31.2469 C 88.1244 31.274 88.126 31.3008 88.1263 31.3275 C 88.126 31.3562 88.1244 31.3846 88.1244 31.4133 C 88.1244 31.4401 88.126 31.4665 88.1263 31.4933 C 88.126 31.522 88.1244 31.5504 88.1244 31.5791 C 88.1244 31.6062 88.126 31.6327 88.1263 31.6598 C 88.126 31.6881 88.1244 31.7168 88.1244 31.7452 C 88.1244 31.7723 88.126 31.7991 88.1263 31.8259 C 88.126 31.8546 88.1244 31.883 88.1244 31.9117 C 88.1244 31.9384 88.126 31.9649 88.1263 31.9917 C 88.126 32.0204 88.1244 32.0487 88.1244 32.0775 C 88.1244 32.1042 88.126 32.131 88.1263 32.1581 C 88.126 32.1865 88.1244 32.2152 88.1244 32.2436 C 88.1244 32.2703 88.126 32.2968 88.1263 32.3236 C 88.126 32.3523 88.1244 32.3807 88.1244 32.4094 C 88.1244 32.4365 88.126 32.4629 88.1263 32.49 C 88.126 32.5187 88.1244 32.5471 88.1244 32.5758 C 88.1244 32.6026 88.126 32.6293 88.1263 32.6564 C 88.126 32.6848 88.1244 32.7132 88.1244 32.7419 C 88.1244 32.7687 88.126 32.7951 88.1263 32.8219 C 88.126 32.8506 88.1244 32.879 88.1244 32.9077 C 88.1244 32.9442 88.1273 32.9803 88.1276 33.0167 C 88.1263 33.0358 88.1253 33.0548 88.1244 33.0738 C 88.1244 38.4814 92.5082 42.8648 97.9154 42.8645 C 103.1204 42.8577 107.41 38.7797 107.6803 33.5818 C 107.6881 33.4677 107.6939 33.3535 107.6977 33.2383 C 107.701 33.1835 107.7039 33.1286 107.7061 33.0738 C 107.7052 33.0512 107.7045 33.0283 107.7035 33.0054 C 107.7039 32.9725 107.7061 32.9403 107.7061 32.9077 C 107.7061 32.88 107.7045 32.8529 107.7042 32.8251 C 107.7042 32.7974 107.7061 32.77 107.7061 32.7419 C 107.7061 32.7142 107.7045 32.6868 107.7042 32.6587 C 107.7042 32.631 107.7061 32.6035 107.7061 32.5758 C 107.7061 32.5477 107.7045 32.5203 107.7042 32.4926 C 107.7042 32.4645 107.7061 32.4371 107.7061 32.4094 C 107.7061 32.3816 107.7045 32.3545 107.7042 32.3268 C 107.7042 32.299 107.7061 32.2716 107.7061 32.2436 C 107.7061 32.2158 107.7045 32.1884 107.7042 32.1604 C 107.7042 32.1326 107.7061 32.1052 107.7061 32.0775 C 107.7061 32.0494 107.7045 32.022 107.7042 31.9942 C 107.7042 31.9665 107.7061 31.9394 107.7061 31.9117 C 107.7061 31.8839 107.7045 31.8562 107.7042 31.8284 C 107.7042 31.8007 107.7061 31.7733 107.7061 31.7452 C 107.7061 31.7175 107.7045 31.6901 107.7042 31.6623 C 107.7042 31.6343 107.7061 31.6069 107.7061 31.5791 C 107.7061 31.5514 107.7045 31.5243 107.7042 31.4965 C 107.7042 31.4688 107.7061 31.4411 107.7061 31.4133 C 107.7061 31.3856 107.7045 31.3582 107.7042 31.3301 C 107.7042 31.3024 107.7061 31.275 107.7061 31.2469 C 107.7061 31.2191 107.7045 31.1917 107.7042 31.164 C 107.7042 31.1363 107.7061 31.1092 107.7061 31.0814 C 107.7061 31.0534 107.7045 31.0259 107.7042 30.9982 C 107.7042 30.9705 107.7061 30.943 107.7061 30.915 C 107.7061 30.8872 107.7045 30.8598 107.7042 30.8318 C 107.7042 30.804 107.7061 30.7766 107.7061 30.7489 C 107.7061 30.7211 107.7045 30.6937 107.7042 30.6663 C 107.7042 30.6382 107.7061 30.6108 107.7061 30.5831 C 107.7061 30.555 107.7045 30.5276 107.7042 30.4999 C 107.7042 30.4721 107.7061 30.4447 107.7061 30.4166 C 107.7061 30.3889 107.7045 30.3615 107.7042 30.3334 C 107.7042 30.306 107.7061 30.2786 107.7061 30.2512 C 107.7061 30.2231 107.7045 30.1957 107.7042 30.168 C 107.7042 30.1399 107.7061 30.1125 107.7061 30.0847 C 107.7061 30.057 107.7045 30.0293 107.7042 30.0015 C 107.7042 29.9738 107.7061 29.9464 107.7061 29.9183 C 107.7061 29.8906 107.7045 29.8635 107.7042 29.8357 C 107.7042 29.808 107.7061 29.7806 107.7061 29.7528 C 107.7061 29.7248 107.7045 29.6974 107.7042 29.6696 C 107.7042 29.6419 107.7061 29.6141 107.7061 29.5864 C 107.7061 29.5587 107.7045 29.5309 107.7042 29.5032 C 107.7042 29.4754 107.7061 29.4483 107.7061 29.4206 C 107.7061 29.3929 107.7045 29.3654 107.7042 29.3377 C 107.7042 29.3096 107.7061 29.2822 107.7061 29.2545 C 107.7061 29.2264 107.7045 29.199 107.7042 29.1713 C 107.7042 29.1435 107.7061 29.1161 107.7061 29.0881 C 107.7061 29.0603 107.7045 29.0332 107.7042 29.0055 C 107.7042 28.9777 107.7061 28.9503 107.7061 28.9223 C 107.7061 28.8945 107.7045 28.8671 107.7042 28.8394 C 107.7042 28.8113 107.7061 28.7839 107.7061 28.7562 C 107.7061 28.7281 107.7045 28.7007 107.7042 28.6729 C 107.7042 28.6452 107.7061 28.6181 107.7061 28.5904 C 107.7061 28.5626 107.7045 28.5352 107.7042 28.5071 C 107.7042 28.4794 107.7061 28.452 107.7061 28.4239 C 107.7061 28.3962 107.7045 28.3688 107.7042 28.341 C 107.7042 28.313 107.7061 28.2855 107.7061 28.2578 C 107.7061 28.2301 107.7045 28.203 107.7042 28.1752 C 107.7042 28.1475 107.7061 28.1201 107.7061 28.092 C 107.7061 28.0643 107.7045 28.0369 107.7042 28.0088 C 107.7042 27.9811 107.7061 27.9536 107.7061 27.9259 C 107.7061 27.8978 107.7045 27.8704 107.7042 27.8427 C 107.7042 27.8149 107.7061 27.7879 107.7061 27.7601 C 107.7061 27.7321 107.7045 27.7046 107.7042 27.6769 C 107.7042 27.6492 107.7061 27.6217 107.7061 27.5937 C 107.7061 27.5659 107.7045 27.5385 107.7042 27.5105 C 107.7042 27.4827 107.7061 27.4553 107.7061 27.4276 C 107.7061 27.3995 107.7045 27.3721 107.7042 27.3443 C 107.7042 27.3166 107.7061 27.2895 107.7061 27.2618 C 107.7061 27.234 107.7045 27.2063 107.7042 27.1786 C 107.7042 27.1508 107.7061 27.1234 107.7061 27.0953 C 107.7061 27.0676 107.7045 27.0402 107.7042 27.0124 C 107.7042 26.9847 107.7061 26.9576 107.7061 26.9299 C 107.7061 26.9018 107.7045 26.8744 107.7042 26.8466 C 107.7042 26.8189 107.7061 26.7912 107.7061 26.7634 C 107.7061 26.7357 107.7045 26.708 107.7042 26.6802 C 107.7042 26.6525 107.7061 26.6251 107.7061 26.597 C 107.7061 26.5693 107.7045 26.5418 107.7042 26.5141 C 107.7042 26.4864 107.7061 26.4593 107.7061 26.4315 C 107.7061 26.4035 107.7045 26.376 107.7042 26.3483 C 107.7042 26.3206 107.7061 26.2932 107.7061 26.2651 C 107.7061 26.2374 107.7045 26.2099 107.7042 26.1819 C 107.7042 26.1545 107.7061 26.127 107.7061 26.0993 C 107.7061 26.0716 107.7045 26.0441 107.7042 26.0164 C 107.7042 25.9883 107.7061 25.9609 107.7061 25.9332 C 107.7061 25.9051 107.7045 25.8777 107.7042 25.85 C 107.7042 25.8222 107.7061 25.7948 107.7061 25.7667 C 107.7061 25.739 107.7045 25.7116 107.7042 25.6835 C 107.7042 25.6561 107.7061 25.6287 107.7061 25.6013 C 107.7061 25.5732 107.7045 25.5458 107.7042 25.5181 C 107.7042 25.49 107.7061 25.4626 107.7061 25.4348 C 107.7061 25.4071 107.7045 25.3794 107.7042 25.3516 C 107.7042 25.3239 107.7061 25.2965 107.7061 25.2684 C 107.7061 25.2407 107.7045 25.2136 107.7042 25.1858 C 107.7042 25.1581 107.7061 25.1307 107.7061 25.1029 C 107.7061 25.0749 107.7045 25.0475 107.7042 25.0197 C 107.7042 24.9917 107.7061 24.9642 107.7061 24.9365 C 107.7061 24.9084 107.7045 24.8813 107.7042 24.8533 C 107.7042 24.8255 107.7061 24.7985 107.7061 24.7707 C 107.7061 24.743 107.7045 24.7156 107.7042 24.6875 C 107.7042 24.6598 107.7061 24.6323 107.7061 24.6046 C 107.7061 24.5765 107.7045 24.5491 107.7042 24.5214 C 107.7042 24.4936 107.7061 24.4659 107.7061 24.4382 C 107.7061 24.4104 107.7045 24.3833 107.7042 24.3556 C 107.7042 24.3279 107.7061 24.3004 107.7061 24.2724 C 107.7061 24.2446 107.7045 24.2172 107.7042 24.1895 C 107.7042 24.1614 107.7061 24.134 107.7061 24.1063 C 107.7061 24.0782 107.7045 24.0508 107.7042 24.023 C 107.7042 23.9953 107.7061 23.9682 107.7061 23.9405 C 107.7061 23.9127 107.7045 23.8853 107.7042 23.8572 C 107.7042 23.8295 107.7061 23.8021 107.7061 23.774 C 107.7061 23.7463 107.7045 23.7189 107.7042 23.6911 C 107.7042 23.6631 107.7061 23.6357 107.7061 23.6079 C 107.7061 23.5802 107.7045 23.5531 107.7042 23.5253 C 107.7042 23.4976 107.7061 23.4702 107.7061 23.4421 C 107.7061 23.4144 107.7045 23.387 107.7042 23.3589 C 107.7042 23.3312 107.7061 23.3038 107.7061 23.276 C 107.7061 23.248 107.7045 23.2205 107.7042 23.1928 C 107.7042 23.1651 107.7061 23.138 107.7061 23.1102 C 107.7061 23.0822 107.7045 23.0547 107.7042 23.027 C 107.7042 22.9993 107.7061 22.9718 107.7061 22.9438 C 107.7061 22.916 107.7045 22.8886 107.7042 22.8606 C 107.7042 22.8328 107.7061 22.8054 107.7061 22.7777 C 107.7061 22.7499 107.7045 22.7225 107.7042 22.6951 C 107.7042 22.667 107.7061 22.6396 107.7061 22.6119 C 107.7061 22.5841 107.7045 22.5564 107.7042 22.5287 C 107.7042 22.5009 107.7061 22.4735 107.7061 22.4454 C 107.7061 22.4177 107.7045 22.3903 107.7042 22.3625 C 107.7042 22.3348 107.7061 22.3077 107.7061 22.28 C 107.7061 22.2519 107.7045 22.2245 107.7042 22.1968 C 107.7042 22.169 107.7061 22.1413 107.7061 22.1135 C 107.7061 22.0858 107.7045 22.0581 107.7042 22.0303 C 107.7042 22.0026 107.7061 21.9752 107.7061 21.9471 C 107.7061 21.9197 107.7045 21.8923 107.7042 21.8649 C 107.7042 21.8368 107.7061 21.8094 107.7061 21.7816 C 107.7061 21.7536 107.7045 21.7262 107.7042 21.6984 C 107.7042 21.6707 107.7061 21.6433 107.7061 21.6152 C 107.7061 21.5875 107.7045 21.56 107.7042 21.532 C 107.7042 21.5046 107.7061 21.4771 107.7061 21.4494 C 107.7061 21.4217 107.7045 21.3943 107.7042 21.3665 C 107.7042 21.3384 107.7061 21.311 107.7061 21.2833 C 107.7061 21.2552 107.7045 21.2278 107.7042 21.2001 C 107.7042 21.1723 107.7061 21.1449 107.7061 21.1169 C 107.7061 21.0891 107.7045 21.062 107.7042 21.0343 C 107.7042 21.0065 107.7061 20.9791 107.7061 20.9514 C 107.7061 20.9233 107.7045 20.8959 107.7042 20.8682 C 107.7042 20.8401 107.7061 20.8127 107.7061 20.785 C 107.7061 20.7569 107.7045 20.7295 107.7042 20.7017 C 107.7042 20.674 107.7061 20.6469 107.7061 20.6192 C 107.7061 20.5914 107.7045 20.564 107.7042 20.5359 C 107.7042 20.5082 107.7061 20.4808 107.7061 20.453 C 107.7061 20.425 107.7045 20.3976 107.7042 20.3698 C 107.7042 20.3418 107.7061 20.3144 107.7061 20.2866 C 107.7061 20.2589 107.7045 20.2318 107.7042 20.204 C 107.7042 20.1763 107.7061 20.1489 107.7061 20.1208 C 107.7061 20.0931 107.7045 20.0657 107.7042 20.0376 C 107.7042 20.0099 107.7061 19.9824 107.7061 19.9547 C 107.7061 19.9266 107.7045 19.8992 107.7042 19.8715 C 107.7042 19.8437 107.7061 19.8167 107.7061 19.7889 C 107.7061 19.7612 107.7045 19.7334 107.7042 19.7057 C 107.7042 19.678 107.7061 19.6505 107.7061 19.6225 C 107.7061 19.5947 107.7045 19.5673 107.7042 19.5396 C 107.7042 19.5115 107.7061 19.4841 107.7061 19.4564 C 107.7061 19.4286 107.7045 19.4015 107.7042 19.3738 C 107.7042 19.3461 107.7061 19.3186 107.7061 19.2906 C 107.7061 19.2628 107.7045 19.2354 107.7042 19.2074 C 107.7042 19.1796 107.7061 19.1522 107.7061 19.1241 C 107.7061 19.0964 107.7045 19.069 107.7042 19.0412 C 107.7042 19.0135 107.7061 18.9864 107.7061 18.9587 C 107.7061 18.9306 107.7045 18.9032 107.7042 18.8755 C 107.7042 18.8477 107.7061 18.8203 107.7061 18.7922 C 107.7061 18.7645 107.7045 18.7371 107.7042 18.709 C 107.7042 18.6813 107.7061 18.6539 107.7061 18.6261 C 107.7061 18.5984 107.7045 18.571 107.7042 18.5435 C 107.7042 18.5155 107.7061 18.4881 107.7061 18.4603 C 107.7061 18.4323 107.7045 18.4048 107.7042 18.3771 C 107.7042 18.3494 107.7061 18.322 107.7061 18.2939 C 107.7061 18.2662 107.7045 18.2387 107.7042 18.2107 C 107.7042 18.1833 107.7061 18.1558 107.7061 18.1284 C 107.7061 18.1004 107.7045 18.0729 107.7042 18.0452 C 107.7042 18.0171 107.7061 17.9897 107.7061 17.962 C 107.7061 17.9342 107.7045 17.9065 107.7042 17.8788 C 107.7042 17.851 107.7061 17.8236 107.7061 17.7956 C 107.7061 17.7678 107.7045 17.7407 107.7042 17.713 C 107.7042 17.6852 107.7061 17.6578 107.7061 17.6301 C 107.7061 17.602 107.7045 17.5746 107.7042 17.5469 C 107.7042 17.5191 107.7061 17.4914 107.7061 17.4636 C 107.7061 17.4359 107.7045 17.4082 107.7042 17.3804 C 107.7042 17.3527 107.7061 17.3256 107.7061 17.2979 C 107.7061 17.2701 107.7045 17.2427 107.7042 17.215 C 107.7042 17.1869 107.7061 17.1595 107.7061 17.1317 C 107.7061 17.1037 107.7045 17.0763 107.7042 17.0485 C 107.7042 17.0208 107.7061 16.9934 107.7061 16.9653 C 107.7061 16.9376 107.7045 16.9105 107.7042 16.8827 C 107.7042 16.855 107.7061 16.8276 107.7061 16.7995 C 107.7061 16.7715 107.7045 16.7434 107.7042 16.7153 C 107.7042 16.6879 107.7061 16.6608 107.7061 16.6334 C 107.7061 16.6057 107.7045 16.5786 107.7042 16.5508 C 107.7042 16.5228 107.7061 16.495 107.7061 16.467 C 107.7061 16.4295 107.7039 16.3928 107.7035 16.3554 C 107.7045 16.3373 107.7052 16.3192 107.7061 16.3012 C 107.7058 10.8943 103.3227 6.5108 97.9154 6.5108 Z "/>
          <path id="path4613" fill="none" stroke="#3468a1" stroke-width="4.257670737085817" stroke-linecap="round" stroke-linejoin="round" d="M 2.7107 43.9805 L 20.2439 7.512 L 37.7768 43.6299 "/>
          <path id="path4615" fill="none" stroke="#3468a1" stroke-width="4.257670737085817" stroke-linecap="round" stroke-linejoin="round" d="M 34.2703 6.8104 L 48.6474 6.8104 C 56.1483 6.8104 60.8008 24.3437 41.6342 24.3437 L 51.4526 43.6299 "/>
          <path id="path4617" fill="none" stroke="#3468a1" stroke-width="4.257670737085817" stroke-linecap="round" stroke-linejoin="round" d="M 58.1391 6.8104 L 72.5161 6.8104 C 80.0171 6.8104 84.6695 24.3437 65.5029 24.3437 L 75.3214 43.6299 "/>
          <path id="path4619" fill="none" stroke="#3468a1" stroke-width="4.257670737085817" stroke-linecap="round" stroke-linejoin="round" d="M 117.3768 6.8104 L 117.3768 35.5649 L 123.6888 43.9805 L 132.8061 36.6167 L 132.8061 25.7461 L 132.8061 36.2661 L 140.8711 43.2793 L 147.5337 35.9155 L 147.5337 6.4598 "/>
        </g>
        <g id="g4602">
          <path id="path4157" fill="none" stroke="#61a2f6" stroke-width="4.257670737085817" stroke-linecap="round" stroke-linejoin="round" opacity="1" d="M 97.9154 3.9375 C 92.7027 3.9439 88.4089 8.0335 88.1489 13.2398 C 88.1415 13.3488 88.136 13.4582 88.1324 13.5679 C 88.1292 13.6214 88.1266 13.6746 88.1244 13.7278 C 88.125 13.7523 88.126 13.7769 88.127 13.8011 C 88.1266 13.832 88.1244 13.8627 88.1244 13.8936 C 88.1244 13.9198 88.126 13.9456 88.1263 13.9717 C 88.126 14.0014 88.1244 14.0304 88.1244 14.0601 C 88.1244 14.0865 88.126 14.113 88.1263 14.1394 C 88.126 14.1684 88.1244 14.1971 88.1244 14.2262 C 88.1244 14.2529 88.126 14.2791 88.1263 14.3058 C 88.126 14.3346 88.1244 14.3633 88.1244 14.392 C 88.1244 14.4191 88.126 14.4455 88.1263 14.4726 C 88.126 14.5013 88.1244 14.5297 88.1244 14.5584 C 88.1244 14.5855 88.126 14.6119 88.1263 14.639 C 88.126 14.6674 88.1244 14.6961 88.1244 14.7245 C 88.1244 14.7516 88.126 14.7777 88.1263 14.8045 C 88.126 14.8332 88.1244 14.8616 88.1244 14.8903 C 88.1244 14.9174 88.126 14.9439 88.1263 14.9709 C 88.126 14.9997 88.1244 15.028 88.1244 15.0567 C 88.1244 15.0835 88.126 15.11 88.1263 15.1367 C 88.126 15.1651 88.1244 15.1935 88.1244 15.2222 C 88.1244 15.2493 88.126 15.2761 88.1263 15.3029 C 88.126 15.3316 88.1244 15.3599 88.1244 15.3887 C 88.1244 15.4157 88.126 15.4422 88.1263 15.4693 C 88.126 15.498 88.1244 15.5264 88.1244 15.5551 C 88.1244 15.5819 88.126 15.608 88.1263 15.6351 C 88.126 15.6635 88.1244 15.6918 88.1244 15.7206 C 88.1244 15.7476 88.126 15.7744 88.1263 15.8012 C 88.126 15.8299 88.1244 15.8583 88.1244 15.887 C 88.1244 15.9138 88.126 15.9402 88.1263 15.967 C 88.126 15.9957 88.1244 16.0241 88.1244 16.0528 C 88.1244 16.0796 88.126 16.1063 88.1263 16.1334 C 88.126 16.1618 88.1244 16.1902 88.1244 16.2189 C 88.1244 16.246 88.126 16.2724 88.1263 16.2995 C 88.126 16.3282 88.1244 16.3566 88.1244 16.3853 C 88.1244 16.4121 88.126 16.4386 88.1263 16.4653 C 88.126 16.494 88.1244 16.5224 88.1244 16.5508 C 88.1244 16.5779 88.126 16.6047 88.1263 16.6314 C 88.126 16.6601 88.1244 16.6885 88.1244 16.7172 C 88.1244 16.744 88.126 16.7705 88.1263 16.7972 C 88.126 16.8259 88.1244 16.8543 88.1244 16.883 C 88.1244 16.9101 88.126 16.9366 88.1263 16.9637 C 88.126 16.9921 88.1244 17.0208 88.1244 17.0491 C 88.1244 17.0762 88.126 17.103 88.1263 17.1298 C 88.126 17.1585 88.1244 17.1869 88.1244 17.2156 C 88.1244 17.2423 88.126 17.2688 88.1263 17.2956 C 88.126 17.3243 88.1244 17.3527 88.1244 17.3814 C 88.1244 17.4081 88.126 17.4349 88.1263 17.462 C 88.126 17.4904 88.1244 17.5191 88.1244 17.5475 C 88.1244 17.5743 88.126 17.6007 88.1263 17.6275 C 88.126 17.6562 88.1244 17.6846 88.1244 17.7133 C 88.1244 17.7404 88.126 17.7668 88.1263 17.7939 C 88.126 17.8226 88.1244 17.851 88.1244 17.8797 C 88.1244 17.9065 88.126 17.9333 88.1263 17.9603 C 88.126 17.9887 88.1244 18.0171 88.1244 18.0458 C 88.1244 18.0729 88.126 18.099 88.1263 18.1258 C 88.126 18.1545 88.1244 18.1829 88.1244 18.2116 C 88.1244 18.2387 88.126 18.2652 88.1263 18.2923 C 88.126 18.321 88.1244 18.3493 88.1244 18.3781 C 88.1244 18.4048 88.126 18.4313 88.1263 18.458 C 88.126 18.4864 88.1244 18.5148 88.1244 18.5435 C 88.1244 18.5706 88.126 18.5974 88.1263 18.6242 C 88.126 18.6529 88.1244 18.6812 88.1244 18.71 C 88.1244 18.7371 88.126 18.7635 88.1263 18.7906 C 88.126 18.8193 88.1244 18.8477 88.1244 18.8761 C 88.1244 18.9032 88.126 18.9293 88.1263 18.9561 C 88.126 18.9848 88.1244 19.0132 88.1244 19.0419 C 88.1244 19.069 88.126 19.0954 88.1263 19.1225 C 88.126 19.1512 88.1244 19.1796 88.1244 19.2083 C 88.1244 19.2351 88.126 19.2615 88.1263 19.2883 C 88.126 19.317 88.1244 19.3454 88.1244 19.3738 C 88.1244 19.4009 88.126 19.4276 88.1263 19.4544 C 88.126 19.4831 88.1244 19.5115 88.1244 19.5402 C 88.1244 19.5673 88.126 19.5937 88.1263 19.6208 C 88.126 19.6495 88.1244 19.6779 88.1244 19.7066 C 88.1244 19.7334 88.126 19.7599 88.1263 19.7866 C 88.126 19.815 88.1244 19.8434 88.1244 19.8721 C 88.1244 19.8992 88.126 19.926 88.1263 19.9527 C 88.126 19.9815 88.1244 20.0098 88.1244 20.0385 C 88.1244 20.0653 88.126 20.0918 88.1263 20.1185 C 88.126 20.1472 88.1244 20.1756 88.1244 20.2043 C 88.1244 20.2311 88.126 20.2579 88.1263 20.285 C 88.126 20.3134 88.1244 20.3417 88.1244 20.3704 C 88.1244 20.3975 88.126 20.4243 88.1263 20.4511 C 88.126 20.4798 88.1244 20.5082 88.1244 20.5369 C 88.1244 20.5637 88.126 20.5901 88.1263 20.6169 C 88.126 20.6456 88.1244 20.674 88.1244 20.7027 C 88.1244 20.7294 88.126 20.7562 88.1263 20.7833 C 88.126 20.8117 88.1244 20.8401 88.1244 20.8688 C 88.1244 20.8956 88.126 20.922 88.1263 20.9488 C 88.126 20.9775 88.1244 21.0059 88.1244 21.0346 C 88.1244 21.0617 88.126 21.0881 88.1263 21.1152 C 88.126 21.1439 88.1244 21.1723 88.1244 21.2007 C 88.1244 21.2278 88.126 21.2546 88.1263 21.2813 C 88.126 21.31 88.1244 21.3384 88.1244 21.3671 C 88.1244 21.3939 88.126 21.4204 88.1263 21.4471 C 88.126 21.4758 88.1244 21.5042 88.1244 21.5329 C 88.1244 21.56 88.126 21.5865 88.1263 21.6136 C 88.126 21.6419 88.1244 21.6706 88.1244 21.699 C 88.1244 21.7261 88.126 21.7523 88.1263 21.779 C 88.126 21.8077 88.1244 21.8361 88.1244 21.8648 C 88.1244 21.8919 88.126 21.9184 88.1263 21.9455 C 88.126 21.9742 88.1244 22.0026 88.1244 22.0313 C 88.1244 22.058 88.126 22.0848 88.1263 22.1119 C 88.126 22.1403 88.1244 22.169 88.1244 22.1974 C 88.1244 22.2245 88.126 22.2506 88.1263 22.2774 C 88.126 22.3061 88.1244 22.3345 88.1244 22.3632 C 88.1244 22.3903 88.126 22.4167 88.1263 22.4438 C 88.126 22.4725 88.1244 22.5009 88.1244 22.5296 C 88.1244 22.5564 88.126 22.5828 88.1263 22.6096 C 88.126 22.638 88.1244 22.6664 88.1244 22.6951 C 88.1244 22.7222 88.126 22.7489 88.1263 22.7757 C 88.126 22.8044 88.1244 22.8328 88.1244 22.8615 C 88.1244 22.8886 88.126 22.9151 88.1263 22.9421 C 88.126 22.9709 88.1244 22.9992 88.1244 23.0279 C 88.1244 23.0547 88.126 23.0808 88.1263 23.1079 C 88.126 23.1363 88.1244 23.1647 88.1244 23.1934 C 88.1244 23.2205 88.126 23.2473 88.1263 23.274 C 88.126 23.3028 88.1244 23.3311 88.1244 23.3598 C 88.1244 23.3869 88.126 23.4134 88.1263 23.4405 C 88.126 23.4692 88.1244 23.4976 88.1244 23.526 C 88.1244 23.5531 88.126 23.5792 88.1263 23.606 C 88.126 23.6347 88.1244 23.663 88.1244 23.6918 C 88.1244 23.7188 88.126 23.7453 88.1263 23.7724 C 88.126 23.8011 88.1244 23.8295 88.1244 23.8582 C 88.1244 23.885 88.126 23.9114 88.1263 23.9382 C 88.126 23.9669 88.1244 23.9953 88.1244 24.0237 C 88.1244 24.0508 88.126 24.0775 88.1263 24.1043 C 88.126 24.133 88.1244 24.1614 88.1244 24.1901 C 88.1244 24.2172 88.126 24.2436 88.1263 24.2707 C 88.126 24.2994 88.1244 24.3278 88.1244 24.3565 C 88.1244 24.3833 88.126 24.4098 88.1263 24.4365 C 88.126 24.4649 88.1244 24.4936 88.1244 24.522 C 88.1244 24.5491 88.126 24.5759 88.1263 24.6026 C 88.126 24.6313 88.1244 24.6597 88.1244 24.6884 C 88.1244 24.7152 88.126 24.7417 88.1263 24.7684 C 88.126 24.7971 88.1244 24.8255 88.1244 24.8542 C 88.1244 24.881 88.126 24.9078 88.1263 24.9349 C 88.126 24.9632 88.1244 24.992 88.1244 25.0203 C 88.1244 25.0474 88.126 25.0742 88.1263 25.101 C 88.126 25.1297 88.1244 25.1581 88.1244 25.1868 C 88.1244 25.2135 88.126 25.24 88.1263 25.2668 C 88.126 25.2955 88.1244 25.3239 88.1244 25.3526 C 88.1244 25.3793 88.126 25.4061 88.1263 25.4332 C 88.126 25.4616 88.1244 25.49 88.1244 25.5187 C 88.1244 25.5455 88.126 25.5719 88.1263 25.5987 C 88.126 25.6274 88.1244 25.6558 88.1244 25.6845 C 88.1244 25.7116 88.126 25.738 88.1263 25.7651 C 88.126 25.7938 88.1244 25.8222 88.1244 25.8506 C 88.1244 25.8777 88.126 25.9045 88.1263 25.9312 C 88.126 25.9599 88.1244 25.9883 88.1244 26.017 C 88.1244 26.0438 88.126 26.0702 88.1263 26.097 C 88.126 26.1257 88.1244 26.1541 88.1244 26.1828 C 88.1244 26.2099 88.126 26.2364 88.1263 26.2635 C 88.126 26.2918 88.1244 26.3205 88.1244 26.3489 C 88.1244 26.376 88.126 26.4021 88.1263 26.4289 C 88.126 26.4576 88.1244 26.486 88.1244 26.5147 C 88.1244 26.5418 88.126 26.5683 88.1263 26.5954 C 88.126 26.6241 88.1244 26.6524 88.1244 26.6812 C 88.1244 26.7079 88.126 26.7347 88.1263 26.7618 C 88.126 26.7902 88.1244 26.8189 88.1244 26.8473 C 88.1244 26.8744 88.126 26.9005 88.1263 26.9273 C 88.126 26.956 88.1244 26.9844 88.1244 27.0131 C 88.1244 27.0402 88.126 27.0666 88.1263 27.0937 C 88.126 27.1224 88.1244 27.1508 88.1244 27.1795 C 88.1244 27.2063 88.126 27.2327 88.1263 27.2595 C 88.126 27.2879 88.1244 27.3163 88.1244 27.345 C 88.1244 27.3721 88.126 27.3988 88.1263 27.4256 C 88.126 27.4543 88.1244 27.4827 88.1244 27.5114 C 88.1244 27.5385 88.126 27.5649 88.1263 27.592 C 88.126 27.6207 88.1244 27.6491 88.1244 27.6778 C 88.1244 27.7046 88.126 27.7307 88.1263 27.7578 C 88.126 27.7862 88.1244 27.8146 88.1244 27.8433 C 88.1244 27.8704 88.126 27.8972 88.1263 27.9239 C 88.126 27.9526 88.1244 27.981 88.1244 28.0097 C 88.1244 28.0365 88.126 28.063 88.1263 28.0897 C 88.126 28.1184 88.1244 28.1468 88.1244 28.1755 C 88.1244 28.2023 88.126 28.2291 88.1263 28.2562 C 88.126 28.2846 88.1244 28.3129 88.1244 28.3416 C 88.1244 28.3687 88.126 28.3952 88.1263 28.4223 C 88.126 28.451 88.1244 28.4794 88.1244 28.5081 C 88.1244 28.5349 88.126 28.5613 88.1263 28.5881 C 88.126 28.6168 88.1244 28.6452 88.1244 28.6736 C 88.1244 28.7006 88.126 28.7274 88.1263 28.7542 C 88.126 28.7829 88.1244 28.8113 88.1244 28.84 C 88.1244 28.8668 88.126 28.8932 88.1263 28.92 C 88.126 28.9487 88.1244 28.9771 88.1244 29.0058 C 88.1244 29.0329 88.126 29.0593 88.1263 29.0864 C 88.126 29.1148 88.1244 29.1435 88.1244 29.1719 C 88.1244 29.199 88.126 29.2258 88.1263 29.2525 C 88.126 29.2812 88.1244 29.3096 88.1244 29.3383 C 88.1244 29.3651 88.126 29.3915 88.1263 29.4183 C 88.126 29.447 88.1244 29.4754 88.1244 29.5041 C 88.1244 29.5309 88.126 29.5577 88.1263 29.5848 C 88.126 29.6131 88.1244 29.6418 88.1244 29.6702 C 88.1244 29.697 88.126 29.7235 88.1263 29.7502 C 88.126 29.7789 88.1244 29.8073 88.1244 29.836 C 88.1244 29.8631 88.126 29.8896 88.1263 29.9167 C 88.126 29.9454 88.1244 29.9738 88.1244 30.0025 C 88.1244 30.0292 88.126 30.056 88.1263 30.0831 C 88.126 30.1115 88.1244 30.1399 88.1244 30.1686 C 88.1244 30.1953 88.126 30.2218 88.1263 30.2486 C 88.126 30.2773 88.1244 30.3057 88.1244 30.3344 C 88.1244 30.3708 88.1273 30.4069 88.1276 30.4434 C 88.1263 30.4624 88.1253 30.4814 88.1244 30.5005 C 88.1244 35.908 92.5082 40.2915 97.9154 40.2912 C 103.1204 40.2844 107.41 36.2064 107.6803 31.0085 C 107.6881 30.8943 107.6939 30.7801 107.6977 30.665 C 107.701 30.6101 107.7039 30.5553 107.7061 30.5005 C 107.7052 30.4779 107.7045 30.455 107.7035 30.4321 C 107.7039 30.3992 107.7061 30.3669 107.7061 30.3344 C 107.7061 30.3066 107.7045 30.2795 107.7042 30.2518 C 107.7042 30.2241 107.7061 30.1966 107.7061 30.1686 C 107.7061 30.1408 107.7045 30.1134 107.7042 30.0854 C 107.7042 30.0576 107.7061 30.0302 107.7061 30.0025 C 107.7061 29.9744 107.7045 29.947 107.7042 29.9192 C 107.7042 29.8912 107.7061 29.8638 107.7061 29.836 C 107.7061 29.8083 107.7045 29.7812 107.7042 29.7535 C 107.7042 29.7257 107.7061 29.6983 107.7061 29.6702 C 107.7061 29.6425 107.7045 29.6151 107.7042 29.587 C 107.7042 29.5593 107.7061 29.5319 107.7061 29.5041 C 107.7061 29.4761 107.7045 29.4486 107.7042 29.4209 C 107.7042 29.3932 107.7061 29.3661 107.7061 29.3383 C 107.7061 29.3106 107.7045 29.2828 107.7042 29.2551 C 107.7042 29.2274 107.7061 29.2 107.7061 29.1719 C 107.7061 29.1442 107.7045 29.1167 107.7042 29.089 C 107.7042 29.0609 107.7061 29.0335 107.7061 29.0058 C 107.7061 28.978 107.7045 28.9509 107.7042 28.9232 C 107.7042 28.8955 107.7061 28.8677 107.7061 28.84 C 107.7061 28.8122 107.7045 28.7848 107.7042 28.7568 C 107.7042 28.729 107.7061 28.7016 107.7061 28.6736 C 107.7061 28.6458 107.7045 28.6184 107.7042 28.5907 C 107.7042 28.5629 107.7061 28.5358 107.7061 28.5081 C 107.7061 28.48 107.7045 28.4526 107.7042 28.4249 C 107.7042 28.3971 107.7061 28.3697 107.7061 28.3416 C 107.7061 28.3139 107.7045 28.2865 107.7042 28.2584 C 107.7042 28.2307 107.7061 28.2033 107.7061 28.1755 C 107.7061 28.1478 107.7045 28.1204 107.7042 28.093 C 107.7042 28.0649 107.7061 28.0375 107.7061 28.0097 C 107.7061 27.9817 107.7045 27.9543 107.7042 27.9265 C 107.7042 27.8988 107.7061 27.8714 107.7061 27.8433 C 107.7061 27.8156 107.7045 27.7881 107.7042 27.7601 C 107.7042 27.7327 107.7061 27.7053 107.7061 27.6778 C 107.7061 27.6498 107.7045 27.6224 107.7042 27.5946 C 107.7042 27.5666 107.7061 27.5391 107.7061 27.5114 C 107.7061 27.4837 107.7045 27.4559 107.7042 27.4282 C 107.7042 27.4004 107.7061 27.373 107.7061 27.345 C 107.7061 27.3172 107.7045 27.2901 107.7042 27.2624 C 107.7042 27.2347 107.7061 27.2072 107.7061 27.1795 C 107.7061 27.1514 107.7045 27.124 107.7042 27.0963 C 107.7042 27.0685 107.7061 27.0408 107.7061 27.0131 C 107.7061 26.9853 107.7045 26.9576 107.7042 26.9298 C 107.7042 26.9021 107.7061 26.875 107.7061 26.8473 C 107.7061 26.8195 107.7045 26.7921 107.7042 26.7644 C 107.7042 26.7363 107.7061 26.7089 107.7061 26.6812 C 107.7061 26.6531 107.7045 26.6257 107.7042 26.5979 C 107.7042 26.5702 107.7061 26.5428 107.7061 26.5147 C 107.7061 26.487 107.7045 26.4599 107.7042 26.4321 C 107.7042 26.4044 107.7061 26.377 107.7061 26.3489 C 107.7061 26.3212 107.7045 26.2938 107.7042 26.266 C 107.7042 26.238 107.7061 26.2106 107.7061 26.1828 C 107.7061 26.1548 107.7045 26.1273 107.7042 26.0996 C 107.7042 26.0719 107.7061 26.0448 107.7061 26.017 C 107.7061 25.9893 107.7045 25.9619 107.7042 25.9338 C 107.7042 25.9061 107.7061 25.8786 107.7061 25.8506 C 107.7061 25.8228 107.7045 25.7954 107.7042 25.7677 C 107.7042 25.7396 107.7061 25.7122 107.7061 25.6845 C 107.7061 25.6567 107.7045 25.6296 107.7042 25.6019 C 107.7042 25.5742 107.7061 25.5467 107.7061 25.5187 C 107.7061 25.4909 107.7045 25.4635 107.7042 25.4355 C 107.7042 25.4077 107.7061 25.3803 107.7061 25.3526 C 107.7061 25.3245 107.7045 25.2971 107.7042 25.2693 C 107.7042 25.2416 107.7061 25.2145 107.7061 25.1868 C 107.7061 25.1587 107.7045 25.1313 107.7042 25.1036 C 107.7042 25.0758 107.7061 25.0484 107.7061 25.0203 C 107.7061 24.9926 107.7045 24.9652 107.7042 24.9371 C 107.7042 24.9094 107.7061 24.882 107.7061 24.8542 C 107.7061 24.8262 107.7045 24.7987 107.7042 24.771 C 107.7042 24.7433 107.7061 24.7162 107.7061 24.6884 C 107.7061 24.6607 107.7045 24.633 107.7042 24.6052 C 107.7042 24.5775 107.7061 24.5501 107.7061 24.522 C 107.7061 24.4943 107.7045 24.4668 107.7042 24.4391 C 107.7042 24.4114 107.7061 24.3843 107.7061 24.3565 C 107.7061 24.3285 107.7045 24.3011 107.7042 24.2733 C 107.7042 24.2456 107.7061 24.2178 107.7061 24.1901 C 107.7061 24.1624 107.7045 24.1346 107.7042 24.1069 C 107.7042 24.0791 107.7061 24.0517 107.7061 24.0237 C 107.7061 23.9959 107.7045 23.9685 107.7042 23.9408 C 107.7042 23.913 107.7061 23.8859 107.7061 23.8582 C 107.7061 23.8301 107.7045 23.8027 107.7042 23.775 C 107.7042 23.7472 107.7061 23.7198 107.7061 23.6918 C 107.7061 23.664 107.7045 23.6366 107.7042 23.6085 C 107.7042 23.5811 107.7061 23.5537 107.7061 23.526 C 107.7061 23.4982 107.7045 23.4708 107.7042 23.4431 C 107.7042 23.415 107.7061 23.3876 107.7061 23.3598 C 107.7061 23.3318 107.7045 23.3044 107.7042 23.2766 C 107.7042 23.2489 107.7061 23.2215 107.7061 23.1934 C 107.7061 23.1657 107.7045 23.1383 107.7042 23.1102 C 107.7042 23.0828 107.7061 23.0554 107.7061 23.0279 C 107.7061 22.9999 107.7045 22.9725 107.7042 22.9447 C 107.7042 22.9167 107.7061 22.8892 107.7061 22.8615 C 107.7061 22.8338 107.7045 22.806 107.7042 22.7783 C 107.7042 22.7505 107.7061 22.7231 107.7061 22.6951 C 107.7061 22.6673 107.7045 22.6402 107.7042 22.6125 C 107.7042 22.5848 107.7061 22.5573 107.7061 22.5296 C 107.7061 22.5015 107.7045 22.4741 107.7042 22.4464 C 107.7042 22.4183 107.7061 22.3909 107.7061 22.3632 C 107.7061 22.3351 107.7045 22.308 107.7042 22.2799 C 107.7042 22.2522 107.7061 22.2251 107.7061 22.1974 C 107.7061 22.1696 107.7045 22.1422 107.7042 22.1142 C 107.7042 22.0864 107.7061 22.059 107.7061 22.0313 C 107.7061 22.0032 107.7045 21.9758 107.7042 21.948 C 107.7042 21.9203 107.7061 21.8926 107.7061 21.8648 C 107.7061 21.8371 107.7045 21.81 107.7042 21.7823 C 107.7042 21.7545 107.7061 21.7271 107.7061 21.699 C 107.7061 21.6713 107.7045 21.6439 107.7042 21.6161 C 107.7042 21.5881 107.7061 21.5607 107.7061 21.5329 C 107.7061 21.5049 107.7045 21.4774 107.7042 21.4497 C 107.7042 21.422 107.7061 21.3949 107.7061 21.3671 C 107.7061 21.3394 107.7045 21.312 107.7042 21.2839 C 107.7042 21.2562 107.7061 21.2288 107.7061 21.2007 C 107.7061 21.173 107.7045 21.1455 107.7042 21.1178 C 107.7042 21.0897 107.7061 21.0623 107.7061 21.0346 C 107.7061 21.0068 107.7045 20.9797 107.7042 20.952 C 107.7042 20.9243 107.7061 20.8969 107.7061 20.8688 C 107.7061 20.841 107.7045 20.8136 107.7042 20.7856 C 107.7042 20.7578 107.7061 20.7304 107.7061 20.7027 C 107.7061 20.6746 107.7045 20.6472 107.7042 20.6195 C 107.7042 20.5917 107.7061 20.5646 107.7061 20.5369 C 107.7061 20.5088 107.7045 20.4814 107.7042 20.4537 C 107.7042 20.4259 107.7061 20.3985 107.7061 20.3704 C 107.7061 20.3427 107.7045 20.3153 107.7042 20.2872 C 107.7042 20.2595 107.7061 20.2321 107.7061 20.2043 C 107.7061 20.1766 107.7045 20.1492 107.7042 20.1218 C 107.7042 20.0937 107.7061 20.0663 107.7061 20.0385 C 107.7061 20.0108 107.7045 19.9831 107.7042 19.9553 C 107.7042 19.9276 107.7061 19.9002 107.7061 19.8721 C 107.7061 19.8444 107.7045 19.817 107.7042 19.7892 C 107.7042 19.7615 107.7061 19.7344 107.7061 19.7066 C 107.7061 19.6786 107.7045 19.6512 107.7042 19.6234 C 107.7042 19.5957 107.7061 19.5679 107.7061 19.5402 C 107.7061 19.5125 107.7045 19.4847 107.7042 19.457 C 107.7042 19.4292 107.7061 19.4018 107.7061 19.3738 C 107.7061 19.3463 107.7045 19.3189 107.7042 19.2915 C 107.7042 19.2635 107.7061 19.236 107.7061 19.2083 C 107.7061 19.1802 107.7045 19.1528 107.7042 19.1251 C 107.7042 19.0973 107.7061 19.0699 107.7061 19.0419 C 107.7061 19.0141 107.7045 18.9867 107.7042 18.9586 C 107.7042 18.9312 107.7061 18.9038 107.7061 18.8761 C 107.7061 18.8483 107.7045 18.8209 107.7042 18.7932 C 107.7042 18.7651 107.7061 18.7377 107.7061 18.71 C 107.7061 18.6819 107.7045 18.6545 107.7042 18.6267 C 107.7042 18.599 107.7061 18.5716 107.7061 18.5435 C 107.7061 18.5158 107.7045 18.4887 107.7042 18.4609 C 107.7042 18.4332 107.7061 18.4058 107.7061 18.3781 C 107.7061 18.35 107.7045 18.3226 107.7042 18.2948 C 107.7042 18.2668 107.7061 18.2394 107.7061 18.2116 C 107.7061 18.1836 107.7045 18.1561 107.7042 18.1284 C 107.7042 18.1007 107.7061 18.0736 107.7061 18.0458 C 107.7061 18.0181 107.7045 17.9907 107.7042 17.9626 C 107.7042 17.9349 107.7061 17.9074 107.7061 17.8797 C 107.7061 17.8516 107.7045 17.8242 107.7042 17.7965 C 107.7042 17.7684 107.7061 17.741 107.7061 17.7133 C 107.7061 17.6855 107.7045 17.6584 107.7042 17.6307 C 107.7042 17.603 107.7061 17.5755 107.7061 17.5475 C 107.7061 17.5197 107.7045 17.4923 107.7042 17.4643 C 107.7042 17.4365 107.7061 17.4091 107.7061 17.3814 C 107.7061 17.3533 107.7045 17.3259 107.7042 17.2982 C 107.7042 17.2704 107.7061 17.2433 107.7061 17.2156 C 107.7061 17.1878 107.7045 17.1601 107.7042 17.1324 C 107.7042 17.1046 107.7061 17.0772 107.7061 17.0491 C 107.7061 17.0214 107.7045 16.994 107.7042 16.9662 C 107.7042 16.9382 107.7061 16.9108 107.7061 16.883 C 107.7061 16.8553 107.7045 16.8282 107.7042 16.8005 C 107.7042 16.7727 107.7061 16.7453 107.7061 16.7172 C 107.7061 16.6895 107.7045 16.6621 107.7042 16.634 C 107.7042 16.6063 107.7061 16.5789 107.7061 16.5508 C 107.7061 16.5231 107.7045 16.4956 107.7042 16.4679 C 107.7042 16.4402 107.7061 16.4131 107.7061 16.3853 C 107.7061 16.3573 107.7045 16.3299 107.7042 16.3021 C 107.7042 16.2744 107.7061 16.247 107.7061 16.2189 C 107.7061 16.1912 107.7045 16.1637 107.7042 16.1357 C 107.7042 16.1079 107.7061 16.0805 107.7061 16.0528 C 107.7061 16.025 107.7045 15.9976 107.7042 15.9702 C 107.7042 15.9421 107.7061 15.9147 107.7061 15.887 C 107.7061 15.8589 107.7045 15.8315 107.7042 15.8038 C 107.7042 15.776 107.7061 15.7486 107.7061 15.7206 C 107.7061 15.6928 107.7045 15.6654 107.7042 15.6373 C 107.7042 15.6099 107.7061 15.5825 107.7061 15.5551 C 107.7061 15.527 107.7045 15.4996 107.7042 15.4719 C 107.7042 15.4438 107.7061 15.4164 107.7061 15.3887 C 107.7061 15.3609 107.7045 15.3332 107.7042 15.3054 C 107.7042 15.2777 107.7061 15.2503 107.7061 15.2222 C 107.7061 15.1945 107.7045 15.1674 107.7042 15.1396 C 107.7042 15.1119 107.7061 15.0845 107.7061 15.0567 C 107.7061 15.0287 107.7045 15.0013 107.7042 14.9735 C 107.7042 14.9458 107.7061 14.918 107.7061 14.8903 C 107.7061 14.8626 107.7045 14.8348 107.7042 14.8071 C 107.7042 14.7794 107.7061 14.7523 107.7061 14.7245 C 107.7061 14.6968 107.7045 14.6694 107.7042 14.6416 C 107.7042 14.6136 107.7061 14.5861 107.7061 14.5584 C 107.7061 14.5303 107.7045 14.5029 107.7042 14.4752 C 107.7042 14.4474 107.7061 14.42 107.7061 14.392 C 107.7061 14.3642 107.7045 14.3371 107.7042 14.3094 C 107.7042 14.2817 107.7061 14.2542 107.7061 14.2262 C 107.7061 14.1981 107.7045 14.1701 107.7042 14.142 C 107.7042 14.1146 107.7061 14.0875 107.7061 14.0601 C 107.7061 14.0323 107.7045 14.0052 107.7042 13.9775 C 107.7042 13.9494 107.7061 13.9217 107.7061 13.8936 C 107.7061 13.8562 107.7039 13.8194 107.7035 13.782 C 107.7045 13.764 107.7052 13.7459 107.7061 13.7278 C 107.7058 8.3209 103.3227 3.9375 97.9154 3.9375 Z "/>
          <path id="path4147" fill="none" stroke="#61a2f6" stroke-width="4.257670737085817" stroke-linecap="round" stroke-linejoin="round" d="M 2.7107 41.4072 L 20.2439 4.9386 L 37.7768 41.0566 "/>
          <path id="path4153" fill="none" stroke="#61a2f6" stroke-width="4.257670737085817" stroke-linecap="round" stroke-linejoin="round" d="M 34.2703 4.2371 L 48.6474 4.2371 C 56.1483 4.2371 60.8008 21.7703 41.6342 21.7703 L 51.4526 41.0566 "/>
          <path id="path4155" fill="none" stroke="#61a2f6" stroke-width="4.257670737085817" stroke-linecap="round" stroke-linejoin="round" d="M 58.1391 4.2371 L 72.5161 4.2371 C 80.0171 4.2371 84.6695 21.7703 65.5029 21.7703 L 75.3214 41.0566 "/>
          <path id="path4598" fill="none" stroke="#61a2f6" stroke-width="4.257670737085817" stroke-linecap="round" stroke-linejoin="round" d="M 117.3768 4.2371 L 117.3768 32.9915 L 123.6888 41.4072 L 132.8061 34.0434 L 132.8061 23.1728 L 132.8061 33.6928 L 140.8711 40.706 L 147.5337 33.3422 L 147.5337 3.8865 "/>
        </g>
      </g>
    </g>
  </g>
</svg>