<svg xmlns="http://www.w3.org/2000/svg" xmlns:xlink="http://www.w3.org/1999/xlink" version="1.1" width="77.12524498783874" height="48.43784416996764" viewBox="-4.72857261341476 -5.123772582825656 77.12524498783874 48.43784416996764">
  <!-- Exported by Scratch - http://scratch.mit.edu/ -->
  <g id="ID0.001519504003226757">
    <path id="rect4136" fill="#1F679F" stroke="none" stroke-width="10.523545158737173" stroke-linecap="round" stroke-linejoin="round" opacity="1" d="M 5.795 0.138 C 2.889 0.1383 0.5334 2.4939 0.5332 5.3999 L 0.5332 32.7904 C 0.5334 35.6964 2.889 38.052 5.795 38.0523 L 61.8732 38.0523 C 64.779 38.052 67.1348 35.6964 67.1349 32.7904 L 67.1349 5.3999 C 67.1348 2.4939 64.779 0.1383 61.8732 0.138 L 5.795 0.138 Z "/>
    <path id="ID0.7810023920610547" fill="none" stroke="#FFFFFF" stroke-width="2.2436975240707397" d="M 34.4603 9.2971 C 36.3398 9.2006 36.0773 9.1482 36.7975 9.4466 C 38.487 10.1467 40.0217 10.579 41.5317 12.2288 C 43.2347 14.1277 44.4634 16.5405 44.4634 19.3002 C 44.4634 22.06 43.3423 24.5609 41.5317 26.3716 C 39.721 28.1823 37.22 29.3034 34.4603 29.3034 C 31.7006 29.3034 29.1996 28.1823 27.3889 26.3716 C 25.5782 24.5609 24.4571 22.06 24.4571 19.3002 C 24.4571 16.5405 25.5782 14.0395 27.3889 12.2288 C 29.1996 10.4182 31.8382 9.6134 34.4603 9.2971 Z "/>
    <path id="ID0.6265417425893247" fill="#1F679F" stroke="none" d="M 34.2 5.75 L 36.5 5.75 L 36.5 13.9 L 34.2 13.9 L 34.2 5.75 Z " stroke-width="1"/>
    <path id="ID0.6325184153392911" fill="#1F679F" stroke="none" d="M 31.95 26.25 L 34.45 26.25 L 34.45 33 L 31.95 33 L 31.95 26.25 Z " stroke-width="1"/>
    <path id="ID0.0003978307358920574" fill="none" stroke="#FFFFFF" stroke-width="1.7704918384552002" stroke-linecap="round" d="M 36.6287 25.9197 L 33.4418 28.9738 L 36.5844 32.1164 "/>
    <path id="ID0.0003978307358920574" fill="none" stroke="#FFFFFF" stroke-width="1.7704918384552002" stroke-linecap="round" d="M 31.3713 6.5697 L 34.5582 9.6238 L 31.4156 12.7664 "/>
    <path id="ID0.7436440051533282" fill="#1F679F" stroke="none" stroke-linecap="round" d="M 36.6 10.3 L 36.5 9.35 L 37.1 8.75 L 37.95 8.55 L 36.4 8 L 36.3 11.5 L 37.3 11.15 L 36.6 10.3 Z " stroke-width="1"/>
    <path id="ID0.7436440051533282" fill="#1F679F" stroke="none" stroke-linecap="round" d="M 31.9 28.25 L 32 29.2 L 31.4 29.8 L 30.55 30 L 32.1 30.55 L 32.2 27.05 L 31.2 27.4 L 31.9 28.25 Z " stroke-width="1"/>
  </g>
</svg>