<svg version="1.1" xmlns="http://www.w3.org/2000/svg" xmlns:xlink="http://www.w3.org/1999/xlink" width="10.15871" height="11.82199" viewBox="0,0,10.15871,11.82199"><g transform="translate(-234.93091,-173.34164)"><g data-paper-data="{&quot;isPaintingLayer&quot;:true}" fill-rule="nonzero" stroke="none" stroke-width="0" stroke-linecap="butt" stroke-linejoin="miter" stroke-miterlimit="10" stroke-dasharray="" stroke-dashoffset="0" style="mix-blend-mode: normal"><path d="M234.93091,180.04659c0,-2.68203 2.07382,-4.85627 4.63202,-4.85627c1.30602,0 0.23316,-0.63698 0.4714,0.70929c0.18731,1.05835 0.14362,3.4074 0.11731,4.48345c-0.03699,1.51349 1.08149,3.18083 1.09996,3.37941c0.13778,1.48026 -0.27007,1.14032 -1.68867,1.14032c-2.5582,0 -4.63202,-2.17422 -4.63202,-4.85625z" data-paper-data="{&quot;origPos&quot;:null}" fill="#ffae0e"/><path d="M245.08961,180.15678c0,2.68203 -2.07382,4.85628 -4.63202,4.85628c-1.30602,0 -0.35816,0.63698 -0.5964,-0.70929c-0.17578,-0.99319 0.02557,0.67808 0.05896,-0.32999c0.02461,-0.743 -0.06944,-3.41026 -0.05127,-4.15345c0.03699,-1.51349 0.04351,-4.05583 0.02504,-4.25441c-0.13778,-1.48026 -0.85493,-0.26532 0.56368,-0.26532c2.5582,0 4.63202,2.17422 4.63202,4.85625z" data-paper-data="{&quot;origPos&quot;:null,&quot;index&quot;:null}" fill="#ffd90e"/><path d="M237.63059,174.64729c0,-1.02304 1.48937,-1.41621 2.20852,-1.24469c0.23971,0.05718 0.24353,0.25029 0.23819,0.49667c-0.02568,1.18473 -0.0302,2.18869 -0.01738,2.34413c0.09563,1.15872 -0.8002,-0.13583 -1.61683,-0.28618c-0.36581,-0.06735 -1.08538,0.65469 -1.08538,0.09053z" data-paper-data="{&quot;origPos&quot;:null}" fill="#ff7d29"/><path d="M236.41776,178.76214c0,-0.50243 0.40729,-0.90973 0.90972,-0.90973c0.50243,0 0.90973,0.4073 0.90973,0.90973c0,0.50243 -0.4073,0.90972 -0.90973,0.90972c-0.50243,0 -0.90972,-0.40729 -0.90972,-0.90972z" data-paper-data="{&quot;origPos&quot;:null}" fill="#000000"/><path d="M241.47837,178.78234c0,-0.50243 0.40729,-0.90972 0.90972,-0.90972c0.50243,0 0.90973,0.40729 0.90973,0.90972c0,0.50243 -0.4073,0.90972 -0.90973,0.90972c-0.50243,0 -0.90972,-0.40729 -0.90972,-0.90972z" data-paper-data="{&quot;origPos&quot;:null}" fill="#000000"/><path d="M242.56604,176.04778c0,0.56416 -0.71957,-0.15788 -1.08538,-0.09053c-0.81663,0.15035 -1.71246,1.44489 -1.61683,0.28617c0.01282,-0.15544 0.0083,-1.1594 -0.01738,-2.34413c-0.00422,-0.19469 -0.06827,-0.42478 0.11201,-0.4984c0.54084,-0.22086 2.33471,0.17167 2.33471,1.24642z" data-paper-data="{&quot;origPos&quot;:null,&quot;index&quot;:null}" fill="#ffa75f"/></g></g></svg>