<svg version="1.1" xmlns="http://www.w3.org/2000/svg" xmlns:xlink="http://www.w3.org/1999/xlink" width="66.6017" height="37.9143"><g transform="translate(-222.5332,-160.138)"><g data-paper-data="{&quot;isPaintingLayer&quot;:true}" fill-rule="nonzero" stroke="none" stroke-miterlimit="10" stroke-dasharray="" stroke-dashoffset="0" style="mix-blend-mode: normal"><path d="M283.8732,160.138c2.9058,0.0003 5.2616,2.3559 5.2617,5.2619v27.3905c-0.0001,2.906 -2.3559,5.2616 -5.2617,5.2619h-56.0782c-2.906,-0.0003 -5.2616,-2.3559 -5.2618,-5.2619v-27.3905c0.0002,-2.906 2.3558,-5.2616 5.2618,-5.2619z" id="rect4136" fill="#1f679f" stroke-width="10.52355" stroke-linecap="round" stroke-linejoin="round"/><path d="M256.2,165.75h2.3v8.15h-2.3z" id="ID0.6265417425893247" fill="#1f679f" stroke-width="1" stroke-linecap="butt" stroke-linejoin="miter"/><path d="M253.95,186.25h2.5v6.75h-2.5z" id="ID0.6325184153392911" fill="#1f679f" stroke-width="1" stroke-linecap="butt" stroke-linejoin="miter"/><path d="M259.3,171.15l-1,0.35l0.1,-3.5l1.55,0.55l-0.85,0.2l-0.6,0.6l0.1,0.95z" id="ID0.7436440051533282" fill="#1f679f" stroke-width="1" stroke-linecap="round" stroke-linejoin="miter"/><path d="M253.2,187.4l1,-0.35l-0.1,3.5l-1.55,-0.55l0.85,-0.2l0.6,-0.6l-0.1,-0.95z" id="ID0.7436440051533282" fill="#1f679f" stroke-width="1" stroke-linecap="round" stroke-linejoin="miter"/><text transform="translate(240.86615,187.61827)" font-size="22" xml:space="preserve" data-paper-data="{&quot;origPos&quot;:null}" id="ID0.5014991774223745" fill="#ffffff" fill-rule="nonzero" stroke="none" stroke-width="1" stroke-linecap="butt" stroke-linejoin="miter" stroke-miterlimit="10" stroke-dasharray="" stroke-dashoffset="0" font-family="Sans Serif" font-weight="normal" text-anchor="start" style="mix-blend-mode: normal"><tspan x="0" dy="0">A</tspan></text><text transform="translate(224.02544,187.3767)" font-size="22" xml:space="preserve" data-paper-data="{&quot;origPos&quot;:null}" id="ID0.5014991774223745" fill="#ffffff" fill-rule="nonzero" stroke="none" stroke-width="1" stroke-linecap="butt" stroke-linejoin="miter" stroke-miterlimit="10" stroke-dasharray="" stroke-dashoffset="0" font-family="Sans Serif" font-weight="normal" text-anchor="start" style="mix-blend-mode: normal"><tspan x="0" dy="0">H</tspan></text><text transform="translate(256.12363,187.41003)" font-size="22" xml:space="preserve" data-paper-data="{&quot;origPos&quot;:null}" id="ID0.5014991774223745" fill="#ffffff" fill-rule="nonzero" stroke="none" stroke-width="1" stroke-linecap="butt" stroke-linejoin="miter" stroke-miterlimit="10" stroke-dasharray="" stroke-dashoffset="0" font-family="Sans Serif" font-weight="normal" text-anchor="start" style="mix-blend-mode: normal"><tspan x="0" dy="0">R</tspan></text><text transform="translate(270.6311,187.30162)" font-size="22" xml:space="preserve" data-paper-data="{&quot;origPos&quot;:null}" id="ID0.5014991774223745" fill="#ffffff" fill-rule="nonzero" stroke="none" stroke-width="1" stroke-linecap="butt" stroke-linejoin="miter" stroke-miterlimit="10" stroke-dasharray="" stroke-dashoffset="0" font-family="Sans Serif" font-weight="normal" text-anchor="start" style="mix-blend-mode: normal"><tspan x="0" dy="0">D</tspan></text></g></g></svg>