<svg version="1.1" xmlns="http://www.w3.org/2000/svg" xmlns:xlink="http://www.w3.org/1999/xlink" width="720" height="540"><defs><clipPath id="clip-1"><rect x="-240" y="-180" transform="scale(0.5,0.5)" width="1440" height="1080" fill="none" fill-rule="nonzero" stroke-width="0.5" stroke-linecap="butt"/></clipPath></defs><g transform="translate(120,90)"><g clip-path="url(#clip-1)" data-paper-data="{&quot;isPaintingLayer&quot;:true}" stroke="none" stroke-linejoin="miter" stroke-miterlimit="10" stroke-dasharray="" stroke-dashoffset="0" style="mix-blend-mode: normal"><path d="M-240,-180h960v720h-960z" fill-opacity="0" fill="#000000" fill-rule="evenodd" stroke-width="1" stroke-linecap="square"/><g data-paper-data="{&quot;origPos&quot;:null}" stroke-width="1" stroke-linecap="square"><path d="M64.68643,119.30135h352.63013v163.44535h-352.63013z" fill-opacity="0" fill="#000000" fill-rule="evenodd"/><path d="M115.41129,151.11359c0,0.31213 -0.91867,0.4682 -2.75601,0.4682c-1.83025,0 -2.74537,-0.15607 -2.74537,-0.4682v-6.25689h-3.82011v6.25689c0,0.31213 -0.91867,0.4682 -2.75601,0.4682c-1.83024,0 -2.74536,-0.15607 -2.74536,-0.4682v-18.05773c0,-0.38308 0.91512,-0.57461 2.74536,-0.57461c1.83734,0 2.75602,0.19154 2.75602,0.57461v6.40587h3.82011v-6.35266c0,-0.25538 0.45402,-0.43628 1.36204,-0.54269c0.4682,-0.03547 0.92931,-0.0532 1.38333,-0.0532l1.39397,0.05321c0.90803,0.10641 1.36204,0.28731 1.36204,0.54269zM126.22931,151.85846c-2.54674,0 -4.62528,-0.83354 -6.23561,-2.50063c-1.60324,-1.67418 -2.40486,-4.11451 -2.40486,-7.32099c0,-3.20648 0.81226,-5.63617 2.43679,-7.28906c1.62452,-1.6529 3.72079,-2.47934 6.28882,-2.47934c2.57512,0 4.65011,0.81226 6.22497,2.43679c1.58196,1.62452 2.37294,4.08613 2.37294,7.38484c0,3.29161 -0.80871,5.74258 -2.42614,7.35292c-1.61743,1.61033 -3.70306,2.4155 -6.25689,2.4155zM126.25059,137.49315c-0.87256,0 -1.60324,0.40081 -2.19204,1.20243c-0.5888,0.80162 -0.8832,1.92602 -0.8832,3.37319c0,1.44008 0.28021,2.54674 0.84064,3.31998c0.56043,0.76615 1.2982,1.14923 2.21332,1.14923c0.92222,0 1.66709,-0.39017 2.2346,-1.17051c0.57461,-0.78034 0.86192,-1.89409 0.86192,-3.34127c0,-1.45427 -0.2944,-2.57157 -0.8832,-3.3519c-0.5888,-0.78743 -1.31948,-1.18114 -2.19204,-1.18114zM136.81452,149.97501v-16.94043c0,-0.38308 0.92222,-0.57461 2.76665,-0.57461c1.84443,0 2.76665,0.19154 2.76665,0.57461v13.34378h4.19254c0.32633,0 0.55333,0.42564 0.68102,1.27692c0.05675,0.41854 0.08513,0.84773 0.08513,1.28756c0,0.43274 -0.02838,0.87611 -0.08513,1.33013c-0.14188,0.87256 -0.37598,1.30884 -0.7023,1.30884h-8.39572c-0.39726,0 -0.71649,-0.16316 -0.95769,-0.48948c-0.2341,-0.32633 -0.35115,-0.69876 -0.35115,-1.1173zM148.94095,150.32616v-16.34453c0,-0.45402 0.11351,-0.81226 0.34051,-1.07473c0.22701,-0.26248 0.52141,-0.39371 0.8832,-0.39371h4.55434c2.88725,0 5.07929,0.72713 6.57612,2.1814c1.49683,1.45427 2.24525,3.74207 2.24525,6.86343c0,6.68253 -2.85178,10.0238 -8.55534,10.0238h-4.6501c-0.92931,0 -1.39396,-0.41854 -1.39396,-1.25563zM154.17631,137.68468v8.15099c0,0.38308 0.02483,0.62427 0.07449,0.72359c0.05675,0.09931 0.21992,0.14897 0.48948,0.14897c1.00025,0 1.75931,-0.37243 2.27717,-1.1173c0.51786,-0.74487 0.77679,-1.98277 0.77679,-3.7137c0,-1.73802 -0.26957,-2.86951 -0.80871,-3.39447c-0.53205,-0.53205 -1.37978,-0.79807 -2.54319,-0.79807zM170.84261,150.32616v-16.34453c0,-0.45402 0.11351,-0.81226 0.34051,-1.07473c0.22701,-0.26248 0.52141,-0.39371 0.8832,-0.39371h4.55434c2.88725,0 5.07929,0.72713 6.57612,2.1814c1.49683,1.45427 2.24525,3.74207 2.24525,6.86343c0,6.68253 -2.85178,10.0238 -8.55534,10.0238h-4.6501c-0.92931,0 -1.39396,-0.41854 -1.39396,-1.25563zM176.07797,137.68468v8.15099c0,0.38308 0.02483,0.62427 0.07449,0.72359c0.05675,0.09931 0.21992,0.14897 0.48948,0.14897c1.00025,0 1.75931,-0.37243 2.27717,-1.1173c0.51786,-0.74487 0.77679,-1.98277 0.77679,-3.7137c0,-1.73802 -0.26957,-2.86951 -0.80871,-3.39447c-0.53205,-0.53205 -1.37978,-0.79807 -2.54319,-0.79807zM195.72077,151.85846c-2.54674,0 -4.62528,-0.83354 -6.23561,-2.50063c-1.60324,-1.67418 -2.40486,-4.11451 -2.40486,-7.32099c0,-3.20648 0.81226,-5.63617 2.43679,-7.28906c1.62452,-1.6529 3.72079,-2.47934 6.28882,-2.47934c2.57512,0 4.65011,0.81226 6.22497,2.43679c1.58196,1.62452 2.37294,4.08613 2.37294,7.38484c0,3.29161 -0.80871,5.74258 -2.42614,7.35292c-1.61743,1.61033 -3.70306,2.4155 -6.25689,2.4155zM195.74205,137.49315c-0.87256,0 -1.60324,0.40081 -2.19204,1.20243c-0.5888,0.80162 -0.8832,1.92602 -0.8832,3.37319c0,1.44008 0.28021,2.54674 0.84064,3.31998c0.56043,0.76615 1.2982,1.14923 2.21332,1.14923c0.92222,0 1.66709,-0.39017 2.2346,-1.17051c0.57461,-0.78034 0.86192,-1.89409 0.86192,-3.34127c0,-1.45427 -0.2944,-2.57157 -0.8832,-3.3519c-0.5888,-0.78743 -1.31948,-1.18114 -2.19204,-1.18114zM205.79522,132.78984c-0.05675,-0.20572 0.85837,-0.30858 2.74537,-0.30858c2.09273,0 3.16391,0.1738 3.21357,0.52141l1.34076,11.47097l2.88371,-11.6093c0.09222,-0.26957 0.80162,-0.40436 2.12819,-0.40436c1.32658,0 2.03597,0.12769 2.12819,0.38308l2.8305,11.68379l1.57486,-11.57738c0.03547,-0.19863 0.45402,-0.33341 1.25563,-0.40436c0.80162,-0.07803 1.44717,-0.11705 1.93666,-0.11705c1.90828,0 2.83405,0.12769 2.7773,0.38308l-3.2987,18.05773c-0.07094,0.27667 -0.5888,0.47885 -1.55358,0.60654c-0.95769,0.12769 -1.73802,0.19154 -2.34101,0.19154c-2.24879,0 -3.42994,-0.25538 -3.54344,-0.76615l-1.85153,-7.49125l-2.01114,7.45933c-0.07094,0.33341 -0.70585,0.57106 -1.90473,0.71295c-0.61718,0.05675 -1.2379,0.08513 -1.86217,0.08513l-1.73448,-0.08513c-1.19889,-0.12769 -1.83734,-0.3547 -1.91538,-0.68102zM247.47248,150.9859c0,0.37598 -0.85483,0.56397 -2.56447,0.56397c-1.70256,0 -2.62832,-0.13479 -2.77729,-0.40436l-4.54369,-8.50213v8.47021c0,0.33341 -0.84063,0.50013 -2.52191,0.50013c-1.68127,0 -2.52191,-0.16671 -2.52191,-0.50012v-18.21735c0,-0.27667 0.71649,-0.41499 2.14948,-0.41499c0.56752,0 1.22726,0.05321 1.97922,0.15962c0.75196,0.09931 1.20952,0.28376 1.37269,0.55333l4.3628,8.38509v-8.5447c0,-0.34761 0.84418,-0.5214 2.53255,-0.5214c1.68837,0 2.53255,0.1738 2.53255,0.52141zM274.38516,151.61372c-1.61743,0 -2.42614,-0.18444 -2.42614,-0.55333l-0.57461,-10.91764l-3.31998,11.05597c-0.07094,0.21992 -0.68812,0.32987 -1.85153,0.32987c-1.16341,0 -1.76285,-0.09931 -1.79832,-0.29795l-3.43703,-11.1943l-0.37243,10.86444c-0.02128,0.26957 -0.36889,0.45757 -1.04282,0.56397c-0.66684,0.09931 -1.22371,0.14897 -1.67063,0.14897c-0.44692,0 -0.87966,-0.02838 -1.2982,-0.08513c-0.87256,-0.12769 -1.2982,-0.3547 -1.27692,-0.68102l0.62782,-17.70658c0,-0.43982 1.10666,-0.65974 3.31998,-0.65974c0.65264,0 1.45072,0.05321 2.39422,0.15962c0.95059,0.09931 1.4791,0.2944 1.58551,0.58526l3.05396,8.57662l2.67089,-8.60854c0.16316,-0.4753 1.41525,-0.71294 3.75627,-0.71294c0.67393,0 1.47555,0.05321 2.40486,0.15962c0.93641,0.09931 1.40461,0.27312 1.40461,0.52141l0.78743,17.87683c0,0.19863 -0.3547,0.34406 -1.0641,0.43628c-0.7023,0.09222 -1.32658,0.13834 -1.87281,0.13834zM288.12183,151.85846c-2.54674,0 -4.62528,-0.83354 -6.23561,-2.50063c-1.60324,-1.67418 -2.40486,-4.11451 -2.40486,-7.32099c0,-3.20648 0.81226,-5.63617 2.43679,-7.28906c1.62452,-1.6529 3.72079,-2.47934 6.28882,-2.47934c2.57512,0 4.65011,0.81226 6.22497,2.43679c1.58196,1.62452 2.37294,4.08613 2.37294,7.38484c0,3.29161 -0.80871,5.74258 -2.42614,7.35292c-1.61743,1.61033 -3.70306,2.4155 -6.25689,2.4155zM288.14311,137.49315c-0.87256,0 -1.60324,0.40081 -2.19204,1.20243c-0.5888,0.80162 -0.8832,1.92602 -0.8832,3.37319c0,1.44008 0.28021,2.54674 0.84064,3.31998c0.56043,0.76615 1.2982,1.14923 2.21332,1.14923c0.92222,0 1.66709,-0.39017 2.2346,-1.17051c0.57461,-0.78034 0.86192,-1.89409 0.86192,-3.34127c0,-1.45427 -0.2944,-2.57157 -0.8832,-3.3519c-0.5888,-0.78743 -1.31948,-1.18114 -2.19204,-1.18114zM307.89017,133.05587c0,-0.36179 0.98607,-0.54269 2.95819,-0.54269c1.97212,0 2.95819,0.1809 2.95819,0.54269v12.50315c0,1.85153 -0.66329,3.3661 -1.98986,4.5437c-1.32658,1.17051 -3.15682,1.75576 -5.49074,1.75576c-2.33392,0 -4.23156,-0.60299 -5.69292,-1.80897c-1.46136,-1.21307 -2.19204,-2.84468 -2.19204,-4.89485v-12.06686c0,-0.36179 0.98252,-0.54269 2.94755,-0.54269c1.97212,0 2.95819,0.1809 2.95819,0.54269v12.27968c0,0.36889 0.19154,0.65974 0.57461,0.87256c0.39726,0.21992 0.81226,0.32987 1.245,0.32987c0.43982,0 0.83709,-0.09931 1.19179,-0.29795c0.3547,-0.19863 0.53205,-0.50012 0.53205,-0.90448zM316.8039,144.93119c0.34051,0.27667 0.93286,0.65264 1.77705,1.12794c0.84418,0.4682 1.6529,0.7023 2.42614,0.7023c0.77325,0 1.15987,-0.3015 1.15987,-0.90448c0,-0.26957 -0.10996,-0.50722 -0.32987,-0.71294c-0.21992,-0.21282 -0.62072,-0.45402 -1.20243,-0.72359c-0.57461,-0.27667 -1.00735,-0.48948 -1.2982,-0.63846c-0.29085,-0.15607 -0.67747,-0.41145 -1.15986,-0.76615c-0.48239,-0.3547 -0.85128,-0.72359 -1.10666,-1.10666c-0.72359,-1.03572 -1.08538,-2.35165 -1.08538,-3.9478c0,-1.59615 0.59235,-2.944 1.77705,-4.04357c1.19179,-1.09956 2.74892,-1.64935 4.67139,-1.64935c1.31238,0 2.52191,0.14188 3.62858,0.42564c1.10666,0.27667 1.67773,0.64201 1.7132,1.09602c0,0.05675 0,0.11351 0,0.17026c0,0.63136 -0.19863,1.43299 -0.59589,2.40486c-0.39726,0.97187 -0.67747,1.51457 -0.84063,1.62807c-1.16341,-0.60299 -2.20623,-0.90448 -3.12845,-0.90448c-0.91512,0 -1.37268,0.32633 -1.37268,0.97897c0,0.40436 0.33696,0.75905 1.0109,1.0641c0.14188,0.07094 0.34761,0.17026 0.61718,0.29795c0.27667,0.12769 0.59235,0.28021 0.94705,0.45757c0.3547,0.17026 0.73423,0.38662 1.13859,0.6491c0.41145,0.26248 0.85483,0.61008 1.33013,1.04282c0.95769,0.90803 1.43653,2.10691 1.43653,3.59665c0,1.94375 -0.5356,3.5328 -1.60678,4.76716c-1.07119,1.23435 -2.72409,1.87281 -4.95869,1.91538c-1.08538,0 -2.0679,-0.09222 -2.94755,-0.27667c-0.87966,-0.18444 -1.64935,-0.53914 -2.30909,-1.0641c-0.65264,-0.52495 -0.97897,-1.15986 -0.97897,-1.90473c0,-0.74487 0.13479,-1.48264 0.40436,-2.21332c0.27667,-0.73777 0.57106,-1.22726 0.8832,-1.46845zM339.40915,140.08954c0.34761,0 0.52141,0.63491 0.52141,1.90474c0,0.38308 -0.04256,0.83354 -0.12769,1.35141c-0.07803,0.51786 -0.22701,0.77679 -0.44692,0.77679h-3.45831v2.72409h5.0119c0.30504,0 0.51431,0.39726 0.62782,1.19179c0.04966,0.34761 0.07449,0.71649 0.07449,1.10666c0,0.39017 -0.0532,0.89384 -0.15961,1.51102c-0.10641,0.61718 -0.2873,0.92577 -0.54269,0.92577h-9.32149c-0.68812,0 -1.03217,-0.28021 -1.03217,-0.84063v-17.51504c0,-0.4753 0.20927,-0.71294 0.62782,-0.71294h9.74713c0.38308,0 0.57461,0.80517 0.57461,2.4155c0,1.60324 -0.19154,2.40486 -0.57461,2.40486h-5.03318v2.75602zM357.20464,151.85846c-2.54674,0 -4.62528,-0.83354 -6.23561,-2.50063c-1.60324,-1.67418 -2.40486,-4.11451 -2.40486,-7.32099c0,-3.20648 0.81226,-5.63617 2.43679,-7.28906c1.62452,-1.6529 3.72079,-2.47934 6.28882,-2.47934c2.57512,0 4.65011,0.81226 6.22497,2.43679c1.58196,1.62452 2.37294,4.08613 2.37294,7.38484c0,3.29161 -0.80871,5.74258 -2.42614,7.35292c-1.61743,1.61033 -3.70306,2.4155 -6.25689,2.4155zM357.22593,137.49315c-0.87256,0 -1.60324,0.40081 -2.19204,1.20243c-0.5888,0.80162 -0.8832,1.92602 -0.8832,3.37319c0,1.44008 0.28021,2.54674 0.84064,3.31998c0.56043,0.76615 1.2982,1.14923 2.21332,1.14923c0.92222,0 1.66709,-0.39017 2.2346,-1.17051c0.57461,-0.78034 0.86192,-1.89409 0.86192,-3.34127c0,-1.45427 -0.2944,-2.57157 -0.8832,-3.3519c-0.5888,-0.78743 -1.31948,-1.18114 -2.19204,-1.18114zM373.26997,151.19872c0,0.29085 -0.86192,0.43628 -2.58575,0.43628c-1.74512,0 -2.61768,-0.13479 -2.61768,-0.40436v-17.75978c0,-0.63846 0.33696,-0.95769 1.0109,-0.95769h5.20344c4.77425,0 7.16138,1.86217 7.16138,5.58651c0,1.12794 -0.21992,2.14948 -0.65974,3.0646c-0.43274,0.91512 -1.04991,1.64581 -1.85153,2.19204l3.43704,5.71421c-0.14188,0.43982 -0.61363,0.93995 -1.41525,1.50038c-1.09248,0.78034 -1.99341,1.17051 -2.70281,1.17051c-0.7023,0 -1.22726,-0.25184 -1.57486,-0.75551l-2.56447,-5.96958h-0.84063zM373.26997,137.33354v4.08613h0.13834c1.72384,0 2.58576,-0.71649 2.58576,-2.14948c0,-0.65264 -0.17026,-1.13858 -0.51077,-1.45781c-0.33341,-0.31923 -0.87966,-0.47884 -1.63871,-0.47884z" data-paper-data="{&quot;origPos&quot;:null}" fill="#1f679f" fill-rule="nonzero"/><path d="M93.1155,177.62025c0.34051,0.27667 0.93286,0.65264 1.77705,1.12794c0.84418,0.4682 1.6529,0.7023 2.42614,0.7023c0.77325,0 1.15987,-0.3015 1.15987,-0.90448c0,-0.26957 -0.10996,-0.50722 -0.32987,-0.71294c-0.21992,-0.21282 -0.62072,-0.45402 -1.20243,-0.72359c-0.57461,-0.27667 -1.00735,-0.48948 -1.2982,-0.63846c-0.29085,-0.15607 -0.67747,-0.41145 -1.15986,-0.76615c-0.48239,-0.3547 -0.85128,-0.72359 -1.10666,-1.10666c-0.72359,-1.03572 -1.08538,-2.35165 -1.08538,-3.9478c0,-1.59615 0.59235,-2.944 1.77705,-4.04357c1.19179,-1.09956 2.74892,-1.64935 4.67139,-1.64935c1.31238,0 2.52191,0.14188 3.62858,0.42564c1.10666,0.27667 1.67773,0.64201 1.7132,1.09602c0,0.05675 0,0.11351 0,0.17026c0,0.63136 -0.19863,1.43299 -0.59589,2.40486c-0.39726,0.97187 -0.67747,1.51457 -0.84063,1.62807c-1.16341,-0.60299 -2.20623,-0.90448 -3.12845,-0.90448c-0.91512,0 -1.37268,0.32633 -1.37268,0.97897c0,0.40436 0.33696,0.75905 1.0109,1.0641c0.14188,0.07094 0.34761,0.17026 0.61718,0.29795c0.27667,0.12769 0.59235,0.28021 0.94705,0.45757c0.3547,0.17026 0.73423,0.38662 1.13859,0.6491c0.41145,0.26248 0.85483,0.61008 1.33013,1.04282c0.95769,0.90803 1.43653,2.10691 1.43653,3.59665c0,1.94375 -0.5356,3.5328 -1.60678,4.76716c-1.07119,1.23435 -2.72409,1.87281 -4.95869,1.91538c-1.08538,0 -2.0679,-0.09222 -2.94755,-0.27667c-0.87966,-0.18444 -1.64935,-0.53914 -2.30909,-1.0641c-0.65264,-0.52495 -0.97897,-1.15986 -0.97897,-1.90473c0,-0.74487 0.13479,-1.48264 0.40436,-2.21332c0.27667,-0.73777 0.57106,-1.22726 0.8832,-1.46845zM109.24038,184.32407c-1.6529,0 -2.47934,-0.18089 -2.47934,-0.54269v-17.65337c0,-0.61718 0.28021,-0.92576 0.84064,-0.92576h4.79908c2.68862,0 4.62528,0.55333 5.80997,1.65999c1.19179,1.10666 1.78768,2.71345 1.78768,4.82036c0,1.74512 -0.56397,3.34481 -1.69191,4.79908c-0.56043,0.72359 -1.38687,1.30529 -2.47934,1.74512c-1.08538,0.43274 -2.3552,0.6491 -3.80947,0.6491v4.87357c0,0.21992 -0.34051,0.37244 -1.02153,0.45757c-0.68102,0.07803 -1.26627,0.11705 -1.75576,0.11705zM112.01767,169.93747v4.3096h0.35116c0.63846,0 1.17406,-0.19863 1.60679,-0.59589c0.43982,-0.40436 0.65974,-0.96833 0.65974,-1.69191c0,-0.73068 -0.15252,-1.24854 -0.45756,-1.55358c-0.29795,-0.31213 -0.82645,-0.4682 -1.5855,-0.4682zM133.56138,184.32407c-1.58196,0 -2.43324,-0.25538 -2.55383,-0.76615l-0.90448,-3.51152h-4.33087l-0.78743,3.38383c-0.11351,0.56043 -0.98607,0.84064 -2.61768,0.84064c-0.87256,0 -1.51811,-0.04966 -1.93666,-0.14897c-0.41854,-0.09931 -0.62781,-0.17735 -0.62781,-0.2341l4.831,-18.4408c0,-0.14188 1.24145,-0.21282 3.72434,-0.21282c2.48999,0 3.73498,0.07094 3.73498,0.21282l4.71395,18.47273c0,0.12769 -0.41854,0.22701 -1.25563,0.29795c-0.83709,0.07094 -1.50037,0.10641 -1.98986,0.10641zM126.45321,176.58808h2.86243l-1.22371,-5.63972h-0.17026zM146.39226,164.9575c1.32658,0 2.49354,0.18799 3.50088,0.56397c1.00735,0.36889 1.51102,0.87256 1.51102,1.51102c0,0.63136 -0.2412,1.41525 -0.72359,2.35166c-0.4753,0.93641 -0.87966,1.40461 -1.21307,1.40461c-0.08513,0 -0.18799,-0.04966 -0.30858,-0.14897c-0.1206,-0.09931 -0.39371,-0.20927 -0.81935,-0.32987c-0.42564,-0.1206 -0.79098,-0.18089 -1.09602,-0.18089c-1.057,0 -1.90828,0.37244 -2.55383,1.11731c-0.64555,0.74487 -0.96833,1.887 -0.96833,3.42639c0,1.5323 0.32987,2.67089 0.98961,3.41576c0.66684,0.74487 1.51102,1.11731 2.53255,1.11731c0.41145,0 0.87611,-0.05675 1.39397,-0.17026c0.51786,-0.1206 0.88675,-0.29085 1.10666,-0.51077c0.03547,-0.03547 0.10641,-0.0532 0.21282,-0.0532c0.11351,0 0.31923,0.20572 0.61718,0.61718c0.29795,0.40436 0.57461,0.93995 0.83,1.60679c0.25538,0.65974 0.38308,1.17051 0.38308,1.5323c0,0.7094 -0.54623,1.27337 -1.63871,1.69192c-1.08538,0.41854 -2.37293,0.62782 -3.86267,0.62782c-2.39776,0 -4.3699,-0.84418 -5.91638,-2.53255c-1.5394,-1.69546 -2.30909,-4.07904 -2.30909,-7.15073c0,-3.07879 0.79453,-5.49784 2.38358,-7.25714c1.58905,-1.7664 3.57182,-2.6496 5.94831,-2.6496zM162.73847,172.77861c0.34761,0 0.52141,0.63491 0.52141,1.90474c0,0.38308 -0.04256,0.83354 -0.12769,1.35141c-0.07803,0.51786 -0.22701,0.77679 -0.44692,0.77679h-3.45831v2.72409h5.0119c0.30504,0 0.51431,0.39726 0.62782,1.19179c0.04966,0.34761 0.07449,0.71649 0.07449,1.10666c0,0.39017 -0.0532,0.89384 -0.15961,1.51102c-0.10641,0.61718 -0.2873,0.92577 -0.54269,0.92577h-9.32149c-0.68812,0 -1.03217,-0.28021 -1.03217,-0.84063v-17.51504c0,-0.4753 0.20927,-0.71294 0.62782,-0.71294h9.74713c0.38308,0 0.57461,0.80517 0.57461,2.4155c0,1.60324 -0.19154,2.40486 -0.57461,2.40486h-5.03318v2.75602zM180.69063,170.12901c0,1.89409 -0.81581,3.33063 -2.44742,4.3096c0.88675,0.32633 1.62807,0.89029 2.22397,1.69192c0.60299,0.79453 0.90449,1.92247 0.90449,3.38383c0,1.46136 -0.54269,2.62123 -1.62807,3.4796c-1.07828,0.85128 -2.62478,1.27692 -4.63946,1.27692h-6.42715c-0.31213,0 -0.56752,-0.10286 -0.76615,-0.30858c-0.19863,-0.21282 -0.29795,-0.49303 -0.29795,-0.84063v-17.42991c0,-0.19863 0.03193,-0.32987 0.09577,-0.39371c0.06385,-0.06385 0.19509,-0.09577 0.39372,-0.09577h6.21433c4.24929,0 6.37395,1.64226 6.37395,4.92677zM172.84823,169.61824v3.56473h0.12769c1.74512,0 2.61768,-0.58171 2.61768,-1.74512c0,-0.63136 -0.16671,-1.09248 -0.50012,-1.38333c-0.33341,-0.29085 -0.89384,-0.43628 -1.68127,-0.43628zM172.84823,176.39655v3.54345h0.48948c0.78034,0 1.35141,-0.14543 1.7132,-0.43628c0.36179,-0.29085 0.54269,-0.75196 0.54269,-1.38333c0,-0.63846 -0.16671,-1.08538 -0.50012,-1.34076c-0.33341,-0.25538 -0.89384,-0.38308 -1.68127,-0.38308zM196.29709,184.32407c-1.58196,0 -2.43324,-0.25538 -2.55383,-0.76615l-0.90448,-3.51152h-4.33087l-0.78743,3.38383c-0.11351,0.56043 -0.98607,0.84064 -2.61768,0.84064c-0.87256,0 -1.51811,-0.04966 -1.93666,-0.14897c-0.41854,-0.09931 -0.62781,-0.17735 -0.62781,-0.2341l4.831,-18.4408c0,-0.14188 1.24145,-0.21282 3.72434,-0.21282c2.48999,0 3.73498,0.07094 3.73498,0.21282l4.71395,18.47273c0,0.12769 -0.41854,0.22701 -1.25563,0.29795c-0.83709,0.07094 -1.50037,0.10641 -1.98986,0.10641zM189.18892,176.58808h2.86243l-1.22371,-5.63972h-0.17026zM206.54221,183.88779c0,0.29085 -0.86192,0.43628 -2.58575,0.43628c-1.74512,0 -2.61768,-0.13479 -2.61768,-0.40436v-17.75978c0,-0.63846 0.33696,-0.95769 1.0109,-0.95769h5.20344c4.77425,0 7.16138,1.86217 7.16138,5.58651c0,1.12794 -0.21992,2.14948 -0.65974,3.0646c-0.43274,0.91512 -1.04991,1.64581 -1.85153,2.19204l3.43704,5.71421c-0.14188,0.43982 -0.61363,0.93995 -1.41525,1.50038c-1.09248,0.78034 -1.99341,1.17051 -2.70281,1.17051c-0.7023,0 -1.22726,-0.25184 -1.57486,-0.75551l-2.56447,-5.96958h-0.84063zM206.54221,170.0226v4.08613h0.13834c1.72384,0 2.58576,-0.71649 2.58576,-2.14948c0,-0.65264 -0.17026,-1.13858 -0.51077,-1.45781c-0.33341,-0.31923 -0.87966,-0.47884 -1.63871,-0.47884zM230.73635,183.83458c0,0.36179 -0.90094,0.54269 -2.70281,0.54269c-1.79478,0 -2.69216,-0.18089 -2.69216,-0.54269v-13.67365h-3.27742c-0.30504,0 -0.5214,-0.41854 -0.6491,-1.25563c-0.05675,-0.39726 -0.08513,-0.80517 -0.08513,-1.22371c0,-0.41854 0.02838,-0.82645 0.08513,-1.22371c0.12769,-0.83709 0.34406,-1.25563 0.6491,-1.25563h11.85404c0.31213,0 0.53205,0.41854 0.65974,1.25563c0.04966,0.39726 0.07449,0.80517 0.07449,1.22372c0,0.41854 -0.02483,0.82645 -0.07448,1.22372c-0.12769,0.83709 -0.34761,1.25563 -0.65974,1.25563h-3.18165zM244.30486,184.54753c-2.54674,0 -4.62528,-0.83354 -6.23561,-2.50063c-1.60324,-1.67418 -2.40486,-4.11451 -2.40486,-7.32099c0,-3.20648 0.81226,-5.63617 2.43679,-7.28906c1.62452,-1.6529 3.72079,-2.47934 6.28882,-2.47934c2.57512,0 4.65011,0.81226 6.22497,2.43679c1.58196,1.62452 2.37294,4.08613 2.37294,7.38484c0,3.29161 -0.80871,5.74258 -2.42614,7.35292c-1.61743,1.61033 -3.70306,2.4155 -6.25689,2.4155zM244.32614,170.18222c-0.87256,0 -1.60324,0.40081 -2.19204,1.20243c-0.5888,0.80162 -0.8832,1.92602 -0.8832,3.37319c0,1.44008 0.28021,2.54674 0.84064,3.31998c0.56043,0.76615 1.2982,1.14923 2.21332,1.14923c0.92222,0 1.66709,-0.39017 2.2346,-1.17051c0.57461,-0.78034 0.86192,-1.89409 0.86192,-3.34127c0,-1.45427 -0.2944,-2.57157 -0.8832,-3.3519c-0.5888,-0.78743 -1.31948,-1.18114 -2.19204,-1.18114zM279.35662,184.30278c-1.61743,0 -2.42614,-0.18444 -2.42614,-0.55333l-0.57461,-10.91764l-3.31998,11.05597c-0.07094,0.21992 -0.68812,0.32987 -1.85153,0.32987c-1.16341,0 -1.76285,-0.09931 -1.79832,-0.29795l-3.43703,-11.1943l-0.37243,10.86444c-0.02128,0.26957 -0.36889,0.45757 -1.04282,0.56397c-0.66684,0.09931 -1.22371,0.14897 -1.67063,0.14897c-0.44692,0 -0.87966,-0.02838 -1.2982,-0.08513c-0.87256,-0.12769 -1.2982,-0.3547 -1.27692,-0.68102l0.62782,-17.70658c0,-0.43982 1.10666,-0.65974 3.31998,-0.65974c0.65264,0 1.45072,0.05321 2.39422,0.15962c0.95059,0.09931 1.4791,0.2944 1.58551,0.58526l3.05396,8.57662l2.67089,-8.60854c0.16316,-0.4753 1.41525,-0.71294 3.75627,-0.71294c0.67393,0 1.47555,0.05321 2.40486,0.15962c0.93641,0.09931 1.40461,0.27312 1.40461,0.52141l0.78743,17.87683c0,0.19863 -0.3547,0.34406 -1.0641,0.43628c-0.7023,0.09222 -1.32658,0.13834 -1.87281,0.13834zM293.09325,184.54753c-2.54674,0 -4.62528,-0.83354 -6.23561,-2.50063c-1.60324,-1.67418 -2.40486,-4.11451 -2.40486,-7.32099c0,-3.20648 0.81226,-5.63617 2.43679,-7.28906c1.62452,-1.6529 3.72079,-2.47934 6.28882,-2.47934c2.57512,0 4.65011,0.81226 6.22497,2.43679c1.58196,1.62452 2.37294,4.08613 2.37294,7.38484c0,3.29161 -0.80871,5.74258 -2.42614,7.35292c-1.61743,1.61033 -3.70306,2.4155 -6.25689,2.4155zM293.11453,170.18222c-0.87256,0 -1.60324,0.40081 -2.19204,1.20243c-0.5888,0.80162 -0.8832,1.92602 -0.8832,3.37319c0,1.44008 0.28021,2.54674 0.84064,3.31998c0.56043,0.76615 1.2982,1.14923 2.21332,1.14923c0.92222,0 1.66709,-0.39017 2.2346,-1.17051c0.57461,-0.78034 0.86192,-1.89409 0.86192,-3.34127c0,-1.45427 -0.2944,-2.57157 -0.8832,-3.3519c-0.5888,-0.78743 -1.31948,-1.18114 -2.19204,-1.18114zM302.89101,165.55339c0,-0.09222 0.39372,-0.17735 1.18115,-0.25538c0.79453,-0.08513 1.44717,-0.12769 1.95794,-0.12769c2.01469,0 3.06815,0.26603 3.16037,0.79808l2.34101,11.98174l2.20268,-11.98174c0.10641,-0.53205 1.2308,-0.79807 3.37319,-0.79807c0.53205,0 1.19534,0.03902 1.98987,0.11705c0.80162,0.07094 1.20243,0.15252 1.20243,0.24475l-4.82036,18.02581c-0.07094,0.29085 -0.60653,0.48239 -1.60678,0.57461c-1.54649,0.16316 -2.95109,0.19509 -4.21383,0.09577c-1.26273,-0.09931 -1.92956,-0.27667 -2.0005,-0.53205zM330.81462,172.77861c0.34761,0 0.52141,0.63491 0.52141,1.90474c0,0.38308 -0.04256,0.83354 -0.12769,1.35141c-0.07803,0.51786 -0.22701,0.77679 -0.44692,0.77679h-3.45831v2.72409h5.0119c0.30504,0 0.51431,0.39726 0.62782,1.19179c0.04966,0.34761 0.07449,0.71649 0.07449,1.10666c0,0.39017 -0.0532,0.89384 -0.15961,1.51102c-0.10641,0.61718 -0.2873,0.92577 -0.54269,0.92577h-9.32149c-0.68812,0 -1.03217,-0.28021 -1.03217,-0.84063v-17.51504c0,-0.4753 0.20927,-0.71294 0.62782,-0.71294h9.74713c0.38308,0 0.57461,0.80517 0.57461,2.4155c0,1.60324 -0.19154,2.40486 -0.57461,2.40486h-5.03318v2.75602zM340.23571,182.66407v-16.94043c0,-0.38308 0.92222,-0.57461 2.76665,-0.57461c1.84443,0 2.76665,0.19154 2.76665,0.57461v13.34378h4.19254c0.32633,0 0.55333,0.42564 0.68102,1.27692c0.05675,0.41854 0.08513,0.84773 0.08513,1.28756c0,0.43274 -0.02838,0.87611 -0.08513,1.33013c-0.14188,0.87256 -0.37598,1.30884 -0.7023,1.30884h-8.39572c-0.39726,0 -0.71649,-0.16316 -0.95769,-0.48948c-0.2341,-0.32633 -0.35115,-0.69876 -0.35115,-1.1173zM361.21542,172.77861c0.34761,0 0.52141,0.63491 0.52141,1.90474c0,0.38308 -0.04256,0.83354 -0.12769,1.35141c-0.07803,0.51786 -0.22701,0.77679 -0.44692,0.77679h-3.45831v2.72409h5.0119c0.30504,0 0.51431,0.39726 0.62782,1.19179c0.04966,0.34761 0.07449,0.71649 0.07449,1.10666c0,0.39017 -0.0532,0.89384 -0.15961,1.51102c-0.10641,0.61718 -0.2873,0.92577 -0.54269,0.92577h-9.32149c-0.68812,0 -1.03217,-0.28021 -1.03217,-0.84063v-17.51504c0,-0.4753 0.20927,-0.71294 0.62782,-0.71294h9.74713c0.38308,0 0.57461,0.80517 0.57461,2.4155c0,1.60324 -0.19154,2.40486 -0.57461,2.40486h-5.03318v2.75602zM375.97529,165.20224c0.31213,0 0.4682,0.80517 0.4682,2.4155c0,1.60324 -0.15607,2.40486 -0.4682,2.40486h-4.97998v3.10716h3.31998c0.31213,0 0.4682,0.70585 0.4682,2.11756c0,1.40461 -0.14543,2.10691 -0.43628,2.10691h-3.3519v6.56548c0,0.25538 -0.34051,0.42209 -1.02153,0.50013c-0.68102,0.08513 -1.24854,0.12769 -1.70256,0.12769l-1.27692,-0.06385c-0.89384,-0.10641 -1.34076,-0.2873 -1.34076,-0.54269v-18.02581c0,-0.29085 0.05675,-0.48239 0.17026,-0.57461c0.1206,-0.09222 0.3015,-0.13833 0.54269,-0.13833zM386.85377,183.83458c0,0.36179 -0.90094,0.54269 -2.70281,0.54269c-1.79478,0 -2.69216,-0.18089 -2.69216,-0.54269v-13.67365h-3.27742c-0.30504,0 -0.5214,-0.41854 -0.6491,-1.25563c-0.05675,-0.39726 -0.08513,-0.80517 -0.08513,-1.22371c0,-0.41854 0.02838,-0.82645 0.08513,-1.22371c0.12769,-0.83709 0.34406,-1.25563 0.6491,-1.25563h11.85404c0.31213,0 0.53205,0.41854 0.65974,1.25563c0.04966,0.39726 0.07449,0.80517 0.07449,1.22372c0,0.41854 -0.02483,0.82645 -0.07448,1.22372c-0.12769,0.83709 -0.34761,1.25563 -0.65974,1.25563h-3.18165z" fill="#1f679f" fill-rule="nonzero"/><path d="M97.81031,216.57686c0,0.29085 -0.86192,0.43628 -2.58575,0.43628c-1.74512,0 -2.61768,-0.13479 -2.61768,-0.40436v-17.75978c0,-0.63846 0.33696,-0.95769 1.0109,-0.95769h5.20344c4.77425,0 7.16136,1.86217 7.16136,5.58651c0,1.12794 -0.21992,2.14948 -0.65974,3.0646c-0.43274,0.91512 -1.04991,1.64581 -1.85153,2.19204l3.43704,5.71421c-0.14188,0.43982 -0.61363,0.93995 -1.41525,1.50038c-1.09248,0.78034 -1.99341,1.17051 -2.70281,1.17051c-0.7023,0 -1.22726,-0.25184 -1.57485,-0.75551l-2.56447,-5.96958h-0.84063v6.18241zM97.81031,202.71167v4.08613h0.13834c1.72384,0 2.58576,-0.71649 2.58576,-2.14948c0,-0.65264 -0.17026,-1.13858 -0.51077,-1.45781c-0.33341,-0.31923 -0.87966,-0.47884 -1.63871,-0.47884zM117.53226,205.46768c0.34761,0 0.52141,0.63491 0.52141,1.90474c0,0.38308 -0.04256,0.83354 -0.12769,1.35141c-0.07803,0.51786 -0.22701,0.77679 -0.44692,0.77679h-3.45831v2.72409h5.0119c0.30504,0 0.51431,0.39726 0.62782,1.19179c0.04966,0.34761 0.07449,0.71649 0.07449,1.10666c0,0.39017 -0.0532,0.89384 -0.15961,1.51102c-0.10641,0.61718 -0.2873,0.92577 -0.54269,0.92577h-9.32149c-0.68812,0 -1.03217,-0.28021 -1.03217,-0.84063v-17.51504c0,-0.4753 0.20927,-0.71294 0.62782,-0.71294h9.74713c0.38308,0 0.57461,0.80517 0.57461,2.4155c0,1.60324 -0.19154,2.40486 -0.57461,2.40486h-5.03318v2.75602zM121.83207,215.35315v-16.94043c0,-0.38308 0.92222,-0.57461 2.76665,-0.57461c1.84443,0 2.76665,0.19154 2.76665,0.57461v13.34378h4.19254c0.32633,0 0.55333,0.42564 0.68102,1.27692c0.05675,0.41854 0.08513,0.84773 0.08513,1.28756c0,0.43274 -0.02838,0.87611 -0.08513,1.33013c-0.14188,0.87256 -0.37598,1.30884 -0.7023,1.30884h-8.39572c-0.39726,0 -0.71649,-0.16316 -0.95769,-0.48948c-0.2341,-0.32633 -0.35115,-0.69876 -0.35115,-1.1173zM142.81178,205.46768c0.34761,0 0.52141,0.63491 0.52141,1.90474c0,0.38308 -0.04256,0.83354 -0.12769,1.35141c-0.07803,0.51786 -0.22701,0.77679 -0.44692,0.77679h-3.45831v2.72409h5.0119c0.30504,0 0.51431,0.39726 0.62782,1.19179c0.04966,0.34761 0.07449,0.71649 0.07449,1.10666c0,0.39017 -0.0532,0.89384 -0.15961,1.51102c-0.10641,0.61718 -0.2873,0.92577 -0.54269,0.92577h-9.32149c-0.68812,0 -1.03217,-0.28021 -1.03217,-0.84063v-17.51504c0,-0.4753 0.20927,-0.71294 0.62782,-0.71294h9.74713c0.38308,0 0.57461,0.80517 0.57461,2.4155c0,1.60324 -0.19154,2.40486 -0.57461,2.40486h-5.03318v2.75602zM160.18935,217.01314c-1.58196,0 -2.43324,-0.25538 -2.55383,-0.76615l-0.90448,-3.51152h-4.33087l-0.78743,3.38383c-0.11351,0.56043 -0.98607,0.84064 -2.61768,0.84064c-0.87256,0 -1.51811,-0.04966 -1.93666,-0.14897c-0.41854,-0.09931 -0.62781,-0.17735 -0.62781,-0.2341l4.831,-18.4408c0,-0.14188 1.24145,-0.21282 3.72434,-0.21282c2.48999,0 3.73498,0.07094 3.73498,0.21282l4.71395,18.47273c0,0.12769 -0.41854,0.22701 -1.25563,0.29795c-0.83709,0.07094 -1.50037,0.10641 -1.98986,0.10641zM153.08118,209.27715h2.86243l-1.22371,-5.63972h-0.17026zM165.94397,210.30933c0.34051,0.27667 0.93286,0.65264 1.77705,1.12794c0.84418,0.4682 1.6529,0.7023 2.42614,0.7023c0.77325,0 1.15987,-0.3015 1.15987,-0.90448c0,-0.26957 -0.10996,-0.50722 -0.32987,-0.71294c-0.21992,-0.21282 -0.62072,-0.45402 -1.20243,-0.72359c-0.57461,-0.27667 -1.00735,-0.48948 -1.2982,-0.63846c-0.29085,-0.15607 -0.67747,-0.41145 -1.15986,-0.76615c-0.48239,-0.3547 -0.85128,-0.72359 -1.10666,-1.10666c-0.72359,-1.03572 -1.08538,-2.35165 -1.08538,-3.9478c0,-1.59615 0.59235,-2.944 1.77705,-4.04357c1.19179,-1.09956 2.74892,-1.64935 4.67139,-1.64935c1.31238,0 2.52191,0.14188 3.62858,0.42564c1.10666,0.27667 1.67773,0.64201 1.7132,1.09602c0,0.05675 0,0.11351 0,0.17026c0,0.63136 -0.19863,1.43299 -0.59589,2.40486c-0.39726,0.97187 -0.67747,1.51457 -0.84063,1.62807c-1.16341,-0.60299 -2.20623,-0.90448 -3.12845,-0.90448c-0.91512,0 -1.37268,0.32633 -1.37268,0.97897c0,0.40436 0.33696,0.75905 1.0109,1.0641c0.14188,0.07094 0.34761,0.17026 0.61718,0.29795c0.27667,0.12769 0.59235,0.28021 0.94705,0.45757c0.3547,0.17026 0.73423,0.38662 1.13859,0.6491c0.41145,0.26248 0.85483,0.61008 1.33013,1.04282c0.95769,0.90803 1.43653,2.10691 1.43653,3.59665c0,1.94375 -0.5356,3.5328 -1.60678,4.76716c-1.07119,1.23435 -2.72409,1.87281 -4.95869,1.91538c-1.08538,0 -2.0679,-0.09222 -2.94755,-0.27667c-0.87966,-0.18444 -1.64935,-0.53914 -2.30909,-1.0641c-0.65264,-0.52495 -0.97897,-1.15986 -0.97897,-1.90473c0,-0.74487 0.13479,-1.48264 0.40436,-2.21332c0.27667,-0.73777 0.57106,-1.22726 0.8832,-1.46845zM188.5492,205.46768c0.34761,0 0.52141,0.63491 0.52141,1.90474c0,0.38308 -0.04256,0.83354 -0.12769,1.35141c-0.07803,0.51786 -0.22701,0.77679 -0.44692,0.77679h-3.45831v2.72409h5.0119c0.30504,0 0.51431,0.39726 0.62782,1.19179c0.04966,0.34761 0.07449,0.71649 0.07449,1.10666c0,0.39017 -0.0532,0.89384 -0.15961,1.51102c-0.10641,0.61718 -0.2873,0.92577 -0.54269,0.92577h-9.32149c-0.68812,0 -1.03217,-0.28021 -1.03217,-0.84063v-17.51504c0,-0.4753 0.20927,-0.71294 0.62782,-0.71294h9.74713c0.38308,0 0.57461,0.80517 0.57461,2.4155c0,1.60324 -0.19154,2.40486 -0.57461,2.40486h-5.03318v2.75602zM206.45114,216.52366c0,0.36179 -0.90094,0.54269 -2.70281,0.54269c-1.79478,0 -2.69216,-0.18089 -2.69216,-0.54269v-13.67365h-3.27742c-0.30504,0 -0.5214,-0.41854 -0.6491,-1.25563c-0.05675,-0.39726 -0.08513,-0.80517 -0.08513,-1.22371c0,-0.41854 0.02838,-0.82645 0.08513,-1.22371c0.12769,-0.83709 0.34406,-1.25563 0.6491,-1.25563h11.85404c0.31213,0 0.53205,0.41854 0.65974,1.25563c0.04966,0.39726 0.07449,0.80517 0.07449,1.22372c0,0.41854 -0.02483,0.82645 -0.07448,1.22372c-0.12769,0.83709 -0.34761,1.25563 -0.65974,1.25563h-3.18165zM220.01965,217.2366c-2.54674,0 -4.62528,-0.83354 -6.23561,-2.50063c-1.60324,-1.67418 -2.40486,-4.11451 -2.40486,-7.32099c0,-3.20648 0.81226,-5.63617 2.43679,-7.28906c1.62452,-1.6529 3.72079,-2.47934 6.28882,-2.47934c2.57512,0 4.65011,0.81226 6.22497,2.43679c1.58196,1.62452 2.37294,4.08613 2.37294,7.38484c0,3.29161 -0.80871,5.74258 -2.42614,7.35292c-1.61743,1.61033 -3.70306,2.4155 -6.25689,2.4155zM220.04093,202.87129c-0.87256,0 -1.60324,0.40081 -2.19204,1.20243c-0.5888,0.80162 -0.8832,1.92602 -0.8832,3.37319c0,1.44008 0.28021,2.54674 0.84064,3.31998c0.56043,0.76615 1.2982,1.14923 2.21332,1.14923c0.92222,0 1.66709,-0.39017 2.2346,-1.17051c0.57461,-0.78034 0.86192,-1.89409 0.86192,-3.34127c0,-1.45427 -0.2944,-2.57157 -0.8832,-3.3519c-0.5888,-0.78743 -1.31948,-1.18114 -2.19204,-1.18114zM255.07141,216.99186c-1.61743,0 -2.42614,-0.18444 -2.42614,-0.55333l-0.57461,-10.91764l-3.31998,11.05597c-0.07094,0.21992 -0.68812,0.32987 -1.85153,0.32987c-1.16341,0 -1.76285,-0.09931 -1.79832,-0.29795l-3.43703,-11.1943l-0.37243,10.86444c-0.02128,0.26957 -0.36889,0.45757 -1.04282,0.56397c-0.66684,0.09931 -1.22371,0.14897 -1.67063,0.14897c-0.44692,0 -0.87966,-0.02838 -1.2982,-0.08513c-0.87256,-0.12769 -1.2982,-0.3547 -1.27692,-0.68102l0.62782,-17.70658c0,-0.43982 1.10666,-0.65974 3.31998,-0.65974c0.65264,0 1.45072,0.05321 2.39422,0.15962c0.95059,0.09931 1.4791,0.2944 1.58551,0.58526l3.05396,8.57662l2.67089,-8.60854c0.16316,-0.4753 1.41525,-0.71294 3.75627,-0.71294c0.67393,0 1.47555,0.05321 2.40486,0.15962c0.93641,0.09931 1.40461,0.27312 1.40461,0.52141l0.78743,17.87683c0,0.19863 -0.3547,0.34406 -1.0641,0.43628c-0.7023,0.09222 -1.32658,0.13834 -1.87281,0.13834zM268.80803,217.2366c-2.54674,0 -4.62528,-0.83354 -6.23561,-2.50063c-1.60324,-1.67418 -2.40486,-4.11451 -2.40486,-7.32099c0,-3.20648 0.81226,-5.63617 2.43679,-7.28906c1.62452,-1.6529 3.72079,-2.47934 6.28882,-2.47934c2.57512,0 4.65011,0.81226 6.22497,2.43679c1.58197,1.62452 2.37296,4.08613 2.37296,7.38484c0,3.29161 -0.80872,5.74258 -2.42616,7.35292c-1.61743,1.61033 -3.70306,2.4155 -6.25689,2.4155zM268.82932,202.87129c-0.87256,0 -1.60324,0.40081 -2.19204,1.20243c-0.5888,0.80162 -0.8832,1.92602 -0.8832,3.37319c0,1.44008 0.28021,2.54674 0.84064,3.31998c0.56043,0.76615 1.2982,1.14923 2.21332,1.14923c0.92222,0 1.66709,-0.39017 2.2346,-1.17051c0.57461,-0.78034 0.86192,-1.89409 0.86192,-3.34127c0,-1.45427 -0.2944,-2.57157 -0.8832,-3.3519c-0.5888,-0.78743 -1.31948,-1.18114 -2.19204,-1.18114zM278.60581,198.24247c0,-0.09222 0.39372,-0.17735 1.18115,-0.25538c0.79453,-0.08513 1.44717,-0.12769 1.95794,-0.12769c2.01469,0 3.06815,0.26603 3.16037,0.79808l2.34101,11.98174l2.20268,-11.98174c0.10641,-0.53205 1.2308,-0.79807 3.37319,-0.79807c0.53205,0 1.19534,0.03902 1.98987,0.11705c0.80162,0.07094 1.20243,0.15252 1.20243,0.24475l-4.82036,18.02581c-0.07094,0.29085 -0.60653,0.48239 -1.60678,0.57461c-1.54649,0.16316 -2.95109,0.19509 -4.21383,0.09577c-1.26273,-0.09931 -1.92956,-0.27667 -2.0005,-0.53205zM306.52939,205.46768c0.34761,0 0.52141,0.63491 0.52141,1.90474c0,0.38308 -0.04256,0.83354 -0.12769,1.35141c-0.07803,0.51786 -0.22701,0.77679 -0.44692,0.77679h-3.45831v2.72409h5.0119c0.30504,0 0.51431,0.39726 0.62782,1.19179c0.04966,0.34761 0.07449,0.71649 0.07449,1.10666c0,0.39017 -0.0532,0.89384 -0.15961,1.51102c-0.10641,0.61718 -0.2873,0.92577 -0.54269,0.92577h-9.32149c-0.68812,0 -1.03217,-0.28021 -1.03217,-0.84063v-17.51504c0,-0.4753 0.20927,-0.71294 0.62782,-0.71294h9.74713c0.38308,0 0.57461,0.80517 0.57461,2.4155c0,1.60324 -0.19154,2.40486 -0.57461,2.40486h-5.03318v2.75602zM321.43057,216.57686c0,0.29085 -0.86192,0.43628 -2.58575,0.43628c-1.74512,0 -2.61768,-0.13479 -2.61768,-0.40436v-17.75978c0,-0.63846 0.33696,-0.95769 1.0109,-0.95769h5.20344c4.77425,0 7.16138,1.86217 7.16138,5.58651c0,1.12794 -0.21992,2.14948 -0.65974,3.0646c-0.43274,0.91512 -1.04991,1.64581 -1.85153,2.19204l3.43704,5.71421c-0.14188,0.43982 -0.61363,0.93995 -1.41525,1.50038c-1.09248,0.78034 -1.99341,1.17051 -2.70281,1.17051c-0.7023,0 -1.22726,-0.25184 -1.57486,-0.75551l-2.56447,-5.96958h-0.84063zM321.43057,202.71167v4.08613h0.13834c1.72384,0 2.58576,-0.71649 2.58576,-2.14948c0,-0.65264 -0.17026,-1.13858 -0.51077,-1.45781c-0.33341,-0.31923 -0.87966,-0.47884 -1.63871,-0.47884zM334.09757,212.27791v-9.70457h-1.93666c-0.30504,0 -0.5214,-0.39017 -0.6491,-1.17051c-0.05675,-0.38308 -0.08513,-0.77325 -0.08513,-1.17051c0,-0.39726 0.02838,-0.78743 0.08513,-1.17051c0.12769,-0.78034 0.34406,-1.17051 0.6491,-1.17051h9.15124c0.31213,0 0.52141,0.39017 0.62782,1.17051c0.07094,0.38308 0.10641,0.77325 0.10641,1.17051c0,0.39726 -0.03547,0.78743 -0.10641,1.17051c-0.10641,0.78034 -0.31568,1.17051 -0.62781,1.17051h-1.8196v9.70457h1.90474c0.31213,0 0.5285,0.39017 0.6491,1.17051c0.07803,0.38308 0.11705,0.77325 0.11705,1.17051c0,0.39726 -0.03902,0.78743 -0.11705,1.17051c-0.1206,0.78034 -0.33696,1.17051 -0.6491,1.17051h-9.18316c-0.30504,0 -0.51431,-0.39017 -0.62781,-1.17051c-0.07094,-0.38308 -0.10641,-0.77325 -0.10641,-1.17051c0,-0.39726 0.03547,-0.78743 0.10641,-1.17051c0.11351,-0.78034 0.32278,-1.17051 0.62782,-1.17051zM354.06261,211.26702l0.05321,-3.70306c0,-0.25538 0.26248,-0.42209 0.78743,-0.50012c0.53205,-0.08513 0.96833,-0.12769 1.30884,-0.12769l1.0641,0.08513c0.69521,0.10641 1.04282,0.2944 1.04282,0.56397l-0.11705,8.53406c-0.36179,0.24829 -1.09248,0.49658 -2.19204,0.74487c-1.09956,0.24829 -2.3552,0.37244 -3.7669,0.37244c-2.63896,0 -4.76716,-0.85483 -6.38458,-2.56447c-1.61033,-1.70965 -2.4155,-4.21737 -2.4155,-7.52316c0,-2.80922 0.78743,-5.09348 2.3623,-6.85279c1.58196,-1.7664 3.77045,-2.6496 6.56548,-2.6496c1.27692,0 2.42614,0.12414 3.44768,0.37244c1.02863,0.2412 1.73448,0.57106 2.11756,0.98961c0.01419,0.14188 0.02128,0.415 0.02128,0.81936c0,0.39726 -0.13833,0.96478 -0.41499,1.70256c-0.26957,0.73068 -0.57816,1.28046 -0.92576,1.64935c-0.34051,0.36179 -0.5888,0.54269 -0.74487,0.54269c-0.14897,0 -0.31213,-0.06739 -0.48948,-0.20218c-0.17026,-0.14188 -0.51077,-0.2873 -1.02153,-0.43628c-0.50367,-0.15607 -0.99316,-0.2341 -1.46845,-0.2341c-1.12794,0 -2.04307,0.36534 -2.74537,1.09602c-0.69521,0.72359 -1.04282,1.84798 -1.04282,3.37319c0,1.5252 0.35824,2.68507 1.07474,3.4796c0.72359,0.78743 1.55003,1.18115 2.47935,1.18115c0.93641,0 1.40461,-0.23765 1.40461,-0.71294zM375.72506,216.49173c0,0.31213 -0.91867,0.4682 -2.75601,0.4682c-1.83025,0 -2.74537,-0.15607 -2.74537,-0.4682v-6.25689h-3.82011v6.25689c0,0.31213 -0.91867,0.4682 -2.75601,0.4682c-1.83025,0 -2.74537,-0.15607 -2.74537,-0.4682v-18.05773c0,-0.38308 0.91512,-0.57461 2.74537,-0.57461c1.83734,0 2.75602,0.19154 2.75602,0.57461v6.40587h3.82011v-6.35266c0,-0.25538 0.45402,-0.43628 1.36204,-0.54269c0.4682,-0.03547 0.92931,-0.0532 1.38333,-0.0532l1.39397,0.05321c0.90803,0.10641 1.36204,0.28731 1.36204,0.54269zM386.64947,216.52366c0,0.36179 -0.90094,0.54269 -2.70281,0.54269c-1.79478,0 -2.69216,-0.18089 -2.69216,-0.54269v-13.67365h-3.27742c-0.30504,0 -0.5214,-0.41854 -0.6491,-1.25563c-0.05675,-0.39726 -0.08513,-0.80517 -0.08513,-1.22371c0,-0.41854 0.02838,-0.82645 0.08513,-1.22371c0.12769,-0.83709 0.34406,-1.25563 0.6491,-1.25563h11.85404c0.31213,0 0.53205,0.41854 0.65974,1.25563c0.04966,0.39726 0.07449,0.80517 0.07449,1.22372c0,0.41854 -0.02483,0.82645 -0.07448,1.22372c-0.12769,0.83709 -0.34761,1.25563 -0.65974,1.25563h-3.18165z" fill="#1f679f" fill-rule="nonzero"/></g></g></g></svg>