<svg xmlns="http://www.w3.org/2000/svg" xmlns:xlink="http://www.w3.org/1999/xlink" version="1.1" width="264.1992609500885" height="264.1992609500885" viewBox="-0.8294318318367004 -0.09953182935714722 264.1992609500885 264.1992609500885">
  <!-- Exported by Scratch - http://scratch.mit.edu/ -->
  <path id="path24" fill="#FFFFFF" stroke="none" d="M 110.5533 132.0001 C 110.5533 120.5575 119.8276 111.2832 131.2702 111.2832 C 131.2702 111.2832 131.2702 111.2832 131.2702 111.2832 L 131.2702 111.2832 C 142.7127 111.2832 151.987 120.5575 151.987 132.0001 C 151.987 132.0001 151.987 132.0001 151.987 132.0001 L 151.987 132.0001 C 151.987 143.4426 142.7127 152.7169 131.2702 152.7169 C 131.2702 152.7169 131.2702 152.7169 131.2702 152.7169 L 131.2702 152.7169 C 119.8276 152.7169 110.5533 143.4426 110.5533 132.0001 C 110.5533 132.0001 110.5533 132.0001 110.5533 132.0001 Z " stroke-width="1.822063684463501"/>
  <path id="path26" fill="#FFFFFF" stroke="none" d="M 55.3083 132.0001 C 55.3083 90.0562 89.3263 56.0382 131.2702 56.0382 C 131.2702 56.0382 131.2702 56.0382 131.2702 56.0382 L 131.2702 56.0382 C 173.2141 56.0382 207.2138 90.0562 207.2138 132.0001 C 207.2138 132.0001 207.2138 132.0001 207.2138 132.0001 L 207.2138 132.0001 C 207.2138 173.944 173.2141 207.9437 131.2702 207.9437 C 131.2702 207.9437 131.2702 207.9437 131.2702 207.9437 L 131.2702 207.9437 C 89.3263 207.9437 55.3083 173.944 55.3083 132.0001 C 55.3083 132.0001 55.3083 132.0001 55.3083 132.0001 Z M 93.2984 132.0001 C 93.2984 152.972 110.2982 169.9719 131.2702 169.9719 C 131.2702 169.9719 131.2702 169.9719 131.2702 169.9719 L 131.2702 169.9719 C 152.2421 169.9719 169.242 152.972 169.242 132.0001 L 169.242 132.0001 C 169.242 111.0281 152.2421 94.0283 131.2702 94.0283 C 131.2702 94.0283 131.2702 94.0283 131.2702 94.0283 L 131.2702 94.0283 C 110.2982 94.0283 93.2984 111.0281 93.2984 132.0001 Z " stroke-width="1.822063684463501"/>
  <path id="path28" fill="#FFFFFF" stroke="none" d="M 0.0816 132.0001 C 0.0816 59.5366 58.8067 0.8115 131.2702 0.8115 C 131.2702 0.8115 131.2702 0.8115 131.2702 0.8115 L 131.2702 0.8115 C 203.7154 0.8115 262.4588 59.5366 262.4588 132.0001 C 262.4588 132.0001 262.4588 132.0001 262.4588 132.0001 L 262.4588 132.0001 C 262.4588 204.4453 203.7154 263.1887 131.2702 263.1887 C 131.2702 263.1887 131.2702 263.1887 131.2702 263.1887 L 131.2702 263.1887 C 58.8067 263.1887 0.0816 204.4453 0.0816 132.0001 C 0.0816 132.0001 0.0816 132.0001 0.0816 132.0001 Z M 37.4339 132.0001 C 37.4339 183.8196 79.4507 225.8181 131.2702 225.8181 C 131.2702 225.8181 131.2702 225.8181 131.2702 225.8181 L 131.2702 225.8181 C 183.0897 225.8181 225.0882 183.8196 225.0882 132.0001 L 225.0882 132.0001 C 225.0882 80.1806 183.0897 38.182 131.2702 38.182 C 131.2702 38.182 131.2702 38.182 131.2702 38.182 L 131.2702 38.182 C 79.4507 38.182 37.4339 80.1806 37.4339 132.0001 Z " stroke-width="1.822063684463501"/>
</svg>