<svg version="1.1" xmlns="http://www.w3.org/2000/svg" xmlns:xlink="http://www.w3.org/1999/xlink" width="12.88551" height="19.48909" viewBox="0,0,12.88551,19.48909"><g transform="translate(-233.54102,-169.77101)"><g data-paper-data="{&quot;isPaintingLayer&quot;:true}" fill-rule="nonzero" stroke="none" stroke-width="0" stroke-linecap="butt" stroke-linejoin="miter" stroke-miterlimit="10" stroke-dasharray="" stroke-dashoffset="0" style="mix-blend-mode: normal"><path d="M233.54103,182.76954c0,-3.40194 2.63047,-6.15978 5.87534,-6.15978c1.65658,0 0.29574,-0.80796 0.59793,0.89968c0.23759,1.34243 0.18217,4.32201 0.14879,5.68689c-0.04692,1.91974 1.37178,4.03462 1.39521,4.28651c0.17476,1.87759 -0.34256,1.44641 -2.14194,1.44641c-3.24486,0 -5.87534,-2.75782 -5.87534,-6.15975z" data-paper-data="{&quot;origPos&quot;:null}" fill="#627d2e"/><path d="M246.42651,182.90932c0,3.40194 -2.63047,6.15979 -5.87534,6.15979c-1.65658,0 -0.29574,0.80796 -0.59793,-0.89968c-0.23759,-1.34243 -0.18217,-4.32201 -0.14879,-5.68688c0.04692,-1.91974 0.05519,-5.14449 0.03176,-5.39637c-0.17476,-1.87759 -1.08441,-0.33654 0.71498,-0.33654c3.24486,0 5.87534,2.75782 5.87534,6.15975z" data-paper-data="{&quot;origPos&quot;:null,&quot;index&quot;:null}" fill="#7da03b"/><g data-paper-data="{&quot;origPos&quot;:null}" fill="#ff7d29"><path d="M236.04287,173.94825c0,-1.42326 -0.1717,-2.04727 0.86956,-3.07658c0.57416,-0.56758 1.18842,-1.05344 2.01979,-1.05344c0.47591,0 1.08919,-0.21503 1.21834,0.27266c0.06823,0.2576 0.01855,0.72224 0.06235,0.98579c0.16491,0.99199 -0.00562,2.60015 -0.02878,3.60874c-0.03258,1.41861 -0.03831,4.03587 -0.02204,4.222c0.1213,1.38746 0.97273,0.17058 -0.27615,0.17058c-1.04954,0 -2.00726,0.21106 -3.04309,0.03103c-0.464,-0.08065 0.00702,-1.61089 0.00702,-2.28642z" data-paper-data="{&quot;origPos&quot;:null}"/><path d="M234.62373,179.25565c0,0 0.08005,-0.17827 1.08553,-1.15274c0.70147,-0.67983 0.12038,-0.00352 0.78134,-0.72793c0.50847,-0.55727 0.06504,-1.11365 0.57864,-1.66557c0.784,-0.84252 3.03898,-1.99948 3.03898,-1.99948l0.14672,5.54572z" data-paper-data="{&quot;origPos&quot;:null}"/></g><g data-paper-data="{&quot;index&quot;:null,&quot;origPos&quot;:null}" fill="#ffa75f"><path d="M243.14136,176.82262c0,0.67552 0.47102,2.20576 0.00703,2.28641c-1.03582,0.18003 0.06763,-1.45294 -0.98191,-1.45294c-1.24887,0 -2.45862,2.6388 -2.33731,1.25134c0.01626,-0.18612 0.01052,-2.80339 -0.02203,-4.222c-0.02316,-1.00859 -0.19367,-2.61674 -0.02878,-3.60874c0.04381,-0.26354 -0.00589,-0.7282 0.06235,-0.98579c0.12916,-0.48769 0.74243,-0.27266 1.21834,-0.27266c1.0451,0 1.73347,0.61844 2.26975,1.46525c0.66396,1.04842 0.6196,1.44327 0.6196,2.66476z" data-paper-data="{&quot;origPos&quot;:null}"/><path d="M239.73629,179.25565l0.14673,-5.6954c0,0 2.25497,1.15697 3.03897,1.99948c0.5136,0.55192 0.07017,1.18314 0.57864,1.74041c0.66095,0.7244 0.31768,0.27261 1.01917,0.95244c1.00549,0.97448 0.60988,0.92822 0.60988,0.92822z" data-paper-data="{&quot;origPos&quot;:null}"/></g><path d="M239.00609,179.85096c-0.29161,1.15836 -1.21549,1.90701 -2.06356,1.67217c-0.84806,-0.23484 -1.29914,-1.36426 -1.00753,-2.5226c0.29161,-1.15836 1.21549,-1.90701 2.06354,-1.67215c0.84806,0.23484 1.29916,1.36425 1.00755,2.5226z" data-paper-data="{&quot;origRot&quot;:0,&quot;origPos&quot;:null}" fill="#ffffff"/><path d="M236.83634,178.60349c0,-0.48162 0.39042,-0.87204 0.87204,-0.87204c0.48162,0 0.87204,0.39042 0.87204,0.87204c0,0.48162 -0.39042,0.87204 -0.87204,0.87204c-0.48162,0 -0.87204,-0.39042 -0.87204,-0.87204z" data-paper-data="{&quot;origPos&quot;:null}" fill="#000000"/><path d="M241.77838,177.40763c0.84806,-0.23484 1.77193,0.51381 2.06354,1.67215c0.29161,1.15836 -0.15947,2.28777 -1.00753,2.5226c-0.84806,0.23484 -1.77195,-0.51381 -2.06356,-1.67217c-0.29161,-1.15836 0.15947,-2.28776 1.00755,-2.5226z" data-paper-data="{&quot;origRot&quot;:0,&quot;origPos&quot;:null,&quot;index&quot;:null}" fill="#ffffff"/><path d="M241.19653,178.76206c0,-0.48161 0.39044,-0.87204 0.87204,-0.87204c0.48161,0 0.87204,0.39044 0.87204,0.87204c0,0.48161 -0.39044,0.87204 -0.87204,0.87204c-0.48161,0 -0.87204,-0.39044 -0.87204,-0.87204z" data-paper-data="{&quot;origPos&quot;:null}" fill="#000000"/></g></g></svg>