<svg xmlns="http://www.w3.org/2000/svg" xmlns:xlink="http://www.w3.org/1999/xlink" version="1.1" width="363.45264995098114" height="362.545148730278" viewBox="-0.22687429189682007 -0.22667429188732058 363.45264995098114 362.545148730278">
  <!-- Exported by Scratch - http://scratch.mit.edu/ -->
  <g id="ID0.5840759235434234">
    <path id="path2997" fill="#591212" d="M 0 202.7673 L 0 43.443 L 1.1593 40.2291 C 2.4775 36.575 5.141 30.8233 6.323 29.0791 C 6.7604 28.4334 7.6947 27.0282 8.3998 25.9564 C 10.7334 22.4063 15.829 16.886 19.7698 13.638 C 27.6437 7.149 35.8702 3.1746 46.1163 0.909 C 50.0684 0.0351 52.8871 0.0197 206.569 0.0097 L 362.9989 0.0002 L 362.9989 153.1104 C 362.9989 291.2292 362.9281 306.6571 362.2738 310.6746 C 359.9306 325.0657 352.2387 339.0189 341.9622 347.5194 C 334.4585 353.7271 326.5551 357.9801 318.5315 360.1286 C 311.0968 362.1197 317.644 362.0421 154.6148 362.0675 L 0 362.0916 L 0 202.7673 Z " stroke-width="0.45374858379364014"/>
  </g>
</svg>