<svg xmlns="http://www.w3.org/2000/svg" xmlns:xlink="http://www.w3.org/1999/xlink" version="1.1" width="363.9989013671875" height="363.0914001464844" viewBox="-0.5 -0.4997999999905005 363.9989013671875 363.0914001464844">
  <!-- Exported by Scratch - http://scratch.mit.edu/ -->
  <g id="ID0.5840759235434234">
    <path id="path2997" fill="#235a11" d="M 0 202.7673 L 0 43.443 L 1.1593 40.2291 C 2.4775 36.575 5.141 30.8233 6.323 29.0791 C 6.7604 28.4334 7.6947 27.0282 8.3998 25.9564 C 10.7334 22.4063 15.829 16.886 19.7698 13.638 C 27.6437 7.149 35.8702 3.1746 46.1163 0.909 C 50.0684 0.0351 52.8871 0.0197 206.569 0.0097 L 362.9989 0.0002 L 362.9989 153.1104 C 362.9989 291.2292 362.9281 306.6571 362.2738 310.6746 C 359.9306 325.0657 352.2387 339.0189 341.9622 347.5194 C 334.4585 353.7271 326.5551 357.9801 318.5315 360.1286 C 311.0968 362.1197 317.644 362.0421 154.6148 362.0675 L 0 362.0916 L 0 202.7673 Z " stroke-width="0.45374858379364014"/>
  </g>
  <g id="ID0.4265863080509007">
    <g id="g3037">
      <path id="path3013" fill="#FFFFEC" d="M 153.961 299.14 C 114.716 292.059 80.349 264.706 65.371 228.632 C 59.28 213.964 57.33 204.673 56.739 187.524 C 56.118 169.463 57.132 161.104 61.681 146.802 C 67.62 128.128 78.146 111.199 92.246 97.639 C 112.167 78.481 135.519 67.755 163.913 64.722 C 197.018 61.185 233.37 74.121 257.333 97.966 C 273.418 113.971 282.256 128.928 289.146 151.802 C 291.32 159.019 291.781 162.866 292.202 177.302 C 292.768 196.721 291.861 204.398 287.328 218.583 C 277.726 248.625 256.871 273.198 228.776 287.571 C 205.778 299.337 178.461 303.561 153.961 299.14 Z M 195.404 260.712 C 218.947 254.765 240.55 235.772 249.876 212.82 C 255.748 198.37 257.123 179.308 253.414 163.802 C 247.953 140.973 231.116 120.053 209.961 109.811 C 198.97 104.49 191.915 102.768 178.403 102.107 C 151.72 100.804 129.838 110.436 112.319 131.196 C 87.627 160.456 87.351 203.712 111.668 233.302 C 132.258 258.356 163.825 268.689 195.404 260.712 Z M 155.812 249.285 C 143.793 245.73 135.176 240.566 125.853 231.332 C 116.348 221.918 110.63 212.32 107.404 200.363 C 104.557 189.815 104.962 170.677 108.23 161.302 C 111.744 151.221 117.566 141.902 125.136 134.24 C 139.83 119.367 159.271 111.715 178.852 113.097 C 207.617 115.127 232.768 135.302 241.44 163.302 C 244.238 172.339 244.512 190.114 242 199.715 C 238.414 213.42 228.834 228.148 218.015 236.587 C 210.406 242.522 198.523 248.4 190.396 250.248 C 180.026 252.607 165.694 252.208 155.812 249.285 Z M 185.506 211.877 C 193.236 208.939 198.869 203.751 202.637 196.096 C 208.721 183.738 206.538 170.565 196.757 160.607 C 190.392 154.127 183.937 151.481 174.461 151.468 C 162.265 151.451 151.821 157.785 146.51 168.419 C 143.31 174.826 142.588 185.657 144.898 192.61 C 150.351 209.029 169.318 218.028 185.506 211.877 Z M 167.491 201.689 C 159.275 198.41 154.461 191.163 154.461 182.074 C 154.461 173.439 159.41 166.641 168.203 163.197 C 173.564 161.098 179.009 161.76 184.935 165.233 C 202.362 175.446 194.879 203.005 174.751 202.738 C 172.117 202.703 168.85 202.231 167.491 201.689 Z " stroke-width="1"/>
      <path id="path3011" fill="#FFFFEC" d="M 153.961 298.28 C 137.72 295.251 119.767 287.744 106.461 278.417 C 90.926 267.527 73.564 246.208 66.592 229.461 C 50.798 191.521 54.663 150.14 77.129 116.655 C 101.846 79.815 147.648 59.641 191.545 66.258 C 236.662 73.059 273.174 104.348 286.975 148.035 C 308.167 215.12 264.539 285.985 194.461 298.305 C 184.205 300.108 163.696 300.095 153.961 298.28 Z M 195.34 261.674 C 222.219 254.912 245.665 231.966 253.478 204.774 C 256.723 193.483 257.21 176.811 254.634 165.198 C 245.891 125.788 209.953 98.675 169.673 101.1 C 118.342 104.19 82.582 153.348 95.416 203.18 C 101.659 227.417 120.189 248.592 143.461 258.082 C 160.129 264.878 177.753 266.099 195.34 261.674 Z M 157.961 249.191 C 146.967 246.545 135.871 240.152 126.914 231.302 C 117.852 222.347 112.59 213.883 108.68 201.968 C 105.501 192.281 105.09 175.981 107.767 165.802 C 115.615 135.97 143.997 113.802 174.343 113.802 C 199.956 113.802 224.327 128.923 235.75 151.903 C 245.63 171.778 245.954 191.46 236.728 211.202 C 228.125 229.612 211.873 243.399 192.482 248.741 C 183.516 251.211 167.236 251.423 157.961 249.191 Z M 188.795 211.427 C 208.556 201.759 212.843 175.418 197.2 159.776 C 190.966 153.541 186.29 151.529 176.829 151.01 C 166.301 150.432 160.276 152.365 153.436 158.515 C 143.892 167.095 140.251 179.697 143.797 191.877 C 149.262 210.647 171.045 220.111 188.795 211.427 Z M 164.725 199.3 C 160.28 196.577 156.119 190.516 154.998 185.135 C 153.503 177.953 159.18 168.197 166.891 164.694 C 172.88 161.974 178.055 162.3 184.123 165.781 C 193.815 171.339 197.052 183.256 191.368 192.453 C 187.582 198.579 183.023 201.211 175.572 201.574 C 169.879 201.851 168.373 201.536 164.725 199.3 Z " stroke-width="1"/>
      <path id="path3009" fill="#FFFFEC" d="M 157.371 298.356 C 120.55 293.062 86.172 268.084 69.213 234.302 C 59.134 214.223 55.093 186.669 58.875 163.802 C 65.819 121.814 96.227 85.613 135.961 72.033 C 151.309 66.787 154.091 66.377 174.461 66.356 C 191.753 66.338 194.924 66.598 202.461 68.646 C 245.475 80.338 276.36 110.833 288.105 153.212 C 291.241 164.527 292.395 186.979 290.506 199.935 C 284.273 242.684 252.623 280.214 211.449 293.677 C 195.078 299.03 174.464 300.814 157.371 298.356 Z M 189.623 263.367 C 216.138 258.183 237.657 241.497 249.032 217.302 C 254.656 205.339 256.62 196.105 256.582 181.802 C 256.516 156.753 246.376 135.602 226.456 118.957 C 200.635 97.381 161.175 94.289 132.961 111.631 C 107.629 127.202 92.461 153.545 92.461 181.972 C 92.461 202.632 98.088 218.64 110.798 234.147 C 126.901 253.793 148.787 264.438 173.623 264.708 C 178.388 264.759 185.588 264.156 189.623 263.367 Z M 162.537 249.714 C 135.674 244.444 113.731 223.38 107.927 197.293 C 105.636 186.992 106.324 170.989 109.455 161.802 C 116.726 140.463 135.266 122.734 156.441 116.872 C 165.624 114.33 182.096 114.059 191.001 116.304 C 213.841 122.06 233.54 141.226 240.18 164.152 C 243 173.887 243.281 188.876 240.83 198.738 C 238.675 207.407 232.818 218.929 226.936 226.071 C 211.862 244.374 185.203 254.162 162.537 249.714 Z M 188.654 211.985 C 195.179 208.778 201.18 202.635 204.309 195.957 C 207.833 188.439 208.045 176.727 204.786 169.626 C 201.752 163.017 195.195 156.31 188.603 153.072 C 183.778 150.702 181.732 150.302 174.461 150.307 C 167.204 150.312 165.134 150.718 160.301 153.087 C 147.186 159.515 139.63 174.603 142.515 188.603 C 144.002 195.817 145.611 198.924 150.744 204.493 C 157.968 212.329 164.109 214.82 175.461 214.518 C 181.989 214.344 185.051 213.756 188.654 211.985 Z M 168.491 200.689 C 153.144 194.564 150.998 174.95 164.743 166.436 C 177.671 158.429 193.461 167.565 193.461 183.052 C 193.461 187.19 192.84 189.36 190.717 192.634 C 186.07 199.801 175.691 203.563 168.491 200.689 Z " stroke-width="1"/>
      <path id="path3007" fill="#FFFFEC" d="M 150.996 296.833 C 110.676 288.07 77.506 259.144 64.421 221.337 C 54.182 191.754 55.763 160.955 68.952 133.068 C 87.522 93.804 125.192 68.472 168.461 66.151 C 249.84 61.787 310.412 140.126 285.851 217.973 C 275.791 249.856 251.385 276.654 220.461 289.77 C 205.102 296.284 196.696 297.97 177.461 298.395 C 162.833 298.718 158.49 298.462 150.996 296.833 Z M 192.353 263.15 C 231.158 255.024 259.224 218.468 257.112 178.802 C 256.131 160.38 250.521 145.524 239.141 131.211 C 215.163 101.053 173.419 91.425 139.004 108.116 C 91.236 131.283 76.82 192.566 109.565 233.27 C 130.13 258.834 160.544 269.811 192.353 263.15 Z M 155.461 247.457 C 144.421 244.163 135.188 238.528 126.353 229.693 C 97.868 201.209 100.701 155.212 132.512 129.683 C 166.383 102.499 216.655 114.017 235.606 153.302 C 244.966 172.703 244.648 193.913 234.7 213.759 C 229.221 224.688 216.839 236.884 205.461 242.558 C 193.958 248.295 187.319 249.813 174.001 249.748 C 165.59 249.707 161.176 249.162 155.461 247.457 Z M 188.999 212.327 C 194.902 209.439 201.186 203.136 204.628 196.651 C 206.568 192.995 206.938 190.786 206.949 182.802 C 206.964 171.384 204.801 165.983 197.27 158.628 C 190.541 152.056 183.423 149.522 172.961 149.976 C 163.468 150.387 158.004 152.697 151.529 159.039 C 129.672 180.448 146.264 217.332 176.857 215.342 C 181.511 215.039 185.459 214.059 188.999 212.327 Z M 164.776 198.331 C 159.16 194.889 154.954 186.623 155.76 180.613 C 156.469 175.324 160.933 168.965 166.003 166.019 C 171.782 162.661 180.004 163.278 185.196 167.459 C 193.131 173.85 195.37 182.227 191.359 190.513 C 188.086 197.275 183.516 200.187 175.572 200.574 C 169.897 200.851 168.369 200.533 164.776 198.331 Z " stroke-width="1"/>
      <path id="path3005" fill="#FFFFEC" d="M 160.961 298.128 C 135.113 294.902 110.814 283.042 92.393 264.661 C 74.656 246.962 62.913 223.911 59.417 199.935 C 57.499 186.776 58.679 164.547 61.92 152.802 C 74.905 105.744 114.738 71.943 163.245 66.823 C 209.453 61.946 255.926 86.956 277.692 128.415 C 282.276 137.146 287.962 153.913 289.523 163.302 C 291.075 172.637 291.072 191.416 289.515 201.274 C 281.827 249.983 242.28 289.335 192.984 297.33 C 184.775 298.662 168.49 299.067 160.961 298.128 Z M 195.664 262.878 C 217.598 257.266 238.731 240.116 249.111 219.505 C 261.67 194.565 259.998 161.741 244.973 138.252 C 240.252 130.872 226.453 117.051 219.127 112.365 C 204.985 103.318 189.788 99.406 171.461 100.094 C 157.21 100.629 150.384 102.22 138.961 107.67 C 97.28 127.554 79.817 177.679 100.092 219.238 C 109.567 238.659 130.437 256.333 151 262.347 C 164.116 266.183 181.921 266.395 195.664 262.878 Z M 157.623 247.769 C 146.094 244.749 137.179 239.461 127.289 229.775 C 120.066 222.701 117.895 219.804 114.548 212.775 C 109.085 201.302 107.461 194.326 107.461 182.321 C 107.461 163.421 113.823 148.372 127.57 134.754 C 133.784 128.598 137.228 126.133 144.657 122.523 C 165.496 112.395 183.788 112.383 204.439 122.481 C 221.523 130.834 235.102 147.366 240.024 165.802 C 242.333 174.454 242.391 190.207 240.144 198.802 C 230.732 234.81 193.191 257.086 157.623 247.769 Z M 188.752 212.903 C 203.036 205.988 210.868 189.745 207.069 174.915 C 205.138 167.381 202.01 162.335 195.974 157.022 C 190.019 151.78 182.986 149.336 173.961 149.372 C 153.886 149.452 138.954 167.025 141.566 187.496 C 143.128 199.732 152.717 210.739 165.461 214.924 C 170.306 216.516 183.688 215.354 188.752 212.903 Z M 166.265 198.818 C 157.028 193.798 153.658 182.261 158.842 173.414 C 162.408 167.33 170.395 163.265 176.873 164.236 C 185.957 165.598 192.809 173.603 192.834 182.88 C 192.848 188.376 190.416 192.913 185.196 197.133 C 180.245 201.135 171.895 201.878 166.265 198.818 Z " stroke-width="1"/>
      <path id="path3003" fill="#FFFFEC" d="M 157.461 297.196 C 109.534 288.515 74.41 256.794 62.354 211.302 C 51.919 171.926 63.99 129.043 93.623 100.219 C 104.474 89.664 111.932 84.405 124.741 78.273 C 194.436 44.914 276.606 87.926 288.985 164.247 C 296.888 212.976 271.417 263.423 227.961 285.105 C 208.701 294.715 199.574 296.924 177.461 297.329 C 167.836 297.504 158.836 297.445 157.461 297.196 Z M 191.961 264.158 C 216.603 259.497 238.719 242.027 250.075 218.255 C 256.338 205.142 257.873 197.921 257.819 181.802 C 257.78 170.074 257.418 167.12 255.06 159.302 C 242.486 117.611 200.02 91.952 158.01 100.661 C 126.921 107.107 101.466 131.388 93.392 162.302 C 88.785 179.945 91.231 202.613 99.563 219.482 C 106.84 234.215 123.568 250.957 137.715 257.665 C 155.401 266.051 171.665 267.998 191.961 264.158 Z M 157.461 247.228 C 139.352 242.479 123.077 228.887 114.442 211.302 C 101.711 185.373 106.911 156.121 127.952 135.302 C 160.895 102.707 214.266 112.078 234.937 154.086 C 247.218 179.044 241.735 209.686 221.391 229.795 C 212.999 238.089 201.686 244.606 191.001 247.299 C 183.418 249.211 164.874 249.171 157.461 247.228 Z M 188.864 213.393 C 195.329 210.23 201.931 203.742 205.236 197.302 C 207.171 193.532 207.908 190.333 208.229 184.302 C 208.817 173.275 206.209 166.389 198.541 158.722 C 190.88 151.061 184.001 148.454 172.92 149.014 C 159.495 149.694 150.043 155.812 144.253 167.573 C 141.307 173.557 140.962 175.155 140.971 182.781 C 140.983 192.708 142.932 197.996 149.093 204.816 C 159.517 216.354 175.686 219.841 188.864 213.393 Z M 169.117 199.376 C 164.147 197.562 160.656 194.294 158.351 189.302 C 155.928 184.051 155.993 180.401 158.606 175.004 C 161.424 169.183 168.119 164.802 174.197 164.802 C 183.967 164.802 192.461 173.003 192.461 182.436 C 192.461 194.104 179.815 203.281 169.117 199.376 Z " stroke-width="1"/>
      <path id="path3001" fill="#FFFFEC" d="M 156.961 296.266 C 101.455 288.118 59.376 239.191 59.481 182.921 C 59.505 169.934 60.598 162.006 63.962 150.398 C 74.315 114.67 101.72 85.956 137.199 73.663 C 150.86 68.93 161.73 67.503 179.461 68.116 C 199.03 68.793 210.33 71.65 227.2 80.186 C 268.508 101.088 293.536 146.25 289.333 192.302 C 286.688 221.289 274.874 245.758 253.841 265.815 C 227.867 290.582 192.969 301.551 156.961 296.266 Z M 195.461 264.306 C 211.162 260.501 229.093 248.735 240.402 234.815 C 260.603 209.952 264.58 175.467 250.609 146.302 C 241.528 127.344 222.46 110.049 203.014 103.132 C 189.132 98.194 169.719 97.242 154.849 100.77 C 133.218 105.901 114.019 120.238 101.472 140.63 C 97.451 147.165 93.033 159.418 91.437 168.459 C 89.882 177.273 90.672 195.821 92.964 204.302 C 95.696 214.411 102.751 227.687 109.732 235.857 C 123.806 252.327 140.522 262.074 161.121 265.822 C 167.914 267.058 187.709 266.184 195.461 264.306 Z M 160.461 247.312 C 136.72 242.004 116.242 222.132 110.3 198.635 C 108.562 191.762 108.295 188.455 108.741 179.322 C 109.634 161.068 115.051 149.125 128.48 135.802 C 137.897 126.459 146.63 121.356 158.461 118.286 C 167.479 115.945 187.515 116.654 195.671 119.602 C 241.836 136.291 255.858 193.705 222.175 228.123 C 214.016 236.46 204.393 242.491 193.961 245.804 C 184.963 248.662 169.595 249.354 160.461 247.312 Z M 186.821 214.768 C 205.837 207.653 214.538 185.587 205.537 167.304 C 196.25 148.439 172.767 142.215 155.079 153.932 C 145.432 160.321 140.045 170.96 140.104 183.502 C 140.133 189.537 140.655 191.752 143.33 197.187 C 147.18 205.007 154.404 211.87 161.763 214.699 C 168.869 217.431 179.626 217.461 186.821 214.768 Z M 168.461 198.735 C 165.229 197.38 160.665 193.032 158.872 189.601 C 156.906 185.838 157.113 178.926 159.315 174.786 C 165.936 162.339 183.582 162.555 190.14 175.163 C 193.694 181.997 190.6 192.699 183.868 196.86 C 179.758 199.4 172.231 200.316 168.461 198.735 Z " stroke-width="1"/>
      <path id="path2999" fill="#FFFFEC" d="M 156.461 295.734 C 148.338 294.517 134.843 290.381 126.315 286.495 C 104.818 276.698 85.005 258.014 73.621 236.802 C 54.423 201.032 55.482 157.133 76.36 123.273 C 99.848 85.181 141.451 64.37 185.633 68.612 C 240.065 73.838 282.546 116.004 288.646 170.862 C 291.203 193.857 285.751 219.783 274.253 239.302 C 256.536 269.378 227.954 289.479 194.58 295.332 C 185.652 296.898 165.639 297.109 156.461 295.734 Z M 183.488 266.78 C 206.41 264.015 225.1 253.808 240.293 235.758 C 247.721 226.934 252.513 217.974 256.068 206.264 C 258.469 198.354 258.796 195.6 258.857 182.802 C 258.915 170.659 258.565 167.045 256.703 160.573 C 249.861 136.791 232.881 116.634 210.961 106.271 C 199.882 101.033 191.686 98.884 179.866 98.117 C 169.126 97.419 157.352 98.938 147.491 102.291 C 121.067 111.279 99.601 134.256 92.362 161.302 C 89.087 173.537 89.309 193.174 92.858 205.09 C 96.352 216.825 101.109 226.002 108.386 235.047 C 122.507 252.601 142.527 263.994 163.961 266.674 C 173.866 267.912 174.091 267.913 183.488 266.78 Z M 158.461 246.231 C 136.221 240.41 118.289 222.98 111.209 200.302 C 108.405 191.318 108.248 175.456 110.868 165.802 C 117.286 142.153 137.314 123.352 161.614 118.167 C 171.098 116.143 185.444 116.884 194.461 119.863 C 214.891 126.612 231.154 143.285 237.733 164.228 C 240.816 174.04 240.845 191.324 237.794 201.009 C 234.431 211.685 228.938 220.522 220.395 228.996 C 211.701 237.621 200.999 243.755 190.21 246.299 C 182.339 248.155 165.677 248.119 158.461 246.231 Z M 188.691 214.554 C 196.165 211.133 202.438 205.176 206.026 198.095 C 208.695 192.828 208.961 191.393 208.951 182.302 C 208.941 173.321 208.657 171.763 206.167 167.018 C 202.641 160.301 196.977 154.632 190.246 151.086 C 185.438 148.553 184.015 148.302 174.461 148.302 C 165.032 148.302 163.45 148.572 158.942 150.952 C 152.682 154.257 144.984 162.374 142.221 168.584 C 139.031 175.755 138.696 186.792 141.448 194.084 C 145.506 204.839 153.843 212.932 164.332 216.297 C 171.174 218.492 181.741 217.736 188.691 214.554 Z M 171.455 198.878 C 163.635 196.467 159.295 191.896 157.953 184.654 C 156.595 177.322 163.498 167.744 171.26 166.192 C 180.959 164.252 191.516 172.794 191.44 182.52 C 191.362 192.294 180.073 201.535 171.455 198.878 Z " stroke-width="1"/>
      <path id="path2997" fill="#FFFFEC" d="M 159.961 295.31 C 132.837 291.54 109.946 279.779 91.339 260.055 C 49.606 215.815 50.817 145.646 94.061 102.402 C 118.697 77.766 151.243 66.187 186.209 69.617 C 212.7 72.216 236.452 83.572 255.47 102.731 C 295.444 143.001 299.478 206.606 264.925 251.802 C 258.906 259.674 245.517 272.162 237.68 277.213 C 221.425 287.689 207.883 292.627 188.025 295.319 C 175.433 297.026 172.297 297.025 159.961 295.31 Z M 185.141 267.318 C 202.515 264.848 215.06 259.517 228.141 249.048 C 242.221 237.778 252.615 222.002 257.621 204.302 C 260.604 193.758 260.851 174.047 258.143 162.802 C 250.87 132.604 224.653 106.434 194.479 99.253 C 183.394 96.615 163.518 96.839 152.961 99.721 C 123.035 107.89 98.965 132.163 91.401 161.802 C 88.414 173.506 88.387 190.907 91.338 202.802 C 98.204 230.474 120.626 254.879 147.377 263.796 C 152.677 265.563 167.389 268.315 173.461 268.676 C 174.286 268.725 179.542 268.114 185.141 267.318 Z M 160.718 245.835 C 138.103 240.553 119.652 223.556 112.344 201.271 C 109.348 192.135 109.118 174.446 111.877 165.302 C 115.138 154.493 120.376 145.867 129.021 137.072 C 135.885 130.087 138.536 128.167 146.535 124.386 C 157.942 118.995 166.529 117.325 178.901 118.092 C 189.95 118.778 197.76 121.135 207.152 126.621 C 220.532 134.435 231.454 147.934 236.427 162.802 C 239.419 171.745 240.137 186.025 238.088 195.802 C 233.225 218.994 214.133 239.053 190.954 245.321 C 181.506 247.876 170.274 248.067 160.718 245.835 Z M 189.961 214.947 C 196.934 211.632 203.926 204.6 207.508 197.302 C 209.59 193.059 209.961 190.862 209.961 182.802 C 209.961 174.627 209.594 172.518 207.326 167.682 C 203.745 160.045 198.707 154.746 191.23 150.752 C 185.851 147.88 183.755 147.348 176.461 147.007 C 169.549 146.684 166.905 147.008 162.309 148.741 C 132.576 159.952 130.369 200.606 158.724 214.775 C 164.203 217.513 165.696 217.802 174.371 217.801 C 182.848 217.8 184.658 217.469 189.961 214.947 Z M 168.701 197.202 C 164.112 194.865 159.679 189.477 158.891 185.28 C 157.952 180.275 160.761 173.438 165.123 170.111 C 170.132 166.29 177.738 165.784 182.37 168.963 C 187.265 172.323 189.61 175.939 190.182 181.011 C 191.473 192.467 178.541 202.215 168.701 197.202 Z " stroke-width="1"/>
    </g>
  </g>
</svg>