<svg xmlns="http://www.w3.org/2000/svg" xmlns:xlink="http://www.w3.org/1999/xlink" version="1.1" width="364.92295479774475" height="364.9046747684479" viewBox="-0.16553181409835815 -0.08943188190460205 364.92295479774475 364.9046747684479">
  <!-- Exported by Scratch - http://scratch.mit.edu/ -->
  <g id="ID0.1045704036951065">
    <g id="g10">
      <g id="g3005">
        <path id="path22" fill="#245b12" stroke="none" d="M 61.2745 0.8216 L 363.8464 0.8216 L 363.8464 0.8216 L 363.8464 303.3935 L 363.8464 303.3935 C 363.8464 336.8101 336.7523 363.9042 303.3174 363.9042 C 303.3174 363.9042 303.3174 363.9042 303.3174 363.9042 L 303.3174 363.9042 L 0.7455 363.9042 L 0.7455 363.9042 L 0.7455 61.3323 L 0.7455 61.3323 C 0.7455 27.9157 27.8396 0.8216 61.2745 0.8216 C 61.2745 0.8216 61.2745 0.8216 61.2745 0.8216 Z " stroke-width="1.822063684463501"/>
        <path id="path24" fill="#FFFFFF" stroke="none" d="M 166.5533 187.0001 C 166.5533 175.5575 175.8276 166.2832 187.2702 166.2832 C 187.2702 166.2832 187.2702 166.2832 187.2702 166.2832 L 187.2702 166.2832 C 198.7127 166.2832 207.987 175.5575 207.987 187.0001 C 207.987 187.0001 207.987 187.0001 207.987 187.0001 L 207.987 187.0001 C 207.987 198.4426 198.7127 207.7169 187.2702 207.7169 C 187.2702 207.7169 187.2702 207.7169 187.2702 207.7169 L 187.2702 207.7169 C 175.8276 207.7169 166.5533 198.4426 166.5533 187.0001 C 166.5533 187.0001 166.5533 187.0001 166.5533 187.0001 Z " stroke-width="1.822063684463501"/>
        <path id="path26" fill="#FFFFFF" stroke="none" d="M 111.3083 187.0001 C 111.3083 145.0562 145.3263 111.0382 187.2702 111.0382 C 187.2702 111.0382 187.2702 111.0382 187.2702 111.0382 L 187.2702 111.0382 C 229.2141 111.0382 263.2138 145.0562 263.2138 187.0001 C 263.2138 187.0001 263.2138 187.0001 263.2138 187.0001 L 263.2138 187.0001 C 263.2138 228.944 229.2141 262.9437 187.2702 262.9437 C 187.2702 262.9437 187.2702 262.9437 187.2702 262.9437 L 187.2702 262.9437 C 145.3263 262.9437 111.3083 228.944 111.3083 187.0001 C 111.3083 187.0001 111.3083 187.0001 111.3083 187.0001 Z M 149.2984 187.0001 C 149.2984 207.972 166.2982 224.9719 187.2702 224.9719 C 187.2702 224.9719 187.2702 224.9719 187.2702 224.9719 L 187.2702 224.9719 C 208.2421 224.9719 225.242 207.972 225.242 187.0001 L 225.242 187.0001 C 225.242 166.0281 208.2421 149.0283 187.2702 149.0283 C 187.2702 149.0283 187.2702 149.0283 187.2702 149.0283 L 187.2702 149.0283 C 166.2982 149.0283 149.2984 166.0281 149.2984 187.0001 Z " stroke-width="1.822063684463501"/>
        <path id="path28" fill="#FFFFFF" stroke="none" d="M 56.0816 187.0001 C 56.0816 114.5366 114.8067 55.8115 187.2702 55.8115 C 187.2702 55.8115 187.2702 55.8115 187.2702 55.8115 L 187.2702 55.8115 C 259.7154 55.8115 318.4588 114.5366 318.4588 187.0001 C 318.4588 187.0001 318.4588 187.0001 318.4588 187.0001 L 318.4588 187.0001 C 318.4588 259.4453 259.7154 318.1887 187.2702 318.1887 C 187.2702 318.1887 187.2702 318.1887 187.2702 318.1887 L 187.2702 318.1887 C 114.8067 318.1887 56.0816 259.4453 56.0816 187.0001 C 56.0816 187.0001 56.0816 187.0001 56.0816 187.0001 Z M 93.4339 187.0001 C 93.4339 238.8196 135.4507 280.8181 187.2702 280.8181 C 187.2702 280.8181 187.2702 280.8181 187.2702 280.8181 L 187.2702 280.8181 C 239.0897 280.8181 281.0882 238.8196 281.0882 187.0001 L 281.0882 187.0001 C 281.0882 135.1806 239.0897 93.182 187.2702 93.182 C 187.2702 93.182 187.2702 93.182 187.2702 93.182 L 187.2702 93.182 C 135.4507 93.182 93.4339 135.1806 93.4339 187.0001 Z " stroke-width="1.822063684463501"/>
      </g>
    </g>
  </g>
</svg>