<svg version="1.1" xmlns="http://www.w3.org/2000/svg" xmlns:xlink="http://www.w3.org/1999/xlink" width="11.62932" height="13.78234" viewBox="0,0,11.62932,13.78234"><g transform="translate(-234.18534,-173.10883)"><g data-paper-data="{&quot;isPaintingLayer&quot;:true}" fill-rule="nonzero" stroke="none" stroke-width="0" stroke-linecap="butt" stroke-linejoin="miter" stroke-miterlimit="10" stroke-dasharray="" stroke-dashoffset="0" style="mix-blend-mode: normal"><g data-paper-data="{&quot;origPos&quot;:null}"><g data-paper-data="{&quot;origPos&quot;:null}" fill="#7da03b"><path d="M240.02144,179.14878v7.68247c0,0 -3.87541,-0.05345 -4.63945,-0.05345c-0.25468,0 -0.14299,-0.05345 -0.39767,-0.05345c-0.35018,0 -0.5914,-0.26726 -0.5914,-0.26726c0,0 -0.15295,-0.29149 -0.15295,-0.49175c0,-0.60076 0.05098,-6.87002 0.05098,-6.87002z" data-paper-data="{&quot;origPos&quot;:null,&quot;index&quot;:null}"/><path d="M234.29097,180.84476c0,0 -0.05098,-6.26925 -0.05098,-6.87002c0,-0.20025 0.15295,-0.49175 0.15295,-0.49175c0,0 0.24121,-0.26726 0.5914,-0.26726c0.25468,0 0.14299,-0.05345 0.39767,-0.05345c0.76403,0 4.63945,-0.05345 4.63945,-0.05345v7.68248z" data-paper-data="{&quot;origPos&quot;:null}"/></g><path d="M234.27567,178.84541v-3.52776h5.76107v3.52776z" data-paper-data="{&quot;origPos&quot;:null}" fill="#627d2e"/><g data-paper-data="{&quot;origPos&quot;:null}"><path d="M234.32665,184.8319v-3.52776h5.76107v3.52776z" data-paper-data="{&quot;origPos&quot;:null}" fill="#627d2e"/><path d="M234.32665,184.80517c0,-1.07748 0.83314,-1.95095 1.86088,-1.95095c1.02773,0 1.86087,0.87347 1.86087,1.95095c0,1.07748 -0.83314,1.95096 -1.86087,1.95096c-1.02773,0 -1.86088,-0.87348 -1.86088,-1.95096z" data-paper-data="{&quot;origPos&quot;:null}" fill="#627d2e"/><path d="M237.99742,184.75172c0,-1.07748 0.83314,-1.95095 1.86087,-1.95095c0.52468,0 0.09367,-0.25589 0.18938,0.28496c0.07525,0.42518 0.0577,1.36888 0.04713,1.80118c-0.01486,0.60803 -0.01748,1.62939 -0.01006,1.70917c0.05535,0.59468 0.34346,0.10659 -0.22645,0.10659c-1.02773,0 -1.86087,-0.87347 -1.86087,-1.95095z" data-paper-data="{&quot;origPos&quot;:null}" fill="#627d2e"/><path d="M236.33185,181.25358c0,1.07748 -0.83314,1.95095 -1.86088,1.95095c-0.52468,0 -0.09367,0.2559 -0.18938,-0.28496c-0.07525,-0.42518 -0.00671,-1.42234 0.00386,-1.85463c0.01486,-0.60803 0.01747,-0.98798 0.01005,-1.06776c-0.05535,-0.59468 0.26833,-0.16004 0.83825,-0.16004c1.02773,0 1.19809,0.33897 1.19809,1.41645z" data-paper-data="{&quot;origPos&quot;:null,&quot;index&quot;:null}" fill="#7da03b"/><path d="M236.36597,181.38432c0,-1.07748 0.83314,-1.95096 1.86088,-1.95096c1.02773,0 1.86087,0.87347 1.86087,1.95096c0,1.07748 -0.83314,1.95095 -1.86087,1.95095c-1.02773,0 -1.86088,-0.87347 -1.86088,-1.95095z" data-paper-data="{&quot;origPos&quot;:null}" fill="#7da03b"/></g><path d="M234.27567,178.81868c0,-1.07748 0.83314,-1.95096 1.86088,-1.95096c1.02773,0 1.86087,0.87347 1.86087,1.95096c0,1.07748 -0.83314,1.95095 -1.86087,1.95095c-1.02773,0 -1.86088,-0.87347 -1.86088,-1.95095z" data-paper-data="{&quot;origPos&quot;:null}" fill="#627d2e"/><path d="M237.94643,178.76523c0,-1.07748 0.83314,-1.95096 1.86087,-1.95096c0.52468,0 0.09367,-0.2559 0.18938,0.28495c0.07525,0.42518 0.0577,1.36889 0.04713,1.80118c-0.01486,0.60803 -0.01748,1.62939 -0.01006,1.70917c0.05535,0.59468 0.34346,0.10659 -0.22645,0.10659c-1.02773,0 -1.86087,-0.87347 -1.86087,-1.95095z" data-paper-data="{&quot;origPos&quot;:null}" fill="#627d2e"/><path d="M236.28087,175.26708c0,1.07748 -0.83314,1.95095 -1.86087,1.95095c-0.52468,0 0.00831,0.3628 -0.08742,-0.17806c-0.01299,-0.0734 -0.11402,-1.31072 -0.09811,-1.96153c0.01486,-0.60803 0.01748,-0.98798 0.01006,-1.06776c-0.05535,-0.59468 0.26833,-0.16004 0.83824,-0.16004c1.02773,0 1.1981,0.33897 1.1981,1.41645z" data-paper-data="{&quot;origPos&quot;:null,&quot;index&quot;:null}" fill="#7da03b"/><path d="M236.31498,175.39783c0,-1.07748 0.83314,-1.95095 1.86087,-1.95095c1.02773,0 1.86088,0.87347 1.86088,1.95095c0,1.07748 -0.83315,1.95095 -1.86088,1.95095c-1.02773,0 -1.86087,-0.87347 -1.86087,-1.95095z" data-paper-data="{&quot;origPos&quot;:null}" fill="#7da03b"/></g><g data-paper-data="{&quot;origPos&quot;:null,&quot;index&quot;:null}" fill="#8bb343"><path d="M245.70904,179.09533c0,0 0.05098,6.26925 0.05098,6.87002c0,0.20025 -0.15295,0.49175 -0.15295,0.49175c0,0 -0.24121,0.26726 -0.5914,0.26726c-0.25468,0 -0.14299,0.05345 -0.39767,0.05345c-0.76403,0 -4.63944,0.05345 -4.63944,0.05345v-7.68247z" data-paper-data="{&quot;origPos&quot;:null,&quot;index&quot;:null}"/><path d="M239.97856,180.79131v-7.68248c0,0 3.87541,0.05345 4.63944,0.05345c0.25468,0 0.14299,0.05345 0.39767,0.05345c0.35018,0 0.5914,0.26726 0.5914,0.26726c0,0 0.15295,0.29149 0.15295,0.49175c0,0.60076 -0.05098,6.87002 -0.05098,6.87002z" data-paper-data="{&quot;origPos&quot;:null}"/></g><path d="M239.96326,178.84541v-3.52776h5.76107v3.52776z" data-paper-data="{&quot;origPos&quot;:null,&quot;index&quot;:null}" fill="#7da03b"/><g data-paper-data="{&quot;origPos&quot;:null,&quot;index&quot;:null}"><path d="M239.91228,184.8319v-3.52776h5.76107v3.52776z" data-paper-data="{&quot;origPos&quot;:null}" fill="#7da03b"/><path d="M243.81247,186.75613c-1.02773,0 -1.86088,-0.87348 -1.86088,-1.95096c0,-1.07748 0.83314,-1.95095 1.86088,-1.95095c1.02773,0 1.86087,0.87347 1.86087,1.95095c0,1.07748 -0.83314,1.95096 -1.86087,1.95096z" data-paper-data="{&quot;origPos&quot;:null}" fill="#7da03b"/><path d="M240.14171,186.70268c-0.56992,0 -0.28181,0.48809 -0.22645,-0.10659c0.00742,-0.07978 0.0048,-1.10114 -0.01006,-1.70917c-0.01058,-0.4323 -0.02812,-1.376 0.04713,-1.80119c0.09572,-0.54085 -0.33531,-0.28495 0.18938,-0.28495c1.02773,0 1.86087,0.87347 1.86087,1.95095c0,1.07748 -0.83314,1.95096 -1.86087,1.95096z" data-paper-data="{&quot;origPos&quot;:null}" fill="#7da03b"/><path d="M244.86625,179.83713c0.56992,0 0.89359,-0.43464 0.83825,0.16004c-0.00742,0.07978 -0.0048,0.45973 0.01006,1.06776c0.01058,0.4323 0.0791,1.42945 0.00385,1.85464c-0.09572,0.54085 0.3353,0.28496 -0.18938,0.28496c-1.02773,0 -1.86087,-0.87347 -1.86087,-1.95096c0,-1.07748 0.17036,-1.41644 1.19809,-1.41644z" data-paper-data="{&quot;origPos&quot;:null,&quot;index&quot;:null}" fill="#8bb343"/><path d="M241.82414,183.33528c-1.02773,0 -1.86088,-0.87347 -1.86088,-1.95095c0,-0.13957 0.00674,-1.55468 0.03086,-1.69193c0.07235,-0.41178 0.82223,-0.25903 1.83002,-0.25903c1.02773,0 1.86087,0.87347 1.86087,1.95096c0,1.07748 -0.83314,1.95095 -1.86087,1.95095z" data-paper-data="{&quot;origPos&quot;:null}" fill="#8bb343"/></g><path d="M243.86346,180.76964c-1.02773,0 -1.86088,-0.87347 -1.86088,-1.95095c0,-1.07748 0.83314,-1.95096 1.86088,-1.95096c1.02773,0 1.86087,0.87347 1.86087,1.95096c0,1.07748 -0.83314,1.95095 -1.86087,1.95095z" data-paper-data="{&quot;origPos&quot;:null,&quot;index&quot;:null}" fill="#7da03b"/><path d="M240.19269,180.71619c-0.56992,0 -0.28181,0.48809 -0.22645,-0.10659c0.00742,-0.07978 0.0048,-1.10114 -0.01006,-1.70917c-0.01058,-0.4323 -0.02812,-1.376 0.04713,-1.80118c0.09572,-0.54085 -0.33531,-0.28496 0.18938,-0.28496c1.02773,0 1.86087,0.87347 1.86087,1.95095c0,1.07748 -0.83314,1.95095 -1.86087,1.95095z" data-paper-data="{&quot;origPos&quot;:null,&quot;index&quot;:null}" fill="#7da03b"/><path d="M244.91723,173.85064c0.56992,0 0.89359,-0.43464 0.83825,0.16004c-0.00742,0.07978 -0.0048,0.45973 0.01006,1.06776c0.01591,0.65081 -0.08512,1.88813 -0.09812,1.96153c-0.09572,0.54085 0.43727,0.17806 -0.08741,0.17806c-1.02773,0 -1.86087,-0.87347 -1.86087,-1.95095c0,-1.07748 0.17036,-1.41645 1.19809,-1.41645z" data-paper-data="{&quot;origPos&quot;:null,&quot;index&quot;:null}" fill="#8bb343"/><path d="M241.82414,177.34878c-1.02773,0 -1.86088,-0.87347 -1.86088,-1.95095c0,-1.07748 0.83315,-1.95095 1.86088,-1.95095c1.02773,0 1.86087,0.87347 1.86087,1.95095c0,1.07748 -0.83314,1.95095 -1.86087,1.95095z" data-paper-data="{&quot;origPos&quot;:null,&quot;index&quot;:null}" fill="#8bb343"/></g></g></svg>