<svg version="1.1" xmlns="http://www.w3.org/2000/svg" xmlns:xlink="http://www.w3.org/1999/xlink" width="19.00503" height="19.81298" viewBox="0,0,19.00503,19.81298"><g transform="translate(-230.45295,-168.00954)"><g data-paper-data="{&quot;isPaintingLayer&quot;:true}" fill-rule="nonzero" stroke="none" stroke-miterlimit="10" stroke-dasharray="" stroke-dashoffset="0" style="mix-blend-mode: normal"><path d="M239.11427,170.84287v-2.83333c0,0 0.4159,1.15432 0.6821,1.15432c0.2662,0 0.6821,-1.15432 0.6821,-1.15432v2.83333z" data-paper-data="{&quot;origPos&quot;:null}" fill="#ff3f00" stroke-width="0" stroke-linecap="butt" stroke-linejoin="miter"/><path d="M240.36402,171.1576c0,0 0.0589,-0.11949 -0.1805,0.0121c-0.3554,0.1954 10.7597,13.9178 6.167,16.3807c-0.2316,0.342 -12.5083,0.3302 -12.8739,0.1378c-0.3655,-0.1923 0.072,-1.1287 0.2227,-1.5133c0,0 6.5442,-15.3293 6.6647,-15.0173z" data-paper-data="{&quot;origPos&quot;:null}" id="path5683" fill="#627d2e" stroke-width="1.62136" stroke-linecap="round" stroke-linejoin="round"/><path d="M239.8884,170.4572c0,4.4424 0.08333,8.1349 0.08333,12.5774c-0.02352,0.36469 -0.21661,1.35762 -0.31807,1.506c-1.16926,1.55792 -4.83011,2.81766 -4.99522,2.9474c-0.25994,0.1576 -1.19569,0.1713 -1.4404,-0.0263c-0.25046,-0.1761 -2.96443,-4.9321 -2.55076,-6.1162c1.56856,-4.4273 -1.30546,3.3904 0.28053,-1.03c0.16886,-0.3751 6.88461,-9.8444 7.27203,-9.8611c0.05057,0.0074 1.62834,-0.032 1.66856,0.0028z" data-paper-data="{&quot;origPos&quot;:null}" id="path5687" fill="#7da03b" stroke-width="1.62136" stroke-linecap="round" stroke-linejoin="round"/><path d="M241.44111,170.45441c0.38742,0.0167 7.35317,9.486 7.52202,9.8611c1.58599,4.4204 -1.28802,-3.3973 0.28054,1.03c0.41367,1.1841 -2.30031,5.9401 -2.55077,6.1162c-0.24472,0.1976 -1.18046,0.1839 -1.4404,0.0263c-0.16511,-0.12974 -3.82595,-1.38948 -4.99521,-2.9474c-0.10146,-0.14838 -0.29457,-1.14131 -0.31808,-1.506c0,-4.4425 -0.08333,-8.135 -0.08333,-12.5774c0.04022,-0.0348 1.53467,0.0046 1.58524,-0.0028z" data-paper-data="{&quot;origPos&quot;:null,&quot;index&quot;:null}" id="path5687" fill="#8bb343" stroke-width="1.62136" stroke-linecap="round" stroke-linejoin="round"/><path d="M235.45903,180.14007c0,-0.71797 0.58203,-1.3 1.3,-1.3c0.71797,0 1.3,0.58203 1.3,1.3c0,0.71797 -0.58203,1.3 -1.3,1.3c-0.71797,0 -1.3,-0.58203 -1.3,-1.3z" data-paper-data="{&quot;origPos&quot;:null}" fill="#000000" stroke-width="0" stroke-linecap="butt" stroke-linejoin="miter"/><path d="M241.95903,180.14007c0,-0.71797 0.58203,-1.3 1.3,-1.3c0.71797,0 1.3,0.58203 1.3,1.3c0,0.71797 -0.58203,1.3 -1.3,1.3c-0.71797,0 -1.3,-0.58203 -1.3,-1.3z" data-paper-data="{&quot;origPos&quot;:null}" fill="#000000" stroke-width="0" stroke-linecap="butt" stroke-linejoin="miter"/><path d="M237.25475,183.93283l2.73101,-2.15317l0.30392,0.59013z" data-paper-data="{&quot;origPos&quot;:null,&quot;origRot&quot;:0}" fill="#607b2d" stroke-width="0" stroke-linecap="butt" stroke-linejoin="miter"/><path d="M239.65475,182.36979l0.30393,-0.59013l2.73101,2.15317z" data-paper-data="{&quot;origPos&quot;:null,&quot;origRot&quot;:0,&quot;index&quot;:null}" fill="#607b2d" stroke-width="0" stroke-linecap="butt" stroke-linejoin="miter"/><path d="M238.65903,172.02341c0,-0.23012 0.18654,-0.41667 0.41666,-0.41667c0.23012,0 0.41667,0.18655 0.41667,0.41667c0,0.23012 -0.18655,0.41666 -0.41667,0.41666c-0.23012,0 -0.41666,-0.18654 -0.41666,-0.41666z" data-paper-data="{&quot;origPos&quot;:null}" fill="#000000" stroke-width="0" stroke-linecap="butt" stroke-linejoin="miter"/><path d="M240.34237,172.04007c0,-0.23012 0.18654,-0.41666 0.41666,-0.41666c0.23012,0 0.41666,0.18654 0.41666,0.41666c0,0.23012 -0.18654,0.41667 -0.41666,0.41667c-0.23012,0 -0.41666,-0.18655 -0.41666,-0.41667z" data-paper-data="{&quot;origPos&quot;:null}" fill="#000000" stroke-width="0" stroke-linecap="butt" stroke-linejoin="miter"/></g></g></svg>