<svg version="1.1" xmlns="http://www.w3.org/2000/svg" xmlns:xlink="http://www.w3.org/1999/xlink" width="13.81669" height="13.97461" viewBox="0,0,13.81669,13.97461"><defs><linearGradient x1="239.9296" y1="174.2229" x2="237.052" y2="177.1433" gradientUnits="userSpaceOnUse" id="color-1"><stop offset="0" stop-color="#fbb01c"/><stop offset="1" stop-color="#fbaf1c"/></linearGradient><linearGradient x1="239.9296" y1="174.2229" x2="245.6994" y2="174.2229" gradientUnits="userSpaceOnUse" id="color-2"><stop offset="0" stop-color="#ffab20"/><stop offset="1" stop-color="#fbb11c"/></linearGradient><linearGradient x1="239.9007" y1="179.9304" x2="245.6987" y2="179.9304" gradientUnits="userSpaceOnUse" id="color-3"><stop offset="0" stop-color="#f7971e"/><stop offset="1" stop-color="#f7971e"/></linearGradient><linearGradient x1="234.3667" y1="174.1743" x2="239.7055" y2="174.1743" gradientUnits="userSpaceOnUse" id="color-4"><stop offset="0" stop-color="#f7971e"/><stop offset="1" stop-color="#f7971e"/></linearGradient><linearGradient x1="234.3006" y1="180.0474" x2="239.6291" y2="180.0474" gradientUnits="userSpaceOnUse" id="color-5"><stop offset="0" stop-color="#c06b29"/><stop offset="1" stop-color="#c16c29"/></linearGradient></defs><g transform="translate(-233.15831,-173.07506)"><g data-paper-data="{&quot;isPaintingLayer&quot;:true}" fill-rule="nonzero" stroke-linecap="round" stroke-miterlimit="10" stroke-dasharray="" stroke-dashoffset="0" style="mix-blend-mode: normal"><g data-paper-data="{&quot;origPos&quot;:null}"><path d="M245.6994,179.9079l-5.7269,0.1131l-0.0429,-5.7981z" id="ID0.4291090755723417" fill="url(#color-1)" stroke="url(#color-2)" stroke-width="2" stroke-linejoin="round"/><path d="M240.0224,185.7088l-0.1217,-5.7267l5.798,-0.0517z" id="ID0.4291090755723417" fill="#f7971e" stroke="url(#color-3)" stroke-width="2" stroke-linejoin="round"/><path d="M239.6532,174.1743l0.0523,5.8688l-5.3388,0.0122z" id="ID0.4291090755723417" fill="#f7971e" stroke="url(#color-4)" stroke-width="2" stroke-linejoin="round"/><path d="M234.3006,180.0474l5.2688,0.0511l0.0597,5.7272l-0.0714,-0.07z" id="ID0.4291090755723417" fill="#c16c29" stroke="url(#color-5)" stroke-width="2" stroke-linejoin="round"/><path d="M240.5508,179.8839h0.3441l4.3084,0.6206l-1.817,2.305l-2.808,2.704z" id="ID0.6712332242168486" fill="#f6961e" stroke="#f7971e" stroke-width="1.31284" stroke-linejoin="miter"/><path d="M234.6912,179.1708l2.69,-2.8215l2.296,-1.8284l0.642,4.3053l0.0017,0.3441z" id="ID0.6712332242168486" fill="#f6961e" stroke="#f7971e" stroke-width="1.31284" stroke-linejoin="miter"/><path d="M240.5668,179.1882l0.0028,-0.3441l0.0789,-4.1977l2.4619,2.498l2.1994,2.0691z" data-paper-data="{&quot;origPos&quot;:null}" id="ID0.6712332242168486" fill="#feab1f" stroke="#feab1f" stroke-width="1.31284" stroke-linejoin="miter"/></g></g></g></svg>