<svg version="1.1" xmlns="http://www.w3.org/2000/svg" xmlns:xlink="http://www.w3.org/1999/xlink" width="720" height="540"><defs><clipPath id="clip-1"><rect x="-240" y="-180" transform="scale(0.5,0.5)" width="1440" height="1080" fill="none" fill-rule="nonzero" stroke-width="0.5" stroke-linecap="butt"/></clipPath></defs><g transform="translate(120,90)"><g clip-path="url(#clip-1)" data-paper-data="{&quot;isPaintingLayer&quot;:true}" stroke="none" stroke-linejoin="miter" stroke-miterlimit="10" stroke-dasharray="" stroke-dashoffset="0" style="mix-blend-mode: normal"><path d="M-240,-180h960v720h-960z" fill-opacity="0" fill="#000000" fill-rule="evenodd" stroke-width="1" stroke-linecap="square"/><path d="M134.3425,189.30466l0.08736,-6.08628c0,-0.4174 0.43196,-0.68919 1.29589,-0.81539c0.87363,-0.13589 1.59194,-0.20385 2.15495,-0.20385l1.74726,0.13105c1.12601,0.17473 1.68901,0.48535 1.68901,0.93187l-0.17473,14.00718c-0.59213,0.4174 -1.79093,0.82995 -3.59643,1.23764c-1.8055,0.39798 -3.87309,0.59698 -6.20276,0.59698c-4.31961,0 -7.80927,-1.40266 -10.46898,-4.20797c-2.65001,-2.80532 -3.975,-6.92108 -3.975,-12.34728c0,-4.62052 1.29589,-8.37712 3.88765,-11.26981c2.60147,-2.89268 6.19791,-4.33902 10.78932,-4.33902c2.087,0 3.97016,0.20385 5.64946,0.61154c1.68901,0.39798 2.84414,0.94158 3.46539,1.63077c0.03883,0.23297 0.05824,0.67949 0.05824,1.33956c0,0.65037 -0.22811,1.58224 -0.68434,2.79561c-0.44652,1.20367 -0.95128,2.10642 -1.51429,2.70825c-0.56301,0.59213 -0.97555,0.88819 -1.23764,0.88819c-0.25238,0 -0.51932,-0.11163 -0.80082,-0.33489c-0.2815,-0.22326 -0.83965,-0.46108 -1.67445,-0.71346c-0.8348,-0.25238 -1.64048,-0.37857 -2.41704,-0.37857c-1.84433,0 -3.34405,0.59698 -4.49918,1.79094c-1.14543,1.18425 -1.71814,3.03343 -1.71814,5.54754c0,2.5044 0.58727,4.40697 1.76182,5.70771c1.18425,1.29103 2.54323,1.93655 4.07693,1.93655c1.5337,0 2.30055,-0.38828 2.30055,-1.16484zM166.58982,198.73985c-2.59176,0 -3.98957,-0.4174 -4.19342,-1.2522l-1.48517,-5.76595h-7.10551l-1.29588,5.54754c-0.18444,0.92216 -1.61621,1.38325 -4.29533,1.38325c-1.43664,0 -2.49955,-0.08251 -3.18874,-0.24752c-0.67949,-0.16502 -1.01923,-0.29121 -1.01923,-0.37857l7.9209,-30.28578c0,-0.23297 2.04332,-0.34945 6.12996,-0.34945c4.08664,0 6.12996,0.11648 6.12996,0.34945l7.73162,30.32947c0,0.21356 -0.68919,0.37857 -2.06759,0.49506c-1.36868,0.11648 -2.45587,0.17473 -3.26155,0.17473zM154.92688,186.04312h4.68847l-2.00935,-9.26046h-0.26209zM206.18213,198.69617c-2.65001,0 -3.975,-0.29606 -3.975,-0.88818l-0.94643,-17.9385l-5.46017,18.15691c-0.11648,0.35916 -1.13086,0.53874 -3.04313,0.53874c-1.90257,0 -2.88297,-0.16502 -2.94122,-0.49506l-5.6349,-18.38987l-0.6261,17.85114c-0.03883,0.44652 -0.61154,0.75229 -1.71814,0.91731c-1.09689,0.16502 -2.00935,0.24753 -2.73737,0.24753c-0.72802,0 -1.43664,-0.04368 -2.12583,-0.13104c-1.42693,-0.21356 -2.12583,-0.58727 -2.09671,-1.12115l1.01923,-29.07726c0,-0.70861 1.82006,-1.06291 5.46018,-1.06291c1.07748,0 2.38792,0.08251 3.93133,0.24753c1.55312,0.15531 2.42189,0.47079 2.60633,0.94644l5.0088,14.09454l4.38271,-14.13821c0.26209,-0.76685 2.31997,-1.15027 6.17364,-1.15027c1.09689,0 2.41218,0.08251 3.94589,0.24753c1.54341,0.15531 2.31512,0.44167 2.31512,0.85907l1.29589,29.35391c0,0.32033 -0.58242,0.55815 -1.74726,0.71347c-1.16484,0.1456 -2.19378,0.21841 -3.08682,0.21841zM229.97844,179.78211c0.56301,0 0.84451,1.0435 0.84451,3.13051c0,0.62125 -0.06795,1.35897 -0.20385,2.21319c-0.12619,0.84451 -0.36886,1.26677 -0.72802,1.26677h-5.67858v4.47007h8.22667c0.50477,0 0.84936,0.66007 1.0338,1.98022c0.08736,0.56301 0.13105,1.16484 0.13105,1.8055c0,0.64066 -0.09222,1.47061 -0.27664,2.48985c-0.17473,1.00952 -0.47079,1.51429 -0.88818,1.51429h-15.30305c-1.12601,0 -1.68901,-0.46108 -1.68901,-1.38324v-28.77149c0,-0.76685 0.33974,-1.15027 1.01923,-1.15027h16.01652c0.63095,0 0.94644,1.32015 0.94644,3.96045c0,2.6306 -0.31548,3.94589 -0.94643,3.94589h-8.27035v4.52831zM259.20185,199.10386c-4.18371,0 -7.59571,-1.37354 -10.23601,-4.12061c-2.6403,-2.74708 -3.96045,-6.7512 -3.96045,-12.01239c0,-5.26118 1.33471,-9.2459 4.00413,-11.95414c2.66942,-2.71796 6.11054,-4.07693 10.32338,-4.07693c4.22254,0 7.62969,1.33471 10.22145,4.00413c2.60147,2.66942 3.90221,6.71238 3.90221,12.12888c0,5.40679 -1.32985,9.43033 -3.98957,12.07064c-2.65001,2.6403 -6.07171,3.96045 -10.26513,3.96045zM259.23097,175.53045c-1.42693,0 -2.62574,0.65523 -3.59643,1.96567c-0.9707,1.31044 -1.45605,3.15477 -1.45605,5.53298c0,2.36851 0.46108,4.18856 1.38325,5.46018c0.92216,1.26191 2.13554,1.89286 3.64012,1.89286c1.51429,0 2.73737,-0.64066 3.66924,-1.92198c0.94158,-1.29103 1.41237,-3.12565 1.41237,-5.50386c0,-2.38792 -0.48535,-4.22254 -1.45605,-5.50386c-0.96099,-1.28132 -2.15981,-1.92198 -3.59643,-1.92198zM275.29285,167.92989c0,-0.15531 0.64552,-0.29606 1.93655,-0.42225c1.30073,-0.13589 2.36851,-0.20385 3.2033,-0.20385c3.31008,0 5.03792,0.43196 5.18353,1.29589l3.85853,19.6712l3.611,-19.67119c0.18444,-0.86392 2.03361,-1.29588 5.54754,-1.29588c0.86392,0 1.9511,0.05824 3.26155,0.17473c1.32015,0.11648 1.98022,0.24753 1.98022,0.39314l-7.9209,29.616c-0.11648,0.47565 -0.99497,0.79112 -2.63544,0.94644c-2.53352,0.26209 -4.83893,0.31062 -6.91622,0.1456c-2.06759,-0.16502 -3.16447,-0.45623 -3.29067,-0.87363zM321.13789,179.78211c0.56301,0 0.84451,1.0435 0.84451,3.13051c0,0.62125 -0.06795,1.35897 -0.20385,2.21319c-0.12619,0.84451 -0.36886,1.26677 -0.72802,1.26677h-5.67858v4.47007h8.22667c0.50477,0 0.84936,0.66007 1.0338,1.98022c0.08736,0.56301 0.13105,1.16484 0.13105,1.8055c0,0.64066 -0.09222,1.47061 -0.27664,2.48985c-0.17473,1.00952 -0.47079,1.51429 -0.88818,1.51429h-15.30305c-1.12601,0 -1.68901,-0.46108 -1.68901,-1.38324v-28.77149c0,-0.76685 0.33974,-1.15027 1.01923,-1.15027h16.01652c0.63095,0 0.94644,1.32015 0.94644,3.96045c0,2.6306 -0.31548,3.94589 -0.94643,3.94589h-8.27035v4.52831zM337.19082,198.02639c0,0.47565 -1.41236,0.71347 -4.23709,0.71347c-2.86356,0 -4.29533,-0.22326 -4.29533,-0.66978v-29.16462c0,-1.03864 0.54844,-1.55797 1.64534,-1.55797h8.547c7.84324,0 11.76486,3.05284 11.76486,9.15854c0,1.85403 -0.35916,3.53334 -1.07748,5.03792c-0.71831,1.50458 -1.73269,2.70339 -3.04313,3.59644l5.63491,9.39151c-0.23297,0.71831 -1.00467,1.53856 -2.31511,2.46072c-1.79579,1.28132 -3.2761,1.92198 -4.44094,1.92198c-1.15513,0 -2.01906,-0.4174 -2.59176,-1.2522l-4.19342,-9.78464h-1.39781zM337.19082,175.25381v6.71238h0.23297c2.83444,0 4.25166,-1.17939 4.25166,-3.53819c0,-1.06776 -0.27664,-1.86374 -0.82994,-2.38792c-0.5533,-0.52418 -1.45605,-0.78627 -2.70825,-0.78627zM362.19817,189.26098c0,0.17473 -1.06776,0.26209 -3.2033,0.26209c-2.12583,0 -3.18874,-0.0728 -3.18874,-0.2184l-0.90275,-22.05911c0,-0.23297 1.36383,-0.34945 4.0915,-0.34945c2.73737,0 4.10605,0.10193 4.10605,0.30577zM354.81601,191.94011c0,-0.20385 1.37839,-0.30577 4.13517,-0.30577c2.76649,0 4.14974,0.08736 4.14974,0.26209v6.43573c0,0.30092 -1.38324,0.45138 -4.14973,0.45138c-2.75678,0 -4.13517,-0.08736 -4.13517,-0.26209z" data-paper-data="{&quot;origPos&quot;:null}" fill="#174a78" fill-rule="nonzero" stroke-width="1" stroke-linecap="square"/><path d="M-17.38583,-55.33596h379.08664v82.67716h-379.08664z" fill-opacity="0" fill="#000000" fill-rule="evenodd" stroke-width="1" stroke-linecap="square"/><path d="M134.3425,186.30466l0.08736,-6.08628c0,-0.4174 0.43196,-0.68919 1.29589,-0.81539c0.87363,-0.13589 1.59194,-0.20385 2.15495,-0.20385l1.74726,0.13105c1.12601,0.17473 1.68901,0.48535 1.68901,0.93187l-0.17473,14.00718c-0.59213,0.4174 -1.79093,0.82995 -3.59643,1.23764c-1.8055,0.39798 -3.87309,0.59698 -6.20276,0.59698c-4.31961,0 -7.80927,-1.40266 -10.46898,-4.20797c-2.65001,-2.80532 -3.975,-6.92108 -3.975,-12.34728c0,-4.62052 1.29589,-8.37712 3.88765,-11.26981c2.60147,-2.89268 6.19791,-4.33902 10.78932,-4.33902c2.087,0 3.97016,0.20385 5.64946,0.61154c1.68901,0.39798 2.84414,0.94158 3.46539,1.63077c0.03883,0.23297 0.05824,0.67949 0.05824,1.33956c0,0.65037 -0.22811,1.58224 -0.68434,2.79561c-0.44652,1.20367 -0.95128,2.10642 -1.51429,2.70825c-0.56301,0.59213 -0.97555,0.88819 -1.23764,0.88819c-0.25238,0 -0.51932,-0.11163 -0.80082,-0.33489c-0.2815,-0.22326 -0.83965,-0.46108 -1.67445,-0.71346c-0.8348,-0.25238 -1.64048,-0.37857 -2.41704,-0.37857c-1.84433,0 -3.34405,0.59698 -4.49918,1.79094c-1.14543,1.18425 -1.71814,3.03343 -1.71814,5.54754c0,2.5044 0.58727,4.40697 1.76182,5.70771c1.18425,1.29103 2.54323,1.93655 4.07693,1.93655c1.5337,0 2.30055,-0.38828 2.30055,-1.16484zM166.58982,195.73985c-2.59176,0 -3.98957,-0.4174 -4.19342,-1.2522l-1.48517,-5.76595h-7.10551l-1.29588,5.54754c-0.18444,0.92216 -1.61621,1.38325 -4.29533,1.38325c-1.43664,0 -2.49955,-0.08251 -3.18874,-0.24752c-0.67949,-0.16502 -1.01923,-0.29121 -1.01923,-0.37857l7.9209,-30.28578c0,-0.23297 2.04332,-0.34945 6.12996,-0.34945c4.08664,0 6.12996,0.11648 6.12996,0.34945l7.73162,30.32947c0,0.21356 -0.68919,0.37857 -2.06759,0.49506c-1.36868,0.11648 -2.45587,0.17473 -3.26155,0.17473zM154.92688,183.04312h4.68847l-2.00935,-9.26046h-0.26209zM206.18213,195.69617c-2.65001,0 -3.975,-0.29606 -3.975,-0.88818l-0.94643,-17.9385l-5.46017,18.15691c-0.11648,0.35916 -1.13086,0.53874 -3.04313,0.53874c-1.90257,0 -2.88297,-0.16502 -2.94122,-0.49506l-5.6349,-18.38987l-0.6261,17.85114c-0.03883,0.44652 -0.61154,0.75229 -1.71814,0.91731c-1.09689,0.16502 -2.00935,0.24753 -2.73737,0.24753c-0.72802,0 -1.43664,-0.04368 -2.12583,-0.13104c-1.42693,-0.21356 -2.12583,-0.58727 -2.09671,-1.12115l1.01923,-29.07726c0,-0.70861 1.82006,-1.06291 5.46018,-1.06291c1.07748,0 2.38792,0.08251 3.93133,0.24753c1.55312,0.15531 2.42189,0.47079 2.60633,0.94644l5.0088,14.09454l4.38271,-14.13821c0.26209,-0.76685 2.31997,-1.15027 6.17364,-1.15027c1.09689,0 2.41218,0.08251 3.94589,0.24753c1.54341,0.15531 2.31512,0.44167 2.31512,0.85907l1.29589,29.35391c0,0.32033 -0.58242,0.55815 -1.74726,0.71347c-1.16484,0.1456 -2.19378,0.21841 -3.08682,0.21841zM229.97844,176.78211c0.56301,0 0.84451,1.0435 0.84451,3.13051c0,0.62125 -0.06795,1.35897 -0.20385,2.21319c-0.12619,0.84451 -0.36886,1.26677 -0.72802,1.26677h-5.67858v4.47007h8.22667c0.50477,0 0.84936,0.66007 1.0338,1.98022c0.08736,0.56301 0.13105,1.16484 0.13105,1.8055c0,0.64066 -0.09222,1.47061 -0.27664,2.48985c-0.17473,1.00952 -0.47079,1.51429 -0.88818,1.51429h-15.30305c-1.12601,0 -1.68901,-0.46108 -1.68901,-1.38324v-28.77149c0,-0.76685 0.33974,-1.15027 1.01923,-1.15027h16.01652c0.63095,0 0.94644,1.32015 0.94644,3.96045c0,2.6306 -0.31548,3.94589 -0.94643,3.94589h-8.27035v4.52831zM259.20185,196.10386c-4.18371,0 -7.59571,-1.37354 -10.23601,-4.12061c-2.6403,-2.74708 -3.96045,-6.7512 -3.96045,-12.01239c0,-5.26118 1.33471,-9.2459 4.00413,-11.95414c2.66942,-2.71796 6.11054,-4.07693 10.32338,-4.07693c4.22254,0 7.62969,1.33471 10.22145,4.00413c2.60147,2.66942 3.90221,6.71238 3.90221,12.12888c0,5.40679 -1.32985,9.43033 -3.98957,12.07064c-2.65001,2.6403 -6.07171,3.96045 -10.26513,3.96045zM259.23097,172.53045c-1.42693,0 -2.62574,0.65523 -3.59643,1.96567c-0.9707,1.31044 -1.45605,3.15477 -1.45605,5.53298c0,2.36851 0.46108,4.18856 1.38325,5.46018c0.92216,1.26191 2.13554,1.89286 3.64012,1.89286c1.51429,0 2.73737,-0.64066 3.66924,-1.92198c0.94158,-1.29103 1.41237,-3.12565 1.41237,-5.50386c0,-2.38792 -0.48535,-4.22254 -1.45605,-5.50386c-0.96099,-1.28132 -2.15981,-1.92198 -3.59643,-1.92198zM275.29285,164.92989c0,-0.15531 0.64552,-0.29606 1.93655,-0.42225c1.30073,-0.13589 2.36851,-0.20385 3.2033,-0.20385c3.31008,0 5.03792,0.43196 5.18353,1.29589l3.85853,19.6712l3.611,-19.67119c0.18444,-0.86392 2.03361,-1.29588 5.54754,-1.29588c0.86392,0 1.9511,0.05824 3.26155,0.17473c1.32015,0.11648 1.98022,0.24753 1.98022,0.39314l-7.9209,29.616c-0.11648,0.47565 -0.99497,0.79112 -2.63544,0.94644c-2.53352,0.26209 -4.83893,0.31062 -6.91622,0.1456c-2.06759,-0.16502 -3.16447,-0.45623 -3.29067,-0.87363zM321.13789,176.78211c0.56301,0 0.84451,1.0435 0.84451,3.13051c0,0.62125 -0.06795,1.35897 -0.20385,2.21319c-0.12619,0.84451 -0.36886,1.26677 -0.72802,1.26677h-5.67858v4.47007h8.22667c0.50477,0 0.84936,0.66007 1.0338,1.98022c0.08736,0.56301 0.13105,1.16484 0.13105,1.8055c0,0.64066 -0.09222,1.47061 -0.27664,2.48985c-0.17473,1.00952 -0.47079,1.51429 -0.88818,1.51429h-15.30305c-1.12601,0 -1.68901,-0.46108 -1.68901,-1.38324v-28.77149c0,-0.76685 0.33974,-1.15027 1.01923,-1.15027h16.01652c0.63095,0 0.94644,1.32015 0.94644,3.96045c0,2.6306 -0.31548,3.94589 -0.94643,3.94589h-8.27035v4.52831zM337.19082,195.02639c0,0.47565 -1.41236,0.71347 -4.23709,0.71347c-2.86356,0 -4.29533,-0.22326 -4.29533,-0.66978v-29.16462c0,-1.03864 0.54844,-1.55797 1.64534,-1.55797h8.547c7.84324,0 11.76486,3.05284 11.76486,9.15854c0,1.85403 -0.35916,3.53334 -1.07748,5.03792c-0.71831,1.50458 -1.73269,2.70339 -3.04313,3.59644l5.63491,9.39151c-0.23297,0.71831 -1.00467,1.53856 -2.31511,2.46072c-1.79579,1.28132 -3.2761,1.92198 -4.44094,1.92198c-1.15513,0 -2.01906,-0.4174 -2.59176,-1.2522l-4.19342,-9.78464h-1.39781zM337.19082,172.25381v6.71238h0.23297c2.83444,0 4.25166,-1.17939 4.25166,-3.53819c0,-1.06776 -0.27664,-1.86374 -0.82994,-2.38792c-0.5533,-0.52418 -1.45605,-0.78627 -2.70825,-0.78627zM362.19817,186.26098c0,0.17473 -1.06776,0.26209 -3.2033,0.26209c-2.12583,0 -3.18874,-0.0728 -3.18874,-0.2184l-0.90275,-22.05911c0,-0.23297 1.36383,-0.34945 4.0915,-0.34945c2.73737,0 4.10605,0.10193 4.10605,0.30577zM354.81601,188.94011c0,-0.20385 1.37839,-0.30577 4.13517,-0.30577c2.76649,0 4.14974,0.08736 4.14974,0.26209v6.43573c0,0.30092 -1.38324,0.45138 -4.14973,0.45138c-2.75678,0 -4.13517,-0.08736 -4.13517,-0.26209z" data-paper-data="{&quot;origPos&quot;:null}" fill="#1f679f" fill-rule="nonzero" stroke-width="1" stroke-linecap="square"/></g></g></svg>