<svg xmlns="http://www.w3.org/2000/svg" viewBox="-0.87025 1.21605 228.824 171.715" width="228.824" height="171.715" xmlns:xlink="http://www.w3.org/1999/xlink" version="1.1">
  <defs>
    <linearGradient id="grad_1" x2="0" y2="1">
      <stop stop-color="rgb(132, 239, 255)" stop-opacity="1" offset="0" />
      <stop stop-color="rgb(120, 75, 255)" stop-opacity="1" offset="1" />
    </linearGradient>
    <linearGradient id="grad_2" x2="0" y2="1">
      <stop stop-color="rgb(255, 224, 222)" stop-opacity="1" offset="0" />
      <stop stop-color="rgb(255, 94, 56)" stop-opacity="1" offset="1" />
    </linearGradient>
  <linearGradient id="grad_1-.42035,0,0,1.42035,-275.85,-190.75" gradientUnits="userSpaceOnUse" x1="138.685" y1="6.1815" x2="138.685" y2="154.821">
      <stop stop-color="rgb(132, 239, 255)" stop-opacity="1" offset="0" />
      <stop stop-color="rgb(120, 75, 255)" stop-opacity="1" offset="1" />
    </linearGradient><linearGradient id="grad_2-.42035,0,0,1.42035,-275.85,-190.75" gradientUnits="userSpaceOnUse" x1="4.6691" y1="23.7939" x2="4.6691" y2="171.51">
      <stop stop-color="rgb(255, 224, 222)" stop-opacity="1" offset="0" />
      <stop stop-color="rgb(255, 94, 56)" stop-opacity="1" offset="1" />
    </linearGradient></defs>
  <!-- Exported by Scratch - http://scratch.mit.edu/ -->
  <path id="ID0.5517300674691796" fill="#0099ff" stroke="#ffffff" stroke-width="2.8407" d="M 159.7 14.8514 L 159.416 13.3601 L 159.416 13.289 L 155.368 14.2833 L 153.309 14.9935 C 151.32 15.7036 149.403 16.651 147.556 17.8342 C 146.609 18.4492 145.71 19.1125 144.858 19.8226 C 142.585 21.6222 140.55 23.7528 138.75 26.2142 L 138.466 26.6403 L 140.597 23.2315 C 142.396 20.77 144.432 18.6395 146.704 16.8399 L 149.403 14.8514 C 151.249 13.6683 153.167 12.7209 155.155 12.0107 C 155.818 11.7266 156.505 11.4894 157.215 11.3005 L 161.263 10.3063 L 161.263 10.3773 L 179.088 120.028 C 179.703 123.721 179.68 127.39 179.017 131.036 L 178.591 132.74 C 177.692 136.433 176.081 139.96 173.762 143.322 C 175.135 140.861 176.13 138.327 176.745 135.723 L 177.171 134.019 C 177.834 130.373 177.857 126.704 177.242 123.011 L 159.7 14.8514 M 185.551 18.8994 C 186.166 17.7631 186.853 16.651 187.61 15.5616 C 190.072 12.1528 193.008 9.3589 196.416 7.1815 C 199.541 5.193 202.926 3.7968 206.572 2.9915 L 208.276 2.6364 L 208.276 2.7074 L 226.102 112.358 C 226.812 116.619 226.646 120.856 225.605 125.071 C 224.706 128.764 223.119 132.268 220.846 135.581 C 222.172 133.167 223.143 130.657 223.758 128.053 C 224.799 123.839 224.965 119.602 224.255 115.341 L 206.714 7.1815 L 206.43 5.6902 L 206.43 5.6191 L 204.725 5.9742 C 201.079 6.7796 197.695 8.1758 194.57 10.1643 C 191.161 12.3417 188.225 15.1355 185.764 18.5443 L 185.551 18.8994" />
  <path id="ID0.06808227999135852" fill="#ffffff" stroke="#ffffff" stroke-width="2.8407" d="M 185.551 17.8994 L 185.764 17.5443 C 188.225 14.1355 191.161 11.3417 194.57 9.1643 C 197.695 7.1758 201.079 5.7796 204.725 4.9742 L 206.43 4.6191 L 206.43 4.6902 L 206.714 6.1815 C 204.536 6.9386 202.477 7.9328 200.535 9.1643 C 197.126 11.3417 194.191 14.1355 191.729 17.5443 L 191.516 17.8994 C 189.197 21.1662 187.586 24.7412 186.687 28.6231 C 186.072 31.0377 185.74 33.4764 185.693 35.9379 C 185.693 37.6423 185.835 39.3708 186.119 41.1221 L 203.376 147.151 L 199.825 147.861 L 182.213 39.4887 L 182 38.1394 C 181.29 33.9252 181.479 29.7593 182.568 25.6403 C 183.231 22.8948 184.225 20.314 185.551 17.8994 M 159.7 13.8514 L 159.274 13.9935 C 157.286 14.7036 155.368 15.651 153.522 16.8342 C 152.574 17.4492 151.675 18.1125 150.823 18.8226 C 148.551 20.6222 146.515 22.7528 144.716 25.2142 L 144.432 25.6403 C 143.153 27.4868 142.088 29.4511 141.236 31.5348 L 140.526 33.3102 L 139.673 36.2219 C 138.584 40.3878 138.395 44.5778 139.105 48.792 L 156.363 154.821 L 155.013 155.105 L 152.812 155.531 L 136.478 55.1126 L 134.986 45.8093 C 134.276 41.5951 134.465 37.4051 135.554 33.2392 L 136.407 30.3275 L 138.466 25.6403 L 138.75 25.2142 C 140.55 22.7528 142.585 20.6222 144.858 18.8226 C 145.71 18.1125 146.609 17.4492 147.556 16.8342 C 149.403 15.651 151.32 14.7036 153.309 13.9935 L 155.368 13.2833 L 159.416 12.289 L 159.416 12.3601 L 159.7 13.8514" />
  <path id="ID0.27798993652686477" fill="url(#grad_1-.42035,0,0,1.42035,-275.85,-190.75)" stroke="#ffffff" stroke-width="2.8407" d="M 206.714 6.1815 L 224.255 114.341 C 224.965 118.602 224.799 122.839 223.758 127.053 C 223.143 129.657 222.172 132.167 220.846 134.581 L 220.42 135.149 C 218.053 138.463 215.118 141.21 211.614 143.387 C 209.011 145.045 206.264 146.299 203.376 147.151 L 186.119 41.1221 C 185.835 39.3708 185.693 37.6423 185.693 35.9379 C 185.74 33.4764 186.072 31.0377 186.687 28.6231 C 187.586 24.7412 189.197 21.1662 191.516 17.8994 L 191.729 17.5443 C 194.191 14.1355 197.126 11.3417 200.535 9.1643 C 202.477 7.9328 204.536 6.9386 206.714 6.1815 M 156.363 154.821 L 139.105 48.792 C 138.395 44.5778 138.584 40.3878 139.673 36.2219 L 140.526 33.3102 L 141.236 31.5348 C 142.088 29.4511 143.153 27.4868 144.432 25.6403 L 144.716 25.2142 C 146.515 22.7528 148.551 20.6222 150.823 18.8226 C 151.675 18.1125 152.574 17.4492 153.522 16.8342 C 155.368 15.651 157.286 14.7036 159.274 13.9935 L 159.7 13.8514 L 177.242 122.011 C 177.857 125.704 177.834 129.373 177.171 133.019 L 176.745 134.723 C 176.13 137.327 175.135 139.861 173.762 142.322 L 173.407 142.819 C 171.039 146.086 168.105 148.831 164.6 151.057 C 161.997 152.715 159.25 153.969 156.363 154.821" />
  <path id="ID0.4293943690136075" fill="#ffffff" stroke="none" stroke-width="1.42035" d="M 52.6059 171.51 L 44.723 123.005 L 47.3506 124.923 L 54.8785 171.226 L 52.6059 171.51 M 137.472 150.773 L 61.9092 96.3738 L 63.9687 93.5331 L 139.673 148.074 L 137.472 150.773 M 109.704 29.5463 C 106.248 27.0848 102.484 25.3804 98.4122 24.433 L 94.3642 23.7939 L 86.1972 24.0779 C 82.4091 24.6929 78.8583 25.9713 75.5446 27.9129 L 74.9054 28.268 C 71.2125 30.4937 68.1119 33.3571 65.6021 36.8611 L 42.0243 69.6712 L 37.1951 76.4178 L 35.2066 64.5579 C 34.5433 60.3437 33.052 56.415 30.7325 52.769 L 29.0281 50.3544 L 26.4715 47.4427 L 22.2815 43.9628 C 18.9678 41.4531 15.2976 39.7018 11.2738 38.7075 L 6.8707 37.9974 C 4.8822 37.8085 2.9178 37.8085 0.9762 37.9974 L 0.5501 35.2987 L 13.1202 35.7248 C 17.1441 36.7191 20.8142 38.4703 24.1279 40.9801 L 26.1164 42.5425 L 28.318 44.46 L 30.8746 47.3717 L 32.579 49.7863 C 34.8984 53.4323 36.3898 57.361 37.0531 61.5752 L 39.0416 73.4351 L 47.9188 61.0781 L 66.3123 35.5118 L 67.4486 33.8784 C 69.9584 30.3743 73.059 27.5109 76.7519 25.2852 L 77.391 24.9301 C 80.7047 22.9885 84.2556 21.7102 88.0437 21.0952 L 100.259 21.4503 C 104.425 22.3977 108.259 24.149 111.763 26.7056 L 111.55 26.9897 L 111.55 27.0607 L 109.704 29.5463" />
  <path id="ID0.6380135635845363" fill="#ffffff" stroke="none" stroke-width="1.42035" d="M 6.8707 37.9974 L 4.6691 38.2814 L 22.5655 148.003 C 22.8027 149.661 23.1805 151.294 23.7018 152.904 L 23.9859 153.685 C 24.7429 155.815 25.7372 157.875 26.9686 159.863 L 28.673 162.278 L 33.0051 166.894 L 31.1587 165.687 L 28.8861 163.911 L 24.554 159.295 L 22.8496 156.881 C 21.6182 154.892 20.6239 152.833 19.8669 150.702 C 19.2036 148.856 18.7306 146.962 18.4465 145.021 L 15.3217 125.633 L 9.4273 89.7691 L 5.5924 66.3333 L 0.9762 37.9974 C 2.9178 37.8085 4.8822 37.8085 6.8707 37.9974 M 94.3642 23.7939 L 92.1627 24.0779 C 88.3746 24.6929 84.8237 25.9713 81.5101 27.9129 L 80.8709 28.268 C 77.178 30.4937 74.0774 33.3571 71.5676 36.8611 L 43.1606 76.4178 L 42.0243 69.6712 L 65.6021 36.8611 C 68.1119 33.3571 71.2125 30.4937 74.9054 28.268 L 75.5446 27.9129 C 78.8583 25.9713 82.4091 24.6929 86.1972 24.0779 L 94.3642 23.7939" />
  <path id="ID0.12415010528638959" fill="url(#grad_2-.42035,0,0,1.42035,-275.85,-190.75)" stroke="#ffffff" stroke-width="2.8407" d="M 33.0051 166.894 L 28.673 162.278 L 26.9686 159.863 C 25.7372 157.875 24.7429 155.815 23.9859 153.685 L 23.7018 152.904 C 23.1805 151.294 22.8027 149.661 22.5655 148.003 L 4.6691 38.2814 L 6.8707 37.9974 L 11.2738 38.7075 C 15.2976 39.7018 18.9678 41.4531 22.2815 43.9628 L 26.4715 47.4427 L 29.0281 50.3544 L 30.7325 52.769 C 33.052 56.415 34.5433 60.3437 35.2066 64.5579 L 37.1951 76.4178 L 42.0243 69.6712 L 43.1606 76.4178 L 71.5676 36.8611 C 74.0774 33.3571 77.178 30.4937 80.8709 28.268 L 81.5101 27.9129 C 84.8237 25.9713 88.3746 24.6929 92.1627 24.0779 L 94.3642 23.7939 L 98.4122 24.433 C 102.484 25.3804 106.248 27.0848 109.704 29.5463 L 63.7557 93.391 L 63.9687 93.5331 L 61.9092 96.3738 L 137.472 150.773 C 135.341 153.046 132.951 155.01 130.299 156.668 C 126.748 158.798 122.913 160.194 118.794 160.858 C 115.623 161.379 112.521 161.426 109.491 161 L 106.721 160.503 C 102.791 159.555 99.1693 157.922 95.8556 155.602 L 46.5694 120.023 L 47.3506 124.923 L 44.723 123.005 L 52.6059 171.51 L 42.3084 170.729 C 38.9947 169.972 35.941 168.716 33.1471 166.965 L 33.0051 166.894" />
</svg>