<svg xmlns="http://www.w3.org/2000/svg" xmlns:xlink="http://www.w3.org/1999/xlink" version="1.1" width="16.136762393507382" height="20.13005997041168" viewBox="-0.14486176420898278 -0.2862872545883163 16.136762393507382 20.13005997041168">
  <!-- Exported by Scratch - http://scratch.mit.edu/ -->
  <g id="g5679">
    <g id="g5681">
      <path id="path5683" fill="#c16c29" stroke="none" stroke-width="1.621362460646054" stroke-linecap="round" stroke-linejoin="round" opacity="1" d="M 7.995 0.5254 C 7.3321 0.5237 6.9761 0.8821 6.8538 1.1929 L 0.7243 17.8249 C 0.5736 18.2095 0.7361 18.6459 1.1016 18.8382 C 1.4672 19.0306 1.9189 18.9174 2.1505 18.5754 C 6.7432 16.1125 8.9707 15.9709 13.6916 18.4921 C 13.9331 18.8179 14.3781 18.9151 14.7335 18.7197 C 15.0888 18.5244 15.2452 18.0965 15.0995 17.718 L 9.189 1.3076 C 9.0685 0.9956 8.5863 0.5268 7.995 0.5254 Z "/>
      <path id="path5685" fill="#fbb11c" stroke="none" stroke-width="1.621362460646054" stroke-linecap="round" stroke-linejoin="round" opacity="1" d="M 8.0089 0.5244 C 7.3448 0.5227 6.988 0.8812 6.8656 1.192 L 0.7245 17.8239 C 0.5734 18.2085 0.7363 18.6449 1.1025 18.8373 C 1.4687 19.0296 1.9213 18.9164 2.1533 18.5744 C 4.1166 15.6753 5.9972 14.3513 7.7548 14.3127 C 9.5124 14.274 11.5071 15.5122 13.7163 18.4911 C 13.9582 18.8169 14.4041 18.9141 14.7601 18.7188 C 15.1162 18.5234 15.2728 18.0955 15.1269 17.7171 L 9.2051 1.3066 C 9.0845 0.9947 8.6013 0.5258 8.0089 0.5244 Z "/>
      <path id="path5687" fill="#f7971e" stroke="none" stroke-width="1.621362460646054" stroke-linecap="round" stroke-linejoin="round" opacity="1" d="M 7.8903 0.6294 C 7.4858 0.6461 7.0709 0.8654 6.8946 1.2405 C 5.2387 5.6609 3.6144 10.0932 1.9767 14.5205 C 1.5448 15.7046 1.0949 16.8825 0.6777 18.0718 C 0.6243 18.3793 0.7534 18.7106 1.0149 18.8867 C 1.2704 19.0843 1.6474 19.0706 1.9188 18.913 C 2.1605 18.7311 2.3006 18.4499 2.4842 18.2156 C 3.2206 17.1841 4.0654 16.2145 5.079 15.4452 C 5.7349 14.9716 6.4779 14.5801 7.2876 14.4664 C 7.5408 14.4308 7.7967 14.4303 8.0521 14.4209 C 8.0861 14.279 8.0561 14.1111 8.0663 13.9596 C 8.0663 9.5171 8.0663 5.0746 8.0663 0.6322 C 8.0243 0.5974 7.9431 0.6368 7.8903 0.6294 Z "/>
    </g>
  </g>
</svg>