<svg xmlns="http://www.w3.org/2000/svg" xmlns:xlink="http://www.w3.org/1999/xlink" version="1.1" width="236.77908325195312" height="237.709228515625" viewBox="0.32333946228027344 -0.5046642697416246 236.77908325195312 237.709228515625">
  <!-- Exported by Scratch - http://scratch.mit.edu/ -->
  <g id="ID0.4265863080509007">
    <g id="g3037">
      <path id="path3013" fill="#FFFFEC" d="M 98.211 234.99 C 58.966 227.909 24.599 200.556 9.621 164.482 C 3.53 149.814 1.58 140.523 0.989 123.374 C 0.368 105.313 1.382 96.954 5.931 82.652 C 11.87 63.978 22.396 47.049 36.496 33.489 C 56.417 14.331 79.769 3.605 108.163 0.572 C 141.268 -2.965 177.62 9.971 201.583 33.816 C 217.668 49.821 226.506 64.778 233.396 87.652 C 235.57 94.869 236.031 98.716 236.452 113.152 C 237.018 132.571 236.111 140.248 231.578 154.433 C 221.976 184.475 201.121 209.048 173.026 223.421 C 150.028 235.187 122.711 239.411 98.211 234.99 Z M 139.654 196.562 C 163.197 190.615 184.8 171.622 194.126 148.67 C 199.998 134.22 201.373 115.158 197.664 99.652 C 192.203 76.823 175.366 55.903 154.211 45.661 C 143.22 40.34 136.165 38.618 122.653 37.957 C 95.97 36.654 74.088 46.286 56.569 67.046 C 31.877 96.306 31.601 139.562 55.918 169.152 C 76.508 194.206 108.075 204.539 139.654 196.562 Z M 100.062 185.135 C 88.043 181.58 79.426 176.416 70.103 167.182 C 60.598 157.768 54.88 148.17 51.654 136.213 C 48.807 125.665 49.212 106.527 52.48 97.152 C 55.994 87.071 61.816 77.752 69.386 70.09 C 84.08 55.217 103.521 47.565 123.102 48.947 C 151.867 50.977 177.018 71.152 185.69 99.152 C 188.488 108.189 188.762 125.964 186.25 135.565 C 182.664 149.27 173.084 163.998 162.265 172.437 C 154.656 178.372 142.773 184.25 134.646 186.098 C 124.276 188.457 109.944 188.058 100.062 185.135 Z M 129.756 147.727 C 137.486 144.789 143.119 139.601 146.887 131.946 C 152.971 119.588 150.788 106.415 141.007 96.457 C 134.642 89.977 128.187 87.331 118.711 87.318 C 106.515 87.301 96.071 93.635 90.76 104.269 C 87.56 110.676 86.838 121.507 89.148 128.46 C 94.601 144.879 113.568 153.878 129.756 147.727 Z M 111.741 137.539 C 103.525 134.26 98.711 127.013 98.711 117.924 C 98.711 109.289 103.66 102.491 112.453 99.047 C 117.814 96.948 123.259 97.61 129.185 101.083 C 146.612 111.296 139.129 138.855 119.001 138.588 C 116.367 138.553 113.1 138.081 111.741 137.539 Z " stroke-width="1"/>
      <path id="path3011" fill="#FFFFEC" d="M 98.211 234.13 C 81.97 231.101 64.017 223.594 50.711 214.267 C 35.176 203.377 17.814 182.058 10.842 165.311 C -4.952 127.371 -1.087 85.99 21.379 52.505 C 46.096 15.665 91.898 -4.509 135.795 2.108 C 180.912 8.909 217.424 40.198 231.225 83.885 C 252.417 150.97 208.789 221.835 138.711 234.155 C 128.455 235.958 107.946 235.945 98.211 234.13 Z M 139.59 197.524 C 166.469 190.762 189.915 167.816 197.728 140.624 C 200.973 129.333 201.46 112.661 198.884 101.048 C 190.141 61.638 154.203 34.525 113.923 36.95 C 62.592 40.04 26.832 89.198 39.666 139.03 C 45.909 163.267 64.439 184.442 87.711 193.932 C 104.379 200.728 122.003 201.949 139.59 197.524 Z M 102.211 185.041 C 91.217 182.395 80.121 176.002 71.164 167.152 C 62.102 158.197 56.84 149.733 52.93 137.818 C 49.751 128.131 49.34 111.831 52.017 101.652 C 59.865 71.82 88.247 49.652 118.593 49.652 C 144.206 49.652 168.577 64.773 180 87.753 C 189.88 107.628 190.204 127.31 180.978 147.052 C 172.375 165.462 156.123 179.249 136.732 184.591 C 127.766 187.061 111.486 187.273 102.211 185.041 Z M 133.045 147.277 C 152.806 137.609 157.093 111.268 141.45 95.626 C 135.216 89.391 130.54 87.379 121.079 86.86 C 110.551 86.282 104.526 88.215 97.686 94.365 C 88.142 102.945 84.501 115.547 88.047 127.727 C 93.512 146.497 115.295 155.961 133.045 147.277 Z M 108.975 135.15 C 104.53 132.427 100.369 126.366 99.248 120.985 C 97.753 113.803 103.43 104.047 111.141 100.544 C 117.13 97.824 122.305 98.15 128.373 101.631 C 138.065 107.189 141.302 119.106 135.618 128.303 C 131.832 134.429 127.273 137.061 119.822 137.424 C 114.129 137.701 112.623 137.386 108.975 135.15 Z " stroke-width="1"/>
      <path id="path3009" fill="#FFFFEC" d="M 101.621 234.206 C 64.8 228.912 30.422 203.934 13.463 170.152 C 3.384 150.073 -0.657 122.519 3.125 99.652 C 10.069 57.664 40.477 21.463 80.211 7.883 C 95.559 2.637 98.341 2.227 118.711 2.206 C 136.003 2.188 139.174 2.448 146.711 4.496 C 189.725 16.188 220.61 46.683 232.355 89.062 C 235.491 100.377 236.645 122.829 234.756 135.785 C 228.523 178.534 196.873 216.064 155.699 229.527 C 139.328 234.88 118.714 236.664 101.621 234.206 Z M 133.873 199.217 C 160.388 194.033 181.907 177.347 193.282 153.152 C 198.906 141.189 200.87 131.955 200.832 117.652 C 200.766 92.603 190.626 71.452 170.706 54.807 C 144.885 33.231 105.425 30.139 77.211 47.481 C 51.879 63.052 36.711 89.395 36.711 117.822 C 36.711 138.482 42.338 154.49 55.048 169.997 C 71.151 189.643 93.037 200.288 117.873 200.558 C 122.638 200.609 129.838 200.006 133.873 199.217 Z M 106.787 185.564 C 79.924 180.294 57.981 159.23 52.177 133.143 C 49.886 122.842 50.574 106.839 53.705 97.652 C 60.976 76.313 79.516 58.584 100.691 52.722 C 109.874 50.18 126.346 49.909 135.251 52.154 C 158.091 57.91 177.79 77.076 184.43 100.002 C 187.25 109.737 187.531 124.726 185.08 134.588 C 182.925 143.257 177.068 154.779 171.186 161.921 C 156.112 180.224 129.453 190.012 106.787 185.564 Z M 132.904 147.835 C 139.429 144.628 145.43 138.485 148.559 131.807 C 152.083 124.289 152.295 112.577 149.036 105.476 C 146.002 98.867 139.445 92.16 132.853 88.922 C 128.028 86.552 125.982 86.152 118.711 86.157 C 111.454 86.162 109.384 86.568 104.551 88.937 C 91.436 95.365 83.88 110.453 86.765 124.453 C 88.252 131.667 89.861 134.774 94.994 140.343 C 102.218 148.179 108.359 150.67 119.711 150.368 C 126.239 150.194 129.301 149.606 132.904 147.835 Z M 112.741 136.539 C 97.394 130.414 95.248 110.8 108.993 102.286 C 121.921 94.279 137.711 103.415 137.711 118.902 C 137.711 123.04 137.09 125.21 134.967 128.484 C 130.32 135.651 119.941 139.413 112.741 136.539 Z " stroke-width="1"/>
      <path id="path3007" fill="#FFFFEC" d="M 95.246 232.683 C 54.926 223.92 21.756 194.994 8.671 157.187 C -1.568 127.604 0.013 96.805 13.202 68.918 C 31.772 29.654 69.442 4.322 112.711 2.001 C 194.09 -2.363 254.662 75.976 230.101 153.823 C 220.041 185.706 195.635 212.504 164.711 225.62 C 149.352 232.134 140.946 233.82 121.711 234.245 C 107.083 234.568 102.74 234.312 95.246 232.683 Z M 136.603 199 C 175.408 190.874 203.474 154.318 201.362 114.652 C 200.381 96.23 194.771 81.374 183.391 67.061 C 159.413 36.903 117.669 27.275 83.254 43.966 C 35.486 67.133 21.07 128.416 53.815 169.12 C 74.38 194.684 104.794 205.661 136.603 199 Z M 99.711 183.307 C 88.671 180.013 79.438 174.378 70.603 165.543 C 42.118 137.059 44.951 91.062 76.762 65.533 C 110.633 38.349 160.905 49.867 179.856 89.152 C 189.216 108.553 188.898 129.763 178.95 149.609 C 173.471 160.538 161.089 172.734 149.711 178.408 C 138.208 184.145 131.569 185.663 118.251 185.598 C 109.84 185.557 105.426 185.012 99.711 183.307 Z M 133.249 148.177 C 139.152 145.289 145.436 138.986 148.878 132.501 C 150.818 128.845 151.188 126.636 151.199 118.652 C 151.214 107.234 149.051 101.833 141.52 94.478 C 134.791 87.906 127.673 85.372 117.211 85.826 C 107.718 86.237 102.254 88.547 95.779 94.889 C 73.922 116.298 90.514 153.182 121.107 151.192 C 125.761 150.889 129.709 149.909 133.249 148.177 Z M 109.026 134.181 C 103.41 130.739 99.204 122.473 100.01 116.463 C 100.719 111.174 105.183 104.815 110.253 101.869 C 116.032 98.511 124.254 99.128 129.446 103.309 C 137.381 109.7 139.62 118.077 135.609 126.363 C 132.336 133.125 127.766 136.037 119.822 136.424 C 114.147 136.701 112.619 136.383 109.026 134.181 Z " stroke-width="1"/>
      <path id="path3005" fill="#FFFFEC" d="M 105.211 233.978 C 79.363 230.752 55.064 218.892 36.643 200.511 C 18.906 182.812 7.163 159.761 3.667 135.785 C 1.749 122.626 2.929 100.397 6.17 88.652 C 19.155 41.594 58.988 7.793 107.495 2.673 C 153.703 -2.204 200.176 22.806 221.942 64.265 C 226.526 72.996 232.212 89.763 233.773 99.152 C 235.325 108.487 235.322 127.266 233.765 137.124 C 226.077 185.833 186.53 225.185 137.234 233.18 C 129.025 234.512 112.74 234.917 105.211 233.978 Z M 139.914 198.728 C 161.848 193.116 182.981 175.966 193.361 155.355 C 205.92 130.415 204.248 97.591 189.223 74.102 C 184.502 66.722 170.703 52.901 163.377 48.215 C 149.235 39.168 134.038 35.256 115.711 35.944 C 101.46 36.479 94.634 38.07 83.211 43.52 C 41.53 63.404 24.067 113.529 44.342 155.088 C 53.817 174.509 74.687 192.183 95.25 198.197 C 108.366 202.033 126.171 202.245 139.914 198.728 Z M 101.873 183.619 C 90.344 180.599 81.429 175.311 71.539 165.625 C 64.316 158.551 62.145 155.654 58.798 148.625 C 53.335 137.152 51.711 130.176 51.711 118.171 C 51.711 99.271 58.073 84.222 71.82 70.604 C 78.034 64.448 81.478 61.983 88.907 58.373 C 109.746 48.245 128.038 48.233 148.689 58.331 C 165.773 66.684 179.352 83.216 184.274 101.652 C 186.583 110.304 186.641 126.057 184.394 134.652 C 174.982 170.66 137.441 192.936 101.873 183.619 Z M 133.002 148.753 C 147.286 141.838 155.118 125.595 151.319 110.765 C 149.388 103.231 146.26 98.185 140.224 92.872 C 134.269 87.63 127.236 85.186 118.211 85.222 C 98.136 85.302 83.204 102.875 85.816 123.346 C 87.378 135.582 96.967 146.589 109.711 150.774 C 114.556 152.366 127.938 151.204 133.002 148.753 Z M 110.515 134.668 C 101.278 129.648 97.908 118.111 103.092 109.264 C 106.658 103.18 114.645 99.115 121.123 100.086 C 130.207 101.448 137.059 109.453 137.084 118.73 C 137.098 124.226 134.666 128.763 129.446 132.983 C 124.495 136.985 116.145 137.728 110.515 134.668 Z " stroke-width="1"/>
      <path id="path3003" fill="#FFFFEC" d="M 101.711 233.046 C 53.784 224.365 18.66 192.644 6.604 147.152 C -3.831 107.776 8.24 64.893 37.873 36.069 C 48.724 25.514 56.182 20.255 68.991 14.123 C 138.686 -19.236 220.856 23.776 233.235 100.097 C 241.138 148.826 215.667 199.273 172.211 220.955 C 152.951 230.565 143.824 232.774 121.711 233.179 C 112.086 233.354 103.086 233.295 101.711 233.046 Z M 136.211 200.008 C 160.853 195.347 182.969 177.877 194.325 154.105 C 200.588 140.992 202.123 133.771 202.069 117.652 C 202.03 105.924 201.668 102.97 199.31 95.152 C 186.736 53.461 144.27 27.802 102.26 36.511 C 71.171 42.957 45.716 67.238 37.642 98.152 C 33.035 115.795 35.481 138.463 43.813 155.332 C 51.09 170.065 67.818 186.807 81.965 193.515 C 99.651 201.901 115.915 203.848 136.211 200.008 Z M 101.711 183.078 C 83.602 178.329 67.327 164.737 58.692 147.152 C 45.961 121.223 51.161 91.971 72.202 71.152 C 105.145 38.557 158.516 47.928 179.187 89.936 C 191.468 114.894 185.985 145.536 165.641 165.645 C 157.249 173.939 145.936 180.456 135.251 183.149 C 127.668 185.061 109.124 185.021 101.711 183.078 Z M 133.114 149.243 C 139.579 146.08 146.181 139.592 149.486 133.152 C 151.421 129.382 152.158 126.183 152.479 120.152 C 153.067 109.125 150.459 102.239 142.791 94.572 C 135.13 86.911 128.251 84.304 117.17 84.864 C 103.745 85.544 94.293 91.662 88.503 103.423 C 85.557 109.407 85.212 111.005 85.221 118.631 C 85.233 128.558 87.182 133.846 93.343 140.666 C 103.767 152.204 119.936 155.691 133.114 149.243 Z M 113.367 135.226 C 108.397 133.412 104.906 130.144 102.601 125.152 C 100.178 119.901 100.243 116.251 102.856 110.854 C 105.674 105.033 112.369 100.652 118.447 100.652 C 128.217 100.652 136.711 108.853 136.711 118.286 C 136.711 129.954 124.065 139.131 113.367 135.226 Z " stroke-width="1"/>
      <path id="path3001" fill="#FFFFEC" d="M 101.211 232.116 C 45.705 223.968 3.626 175.041 3.731 118.771 C 3.755 105.784 4.848 97.856 8.212 86.248 C 18.565 50.52 45.97 21.806 81.449 9.513 C 95.11 4.78 105.98 3.353 123.711 3.966 C 143.28 4.643 154.58 7.5 171.45 16.036 C 212.758 36.938 237.786 82.1 233.583 128.152 C 230.938 157.139 219.124 181.608 198.091 201.665 C 172.117 226.432 137.219 237.401 101.211 232.116 Z M 139.711 200.156 C 155.412 196.351 173.343 184.585 184.652 170.665 C 204.853 145.802 208.83 111.317 194.859 82.152 C 185.778 63.194 166.71 45.899 147.264 38.982 C 133.382 34.044 113.969 33.092 99.099 36.62 C 77.468 41.751 58.269 56.088 45.722 76.48 C 41.701 83.015 37.283 95.268 35.687 104.309 C 34.132 113.123 34.922 131.671 37.214 140.152 C 39.946 150.261 47.001 163.537 53.982 171.707 C 68.056 188.177 84.772 197.924 105.371 201.672 C 112.164 202.908 131.959 202.034 139.711 200.156 Z M 104.711 183.162 C 80.97 177.854 60.492 157.982 54.55 134.485 C 52.812 127.612 52.545 124.305 52.991 115.172 C 53.884 96.918 59.301 84.975 72.73 71.652 C 82.147 62.309 90.88 57.206 102.711 54.136 C 111.729 51.795 131.765 52.504 139.921 55.452 C 186.086 72.141 200.108 129.555 166.425 163.973 C 158.266 172.31 148.643 178.341 138.211 181.654 C 129.213 184.512 113.845 185.204 104.711 183.162 Z M 131.071 150.618 C 150.087 143.503 158.788 121.437 149.787 103.154 C 140.5 84.289 117.017 78.065 99.329 89.782 C 89.682 96.171 84.295 106.81 84.354 119.352 C 84.383 125.387 84.905 127.602 87.58 133.037 C 91.43 140.857 98.654 147.72 106.013 150.549 C 113.119 153.281 123.876 153.311 131.071 150.618 Z M 112.711 134.585 C 109.479 133.23 104.915 128.882 103.122 125.451 C 101.156 121.688 101.363 114.776 103.565 110.636 C 110.186 98.189 127.832 98.405 134.39 111.013 C 137.944 117.847 134.85 128.549 128.118 132.71 C 124.008 135.25 116.481 136.166 112.711 134.585 Z " stroke-width="1"/>
      <path id="path2999" fill="#FFFFEC" d="M 100.711 231.584 C 92.588 230.367 79.093 226.231 70.565 222.345 C 49.068 212.548 29.255 193.864 17.871 172.652 C -1.327 136.882 -0.268 92.983 20.61 59.123 C 44.098 21.031 85.701 0.22 129.883 4.462 C 184.315 9.688 226.796 51.854 232.896 106.712 C 235.453 129.707 230.001 155.633 218.503 175.152 C 200.786 205.228 172.204 225.329 138.83 231.182 C 129.902 232.748 109.889 232.959 100.711 231.584 Z M 127.738 202.63 C 150.66 199.865 169.35 189.658 184.543 171.608 C 191.971 162.784 196.763 153.824 200.318 142.114 C 202.719 134.204 203.046 131.45 203.107 118.652 C 203.165 106.509 202.815 102.895 200.953 96.423 C 194.111 72.641 177.131 52.484 155.211 42.121 C 144.132 36.883 135.936 34.734 124.116 33.967 C 113.376 33.269 101.602 34.788 91.741 38.141 C 65.317 47.129 43.851 70.106 36.612 97.152 C 33.337 109.387 33.559 129.024 37.108 140.94 C 40.602 152.675 45.359 161.852 52.636 170.897 C 66.757 188.451 86.777 199.844 108.211 202.524 C 118.116 203.762 118.341 203.763 127.738 202.63 Z M 102.711 182.081 C 80.471 176.26 62.539 158.83 55.459 136.152 C 52.655 127.168 52.498 111.306 55.118 101.652 C 61.536 78.003 81.564 59.202 105.864 54.017 C 115.348 51.993 129.694 52.734 138.711 55.713 C 159.141 62.462 175.404 79.135 181.983 100.078 C 185.066 109.89 185.095 127.174 182.044 136.859 C 178.681 147.535 173.188 156.372 164.645 164.846 C 155.951 173.471 145.249 179.605 134.46 182.149 C 126.589 184.005 109.927 183.969 102.711 182.081 Z M 132.941 150.404 C 140.415 146.983 146.688 141.026 150.276 133.945 C 152.945 128.678 153.211 127.243 153.201 118.152 C 153.191 109.171 152.907 107.613 150.417 102.868 C 146.891 96.151 141.227 90.482 134.496 86.936 C 129.688 84.403 128.265 84.152 118.711 84.152 C 109.282 84.152 107.7 84.422 103.192 86.802 C 96.932 90.107 89.234 98.224 86.471 104.434 C 83.281 111.605 82.946 122.642 85.698 129.934 C 89.756 140.689 98.093 148.782 108.582 152.147 C 115.424 154.342 125.991 153.586 132.941 150.404 Z M 115.705 134.728 C 107.885 132.317 103.545 127.746 102.203 120.504 C 100.845 113.172 107.748 103.594 115.51 102.042 C 125.209 100.102 135.766 108.644 135.69 118.37 C 135.612 128.144 124.323 137.385 115.705 134.728 Z " stroke-width="1"/>
      <path id="path2997" fill="#FFFFEC" d="M 104.211 231.16 C 77.087 227.39 54.196 215.629 35.589 195.905 C -6.144 151.665 -4.933 81.496 38.311 38.252 C 62.947 13.616 95.493 2.037 130.459 5.467 C 156.95 8.066 180.702 19.422 199.72 38.581 C 239.694 78.851 243.728 142.456 209.175 187.652 C 203.156 195.524 189.767 208.012 181.93 213.063 C 165.675 223.539 152.133 228.477 132.275 231.169 C 119.683 232.876 116.547 232.875 104.211 231.16 Z M 129.391 203.168 C 146.765 200.698 159.31 195.367 172.391 184.898 C 186.471 173.628 196.865 157.852 201.871 140.152 C 204.854 129.608 205.101 109.897 202.393 98.652 C 195.12 68.454 168.903 42.284 138.729 35.103 C 127.644 32.465 107.768 32.689 97.211 35.571 C 67.285 43.74 43.215 68.013 35.651 97.652 C 32.664 109.356 32.637 126.757 35.588 138.652 C 42.454 166.324 64.876 190.729 91.627 199.646 C 96.927 201.413 111.639 204.165 117.711 204.526 C 118.536 204.575 123.792 203.964 129.391 203.168 Z M 104.968 181.685 C 82.353 176.403 63.902 159.406 56.594 137.121 C 53.598 127.985 53.368 110.296 56.127 101.152 C 59.388 90.343 64.626 81.717 73.271 72.922 C 80.135 65.937 82.786 64.017 90.785 60.236 C 102.192 54.845 110.779 53.175 123.151 53.942 C 134.2 54.628 142.01 56.985 151.402 62.471 C 164.782 70.285 175.704 83.784 180.677 98.652 C 183.669 107.595 184.387 121.875 182.338 131.652 C 177.475 154.844 158.383 174.903 135.204 181.171 C 125.756 183.726 114.524 183.917 104.968 181.685 Z M 134.211 150.797 C 141.184 147.482 148.176 140.45 151.758 133.152 C 153.84 128.909 154.211 126.712 154.211 118.652 C 154.211 110.477 153.844 108.368 151.576 103.532 C 147.995 95.895 142.957 90.596 135.48 86.602 C 130.101 83.73 128.005 83.198 120.711 82.857 C 113.799 82.534 111.155 82.858 106.559 84.591 C 76.826 95.802 74.619 136.456 102.974 150.625 C 108.453 153.363 109.946 153.652 118.621 153.651 C 127.098 153.65 128.908 153.319 134.211 150.797 Z M 112.951 133.052 C 108.362 130.715 103.929 125.327 103.141 121.13 C 102.202 116.125 105.011 109.288 109.373 105.961 C 114.382 102.14 121.988 101.634 126.62 104.813 C 131.515 108.173 133.86 111.789 134.432 116.861 C 135.723 128.317 122.791 138.065 112.951 133.052 Z " stroke-width="1"/>
    </g>
  </g>
</svg>