<svg version="1.1" xmlns="http://www.w3.org/2000/svg" xmlns:xlink="http://www.w3.org/1999/xlink" width="720" height="540"><defs><clipPath id="clip-1"><path d="M-120,450v-540h720v540z" id="clip-1" fill="none" fill-rule="nonzero" stroke-linecap="butt"/></clipPath></defs><g transform="translate(120,90)"><g clip-path="url(#clip-1)" data-paper-data="{&quot;isPaintingLayer&quot;:true}" stroke="none" stroke-width="1" stroke-linejoin="miter" stroke-miterlimit="10" stroke-dasharray="" stroke-dashoffset="0" style="mix-blend-mode: normal"><path d="M-240,-180h960v720h-960z" fill-opacity="0" fill="#000000" fill-rule="evenodd" stroke-linecap="square"/><g data-paper-data="{&quot;origPos&quot;:null}" fill="#1f679f" fill-rule="nonzero" stroke-linecap="square"><path d="M118.84992,144.20457v16.3405h-1.58193v-7.63995h-9.68925v7.63995h-1.60889v-16.3405h1.60889v7.27144h9.68925v-7.27143zM129.53038,160.66191c-1.13251,0 -2.17215,-0.23369 -3.11889,-0.70108c-0.94077,-0.46738 -1.7497,-1.08756 -2.4268,-1.86055c-0.6771,-0.77897 -1.19841,-1.66581 -1.56395,-2.6605c-0.36551,-1.00068 -0.54827,-2.02234 -0.54827,-3.06496c0,-1.09056 0.19474,-2.13319 0.58423,-3.12788c0.38948,-0.99469 0.92877,-1.87553 1.61788,-2.64252c0.68909,-0.76699 1.50102,-1.37518 2.4358,-1.8246c0.94077,-0.4554 1.95642,-0.6831 3.047,-0.6831c1.13251,0 2.16914,0.24269 3.10991,0.72804c0.94674,0.47937 1.75269,1.11153 2.41782,1.89651c0.67111,0.77897 1.18943,1.66281 1.55496,2.65151c0.36551,0.9887 0.54828,1.99837 0.54828,3.02902c0,1.09056 -0.19474,2.13319 -0.58422,3.12788c-0.38948,0.99469 -0.92578,1.87254 -1.60889,2.63354c-0.6831,0.76099 -1.49204,1.36921 -2.4268,1.8246c-0.93477,0.44941 -1.94744,0.67412 -3.03801,0.67412zM123.48134,152.37481c0,0.89282 0.14381,1.7497 0.43144,2.57062c0.29362,0.82091 0.70707,1.54896 1.24037,2.18413c0.53929,0.63516 1.17746,1.1415 1.91448,1.519c0.73703,0.37751 1.55795,0.56626 2.46275,0.56626c0.92279,0 1.75869,-0.20074 2.50771,-0.6022c0.74901,-0.40147 1.38418,-0.92279 1.90549,-1.56395c0.52731,-0.64715 0.93178,-1.37518 1.21341,-2.18412c0.28162,-0.81493 0.42245,-1.64484 0.42245,-2.48972c0,-0.88683 -0.14981,-1.74071 -0.44941,-2.56163c-0.2996,-0.82091 -0.71906,-1.54597 -1.25835,-2.17513c-0.53329,-0.62918 -1.16847,-1.13251 -1.90549,-1.51001c-0.73703,-0.37751 -1.54896,-0.56625 -2.43579,-0.56625c-0.92279,0 -1.75869,0.19773 -2.5077,0.59322c-0.74901,0.38948 -1.38718,0.90781 -1.91448,1.55496c-0.52131,0.64115 -0.92279,1.36921 -1.20442,2.18413c-0.28162,0.80893 -0.42244,1.63585 -0.42244,2.48073zM140.23133,160.54506v-16.3405h1.60889v14.91138h9.43758v1.42912zM153.64598,160.54506v-16.3405h5.5457c1.30028,0 2.43879,0.21572 3.4155,0.64715c0.97671,0.43144 1.78864,1.01568 2.4358,1.75269c0.65315,0.73703 1.1445,1.5999 1.47406,2.58859c0.32957,0.9887 0.49436,2.04332 0.49436,3.16384c0,1.24037 -0.18576,2.36389 -0.55727,3.37057c-0.36551,1.00068 -0.88983,1.85756 -1.57293,2.57062c-0.6831,0.71306 -1.50402,1.26734 -2.46275,1.66281c-0.95874,0.38948 -2.03433,0.58423 -3.22675,0.58423zM165.40251,152.35683c0,-0.98271 -0.13781,-1.88452 -0.41346,-2.70543c-0.27565,-0.82091 -0.68011,-1.53099 -1.2134,-2.13019c-0.52731,-0.59921 -1.17445,-1.0636 -1.94144,-1.39316c-0.76699,-0.32957 -1.64783,-0.49435 -2.64252,-0.49435h-3.93682v13.48226h3.93682c1.01266,0 1.90549,-0.17077 2.67847,-0.51232c0.77298,-0.34754 1.42014,-0.82391 1.94144,-1.42912c0.52131,-0.6052 0.9168,-1.31826 1.18644,-2.13918c0.26964,-0.82091 0.40448,-1.71374 0.40448,-2.67847zM175.96539,160.54506v-16.3405h5.5457c1.30028,0 2.43879,0.21572 3.4155,0.64715c0.97671,0.43144 1.78864,1.01568 2.4358,1.75269c0.65315,0.73703 1.1445,1.5999 1.47406,2.58859c0.32957,0.9887 0.49436,2.04332 0.49436,3.16384c0,1.24037 -0.18576,2.36389 -0.55727,3.37057c-0.36551,1.00068 -0.88983,1.85756 -1.57293,2.57062c-0.6831,0.71306 -1.50402,1.26734 -2.46275,1.66281c-0.95874,0.38948 -2.03433,0.58423 -3.22675,0.58423zM187.72192,152.35683c0,-0.98271 -0.13781,-1.88452 -0.41346,-2.70543c-0.27565,-0.82091 -0.68011,-1.53099 -1.2134,-2.13019c-0.52731,-0.59921 -1.17445,-1.0636 -1.94144,-1.39316c-0.76699,-0.32957 -1.64783,-0.49435 -2.64252,-0.49435h-3.93682v13.48226h3.93682c1.01266,0 1.90549,-0.17077 2.67847,-0.51232c0.77298,-0.34754 1.42014,-0.82391 1.94144,-1.42912c0.52131,-0.6052 0.9168,-1.31826 1.18644,-2.13918c0.26964,-0.82091 0.40448,-1.71374 0.40448,-2.67847zM198.99668,160.66191c-1.13251,0 -2.17215,-0.23369 -3.11889,-0.70108c-0.94077,-0.46738 -1.7497,-1.08756 -2.4268,-1.86055c-0.6771,-0.77897 -1.19841,-1.66581 -1.56395,-2.6605c-0.36551,-1.00068 -0.54827,-2.02234 -0.54827,-3.06496c0,-1.09056 0.19474,-2.13319 0.58423,-3.12788c0.38948,-0.99469 0.92877,-1.87553 1.61788,-2.64252c0.68909,-0.76699 1.50102,-1.37518 2.4358,-1.8246c0.94077,-0.4554 1.95642,-0.6831 3.047,-0.6831c1.13251,0 2.16914,0.24269 3.10991,0.72804c0.94674,0.47937 1.75269,1.11153 2.41782,1.89651c0.67111,0.77897 1.18943,1.66281 1.55496,2.65151c0.36551,0.9887 0.54828,1.99837 0.54828,3.02902c0,1.09056 -0.19474,2.13319 -0.58422,3.12788c-0.38948,0.99469 -0.92578,1.87254 -1.60889,2.63354c-0.6831,0.76099 -1.49204,1.36921 -2.4268,1.8246c-0.93477,0.44941 -1.94744,0.67412 -3.03801,0.67412zM192.94763,152.37481c0,0.89282 0.14381,1.7497 0.43144,2.57062c0.29362,0.82091 0.70707,1.54896 1.24037,2.18413c0.53929,0.63516 1.17746,1.1415 1.91448,1.519c0.73703,0.37751 1.55795,0.56626 2.46275,0.56626c0.92279,0 1.75869,-0.20074 2.50771,-0.6022c0.74901,-0.40147 1.38418,-0.92279 1.90549,-1.56395c0.52731,-0.64715 0.93178,-1.37518 1.21341,-2.18412c0.28162,-0.81493 0.42245,-1.64484 0.42245,-2.48972c0,-0.88683 -0.14981,-1.74071 -0.44941,-2.56163c-0.2996,-0.82091 -0.71906,-1.54597 -1.25835,-2.17513c-0.53329,-0.62918 -1.16847,-1.13251 -1.90549,-1.51001c-0.73703,-0.37751 -1.54896,-0.56625 -2.43579,-0.56625c-0.92279,0 -1.75869,0.19773 -2.5077,0.59322c-0.74901,0.38948 -1.38718,0.90781 -1.91448,1.55496c-0.52131,0.64115 -0.92279,1.36921 -1.20442,2.18413c-0.28162,0.80893 -0.42244,1.63585 -0.42244,2.48073zM215.2383,144.3214h1.519l2.30096,5.79737l2.32793,-5.79736h1.53697l-2.84925,6.97482l3.12788,7.38828l5.9142,-14.47994h1.75269l-6.92987,16.3405h-1.42912l-3.4245,-8.08036l-3.45146,8.08036h-1.40215l-6.90291,-16.3405h1.72572l5.93219,14.47995l3.10991,-7.38828zM234.77638,147.19763v13.34744h-1.60889v-16.3405h1.24037l10.81279,13.59911v-13.57214h1.60889v16.31353h-1.40215zM271.26944,160.54506v-13.41036l-5.95914,10.37235h-0.94376l-5.95914,-10.37235v13.41036h-1.60889v-16.3405h1.65382l6.37261,11.19028l6.42655,-11.19027h1.62686v16.3405zM283.55736,160.66191c-1.13251,0 -2.17215,-0.23369 -3.11889,-0.70108c-0.94077,-0.46738 -1.7497,-1.08756 -2.4268,-1.86055c-0.6771,-0.77897 -1.19841,-1.66581 -1.56395,-2.6605c-0.36551,-1.00068 -0.54827,-2.02234 -0.54827,-3.06496c0,-1.09056 0.19474,-2.13319 0.58423,-3.12788c0.38948,-0.99469 0.92877,-1.87553 1.61788,-2.64252c0.68909,-0.76699 1.50102,-1.37518 2.4358,-1.8246c0.94077,-0.4554 1.95642,-0.6831 3.047,-0.6831c1.13251,0 2.16914,0.24269 3.10991,0.72804c0.94674,0.47937 1.75269,1.11153 2.41782,1.89651c0.67111,0.77897 1.18943,1.66281 1.55496,2.65151c0.36551,0.9887 0.54828,1.99837 0.54828,3.02902c0,1.09056 -0.19474,2.13319 -0.58422,3.12788c-0.38948,0.99469 -0.92578,1.87254 -1.60889,2.63354c-0.6831,0.76099 -1.49204,1.36921 -2.4268,1.8246c-0.93477,0.44941 -1.94744,0.67412 -3.03801,0.67412zM277.50832,152.37481c0,0.89282 0.14381,1.7497 0.43144,2.57062c0.29362,0.82091 0.70707,1.54896 1.24037,2.18413c0.53929,0.63516 1.17746,1.1415 1.91448,1.519c0.73703,0.37751 1.55795,0.56626 2.46275,0.56626c0.92279,0 1.75869,-0.20074 2.50771,-0.6022c0.74901,-0.40147 1.38418,-0.92279 1.90549,-1.56395c0.52731,-0.64715 0.93178,-1.37518 1.21341,-2.18412c0.28162,-0.81493 0.42245,-1.64484 0.42245,-2.48972c0,-0.88683 -0.14981,-1.74071 -0.44941,-2.56163c-0.2996,-0.82091 -0.71906,-1.54597 -1.25835,-2.17513c-0.53329,-0.62918 -1.16847,-1.13251 -1.90549,-1.51001c-0.73703,-0.37751 -1.54896,-0.56625 -2.43579,-0.56625c-0.92279,0 -1.75869,0.19773 -2.5077,0.59322c-0.74901,0.38948 -1.38718,0.90781 -1.91448,1.55496c-0.52131,0.64115 -0.92279,1.36921 -1.20442,2.18413c-0.28162,0.80893 -0.42244,1.63585 -0.42244,2.48073zM300.88259,159.21481c1.03064,0 1.88452,-0.19474 2.56163,-0.58422c0.6831,-0.39548 1.22839,-0.91079 1.63585,-1.54597c0.40746,-0.64115 0.6921,-1.3662 0.85388,-2.17513c0.16178,-0.81493 0.24269,-1.63585 0.24269,-2.46275v-8.24215h1.60889v8.24215c0,1.10255 -0.12284,2.14818 -0.36852,3.13688c-0.24567,0.9887 -0.64115,1.86055 -1.18644,2.61555c-0.54528,0.74901 -1.25535,1.34823 -2.13019,1.79763c-0.86886,0.44342 -1.93246,0.66513 -3.1908,0.66513c-1.2883,0 -2.37587,-0.23369 -3.2627,-0.70108c-0.88085,-0.46738 -1.59091,-1.08457 -2.13019,-1.85156c-0.53329,-0.76699 -0.9168,-1.64184 -1.15049,-2.62455c-0.2277,-0.98271 -0.34156,-1.99537 -0.34156,-3.03801v-8.24215h1.59091v8.24215c0,0.85688 0.08388,1.69278 0.25167,2.50771c0.16779,0.81493 0.4554,1.53697 0.86286,2.16615c0.40746,0.62918 0.94674,1.13551 1.61788,1.519c0.6771,0.38349 1.522,0.57524 2.53467,0.57524zM321.17605,147.26953c-0.46139,-0.52131 -1.07558,-0.94376 -1.84258,-1.26733c-0.76699,-0.32357 -1.63885,-0.48536 -2.61555,-0.48536c-1.4441,0 -2.49571,0.27263 -3.15485,0.81793c-0.65912,0.54528 -0.9887,1.28532 -0.9887,2.22009c0,0.49135 0.08688,0.89582 0.26066,1.21341c0.17976,0.31159 0.45241,0.58423 0.81793,0.81793c0.3715,0.2277 0.84489,0.42544 1.42014,0.59322c0.57524,0.16779 1.25235,0.33555 2.03132,0.50334c0.87485,0.18576 1.65982,0.39548 2.3549,0.62918c0.70108,0.2277 1.29729,0.51532 1.78864,0.86286c0.49135,0.34156 0.86586,0.758 1.12352,1.24936c0.26365,0.49135 0.39548,1.10555 0.39548,1.84258c0,0.74901 -0.1468,1.40215 -0.44042,1.95943c-0.28762,0.55127 -0.69209,1.00967 -1.2134,1.37518c-0.52131,0.36551 -1.1445,0.63817 -1.86954,0.81793c-0.71906,0.17377 -1.50702,0.26066 -2.36388,0.26066c-2.53467,0 -4.72179,-0.78796 -6.56136,-2.36388l0.80893,-1.31228c0.28762,0.3056 0.63516,0.59621 1.04264,0.87185c0.40746,0.27565 0.85986,0.51832 1.35722,0.72804c0.49734,0.20374 1.03064,0.36551 1.5999,0.48536c0.56926,0.11385 1.16847,0.17077 1.79763,0.17077c1.30028,0 2.31296,-0.23369 3.03801,-0.70108c0.73104,-0.47337 1.09655,-1.18344 1.09655,-2.13019c0,-0.50932 -0.10486,-0.93477 -0.31458,-1.27632c-0.20374,-0.34754 -0.51232,-0.64715 -0.92578,-0.89882c-0.41346,-0.25167 -0.92877,-0.47038 -1.54597,-0.65614c-0.6112,-0.18576 -1.32127,-0.3715 -2.13019,-0.55727c-0.86286,-0.19773 -1.61788,-0.40447 -2.26502,-0.62019c-0.64115,-0.21572 -1.18344,-0.48236 -1.62686,-0.79994c-0.44342,-0.32357 -0.77897,-0.71006 -1.00668,-1.15947c-0.22171,-0.4554 -0.33256,-1.01266 -0.33256,-1.6718c0,-0.75501 0.14082,-1.42612 0.42245,-2.01334c0.28762,-0.59322 0.6921,-1.08457 1.21341,-1.47406c0.52131,-0.38948 1.13551,-0.68609 1.84258,-0.88983c0.70707,-0.20972 1.48904,-0.31458 2.34591,-0.31458c1.09056,0 2.06129,0.16479 2.91217,0.49436c0.85088,0.32957 1.62087,0.79396 2.30996,1.39316zM336.57206,159.11595v1.42912h-10.97456v-16.3405h10.76783v1.42912h-9.15894v5.88726h7.9815v1.3662h-7.9815v6.2288zM352.05724,160.66191c-1.13251,0 -2.17215,-0.23369 -3.11889,-0.70108c-0.94077,-0.46738 -1.7497,-1.08756 -2.4268,-1.86055c-0.6771,-0.77897 -1.19841,-1.66581 -1.56395,-2.6605c-0.36551,-1.00068 -0.54827,-2.02234 -0.54827,-3.06496c0,-1.09056 0.19474,-2.13319 0.58423,-3.12788c0.38948,-0.99469 0.92877,-1.87553 1.61788,-2.64252c0.68909,-0.76699 1.50102,-1.37518 2.4358,-1.8246c0.94077,-0.4554 1.95642,-0.6831 3.047,-0.6831c1.13251,0 2.16914,0.24269 3.10991,0.72804c0.94674,0.47937 1.75269,1.11153 2.41782,1.89651c0.67111,0.77897 1.18943,1.66281 1.55496,2.65151c0.36551,0.9887 0.54828,1.99837 0.54828,3.02902c0,1.09056 -0.19474,2.13319 -0.58422,3.12788c-0.38948,0.99469 -0.92578,1.87254 -1.60889,2.63354c-0.6831,0.76099 -1.49204,1.36921 -2.4268,1.8246c-0.93477,0.44941 -1.94744,0.67412 -3.03801,0.67412zM346.0082,152.37481c0,0.89282 0.14381,1.7497 0.43144,2.57062c0.29362,0.82091 0.70707,1.54896 1.24037,2.18413c0.53929,0.63516 1.17746,1.1415 1.91448,1.519c0.73703,0.37751 1.55795,0.56626 2.46275,0.56626c0.92279,0 1.75869,-0.20074 2.50771,-0.6022c0.74901,-0.40147 1.38418,-0.92279 1.90549,-1.56395c0.52731,-0.64715 0.93178,-1.37518 1.21341,-2.18412c0.28162,-0.81493 0.42245,-1.64484 0.42245,-2.48972c0,-0.88683 -0.14981,-1.74071 -0.44941,-2.56163c-0.2996,-0.82091 -0.71906,-1.54597 -1.25835,-2.17513c-0.53329,-0.62918 -1.16847,-1.13251 -1.90549,-1.51001c-0.73703,-0.37751 -1.54896,-0.56625 -2.43579,-0.56625c-0.92279,0 -1.75869,0.19773 -2.5077,0.59322c-0.74901,0.38948 -1.38718,0.90781 -1.91448,1.55496c-0.52131,0.64115 -0.92279,1.36921 -1.20442,2.18413c-0.28162,0.80893 -0.42244,1.63585 -0.42244,2.48073zM362.75818,160.54506v-16.3405h6.90291c0.70707,0 1.35422,0.14981 1.94144,0.44941c0.59322,0.2996 1.10255,0.6921 1.52799,1.17746c0.43144,0.48536 0.764,1.03364 0.99769,1.64484c0.23969,0.6112 0.35953,1.23139 0.35953,1.86055c0,0.59921 -0.08688,1.17146 -0.26065,1.71674c-0.17377,0.54528 -0.41945,1.03663 -0.73703,1.47406c-0.31159,0.43742 -0.69209,0.80594 -1.1415,1.10555c-0.44342,0.2996 -0.94077,0.50334 -1.49204,0.6112l3.99975,6.30071h-1.81561l-3.83795,-6.03106h-4.83564v6.03107zM364.36707,153.09387h5.33897c0.47337,0 0.90481,-0.10486 1.29431,-0.31458c0.39548,-0.20972 0.73104,-0.48836 1.00668,-0.83589c0.27565,-0.35353 0.48836,-0.752 0.63817,-1.19543c0.15579,-0.44941 0.23369,-0.91979 0.23369,-1.41114c0,-0.49135 -0.08989,-0.96173 -0.26964,-1.41114c-0.17377,-0.4554 -0.41046,-0.85088 -0.71006,-1.18644c-0.29362,-0.33555 -0.64415,-0.6022 -1.05162,-0.79994c-0.40746,-0.20374 -0.83291,-0.3056 -1.27632,-0.3056h-5.20416z" data-paper-data="{&quot;origPos&quot;:null}"/><path d="M108.12922,174.88121c-0.46139,-0.52131 -1.07558,-0.94376 -1.84258,-1.26733c-0.76699,-0.32357 -1.63885,-0.48536 -2.61555,-0.48536c-1.4441,0 -2.49571,0.27263 -3.15485,0.81793c-0.65912,0.54528 -0.9887,1.28532 -0.9887,2.22009c0,0.49135 0.08688,0.89582 0.26066,1.21341c0.17976,0.31159 0.45241,0.58423 0.81793,0.81793c0.3715,0.2277 0.84489,0.42544 1.42014,0.59322c0.57524,0.16779 1.25235,0.33555 2.03132,0.50334c0.87485,0.18576 1.65982,0.39548 2.3549,0.62918c0.70108,0.2277 1.29729,0.51532 1.78864,0.86286c0.49135,0.34156 0.86586,0.758 1.12352,1.24936c0.26365,0.49135 0.39548,1.10555 0.39548,1.84258c0,0.74901 -0.1468,1.40215 -0.44042,1.95943c-0.28762,0.55127 -0.69209,1.00967 -1.2134,1.37518c-0.52131,0.36551 -1.1445,0.63817 -1.86954,0.81793c-0.71906,0.17377 -1.50702,0.26066 -2.36388,0.26066c-2.53467,0 -4.72179,-0.78796 -6.56136,-2.36388l0.80893,-1.31228c0.28762,0.3056 0.63516,0.59621 1.04264,0.87185c0.40746,0.27565 0.85986,0.51832 1.35722,0.72804c0.49734,0.20374 1.03064,0.36551 1.5999,0.48536c0.56926,0.11385 1.16847,0.17077 1.79763,0.17077c1.30028,0 2.31296,-0.23369 3.03801,-0.70108c0.73104,-0.47337 1.09655,-1.18344 1.09655,-2.13019c0,-0.50932 -0.10486,-0.93477 -0.31458,-1.27632c-0.20374,-0.34754 -0.51232,-0.64715 -0.92578,-0.89882c-0.41346,-0.25167 -0.92877,-0.47038 -1.54597,-0.65614c-0.6112,-0.18576 -1.32127,-0.3715 -2.13019,-0.55727c-0.86286,-0.19773 -1.61788,-0.40447 -2.26502,-0.62019c-0.64115,-0.21572 -1.18344,-0.48236 -1.62686,-0.79994c-0.44342,-0.32357 -0.77897,-0.71006 -1.00668,-1.15947c-0.22171,-0.4554 -0.33256,-1.01266 -0.33256,-1.6718c0,-0.75501 0.14082,-1.42612 0.42245,-2.01334c0.28762,-0.59322 0.6921,-1.08457 1.21341,-1.47406c0.52131,-0.38948 1.13551,-0.68609 1.84258,-0.88983c0.70707,-0.20972 1.48904,-0.31458 2.34591,-0.31458c1.09056,0 2.06129,0.16479 2.91217,0.49436c0.85088,0.32957 1.62087,0.79396 2.30996,1.39316l-0.78197,1.28532zM112.55068,188.15674v-16.3405h6.7591c0.70707,0 1.35422,0.14981 1.94144,0.44941c0.59322,0.2996 1.10555,0.6921 1.53697,1.17746c0.43144,0.48536 0.76998,1.03364 1.01568,1.64484c0.24567,0.6112 0.36853,1.23139 0.36853,1.86055c0,0.6771 -0.11685,1.32725 -0.35054,1.95044c-0.2277,0.61719 -0.54827,1.16546 -0.96173,1.64484c-0.41346,0.47337 -0.90781,0.85688 -1.48305,1.15049c-0.57524,0.28762 -1.21639,0.43144 -1.92346,0.43144h-5.29403v6.03107zM114.15956,180.70554h5.22213c0.47937,0 0.91379,-0.10486 1.30329,-0.31458c0.38948,-0.20972 0.72205,-0.48536 0.99769,-0.82691c0.27565,-0.34754 0.48836,-0.74602 0.63817,-1.19543c0.15579,-0.4554 0.23369,-0.92877 0.23369,-1.42014c0,-0.50334 -0.08688,-0.97971 -0.26065,-1.42912c-0.17377,-0.4554 -0.41046,-0.85088 -0.71006,-1.18644c-0.2996,-0.34156 -0.65315,-0.6082 -1.0606,-0.79994c-0.40746,-0.19175 -0.83291,-0.28762 -1.27632,-0.28762h-5.0873zM130.8876,171.81624h1.35722l6.78608,16.3405h-1.69876l-2.12121,-5.10528h-7.33436l-2.09424,5.10528h-1.72572zM134.8424,181.78411l-3.28967,-8.08036l-3.33461,8.08036zM139.70499,179.86964c0,-0.97671 0.17077,-1.95343 0.51233,-2.93014c0.34754,-0.97671 0.85088,-1.84856 1.51001,-2.61555c0.65912,-0.76699 1.47107,-1.39017 2.4358,-1.86954c0.96473,-0.48536 2.06129,-0.72804 3.28967,-0.72804c1.45609,0 2.70245,0.32957 3.73909,0.9887c1.03663,0.65912 1.80063,1.519 2.29198,2.5796l-1.26733,0.78198c-0.25767,-0.53929 -0.57524,-0.9917 -0.95275,-1.35722c-0.37751,-0.36551 -0.78197,-0.66213 -1.2134,-0.88983c-0.42544,-0.23369 -0.86886,-0.40147 -1.33026,-0.50334c-0.46139,-0.10186 -0.91379,-0.1528 -1.35722,-0.1528c-0.98271,0 -1.85156,0.20074 -2.60656,0.60221c-0.74901,0.40147 -1.38118,0.92579 -1.89651,1.57293c-0.50932,0.64115 -0.89582,1.3632 -1.15947,2.16615c-0.25767,0.80294 -0.38649,1.62087 -0.38649,2.45377c0,0.90481 0.15579,1.77067 0.46738,2.59758c0.31758,0.82691 0.74602,1.56094 1.28531,2.2021c0.54528,0.63516 1.18943,1.1415 1.93246,1.519c0.74901,0.3715 1.56094,0.55727 2.4358,0.55727c0.4554,0 0.92579,-0.05692 1.41114,-0.17077c0.48536,-0.11385 0.95275,-0.2966 1.40215,-0.54827c0.4554,-0.25767 0.87485,-0.57225 1.25835,-0.94376c0.38349,-0.37751 0.70408,-0.83589 0.96174,-1.37518l1.33924,0.6921c-0.26365,0.6112 -0.63217,1.15349 -1.10554,1.62686c-0.47337,0.46738 -1.00367,0.86286 -1.59091,1.18644c-0.58124,0.31758 -1.19841,0.56026 -1.85156,0.72804c-0.65315,0.16779 -1.29431,0.25167 -1.92346,0.25167c-1.11453,0 -2.14218,-0.24268 -3.08294,-0.72804c-0.93477,-0.49135 -1.74071,-1.13251 -2.41781,-1.92346c-0.67111,-0.79096 -1.19543,-1.68978 -1.57293,-2.69645c-0.3715,-1.00668 -0.55727,-2.03132 -0.55727,-3.07396zM167.54278,186.72762v1.42912h-10.97456v-16.3405h10.76783v1.42912h-9.15894v5.88726h7.9815v1.3662h-7.9815v6.2288zM182.86796,183.95028c0,0.6112 -0.12284,1.17445 -0.36852,1.68978c-0.24567,0.50932 -0.57524,0.95275 -0.9887,1.33026c-0.41346,0.37751 -0.89882,0.67111 -1.45609,0.88085c-0.55127,0.20374 -1.1415,0.3056 -1.77067,0.3056h-7.70286v-16.3405h7.86466c0.56926,0 1.08457,0.12284 1.54597,0.36853c0.46139,0.24567 0.85088,0.56626 1.16847,0.96174c0.32357,0.38948 0.57225,0.83291 0.74602,1.33026c0.17976,0.49734 0.26964,1.00068 0.26964,1.51001c0,0.82691 -0.20673,1.58193 -0.62019,2.26502c-0.41346,0.6831 -0.9887,1.19244 -1.72572,1.52799c0.93477,0.27565 1.6748,0.79096 2.22009,1.54597c0.54528,0.74901 0.81793,1.62386 0.81793,2.62455zM181.25907,183.67164c0,-0.40147 -0.06891,-0.78796 -0.20673,-1.15947c-0.13781,-0.37751 -0.33555,-0.70707 -0.59322,-0.9887c-0.25167,-0.28762 -0.55127,-0.51832 -0.89882,-0.69209c-0.34156,-0.17976 -0.71306,-0.26964 -1.11453,-0.26964h-6.25577v6.19286h6.09398c0.41945,0 0.80893,-0.08388 1.16847,-0.25167c0.35953,-0.16779 0.67111,-0.39249 0.93477,-0.67411c0.26964,-0.28762 0.48236,-0.62019 0.63817,-0.99768c0.15579,-0.37751 0.23369,-0.764 0.23369,-1.15947zM172.19,173.22738v6.02207h5.61761c0.39548,0 0.764,-0.08388 1.10555,-0.25167c0.34754,-0.16779 0.64415,-0.38948 0.88984,-0.66513c0.24567,-0.27565 0.43742,-0.59322 0.57524,-0.95275c0.13781,-0.36551 0.20673,-0.74602 0.20673,-1.1415c0,-0.41346 -0.06591,-0.80294 -0.19773,-1.16847c-0.12584,-0.3715 -0.30859,-0.69209 -0.54827,-0.96173c-0.23369,-0.26964 -0.51232,-0.48236 -0.83589,-0.63816c-0.32357,-0.16178 -0.6771,-0.24268 -1.0606,-0.24268zM190.62079,171.81624h1.35722l6.78608,16.3405h-1.69876l-2.12121,-5.10528h-7.33436l-2.09425,5.10528h-1.72572zM194.57558,181.78411l-3.28967,-8.08036l-3.33461,8.08036zM201.115,188.15674v-16.3405h6.90291c0.70707,0 1.35422,0.14981 1.94144,0.44941c0.59322,0.2996 1.10255,0.6921 1.52799,1.17746c0.43144,0.48536 0.764,1.03364 0.99769,1.64484c0.23969,0.6112 0.35953,1.23139 0.35953,1.86055c0,0.59921 -0.08688,1.17146 -0.26065,1.71674c-0.17377,0.54528 -0.41945,1.03663 -0.73703,1.47406c-0.31159,0.43742 -0.69209,0.80594 -1.1415,1.10555c-0.44342,0.2996 -0.94077,0.50334 -1.49204,0.6112l3.99975,6.30071h-1.81561l-3.83795,-6.03106h-4.83564v6.03107zM202.72388,180.70554h5.33897c0.47337,0 0.90481,-0.10486 1.29431,-0.31458c0.39548,-0.20972 0.73104,-0.48836 1.00668,-0.83589c0.27565,-0.35353 0.48836,-0.752 0.63817,-1.19543c0.15579,-0.44941 0.23369,-0.91979 0.23369,-1.41114c0,-0.49135 -0.08989,-0.96173 -0.26964,-1.41114c-0.17377,-0.4554 -0.41046,-0.85088 -0.71006,-1.18644c-0.29362,-0.33555 -0.64415,-0.6022 -1.05162,-0.79994c-0.40746,-0.20374 -0.83291,-0.3056 -1.27632,-0.3056h-5.20416zM232.95828,173.24536h-5.82433v14.91138h-1.60889v-14.91138h-5.81534v-1.42912h13.24857zM241.21947,188.27359c-1.13251,0 -2.17215,-0.23369 -3.11889,-0.70108c-0.94077,-0.46738 -1.7497,-1.08756 -2.4268,-1.86055c-0.6771,-0.77897 -1.19841,-1.66581 -1.56395,-2.6605c-0.36551,-1.00068 -0.54827,-2.02234 -0.54827,-3.06496c0,-1.09056 0.19474,-2.13319 0.58423,-3.12788c0.38948,-0.99469 0.92877,-1.87553 1.61788,-2.64252c0.68909,-0.76699 1.50102,-1.37518 2.4358,-1.8246c0.94077,-0.4554 1.95642,-0.6831 3.047,-0.6831c1.13251,0 2.16914,0.24269 3.10991,0.72804c0.94676,0.47937 1.75272,1.11153 2.41784,1.89651c0.67111,0.77897 1.18943,1.66281 1.55496,2.65151c0.36551,0.9887 0.54828,1.99837 0.54828,3.02902c0,1.09056 -0.19474,2.13319 -0.58422,3.12788c-0.38948,0.99469 -0.92578,1.87254 -1.60889,2.63354c-0.6831,0.76099 -1.49204,1.36921 -2.42683,1.8246c-0.93477,0.44941 -1.94744,0.67412 -3.03801,0.67412zM235.17043,179.98649c0,0.89282 0.14381,1.7497 0.43144,2.57062c0.29362,0.82091 0.70707,1.54896 1.24037,2.18413c0.53929,0.63516 1.17746,1.1415 1.91448,1.519c0.73703,0.37751 1.55795,0.56626 2.46275,0.56626c0.92279,0 1.75869,-0.20074 2.50771,-0.6022c0.74903,-0.40147 1.38419,-0.92279 1.90551,-1.56395c0.52731,-0.64715 0.93178,-1.37518 1.21341,-2.18412c0.28162,-0.81493 0.42245,-1.64484 0.42245,-2.48972c0,-0.88683 -0.14981,-1.74071 -0.44941,-2.56163c-0.2996,-0.82091 -0.71906,-1.54597 -1.25835,-2.17513c-0.53329,-0.62918 -1.16847,-1.13251 -1.90551,-1.51001c-0.73703,-0.37751 -1.54896,-0.56625 -2.43579,-0.56625c-0.92279,0 -1.75869,0.19773 -2.5077,0.59322c-0.74901,0.38948 -1.38718,0.90781 -1.91448,1.55496c-0.52131,0.64115 -0.92279,1.36921 -1.20442,2.18413c-0.28162,0.80893 -0.42245,1.63585 -0.42245,2.48073zM272.25888,188.15674v-13.41036l-5.95914,10.37235h-0.94376l-5.95914,-10.37235v13.41036h-1.60889v-16.3405h1.65382l6.37261,11.19028l6.42655,-11.19027h1.62686v16.3405zM284.54676,188.27359c-1.13251,0 -2.17215,-0.23369 -3.11889,-0.70108c-0.94077,-0.46738 -1.7497,-1.08756 -2.4268,-1.86055c-0.6771,-0.77897 -1.19841,-1.66581 -1.56395,-2.6605c-0.36551,-1.00068 -0.54827,-2.02234 -0.54827,-3.06496c0,-1.09056 0.19474,-2.13319 0.58423,-3.12788c0.38948,-0.99469 0.92877,-1.87553 1.61788,-2.64252c0.68909,-0.76699 1.50102,-1.37518 2.4358,-1.8246c0.94077,-0.4554 1.95642,-0.6831 3.047,-0.6831c1.13251,0 2.16914,0.24269 3.10991,0.72804c0.94674,0.47937 1.75269,1.11153 2.41782,1.89651c0.67111,0.77897 1.18943,1.66281 1.55496,2.65151c0.36551,0.9887 0.54828,1.99837 0.54828,3.02902c0,1.09056 -0.19474,2.13319 -0.58422,3.12788c-0.38948,0.99469 -0.92578,1.87254 -1.60889,2.63354c-0.6831,0.76099 -1.49204,1.36921 -2.4268,1.8246c-0.93477,0.44941 -1.94744,0.67412 -3.03801,0.67412zM278.49772,179.98649c0,0.89282 0.14381,1.7497 0.43144,2.57062c0.29362,0.82091 0.70707,1.54896 1.24037,2.18413c0.53929,0.63516 1.17746,1.1415 1.91448,1.519c0.73703,0.37751 1.55795,0.56626 2.46275,0.56626c0.92279,0 1.75869,-0.20074 2.50771,-0.6022c0.74901,-0.40147 1.38418,-0.92279 1.90549,-1.56395c0.52731,-0.64715 0.93178,-1.37518 1.21341,-2.18412c0.28162,-0.81493 0.42245,-1.64484 0.42245,-2.48972c0,-0.88683 -0.14981,-1.74071 -0.44941,-2.56163c-0.2996,-0.82091 -0.71906,-1.54597 -1.25835,-2.17513c-0.53329,-0.62918 -1.16847,-1.13251 -1.90549,-1.51001c-0.73703,-0.37751 -1.54896,-0.56625 -2.43579,-0.56625c-0.92279,0 -1.75869,0.19773 -2.5077,0.59322c-0.74901,0.38948 -1.38718,0.90781 -1.91448,1.55496c-0.52131,0.64115 -0.92279,1.36921 -1.20442,2.18413c-0.28162,0.80893 -0.42244,1.63585 -0.42244,2.48073zM294.57757,171.81624l5.84232,14.33615l5.82433,-14.33614h1.68079l-6.81304,16.3405h-1.40215l-6.81304,-16.3405zM321.24762,186.72762v1.42912h-10.97456v-16.3405h10.76783v1.42912h-9.15894v5.88726h7.9815v1.3662h-7.9815v6.2288zM330.15346,188.15674v-16.3405h1.60889v14.91138h9.43758v1.42912zM354.54265,186.72762v1.42912h-10.97456v-16.3405h10.76783v1.42912h-9.15894v5.88726h7.9815v1.3662h-7.9815v6.2288zM357.58102,188.15674v-16.3405h10.7229v1.42912h-9.11401v6.0041h7.6849v1.33924h-7.68489v7.56804zM382.72846,173.24536h-5.82433v14.91138h-1.60889v-14.91138h-5.81534v-1.42912h13.24857z" data-paper-data="{&quot;origPos&quot;:null}"/><path d="M100.88475,215.76841v-16.3405h6.90291c0.70707,0 1.35422,0.14981 1.94144,0.44941c0.59322,0.2996 1.10255,0.6921 1.52799,1.17746c0.43144,0.48536 0.764,1.03364 0.99769,1.64484c0.23969,0.6112 0.35953,1.23139 0.35953,1.86055c0,0.59921 -0.08688,1.17146 -0.26065,1.71674c-0.17377,0.54528 -0.41945,1.03663 -0.73703,1.47406c-0.31159,0.43742 -0.69209,0.80594 -1.1415,1.10555c-0.44342,0.2996 -0.94077,0.50334 -1.49204,0.6112l3.99975,6.30071h-1.81561l-3.83795,-6.03106h-4.83564v6.03107zM102.49363,208.3172h5.33897c0.47337,0 0.90481,-0.10486 1.29431,-0.31458c0.39548,-0.20972 0.73104,-0.48836 1.00668,-0.83589c0.27565,-0.35353 0.48836,-0.752 0.63817,-1.19543c0.15579,-0.44941 0.23369,-0.91979 0.23369,-1.41114c0,-0.49135 -0.08989,-0.96173 -0.26964,-1.41114c-0.17377,-0.4554 -0.41046,-0.85088 -0.71006,-1.18644c-0.29362,-0.33555 -0.64415,-0.6022 -1.05162,-0.79994c-0.40746,-0.20374 -0.83291,-0.3056 -1.27632,-0.3056h-5.20416zM126.88465,214.33928v1.42912h-10.97456v-16.3405h10.76783v1.42912h-9.15894v5.88726h7.9815v1.3662h-7.9815v6.2288zM129.92298,215.76841v-16.3405h1.60889v14.91138h9.43758v1.42912zM154.3122,214.33928v1.42912h-10.97456v-16.3405h10.76783v1.42912h-9.15894v5.88726h7.9815v1.3662h-7.9815v6.2288zM162.41089,199.4279h1.35722l6.78608,16.3405h-1.69876l-2.12121,-5.10528h-7.33436l-2.09424,5.10528h-1.72572zM166.36569,209.39578l-3.28967,-8.08036l-3.33461,8.08036zM182.19743,202.49287c-0.46139,-0.52131 -1.07558,-0.94376 -1.84258,-1.26733c-0.76699,-0.32357 -1.63885,-0.48536 -2.61555,-0.48536c-1.4441,0 -2.49571,0.27263 -3.15485,0.81793c-0.65912,0.54528 -0.9887,1.28532 -0.9887,2.22009c0,0.49135 0.08688,0.89582 0.26066,1.21341c0.17976,0.31159 0.45241,0.58423 0.81793,0.81793c0.3715,0.2277 0.84489,0.42544 1.42014,0.59322c0.57524,0.16779 1.25235,0.33555 2.03132,0.50334c0.87485,0.18576 1.65982,0.39548 2.3549,0.62918c0.70108,0.2277 1.29729,0.51532 1.78864,0.86286c0.49135,0.34156 0.86586,0.758 1.12352,1.24936c0.26365,0.49135 0.39548,1.10555 0.39548,1.84258c0,0.74901 -0.1468,1.40215 -0.44042,1.95943c-0.28762,0.55127 -0.69209,1.00967 -1.2134,1.37518c-0.52131,0.36551 -1.1445,0.63817 -1.86954,0.81793c-0.71906,0.17377 -1.50702,0.26066 -2.36388,0.26066c-2.53467,0 -4.72179,-0.78796 -6.56136,-2.36388l0.80893,-1.31228c0.28762,0.3056 0.63516,0.59621 1.04264,0.87185c0.40746,0.27565 0.85986,0.51832 1.35722,0.72804c0.49734,0.20374 1.03064,0.36551 1.5999,0.48536c0.56926,0.11385 1.16847,0.17077 1.79763,0.17077c1.30028,0 2.31296,-0.23369 3.03801,-0.70108c0.73104,-0.47337 1.09655,-1.18344 1.09655,-2.13019c0,-0.50932 -0.10486,-0.93477 -0.31458,-1.27632c-0.20374,-0.34754 -0.51232,-0.64715 -0.92578,-0.89882c-0.41346,-0.25167 -0.92877,-0.47038 -1.54597,-0.65614c-0.6112,-0.18576 -1.32127,-0.3715 -2.13019,-0.55727c-0.86286,-0.19773 -1.61788,-0.40447 -2.26502,-0.62019c-0.64115,-0.21572 -1.18344,-0.48236 -1.62686,-0.79994c-0.44342,-0.32357 -0.77897,-0.71006 -1.00668,-1.15947c-0.22171,-0.4554 -0.33256,-1.01266 -0.33256,-1.6718c0,-0.75501 0.14082,-1.42612 0.42245,-2.01334c0.28762,-0.59322 0.6921,-1.08457 1.21341,-1.47406c0.52131,-0.38948 1.13551,-0.68609 1.84258,-0.88983c0.70707,-0.20972 1.48904,-0.31458 2.34591,-0.31458c1.09056,0 2.06129,0.16479 2.91217,0.49436c0.85088,0.32957 1.62087,0.79396 2.30996,1.39316zM197.59345,214.33928v1.42912h-10.97456v-16.3405h10.76783v1.42912h-9.15894v5.88726h7.9815v1.3662h-7.9815v6.2288zM217.44974,200.85701h-5.82433v14.91138h-1.60889v-14.91138h-5.81534v-1.42912h13.24857zM225.71094,215.88524c-1.13251,0 -2.17215,-0.23369 -3.11889,-0.70108c-0.94077,-0.46738 -1.7497,-1.08756 -2.4268,-1.86055c-0.6771,-0.77897 -1.19841,-1.66581 -1.56395,-2.6605c-0.36551,-1.00068 -0.54827,-2.02234 -0.54827,-3.06496c0,-1.09056 0.19474,-2.13319 0.58423,-3.12788c0.38948,-0.99469 0.92877,-1.87553 1.61788,-2.64252c0.68909,-0.76699 1.50102,-1.37518 2.4358,-1.8246c0.94077,-0.4554 1.95642,-0.6831 3.047,-0.6831c1.13251,0 2.16914,0.24269 3.10991,0.72804c0.94674,0.47937 1.75269,1.11153 2.41782,1.89651c0.67111,0.77897 1.18943,1.66281 1.55496,2.65151c0.36551,0.9887 0.54828,1.99837 0.54828,3.02902c0,1.09056 -0.19474,2.13319 -0.58422,3.12788c-0.38948,0.99469 -0.92578,1.87254 -1.60889,2.63354c-0.6831,0.76099 -1.49204,1.36921 -2.4268,1.8246c-0.93477,0.44941 -1.94744,0.67412 -3.03801,0.67412zM219.6619,207.59815c0,0.89282 0.14381,1.7497 0.43144,2.57062c0.29362,0.82091 0.70707,1.54896 1.24037,2.18413c0.53929,0.63516 1.17746,1.1415 1.91448,1.519c0.73703,0.37751 1.55795,0.56626 2.46275,0.56626c0.92279,0 1.75869,-0.20074 2.50771,-0.6022c0.74901,-0.40147 1.38418,-0.92279 1.90549,-1.56395c0.52731,-0.64715 0.93178,-1.37518 1.21341,-2.18412c0.28162,-0.81493 0.42245,-1.64484 0.42245,-2.48972c0,-0.88683 -0.14981,-1.74071 -0.44941,-2.56163c-0.2996,-0.82091 -0.71906,-1.54597 -1.25835,-2.17513c-0.53329,-0.62918 -1.16847,-1.13251 -1.90549,-1.51001c-0.73703,-0.37751 -1.54896,-0.56625 -2.43579,-0.56625c-0.92279,0 -1.75869,0.19773 -2.5077,0.59322c-0.74901,0.38948 -1.38718,0.90781 -1.91448,1.55496c-0.52131,0.64115 -0.92279,1.36921 -1.20442,2.18413c-0.28162,0.80893 -0.42244,1.63585 -0.42244,2.48073zM256.75032,215.76841v-13.41036l-5.95914,10.37235h-0.94376l-5.95914,-10.37235v13.41036h-1.60889v-16.3405h1.65382l6.37261,11.19028l6.42655,-11.19027h1.62686v16.3405zM269.03823,215.88524c-1.13251,0 -2.17215,-0.23369 -3.11889,-0.70108c-0.94077,-0.46738 -1.7497,-1.08756 -2.4268,-1.86055c-0.6771,-0.77897 -1.19841,-1.66581 -1.56395,-2.6605c-0.36551,-1.00068 -0.54827,-2.02234 -0.54827,-3.06496c0,-1.09056 0.19474,-2.13319 0.58423,-3.12788c0.38948,-0.99469 0.92877,-1.87553 1.61788,-2.64252c0.68909,-0.76699 1.50102,-1.37518 2.4358,-1.8246c0.94077,-0.4554 1.95642,-0.6831 3.047,-0.6831c1.13251,0 2.16914,0.24269 3.10991,0.72804c0.94674,0.47937 1.75269,1.11153 2.41782,1.89651c0.67111,0.77897 1.18943,1.66281 1.55496,2.65151c0.36551,0.9887 0.54828,1.99837 0.54828,3.02902c0,1.09056 -0.19474,2.13319 -0.58422,3.12788c-0.38948,0.99469 -0.92578,1.87254 -1.60889,2.63354c-0.6831,0.76099 -1.49204,1.36921 -2.4268,1.8246c-0.93477,0.44941 -1.94744,0.67412 -3.03801,0.67412zM262.98919,207.59815c0,0.89282 0.14381,1.7497 0.43144,2.57062c0.29362,0.82091 0.70707,1.54896 1.24037,2.18413c0.53929,0.63516 1.17746,1.1415 1.91448,1.519c0.73703,0.37751 1.55795,0.56626 2.46275,0.56626c0.92279,0 1.75869,-0.20074 2.50771,-0.6022c0.74901,-0.40147 1.38418,-0.92279 1.90549,-1.56395c0.52731,-0.64715 0.93178,-1.37518 1.21341,-2.18412c0.28162,-0.81493 0.42245,-1.64484 0.42245,-2.48972c0,-0.88683 -0.14981,-1.74071 -0.44941,-2.56163c-0.2996,-0.82091 -0.71906,-1.54597 -1.25835,-2.17513c-0.53329,-0.62918 -1.16847,-1.13251 -1.90549,-1.51001c-0.73703,-0.37751 -1.54896,-0.56625 -2.43579,-0.56625c-0.92279,0 -1.75869,0.19773 -2.5077,0.59322c-0.74901,0.38948 -1.38718,0.90781 -1.91448,1.55496c-0.52131,0.64115 -0.92279,1.36921 -1.20442,2.18413c-0.28162,0.80893 -0.42244,1.63585 -0.42244,2.48073zM279.06904,199.4279l5.84232,14.33615l5.82433,-14.33614h1.68079l-6.81304,16.3405h-1.40215l-6.81304,-16.3405zM305.73908,214.33928v1.42912h-10.97456v-16.3405h10.76783v1.42912h-9.15894v5.88726h7.9815v1.3662h-7.9815v6.2288zM314.64492,215.76841v-16.3405h6.90291c0.70707,0 1.35422,0.14981 1.94144,0.44941c0.59322,0.2996 1.10255,0.6921 1.52799,1.17746c0.43144,0.48536 0.764,1.03364 0.99769,1.64484c0.23969,0.6112 0.35953,1.23139 0.35953,1.86055c0,0.59921 -0.08688,1.17146 -0.26065,1.71674c-0.17377,0.54528 -0.41945,1.03663 -0.73703,1.47406c-0.31159,0.43742 -0.69209,0.80594 -1.1415,1.10555c-0.44342,0.2996 -0.94077,0.50334 -1.49204,0.6112l3.99975,6.30071h-1.81561l-3.83795,-6.03106h-4.83564v6.03107zM316.25381,208.3172h5.33897c0.47337,0 0.90481,-0.10486 1.29431,-0.31458c0.39548,-0.20972 0.73104,-0.48836 1.00668,-0.83589c0.27565,-0.35353 0.48836,-0.752 0.63817,-1.19543c0.15579,-0.44941 0.23369,-0.91979 0.23369,-1.41114c0,-0.49135 -0.08989,-0.96173 -0.26964,-1.41114c-0.17377,-0.4554 -0.41046,-0.85088 -0.71006,-1.18644c-0.29362,-0.33555 -0.64415,-0.6022 -1.05162,-0.79994c-0.40746,-0.20374 -0.83291,-0.3056 -1.27632,-0.3056h-5.20416zM329.67027,215.76841v-16.3405h1.60889v16.3405zM347.17814,213.37755c-1.51601,1.6718 -3.2657,2.50771 -5.24909,2.50771c-1.10255,0 -2.11821,-0.23669 -3.04699,-0.71006c-0.92877,-0.47937 -1.73472,-1.10855 -2.41781,-1.88751c-0.6771,-0.78496 -1.20741,-1.6718 -1.59091,-2.6605c-0.38349,-0.9887 -0.57524,-2.00436 -0.57524,-3.04699c0,-1.09056 0.18576,-2.13319 0.55727,-3.12788c0.37751,-1.00068 0.90181,-1.87853 1.57293,-2.63353c0.6771,-0.76099 1.47406,-1.3662 2.39085,-1.81561c0.92279,-0.4554 1.92946,-0.6831 3.02002,-0.6831c0.79695,0 1.52499,0.08688 2.18413,0.26066c0.65912,0.17377 1.24636,0.41945 1.76167,0.73703c0.51532,0.31159 0.95874,0.68609 1.33026,1.12352c0.37751,0.43742 0.69808,0.9168 0.96174,1.43811l-1.24037,0.8359c-0.53929,-1.01266 -1.24037,-1.75569 -2.10323,-2.22907c-0.85688,-0.47937 -1.82759,-0.71906 -2.91217,-0.71906c-0.90481,0 -1.72273,0.19175 -2.45376,0.57524c-0.73104,0.38349 -1.35422,0.89282 -1.86954,1.52799c-0.50932,0.63516 -0.90181,1.3632 -1.17745,2.18413c-0.27565,0.82091 -0.41346,1.6688 -0.41346,2.54366c0,0.92279 0.15579,1.79763 0.46738,2.62455c0.31758,0.82691 0.752,1.55196 1.30329,2.17513c0.55127,0.62317 1.19841,1.12053 1.94144,1.49204c0.74302,0.36551 1.55196,0.54828 2.4268,0.54828c0.93477,0 1.82759,-0.21872 2.67847,-0.65614c0.85688,-0.43742 1.6748,-1.13251 2.45377,-2.08526v-2.71442h-3.63122v-1.24037h4.98844v8.02644h-1.35722zM364.73166,199.4279v16.3405h-1.58193v-7.63995h-9.68925v7.63995h-1.60889v-16.3405h1.60889v7.27144h9.68925v-7.27143zM380.4275,200.85701h-5.82433v14.91138h-1.60889v-14.91138h-5.81534v-1.42912h13.24857z" data-paper-data="{&quot;origPos&quot;:null}"/></g></g></g></svg>