<svg version="1.1" xmlns="http://www.w3.org/2000/svg" xmlns:xlink="http://www.w3.org/1999/xlink" width="66.6017" height="37.9143"><g transform="translate(-222.37488,-160.138)"><g data-paper-data="{&quot;isPaintingLayer&quot;:true}" fill-rule="nonzero" stroke="none" stroke-miterlimit="10" stroke-dasharray="" stroke-dashoffset="0" style="mix-blend-mode: normal"><path d="M283.71488,160.138c2.9058,0.0003 5.2616,2.3559 5.2617,5.2619v27.3905c-0.0001,2.906 -2.3559,5.2616 -5.2617,5.2619h-56.0782c-2.906,-0.0003 -5.2616,-2.3559 -5.2618,-5.2619v-27.3905c0.0002,-2.906 2.3558,-5.2616 5.2618,-5.2619z" data-paper-data="{&quot;origPos&quot;:null}" id="rect4136" fill="#1f679f" stroke-width="10.52355" stroke-linecap="round" stroke-linejoin="round"/><path d="M260.96313,172.54729l-0.93942,0.3288l0.09394,-3.288l1.45611,0.51669l-0.79852,0.18788l-0.56366,0.56366l0.09394,0.89246z" id="ID0.7436440051533282" fill="#1f679f" stroke-width="1" stroke-linecap="round" stroke-linejoin="miter"/><path d="M255.23262,187.813l0.93943,-0.3288l-0.09394,3.288l-1.45611,-0.51669l0.79851,-0.18788l0.56366,-0.56366l-0.09394,-0.89245z" id="ID0.7436440051533282" fill="#1f679f" stroke-width="1" stroke-linecap="round" stroke-linejoin="miter"/><text transform="translate(242.37926,187.38475) scale(0.93943,0.93943)" font-size="22" xml:space="preserve" data-paper-data="{&quot;origPos&quot;:null}" id="ID0.5014991774223745" fill="#ffffff" fill-rule="nonzero" stroke="none" stroke-width="1" stroke-linecap="butt" stroke-linejoin="miter" stroke-miterlimit="10" stroke-dasharray="" stroke-dashoffset="0" font-family="Sans Serif" font-weight="normal" text-anchor="start" style="mix-blend-mode: normal"><tspan x="0" dy="0">A</tspan></text><text transform="translate(226.71695,187.31614) scale(0.93943,0.93943)" font-size="22" xml:space="preserve" data-paper-data="{&quot;origPos&quot;:null}" id="ID0.5014991774223745" fill="#ffffff" fill-rule="nonzero" stroke="none" stroke-width="1" stroke-linecap="butt" stroke-linejoin="miter" stroke-miterlimit="10" stroke-dasharray="" stroke-dashoffset="0" font-family="Sans Serif" font-weight="normal" text-anchor="start" style="mix-blend-mode: normal"><tspan x="0" dy="0">H</tspan></text><text transform="translate(256.39592,187.18912) scale(0.93943,0.93943)" font-size="22" xml:space="preserve" data-paper-data="{&quot;origPos&quot;:null}" id="ID0.5014991774223745" fill="#ffffff" fill-rule="nonzero" stroke="none" stroke-width="1" stroke-linecap="butt" stroke-linejoin="miter" stroke-miterlimit="10" stroke-dasharray="" stroke-dashoffset="0" font-family="Sans Serif" font-weight="normal" text-anchor="start" style="mix-blend-mode: normal"><tspan x="0" dy="0">R</tspan></text><text transform="translate(269.86631,187.2456) scale(0.93943,0.93943)" font-size="22" xml:space="preserve" data-paper-data="{&quot;origPos&quot;:null}" id="ID0.5014991774223745" fill="#ffffff" fill-rule="nonzero" stroke="none" stroke-width="1" stroke-linecap="butt" stroke-linejoin="miter" stroke-miterlimit="10" stroke-dasharray="" stroke-dashoffset="0" font-family="Sans Serif" font-weight="normal" text-anchor="start" style="mix-blend-mode: normal"><tspan x="0" dy="0">D</tspan></text></g></g></svg>