<svg xmlns="http://www.w3.org/2000/svg" viewBox="16.8893 17.7699 273.824 273.498" width="273.824" height="273.498" xmlns:xlink="http://www.w3.org/1999/xlink" version="1.1">
  <defs>
    <radialGradient id="grad_1" cx="0.3165" cy="0.0124" r="1.28388">
      <stop stop-color="rgb(255, 255, 227)" stop-opacity="1" offset="0" />
      <stop stop-color="rgb(255, 195, 65)" stop-opacity="1" offset="1" />
    </radialGradient>
    <radialGradient id="grad_2" cx="0.3056" cy="0.007" r="1.2909">
      <stop stop-color="rgb(255, 255, 227)" stop-opacity="1" offset="0" />
      <stop stop-color="rgb(255, 195, 65)" stop-opacity="1" offset="1" />
    </radialGradient>
  <radialGradient id="grad_1-.42035,0,0,1.42035,-241.35,-125.25" gradientUnits="userSpaceOnUse" cx="104.645" cy="23.0466" r="346.841">
      <stop stop-color="rgb(255, 255, 227)" stop-opacity="1" offset="0" />
      <stop stop-color="rgb(255, 195, 65)" stop-opacity="1" offset="1" />
    </radialGradient></defs>
  <!-- Exported by Scratch - http://scratch.mit.edu/ -->
  <path id="ID0.642657620832324" fill="#ffcb30" stroke="none" stroke-width="1.06679" d="M 238.41 34.6278 L 262.716 59.1117 L 57.4875 262.85 L 33.1814 238.366 L 238.41 34.6278 Z" />
  <path id="ID0.642657620832324" fill="#ffdc46" stroke="none" stroke-width="1.0086" d="M 203.1 21.3706 L 237.005 36.4664 L 34.0242 237.974 L 18.3096 204.82 L 203.1 21.3706 Z" />
  <path id="ID0.642657620832324" fill="#ffdc46" stroke="none" stroke-width="1.02711" d="M 89.3346 279.306 L 55.0889 264.548 L 265.331 55.8327 L 280.735 89.2944 L 89.3346 279.306 Z" />
  <path id="ID0.642657620832324" fill="#ffcb30" stroke="none" stroke-width="0.943862" d="M 281.023 87.0154 L 287.982 129.918 L 127.349 289.385 L 88.5235 280.019 L 281.023 87.0154 Z" />
  <path id="ID0.642657620832324" fill="#ffdc46" stroke="none" stroke-width="1.02711" d="M 176.535 289.605 L 128.547 287.997 L 288.027 129.534 L 289.026 176.522 L 176.535 289.605 Z" />
  <path id="ID0.642657620832324" fill="#ffcb30" stroke="none" stroke-width="0.812236" d="M 285.489 179.019 L 273.991 242.006 L 221.015 284.03 L 181.407 283.402 L 285.489 179.019 Z" />
  <path id="ID0.642657620832324" fill="#ffcb30" stroke="none" stroke-width="0.905099" d="M 27.3804 198.969 L 19.4951 156.492 L 159.007 20.5297 L 201.247 24.4623 L 27.3804 198.969 Z" />
  <path id="ID0.642657620832324" fill="#ffdc46" stroke="none" stroke-width="0.93019" d="M 111.029 19.1902 L 154.607 25.1761 L 25.2374 153.747 L 19.9 111.066 L 111.029 19.1902 Z" />
  <path id="ID0.642657620832324" fill="#ffcb30" stroke="none" stroke-width="0.812236" d="M 22.4986 109.534 L 35.9751 65.5079 L 75.5089 28.5157 L 108.503 22.0402 L 22.4986 109.534 Z" />
  <path id="ID0.19512054603546858" fill="url(#grad_1-.42035,0,0,1.42035,-241.35,-125.25)" stroke="url(#grad_2)" stroke-width="2.8407" d="M 271.823 74.5932 C 267.657 67.0185 262.282 59.9395 255.702 53.359 C 247.794 45.4519 239.201 39.2975 229.922 34.8945 C 223.957 32.0069 217.707 29.8522 211.173 28.4319 C 204.403 26.9164 197.325 26.1593 189.939 26.1593 L 179.216 26.1593 L 149.672 26.1593 L 118.709 26.1593 L 110.471 26.5144 C 88.2664 28.2657 69.0675 37.2139 52.8755 53.359 C 37.8667 68.3679 29.0605 85.9802 26.457 106.196 C 25.8889 110.41 25.6048 114.742 25.6048 119.192 L 25.6048 145.824 L 25.6048 172.81 L 25.6048 190.423 C 25.6048 198.282 26.457 205.787 28.1614 212.935 C 29.961 220.558 32.7534 227.802 36.5415 234.667 C 40.7557 242.29 46.1999 249.438 52.8755 256.114 L 55.8582 258.955 L 60.7584 263.216 C 63.7412 265.677 66.8418 267.927 70.0617 269.962 C 81.2825 276.969 93.6395 281.254 107.133 282.817 L 113.88 283.385 L 114.519 283.385 L 118.709 283.456 L 189.939 283.456 L 195.55 283.314 C 218.843 282.082 238.895 273.016 255.702 256.114 C 260.247 251.569 264.199 246.786 267.561 241.768 C 278.167 225.907 283.28 209.029 282.901 191.133 L 282.901 190.423 L 282.901 119.192 L 282.688 112.588 L 282.688 112.09 C 282.215 105.226 281.079 98.6682 279.279 92.4186 C 277.433 86.216 274.947 80.2746 271.823 74.5932 M 116.862 19.6967 L 191.644 19.6967 C 218.63 19.6967 241.64 29.2131 260.673 48.2458 C 279.752 67.3253 289.293 90.3591 289.293 117.346 L 289.293 192.127 C 289.293 219.114 279.752 242.124 260.673 261.156 C 241.64 280.284 218.63 289.847 191.644 289.847 L 116.862 289.847 L 111.82 289.776 C 86.9639 288.593 65.6118 279.053 47.7622 261.156 C 28.6827 242.124 19.1422 219.114 19.1422 192.127 L 19.1422 117.346 C 19.1422 90.3591 28.6827 67.3253 47.7622 48.2458 C 66.8418 29.2131 89.8756 19.6967 116.862 19.6967" />
</svg>