<svg xmlns="http://www.w3.org/2000/svg" xmlns:xlink="http://www.w3.org/1999/xlink" width="545" height="267" version="1.1"><g><g fill="none" fill-rule="nonzero" stroke="none" stroke-dashoffset="0" stroke-linecap="butt" stroke-linejoin="miter" stroke-miterlimit="10" stroke-width="none" style="mix-blend-mode:normal" data-paper-data="{&quot;isPaintingLayer&quot;:true}" font-family="none" font-size="none" font-weight="none" text-anchor="none" transform="translate(7.96304,-161.17615)"><path fill="#bfbfbf" stroke-width="0" d="M-7.96304,428.17615v-138h545v138z"/><path fill="#bfbfbf" stroke-width="0" d="M330.03696,163.17615v-2h1v2z"/><text fill="#000" fill-rule="nonzero" stroke="none" stroke-dashoffset="0" stroke-linecap="butt" stroke-linejoin="miter" stroke-miterlimit="10" stroke-width="1" data-paper-data="{&quot;origPos&quot;:null}" font-family="Sans Serif" font-size="40" font-weight="normal" text-anchor="start" transform="translate(57.03696,318.17615) scale(0.5,0.5)" xml:space="preserve" style="mix-blend-mode:normal"><tspan x="0" dy="0">Thanks!</tspan><tspan x="0" dy="46.15">Here is a free score boost and a bomb</tspan></text><path id="ID0.6841055555269122" fill="#f82f51" stroke-width="1" d="M8.54066,326.97817c-4.905,-4.96692 -4.88429,-12.98106 0.0592,-17.92455c4.96253,-4.96253 13.01955,-4.96399 17.98229,-0.00146l0.05899,-0.05627c4.96713,-4.90479 12.98127,-4.88701 17.92476,0.05627c4.96253,4.96274 4.96253,13.02122 0,17.98375l-17.98375,17.98375l-17.98396,-17.98375z" data-paper-data="{&quot;origPos&quot;:null}"/><path id="ID0.8008110425435007" fill="#fbb750" stroke-width="1.227" d="M443.98242,297.96754l5.46646,16.83051h17.69821l-14.31672,10.40388l5.46876,16.83051l-14.31672,-10.40137l-14.31672,10.40137l5.46625,-16.83051l-14.31672,-10.40388h17.69821z" data-paper-data="{&quot;origPos&quot;:null}"/></g></g></svg>