<svg version="1.1" xmlns="http://www.w3.org/2000/svg" xmlns:xlink="http://www.w3.org/1999/xlink" width="545" height="267"><g transform="translate(7.96304,-161.17615)"><g data-paper-data="{&quot;isPaintingLayer&quot;:true}" fill="none" fill-rule="nonzero" stroke="none" stroke-width="none" stroke-linecap="butt" stroke-linejoin="miter" stroke-miterlimit="10" stroke-dasharray="" stroke-dashoffset="0" font-family="none" font-weight="none" font-size="none" text-anchor="none" style="mix-blend-mode: normal"><path d="M-7.96304,428.17615v-138h545v138z" fill="#bfbfbf" stroke-width="0"/><path d="M330.03696,163.17615v-2h1v2z" fill="#bfbfbf" stroke-width="0"/><text transform="translate(57.03696,318.17615) scale(0.5,0.5)" font-size="40" xml:space="preserve" data-paper-data="{&quot;origPos&quot;:null}" fill="#000000" fill-rule="nonzero" stroke="none" stroke-width="1" stroke-linecap="butt" stroke-linejoin="miter" stroke-miterlimit="10" stroke-dasharray="" stroke-dashoffset="0" font-family="Sans Serif" font-weight="normal" text-anchor="start" style="mix-blend-mode: normal"><tspan x="0" dy="0">Thanks!</tspan><tspan x="0" dy="46.150000000000006px">Here is a free score boost and a bomb</tspan></text><path d="M8.54066,326.97817c-4.905,-4.96692 -4.88429,-12.98106 0.0592,-17.92455c4.96253,-4.96253 13.01955,-4.96399 17.98229,-0.00146l0.05899,-0.05627c4.96713,-4.90479 12.98127,-4.88701 17.92476,0.05627c4.96253,4.96274 4.96253,13.02122 0,17.98375l-17.98375,17.98375l-17.98396,-17.98375z" data-paper-data="{&quot;origPos&quot;:null}" id="ID0.6841055555269122" fill="#f82f51" stroke-width="1"/><path d="M443.98242,297.96754l5.46646,16.83051h17.69821l-14.31672,10.40388l5.46876,16.83051l-14.31672,-10.40137l-14.31672,10.40137l5.46625,-16.83051l-14.31672,-10.40388h17.69821z" data-paper-data="{&quot;origPos&quot;:null}" id="ID0.8008110425435007" fill="#fbb750" stroke-width="1.22741"/></g></g></svg>