<svg version="1.1" xmlns="http://www.w3.org/2000/svg" xmlns:xlink="http://www.w3.org/1999/xlink" width="48.68412" height="58.2734" viewBox="0,0,48.68412,58.2734"><g transform="translate(-208.09794,-145.04266)"><g data-paper-data="{&quot;isPaintingLayer&quot;:true}" fill="none" fill-rule="nonzero" stroke="none" stroke-width="0.5" stroke-linecap="butt" stroke-linejoin="miter" stroke-miterlimit="10" stroke-dasharray="" stroke-dashoffset="0" font-family="none" font-weight="none" font-size="none" text-anchor="none" style="mix-blend-mode: normal"><path d="M225.66685,145.26677c2.31685,-0.93926 3.25611,1.37759 3.25611,1.37759l1.31405,-0.29618c0.31052,0.31052 0.62104,0.62104 0.93157,0.93157c3.69706,3.86118 5.52838,8.53535 6.83653,13.55611c0.36096,1.38538 0.73704,2.74755 1.09729,4.10289c1.09085,-3.79332 2.6013,-7.65809 5.27915,-10.17223c2.33872,-2.19574 5.4313,-3.18328 8.40347,-4.17175c0.48286,-0.39431 1.19285,-0.64955 2.20449,-0.35332c2.39926,0.70254 1.69671,3.1018 1.69671,3.1018l-2.14101,1.93533c-2.97324,0.99108 -6.79683,2.03995 -8.49282,4.94014c-1.65249,2.82579 -2.50767,7.3714 -3.31358,10.59503c-0.91657,3.60485 -2.01072,8.03135 -1.30189,11.77329c0.23571,1.24432 1.0467,2.33903 1.24346,3.5901c0.72385,4.6025 0,9.96027 0,14.63892c0,0 0,2.5 -2.5,2.5c-0.76438,0 -1.29504,-0.23371 -1.66346,-0.55821c-0.28287,0.14542 -0.63025,0.24788 -1.05671,0.28341c-2.49136,0.20761 -2.69898,-2.28375 -2.69898,-2.28375c-0.79776,-9.57312 1.71629,-20.40234 -3.52743,-29.02426c-3.33329,-5.71421 -8.86529,-9.56719 -14.38522,-12.9295c-1.50378,-0.91598 -3.78746,-3.01425 -5.66247,-2.74388l-1.33081,-0.13308c0,0 -3.16556,-3.40542 -0.99949,-4.65367c2.16607,-1.24825 1.49701,-0.32152 1.49701,-0.32152l1.33081,0.13308c3.00456,0.4894 5.09518,1.82659 7.64564,3.37785c5.84149,3.55295 11.58193,7.64993 15.39962,13.42623c-0.44701,-1.7692 -0.9507,-3.53633 -1.42275,-5.34419c-1.0862,-4.15994 -2.3178,-8.65117 -5.67309,-11.72929c-0.31052,-0.31052 -0.62104,-0.62104 -0.93157,-0.93157l-2.41222,-1.36083c0,0 -0.93926,-2.31685 1.37759,-3.25611z" fill="#427c4b"/><path d="M243.53472,152.00024c2.49976,0.03472 2.46504,2.53448 2.46504,2.53448l-1.8244,2.32162c-1.17193,4.68774 -1.29717,10.16484 1.21838,14.35742c0,0 1.28624,2.14373 -0.85749,3.42997c-1.24706,0.74823 -2.20394,0.33576 -2.78624,-0.1402l0,1.68091c0.04861,0.73876 -0.15789,1.75608 -1.44976,2.33491c-0.06015,0.02788 -0.12159,0.05344 -0.18421,0.07657c-0.29248,0.1123 -0.56271,0.17162 -0.81151,0.1899c0.54686,1.6805 0.89514,3.45318 0.94548,5.46417c0,3.58333 0,7.16667 0,10.75l0.53006,1.22465c0,0 1.02535,2.28006 -1.25471,3.30541c-2.28006,1.02535 -3.30541,-1.25471 -3.30541,-1.25471l-0.96994,-3.27535c0,-3.58333 0,-7.16667 0,-10.75c0.21603,-3.98204 -1.96934,-7.05868 -3.75,-10.40983c-1.55743,-2.93104 -2.9114,-6.23766 -5.31174,-8.638c-2.96832,-2.96832 -6.12597,-5.28578 -8.68826,-8.70217c0,0 -1.5,-2 0.5,-3.5c2,-1.5 3.5,0.5 3.5,0.5c2.3151,3.0868 5.12933,5.11542 7.81174,7.79783c0.26836,0.26836 0.5267,0.54242 0.77607,0.82165c-1.32731,-1.89871 -3.33407,-3.42563 -4.66794,-5.35773l-0.75,-1.125c0,0 -1.32854,-2.32537 0.8451,-3.56039c2.17364,-1.23502 3.31515,0.78689 3.31515,0.78689l0.75,1.125c0.69282,1.10653 1.58879,2.05767 2.49442,3.00249c-0.01059,-2.49939 -0.07455,-5.00127 -0.07455,-7.49074l0.00094,-0.31847c0,0 0.06847,-2.49906 2.56753,-2.43059c2.49906,0.06847 2.43059,2.56753 2.43059,2.56753l0.00094,0.18153c0,4.80731 0.21036,9.65293 -0.11996,14.44905c0.86057,1.76795 1.62706,3.62314 2.35958,5.47713c-1.26089,-4.43327 -1.01681,-9.37519 0.08502,-13.78252l1.6756,-1.17838c0,0 0.03472,-2.49976 2.53448,-2.46504zM240.7338,173.25h0.06411c-0.08501,-0.15435 -0.16754,-0.3099 -0.24761,-0.4666c0.06114,0.15596 0.12229,0.31151 0.1835,0.4666z" fill="#61b76e"/></g></g></svg>