<svg version="1.1" xmlns="http://www.w3.org/2000/svg" xmlns:xlink="http://www.w3.org/1999/xlink" width="69.33221" height="40.66805" viewBox="0,0,69.33221,40.66805"><g transform="translate(-197.19342,-154.91685)"><g data-paper-data="{&quot;isPaintingLayer&quot;:true}" fill="#217d00" fill-rule="nonzero" stroke="none" stroke-width="0.5" stroke-linecap="butt" stroke-linejoin="miter" stroke-miterlimit="10" stroke-dasharray="" stroke-dashoffset="0" font-family="none" font-weight="none" font-size="none" text-anchor="none" style="mix-blend-mode: normal"><path d="M221.84188,161.24615c2.06869,1.40375 -1.40375,4.56869 -1.40375,4.56869h-1.32754c-0.88503,0 -2.17011,0.74032 -2.65509,0c-0.22012,-0.33601 1.03174,-1.17964 0.67246,-1c-1.06782,0.53391 -1.34982,2.59246 -2.38958,3.18611c-0.1531,0.08741 -0.25269,-0.60873 -0.29653,-0.43796c-0.30907,1.20393 0.10132,2.49592 -0.05953,3.72843c-0.22114,1.69446 -0.65487,3.39254 -1.0633,5.08321c0.29891,1.00076 0.46352,2.04545 0.46352,3.1303c0,1.11948 -0.70802,2.12407 -1.06204,3.18611c0,0 -0.79057,2.37171 -3.16228,1.58114c-2.37171,-0.79057 -1.58114,-3.16228 -1.58114,-3.16228c0.13374,-0.40121 0.31799,-0.79421 0.49551,-1.18831c-0.84163,-0.89667 -0.57526,-2.22853 -0.57526,-2.22853c0.04722,-0.23612 0.09192,-0.47523 0.13463,-0.71688c-0.19142,-0.43404 -0.3831,-0.86637 -0.69738,-1.21373c-2.66462,-2.94504 -4.07049,-4.69858 -7.66215,-6.49441l-2.00203,-1.34775c0,0 -1.41933,-2.05803 0.6387,-3.47736c2.05803,-1.41933 3.47736,0.6387 3.47736,0.6387l0.12204,-0.28572c2.44124,1.22062 5.07402,2.93692 7.23866,5.06729c0.45318,-2.18221 1.13289,-4.25115 2.38773,-5.92427c0.53102,-0.70802 0.80146,-1.72827 1.59305,-2.12407c2.21677,-1.10838 3.75228,-1 5.98263,-1h1.32754c0,0 -0.66494,-0.97244 1.40375,0.43131z"/><path d="M253.68595,155.39352c2.08013,1.38675 0.69338,3.46688 0.69338,3.46688l-1.85592,2.35004c-1.41764,0.85058 -3.35793,2.46386 -5.11309,2.38415c-0.24479,-0.01112 -0.18836,-0.79151 -0.37476,-0.63244c-2.55968,2.18436 -1.79468,5.81801 -1.79468,8.84899c0,0 0,0.89364 -0.53428,1.61235c0.00226,0.17495 0.00327,0.34571 0.00327,0.51173c0,0 0,2.5 -2.5,2.5c-2.5,0 -2.5,-2.5 -2.5,-2.5c0,-2.58389 -0.17012,-6.96197 -2.68611,-8.58934c-1.07105,-0.69277 -3.00729,-1.00707 -4.27916,-1.88958l-1.06204,-0.79653c0,0 -1.97309,-2.66154 0.09422,-4.06732c2.06732,-1.40578 2.90578,0.06732 2.90578,0.06732l1.06204,0.79653c1.44874,1.32112 3.66761,1.7232 5.27916,2.88958c0.04302,0.03114 0.08555,0.06287 0.12759,0.0952c0.36719,-0.74666 0.86662,-1.41397 1.543,-1.95961c2.02476,-1.63338 4.99705,-2.20276 7.25658,-3.55847l0.26815,-0.83607c0,0 1.38675,-2.08013 3.46688,-0.69338z"/><path d="M266.27198,184.08453c1.00205,2.29039 -1.28835,3.29244 -1.28835,3.29244l-1.57379,0.16106c-2.58956,0.51791 -4.27317,1.65215 -6.42454,3.26567c0,0 -1.65316,1.23987 -3.08073,-0.03787c-0.21781,0.15991 -0.4859,0.29995 -0.8148,0.40958c-0.1239,0.0413 -0.24349,0.07397 -0.35887,0.0988c0.11992,0.32336 0.23545,0.65254 0.34696,0.98707c0,0 0.79057,2.37171 -1.58114,3.16228c-2.37171,0.79057 -3.16228,-1.58114 -3.16228,-1.58114c-0.73818,-2.21453 -1.85615,-5.24329 -3.87643,-6.72482c-0.26458,-0.19402 -2.60914,-0.06204 -3.31018,-0.06204l-2.01402,0.57468c0,0 -2.01264,-1.483 -0.52964,-3.49564c1.483,-2.01264 3.49564,-0.52964 3.49564,-0.52964l-0.95198,-1.5494c3.44104,0 5.97288,1.12475 7.89038,3.02622c-0.13889,-3.83134 1.6213,-6.91727 6.04965,-8.68861l-0.43616,0.69771c0.48133,-0.59535 1.40574,-1.29537 2.8658,-0.6806c2.30409,0.97014 1.33395,3.27423 1.33395,3.27423l-1.90663,1.35105c-0.49574,0.19829 -1.153,-0.0749 -1.58357,0.24084c-1.85432,1.35982 -1.6945,3.32705 -1.12769,5.342c2.62067,-1.94658 4.91058,-3.32624 8.19572,-3.98327l0.55028,0.16106c0,0 2.29039,-1.00205 3.29244,1.28835z"/></g></g></svg>