<svg version="1.1" xmlns="http://www.w3.org/2000/svg" xmlns:xlink="http://www.w3.org/1999/xlink" width="114.38673" height="83.03303" viewBox="0,0,114.38673,83.03303"><g transform="translate(-199.85493,-135.23083)"><g data-paper-data="{&quot;isPaintingLayer&quot;:true}" fill="#82a9d0" fill-rule="nonzero" stroke="none" stroke-width="0.5" stroke-linecap="butt" stroke-linejoin="miter" stroke-miterlimit="10" stroke-dasharray="" stroke-dashoffset="0" font-family="none" font-weight="none" font-size="none" text-anchor="none" style="mix-blend-mode: normal"><path d="M201.97598,166.28903c0.02077,-0.61153 0.29016,-1.2984 1.14486,-1.86821c2.08013,-1.38675 3.46688,0.69338 3.46688,0.69338l-0.00449,0.19163c1.91391,-0.47032 3.76454,-1.06846 5.68517,-1.60272c6.26054,-1.74148 12.98009,-2.76865 18.69119,-6.0934c1.42764,-0.83111 1.93857,-5.19512 1.84704,-6.77379c0,-2.75988 -1.06204,-5.34793 -1.06204,-8.23078c0,-1.06204 -0.45156,-2.22485 0,-3.18611c0.11651,-0.24802 1.97917,-3.21142 3.12407,-3.59305c2.75567,-0.91856 6.07343,-0.5 8.93425,-0.5c1.36532,0 3.49598,-0.10187 4.73843,0.57957c3.04935,1.67244 4.78013,4.53986 6.07904,7.62968c0.88604,2.2151 2.22257,5.08618 3.632,6.97918c0.37784,0.50747 3.08595,1.71438 3.82933,2.16041c4.28843,2.57306 11.56017,3.90425 16.54358,2.61288c4.22457,-0.84491 7.84429,-1.37609 12.17268,-1.37609c1.07706,0 2.96819,-0.33815 3.98263,0c4.28242,1.42747 7.30451,5.0355 8.74392,9.14368c0.74089,2.11455 0.65931,4.15809 0.65931,6.36626c0,3.46557 -1.20575,6.29013 0.40273,9.56428c0.91319,1.85885 3.55228,2.68354 4.96949,4.10075c4.22379,4.22379 6.04023,9.62041 3.56433,15.23414c-3.36837,5.61395 -8.99942,4.57012 -14.50263,3.56933c-1.40416,-0.25536 -3.45018,-0.96304 -4.89918,-0.497c-0.24063,0.07739 -2.12489,2.08452 -2.48038,2.45387c-2.42849,2.52328 -4.95791,4.95791 -7.43425,7.43425c-2.27817,2.27817 -6.36826,6.60863 -9.86659,6.92564c-5.59375,0.50689 -10.36092,-2.51512 -15.75625,-3.05585c-2.93903,-0.29456 -6.5197,0.74722 -9.37427,1.32754c-1.25021,0.25004 -3.22631,0.72959 -4.47292,0.31406c-10.03522,-3.34507 -1.29125,-14.93112 -4.59006,-21.73666c-0.06808,-0.14044 -0.22638,0.36869 -0.36382,0.29473c-0.44087,-0.23725 -0.61975,-0.82745 -1.06204,-1.06204c-0.25159,-0.13344 0.65988,0.55097 0.44022,0.73223c-0.68262,0.56331 -1.77006,0 -2.65509,0c-4.77901,0 -9.04423,3.0792 -13.1435,5.13137c-1.66178,0.83192 -3.71202,2.63973 -5.74836,2.25433c-2.57531,-0.48741 -4.18208,-1.61832 -5.97518,-3.33877c-1.23047,-1.18062 -2.39208,-2.52451 -3.37051,-3.92315c-1.40769,-2.01224 -1.8026,-3.06252 -2.14088,-5.54437c0,-2.10754 1.50609,-5.14324 1.11058,-7.12801c-0.06451,-0.32374 -0.01721,0.96668 -0.34508,0.92825c-0.43951,-0.0515 -0.50492,-0.72919 -0.79653,-1.06204c-1.04293,-1.1904 -2.83306,-2.00588 -3.74814,-3.21712c-3.02981,-4.01039 -2.54347,-8.90881 0.03042,-12.83228z"/></g></g></svg>