<svg version="1.1" xmlns="http://www.w3.org/2000/svg" xmlns:xlink="http://www.w3.org/1999/xlink" width="96.62128" height="40.76407" viewBox="0,0,96.62128,40.76407"><g transform="translate(-187.07706,-153.8497)"><g data-paper-data="{&quot;isPaintingLayer&quot;:true}" fill="none" fill-rule="nonzero" stroke="none" stroke-width="0.5" stroke-linecap="butt" stroke-linejoin="miter" stroke-miterlimit="10" stroke-dasharray="" stroke-dashoffset="0" font-family="none" font-weight="none" font-size="none" text-anchor="none" style="mix-blend-mode: normal"><path d="M223.10453,170.96371c0,0 2.44047,0.54233 1.89814,2.98279c-0.04687,0.21089 -0.10791,0.39951 -0.18032,0.56813c0.23563,-0.02822 0.46954,-0.06408 0.70118,-0.1103c4.79077,-0.95583 9.77417,-2.22499 14.56226,-2.96915c2.40567,-0.37388 4.76093,-0.25827 7.20947,-0.74798c2.66958,-0.5314 5.14808,-1.21581 7.77905,-1.8731c0.67852,-0.16951 1.44347,0.18374 2.0971,-0.06503c1.16567,-0.44365 1.99437,-1.5372 3.13378,-2.04451c4.76227,-2.12034 11.23044,-3.23466 16.42082,-3.23466c0,0 1.06515,0 1.80493,0.69526c-0.01115,-0.54971 -0.05679,-1.17286 -0.05679,-1.91238c0,-0.30162 0,-0.60324 0,-0.90487c-0.82881,-0.25558 -3.47447,-1.44743 -3.73865,-1.5531c-2.54639,-1.01856 -4.26959,-0.88323 -7.03679,-0.88323c-0.51918,0 -1.05094,0 -1.59305,0c-4.17504,0 -8.96383,0 -13.34446,0c1.02194,0.07966 2.04653,0.188 3.07766,0.3353c0,0 2.47487,0.35355 2.12132,2.82843c-0.35355,2.47487 -2.82843,2.12132 -2.82843,2.12132c-3.80252,-0.54322 -7.49128,-0.50589 -11.32884,-0.50589l-1.69297,-0.002c0,0 -2.498,-0.09992 -2.39808,-2.59792c0.06429,-1.60723 1.12131,-2.13899 1.867,-2.31387c-0.80738,0.05322 -1.59131,0.16009 -2.33032,0.35159c-4.44729,0.88946 -9.75602,1.34953 -14.13416,3.28083c6.18627,0.04354 11.99537,1.02316 18.08723,2.16538c0,0 2.45718,0.46072 1.99646,2.9179c-0.46072,2.45718 -2.9179,1.99646 -2.9179,1.99646c-5.93384,-1.11259 -11.55737,-2.08125 -17.59388,-2.08125l-1.33811,-0.01529c0,0 -2.31576,-0.25731 -2.22759,-2.51075c-1.68804,1.40168 -3.18113,3.01511 -4.66173,4.64781c2.22073,0.45384 4.43237,0.9422 6.64569,1.43405zM214.63766,174.26258l-1.53723,0.01051c0,0 -0.41105,-0.07254 -0.86759,-0.32629c-2.64088,2.38777 -5.65289,4.15224 -8.75121,5.78264c3.6397,-0.61059 7.29796,-1.13882 10.85575,-2.32475c1.6933,-0.4676 2.90715,-1.55238 4.54842,-2.20381c0.02585,-0.01026 0.05173,-0.02032 0.07765,-0.03019c-1.43948,-0.31335 -2.88038,-0.61902 -4.3258,-0.9081zM254.05165,183.94855c-2.04808,-1.43366 -0.61442,-3.48174 -0.61442,-3.48174l1.11012,-0.59736c1.06548,-1.42064 1.66247,-2.52908 2.3339,-4.20764c0,0 0.92848,-2.32119 3.24967,-1.39272c2.32119,0.92848 1.39272,3.24967 1.39272,3.24967c-0.7199,1.79974 -1.49292,3.27572 -2.58618,4.81628c6.29999,-3.82386 11.91055,-8.61148 17.09967,-13.85747c-4.73446,0.10361 -10.51477,1.25526 -14.75134,3.12992c-0.48629,0.21518 -0.62201,0.94067 -1.11436,1.1416c-2.92185,1.19245 -6.30237,1.79729 -9.51248,2.38811c0.12612,0.10853 0.25137,0.23563 0.37471,0.38365c1.60046,1.92055 -0.32009,3.52101 -0.32009,3.52101c-2.55089,2.12574 -4.881,4.46138 -7.53471,6.45166l-1.439,1.46765c0,0 -1.87459,1.65405 -3.52865,-0.22054c-1.65405,-1.87459 0.22054,-3.52865 0.22054,-3.52865l1.74711,-1.71846c2.32114,-1.74086 4.38821,-3.76444 6.58848,-5.66063c-2.23943,0.2831 -4.44838,0.26434 -6.68153,0.60231c-1.26544,0.19151 -2.70384,1.0063 -4.02336,1.279c-3.16286,0.65364 -6.38888,0.95753 -9.55832,1.59305c-2.15574,0.43226 -4.56467,-0.04458 -6.63772,0.79653c-1.32487,0.53754 -2.49131,1.51505 -3.94786,2.04433c-2.65146,0.88382 -5.36483,1.39424 -8.08278,1.84722c4.66993,0.30254 9.33595,0.8067 13.89268,1.52662c0.49755,0.07977 0.98874,0.16887 1.47447,0.26556c-0.19185,-1.52384 1.25917,-2.31365 1.25917,-2.31365l1.32754,-0.79653c1.5281,-0.90809 3.09245,-1.68721 4.68186,-2.48192c0,0 2.23607,-1.11803 3.3541,1.11803c1.11803,2.23607 -1.11803,3.3541 -1.11803,3.3541c-1.47257,0.73628 -2.93798,1.44234 -4.34545,2.29724l-0.11965,0.07179c5.06714,1.42617 9.85337,3.0252 15.56047,2.45322c3.23293,-0.32401 5.74527,-2.57777 8.80252,-3.40307c1.08899,-0.2178 2.11133,-0.90226 3.13211,-1.64191c-0.48858,0.05538 -1.0584,-0.05704 -1.6859,-0.49629zM280.57509,156.74551c1.05834,0.84715 2.12646,1.73829 2.89907,2.85221c0.5044,0.72723 0,1.77006 0,2.65509c0,3.01814 -0.0543,5.869 -2.32529,8.13998c-6.45931,6.28671 -12.83952,12.27571 -20.6602,16.83752c-2.24555,1.30983 -4.33733,3.24627 -6.90265,3.75934c-1.19498,-0.09489 -2.52643,1.21977 -3.54445,1.7283c-1.91451,0.95635 -4.11029,1.55935 -6.23865,1.77186c-8.33815,0.83254 -14.9032,-2.75428 -22.866,-4.03091c-7.81331,-1.27421 -15.9519,-1.81029 -23.86357,-1.81029c-1.88626,0 -3.84232,0.1349 -5.72118,-0.03402c-0.53618,-0.0482 -1.24308,0.14356 -1.59305,-0.26551c-1.17856,-1.37757 -1.78804,-3.15433 -2.68206,-4.73149l1.06204,-0.79653c6.86629,-5.06044 15.42809,-7.23285 21.50396,-13.30872c3.16536,-3.16536 5.96362,-6.6441 9.50883,-9.40327c5.17483,-4.02747 12.93044,-4.64628 19.11606,-5.88341c3.37426,-0.58295 6.89181,-0.31406 10.31412,-0.31406c5.8412,0 11.68239,0 17.52359,0c0.53102,0 1.06204,0 1.59305,0c4.044,0 9.49329,0.12588 12.87638,2.8339z" fill="#358544"/><path d="M219.01234,175.16015c-0.02592,0.00987 -0.05179,0.02001 -0.07764,0.03027c-1.64127,0.65144 -2.85483,1.75561 -4.54813,2.22321c-3.55779,1.18593 -7.31208,1.7227 -10.95178,2.3333c3.09833,-1.6304 6.17367,-3.45956 8.81455,-5.84734c0.45654,0.25375 0.88063,0.33315 0.88063,0.33315l1.54761,-0.00027c1.44541,0.28908 2.89528,0.61433 4.33476,0.92768z" data-paper-data="{&quot;noHover&quot;:false,&quot;origItem&quot;:[&quot;Path&quot;,{&quot;applyMatrix&quot;:true,&quot;segments&quot;:[[[214.63766,174.26258],[1.44541,0.28908],[0,0]],[213.10043,174.27309],[[212.23285,173.9468],[0.45654,0.25375],[-2.64088,2.38777]],[[203.48163,179.72944],[3.09833,-1.6304],[3.6397,-0.61059]],[[214.33738,177.40469],[-3.55779,1.18593],[1.6933,-0.4676]],[[218.8858,175.20087],[-1.64127,0.65144],[0.02585,-0.01026]],[[218.96346,175.17068],[-0.02592,0.00987],[-1.43948,-0.31335]]],&quot;closed&quot;:true}]}" fill="#189f31"/><path d="M255.78411,184.46306c-1.02079,0.73965 -2.04795,1.43343 -3.13695,1.65123c-3.05725,0.82529 -5.60252,3.10073 -8.83545,3.42474c-5.7071,0.57198 -10.54531,-1.05107 -15.61245,-2.47723l0.20602,-0.1222c1.40747,-0.85491 2.787,-1.50974 4.25957,-2.24602c0,0 2.23061,-1.13058 1.11258,-3.36665c-1.11803,-2.23607 -3.2562,-1.13651 -3.2562,-1.13651c-1.58941,0.7947 -3.15473,1.56785 -4.68283,2.47594l-1.32786,0.79522c0,0 -1.45244,0.78516 -1.26059,2.309c-0.48573,-0.0967 -1.07158,-0.15359 -1.56913,-0.23336c-4.55673,-0.71992 -9.22462,-1.23216 -13.89455,-1.5347c2.71795,-0.45298 5.43115,-0.96466 8.08261,-1.84848c1.45655,-0.52928 2.6227,-1.51031 3.94757,-2.04785c2.07306,-0.84111 4.48193,-0.36581 6.63767,-0.79807c3.16944,-0.63552 6.39668,-0.9513 9.55955,-1.60494c1.31952,-0.27269 2.77775,-1.11723 4.04319,-1.30874c2.23315,-0.33797 4.51268,-0.30611 6.75211,-0.58921c-2.20027,1.89619 -4.33812,3.98808 -6.65927,5.72893l-1.68579,1.63956c0,0 -1.88499,1.64732 -0.23093,3.52191c1.65405,1.87459 3.50811,0.21556 3.50811,0.21556l1.4283,-1.46676c2.65371,-1.99028 4.94328,-4.27681 7.49417,-6.40256c0,0 1.92393,-1.58242 0.32347,-3.50297c-0.12334,-0.14801 -0.15633,-0.3136 -0.28245,-0.42213c3.21011,-0.59082 6.49773,-1.15891 9.41958,-2.35136c0.49235,-0.20094 0.722,-0.96067 1.2083,-1.17585c4.23657,-1.87466 10.01797,-3.02317 14.75243,-3.12678c-5.18913,5.24599 -10.79836,10.05792 -17.09835,13.88178c1.09326,-1.54057 1.76735,-3.02217 2.48724,-4.82191c0,0 0.92996,-2.31238 -1.39123,-3.24086c-2.32119,-0.92848 -3.15254,1.36899 -3.15254,1.36899c-0.67142,1.67856 -1.26729,2.8013 -2.33277,4.22194l-1.11039,0.60024c0,0 -1.43693,2.0607 0.61115,3.49436c0.6275,0.43925 1.19753,0.55112 1.68612,0.49574z" data-paper-data="{&quot;noHover&quot;:false,&quot;origItem&quot;:[&quot;Path&quot;,{&quot;applyMatrix&quot;:true,&quot;segments&quot;:[[[254.05165,183.94855],[0.6275,0.43925],[-2.04808,-1.43366]],[253.43722,180.46681],[[254.54734,179.86945],[0,0],[1.06548,-1.42064]],[[256.88124,175.66181],[-0.67142,1.67856],[0,0]],[[260.1309,174.2691],[-2.32119,-0.92848],[2.32119,0.92848]],[[261.52362,177.51877],[0,0],[-0.7199,1.79974]],[[258.93744,182.33505],[1.09326,-1.54057],[6.29999,-3.82386]],[[276.03711,168.47758],[-5.18913,5.24599],[-4.73446,0.10361]],[[261.28577,171.60749],[4.23657,-1.87466],[-0.48629,0.21518]],[[260.17141,172.74909],[0.49235,-0.20094],[-2.92185,1.19245]],[[250.65893,175.1372],[3.21011,-0.59082],[0.12612,0.10853]],[[251.03364,175.52085],[-0.12334,-0.14801],[1.60046,1.92055]],[[250.71355,179.04186],[0,0],[-2.55089,2.12574]],[[243.17884,185.49352],[2.65371,-1.99028],[0,0]],[241.73984,186.96117],[[238.21119,186.74063],[1.65405,1.87459],[-1.65405,-1.87459]],[238.43173,183.21198],[[240.17884,181.49352],[0,0],[2.32114,-1.74086]],[[246.76732,175.83289],[-2.20027,1.89619],[-2.23943,0.2831]],[[240.08579,176.4352],[2.23315,-0.33797],[-1.26544,0.19151]],[[236.06243,177.7142],[1.31952,-0.27269],[-3.16286,0.65364]],[[226.50411,179.30725],[3.16944,-0.63552],[-2.15574,0.43226]],[[219.86638,180.10378],[2.07306,-0.84111],[-1.32487,0.53754]],[[215.91852,182.1481],[1.45655,-0.52928],[-2.65146,0.88382]],[[207.83574,183.99533],[2.71795,-0.45298],[4.66993,0.30254]],[[221.72842,185.52195],[-4.55673,-0.71992],[0.49755,0.07977]],[[223.2029,185.78751],[-0.48573,-0.0967],[-0.19185,-1.52384]],[224.46207,183.47386],[[225.78961,182.67733],[0,0],[1.5281,-0.90809]],[[230.47147,180.19542],[-1.58941,0.7947],[0,0]],[[233.82557,181.31345],[-1.11803,-2.23607],[1.11803,2.23607]],[[232.70754,184.66755],[0,0],[-1.47257,0.73628]],[[228.36209,186.9648],[1.40747,-0.85491],[0,0]],[[228.24244,187.03659],[0,0],[5.06714,1.42617]],[[243.80291,189.48981],[-5.7071,0.57198],[3.23293,-0.32401]],[[252.60543,186.08674],[-3.05725,0.82529],[1.08899,-0.2178]],[[255.73755,184.44483],[-1.02079,0.73965],[-0.48858,0.05538]]],&quot;closed&quot;:true}]}" fill="#189f31"/><path d="M216.40905,169.53429c1.48061,-1.6327 2.97359,-3.25409 4.66163,-4.65577c-0.08817,2.25344 2.32745,2.51254 2.32745,2.51254l1.33811,0.01517c6.03651,0 11.65398,0.94639 17.58781,2.05899c0,0 2.36637,0.50195 2.82709,-1.95523c0.46072,-2.45718 -1.90451,-2.91348 -1.90451,-2.91348c-6.09186,-1.14222 -11.99511,-2.15287 -18.18139,-2.19641c4.37814,-1.93131 9.69904,-2.41576 14.14634,-3.30522c0.73901,-0.1915 1.58994,-0.22472 2.39732,-0.27794c-0.74568,0.17487 -1.79206,0.69572 -1.85635,2.30295c-0.09992,2.498 2.31356,2.54481 2.31356,2.54481l1.69776,-0.00518c3.83756,0 7.61297,-0.02135 11.41549,0.52187c0,0 2.38144,0.38883 2.73499,-2.08604c0.35355,-2.47487 -2.11291,-2.81527 -2.11291,-2.81527c-1.03113,-0.1473 -1.99016,-0.33014 -3.01211,-0.40981c4.38063,0 9.18746,0.02214 13.36249,0.02214c0.54211,0 1.0744,0.00131 1.59358,0.00131c2.7672,0 4.4922,-0.12965 7.03858,0.88891c0.26419,0.10567 2.91064,1.30129 3.73945,1.55687c0,0.30162 0.00022,0.60465 0.00022,0.90627c0,0.73953 0.04598,1.36571 0.05713,1.91542c-0.73978,-0.69526 -1.90448,-0.68588 -1.90448,-0.68588c-5.19039,0 -11.55884,1.10915 -16.32112,3.22948c-1.13941,0.50731 -1.96925,1.61124 -3.13492,2.0549c-0.65363,0.24877 -1.41937,-0.10135 -2.09789,0.06817c-2.63098,0.65729 -5.16,1.37788 -7.82959,1.90928c-2.44853,0.48971 -4.84332,0.3513 -7.24899,0.72518c-4.78809,0.74415 -9.77665,2.00282 -14.56742,2.95865c-0.23164,0.04622 -0.46564,0.08182 -0.70127,0.11004c0.07241,-0.16862 0.13313,-0.3582 0.18,-0.56909c0.54233,-2.44047 -1.89982,-2.98951 -1.89982,-2.98951c-2.21332,-0.49185 -4.42551,-0.9843 -6.64624,-1.43814z" data-paper-data="{&quot;noHover&quot;:false,&quot;origItem&quot;:[&quot;Path&quot;,{&quot;applyMatrix&quot;:true,&quot;segments&quot;:[[[223.10453,170.96371],[-2.21332,-0.49185],[0,0]],[[225.00267,173.94651],[0.54233,-2.44047],[-0.04687,0.21089]],[[224.82235,174.51464],[0.07241,-0.16862],[0.23563,-0.02822]],[[225.52352,174.40435],[-0.23164,0.04622],[4.79077,-0.95583]],[[240.08579,171.4352],[-4.78809,0.74415],[2.40567,-0.37388]],[[247.29525,170.68722],[-2.44853,0.48971],[2.66958,-0.5314]],[[255.07431,168.81413],[-2.63098,0.65729],[0.67852,-0.16951]],[[257.17141,168.74909],[-0.65363,0.24877],[1.16567,-0.44365]],[[260.30519,166.70459],[-1.13941,0.50731],[4.76227,-2.12034]],[[276.72602,163.46993],[-5.19039,0],[0,0]],[[278.53095,164.16519],[-0.73978,-0.69526],[-0.01115,-0.54971]],[[278.47416,162.25281],[0,0.73953],[0,-0.30162]],[[278.47416,161.34794],[0,0.30162],[-0.82881,-0.25558]],[[274.7355,159.79484],[0.26419,0.10567],[-2.54639,-1.01856]],[[267.69871,158.91161],[2.7672,0],[-0.51918,0]],[[266.10566,158.91161],[0.54211,0],[-4.17504,0]],[[252.7612,158.91161],[4.38063,0],[1.02194,0.07966]],[[255.83886,159.24692],[-1.03113,-0.1473],[0,0]],[[257.96018,162.07534],[0.35355,-2.47487],[-0.35355,2.47487]],[[255.13175,164.19666],[0,0],[-3.80252,-0.54322]],[[243.80291,163.69077],[3.83756,0],[0,0]],[242.10994,163.68878],[[239.71186,161.09085],[-0.09992,2.498],[0.06429,-1.60723]],[[241.57885,158.77698],[-0.74568,0.17487],[-0.80738,0.05322]],[[239.24853,159.12857],[0.73901,-0.1915],[-4.44729,0.88946]],[[225.11437,162.40941],[4.37814,-1.93131],[6.18627,0.04354]],[[243.2016,164.57479],[-6.09186,-1.14222],[0,0]],[[245.19806,167.49269],[0.46072,-2.45718],[-0.46072,2.45718]],[[242.28015,169.48915],[0,0],[-5.93384,-1.11259]],[[224.68627,167.4079],[6.03651,0],[0,0]],[223.34816,167.39261],[[221.12057,164.88186],[-0.08817,2.25344],[-1.68804,1.40168]],[[216.45883,169.52966],[1.48061,-1.6327],[2.22073,0.45384]]],&quot;closed&quot;:true}]}" fill="#189f31"/><path d="M233.48543,162.46805c0.8468,-2.35222 2.35222,-1.6532 2.35222,-1.6532h1.32754c5.16211,0.13786 9.38825,2.23442 13.4479,5.27916c0,0 2,1.5 0.5,3.5c-1.5,2 -3.5,0.5 -3.5,0.5c-3.0112,-2.2584 -6.5024,-4.50794 -10.4479,-4.27916h-1.32754c0,0 -3.19902,-0.99458 -2.35222,-3.3468z" fill="#4cb25f"/><path d="M253.51978,160.52836c0.1314,-2.49654 2.62794,-2.36515 2.62794,-2.36515l1.46166,-0.00346c3.06099,0 5.97637,-0.02248 8.98658,0.57957c0,0 2.45145,0.49029 1.96116,2.94174c-0.49029,2.45145 -2.94174,1.96116 -2.94174,1.96116c-2.70138,-0.54028 -5.25188,-0.48247 -8.00599,-0.48247l-1.72445,-0.00346c0,0 -2.49654,-0.1314 -2.36515,-2.62794z" fill="#4cb25f"/><path d="M222.72216,169.53111c0.15595,-2.49513 1.56665,-2.16525 1.56665,-2.16525l1.32754,-0.53102c3.46082,-0.83332 5.57588,-0.09245 8.88779,1.01152c0,0 2.37171,0.79057 1.58114,3.16228c-0.79057,2.37171 -3.16228,1.58114 -3.16228,1.58114c-0.6758,-0.22527 -5.64404,-1.96633 -5.44969,-1.11255l-1.32754,0.53102c0,0 -3.57955,0.01799 -3.42361,-2.47714z" fill="#4cb25f"/><path d="M271.78831,174.86584c0.1314,2.49654 -2.36515,2.62794 -2.36515,2.62794l-2.25547,0.53447c-1.77006,0 -3.54012,0 -5.31018,0c0,0 -2.65509,0 -2.65509,0c-0.31597,0 -0.61826,-0.05862 -0.89657,-0.16558c-0.71716,-0.24366 -1.60343,-0.84591 -1.60343,-2.33442c0,-1.48852 0.88627,-2.09076 1.60343,-2.33442c0.00737,-0.00283 0.01476,-0.00563 0.02216,-0.00839l2.60102,-1.04041l0.35329,0.88323c0.19173,0 0.38346,0 0.57519,0c1.77006,0 3.54012,0 5.31018,0l1.99267,-0.52756c0,0 2.49654,-0.1314 2.62794,2.36515z" fill="#4cb25f"/><path d="M250.33021,177.12131c0,-1.38071 1.11929,-2.5 2.5,-2.5c1.38071,0 2.5,1.11929 2.5,2.5c0,1.38071 -1.11929,2.5 -2.5,2.5c-1.38071,0 -2.5,-1.11929 -2.5,-2.5z" fill="#4cb25f"/><path d="M240.6168,177.2764c1.38071,0 2.5,1.11929 2.5,2.5c0,0.86585 -0.44017,1.62889 -1.10895,2.07757c-0.22561,1.14883 -1.23814,2.01549 -2.45308,2.01549c-0.86585,0 -1.62889,-0.44017 -2.07757,-1.10895c-1.14883,-0.22561 -2.01549,-1.23814 -2.01549,-2.45308c0,-1.38071 1.11929,-2.5 2.5,-2.5c0.3233,0 0.63227,0.06137 0.91589,0.1731c0.44998,-0.43586 1.06326,-0.70411 1.7392,-0.70411z" fill="#4cb25f"/><path d="M241.83393,173.40418c0,-1.38071 1.11929,-2.5 2.5,-2.5c1.38071,0 2.5,1.11929 2.5,2.5c0,1.38071 -1.11929,2.5 -2.5,2.5c-1.38071,0 -2.5,-1.11929 -2.5,-2.5z" fill="#4cb25f"/></g></g></svg>