<svg version="1.1" xmlns="http://www.w3.org/2000/svg" xmlns:xlink="http://www.w3.org/1999/xlink" width="82.40677" height="47.80576" viewBox="0,0,82.40677,47.80576"><g transform="translate(-189.32407,-154.81148)"><g data-paper-data="{&quot;isPaintingLayer&quot;:true}" fill="none" fill-rule="nonzero" stroke="none" stroke-width="0.5" stroke-linecap="butt" stroke-linejoin="miter" stroke-miterlimit="10" stroke-dasharray="" stroke-dashoffset="0" font-family="none" font-weight="none" font-size="none" text-anchor="none" style="mix-blend-mode: normal"><path d="M209.1554,179.90894c0,-1.51878 1.23122,-2.75 2.75,-2.75c1.51878,0 2.75,1.23122 2.75,2.75c0,0.22794 -0.02773,0.4494 -0.08001,0.6612c2.65854,-1.28583 5.30545,-2.59232 8.0216,-3.75802c-2.02456,-0.96525 -4.06055,-1.81551 -6.20731,-2.5311l-2.43955,0.01029c0,0 -1.59429,-0.51017 -1.89713,-1.97831c-1.00657,0.92232 -1.94643,1.89592 -2.73331,2.95105c-2.69203,3.60974 -4.87449,7.52942 -7.11376,11.42115c2.08407,-1.18372 4.15679,-2.39183 6.35105,-3.33223c0.72676,-0.31104 1.44838,-0.63217 2.16639,-0.9603c-0.92724,-0.44206 -1.568,-1.38806 -1.568,-2.48373zM218.12894,169.06327c2.83819,0.94606 5.51036,2.10652 8.18517,3.44392c0,0 1.51909,0.75955 1.57274,2.27864c2.74331,-0.93786 5.56208,-1.75807 8.36259,-2.54531c-2.81546,-1.89849 -5.55889,-3.90038 -8.74007,-4.96078l-2.0854,-0.60153c0,0 -1.02279,-0.55286 -1.37882,-1.60466c-2.5308,0.61287 -5.14999,1.27809 -7.08451,3.15136c-0.33084,0.2757 -0.66918,0.5518 -1.01192,0.82939zM243.19955,170.03615c0,0 0.10378,0.05189 0.25804,0.15566c2.76722,-0.85919 5.41211,-1.85456 8.14115,-2.83492c0.1034,-0.03714 0.20627,-0.07378 0.30863,-0.10995c-3.12345,-1.3896 -6.34055,-2.59669 -9.57176,-3.67376l-0.93618,-0.04024c0,0 -0.48597,-0.18581 -0.95432,-0.60717c-2.74491,0.06011 -5.34927,0.20831 -7.9709,0.52615c3.70019,1.934 6.93089,4.68699 10.72535,6.58422zM257.61394,163.85855c0,0 0.68295,0.34147 1.14918,1.02442c1.93155,-0.79399 3.74489,-1.80262 5.58332,-3.45562c-0.08522,-0.05406 -0.17333,-0.10072 -0.26624,-0.13457c-0.66164,-0.24105 -2.54464,-0.16818 -3.34885,-0.28307c-3.50644,-0.50092 -6.96365,-0.83699 -10.52485,-0.59012c-0.10867,0.00753 -0.21756,0.01666 -0.32664,0.02728c2.62997,1.02613 5.22175,2.15552 7.73408,3.41168zM246.79891,199.44467l-0.43447,0.44889c0,0 -1.38161,2.22259 -3.61743,0.98362c-2.15248,0.71409 -4.37039,1.27555 -6.13122,1.55008c-5.06991,0.79047 -9.65463,-1.09069 -14.45465,-1.8907c-4.19732,-0.90278 -9.2639,-0.1685 -13.55046,-0.1685c-5.64172,0 -10.93268,-0.69523 -16.48706,-1.61202c-0.55795,0.02789 -1.19202,-0.11735 -1.77581,-0.66555c-0.42368,-0.3188 -0.81398,-0.79855 -0.93539,-1.51171c-0.19333,-0.69711 -0.04405,-1.29728 0.20389,-1.76597c0.36403,-0.91762 1.05756,-1.3135 1.68324,-1.47664c0.79342,-0.99233 1.54842,-1.94798 2.25596,-3.0093c1.10277,-1.65415 2.90788,-3.48125 3.79766,-5.10996c2.57634,-4.7159 4.79026,-9.47431 8.07745,-13.84195c2.1393,-2.84246 5.29512,-5.1137 8.00899,-7.37526c7.57522,-5.90455 17.81515,-6.534 27.1985,-6.60107l-0.0314,-0.36643c0.75681,-0.15136 1.51371,-0.33695 2.27143,-0.53508l0.44024,-0.52829l0.37397,0.31164c2.15686,-0.58113 4.32255,-1.20096 6.51416,-1.36087c4.70244,-0.34311 9.56434,0.16311 14.18554,1.05724c4.47858,0.86654 8.64114,4.09679 6.95613,9.15183c-1.50873,4.00514 -1.65107,8.51763 -3.75621,12.3798c-0.21406,0.39273 -0.89366,0.38777 -1.08217,0.79339c-0.48643,1.0467 -0.32923,2.30346 -0.73675,3.38332c-1.77804,4.71151 -5.70719,9.75349 -10.21831,12.00905c-2.68504,1.2747 -4.78148,3.43716 -7.36149,4.88536c-0.3902,0.21902 -0.81459,0.43639 -1.26519,0.65005c-0.04309,0.07166 -0.08614,0.14334 -0.12915,0.21504zM236.25956,195.98367c-2.48401,-1.17991 -1.30411,-3.66392 -1.30411,-3.66392l0.92002,-1.00816c2.70964,-4.74187 4.31338,-10.17046 6.7449,-15.14249c-5.80149,1.64156 -11.93671,3.20877 -17.49016,5.52504c-4.88739,2.03846 -9.52933,4.6207 -14.40666,6.71413c-3.29732,1.41314 -6.31726,3.47282 -9.53168,5.08002l-0.96654,0.89007c0,0 -0.16564,0.07128 -0.43034,0.13491c1.12858,0.16605 2.25911,0.29994 3.39102,0.37602c0.61732,0.04149 1.23622,0.06885 1.85637,0.08515c-0.10262,-1.72373 1.87499,-2.84814 1.87499,-2.84814l1.23552,-0.41184c4.31391,-1.29439 7.62304,-4.64936 11.28756,-7.09238c0,0 2.28814,-1.52543 3.81356,0.76271c0.83121,1.24681 0.5301,2.26716 0.08387,2.93764l1.48679,-1.05699c3.60439,-1.54474 5.61795,-3.69246 7.90599,-6.89571c0,0 1.59841,-2.23777 3.83617,-0.63936c2.23777,1.59841 0.63936,3.83617 0.63936,3.83617c-2.86154,4.00616 -5.65121,6.79831 -10.21497,8.7542l-0.9543,0.80718c0,0 -2.09931,1.77634 -3.87565,-0.32297c-1.12313,-1.32734 -0.6969,-2.52556 -0.23155,-3.22731c-2.54603,1.74075 -4.92135,3.63653 -7.52567,5.19418c2.90668,-0.08243 5.80482,-0.0723 8.66127,0.33957c4.61217,0.7687 8.67813,2.54568 13.55046,1.81586c1.45633,-0.21814 3.37228,-1.37429 4.80017,-1.8841c0.6017,-0.21483 1.27955,-0.38997 1.96675,-0.5724c4.83542,-7.89742 10.02334,-15.57 14.71835,-23.53389c-1.62664,0.56471 -3.33745,1.10759 -5.16838,1.75582c-1.99067,0.70478 -3.97914,1.44603 -5.99655,2.13337c1.8602,1.28541 0.78797,3.42985 0.78797,3.42985c-2.5829,5.16581 -4.23072,10.80997 -7.07328,15.78446l-0.72734,0.6392c0,0 -1.17991,2.48401 -3.66392,1.30411zM260.99771,178.9564c0.19299,-0.48328 -0.12728,-1.08449 0.08693,-1.55875c0.54799,-1.21328 1.57429,-2.1567 2.21255,-3.32501c0.51985,-0.95156 0.89099,-2.03856 1.18815,-3.18486c-3.40501,5.98606 -7.1334,11.77934 -10.84151,17.5901c3.34606,-1.94955 5.95718,-6.02386 7.35388,-9.52147z" fill="#409f51"/><path d="M239.88762,194.64472l0.72522,-0.63689c2.84256,-4.97449 4.48056,-10.57146 7.06346,-15.73727c0,0 1.0755,-2.13636 -0.7847,-3.42177c2.01741,-0.68734 4.09561,-1.47269 6.08628,-2.17747c1.83093,-0.64822 3.54214,-1.19023 5.16878,-1.75494c-4.69501,7.96389 -9.88804,15.68627 -14.72347,23.58369c-0.6872,0.18243 -1.36809,0.36136 -1.96979,0.57619c-1.42788,0.50982 -3.35576,1.67583 -4.81209,1.89397c-4.87232,0.72982 -8.98724,-1.04598 -13.59942,-1.81468c-2.85645,-0.41187 -5.77137,-0.43644 -8.67805,-0.35401c2.60432,-1.55765 5.05903,-3.5142 7.60507,-5.25495c-0.46535,0.70175 -0.90021,1.89145 0.22292,3.21879c1.77634,2.09931 3.86031,0.31491 3.86031,0.31491l0.95055,-0.80822c4.56376,-1.9559 7.29203,-4.69664 10.15357,-8.7028c0,0 1.60476,-2.21597 -0.63301,-3.81438c-2.23777,-1.59841 -3.75661,0.58013 -3.75661,0.58013c-2.28804,3.20326 -4.37687,5.41662 -7.98126,6.96136l-1.48718,1.05649c0.44622,-0.67048 0.73838,-1.7096 -0.09282,-2.95641c-1.52543,-2.28814 -3.71505,-0.77755 -3.71505,-0.77755c-3.66452,2.44301 -6.97665,5.78381 -11.29056,7.07819l-1.23549,0.41192c0,0 -1.97907,1.12084 -1.87646,2.84458c-0.62015,-0.01629 -1.33057,-0.00338 -1.94789,-0.04488c-1.13192,-0.07608 -2.26343,-0.21248 -3.392,-0.37853c0.2647,-0.06363 0.43035,-0.13488 0.43035,-0.13488l0.96626,-0.89089c3.21441,-1.60721 6.23307,-3.67132 9.53039,-5.08446c4.87733,-2.09343 9.52517,-4.71338 14.41256,-6.75184c5.55345,-2.31626 11.77474,-3.88237 17.57623,-5.52393c-2.43152,4.97203 -4.04419,10.46177 -6.75383,15.20364l-0.92515,1.01241c0,0 -1.23529,2.40084 1.24872,3.58075c2.48401,1.17991 3.65413,-1.29628 3.65413,-1.29628z" data-paper-data="{&quot;noHover&quot;:false,&quot;origItem&quot;:[&quot;Path&quot;,{&quot;applyMatrix&quot;:true,&quot;segments&quot;:[[[236.25956,195.98367],[2.48401,1.17991],[-2.48401,-1.17991]],[234.95546,192.31975],[[235.87548,191.31159],[0,0],[2.70964,-4.74187]],[[242.62038,176.16911],[-2.43152,4.97203],[-5.80149,1.64156]],[[225.13022,181.69414],[5.55345,-2.31626],[-4.88739,2.03846]],[[210.72356,188.40827],[4.87733,-2.09343],[-3.29732,1.41314]],[[201.19188,193.48829],[3.21441,-1.60721],[0,0]],[200.22534,194.37836],[[199.79499,194.51327],[0.2647,-0.06363],[1.12858,0.16605]],[[203.18602,194.88929],[-1.13192,-0.07608],[0.61732,0.04149]],[[205.04239,194.97444],[-0.62015,-0.01629],[-0.10262,-1.72373]],[206.91737,192.1263],[[208.15289,191.71446],[0,0],[4.31391,-1.29439]],[[219.44045,184.62208],[-3.66452,2.44301],[0,0]],[[223.25401,185.38479],[-1.52543,-2.28814],[0.83121,1.24681]],[[223.33789,188.32244],[0.44622,-0.67048],[0,0]],[[224.82468,187.26545],[0,0],[3.60439,-1.54474]],[[232.73066,180.36974],[-2.28804,3.20326],[0,0]],[[236.56684,179.73037],[-2.23777,-1.59841],[2.23777,1.59841]],[[237.2062,183.56655],[0,0],[-2.86154,4.00616]],[[226.99123,192.32075],[4.56376,-1.9559],[0,0]],[226.03694,193.12793],[[222.16128,192.80496],[1.77634,2.09931],[-1.12313,-1.32734]],[[221.92973,189.57765],[-0.46535,0.70175],[-2.54603,1.74075]],[[214.40406,194.77183],[2.60432,-1.55765],[2.90668,-0.08243]],[[223.06533,195.11139],[-2.85645,-0.41187],[4.61217,0.7687]],[[236.61579,196.92725],[-4.87232,0.72982],[1.45633,-0.21814]],[[241.41596,195.04315],[-1.42788,0.50982],[0.6017,-0.21483]],[[243.38271,194.47075],[-0.6872,0.18243],[4.83542,-7.89742]],[[258.10105,170.93686],[-4.69501,7.96389],[-1.62664,0.56471]],[[252.93268,172.69268],[1.83093,-0.64822],[-1.99067,0.70478]],[[246.93613,174.82605],[2.01741,-0.68734],[1.8602,1.28541]],[[247.7241,178.2559],[0,0],[-2.5829,5.16581]],[[240.65082,194.04036],[2.84256,-4.97449],[0,0]],[239.92348,194.67956]],&quot;closed&quot;:true}]}" fill="#1cbc39"/><path d="M253.6176,188.52044c3.70811,-5.81076 7.48897,-11.68918 10.89398,-17.67523c-0.29716,1.1463 -0.66442,2.23595 -1.18427,3.18751c-0.63826,1.16832 -1.66156,2.11419 -2.20955,3.32747c-0.21421,0.47426 0.11975,1.09534 -0.07324,1.57863c-1.3967,3.49762 -4.08086,7.63208 -7.42692,9.58163z" data-paper-data="{&quot;noHover&quot;:false,&quot;origItem&quot;:[&quot;Path&quot;,{&quot;applyMatrix&quot;:true,&quot;segments&quot;:[[[260.99771,178.9564],[-1.3967,3.49762],[0.19299,-0.48328]],[[261.08464,177.39765],[-0.21421,0.47426],[0.54799,-1.21328]],[[263.29719,174.07263],[-0.63826,1.16832],[0.51985,-0.95156]],[[264.48534,170.88777],[-0.29716,1.1463],[-3.40501,5.98606]],[[253.64383,188.47787],[3.70811,-5.81076],[3.34606,-1.94955]]],&quot;closed&quot;:true}]}" fill="#1cbc39"/><path d="M249.83196,160.43254c0.10908,-0.01062 0.21821,-0.02054 0.32688,-0.02807c3.5612,-0.24686 7.1118,0.08409 10.61824,0.58501c0.80421,0.11489 2.69061,0.05295 3.35225,0.294c0.09291,0.03385 0.18124,0.08173 0.26646,0.13579c-1.83844,1.65301 -3.67175,2.71017 -5.6033,3.50416c-0.46623,-0.68295 -1.15994,-1.01848 -1.15994,-1.01848c-2.51233,-1.25616 -5.17062,-2.44628 -7.80059,-3.47242z" data-paper-data="{&quot;noHover&quot;:false,&quot;origItem&quot;:[&quot;Path&quot;,{&quot;applyMatrix&quot;:true,&quot;segments&quot;:[[[257.61394,163.85855],[-2.51233,-1.25616],[0,0]],[[258.76312,164.88298],[-0.46623,-0.68295],[1.93155,-0.79399]],[[264.34644,161.42735],[-1.83844,1.65301],[-0.08522,-0.05406]],[[264.0802,161.29278],[0.09291,0.03385],[-0.66164,-0.24105]],[[260.73135,161.00971],[0.80421,0.11489],[-3.50644,-0.50092]],[[250.2065,160.41959],[3.5612,-0.24686],[-0.10867,0.00753]],[[249.87986,160.44687],[0.10908,-0.01062],[2.62997,1.02613]]],&quot;closed&quot;:true}]}" fill="#1cbc39"/><path d="M232.42657,163.4367c2.62163,-0.31783 5.25196,-0.49588 7.99687,-0.55599c0.46836,0.42136 0.96333,0.60386 0.96333,0.60386l0.95125,0.03867c3.2312,1.07707 6.49576,2.33763 9.61921,3.72723c-0.10236,0.03617 -0.20528,0.0735 -0.30868,0.11064c-2.72904,0.98036 -5.40729,2.01871 -8.17451,2.87791c-0.15426,-0.10378 -0.26057,-0.15486 -0.26057,-0.15486c-3.79446,-1.89723 -7.08671,-4.71347 -10.7869,-6.64747z" data-paper-data="{&quot;noHover&quot;:false,&quot;origItem&quot;:[&quot;Path&quot;,{&quot;applyMatrix&quot;:true,&quot;segments&quot;:[[[243.19955,170.03615],[-3.79446,-1.89723],[0,0]],[[243.45758,170.19181],[-0.15426,-0.10378],[2.76722,-0.85919]],[[251.59873,167.35689],[-2.72904,0.98036],[0.1034,-0.03714]],[[251.90736,167.24695],[-0.10236,0.03617],[-3.12345,-1.3896]],[[242.3356,163.57319],[3.2312,1.07707],[0,0]],[241.39942,163.53295],[[240.4451,162.92579],[0.46836,0.42136],[-2.74491,0.06011]],[[232.4742,163.45193],[2.62163,-0.31783],[3.70019,1.934]]],&quot;closed&quot;:true}]}" fill="#1cbc39"/><path d="M210.74848,182.34941c-0.71801,0.32814 -1.50003,0.72792 -2.22679,1.03895c-2.19426,0.9404 -4.27255,2.14191 -6.35661,3.32563c2.23926,-3.89173 4.43318,-7.88064 7.12521,-11.49038c0.78688,-1.05513 1.75374,-2.03824 2.76031,-2.96056c0.30284,1.46814 1.9138,1.98033 1.9138,1.98033l2.45566,-0.00209c2.14676,0.71559 4.20073,1.59283 6.22529,2.55808c-2.71615,1.1657 -5.36656,2.50703 -8.0251,3.79286c0.05227,-0.2118 -0.01404,-0.4643 -0.01404,-0.69224c0,-1.51878 -1.17165,-2.69214 -2.69044,-2.69214c-1.51878,0 -2.71076,1.17604 -2.71076,2.69482c0,1.09566 0.61624,2.00467 1.54347,2.44674z" data-paper-data="{&quot;noHover&quot;:false,&quot;origItem&quot;:[&quot;Path&quot;,{&quot;applyMatrix&quot;:true,&quot;segments&quot;:[[[209.1554,179.90894],[0,1.09566],[0,-1.51878]],[[211.9054,177.15894],[-1.51878,0],[1.51878,0]],[[214.6554,179.90894],[0,-1.51878],[0,0.22794]],[[214.57539,180.57014],[0.05227,-0.2118],[2.65854,-1.28583]],[[222.597,176.81212],[-2.71615,1.1657],[-2.02456,-0.96525]],[[216.38969,174.28102],[2.14676,0.71559],[0,0]],[213.95014,174.29131],[[212.05302,172.313],[0.30284,1.46814],[-1.00657,0.92232]],[[209.3197,175.26405],[0.78688,-1.05513],[-2.69203,3.60974]],[[202.20595,186.6852],[2.23926,-3.89173],[2.08407,-1.18372]],[[208.557,183.35297],[-2.19426,0.9404],[0.72676,-0.31104]],[[210.72339,182.39267],[-0.71801,0.32814],[-0.92724,-0.44206]]],&quot;closed&quot;:true}]}" fill="#1cbc39"/><path d="M215.89889,169.05001c0.34274,-0.27759 0.68174,-0.55856 1.01258,-0.83426c1.93452,-1.87327 4.58338,-2.57536 7.11419,-3.18824c0.35603,1.0518 1.38814,1.60176 1.38814,1.60176l2.11906,0.60634c3.18118,1.06039 5.94988,3.11752 8.76534,5.01601c-2.80051,0.78724 -5.65076,1.64327 -8.39407,2.58113c-0.05364,-1.51909 -1.58585,-2.27573 -1.58585,-2.27573c-2.67481,-1.3374 -5.40084,-2.55309 -8.23903,-3.49915z" data-paper-data="{&quot;noHover&quot;:false,&quot;origItem&quot;:[&quot;Path&quot;,{&quot;applyMatrix&quot;:true,&quot;segments&quot;:[[[218.12894,169.06327],[0,0],[2.83819,0.94606]],[[226.31411,172.50719],[-2.67481,-1.3374],[0,0]],[[227.88685,174.78583],[-0.05364,-1.51909],[2.74331,-0.93786]],[[236.24944,172.24052],[-2.80051,0.78724],[-2.81546,-1.89849]],[[227.50937,167.27975],[3.18118,1.06039],[0,0]],[225.42396,166.67822],[[224.04514,165.07356],[0.35603,1.0518],[-2.5308,0.61287]],[[216.96063,168.22492],[1.93452,-1.87327],[-0.33084,0.2757]],[[215.94871,169.0543],[0.34274,-0.27759],[0,0]]],&quot;closed&quot;:true}]}" fill="#1cbc39"/><path d="M235.51315,163.43535c0,-0.02874 0.00044,-0.05737 0.00132,-0.08589c-0.40329,0.2321 -0.871,0.36485 -1.36971,0.36485c-1.51878,0 -2.75,-1.23122 -2.75,-2.75c0,-1.51878 1.23122,-2.75 2.75,-2.75c1.51878,0 2.75,1.23122 2.75,2.75c0,0.02874 -0.00044,0.05737 -0.00132,0.08589c0.40329,-0.2321 0.871,-0.36485 1.36971,-0.36485c1.07805,0 2.01121,0.62032 2.46202,1.5235c0.90318,0.45081 1.5235,1.38397 1.5235,2.46202c0,1.51878 -1.23122,2.75 -2.75,2.75c-0.44433,0 -0.86404,-0.10538 -1.23552,-0.29251c-0.52981,-0.26689 -0.9615,-0.70007 -1.2265,-1.231c-0.90318,-0.45081 -1.5235,-1.38397 -1.5235,-2.46202z" fill="#5cd572"/><path d="M250.34748,159.51787c0.21092,-2.7419 3.194,-2.50167 3.194,-2.50167l1.23552,0.20592c1.21275,0.26084 2.42905,0.1685 3.6663,0.1685c0,0 2.75,0 2.75,2.75c0,2.75 -2.75,2.75 -2.75,2.75c-1.57207,0 -3.0101,-0.01834 -4.5705,-0.24334l-1.23552,-0.20592c0,0 -2.50072,-0.1816 -2.2898,-2.9235z" fill="#5cd572"/><path d="M213.68564,168.37743c0,-2.75 2.75,-2.75 2.75,-2.75c2.53968,0 6.5208,0 9.06048,0c0,0 2.75,0 2.75,2.75c0,2.75 -2.75,2.75 -2.75,2.75c-2.53968,0 -5.07936,0 -7.61904,0h-1.44144c0,0 -2.75,0 -2.75,-2.75z" fill="#5cd572"/><path d="M212.03828,174.14318c0,-1.51878 1.23122,-2.75 2.75,-2.75c1.51878,0 2.75,1.23122 2.75,2.75c0,1.51878 -1.23122,2.75 -2.75,2.75c-1.51878,0 -2.75,-1.23122 -2.75,-2.75z" fill="#5cd572"/><path d="M246.97636,184.04455c-2.48825,-1.17094 -1.31731,-3.65919 -1.31731,-3.65919l0.85226,-2.11809c0.82368,-1.64736 1.64736,-3.29472 2.47104,-4.94208c0,0 1.22984,-2.45967 3.68951,-1.22984c2.45967,1.22984 1.22984,3.68951 1.22984,3.68951c-0.82368,1.64736 -1.64736,3.29472 -2.47104,4.94208l-0.7951,2.0003c0,0 -1.17094,2.48825 -3.65919,1.31731z" fill="#5cd572"/><path d="M236.12263,186.44155c-2.41421,-1.31684 -1.09737,-3.73106 -1.09737,-3.73106l1.19006,-1.97219c0.41184,-0.82368 0.82368,-1.64736 1.23552,-2.47104c0,0 1.22984,-2.45967 3.68951,-1.22984c2.45967,1.22984 1.22984,3.68951 1.22984,3.68951c-0.41184,0.82368 -0.82368,1.64736 -1.23552,2.47104l-1.28098,2.14621c0,0 -1.31684,2.41421 -3.73106,1.09737z" fill="#5cd572"/><path d="M227.68819,180.73262c0,-1.51878 1.23122,-2.75 2.75,-2.75c1.51878,0 2.75,1.23122 2.75,2.75c0,1.51878 -1.23122,2.75 -2.75,2.75c-1.51878,0 -2.75,-1.23122 -2.75,-2.75z" fill="#5cd572"/></g></g></svg>