<svg version="1.1" xmlns="http://www.w3.org/2000/svg" xmlns:xlink="http://www.w3.org/1999/xlink" width="48.38445" height="48.58222" viewBox="0,0,48.38445,48.58222"><g transform="translate(-218.51671,-136.10461)"><g data-paper-data="{&quot;isPaintingLayer&quot;:true}" fill="none" fill-rule="nonzero" stroke="none" stroke-width="0.5" stroke-linecap="butt" stroke-linejoin="miter" stroke-miterlimit="10" stroke-dasharray="" stroke-dashoffset="0" font-family="none" font-weight="none" font-size="none" text-anchor="none" style="mix-blend-mode: normal"><path d="M230.17513,158.90819c-0.21353,-0.15817 -0.38756,-0.32223 -0.52806,-0.48914l-0.00149,0.61789c-2.26748,-0.64785 -4.72242,-1.14328 -6.89822,-2.07221c-0.51119,-0.21825 -1.27995,-0.27397 -1.46389,-0.79849l-1.41931,-0.77417c-0.80067,-0.4167 -1.34745,-1.25403 -1.34745,-2.21906c0,-1.23863 0.90078,-2.26687 2.08299,-2.46538l4.21488,-0.79029l0.02088,0.11134c1.1121,-0.11061 2.22472,-0.16596 3.34138,-0.18558c2.12468,-0.50692 4.10912,-1.04087 6.1147,-1.76481l0.01644,-0.91396l2.63259,0.04734c0.12143,-0.00719 0.25012,-0.00738 0.38294,0.00304c-0.17253,-0.26226 -0.31055,-0.59146 -0.39305,-1.00395c-0.21245,-1.06224 0.12744,-1.75626 0.58089,-2.20172c0.07631,-1.26974 0.20915,-2.53468 0.43624,-3.83828c0.0027,-0.31864 0.10684,-2.46525 2.41989,-2.53844c1.38415,-0.0438 2.02584,0.7034 2.32289,1.3787c0.15117,-0.08434 0.312,-0.15345 0.48042,-0.20524l2.34077,-0.78026l0.00187,0.0056c4.00767,-1.29026 7.44414,-2.10537 11.86407,-1.89293c0.33751,0.01622 4.59718,0.17252 4.83933,0.41434l2.45032,0.29404c1.25566,0.1328 2.23401,1.19515 2.23401,2.48602c0,1.1246 -0.74256,2.07576 -1.76412,2.38994l-1.16498,0.38833c-3.03246,1.01196 -5.9709,2.46561 -8.98444,3.40996c-3.9925,1.25113 -8.37362,1.57148 -12.57319,2.21005c-0.00013,0.08375 -0.00019,0.16774 -0.00019,0.25199c0,5.55957 -0.19776,11.15491 -0.00736,16.70955c0.19945,5.81852 1.50319,11.53733 1.86563,17.33633c0,0 0.15595,2.49513 -2.33919,2.65108c-2.49513,0.15595 -2.65108,-2.33919 -2.65108,-2.33919c-0.36085,-5.77363 -1.65971,-11.46912 -1.86064,-17.26474c-0.11548,-3.33094 -0.09813,-6.6747 -0.06399,-10.01717c-0.0763,0.02006 -0.15403,0.0366 -0.233,0.04944l-1.56581,0.28469c-0.72293,0.13475 -2.06473,0.42465 -3.41434,0.60014l1.52764,2.39435c0,0 -1.48807,2.00889 -3.49696,0.52082z" fill="#427c4b"/><path d="M219.50312,151.37516c0.12484,-2.49688 2.62172,-2.37204 2.62172,-2.37204l1.62516,-0.00312c2.25,0 4.5,0 6.75,0c0.70833,0 1.66625,-0.53971 2.125,0h2.125c1.38071,0 2.5,1.11929 2.5,2.5c0,1.38071 -1.11929,2.5 -2.5,2.5h-1.25c-0.29366,0 -0.58609,0.00093 -0.8776,0.00304c-0.38827,0.4515 -1.1302,0.13824 -1.77737,0.02991c-1.20286,0.03331 -2.40133,0.09612 -3.6187,0.20679c0,0 -0.68792,0.06254 -1.37343,-0.23973c-0.70097,0 -1.40194,0 -2.10291,0l-1.87484,-0.00312c0,0 -2.49688,-0.12484 -2.37204,-2.62172z" fill="#61b76e"/><path d="M243.10336,184.49786c-2.49786,0.10336 -2.59095,-2.2491 -2.59095,-2.2491l-0.125,-1.25c-0.28166,-2.9633 -0.63741,-5.75899 -0.63741,-8.74876c0.06392,-5.15824 -1.42226,-10.24045 -1.22093,-15.38014c0.14511,-3.70452 0.47093,-7.37235 0.47093,-11.11986c0,0 0,-1.02271 0.65412,-1.75989c-0.70262,-0.03414 -2.18231,-0.33242 -2.3892,-2.21736c-0.27275,-2.48508 2.21232,-2.75783 2.21232,-2.75783l1.83101,-1.00756c6.19417,-0.47647 12.41953,-0.28336 18.5616,-1.22829c0,0 2.47093,-0.38014 2.85107,2.09079c0.38014,2.47093 -2.09079,2.85107 -2.09079,2.85107c-6.27298,0.96507 -12.61612,0.78538 -18.9384,1.27171l-0.44828,0.26656c0.08245,-0.00606 0.16792,-0.0092 0.25654,-0.0092c2.5,0 2.5,2.5 2.5,2.5c0,4.00712 -0.36549,7.91088 -0.52907,11.88014c-0.19758,4.79435 1.23892,9.77022 1.27907,14.61986c0,2.84015 0.32082,5.44062 0.61259,8.25124l0.125,1.25c0,0 0.11363,2.64326 -2.38423,2.74662z" fill="#61b76e"/></g></g></svg>