<svg version="1.1" xmlns="http://www.w3.org/2000/svg" xmlns:xlink="http://www.w3.org/1999/xlink" width="69.97155" height="70.3395" viewBox="0,0,69.97155,70.3395"><g transform="translate(-204.73962,-144.64502)"><g data-paper-data="{&quot;isPaintingLayer&quot;:true}" fill="#e0ffff" fill-rule="nonzero" stroke="none" stroke-width="0.5" stroke-linecap="butt" stroke-linejoin="miter" stroke-miterlimit="10" stroke-dasharray="" stroke-dashoffset="0" font-family="none" font-weight="none" font-size="none" text-anchor="none" style="mix-blend-mode: normal"><path d="M217.81492,195.60101c-2.24078,-2.58483 -4.5786,-4.88949 -7.47353,-7.00083c-1.15746,-0.84416 -4.07468,-1.74307 -4.6787,-3.10666c-2.4171,-5.45666 0.32463,-9.37866 3.48263,-13.58934c4.06309,-5.41745 12.36381,-2.80911 17.4808,-0.84082c1.79563,0.6907 3.57454,1.42918 5.36085,2.1437c0.42717,0.17087 0.85434,0.34174 1.28151,0.51261c0.02165,-0.35337 0.8982,-0.34386 1.06917,-0.72243c0.09611,-0.2128 -0.63912,0.22124 -0.70048,-0.00405c-0.38266,-1.40504 0.30062,-4.76826 0.54555,-6.186c1.20575,-6.02876 3.12469,-12.7577 6.82367,-17.73677c1.86719,-2.51336 5.19455,-5.26049 8.63772,-4.18611c2.51687,0.78535 4.73124,2.92343 6.81018,4.48263c3.83543,2.87657 8.95689,7.20918 10.37951,11.95739c1.7414,5.81216 -1.81688,12.31316 1.96346,17.19878c-0.13811,-0.18853 -0.54807,-0.78941 -0.34275,-0.93266c0.78947,-0.5508 1.89165,0.35903 2.84131,0.51648c4.76415,0.79402 3.42536,7.05132 2.55012,10.38521c-1.90316,7.24939 -1.8829,15.23716 -8.03711,20.31832c-1.12247,0.92676 -3.07284,2.46654 -4.61589,2.49309c-1.16738,0.02009 -2.3255,-0.23748 -3.47384,-0.4484c-1.67867,-0.30833 -2.31919,-0.75044 -3.88285,-1.49529c-2.25525,-1.12762 -3.87717,-2.72894 -5.39562,-4.7187c-0.37819,-0.49557 -0.80394,-0.97479 -1.31634,-1.32973c-0.00073,0.00878 -0.00183,0.01773 -0.00332,0.02685c-0.07705,0.47033 -0.93171,0.26557 -1.32754,0.53102c-1.08217,0.72571 -2.40842,2.69428 -3.40885,3.69472c-4.14329,4.14329 -8.52645,8.10173 -14.73698,7.32141c-6.7941,-1.35882 -12.53529,-8.31549 -11.30252,-15.46139c0.24571,-1.42429 0.78057,-2.65922 1.46984,-3.82304zM246.47461,202.78926c-0.3272,-0.28051 -0.6063,-0.52038 -0.45457,-0.30317c0.09448,0.13525 0.27041,0.22417 0.45457,0.30317zM271.20986,183.13685c0.29225,0.09599 0.58586,0.18177 0.85702,0.16757c0.36496,-0.01912 -0.25504,-0.09385 -0.85702,-0.16757z"/></g></g></svg>