<svg version="1.1" xmlns="http://www.w3.org/2000/svg" xmlns:xlink="http://www.w3.org/1999/xlink" width="114.85821" height="82.65377" viewBox="0,0,114.85821,82.65377"><g transform="translate(-187.64803,-128.95378)"><g data-paper-data="{&quot;isPaintingLayer&quot;:true}" fill="#defeff" fill-rule="nonzero" stroke="none" stroke-width="0.5" stroke-linecap="butt" stroke-linejoin="miter" stroke-miterlimit="10" stroke-dasharray="" stroke-dashoffset="0" font-family="none" font-weight="none" font-size="none" text-anchor="none" style="mix-blend-mode: normal"><path d="M211.74943,185.55077c-4.01937,-0.04655 -8.16773,0.78705 -12.13072,1.93961c-1.8135,0.51814 -6.00494,2.08353 -7.85554,1.15823c-0.25102,-0.12551 -3.21027,-1.97573 -3.59305,-3.12407c-1.38872,-4.16617 0.26343,-10.38246 1.80288,-14.37638c0.50288,-1.30467 1.29155,-3.15152 2.44526,-4.02314c1.84596,-1.39461 3.64802,-1.86795 5.83715,-2.29353c1.36554,-0.22759 2.79316,-0.64463 4.16885,-0.78199c1.0434,-0.10418 2.2075,0.42039 3.14538,-0.04855c0.35928,-0.17964 -1.06673,0.31566 -1.20347,-0.06204c-0.15064,-0.41609 0.65659,-0.64223 0.79653,-1.06204c0.05575,-0.16725 -0.42996,0.33425 -0.5,0.17246c-0.17579,-0.4061 0.15593,-0.91341 0,-1.32754c-0.44738,-1.18815 -2.00707,-2.89633 -2.65667,-4.19214c-1.99827,-3.98616 -5.92085,-8.92462 -4.24657,-13.86246c0.35403,-1.04411 1.07324,-1.92619 1.60986,-2.88928c4.20073,-5.25091 9.4791,-5.37406 15.48717,-3.73057c2.88553,0.78933 4.82313,0.72332 7.40889,2.54361c3.15747,2.22275 4.64652,5.71676 8.31809,7.41586c1.11294,0.55647 2.79096,1.57568 4.05859,1.77344c0.94989,0.14819 2.40963,-0.133 3.18772,-0.53102c6.76677,-3.46146 -0.94919,-10.56707 2.44513,-15.61339c1.96881,-2.92702 3.54712,-3.29019 6.71413,-3.68206c6.13822,0 15.57135,3.33637 16.17817,10.73673c0.36071,4.39893 -2.03101,6.80873 -4.08883,10.25584c-0.41849,0.70102 -2.46105,5.8465 -1.10986,4.107c1.41849,1.77311 2.74897,4.10133 4.85801,5.13742c5.72518,2.81259 13.23304,2.86895 19.45491,2.24016c4.57192,-0.46204 9.2315,-1.31007 13.6932,0.09374c8.31829,3.32732 7.67375,13.2981 3.69717,19.90078c-2.21614,3.67965 -4.84539,6.42773 -8.28357,8.92736c-0.0611,0.04442 -0.69255,0.56026 -1.30295,1.05636c0.02765,0.4186 -0.07633,0.92193 0.24358,1.15238c0.26617,0.19174 -0.06729,-0.9223 0.25964,-0.94925c1.18338,-0.09755 2.12407,1.06204 3.18611,1.59305c1.83709,0.91854 6.42848,2.82977 6.72316,5.24972c0.15158,1.24476 -0.02899,2.51517 -0.20983,3.75602c-0.18988,1.30291 -1.35665,2.35472 -2.14648,3.22887c-4.15985,4.60398 -11.48463,3.06459 -16.01219,-0.03328c-1.57536,-1.18152 -3.10988,-2.29871 -4.51591,-3.68385c-0.54291,-0.53484 -2.09175,-2.25814 -2.91834,-2.42286c-0.31918,-0.0636 0.84513,0.44742 0.66275,0.71696c-0.2529,0.37375 -0.91951,0.07275 -1.32754,0.26551c-1.07559,0.50812 -2.24275,1.72 -3.23843,2.46915c-4.88493,3.67539 -10.88533,8.23306 -17.16503,8.73078c-0.44251,0 -0.98622,0.28164 -1.32754,0c-1.10643,-0.91295 -1.94426,-2.12869 -2.71696,-3.33725c-1.41443,-2.21227 1.37433,-5.47692 0.21696,-7.65903c-0.12167,-0.22939 -0.07825,0.77013 -0.3298,0.70573c-0.48501,-0.12416 -0.59275,-0.88761 -1.06204,-1.06204c-0.23521,-0.08742 0.39768,0.61712 0.17471,0.73223c-1.01999,0.52658 -3.61622,-0.10382 -4.77916,0c-4.15083,0.37056 -7.74233,2.54277 -11.9479,2.65509c-4.30083,0 -5.4206,-3.7741 -5.4206,-7.27916c0,-1.54217 0.5111,-4.26869 -1.23679,-5.08597c-0.27951,-0.13069 0.22363,0.82347 -0.06838,0.92313c-0.59227,0.20213 -1.23276,-0.26344 -1.85856,-0.26551c-1.77468,-0.00587 -3.79875,0.89052 -5.60766,1.05315c-1.01799,0.09152 -2.36435,0.77714 -3.06609,0.03402c-2.49832,-2.64565 -3.08472,-4.68251 -2.8475,-7.34598zM296.20873,201.03314c0.07555,0.17208 0.16177,0.33305 0.28901,0.42193c0.21121,0.14754 -0.01692,-0.10777 -0.28901,-0.42193zM231.17377,198.59132c-0.41399,-0.04021 -0.86701,-0.18456 -0.6463,-0.07421c0.19791,0.09896 0.41919,0.09895 0.6463,0.07421zM220.36875,187.34357c-1.1176,-0.50921 -2.26911,-0.89706 -3.44555,-1.17962c0.00718,1.09352 -0.0961,1.75241 -1.71453,1.7569c0.55499,0.02318 1.27059,0.0433 1.63236,0.00993c1.07213,-0.0989 2.12407,-0.35401 3.18611,-0.53102c0.11462,-0.0191 0.22848,-0.03786 0.34162,-0.05618z"/></g></g></svg>