<svg version="1.1" xmlns="http://www.w3.org/2000/svg" xmlns:xlink="http://www.w3.org/1999/xlink" width="85.1719" height="51.16897" viewBox="0,0,85.1719,51.16897"><g transform="translate(-196.52978,-155.00323)"><g data-paper-data="{&quot;isPaintingLayer&quot;:true}" fill="none" fill-rule="nonzero" stroke="none" stroke-width="0.5" stroke-linecap="butt" stroke-linejoin="miter" stroke-miterlimit="10" stroke-dasharray="" stroke-dashoffset="0" font-family="none" font-weight="none" font-size="none" text-anchor="none" style="mix-blend-mode: normal"><path d="M279.82688,160.9524c0.48603,0.89429 0.42455,1.93915 -0.07053,2.74942l1.79535,-0.35987c0,0 0.57882,1.67521 -0.53777,2.80055c-0.03782,0.21155 -0.07564,0.42309 -0.11346,0.63463c-2.25294,11.88868 -12.8512,17.56881 -19.2918,26.79722c-1.74276,2.13325 -2.17913,4.51086 -4.53291,6.30949c-4.71341,3.60174 -11.87159,4.98633 -17.45062,4.38441c-2.95366,-0.31868 -5.86129,0.18956 -8.75683,-0.66684c-7.40433,-2.26716 -14.74172,-5.30762 -22.28409,-6.95034c-4.43995,-0.96701 -8.79102,0.07024 -11.85932,-4.20787c-0.01535,-1.78933 -0.39954,-3.61387 -0.04607,-5.36801c0.13996,-0.69457 1.45459,-0.5761 1.91971,-0.9229c1.06865,-0.79681 2.0348,-1.99373 2.94511,-2.96663c5.3488,-5.7166 11.65361,-10.61448 17.82751,-15.20855c4.87496,-3.62753 10.26006,-6.31073 15.59314,-9.20917c2.76957,-1.50521 5.45993,-3.24892 8.68807,-3.56723c1.8678,-0.18417 4.18669,0.34863 6.15958,0.28117c9.69231,-0.3314 18.8716,-1.39843 28.28428,1.38556c0,0 2.63707,0.77997 1.85711,3.41704c-0.05817,0.19668 -0.12668,0.37436 -0.20365,0.53478c0.02679,0.04342 0.05254,0.08781 0.0772,0.13318zM274.99446,163.57874c-0.33218,-0.6112 -0.40861,-1.29272 -0.26567,-1.92162c-8.19734,-1.97497 -16.2358,-0.96889 -24.72889,-0.67849c-2.31929,0.07931 -5.13424,-0.62455 -7.31549,-0.36381c-0.74531,0.08909 -3.9463,2.36187 -5.09377,2.9855c-5.10152,2.77259 -10.27714,5.32236 -14.93613,8.78918c-5.243,3.90139 -10.50276,7.99936 -15.21586,12.63357c-1.64471,1.61719 -3.13635,3.67851 -4.98725,5.05416c-0.0609,0.04526 -0.12254,0.08944 -0.18483,0.13268c1.77651,1.01661 4.38509,0.45091 6.81294,0.96347c7.95786,1.68004 15.51784,4.96147 23.34873,7.15386c2.37425,0.70223 4.85484,0.17586 7.31415,0.44224c1.22524,0.13272 2.40244,0.63101 3.6338,0.68182c0.78843,0.03252 2.65428,-0.88587 3.49611,-1.17674c2.50007,-0.86383 5.43491,-1.6064 7.57712,-3.22316c1.20006,-0.9057 1.83079,-3.3708 2.64904,-4.62478c5.70142,-8.16927 16.68815,-14.10801 18.38785,-24.61747c0.07735,-0.43265 0.1547,-0.8653 0.23205,-1.29795l0.08113,-0.01627c-0.32384,-0.23369 -0.6016,-0.54188 -0.80504,-0.91621z" data-paper-data="{&quot;origRot&quot;:0,&quot;origPos&quot;:null}" fill="#6f5e30"/><path d="M275.8442,164.47254l-0.08114,0.01624c-0.07735,0.43265 -0.15409,0.86657 -0.23144,1.29922c-1.6997,10.50946 -12.68824,16.49402 -18.38966,24.66329c-0.81825,1.25397 -1.45789,3.73052 -2.65795,4.63622c-2.14221,1.61675 -5.09652,2.37089 -7.59659,3.23471c-0.84181,0.29086 -2.71782,1.21135 -3.50625,1.17883c-1.23136,-0.0508 -2.41892,-0.54914 -3.64416,-0.68186c-2.4593,-0.26639 -4.95859,0.2541 -7.33284,-0.44813c-7.83088,-2.19238 -15.41477,-5.50357 -23.37263,-7.1836c-2.42785,-0.51256 -5.03731,0.04971 -6.81382,-0.96689c0.06228,-0.04324 0.1239,-0.08753 0.1848,-0.13279c1.85091,-1.37564 3.34166,-3.44258 4.98637,-5.05976c4.7131,-4.63421 9.97768,-8.75904 15.22069,-12.66044c4.65898,-3.46682 9.86871,-6.04348 14.97022,-8.81606c1.14747,-0.62363 4.36188,-2.89754 5.10719,-2.98663c2.18125,-0.26074 5.01246,0.44673 7.33175,0.36743c8.49309,-0.2904 16.55553,-1.27598 24.75287,0.69899c-0.14294,0.6289 -0.06534,1.31246 0.26683,1.92365c0.20345,0.37434 0.48193,0.6839 0.80577,0.91759z" data-paper-data="{&quot;noHover&quot;:false,&quot;origItem&quot;:[&quot;Path&quot;,{&quot;applyMatrix&quot;:true,&quot;segments&quot;:[[[241.14603,140.65128],[0.42605,0],[-0.69563,0]],[[239.33079,139.9671],[0.48431,0.4259],[-5.64962,6.25929]],[[226.92619,161.37047],[3.80044,-7.60089],[-1.03782,2.07565]],[[223.11327,167.6243],[0.81249,-2.041],[-0.27762,0.69739]],[[223.30404,173.52542],[0,-1.30599],[0,5.80627]],[[223.89416,190.84563],[-0.82128,-5.74895],[0.92423,6.4696]],[[227.72847,210.24737],[-1.82114,-6.35395],[0.63552,2.21731]],[[229.78766,217.04272],[-0.32483,-2.28314],[0.01069,0.07512]],[[229.81599,217.26848],[-0.00825,-0.07537],[1.74153,-1.07543]],[[233.91581,211.74254],[-1.60969,1.88841],[5.27613,-6.18971]],[[251.35076,194.64391],[-5.66565,5.83349],[1.75074,-1.75074]],[[255.23195,188.42872],[-1.40841,2.03359],[0.70168,-1.01315]],[[257.56621,185.56155],[-0.63263,1.05764],[0.40506,-0.6772]],[[258.20176,181.92788],[-0.14642,0.87853],[0.43485,-2.60911]],[[258.98802,173.73134],[0.39757,2.65422],[-0.22272,-1.48689]],[[256.18955,169.19542],[0.71104,1.31773],[-4.45518,-8.91036]],[[243.3406,141.28419],[8.42221,6.51184],[-0.3432,-0.27456]],[[242.311,140.46051],[0.3432,0.27456],[0,0]],[[242.33545,140.38145],[0,0],[-0.35996,0.17294]]],&quot;closed&quot;:true}],&quot;origRot&quot;:0}" fill="#826e38"/><path d="M246.38945,165.49403c-0.05034,-2.74954 2.6992,-2.79989 2.6992,-2.79989l0.71154,0.52819c3.62728,-0.12402 7.2016,-0.61481 10.84771,-0.73948c0,0 2.74839,-0.09397 2.84237,2.65442c0.09397,2.74839 -2.65442,2.84237 -2.65442,2.84237c-3.64858,0.12475 -7.21348,0.61522 -10.84771,0.73948l-0.7988,-0.5259c0,0 -2.74954,0.05034 -2.79989,-2.6992z" data-paper-data="{&quot;origRot&quot;:0}" fill="#6f5e30"/><path d="M219.6717,183.32917c-1.65707,-2.19468 0.53762,-3.85175 0.53762,-3.85175l1.10094,-0.60152c4.10518,-3.05472 8.13936,-6.17508 12.12602,-9.38366c0,0 2.14233,-1.72421 3.86655,0.41812c1.72421,2.14233 -0.41812,3.86655 -0.41812,3.86655c-4.04081,3.25218 -8.13012,6.4152 -12.29109,9.51144l-1.07017,0.57844c0,0 -2.19468,1.65707 -3.85175,-0.53762z" data-paper-data="{&quot;origRot&quot;:0}" fill="#6f5e30"/><path d="M228.03178,185.01408c0.77997,-2.63707 3.41704,-1.85711 3.41704,-1.85711l0.82104,0.26037c2.83314,0.50652 5.3669,1.56983 8.11516,2.38268c0,0 2.63707,0.77997 1.85711,3.41704c-0.77997,2.63707 -3.41704,1.85711 -3.41704,1.85711c-2.55552,-0.75585 -4.91413,-1.77622 -7.52319,-2.24267l-1.41301,-0.40039c0,0 -2.63707,-0.77997 -1.85711,-3.41704z" data-paper-data="{&quot;origRot&quot;:0}" fill="#6f5e30"/><path d="M260.89188,173.26943c1.33443,-0.72524 3.00414,-0.23139 3.72938,1.10304c0.72524,1.33443 0.23139,3.00414 -1.10304,3.72938c-1.33443,0.72524 -3.00414,0.23139 -3.72938,-1.10304c-0.72524,-1.33443 -0.23139,-3.00414 1.10304,-3.72938z" data-paper-data="{&quot;origRot&quot;:0}" fill="#6f5e30"/><path d="M252.88053,177.31816c-0.54199,1.07673 -0.91007,2.26034 -1.62596,3.23018c-1.99692,2.70531 -6.43249,2.10378 -9.97496,1.20029l-0.00813,0.0275l-1.13624,-0.33607c-0.83771,-0.23678 -1.59411,-0.47149 -2.21483,-0.65508v0v0c-0.32051,-0.0948 -0.62384,-0.24766 -0.89288,-0.45354c-0.68078,-0.48054 -1.4289,-1.39246 -0.96423,-2.96351c0.46467,-1.57105 1.58847,-1.9293 2.42111,-1.96222c0.24264,-0.01897 0.48526,-0.00535 0.7215,0.03897l2.57433,0.46025l-0.04859,0.27178l1.09975,0.32527l-0.0077,0.02602c1.52253,0.39721 3.0971,0.62603 4.49075,0.23235c0.19173,-0.05416 0.35048,-0.16965 0.49787,-0.30751c-0.02928,-0.08249 -0.05437,-0.16573 -0.07536,-0.24945c-0.10631,0.05749 -0.20103,0.10883 -0.2706,0.14681l0.22758,-1.27294c0.13651,-0.80321 0.62701,-1.53802 1.39837,-1.95724c1.33443,-0.72524 3.00414,-0.23139 3.72938,1.10304c0.13607,0.25036 0.22922,0.51252 0.28197,0.77804c0.57183,2.57821 0.01606,1.03898 0.00896,1.0193c-0.00128,0.00713 -0.00259,0.01426 -0.00392,0.02138z" data-paper-data="{&quot;origRot&quot;:0}" fill="#6f5e30"/><path d="M245.48806,192.8476c-1.73596,-2.13283 0.39687,-3.86879 0.39687,-3.86879l0.85694,-0.49518c3.27035,-2.34552 6.46892,-4.72611 9.22625,-7.6681c0.20514,-0.22982 0.45268,-0.42881 0.73889,-0.58436c0.031,-0.01685 0.06217,-0.03304 0.09351,-0.04857c0.71659,-0.38918 1.83787,-0.65813 3.01306,0.37904c0.05622,0.04832 0.11068,0.09912 0.16323,0.15234c0.98114,0.96811 0.9525,1.96375 0.70093,2.69439l-0.41457,2.31889l-1.16242,-0.20782l-0.84848,0.90856l-0.06071,-0.05669c-2.55748,2.41862 -5.37105,4.52102 -8.24422,6.58167l-0.59047,0.29147c0,0 -2.13283,1.73596 -3.86879,-0.39687z" data-paper-data="{&quot;origRot&quot;:0}" fill="#988141"/><path d="M260.57681,173.22552c-1.61465,-2.22607 0.61142,-3.84072 0.61142,-3.84072l0.28398,-0.13804c2.42181,-1.89115 4.93496,-3.18731 7.2033,-5.27021c0,0 2.02558,-1.85998 3.88556,0.1656c1.85998,2.02558 -0.1656,3.88556 -0.1656,3.88556c-2.36319,2.16999 -5.0356,3.59972 -7.53821,5.55396l-0.43972,0.25528c0,0 -2.22607,1.61465 -3.84072,-0.61142z" data-paper-data="{&quot;origRot&quot;:0}" fill="#988141"/><path d="M249.5557,168.22485c1.15989,2.49342 -1.33352,3.65331 -1.33352,3.65331l-0.93228,0.51278c-0.99955,0.54324 -1.97642,1.02892 -2.98022,1.46653l0.03217,0.0931l-2.32505,0.80335c-0.33548,0.1226 -0.68378,0.17568 -1.02672,0.16465c-0.82099,0.00612 -1.94183,-0.28938 -2.48811,-1.78021c-0.02022,-0.05351 -0.03866,-0.10737 -0.05534,-0.16149c-0.47788,-1.49715 0.21646,-2.41546 0.86279,-2.91564c0.03567,-0.02982 0.07222,-0.05885 0.10968,-0.08704l1.93882,-1.51399l0.39778,0.5094c0.98393,-0.41116 1.91314,-0.87047 2.90785,-1.41108l1.23883,-0.66719c0,0 2.49342,-1.15989 3.65331,1.33352z" data-paper-data="{&quot;origRot&quot;:0}" fill="#988141"/><path d="M218.5449,190.47487c0.43233,-2.7158 3.14814,-2.28346 3.14814,-2.28346l1.53052,0.14245c0.8653,0.1547 1.7306,0.3094 2.5959,0.4641l2.57089,0.45964c0.33711,0.0573 0.66216,0.17694 0.9569,0.35355c0.72393,0.39744 1.56395,1.20931 1.29922,2.79558c-0.00444,0.02744 -0.0093,0.05482 -0.01457,0.0821c-0.24296,1.29259 -0.99838,1.84607 -1.71249,2.07324l-2.20784,1.19992l-0.73279,-1.34832c-0.37577,-0.06718 -0.75153,-0.13436 -1.1273,-0.20155c-0.8653,-0.1547 -1.7306,-0.3094 -2.5959,-0.4641l-1.42723,-0.12499c0,0 -2.7158,-0.43233 -2.28346,-3.14814z" data-paper-data="{&quot;origRot&quot;:0}" fill="#988141"/><path d="M204.13166,189.86573c0,-1.38071 1.11929,-2.5 2.5,-2.5c1.38071,0 2.5,1.11929 2.5,2.5c0,1.38071 -1.11929,2.5 -2.5,2.5c-1.38071,0 -2.5,-1.11929 -2.5,-2.5z" fill="#5d4f28"/><path d="M204.66268,195.70693c0,-1.38071 1.11929,-2.5 2.5,-2.5c1.38071,0 2.5,1.11929 2.5,2.5c0,1.38071 -1.11929,2.5 -2.5,2.5c-1.38071,0 -2.5,-1.11929 -2.5,-2.5z" fill="#5d4f28"/><path d="M214.221,196.23795c0,-1.15939 0.78921,-2.13445 1.85972,-2.41725c-0.49072,-0.45646 -0.79768,-1.10783 -0.79768,-1.83089c0,-1.38071 1.11929,-2.5 2.5,-2.5c1.38071,0 2.5,1.11929 2.5,2.5c0,1.15939 -0.78921,2.13445 -1.85972,2.41725c0.49072,0.45646 0.79768,1.10783 0.79768,1.83089c0,1.38071 -1.11929,2.5 -2.5,2.5c-1.38071,0 -2.5,-1.11929 -2.5,-2.5z" fill="#5d4f28"/><path d="M221.65525,200.48609c0,-0.7378 0.31961,-1.40095 0.82792,-1.85856c-0.50831,-0.45761 -0.82792,-1.12076 -0.82792,-1.85856c0,-1.38071 1.11929,-2.5 2.5,-2.5c1.38071,0 2.5,1.11929 2.5,2.5c0,0.7378 -0.31961,1.40095 -0.82792,1.85856c0.50831,0.45761 0.82792,1.12076 0.82792,1.85856c0,1.38071 -1.11929,2.5 -2.5,2.5c-1.38071,0 -2.5,-1.11929 -2.5,-2.5z" fill="#5d4f28"/><path d="M241.67884,196.92406c2.5,0 2.5,2.5 2.5,2.5c0,0.88503 0,2.8321 0,3.71712c0,0 0,2.5 -2.5,2.5c-2.5,0 -2.5,-2.5 -2.5,-2.5c0,-0.88503 0,-1.77006 0,-2.65509v-1.06204c0,0 0,-2.5 2.5,-2.5z" fill="#5d4f28"/><path d="M247.67513,203.6722c0,-1.38071 1.11929,-2.5 2.5,-2.5c1.38071,0 2.5,1.11929 2.5,2.5c0,1.38071 -1.11929,2.5 -2.5,2.5c-1.38071,0 -2.5,-1.11929 -2.5,-2.5z" fill="#5d4f28"/><path d="M278.89411,156.29367c2.24201,1.10606 1.39394,2.24201 1.39394,2.24201v1.32754c0,6.58487 -0.9841,13.83247 -4.92953,19.17605c-0.20356,0.55867 -0.6007,1.02429 -1.11027,1.31573c-1.95776,2.23687 -4.09288,4.38013 -6.18465,6.561c-0.10704,1.14131 -0.98131,2.05961 -2.10177,2.23382c-0.43082,0.4698 -0.85636,0.94326 -1.27453,1.42164c-0.6628,0.75824 -2.69213,2.19934 -3.03344,2.97067c-0.66804,1.50972 -0.73713,3.68565 -1.06204,5.31018c0,0 -0.49029,2.45145 -2.94174,1.96116c-2.45145,-0.49029 -1.96116,-2.94174 -1.96116,-2.94174c0.32434,-1.62171 0.39175,-3.80473 1.06204,-5.31018c1.0267,-2.30597 2.79483,-3.69254 4.40081,-5.52562c0.70007,-0.79906 1.39351,-1.62261 2.08862,-2.4519c-0.73499,-0.43533 -1.2278,-1.23639 -1.2278,-2.15255c0,-1.38071 1.11929,-2.5 2.5,-2.5c0.77597,0 1.46937,0.35353 1.92792,0.90831c0.62522,-0.6987 1.26117,-1.38027 1.91328,-2.03238c0.92101,-0.92101 2.30635,-1.49085 2.9206,-2.65509c0.32113,-0.42817 0.73941,-0.89595 1.14621,-1.37979c-1.09685,-0.26455 -1.91172,-1.25231 -1.91172,-2.43039c0,-1.38071 1.11929,-2.5 2.5,-2.5c0.35189,0 0.68681,0.0727 0.99054,0.20391c0.00324,-0.01923 0.00645,-0.03686 0.00963,-0.05276c0.69216,-3.46081 1.279,-6.60591 1.279,-10.13007v-1.32754c0,0 1.36405,-3.34808 3.60606,-2.24201z" fill="#5d4f28"/></g></g></svg>