<svg version="1.1" xmlns="http://www.w3.org/2000/svg" xmlns:xlink="http://www.w3.org/1999/xlink" width="72.14037" height="54.66876" viewBox="0,0,72.14037,54.66876"><g transform="translate(-206.6023,-151.36042)"><g data-paper-data="{&quot;isPaintingLayer&quot;:true}" fill="none" fill-rule="nonzero" stroke="none" stroke-width="0.5" stroke-linecap="butt" stroke-linejoin="miter" stroke-miterlimit="10" stroke-dasharray="" stroke-dashoffset="0" font-family="none" font-weight="none" font-size="none" text-anchor="none" style="mix-blend-mode: normal"><path d="M240.28552,203.30084c0.0037,0.10918 0.00184,0.22347 -0.00613,0.34312c-0.1663,2.49446 -2.66076,2.32817 -2.66076,2.32817c-1.33081,-0.08872 -2.79459,0.32044 -3.99243,-0.26616c-3.86483,-1.89267 -8.37945,-6.71421 -10.59681,-10.9881c-0.46697,0.02967 -0.87665,0.04728 -1.18774,0.0638c-4.07419,0.21645 -9.386,0.84923 -12.75766,-1.93606c-0.92456,-0.76377 -2.70586,-1.45336 -2.45834,-2.62677c0.38735,-1.83629 1.25514,-3.56876 2.24525,-5.16303c0.43965,-0.70792 1.26525,-1.08783 1.94029,-1.57648c0.95735,-0.69302 1.91073,-1.41454 2.93046,-2.01145c-1.15316,-3.01064 -0.97678,-6.8958 1.04657,-9.18458c2.35258,-2.66119 5.16196,-4.50634 8.24141,-5.66735c-0.00841,-0.19555 0.00294,-0.38926 0.03697,-0.57977c0.66864,-3.74309 2.81473,-5.01322 5.8025,-6.80689c3.42408,-2.0556 6.52614,-4.16671 10.35236,-5.3686c5.51317,-3.13176 14.99433,-3.02257 20.69728,-1.31198c3.40795,1.21713 5.66649,3.59786 6.32179,7.28627c0.20143,1.13377 0.65449,2.42792 0.12829,3.45219c-0.39062,0.76035 -0.81498,1.44646 -1.2723,2.06688c2.08906,0.16306 4.11969,0.66571 5.68508,2.05555c3.93758,3.49602 2.58455,8.00544 0.16849,11.85406c-0.59446,0.94694 -1.25904,1.85244 -1.97396,2.71446c0.54943,0.21065 0.92085,1.12038 1.49433,1.43471c1.99467,1.09329 3.89179,1.26204 5.87275,2.67525c1.80643,1.44514 3.32772,6.01607 1.72146,8.08382c-0.92539,1.19126 -2.35498,1.90529 -3.66104,2.66006c-1.66948,0.96478 -4.3502,1.1247 -6.20219,1.61852c-3.6268,0.96706 -6.92373,1.76043 -10.48465,2.06732c-1.04393,0.36961 -2.40395,0.54457 -3.31952,0.80513c-4.56626,1.29947 -9.36845,1.53711 -14.11173,1.97792zM210.64782,187.34243c-0.0815,-0.14926 -0.16627,-0.29115 -0.25929,-0.41611c-0.20094,-0.26993 -0.03013,0.00913 0.25929,0.41611zM217.85544,179.81732c0.00012,-0.00003 0.00024,-0.00007 0.00036,-0.0001c-0.20583,-0.11023 -0.3571,-0.21729 -0.24581,-0.13475c0.07341,0.05445 0.15652,0.09806 0.24545,0.13486zM228.01471,165.34293c0.02688,-0.00395 0.05377,-0.00786 0.08067,-0.01173c-0.04234,-0.04264 -0.07211,-0.05558 -0.07904,-0.00211c-0.0006,0.0046 -0.00114,0.00921 -0.00163,0.01384zM239.19166,162.93776c-0.55933,-0.05544 -1.31106,-0.37133 -1.14058,-0.02128c0.17394,0.35715 0.67019,0.13392 1.14058,0.02128zM273.20821,192.67434c-0.0286,0.57942 -0.24776,1.27082 -0.11297,0.94541c0.12087,-0.2918 0.12652,-0.61643 0.11297,-0.94541zM253.0996,196.40523c0.13778,-0.00543 0.27588,-0.00684 0.41433,-0.00366c0.34689,0.00798 0.57194,0.62501 0.90234,0.51902c0.4224,-0.13551 0.39435,-1.24756 0.79849,-1.06465c1.32076,0.59777 2.1638,1.93002 3.2457,2.89503l-1.46389,0.26616c-0.66845,-0.00779 -1.40505,1.11237 -1.89473,0.65729c-0.93722,-0.87101 -1.41761,-2.11235 -2.00224,-3.26919z" fill="#377831"/><path d="M247.0496,203.57921c-1.96468,1.54598 -0.04598,0.03532 -0.04598,0.03532l-1.06465,0.79849c-1.33435,0.61589 -2.79128,1.28819 -4.25488,1.15514c-2.60199,-0.23894 -5.23138,-0.37152 -7.57627,-1.76839c-2.14205,-1.27603 -2.61842,-5.24063 -1.33081,-7.16518c0.20322,-0.30375 0.33965,-0.73953 0.47531,-1.17149c-0.25535,-0.02735 -0.51075,-0.05369 -0.76587,-0.08074c-3.02607,-0.32085 -5.99595,-0.99558 -8.6522,-2.6133c-1.59123,-0.9691 -2.63485,-3.72807 -2.24427,-5.50988c0.10614,-0.48418 0.19666,-0.97767 0.31714,-1.46068c-3.89982,-0.51499 -7.40161,-2.09148 -8.67332,-6.45647c-0.32952,-1.13104 0.33778,-2.34249 0.69414,-3.46537c0.87807,-2.76683 2.46036,-5.36433 3.81825,-7.91037c0,0 1.17647,-2.20588 3.38235,-1.02941c2.20588,1.17647 1.02941,3.38235 1.02941,3.38235c-1.07316,2.01218 -4.95365,7.38419 -4.0048,9.91723c0.11999,0.32032 0.13726,-0.97321 0.4735,-0.91039c0.52509,0.09809 0.62565,0.89339 1.06465,1.19773c0.36791,0.25506 3.28136,0.4619 4.74021,0.49172h2.17462c1.38071,0 2.5,1.11929 2.5,2.5c0,0.64653 -0.24542,1.23573 -0.64818,1.67954l-1.19131,1.32368c-0.03454,0.43935 -0.51074,0.67237 -0.87596,0.97329l-0.32177,0.35752c-0.08297,0.14642 0.4489,-0.25433 0.49628,-0.09284c0.1255,0.42779 -0.29203,0.91429 -0.13308,1.33081c0.08549,0.22402 0.19899,-0.68493 0.41736,-0.58588c0.46062,0.20893 0.4818,0.96637 0.93157,1.19773c0.3419,0.17587 0.76712,-0.19311 1.14621,-0.12893c2.10906,0.35707 4.02482,0.7459 6.16754,1.03823c0.98072,0.1338 2.56996,-0.35843 2.91429,0.56955c0.62145,1.67479 0.78775,3.52244 0.73759,5.3081c-0.00718,0.25562 -1.61521,2.62959 -1.80938,2.92178c-0.26557,0.39964 -1.2768,1.15963 -0.79849,1.19773c0.52724,0.042 0.54576,-1.27899 1.06465,-1.17653c0.62766,0.12393 0.50175,1.2929 1.06465,1.59697c0.26465,0.14296 0.06584,-0.76156 0.35926,-0.82778c1.14815,-0.25912 2.33714,0.28484 3.50944,0.3902c1.70629,0.15512 1.90791,0.34027 0.8022,-0.17567l1.06465,-0.79849c0,0 5.01065,2.4187 3.04598,3.96468z" fill="#44943c"/><path d="M265.71386,200.86713c-2.44654,0.51424 -2.96078,-1.9323 -2.96078,-1.9323l-0.31962,-1.57889c0,-1.27579 -0.52234,-4.65347 0,-5.72249c0.1732,-0.35448 1.1216,0.24852 1.175,-0.14238c0.11303,-0.82739 -1.41565,-0.88621 -2.12443,-1.32778c-1.42628,-0.88857 -2.84215,-1.77566 -4.24181,-2.69621c0.40807,0.55567 0.69852,1.13944 0.82712,1.75453c0.48636,2.32618 0.05079,4.1511 -0.59443,6.341c-0.23438,0.7955 -1.00518,3.59311 -0.42177,4.45495c0.21018,0.31048 0.10889,-1.02434 0.48372,-1.01548c0.6396,0.01512 1.01171,0.80623 1.59697,1.06465c0.4666,0.20602 1.01611,-0.19206 1.52363,-0.14131l3.05709,1.11371c0,0 1.10772,2.2412 -1.13348,3.34891c-1.912,0.94501 -2.99905,-0.54734 -3.27714,-1.00613l0.85601,1.51869c-5.24398,-0.5244 -8.85394,-3.48122 -7.99626,-9.07837c0.13347,-0.87099 0.71365,-3.49048 1.09958,-4.30446c0.06496,-0.137 0.46729,0.28026 0.43528,0.13206c-0.0964,-0.44643 -0.57937,-0.74919 -0.66541,-1.19773c-0.02755,-0.14362 0.5153,-0.08337 0.40195,-0.17577c-2.57938,-2.10287 -6.07158,-3.48639 -8.79035,-5.57775c-2.85204,-3.82351 -3.10925,-4.45597 -1.90952,-8.95516c0.14491,-0.54344 1.45364,-3.67098 1.70976,-4.00886c0.14028,-0.18507 0.6818,0.35539 0.6857,0.12319c0.00834,-0.49589 -0.62843,-0.83623 -0.66541,-1.33081c-0.01436,-0.19201 0.71162,-0.05514 0.55356,-0.1651c-3.77779,-2.62787 -12.40011,-4.35001 -11.33089,-10.80093c0.19435,-1.17255 0.3517,-2.38148 0.83909,-3.4655c0.10898,-0.24238 0.26255,-0.45201 0.44409,-0.64111l-0.01702,-0.02269l0.1769,-0.13267c0.26296,-0.2395 0.5678,-0.44824 0.87433,-0.65575l1.05786,-0.7934c0.19292,-0.14798 0.40802,-0.26846 0.63947,-0.3556c0.69513,-0.29315 1.75195,-0.43185 2.73749,0.66637c0.00912,0.01011 0.01816,0.02029 0.02711,0.03055c0.97258,1.10795 0.70838,2.14122 0.33513,2.79618c-0.14335,0.27541 -0.33647,0.52078 -0.56744,0.72418l-2.38611,2.12099c-0.12113,0.26786 0.68184,-0.51994 0.83909,-0.27155c0.28474,0.44977 -0.11116,1.07638 0,1.59697c0.02689,0.12593 0.18709,-0.34351 0.2854,-0.26035c0.31951,0.27028 0.34866,0.79114 0.66541,1.06465c2.70464,2.33547 9.7007,3.14152 9.96407,7.6595c0.22181,3.80501 -2.14606,6.31262 -2.41481,9.79424c-0.05844,0.75707 -0.53771,1.55327 -0.26616,2.26238c0.14522,0.37923 0.5143,-0.62857 0.77145,-0.94285c1.42717,1.09782 3.89281,2.3079 6.07077,3.72722c-0.43679,-0.46003 -0.84459,-0.94194 -1.17861,-1.4795c-0.28095,-0.45215 -0.06866,-1.0691 0,-1.59697c0.50708,-3.89845 2.87658,-6.21979 5.98067,-8.51704c0.54429,-0.40281 1.09056,-0.84204 1.73005,-1.06465c0.22713,-0.07906 0.53298,0.40924 0.68594,0.22366c0.41945,-0.50888 0.20775,-1.38833 0.66541,-1.86313c0.21165,-0.21958 0.85392,0.56812 0.87603,0.26395c0.06218,-0.85545 -2.26895,-3.4052 -2.67463,-3.88465c-2.51493,-2.97219 -4.80937,-5.45767 -5.84457,-9.25342c0,0 -0.65779,-2.41191 1.75412,-3.0697c2.41191,-0.65779 3.0697,1.75412 3.0697,1.75412c0.87907,3.22324 2.65471,4.75942 4.83768,7.33929c0.80341,0.94949 3.05817,3.19505 3.14517,4.54188c0.08629,1.3359 -0.20316,2.67539 -0.45478,3.99022c-0.12396,0.64771 -0.24853,1.35215 -0.66541,1.86313c-2.10368,2.57861 -5.42971,3.99272 -7.67221,6.54255c-0.35277,0.40111 -0.87401,0.69874 -1.06465,1.19773c-0.07551,0.19764 0.5509,-0.25956 0.63148,-0.06394c0.20274,0.4922 -0.38216,1.2264 0,1.59697c0.28062,0.27211 0.64999,-0.43437 0.97498,-0.65156c1.82757,1.25044 3.685,2.41508 5.56385,3.58561c0.71203,0.44359 1.79394,0.56703 2.13416,1.33384c1.48495,3.34682 1.175,6.60774 1.175,10.10486l0.2127,0.55041c0,0 0.51424,2.44654 -1.9323,2.96078z" fill="#44943c"/><path d="M241.70463,188.83563c-2.39233,0.72576 -3.1181,-1.66657 -3.1181,-1.66657l-0.63999,-0.72576c0,-1.56614 0.02575,-3.02866 0.30649,-4.57273c0.51463,-0.32859 -0.26954,-1.21936 -0.1782,-1.82308c0.03991,-0.26381 0.98265,0.06875 0.79174,-0.11764c-1.20217,-1.17374 -3.13025,-1.33703 -4.4343,-2.39644c-0.91132,-0.74036 -2.45348,-4.18965 -2.59505,-4.64697c-0.029,-0.09369 -0.05374,-0.1816 -0.07445,-0.26398c-0.20374,-0.03522 -0.40569,-0.07831 -0.60427,-0.13593c-2.62951,-0.76297 -4.45827,-1.96822 -6.24527,-4.34986c-0.32059,-0.42727 -0.02691,-1.08733 0.13308,-1.59697c1.41244,-4.49916 3.93295,-5.06343 8.08838,-6.19673c0,0 2.41191,-0.65779 3.0697,1.75412c0.65779,2.41191 -1.75412,3.0697 -1.75412,3.0697c-1.66175,0.4532 -4.39744,0.91914 -5.66149,2.21962c-0.30509,0.31388 0.93878,-0.74884 1.24025,-0.43148c0.3679,0.38728 -0.6664,1.62709 -0.13308,1.59697c0.59687,-0.0337 0.16292,-1.49424 0.74476,-1.63151c0.81107,-0.19135 1.5329,0.6631 2.33001,0.90612c0.49906,0.15215 1.57797,-0.2846 1.93155,0.16654c0.9346,1.19247 1.5372,2.63203 2.0432,4.06011c0.14889,0.42022 -0.31026,0.92172 -0.13308,1.33081c0.08625,0.19914 0.42333,-0.38285 0.5989,-0.2553c0.48814,0.35464 0.59432,1.08595 1.06465,1.46389c0.67836,0.54511 1.89479,0.15885 2.48591,0.7975c2.24668,2.42731 2.40815,4.37855 2.21052,7.37495c-0.24158,1.32869 -0.22584,2.33743 -0.22584,3.6783l0.42466,-0.72576c0,0 0.72576,2.39233 -1.66657,3.1181z" fill="#5dcc53"/><path d="M255.61341,176.64036c-1.67407,0.29612 -1.3649,-2.80507 -1.14103,-4.21554c-0.87512,-0.38339 -1.79146,-0.9175 -2.08625,-1.64739c-0.60949,-1.50905 -1.19773,-3.10578 -1.19773,-4.73326c0,-0.56462 0.63543,-1.24885 1.19773,-1.19773c0.09732,0.00885 0.16456,0.05487 0.21273,0.12549c0.07332,-0.05569 0.339,-0.01908 0.28187,-0.09268c-1.84438,-2.37588 -4.2493,-3.15928 -5.61851,-6.11683c-0.37273,-0.80511 0,-1.77441 0,-2.66162c0,0 0,-2.5 2.5,-2.5c2.5,0 2.5,2.5 2.5,2.5c0,0.88721 -0.42974,1.88544 0,2.66162c0.1571,0.28375 -0.11339,-0.94522 0.21091,-0.94987c0.47151,-0.00677 0.7122,0.61829 1.06465,0.93157c1.7777,1.58015 2.80672,2.41907 3.78631,4.68406c0.83603,1.93304 0.4132,2.09716 -0.96801,4.25631c0.27216,0.2987 0.53862,0.60777 0.76331,0.75514c0.45191,0.29641 1.30881,-0.27555 1.61222,0.17169c1.03183,1.52095 2.74074,3.94623 1.50306,5.30495c-0.93018,1.02114 -2.21874,1.6459 -3.32811,2.46885l-1.33081,0.26616c0,0 0.0135,-0.00392 0.03766,-0.01093zM252.73353,165.48564c0.03568,0.27805 0.06972,0.5735 0.24639,0.72141c0.22908,0.19179 -0.05253,-0.28089 -0.24639,-0.72141z" fill="#5dcc53"/><path d="M264.23702,179.62222c-2.49461,-0.16412 -2.33049,-2.65873 -2.33049,-2.65873l-0.00539,-2.02226c0,-1.38724 0.34816,-2.78678 0.14565,-4.15916c-0.25572,-1.73294 -1.23691,-3.31614 -1.42791,-5.0574c-0.08447,-0.77009 1.19967,-3.90836 1.21601,-3.9391c0.2061,-0.38778 0.50147,-0.84286 0.93157,-0.93157c0.23718,-0.04892 0.15614,0.93508 0.20318,0.69752c0.31072,-1.56896 0.17744,-3.19395 0.26616,-4.79092c0,0 0.13868,-2.49615 2.63483,-2.35748c2.49615,0.13868 2.35748,2.63483 2.35748,2.63483c-0.08872,1.59697 0.27797,3.28689 -0.26616,4.79092c-0.49315,1.36312 -1.9208,2.20715 -2.59152,3.49223c-0.22377,0.42873 1.2436,2.87153 1.38507,3.77928c0.18194,1.16739 0.14565,4.47346 0.14565,5.84084l-0.00539,2.3505c0,0 -0.16412,2.49461 -2.65873,2.33049z" fill="#5dcc53"/></g></g></svg>