<svg version="1.1" xmlns="http://www.w3.org/2000/svg" xmlns:xlink="http://www.w3.org/1999/xlink" width="28.3757" height="47.20922" viewBox="0,0,28.3757,47.20922"><g transform="translate(-222.64741,-133.99399)"><g data-paper-data="{&quot;isPaintingLayer&quot;:true}" fill="none" fill-rule="nonzero" stroke="none" stroke-width="0.5" stroke-linecap="butt" stroke-linejoin="miter" stroke-miterlimit="10" stroke-dasharray="" stroke-dashoffset="0" font-family="none" font-weight="none" font-size="none" text-anchor="none" style="mix-blend-mode: normal"><path d="M246.31438,144.62351c1.23721,0.50944 0.72777,1.74665 0.72777,1.74665l-1.3993,0.79897c-0.30519,0.16647 -0.73177,0.10694 -0.98367,0.34651c-1.63602,1.55591 -1.97351,4.0317 -2.37562,6.16508c0.48299,-1.40497 1.13464,-2.77111 2.3077,-3.41415c1.36697,-0.74934 2.79493,-0.65949 4.29107,-0.65949l-0.11521,0.14031c0.26616,-0.15955 0.62979,-0.23442 1.1097,-0.05901c1.25669,0.4593 0.79739,1.71599 0.79739,1.71599l-1.79188,0.87869c-0.65466,0 -1.78506,0.20225 -2.41358,0.10782c-0.07667,-0.01152 0.0817,-0.27111 0.01471,-0.2321c-1.85665,1.08116 -2.15419,4.07112 -2.86177,5.87248c-0.34142,0.86917 -0.87222,1.23244 -1.05389,2.14075c-0.34715,1.73158 -0.74852,3.47288 -1.0499,5.21069c-0.67627,3.89945 -0.1789,8.05189 -0.39796,11.99499c0,0 -0.06268,1.12819 -1.10961,1.25344c0.06141,0.2523 0.13644,0.50459 0.22832,0.75728c0,0 0.45725,1.25743 -0.80018,1.71469c-1.25743,0.45725 -1.71469,-0.80018 -1.71469,-0.80018c-0.79396,-2.18337 -0.57125,-4.32952 -0.74955,-6.612c-0.24283,-3.10863 -0.83521,-6.28044 -1.32243,-9.36317c-0.25456,-1.65465 -0.2697,-3.49541 -1.12405,-4.9916c-1.01831,-1.78331 -2.68898,-2.99915 -4.25646,-4.25315c-0.85458,-0.68369 -1.64356,-1.5465 -2.72616,-1.87077c-0.7419,-0.22222 -1.70094,-0.12634 -2.47901,-0.12634l-2.25097,-0.70835c0,0 -0.62964,-1.18058 0.55094,-1.81022c1.18058,-0.62964 1.81022,0.55094 1.81022,0.55094l-0.11019,-0.70835c4.91636,0 9.57318,3.7033 11.94621,7.93242c0.759,1.35266 0.94303,2.93518 1.13442,4.46863c0.06067,-1.35211 0.09251,-2.71641 -0.10213,-3.97172c-0.1265,-0.81588 -0.67226,-1.78834 -0.78459,-2.72361c-0.1234,-1.02747 -0.00854,-2.44984 -0.51914,-3.39788c-0.29071,-0.53977 -1.00792,-0.70352 -1.46453,-1.11263c-1.47045,-1.32341 -2.53507,-2.92162 -4.08854,-4.16439l-1.46437,-0.91913c0,0 -0.52706,-1.22981 0.70274,-1.75687c1.22981,-0.52706 1.75687,0.70274 1.75687,0.70274l0.67642,-0.11634c1.60411,1.28328 2.70127,2.90979 4.207,4.26494c0.82043,0.74122 1.74177,1.51465 2.28185,2.49994c0.16125,0.29419 0.26975,0.61124 0.34413,0.94258c0.70227,-3.31615 1.4278,-6.47077 4.669,-8.23869l0.20629,0.53137c0,0 0.50944,-1.23721 1.74665,-0.72777z" data-paper-data="{&quot;origPos&quot;:null}" fill="#427c4b"/><path d="M228.14347,135.02299c0.69932,-0.47855 2.09657,0.31403 2.80978,0.4014c1.55222,0.19014 2.94847,0.01519 4.39365,-0.46654c0,0 0.87008,-0.29003 1.40964,0.33053c0.60021,-0.21527 1.1979,-0.44312 1.80478,-0.68066c0.56882,-0.22264 1.14425,-0.73743 1.73614,-0.58646c1.02591,0.26167 1.80716,1.10365 2.7072,1.66122c0.06753,0.04183 -0.04959,-0.22594 0.02914,-0.23651c0.24711,-0.03318 0.48678,0.14402 0.73589,0.1338c0.47694,-0.01957 1.68562,-1.19784 2.27733,-1.10262c2.18261,0.35122 2.41766,1.12042 2.95087,2.86806c0.35933,2.15598 0.80384,5.62646 -0.16274,7.66336c-0.73296,1.54459 -2.03894,2.71609 -2.92269,4.1659c0.10523,0.37002 0.08865,0.8675 -0.44848,1.32108c-1.02226,0.86324 -1.88551,-0.15902 -1.88551,-0.15902l0.00148,-0.41956c-0.53919,1.54623 -1.15767,3.12349 -1.86334,4.57004c-0.29069,0.58138 -0.47655,1.1792 -0.65557,1.79173l0.0045,0.00135l-0.2007,0.66899v0l-0.19206,0.6402c-0.15577,0.56631 -0.6744,0.98231 -1.2902,0.98231c-0.29566,0 -0.56893,-0.0959 -0.79039,-0.25829c0.00105,0.57481 -0.07278,1.14538 -0.17219,1.72488l-0.1338,0.66899c0,0 0.08366,1.01531 -1.25303,1.07429c-1.33669,0.05897 -1.37098,-1.59909 -1.37098,-1.59909l0.1338,-0.66899c0.35553,-1.34076 -0.10574,-1.79221 -0.5352,-3.08777c-0.3813,-1.15027 -0.47194,-2.24688 -0.36885,-3.35358c-0.1798,0.00451 -0.31022,0.00744 -0.34881,0.00918c-3.40167,0.1537 -4.65559,-2.33699 -4.99016,-5.37002c-0.00195,-0.02341 -0.00208,-0.04836 -0.00088,-0.07443c-0.00956,0.02604 -0.02564,0.04697 -0.05006,0.06109c-0.25096,0.14511 -0.52102,-0.26633 -0.80279,-0.3345c-0.5829,-0.14102 -1.99813,0.27911 -2.54584,-0.3549c-1.79644,-2.07951 -1.75632,-4.11749 -1.75632,-6.63352l1.18305,0.12307c0.00202,-0.00016 0.00424,0.00009 0.00664,0.00069l0.0067,0.0007c-0.27771,-0.03741 -1.2538,-0.25068 -1.19461,-1.39762c0.06897,-1.33621 1.40518,-1.26725 1.40518,-1.26725l0.02025,0.04054c0.11621,-0.52775 0.26372,-1.02831 0.34188,-1.39306c0,0 0.26028,-1.21462 1.44958,-1.05241c0.16245,-0.1412 0.33804,-0.27684 0.5277,-0.40663zM229.56224,147.53267c0.03522,-0.25902 0.13197,-0.56975 -0.07616,-0.62425c-0.19681,-0.05153 0.05629,0.36954 0.07616,0.62425z" data-paper-data="{&quot;origPos&quot;:null}" fill="#d83913"/><path d="M227.92522,139.11235c1.12881,0.71833 0.41047,1.84714 0.41047,1.84714c-0.45703,0.71819 -1.23538,1.64604 -1.17595,2.57729c0.00501,0.07849 0.14752,0.05445 0.22098,0.09203c0.00721,-0.0145 0.01611,-0.02873 0.02687,-0.04268c0.20423,-0.26491 0.67241,-0.04773 1.00349,0c1.39379,0.20093 2.29275,0.6648 3.39874,1.51431c1.25187,0.96156 1.98215,1.33266 2.64197,2.88351c0.11807,0.27752 0.17511,0.60058 0.38164,0.82034c0.15272,0.1625 0.32507,0.74473 0.4014,0.5352c0.0807,-0.22156 -0.25247,-0.39831 -0.37871,-0.59747c0.2676,-0.0223 0.5352,-0.0446 0.80279,-0.0669l1.73299,-0.0073c0,0 0.25528,0.25898 0.36465,0.63999c0.90632,-0.31587 1.9412,-0.64278 2.44308,-1.05736c1.54039,-1.27242 0.92554,-3.29538 1.08213,-5.06051c0.07426,-0.83709 0.24161,-1.55321 0.24161,-2.41358c0,0 0,-1.33799 1.33799,-1.33799c1.33799,0 1.33799,1.33799 1.33799,1.33799c0,1.01861 -0.20894,1.93642 -0.29358,2.93838c-0.18298,2.1661 0.38154,4.55392 -1.59385,6.1786c-1.27058,1.045 -3.01433,1.51976 -4.47175,2.24848l-0.54234,-0.20707c0,0 -0.09246,0.14424 -0.26282,0.2964c0.81431,1.12018 0.47439,3.2078 0.47439,4.46729l0.08441,0.52842c0,0 0.67577,1.1548 -0.47903,1.83056c-1.1548,0.67577 -1.83056,-0.47903 -1.83056,-0.47903l-0.45079,-1.87996c0,-0.64213 -0.25647,-2.01729 0,-2.60908c0.03904,-0.09008 0.31518,0.1779 0.28184,0.08555c-0.08633,-0.23915 -0.51185,-0.3516 -0.4683,-0.6021c0.03392,-0.19509 0.75929,0.01352 0.58785,-0.08555c-0.63655,-0.36785 -1.49925,0.02415 -2.19531,-0.2125c-1.93869,-0.65912 -2.76594,-2.38444 -3.13066,-4.20806c0.12759,-0.25507 -0.44268,-0.52348 -0.40483,-0.77753c-0.2295,0.0451 -0.45906,0.09052 -0.69155,0.11373c-1.21282,0.12109 -3.28111,0.01728 -4.14777,-0.93659c-2.05551,-2.26236 -1.34597,-5.79134 0.03458,-8.27633c0,0 0.64979,-1.16961 1.8194,-0.51983c0.13898,0.07721 0.25227,0.16176 0.34401,0.25081c0.28862,-0.08711 0.64788,-0.07248 1.06252,0.19139zM227.61615,144.31943c0.05171,0.21614 0.08212,0.35981 0.06676,0.2112c-0.00717,-0.06936 -0.03279,-0.14018 -0.06676,-0.2112z" data-paper-data="{&quot;origPos&quot;:null}" fill="#9e2b0e"/><path d="M239.51639,138.90317c-0.4501,0.01088 -0.90228,-0.01532 -1.35554,-0.06378c-0.59898,0.39547 -1.26704,1.01307 -1.72703,1.24199c-2.61568,1.30171 -6.15935,-0.8845 -8.15654,-2.3824c0,0 -1.07039,-0.80279 -0.2676,-1.87319c0.80279,-1.07039 1.87319,-0.2676 1.87319,-0.2676c0.57368,0.43025 1.14511,0.83267 1.73979,1.17077c0.01774,-0.7235 0.6098,-1.30457 1.33758,-1.30457h1.13729c0.20418,-0.22863 2.6218,0 3.01048,0c2.23959,0 4.73206,-0.30384 6.92861,0.22422l0.0474,-0.10429l1.44418,0.65645c0.47743,0.20435 0.81193,0.67842 0.81193,1.23061c0,0.73895 -0.59904,1.33799 -1.33799,1.33799c-0.0994,0 -0.19627,-0.01084 -0.28949,-0.0314l-0.6419,-0.12838c-0.12729,0.13369 -0.33888,-0.03781 -0.53567,-0.10714l-0.1072,-0.02144c-0.2016,0.48361 -0.67886,0.82355 -1.23552,0.82355c-0.0994,0 -0.19627,-0.01084 -0.28949,-0.0314l-0.9764,-0.19528c-0.39805,0.25667 -0.9366,-0.18615 -1.41009,-0.17471z" data-paper-data="{&quot;origPos&quot;:null}" fill="#9e2b0e"/><path d="M230.56334,139.28102c-0.11026,-0.52372 0.41346,-0.63397 0.41346,-0.63397l0.51165,-0.01148c0.1338,0 0.2676,0 0.4014,0c0.84068,0 2.23706,0.24848 2.97183,0.0565c0.66296,-0.17322 1.29824,-0.42569 1.95359,-0.61218c-1.26702,-0.04069 -2.59221,-0.12053 -3.85503,-0.03254v0.18683h-1.47179c-0.0302,0 -0.05982,-0.0025 -0.08866,-0.00731c-0.15754,-0.02023 -0.36443,-0.10571 -0.43194,-0.40321c-0.00283,-0.01188 -0.00527,-0.0239 -0.0073,-0.03607c-0.05396,-0.30305 0.10509,-0.46245 0.24333,-0.54196c0.05681,-0.03574 0.1208,-0.06109 0.18933,-0.07339l0.65927,-0.13186l0.00464,0.02321c1.89649,-0.24865 3.97306,-0.0336 5.85367,-0.0336c0.4906,0 0.98119,0 1.47179,0c-2.36598,0 -4.60068,-0.99637 -7.08256,-0.60747c-0.37058,0.05294 -0.70719,0.07228 -1.07918,0.07228l-0.65301,-0.27159c0,0 -0.12981,-0.51922 0.38941,-0.64902c0.17581,-0.04395 0.30697,-0.01349 0.40357,0.04603l-0.13996,-0.19581c0.33492,0 0.58572,-0.01265 0.92781,-0.06152c2.53474,-0.33679 4.87106,0.59672 7.23393,0.59672c1.08147,0 3.67656,0.03629 2.7918,1.51075c0.35726,0.0196 0.65415,0.02584 0.70295,-0.03497c0.19921,-0.2482 0.28289,-0.86187 0.44192,-1.17994c0,0 0.23934,-0.4787 0.71804,-0.23934c0.4787,0.23934 0.23934,0.71804 0.23934,0.71804c-0.28382,0.56764 -0.40682,1.41358 -1.09417,1.6606c-0.68612,0.24658 -1.48649,0.04801 -2.1943,0.10704c-0.90352,0.07536 -1.73396,0.33858 -2.60908,0.4014c-1.09628,0 -2.02943,0.49831 -3.03873,0.74629c-1.04992,0.25796 -2.36985,0.0565 -3.45052,0.0565c-0.1338,0 -0.2676,0 -0.4014,0l-0.29114,-0.01148c0,0 -0.52372,0.11026 -0.63397,-0.41346z" data-paper-data="{&quot;origPos&quot;:null}" fill="#c53612"/><path d="M237.87929,148.20021c-0.02149,0.04688 -0.05183,0.09521 -0.09304,0.14451c-0.34323,0.41065 -0.75387,0.06742 -0.75387,0.06742l0.37148,-1.15694c0.6892,-0.3446 1.62899,-1.16755 2.12907,-1.93094c-0.0108,-0.04239 -0.01654,-0.08679 -0.01654,-0.13255v-0.5352h0.01878c0.00125,-0.03857 0.0118,-0.08085 0.02734,-0.1252c0.05211,-0.36105 0.1442,-0.86589 0.27086,-1.35232c-0.02846,-0.68629 -0.0232,-1.35033 0.26491,-1.57042l0.09407,-0.51738c0.01635,-0.10055 0.06072,-0.1917 0.12484,-0.26517c-0.00873,-0.0035 -0.0176,-0.007 -0.02657,-0.01049c-0.04685,0.13726 -0.14791,0.2494 -0.27765,0.31091l-0.29366,0.14683c-0.54365,0.27593 -1.0032,0.69148 -1.5449,0.9589c-1.30662,0.64504 -3.1119,-0.11782 -4.41137,-0.11782c-0.65214,-0.01339 -1.27266,-0.19546 -1.86307,-0.479c-0.05951,0.0362 -0.12663,0.0611 -0.19841,0.07176l-0.39272,0.06545c-0.31839,0.42117 -1.02585,-0.3108 -1.26922,-0.48397c-0.08204,-0.05837 -0.16008,-0.11458 -0.2344,-0.16903c-0.19543,-0.05532 -0.39147,-0.09761 -0.59135,-0.11758v0.04196h-0.80279c-0.0302,0 -0.05982,-0.0025 -0.08866,-0.00731c-0.15754,-0.02023 -0.36443,-0.10571 -0.43194,-0.40321c-0.00283,-0.01188 -0.00527,-0.0239 -0.0073,-0.03607c-0.05396,-0.30305 0.10509,-0.46245 0.24333,-0.54196c0.05681,-0.03574 0.1208,-0.06109 0.18933,-0.07339l0.27037,-0.05408c-0.17883,-0.29254 -0.31212,-0.63284 -0.44714,-1.09079c-0.50539,-0.27653 -1.29653,-0.62552 -1.33357,-0.91648l-0.37844,-0.37844c-0.09685,-0.09685 -0.15675,-0.23065 -0.15675,-0.37844c0,-0.29558 0.23962,-0.5352 0.5352,-0.5352c0.06356,0 0.12453,0.01108 0.18109,0.03142l0.79094,0.26365l-0.00649,0.01946c0.36178,0.15459 0.68586,0.34401 0.98493,0.65032c0.15179,0.15546 0.23184,0.35085 0.28075,0.56404c0.22661,0.20869 0.42539,0.39698 0.55559,0.50105c0.79523,0.63567 1.74141,1.5613 2.76614,2.05215c-0.01462,-0.01522 -0.02936,-0.03028 -0.04425,-0.04517l0.5352,-0.5352l0.07898,0.07898c1.31954,-0.59065 3.32885,-0.2353 4.71865,-0.18147c0.17895,-0.05168 0.35657,-0.10851 0.53165,-0.1706c-0.00019,-0.0058 -0.00028,-0.01162 -0.00028,-0.01747c0,-0.2547 0.17792,-0.46785 0.41625,-0.52193l0.3122,-0.07805c0.30351,-0.09629 0.92737,-0.56723 1.13462,-0.49404l0.45742,-0.19604c0.06755,-0.03078 0.14262,-0.04793 0.2217,-0.04793c0.29558,0 0.5352,0.23962 0.5352,0.5352c0,0.17733 -0.08624,0.33451 -0.21906,0.43189l-0.3702,0.27764c0.43924,0.27947 0.76908,0.6893 0.95094,1.22894c0.26829,0.79607 -0.39801,1.93619 -0.68948,2.80566c-0.03439,0.26086 -0.08274,0.51705 -0.14537,0.76729c0.01402,0.22106 0.02894,0.44621 -0.14491,0.50552l-0.06419,0.25674c-0.02262,0.09966 -0.07304,0.18875 -0.14269,0.25869c-0.49738,1.10775 -1.33456,2.03638 -2.54828,2.64324zM238.05574,141.11415c-0.1396,-0.00505 -0.27916,-0.00985 -0.41869,-0.01441c-0.35296,0.09264 -0.71085,0.16888 -1.07134,0.23049c0.30939,0.01739 0.62316,0.01587 0.94371,-0.01869c0.18089,-0.0195 0.3639,-0.09454 0.54633,-0.1974z" data-paper-data="{&quot;origPos&quot;:null}" fill="#f37b5d"/><path d="M239.49552,157.34459c-0.51236,-0.15467 -0.35768,-0.66703 -0.35768,-0.66703l-0.00411,-0.11946c0.18229,-0.67085 0.43107,-1.32333 0.59935,-1.99645c0.33142,-1.07655 1.0978,-3.07019 1.78255,-3.9417c0.11024,-0.14031 0.25683,-0.25477 0.42392,-0.3523c-0.00965,-0.04021 -0.01476,-0.08219 -0.01476,-0.12536c0,-0.14366 0.05661,-0.27411 0.14873,-0.37024l0.26737,-0.28003c0.95209,-1.00324 1.8467,-2.14989 3.09092,-2.772c0.12773,-0.05404 0.25099,-0.11631 0.36984,-0.18589l0.20374,-0.27166c0.11124,-0.24363 0.1525,-0.59715 0.23924,-0.80121c0.22724,-0.53464 0.75583,-0.9707 1.09387,-1.44633c0.16472,-0.91296 0.35864,-1.93534 0.75189,-2.72868l-0.03761,-0.02821l0.39766,-0.53021c0.09677,-0.13198 0.25258,-0.21796 0.42852,-0.21905c0.0072,-0.04525 0.01311,-0.09068 0.01763,-0.1363c-0.01288,-0.03951 -0.02089,-0.06438 -0.02224,-0.0684c-0.3739,-1.11553 -0.8354,-2.0997 -1.48854,-3.08223l-0.28273,-0.42409c-0.05926,-0.08615 -0.09394,-0.1905 -0.09394,-0.30296c0,-0.20579 0.11615,-0.38445 0.28646,-0.47401c-0.05058,0.00148 -0.10154,0.00363 -0.15266,0.00627v0.06634h-1.07039c-0.06764,0 -0.13235,-0.01255 -0.19194,-0.03545c-0.15353,-0.05217 -0.34326,-0.18109 -0.34326,-0.49975c0,-0.30595 0.1749,-0.437 0.32473,-0.49313l0.50632,-0.25316l0.09691,0.19382c0.53431,-0.03793 1.18238,-0.11506 1.61423,0.01728c2.23623,0.68527 2.7716,3.26793 2.94358,5.21816c0,0.27609 -0.3695,0.64645 -0.52602,0.90544l0.10864,0.02716l-0.13109,0.52434c-0.05409,0.23833 -0.26723,0.41625 -0.52193,0.41625c-0.1813,0 -0.34154,-0.09015 -0.43835,-0.22806c-0.0202,0.06559 -0.04101,0.13126 -0.06234,0.19697c-0.06263,0.37499 -0.20686,0.8121 -0.24559,1.00574c-0.20957,1.04784 -0.65648,2.04539 -1.30511,2.88693c-0.141,0.37102 -0.30695,0.73 -0.51375,1.06602c-0.14291,0.23222 -0.7894,0.78752 -1.04744,0.55815h-0.2676c-0.00728,0 -0.01454,-0.00014 -0.02175,-0.00043c-0.04634,0.02649 -0.09311,0.05241 -0.1403,0.07773c-0.64758,0.32379 -1.18556,0.80948 -1.68962,1.33926c0.04779,-0.01498 0.09646,-0.02967 0.14594,-0.04413l-0.00481,-0.02404l0.08597,-0.0172c0.12123,-0.07006 0.22313,-0.10131 0.27878,-0.05576l0.2934,-0.05868c0.03729,-0.00823 0.07604,-0.01256 0.11579,-0.01256c0.29558,0 0.5352,0.23962 0.5352,0.5352c0,0.2547 -0.17792,0.46785 -0.41625,0.52193l-0.25674,0.06419c-0.19107,0.74907 -2.39924,0.90694 -2.93182,1.6122c-0.17986,0.23818 -0.06933,0.59989 -0.17984,0.87713c-0.25893,0.64963 -1.07999,1.76007 -1.11499,2.40632c-0.17011,0.68045 -0.42064,1.33963 -0.60484,2.01752l-0.00411,0.14814c0,0 -0.15467,0.51236 -0.66703,0.35768zM249.1398,137.29988c0.08984,0.13257 0.17048,0.26562 0.24249,0.39913c-0.17547,-0.71371 -0.49389,-1.35469 -1.30276,-1.60563c-0.0776,-0.02407 -0.16239,-0.04127 -0.25239,-0.05306c0.01471,0.00917 0.02893,0.01903 0.04264,0.02955l0.42383,0.31787c0.27967,-0.01427 0.78711,0.82496 0.84619,0.91214zM249.97389,140.14111c0.01022,-0.12097 -0.03109,-0.2442 -0.08638,-0.36741c-0.00037,0.05752 -0.00174,0.11512 -0.00406,0.17277c0.00212,0.00636 0.00423,0.01273 0.00634,0.0191c0.01925,0.05809 0.04915,0.11673 0.0841,0.17553z" data-paper-data="{&quot;origPos&quot;:null}" fill="#f37b5d"/><path d="M235.05717,157.50678c0.11302,0.10351 0.30896,0.35058 0.09193,0.68636c-0.29052,0.44948 -0.74,0.15896 -0.74,0.15896l-0.36808,-0.47832c-0.14794,-0.73973 -0.63394,-2.15767 -1.14575,-2.68542c-0.78612,-0.8106 -2.19579,-1.33179 -3.05635,-2.19236c-0.37196,-0.38558 -0.93662,-1.65499 -1.42784,-1.78333c-1.25781,-0.32863 -3.31812,-0.12857 -4.578,0.12341c0,0 -0.5248,0.10496 -0.62977,-0.41984c-0.10496,-0.5248 0.41984,-0.62977 0.41984,-0.62977c1.20747,-0.24149 4.51727,-0.7092 5.56247,0.17991c0.58621,0.49866 0.85708,1.25001 1.41018,1.77274c1.79581,1.79581 3.85015,2.56541 4.46138,5.26766z" data-paper-data="{&quot;origPos&quot;:null}" fill="#55a161"/><path d="M241.29958,174.88747c-0.52757,-0.09 -0.43758,-0.61757 -0.43758,-0.61757l-0.13832,-0.11948c-0.13935,-1.11482 -0.43158,-2.32711 -0.77843,-3.36765c-0.08757,-0.30986 -0.16091,-0.63118 -0.22187,-0.96075c-0.09256,0.07652 -0.21131,0.12251 -0.34079,0.12251c-0.29558,0 -0.5352,-0.23962 -0.5352,-0.5352v-0.5352h0.00159c0.00739,-0.68444 0.0344,-1.37636 -0.05234,-2.05274c-0.06628,0.02941 -0.13966,0.04575 -0.21685,0.04575c-0.29558,0 -0.5352,-0.23962 -0.5352,-0.5352v-0.5352h0.00337c0.01401,-0.56206 0.07091,-1.12547 0.15534,-1.6889c-0.20302,-0.70847 -0.4309,-1.40636 -0.65937,-2.11075c-0.15942,-0.07724 -0.27473,-0.23126 -0.29786,-0.41402l-0.06579,-0.46051c-0.18975,-0.13627 -0.16323,-0.39766 -0.12151,-0.6629c-0.0285,-0.09502 -0.0567,-0.19037 -0.08457,-0.28608c0,0.358 0,0.71599 0,1.07399c0,0.13723 0.10597,1.33866 0,1.40489v0.3345c0,0.29558 -0.23962,0.5352 -0.5352,0.5352c-0.29558,0 -0.5352,-0.23962 -0.5352,-0.5352v-0.3345c-0.07414,-0.04634 -0.04453,-0.64837 -0.02006,-1.05283c-0.0169,-0.62568 -0.03099,-1.25944 0.02006,-1.8789c0,-0.73984 0,-1.47969 0,-2.21953v-0.5352v0c0,-0.29558 0.23962,-0.5352 0.5352,-0.5352c0.24075,0 0.44438,0.15896 0.51164,0.37766l0.03047,0.09141c0.07714,-0.0431 0.16604,-0.06767 0.26069,-0.06767c0.24075,0 0.44438,0.15896 0.51164,0.37766l0.2637,0.79108l-0.03282,0.01094c0.0661,0.31323 0.1141,0.6444 0.14585,0.97465c0.3075,-0.87072 0.35874,-1.83131 0.80198,-2.71778c0.12438,-0.24876 0.10215,-0.68373 0.37314,-0.74629l0.12861,-0.25723c0.08581,-0.18103 0.27023,-0.30622 0.48388,-0.30622c0.02809,0 0.05568,0.00216 0.08261,0.00634c-0.0266,-0.62704 -0.03747,-1.3 0.05119,-1.34433v-0.2676v0c0,-0.29558 0.23962,-0.5352 0.5352,-0.5352c0.29558,0 0.5352,0.23962 0.5352,0.5352v0.2676c0.03111,0.01555 0.04996,0.10847 0.06018,0.24962c0.14681,-0.41826 0.30083,-0.77343 0.43186,-0.86039c0.00113,-0.00374 0.00226,-0.00748 0.00339,-0.0112l-0.03753,-0.01877l0.26241,-0.52482c0.08581,-0.18103 0.27023,-0.30622 0.48388,-0.30622c0.29558,0 0.5352,0.23962 0.5352,0.5352c0,0.07051 -0.01363,0.13782 -0.03841,0.19947l-0.18359,0.48957c0.05567,0.13175 -0.03208,0.43704 -0.1751,0.79352c-0.02653,0.16285 -0.05178,0.32772 -0.07326,0.47845c0.54256,-1.43183 1.11309,-2.74695 2.63938,-3.5101c0,0 0.40654,-0.20327 0.65765,0.13949c0.00377,-0.0019 0.00756,-0.0038 0.01135,-0.00569c0.31708,-0.15854 0.64488,-0.28035 0.97301,-0.40745c0.25127,-0.13719 0.47853,-0.24075 0.61008,-0.25337c0.05227,-0.02415 0.10438,-0.04911 0.15629,-0.07507v0l0.39177,-0.19588c0.07437,-0.03915 0.15909,-0.06132 0.24898,-0.06132c0.29558,0 0.5352,0.23962 0.5352,0.5352c0,0.20264 -0.11262,0.37898 -0.27869,0.46983l-0.45566,0.26038c-0.08948,0.31083 -1.4919,0.728 -1.79847,0.95296c-0.32896,0.24139 -0.68066,0.5075 -1.02965,0.79698c-0.56359,0.95804 -0.68168,2.22708 -1.32689,3.34165c-0.16541,0.28574 -0.83267,1.54119 -1.22147,1.58108l-0.25007,0.25007c-0.04955,1.10931 -0.1474,2.21127 -0.36353,3.25696c-0.17348,0.83934 -0.05681,1.69656 -0.44722,2.49674c-0.05476,0.11224 -0.15071,0.17344 -0.2676,0.2007l-0.15757,0.11818c-0.01756,0.36377 -0.03241,0.71911 -0.04018,1.06187c-0.00682,0.30099 -0.05614,1.50177 -0.27113,2.01257c0.03852,0.41943 0.0835,0.8404 0.13179,1.26688c0.05842,0.5159 -0.09644,1.08855 0.12231,1.56615c0.36729,1.10189 0.67864,2.40178 0.82509,3.57337l0.13134,0.43225c0,0 -0.09,0.52757 -0.61757,0.43758zM240.05158,161.03898c-0.0048,0.04634 -0.00954,0.09269 -0.01426,0.13904c0.00464,-0.00571 0.00939,-0.01132 0.01426,-0.01684c0,-0.04073 0,-0.08147 0,-0.1222zM238.65984,160.06321c-0.14658,0.24376 -0.28442,0.49774 -0.34166,0.71719c-0.00109,0.01569 -0.00305,0.03108 -0.00598,0.04614v0.06867c0.02514,0.07952 0.05039,0.1589 0.0757,0.23816c0.09311,-0.3574 0.18346,-0.71014 0.27194,-1.07016zM241.12198,158.42299c0.06614,-0.24494 0.13037,-0.49048 0.19159,-0.7369c0.00037,-0.35565 -0.00428,-0.70993 -0.01196,-1.05514c-0.05766,0.10303 -0.11787,0.20671 -0.17963,0.31088c0,0.49372 0,0.98744 0,1.48115z" data-paper-data="{&quot;origPos&quot;:null}" fill="#55a161"/></g></g></svg>