<svg version="1.1" xmlns="http://www.w3.org/2000/svg" xmlns:xlink="http://www.w3.org/1999/xlink" width="131.40454" height="40.12107" viewBox="0,0,131.40454,40.12107"><g transform="translate(-176.51697,-161.81927)"><g data-paper-data="{&quot;isPaintingLayer&quot;:true}" fill="#4bb724" fill-rule="nonzero" stroke="none" stroke-width="0.5" stroke-linecap="butt" stroke-linejoin="miter" stroke-miterlimit="10" stroke-dasharray="" stroke-dashoffset="0" font-family="none" font-weight="none" font-size="none" text-anchor="none" style="mix-blend-mode: normal"><path d="M237.98728,175.84496c1.27635,2.14964 -0.87329,3.42598 -0.87329,3.42598l-1.79812,-0.18067c-2.01966,0.00747 -4.37498,-0.07025 -6.20675,0.86084c-2.18822,1.11227 -4.54022,5.62094 -7.171,5.80792c-0.23996,0.01706 0.01502,-0.91836 -0.11058,-0.71318c-0.47123,0.76977 -0.35401,1.77006 -0.53102,2.65509c0,0 -0.49029,2.45145 -2.94174,1.96116c-0.30082,-0.06016 -0.55734,-0.14986 -0.77591,-0.26093c-0.12549,0.16426 -0.25477,0.3262 -0.38632,0.48675c-0.54232,1.67239 -1.19744,3.30266 -1.9526,4.81298c0,0 -1.11803,2.23607 -3.3541,1.11803c-2.23607,-1.11803 -1.11803,-3.3541 -1.11803,-3.3541c0.15997,-0.31994 0.31437,-0.64568 0.46325,-0.9764c-0.67207,-1.29047 0.30383,-2.59167 0.30383,-2.59167c0.37658,-0.50211 0.78637,-0.98337 1.19185,-1.46734c0.46629,-1.56613 0.82905,-3.16515 1.09153,-4.72646c0.13257,-0.78859 0.64428,-2.18917 -0.12829,-2.39554c-0.49598,-0.13248 0.14557,1.34484 -0.34336,1.50134c-0.4929,0.15777 -3.78991,-1.56827 -4.45733,-1.83523l-2.03714,-1.75312c0,0 -0.01236,-0.05297 -0.02562,-0.14509c-1.54088,0.97346 -3.34753,2.58741 -3.73728,2.93784c-3.6187,3.25361 -6.17591,6.96595 -8.02468,11.14761c-0.16442,0.75901 -0.27039,1.56602 -0.27039,2.48414c0,0 0,1.782 -1.50449,2.337c-0.24981,0.8235 -0.48051,1.66263 -0.69422,2.51748c0,0 -0.60634,2.42536 -3.0317,1.81902c-0.09871,-0.02468 -0.19239,-0.05237 -0.2813,-0.08278c-0.44255,0.48225 -1.14988,0.86147 -2.25774,0.6399c-2.45145,-0.49029 -1.96116,-2.94174 -1.96116,-2.94174c0.84505,-4.22525 3.65806,-9.94389 2.07552,-14.37821c-0.13106,-0.36725 -1.62137,-1.62424 -2.18611,-1.98263c-1.31557,-0.83487 -2.15595,-2.38771 -3.45387,-3.15283c-0.64779,-0.38187 -1.49553,-0.2203 -2.20891,-0.45809l-2.61452,-1.49987c0,0 -0.87183,-2.34305 1.47122,-3.21489c2.34305,-0.87183 3.21489,1.47122 3.21489,1.47122l-0.49045,-1.49987c4.60022,1.53341 9.45262,5.23152 11.15965,10.01928c0.15796,-2.18733 -0.11274,-4.54177 -0.11274,-6.58554l-1.59183,-0.07809c0,0 0.07809,-2.49878 2.57687,-2.42069c2.49878,0.07809 2.42069,2.57687 2.42069,2.57687l1.59427,-0.07809c0,0.83211 0.01919,1.6717 0.03463,2.5136c0.49188,-0.55 1.0045,-1.09197 1.5388,-1.62628c3.04816,-3.04816 6.1655,-5.57143 10.52956,-6.04241h1.32754c0,0 -0.29712,-1.02303 1.61295,0.58993c0.92069,0.77747 0.57905,1.83007 -0.02191,2.71193c1.89758,0.73821 3.63847,1.43457 5.15831,2.75469c0.51397,-0.75384 1.02881,-1.4954 1.48295,-2.22238c3.73592,-5.98039 7.52991,-11.4162 14.14768,-14.25239l0.11018,0.71692c0,0 1.58094,-1.93665 3.51759,-0.35571c1.93665,1.58094 0.35571,3.51759 0.35571,3.51759l-2.01389,0.71692c-5.40592,2.31682 -8.5297,6.96735 -11.6259,11.90513c0.83736,-0.80439 1.76044,-1.7518 2.50112,-2.1643c3.16037,-1.76008 6.19986,-2.31224 9.72379,-2.32527l-0.73608,0.88136c0,0 2.14964,-1.27635 3.42598,0.87329z"/><path d="M301.68678,169.96638c1.31373,2.12699 -3.89476,3.0815 -3.89476,3.0815l-1.06204,-1.06204c1.69148,-0.79046 -0.06667,0.1525 -0.88732,-0.3298c-0.23893,-0.14042 0.4835,-0.92376 0.2371,-0.7969c-1.2915,0.66489 -3.11825,3.39374 -4.0207,4.41651c-1.75753,1.99186 -3.49271,3.89849 -5.33184,5.72547l0.12206,0.1424l-1.4984,1.28434c0.29341,0.63741 0.71501,2.09185 -0.8659,3.14579c-1.84573,1.23049 -3.14555,-0.26861 -3.41504,-0.62208c-0.46882,-0.07635 -0.96974,-0.32479 -1.44786,-0.87567c-0.01166,-0.01334 -0.02318,-0.02681 -0.03456,-0.0404c-0.73925,-0.87674 -0.72936,-1.69432 -0.50663,-2.31867c-1.34263,-2.28364 -2.73744,-4.65807 -4.435,-6.39488c-0.79215,-0.81047 -3.43966,-1.26564 -4.55164,-1.67013c-0.94177,-0.34258 -1.79085,-1.11255 -2.793,-1.11255c-0.24995,0 0.67957,0.33121 0.52941,0.53102c-0.28633,0.38101 -0.88503,0.35401 -1.32754,0.53102l-2.22423,1.40986c0,0 -2.13799,-1.29575 -0.84224,-3.43375c1.29575,-2.13799 3.43375,-0.84224 3.43375,-0.84224l-2.22423,-1.77625c4.46592,-1.78637 10.67564,0.14558 14.15998,3.58953c1.46694,1.44994 2.70802,3.43065 3.87779,5.41831c1.95745,-1.90298 3.76797,-3.89353 5.62593,-5.99922c0.87363,-0.99012 2.82523,-3.93402 4.10958,-4.5146c0.04822,-0.0218 4.01575,-1.20279 5.01626,-0.7969c1.03498,0.41987 1.88654,1.19618 2.8298,1.79427l1.06204,1.06204c0,0 -0.9545,-1.67296 0.35923,0.45403z"/><path d="M307.83558,180.80138c0.56807,2.4346 -1.86653,3.00268 -1.86653,3.00268l-2.16113,-1.52766c-5.30822,0 -8.80562,0.81385 -12.56971,4.57795c0,0 -1.76777,1.76777 -3.53553,0c-1.76777,-1.76777 0,-3.53553 0,-3.53553c4.62144,-4.62144 9.63985,-6.04241 16.10525,-6.04241l1.02498,1.65845c0,0 2.4346,-0.56807 3.00268,1.86653z"/></g></g></svg>