<svg version="1.1" xmlns="http://www.w3.org/2000/svg" xmlns:xlink="http://www.w3.org/1999/xlink" width="20.26558" height="55.35975"><g transform="translate(-229.10263,-127.6667)"><g data-paper-data="{&quot;isPaintingLayer&quot;:true}" fill="none" fill-rule="nonzero" stroke="none" stroke-width="0.5" stroke-linecap="butt" stroke-linejoin="miter" stroke-miterlimit="10" stroke-dasharray="" stroke-dashoffset="0" font-family="none" font-weight="none" font-size="none" text-anchor="none" style="mix-blend-mode: normal"><path d="M240.95018,183.00939c-0.50905,0.01181 -0.82291,-0.17577 -1.01638,-0.40791c-0.24015,0.28121 -0.65743,0.55422 -1.31934,0.35886c-0.03387,-0.00953 -0.06717,-0.02036 -0.09984,-0.03245c-0.57593,-0.20468 -0.77107,-0.59151 -0.82089,-0.93118l-0.38087,-1.11286l0.62281,-0.2022c0.43941,-1.87348 0.1749,-3.95091 0.1749,-5.87868c0,-1.81379 0.28843,-3.90867 -0.09039,-5.68447c-0.36027,-2.10529 -1.70698,-3.95989 -2.18143,-6.02311c-0.21416,-0.93133 -0.41641,-1.86169 -0.61275,-2.79243c-0.22293,-0.59469 -0.40532,-1.21578 -0.32973,-1.58551c-0.32445,-1.57774 -0.64177,-3.15883 -0.98119,-4.74991c-0.93195,-5.44604 1.76889,-10.73252 3.16509,-15.8106c0.07202,-0.2455 0.14404,-0.491 0.21606,-0.73651l-0.04982,-0.27252c0,0 -0.01223,-1.26252 1.28406,-1.27444c0.52413,-0.00482 0.83834,0.19872 1.0267,0.44291c0.0864,-0.01433 0.18015,-0.02211 0.28188,-0.02211c1.29635,0 1.29635,1.26258 1.29635,1.26258c0,2.83249 -0.18336,5.48568 -0.90818,8.17937c0.00329,0.48994 -0.44309,1.49123 -0.61463,1.94611l-0.05613,0.16398c-0.3356,1.22982 -0.47757,2.42621 -0.53762,3.63749c0.27925,0.26443 0.2569,0.65657 0.14388,1.08237c0.08061,0.41349 0.1128,0.80745 -0.10574,1.10026c0.18014,3.15221 0.63924,6.13197 1.20502,9.30203c0.14522,0.35261 0.36946,0.74189 0.18696,1.03494c0.00226,0.01239 0.00452,0.02478 0.00679,0.03718l0.02876,0.16209c0.21904,-0.0384 0.43703,-0.07959 0.65088,-0.13166v0.63129c0.15384,0.07492 0.06274,0.29726 0.01919,0.49099c0.09422,1.18867 0.5116,1.99255 0.71937,3.29961c0.04115,0.25884 0.29509,1.70688 0.12567,1.891c-0.08158,0.08866 -0.16803,0.17187 -0.25845,0.25067l0.12159,0.23684c-0.06335,-0.01258 -0.1274,-0.02349 -0.19198,-0.03312c0.98621,3.03442 2.61491,5.97141 1.02227,9.1153l-0.43212,0.73651c-0.01282,-0.00953 -0.02569,-0.019 -0.0386,-0.02844c-0.00435,0.14957 -0.00666,0.30073 -0.00666,0.45418l-0.00037,0.60123c0,0 0.03086,1.26222 -1.26513,1.29228zM240.78872,176.36075c-0.02484,-0.102 -0.05239,-0.20396 -0.08192,-0.30553c0.00117,0.0924 0.00257,0.18484 0.00413,0.2773c0.0259,0.00945 0.05183,0.01886 0.07779,0.02822z" data-paper-data="{&quot;origPos&quot;:null}" fill="#33613a"/><path d="M240.18319,143.64482c0.22358,-0.30357 0.45657,-0.60609 0.69902,-0.9043c-0.27418,0.02824 -0.54762,0.05858 -0.8141,0.10899l0.10803,-0.73651c0.00401,-0.02356 0.00793,-0.04712 0.01175,-0.07069c-0.00494,-0.00417 -0.00986,-0.00836 -0.01477,-0.01257c-0.00627,-0.00538 -0.02987,-0.64778 -0.05398,-1.32535c-0.02594,-0.01018 -0.05185,-0.0204 -0.07773,-0.03067c-0.49671,0.15828 -1.01854,0.27464 -1.49874,0.46047c0,-0.03716 0,-0.08608 0,-0.14356c-0.23225,0.3402 -0.62938,0.56442 -1.08029,0.56442c-0.18084,0 -0.35303,-0.03607 -0.50941,-0.10121c-0.35765,3.48211 0.0263,6.96194 -0.88316,10.38104l0.0297,0.00964l-0.42266,1.23496c-0.10063,0.31867 -0.32727,0.58358 -0.62329,0.73957c-0.07043,0.27834 -0.37645,1.13432 -1.45338,0.97957c-1.28247,-0.18429 -1.09325,-1.43334 -1.09325,-1.43334l-0.66206,-0.86786c0,-2.60636 -0.04054,-5.21665 0.01913,-7.82241c0.00495,-0.21627 0.01061,-2.30004 0.23094,-2.48489l0.19406,-1.22852c0.08641,-0.61564 0.6285,-1.08997 1.28434,-1.08997c0.37497,0 0.71276,0.15506 0.94946,0.40293c0.05526,-0.1495 0.14838,-0.33415 0.30217,-0.49108c-0.48,-0.18502 -0.8195,-0.64111 -0.8195,-1.17442c0,-0.16723 0,-1.07096 0,-1.23819c-0.68764,-1.70184 -1.21027,-3.61054 -1.71083,-5.288c-0.09762,-0.32713 -0.51037,-2.0888 -0.2337,-2.31187v-0.84172c0,-0.6973 0.5804,-1.26258 1.29635,-1.26258c0.59663,0 1.09913,0.39256 1.25005,0.92695l0.63981,2.07713l-0.00439,0.00129c0.19548,0.64949 0.38887,1.29631 0.58965,1.93964c0.01304,0.02767 0.02508,0.05587 0.03609,0.08457l0.01929,0.04696c0.41464,0.32635 0.48432,0.86933 0.48432,0.86933l0.11179,0.43229c0.07228,0.10045 0.10925,0.23214 0.13465,0.37434c0.21008,0.50569 0.64049,1.54062 0.86215,2.4076c0.26356,0.59972 0.52726,1.19923 0.76409,1.80883l0.01533,-0.00497l0.24871,0.72669c0.00634,-0.06552 0.01838,-0.13308 0.03387,-0.20194c0,-1.72527 0,-3.45054 0,-5.17581c0,-0.66636 -0.56838,-1.62814 0,-1.99909c0.03222,-0.02103 0.06479,-0.04141 0.09769,-0.06117l-0.08004,-0.46777c0.26945,0.05535 0.5463,0.09014 0.82359,0.12374c0.05835,-0.0211 0.11713,-0.04139 0.17626,-0.06103c-0.02916,-0.66754 -0.0382,-1.37025 0.06281,-1.42764v-0.73651c0.37043,-0.21045 0.78016,0.30518 1.20112,0.29842c0.14566,-0.34206 0.46694,-0.71929 1.17552,-0.71929c0.77185,0 1.08414,0.4476 1.21049,0.80979c0.05546,0.14056 0.08586,0.29322 0.08586,0.45279c0,0.56115 0,1.12229 0,1.68344c0,0.95128 0,1.90256 0,2.85384c0.59309,1.81243 0.98926,3.58802 -0.219,5.54618c-0.05691,0.09223 -0.12759,0.16101 -0.20924,0.20959c-0.00077,0.05425 -0.00167,0.1085 -0.00271,0.16275c0.71042,-0.6294 1.47838,-1.18415 2.30456,-1.61611c0.62192,-0.32517 1.5354,-1.13694 2.01544,-0.63291h0.64818c0.71596,0 1.29635,0.56528 1.29635,1.26258c0,0.39327 -0.18462,0.74456 -0.47405,0.97611l-0.89335,0.72506c-0.18539,0.15105 -0.36919,0.30213 -0.55142,0.45355c0.10493,0.18232 0.16477,0.39259 0.16477,0.61647c0,0.27495 -0.09024,0.52937 -0.24345,0.73672l-0.77267,1.07506c-0.60015,0.83594 -1.17919,1.68527 -1.75265,2.53838c-0.2203,0.40358 -0.44317,0.807 -0.67946,1.2065c0.13591,0.20505 0.18726,0.38843 0.18726,0.38843l-0.19017,1.4318c0.12781,0.04858 0.26081,0.12273 0.3975,0.22923c1.01228,0.78873 0.20246,1.77464 0.20246,1.77464c-1.39314,1.69605 -1.49307,4.57505 -1.84878,6.98568l0.01655,0.00295l-0.24278,1.29222c0.01319,0.32621 0.01681,0.64426 0.00578,0.95089c0.03358,-0.07347 0.08455,-0.12896 0.16723,-0.15272l0.31346,-0.81412c0.15381,-0.42976 0.53941,-0.75372 1.01095,-0.82982c0.29408,-0.86518 0.60037,-1.72829 0.95438,-2.59025l0.09524,-0.39631c0,0 0.6723,-1.07952 1.78069,-0.42473c1.10839,0.65479 0.43609,1.7343 0.43609,1.7343l0.09524,0.02455c-0.8444,2.05602 -1.29721,4.13211 -2.19512,6.18517c-0.08085,0.18485 -0.45687,1.16249 -0.88071,1.82585c-0.02035,0.08234 -0.04103,0.16448 -0.06208,0.24641c0.13193,0.28945 -0.14281,0.67444 -0.25148,0.99063c-0.06796,0.19775 -0.14448,0.39317 -0.22739,0.58684c-0.08636,0.23703 -0.17938,0.46975 -0.28053,0.69715c-0.02656,0.0597 -0.99157,2.31052 -1.16995,2.36755l-0.59742,1.09098c-0.21404,0.41034 -0.65155,0.69149 -1.15647,0.69149c-0.71596,0 -1.29635,-0.56528 -1.29635,-1.26258c0,-0.0413 0.00204,-0.08214 0.00602,-0.12243l-0.90523,0.1102c-0.05917,0.00806 -0.11963,0.01222 -0.18108,0.01222c-0.10685,0 -0.21067,-0.01259 -0.31,-0.03633c-0.37842,-0.07563 -0.864,-0.31479 -0.97121,-1.03269c-0.00336,-0.02126 -0.00617,-0.04268 -0.00843,-0.06428c-0.01216,-0.10759 -0.01351,-0.20694 -0.00587,-0.29867c-0.19087,0.10772 -0.41254,0.16938 -0.64901,0.16938c-0.47159,0 -0.88436,-0.24526 -1.1112,-0.61195l-0.5447,-0.84882c-0.26297,-0.40927 -0.53485,-0.80767 -0.80992,-1.19958c-0.04176,-0.0014 -0.0835,-0.00345 -0.12521,-0.00618c-0.54783,-0.03589 -0.62334,-0.8811 -0.91115,-1.33652c-0.13917,-0.22021 -0.27313,-0.44414 -0.40135,-0.67144c-1.32572,-1.88687 -2.48613,-3.80124 -2.79427,-6.26787c-0.25043,-2.00468 0.30548,-3.08677 2.72435,-3.54387c0.38865,-0.07344 1.61245,2.14987 1.75777,2.40463c0.95807,1.74223 2.30021,4.18519 2.51075,6.13147c0.01181,0.10917 0.02839,0.22679 0.04708,0.34994c0.32685,0.51021 0.59458,1.03651 0.76363,1.57956c0.22022,0.7074 0.88523,1.74698 0.28557,2.2001l-0.08444,0.57567l0.48957,-0.59602l0.65101,0.50724l1.06471,-0.12962c0.1328,-0.12604 -0.28814,-0.31664 -0.23691,-0.49021c0.1808,-0.61255 0.61775,-1.05312 1.04862,-1.49628c0.00334,-0.05024 0.0097,-0.09969 0.01891,-0.14816l0.21204,-1.23911l0.0424,0.00688c0.0117,-0.03998 0.02371,-0.07962 0.03601,-0.11894c-0.16132,0.07018 -0.34007,0.1092 -0.52817,0.1092c-0.60243,0 -1.10888,-0.40023 -1.25434,-0.94256l-0.42424,-1.44617l0.05001,-0.01392c-0.81026,-4.09739 -0.12564,-8.38394 0.34015,-12.46687c0,0 0.10002,-0.87673 0.88528,-1.08311l0.01518,-0.05174c-0.07046,-0.23678 -0.05198,-0.47075 -0.01762,-0.64166c-0.07858,0.01449 -0.15968,0.02207 -0.24259,0.02207c-0.55904,0 -1.03543,-0.34465 -1.2174,-0.82768c-0.5909,-0.23423 -1.07873,-0.59511 -0.74052,-1.11274c0.69598,-1.06519 0.0814,-0.11088 0.0814,-0.11088l0.43212,-0.52607c0.2061,-0.23723 0.43015,-0.48003 0.66825,-0.72105l0.20948,-0.51006c0.04511,-0.11767 0.10773,-0.22703 0.18478,-0.32506c0.17518,-0.24188 0.47281,-0.50395 0.94212,-0.51044z" data-paper-data="{&quot;origPos&quot;:null}" fill="#786db9"/><path d="M237.34071,142.49838c-1.18462,0.51278 -1.71112,-0.64098 -1.71112,-0.64098l-0.40699,-0.15857c-0.49711,-0.96831 -1.21256,-1.88847 -1.63163,-2.88224c-0.43741,-1.03728 -0.04732,-2.81668 -0.38174,-3.62744c-0.36312,-0.88035 -1.3382,-1.82923 -1.84174,-2.68747c0,0 -0.64317,-1.09623 0.48238,-1.72264c1.12555,-0.62642 1.76872,0.46981 1.76872,0.46981c0.44044,0.75069 1.2805,1.59015 1.6152,2.36285c0.65122,1.50344 0.26906,3.32844 0.91461,4.78976c0.28437,0.64373 1.03003,1.46069 1.39319,2.16808l0.45725,0.26229c0,0 0.5265,1.15376 -0.65812,1.66654z" data-paper-data="{&quot;origPos&quot;:null}" fill="#5f5692"/><path d="M236.0922,150.55214c-0.1494,0.11193 -0.29378,0.18643 -0.43145,0.23201l0.65482,0.21865c-0.38434,1.12297 -0.36223,2.38275 -1.01878,3.43255c-1.25308,2.00365 -3.65888,0.1696 -4.09218,-1.37766c-0.63099,-2.2532 -0.26909,-4.76866 0.7771,-6.80654c0,0 0.57975,-1.12928 1.73924,-0.56464c1.15949,0.56464 0.57975,1.69393 0.57975,1.69393c-0.63045,1.22807 -0.78407,2.26956 -0.71157,3.53002c0.11706,-0.32145 0.22787,-0.5925 0.26678,-0.70619l2.4734,-1.42269c0,0 0.7904,1.00075 -0.23712,1.77056z" data-paper-data="{&quot;origPos&quot;:null}" fill="#5f5692"/><path d="M242.85884,148.54332c-0.60116,0.33457 -1.06471,0.17773 -1.36615,-0.04103c0.0109,0.03352 0.02022,0.06605 0.02818,0.0971l0.26269,0.32071c-0.07593,0 -0.15161,-0.00109 -0.22694,-0.00326l-0.42124,0.63455c0,2.28906 -0.19517,4.66825 -0.01764,6.94705c0.10858,1.3936 0.36917,2.69338 0.53026,4.03985c0.24489,-0.29633 0.77139,-0.72565 1.57953,-0.33211c1.15949,0.56464 0.57975,1.69393 0.57975,1.69393c-0.90228,1.75755 -1.87559,3.24484 -2.2498,5.06314c-0.11607,0.56399 -0.38797,1.09391 -0.47198,1.66327c-0.00243,0.01648 0.00726,0.09056 0.02189,0.19373c0.2011,0.06144 0.38831,0.13938 0.43793,0.15549l1.30944,1.34704c0,0 -0.15325,1.25373 -1.44051,1.10447c-0.3636,-0.04216 -0.61227,-0.17244 -0.78193,-0.33769l0.09312,0.28175c-0.82147,-0.26669 -1.37694,-0.67799 -1.72671,-1.18996c-0.62278,0.11489 -1.13085,-0.35319 -1.13085,-0.35319l0.14432,0.30766c-1.24945,-0.30422 -2.72713,-0.51331 -3.84312,-1.17382c-1.71805,-1.01684 -3.498,-3.62898 -4.29673,-5.7889l-0.17505,0.02436l-0.09166,-0.62495l-0.50302,-0.1633l0.40738,-1.19032c0.08171,-0.36169 0.32807,-0.80379 1.03022,-0.91675c0.02385,-0.00405 0.04791,-0.00747 0.07219,-0.01023c0.74498,-0.09151 1.11132,0.3045 1.28603,0.64152c0.07787,0.13645 0.13052,0.28843 0.15183,0.44997c0.28528,1.88698 2.20235,4.71377 3.95211,5.79304c0.3366,0.20762 1.92821,0.35977 2.55606,0.49107c0.17065,-1.25512 0.73729,-2.64182 1.35777,-3.91042c-0.72537,-0.30172 -0.72537,-1.15905 -0.72537,-1.15905c0,-2.02975 -0.47322,-3.71238 -0.63054,-5.68447c-0.19343,-2.42491 -0.01764,-4.92912 -0.01764,-7.36218l0.43227,-0.61187c0,0 -0.00473,-0.29897 0.13981,-0.60817c-1.0999,-0.61813 -1.62195,-1.742 -0.84057,-3.46048c0.24745,-0.54421 0.86423,-0.84172 1.29635,-1.26258v0c0.11141,-0.10851 0.24301,-0.19736 0.38883,-0.26075c0.35228,-0.16927 0.89838,-0.27113 1.44448,0.26075c0.40288,0.39238 0.45162,0.78478 0.37969,1.10137v1.054h-0.75938l-0.56357,0.54889c0.41122,-0.03795 1.03856,0.0824 1.32296,0.0824l1.55766,0.42574c0,0 0.64317,1.09623 -0.48238,1.72264z" data-paper-data="{&quot;origPos&quot;:null}" fill="#5f5692"/><path d="M242.8184,141.70801c-1.23734,0.3766 -1.62401,-0.82851 -1.62401,-0.82851l-0.61116,0.02422c-2.84556,-3.23334 -2.68873,-6.43919 -2.68873,-10.50146c0,0 0,-1.26258 1.29635,-1.26258c1.29635,0 1.29635,1.26258 1.29635,1.26258c0,3.4384 -0.30572,6.16481 2.06456,8.8581l1.11731,0.86594c0,0 0.38667,1.20511 -0.85067,1.5817z" data-paper-data="{&quot;origPos&quot;:null}" fill="#5f5692"/><path d="M242.86385,136.50473c-1.29635,0 -1.29635,-1.26258 -1.29635,-1.26258c0,-1.33272 0,-3.7176 0,-5.05032c0,0 0,-1.26258 1.29635,-1.26258c1.29635,0 1.29635,1.26258 1.29635,1.26258c0,1.33272 0,2.66544 0,3.99817v1.05215c0,0 0,1.26258 -1.29635,1.26258z" data-paper-data="{&quot;origPos&quot;:null}" fill="#a192f8"/><path d="M235.94191,135.80398c-1.22503,0.413 -1.64908,-0.78012 -1.64908,-0.78012l-0.15052,-0.90051c-0.78819,-1.53532 -1.39863,-3.01008 -1.82662,-4.67745c0,0 -0.31441,-1.22489 0.94323,-1.53111c1.25765,-0.30622 1.57206,0.91866 1.57206,0.91866c0.38461,1.49837 0.92206,2.781 1.63032,4.1606l0.2816,1.20379c0,0 0.42405,1.19312 -0.80098,1.60612z" data-paper-data="{&quot;origPos&quot;:null}" fill="#a192f8"/><path d="M234.68013,147.42479c-1.27346,0.23624 -1.51602,-1.00403 -1.51602,-1.00403l-0.02289,-0.86753c0,-1.67549 0.38814,-1.82017 -0.58016,-2.99901c0,0 -0.80982,-0.98591 0.20246,-1.77464c1.01228,-0.78873 1.82211,0.19718 1.82211,0.19718c1.17682,1.4327 1.14831,2.8105 1.14831,4.57647l-0.02289,0.39505c0,0 0.24256,1.24028 -1.03089,1.47652z" data-paper-data="{&quot;origPos&quot;:null}" fill="#a192f8"/><path d="M244.03057,144.03812c-1.03708,-0.75755 -0.25927,-1.76761 -0.25927,-1.76761l0.33648,-0.55609c1.14672,-1.11685 1.91428,-2.4481 2.9292,-3.68369c0,0 0.80982,-0.98591 1.82211,-0.19718c1.01228,0.78873 0.20246,1.77464 0.20246,1.77464c-1.07494,1.30867 -1.8953,2.69857 -3.12044,3.89179l-0.09564,0.28563c0,0 -0.77781,1.01006 -1.81489,0.25252z" data-paper-data="{&quot;origPos&quot;:null}" fill="#a192f8"/><path d="M243.07991,154.39128c-1.29635,0 -1.29635,-1.26258 -1.29635,-1.26258c0,-0.80665 0,-2.3498 0,-3.15645c0,0 0,-1.26258 1.29635,-1.26258c1.29635,0 1.29635,1.26258 1.29635,1.26258c0,0.80665 0,1.6133 0,2.41994v0.73651c0,0 0,1.26258 -1.29635,1.26258z" data-paper-data="{&quot;origPos&quot;:null}" fill="#a192f8"/><path d="M245.88867,161.5459c-1.29635,0 -1.29635,-1.26258 -1.29635,-1.26258l0.01764,-0.62842c0.19316,-1.1288 0.09581,-2.09704 -0.01232,-3.25544c0,0 -0.11737,-1.2574 1.17366,-1.3717c1.29103,-0.11431 1.40839,1.14308 1.40839,1.14308c0.1273,1.36374 0.21919,2.54633 -0.01232,3.89919l0.01764,0.21329c0,0 0,1.26258 -1.29635,1.26258z" data-paper-data="{&quot;origPos&quot;:null}" fill="#a192f8"/><path d="M229.46822,156.07472c0,-1.26258 2.29223,-0.80828 2.29223,-0.80828l0.36386,0.42526c0.10996,-0.37154 0.41066,-0.87955 1.23296,-0.87955c1.29635,0 1.29635,1.26258 1.29635,1.26258c0,0.84172 0,1.68344 0,2.52516v1.26258c0,0.6973 -0.5804,1.26258 -1.29635,1.26258c-0.65068,0 -1.1894,-0.4669 -1.28221,-1.07548l-0.16112,-0.94156c-0.49189,-0.31397 -0.9063,-0.78613 -1.6051,-1.5937l-0.54014,-0.63129c0,0 -0.30047,0.4543 -0.30047,-0.80828z" data-paper-data="{&quot;origPos&quot;:null}" fill="#a192f8"/><path d="M236.16603,165.33364c0,0 -1.29635,0 -1.29635,-1.26258c0,-1.26258 1.29635,-1.26258 1.29635,-1.26258c0.07374,0 0.14747,0 0.2212,0c-0.21013,-1.38971 -0.23782,-2.77815 -0.43726,-4.2086c-0.18613,-1.33498 -0.333,-2.59314 -0.33668,-3.84603l-0.30648,-0.3185c-0.50414,-0.28057 -1.00828,-0.56115 -1.51241,-0.84172c0,0 -1.12555,-0.62642 -0.48238,-1.72264c0.64317,-1.09623 1.76872,-0.46981 1.76872,-0.46981c0.27382,0.15239 0.54763,0.30478 0.82145,0.45717c0.08694,-0.40542 0.19598,-0.81575 0.33038,-1.23322c0.23931,-0.69924 0.74747,-1.36178 0.93457,-2.05925c0.3097,-1.15447 -0.25491,-3.31511 -0.13686,-4.69611c0.12637,-1.47839 0.64436,-2.78078 1.30006,-4.08994c0.01455,-0.14737 0.16319,-1.23888 1.37005,-1.16856c1.29404,0.0754 1.21662,1.33573 1.21662,1.33573l-0.13455,0.69967c-1.58279,3.0831 -0.49346,5.86577 -1.29635,9.04848c-0.14261,0.56533 -0.59963,1.16087 -0.7939,1.72849c-0.52308,1.37549 -0.60628,2.71829 -0.52012,4.06913c0.10988,-0.33084 0.46245,-1.03387 1.44793,-0.8739c1.27871,0.20757 1.06559,1.45297 1.06559,1.45297c-0.07202,0.42086 -0.14404,0.84172 -0.21606,1.26258l-0.481,0.82299c0,0 -0.35479,1.03665 -1.39445,0.85968c0.19296,1.71785 0.16924,3.38954 0.74628,5.07556c0,0 0.40995,1.19779 -0.81988,1.59705c-0.7008,0.22752 -1.13537,-0.06355 -1.37957,-0.35607c-0.34212,0 -0.69243,0 -0.9749,0z" data-paper-data="{&quot;origPos&quot;:null}" fill="#44814d"/></g></g></svg>