<svg version="1.1" xmlns="http://www.w3.org/2000/svg" xmlns:xlink="http://www.w3.org/1999/xlink" width="77.68715" height="61.77056" viewBox="0,0,77.68715,61.77056"><g transform="translate(-201.4234,-144.35317)"><g data-paper-data="{&quot;isPaintingLayer&quot;:true}" fill="#b5d0d1" fill-rule="nonzero" stroke="none" stroke-width="0.5" stroke-linecap="butt" stroke-linejoin="miter" stroke-miterlimit="10" stroke-dasharray="" stroke-dashoffset="0" font-family="none" font-weight="none" font-size="none" text-anchor="none" style="mix-blend-mode: normal"><path d="M205.82913,177.90322c-0.10257,-0.03893 -0.20774,-0.08502 -0.3155,-0.1389c-2.23607,-1.11803 -1.11803,-3.3541 -1.11803,-3.3541l0.45662,0.16146c0.21455,-0.51762 0.59797,-0.94754 1.08155,-1.22104c-2.07554,-4.13482 -4.9363,-8.95452 -4.4572,-13.75293c0.85731,-8.5862 10.94472,-10.84528 17.27545,-6.51365c1.24017,0.93013 2.54383,1.3571 3.86618,2.15351c1.51855,0.91457 3.18251,2.82988 4.94737,3.27844c0.23523,0.05979 -0.62454,-0.40563 -0.44899,-0.57323c0.01625,-0.01551 0.03375,-0.02909 0.05238,-0.04096c-0.00907,-0.00856 -0.01733,-0.01824 -0.02472,-0.02912c-0.26777,-0.39427 0.41709,-0.86476 0.53102,-1.32754c0.25218,-1.02434 0.36679,-2.08733 0.37734,-3.1422c0.01379,-1.37873 -1.28264,-3.50364 -0.55614,-4.95662c2.08786,-4.17572 5.05349,-4.09305 9.13772,-4.09305c5.0519,0 10.72605,0.94647 13.41688,5.77916c0.78747,1.41428 1.3131,3.05129 1.91425,4.55416c0.24664,0.6166 0.5419,1.2295 0.95268,1.75123c0.00374,-0.03347 0.01413,-0.06763 0.03225,-0.10263c0.24753,-0.47806 1.07081,-0.13483 1.59305,-0.26551c2.62548,-0.65695 4.82115,-1.5534 7.57974,-1.62707c3.95891,0 8.02,-0.57412 11.47288,1.85699c7.98389,5.62131 6.91198,17.10563 -0.72501,21.6626c2.39129,1.45902 4.313,3.94503 4.58325,6.7269c0.44551,4.58585 -1.79709,9.34314 -5.5486,11.834c-2.22562,1.47773 -5.05063,1.64483 -7.65845,1.68381c-1.49485,0 -3.03055,-0.14741 -4.47292,-0.57957c-1.26474,-0.37893 -3.39307,-1.77025 -4.81989,-1.01349c-0.22939,0.12167 0.77013,0.07825 0.70573,0.3298c-0.12416,0.48501 -0.6851,0.73254 -1.06204,1.06204c-3.60351,3.14996 -9.00937,8.09887 -14.0219,8.11793c-1.81985,0.00692 -3.71355,-0.44207 -5.49423,-0.79653c-3.81386,-0.76277 -6.01364,-4.39769 -9.55774,-5.35239c-1.02187,-0.27527 -4.58857,1.35374 -5.8825,1.4183c-7.16776,0.35765 -11.55888,-2.96281 -13.08634,-10.05427c-0.74344,-4.46062 0.08771,-8.99429 -0.72613,-13.43555zM253.26095,156.94014c0.26589,0.43735 0.54691,0.94053 0.50723,0.62656c-0.03044,-0.24088 -0.28445,-0.43712 -0.50723,-0.62656zM227.75582,157.84258c0.30133,0.02827 0.59685,0.06641 0.68831,-0.16529c0.09641,-0.24426 -0.3012,0.00464 -0.68831,0.16529z"/></g></g></svg>