<svg version="1.1" xmlns="http://www.w3.org/2000/svg" xmlns:xlink="http://www.w3.org/1999/xlink" width="53.52761" height="60.6641" viewBox="0,0,53.52761,60.6641"><g transform="translate(-213.22685,-144.30285)"><g data-paper-data="{&quot;isPaintingLayer&quot;:true}" fill="none" fill-rule="nonzero" stroke="none" stroke-width="none" stroke-linecap="none" stroke-linejoin="miter" stroke-miterlimit="10" stroke-dasharray="" stroke-dashoffset="0" font-family="none" font-weight="none" font-size="none" text-anchor="none" style="mix-blend-mode: normal"><path d="M256.9078,198.93268c-9.13824,8.62316 -24.22804,7.47294 -33.70404,-2.56908c-9.47599,-10.04201 -9.7498,-25.17312 -0.61157,-33.79628c9.13824,-8.62316 24.22804,-7.47294 33.70404,2.56908c9.47599,10.04201 9.7498,25.17312 0.61157,33.79628z" data-paper-data="{&quot;origPos&quot;:null,&quot;origRot&quot;:0}" fill="#e1ffff" stroke="#0096ff" stroke-width="0.5" stroke-linecap="butt"/><path d="M243.19216,159.6277l3.29073,2.39449l-9.15778,-1.32668l-6.94776,1.74388" data-paper-data="{&quot;origRot&quot;:0}" fill="none" stroke="#0096ff" stroke-width="0.5" stroke-linecap="round"/><path d="M243.76574,164.24246l2.71715,-2.22027" data-paper-data="{&quot;origRot&quot;:0}" fill="none" stroke="#0096ff" stroke-width="0.5" stroke-linecap="round"/><path d="M243.22537,202.39594l-4.60929,-1.6969l3.56091,-4.22137" data-paper-data="{&quot;origRot&quot;:0}" fill="none" stroke="#0096ff" stroke-width="0.5" stroke-linecap="round"/><path d="M255.79597,195.32187l-8.20998,4.3268l-8.3552,1.48006" data-paper-data="{&quot;origRot&quot;:0}" fill="none" stroke="#0096ff" stroke-width="0.5" stroke-linecap="round"/><text transform="translate(221.25,184.25956) scale(0.14706,0.26082)" font-size="40" xml:space="preserve" data-paper-data="{&quot;origPos&quot;:null}" fill="#4d9797" fill-rule="nonzero" stroke="none" stroke-width="1" stroke-linecap="butt" stroke-linejoin="miter" stroke-miterlimit="10" stroke-dasharray="" stroke-dashoffset="0" font-family="Pixel" font-weight="normal" text-anchor="start" style="mix-blend-mode: normal"><tspan x="0" dy="0">Regenerate</tspan></text><path d="M220.28087,163.6253c0.6247,0.78087 -0.15617,1.40556 -0.15617,1.40556l-0.3247,0.31913c-0.63695,0.84927 -1.17842,1.27556 -2.03418,1.66152c0.05081,0.11032 0.10209,0.22502 0.15332,0.34456c0,0 0.1189,0.27743 0.07363,0.59277c0.10115,0.28229 0.18086,0.57034 0.2378,0.85503c0,0 0.19612,0.98058 -0.78446,1.1767c-0.98058,0.19612 -1.1767,-0.78446 -1.1767,-0.78446c-0.13038,-0.6519 -0.50643,-1.26892 -0.97653,-1.73901c-0.05922,-0.05922 -0.15182,-0.13678 -0.25409,-0.21965c-0.11044,0.05429 -0.23997,0.10616 -0.34159,0.15697l-1.04721,0.15557c0,0 -0.8,-0.6 -0.2,-1.4c0.23713,-0.31618 0.50551,-0.41368 0.74339,-0.41596l-0.3906,-0.12847c0.40021,-0.2001 0.7802,-0.30031 1.13735,-0.31851c-0.18796,-0.90311 -0.05475,-1.80091 0.75986,-2.88707l0.3,0.35c0,0 0,-1 1,-1c1,0 1,1 1,1l-0.7,0.85c-0.44753,0.59671 -0.50344,1.06774 -0.3555,1.59319c0.67852,-0.28296 0.76883,-0.39431 1.2555,-1.04319l0.6753,-0.68087c0,0 0.78087,-0.6247 1.40556,0.15617z" fill="#588343" stroke="none" stroke-width="0.5" stroke-linecap="butt"/><path d="M227.61138,156.23491c0.22773,-0.19122 0.70571,-0.46186 1.26331,-0.01578c0.78087,0.6247 0.15617,1.40556 0.15617,1.40556l-0.86647,0.3617c-0.29766,0.04961 -0.9375,0.28153 -1.37714,0.28292c0.11111,0.26932 0.22488,0.55725 0.32024,0.71619c0,0 0.08241,0.13735 0.12629,0.33509c0.21454,0.21472 0.42882,0.59026 0.16064,1.12662c-0.44721,0.89443 -1.34164,0.44721 -1.34164,0.44721c-0.16667,-0.08333 -0.33333,-0.16667 -0.5,-0.25l-0.48062,-0.24031c-0.08518,-0.04038 -0.16374,-0.09244 -0.23362,-0.15412c-1.19618,0 -2.39236,0 -3.58854,0l-0.44128,0.24827c0,0 -0.99827,0.05872 -1.057,-0.93955c-0.05872,-0.99827 0.93955,-1.057 0.93955,-1.057l0.55872,-0.25173c1.20227,0 2.40453,0 3.6068,0c0.07623,-1.22981 1.30827,-1.95797 2.9788,-2.23639z" fill="#588343" stroke="none" stroke-width="0.5" stroke-linecap="butt"/><path d="M258.21399,158.23407c0.26593,0.96399 -0.96399,1.26593 -0.96399,1.26593h-0.625c-2.12821,0 -5.625,-0.68269 -5.625,1c0,0 0,1 -1,1c-1,0 -1,-1 -1,-1c0,-0.60685 0.12685,-1.09667 0.35062,-1.49132c-0.38144,-0.07143 -0.63149,-0.38399 -0.63149,-0.38399c-0.76377,-0.95471 -1.56328,-1.80463 -2.42624,-2.66759l-0.5,-0.25c0,0 -0.70711,-0.70711 0,-1.41421c0.70711,-0.70711 1.41421,0 1.41421,0l0.5,0.25c0.91303,0.91303 1.76587,1.82254 2.57376,2.83241c0,0 0.20412,0.25515 0.23315,0.59042c1.69571,-0.81716 4.42657,-0.46573 6.11098,-0.46573h0.625c0,0 0.69806,-0.22992 0.96399,0.73407z" fill="#588343" stroke="none" stroke-width="0.5" stroke-linecap="butt"/><path d="M265.66919,169.75519c0.23355,-0.01306 0.93884,0.01721 1.06857,0.83885c0.15596,0.98776 -0.8318,1.14373 -0.8318,1.14373l-1.61307,-0.53066c-0.28231,-0.28231 -0.76928,-0.36082 -1.07877,-0.59577c-0.20829,0.35389 -0.54165,0.74173 -0.87419,1.06854l0.10728,0.21456l-0.5259,0.26295l-0.36852,0.73705l-0.82454,-0.41227c-0.21637,-0.05047 -0.44033,-0.18978 -0.60698,-0.50445c-0.01168,-0.02144 -0.02259,-0.04335 -0.03271,-0.0657c-0.24183,-0.51785 -0.03198,-0.88174 0.17793,-1.09169c0.08232,-0.0888 0.18056,-0.16262 0.29019,-0.21693c0.20628,-1.38395 -0.28724,-4.35439 -0.25389,-3.95896l-0.5,-0.25c0,0 -0.74954,-1.64794 0.22559,-1.86956c0.97513,-0.22162 0.66883,0.08071 0.66883,0.08071l0.5,0.25c1.01662,0.97357 1.45652,2.20278 1.54325,3.51706c1.02602,-0.1738 2.06137,0.52465 2.92872,1.38255z" fill="#588343" stroke="none" stroke-width="0.5" stroke-linecap="butt"/><path d="M234.77915,148.25132l-0.02915,-0.00132c0,-2.0765 -0.13369,-4.91506 2.92848,-3.62139c0.52788,0.22301 0.46006,1.05928 0.57152,1.62139c0.48628,2.45224 0.96533,3.4446 2.01943,5.55279c0.45557,1.18968 1.77449,1.69612 2.23057,2.94721c0.62826,1.72339 -1.00731,2.7482 -2.44721,2.39443c-0.63783,-0.15671 -1.29589,-0.61011 -1.88743,-1.20261c-0.04508,0.54375 -0.03958,1.07632 0.06163,1.59391c0.01507,0.06903 0.02301,0.14072 0.02301,0.21427c0,0.05643 -0.00467,0.11178 -0.01366,0.16566c-0.0378,0.29436 -0.19751,0.68092 -0.75339,0.80706c-0.02219,0.00529 -0.04466,0.00985 -0.06739,0.01364c-0.49408,0.08798 -0.7838,-0.12707 -0.94832,-0.35491l-0.67435,-0.67435l0.35727,-0.35727l-0.02362,-0.11812c-0.17015,0.30895 -0.4989,0.51828 -0.87654,0.51828c-0.55228,0 -1,-0.44772 -1,-1c0,-0.0625 0.00573,-0.12366 0.0167,-0.18298l0.2469,-1.48142l0.10052,0.01675c0.20032,-0.59544 0.50742,-1.44592 0.82774,-2.2493c0.05376,-0.68226 0.05853,-1.38097 0.05844,-2.10306h-0.0003v-0.5v0v-0.5c0,-0.54474 0.43556,-0.98775 0.97742,-0.99975c-0.04064,-0.138 -0.07682,-0.27846 -0.1079,-0.42173l-1.60662,0.33155c0,0 -0.03008,-0.18552 0.01626,-0.40875zM240.72304,155.25365c-0.71534,-0.28609 -1.48381,-1.2587 -2.09167,-2.29284c-0.02283,0.15822 -0.04793,0.31609 -0.07433,0.47355c0.0268,0.04267 0.05584,0.08227 0.08738,0.11842c0.36024,0.41294 1.18272,1.1847 1.65557,1.59721c0.08485,0.07402 0.24477,0.10025 0.42304,0.10365z" fill="#664d34" stroke="none" stroke-width="0.5" stroke-linecap="butt"/><path d="M233.41667,150c0,-1.24264 1.00736,-2.25 2.25,-2.25c1.24264,0 2.25,1.00736 2.25,2.25c0,1.24264 -1.00736,2.25 -2.25,2.25c-1.24264,0 -2.25,-1.00736 -2.25,-2.25z" fill="#58422d" stroke="none" stroke-width="0.5" stroke-linecap="butt"/></g></g></svg>