<svg version="1.1" xmlns="http://www.w3.org/2000/svg" xmlns:xlink="http://www.w3.org/1999/xlink" width="133.66786" height="36.51437" viewBox="0,0,133.66786,36.51437"><g transform="translate(-160.0828,-158.56314)"><g data-paper-data="{&quot;isPaintingLayer&quot;:true}" fill="#289900" fill-rule="nonzero" stroke="none" stroke-width="0.5" stroke-linecap="butt" stroke-linejoin="miter" stroke-miterlimit="10" stroke-dasharray="" stroke-dashoffset="0" font-family="none" font-weight="none" font-size="none" text-anchor="none" style="mix-blend-mode: normal"><path d="M205.41391,175.32041c1.70565,2.15714 -0.4515,3.86279 -0.4515,3.86279l-2.07154,0.86358c-2.28352,0.76117 -5.44328,1.66039 -7.34592,2.79845c-2.9525,1.76603 -5.11003,5.13514 -6.83692,8.16958c0.00092,0.27936 0.00145,0.55853 0.00145,0.83748c0,0 0,0.02631 -0.00257,0.07378c0.13731,0.76801 -0.00128,1.75601 -1.14902,2.57583c-2.23777,1.59841 -3.83617,-0.63936 -3.83617,-0.63936c-2.8874,-4.04236 -5.86754,-7.9157 -9.17909,-11.59722c-2.50211,-2.78164 -5.63178,-5.8133 -9.79289,-5.37214c-0.48048,0 -0.96096,0 -1.44144,0l-2.08666,-0.157c0,0 -2.18116,-1.67482 -0.50634,-3.85598c1.67482,-2.18116 3.85598,-0.50634 3.85598,-0.50634l-1.26298,-0.98068c0.48048,0 0.96096,0 1.44144,0c8.07243,0.31437 13.64839,5.93296 18.33403,12.12596c-0.04691,-8.53231 0.67081,-18.05266 6.92357,-23.05486l0.69524,0.66535c0,0 0.65836,-2.67003 3.32839,-2.01167c2.67003,0.65836 2.01167,3.32839 2.01167,3.32839l-2.59948,2.31271c-2.34688,1.87751 -2.84542,4.14022 -3.56364,7.30373c-0.69039,3.04096 -0.99039,6.13529 -1.1144,9.24536c0.99782,-1.07634 2.08206,-2.00988 3.25882,-2.68813c2.71402,-1.56428 6.16006,-2.80178 9.12768,-3.79099l0.3995,0.0399c0,0 2.15714,-1.70565 3.86279,0.4515z"/><path d="M223.10991,159.11318c2.26297,-1.56252 3.82549,0.70044 3.82549,0.70044l1.74078,0.02982c4.82186,4.82186 8.00075,9.55894 9.95545,15.83303c0.48884,-1.497 1.00232,-2.98447 1.55094,-4.45626c0.46725,-1.25352 1.17832,-4.34031 2.06114,-5.35977c2.49532,-2.88154 4.73366,-3.52773 8.37464,-3.52773l-0.15597,0.13443c0.62419,-0.27063 1.44422,-0.32754 2.42092,0.27351c2.34206,1.44127 0.90079,3.78333 0.90079,3.78333l-3.16574,1.30873c-0.52038,0 -1.02059,-0.5136 -1.5185,-0.36233c-0.52949,0.16087 -0.88976,0.78014 -1.44144,0.82368c-0.23984,0.01893 -0.01713,-0.8542 -0.19694,-0.69436c-0.66097,0.58754 -1.15493,3.27618 -1.52267,4.12613c-2.14673,4.96166 -3.54884,10.33887 -5.03146,15.52804c0,0 -0.75548,2.64419 -3.39967,1.88871c-0.26747,-0.07642 -0.50016,-0.17217 -0.70236,-0.28255c-0.11046,0.06103 -0.22955,0.11883 -0.35788,0.17286c-2.5345,1.06716 -3.60165,-1.46734 -3.60165,-1.46734c-3.68559,-8.75329 -8.94579,-17.91964 -18.51528,-21.10947l-2.34677,-0.28952c0,0 -1.90751,-1.98088 0.07337,-3.8884c1.98088,-1.90751 3.8884,0.07337 3.8884,0.07337l0.12427,-1.1132c7.31941,2.4398 12.58805,7.69831 16.56049,13.91105c-1.70178,-4.37541 -4.19026,-7.76394 -7.84315,-11.41683l-2.37762,-0.79386c0,0 -1.56252,-2.26297 0.70044,-3.82549zM236.57648,182.40925c0.09555,-0.32927 0.19154,-0.65851 0.28805,-0.98768c-0.27569,0.03613 -0.52705,0.03429 -0.75596,0.003c0.1585,0.32745 0.31444,0.65575 0.4679,0.98468z"/><path d="M269.06208,161.25308c2.59411,-0.91274 3.50685,1.68137 3.50685,1.68137l0.58595,-0.61996c1.58977,1.58977 3.57372,2.47735 5.11334,4.15598c0.84314,0.91926 1.38152,3.13032 1.72859,4.33205c0.3691,1.27802 0.57797,2.63437 0.68658,4.0299c0.10866,-0.29143 0.21676,-0.5831 0.32415,-0.8751c1.87898,-5.1091 2.98926,-10.81889 8.68964,-12.71902l-0.93029,1.40087c0.45719,-0.60798 1.65926,-1.80383 3.51841,-0.79989c2.41974,1.30666 1.11308,3.7264 1.11308,3.7264l-1.96195,0.89038c-0.41184,0.13728 -0.8384,0.5872 -1.23552,0.41184c-0.26812,-0.11839 0.47725,-1.05172 0.28252,-0.83266c-2.31315,2.60221 -3.19547,6.77267 -4.35991,9.94115c-1.20387,3.27577 -2.50018,6.51071 -3.67476,9.79954c0,0 -0.63827,1.78715 -2.33898,1.86204c-0.32695,0.55061 -0.89685,1.06283 -1.89025,1.17561c-0.29782,0.30772 -0.71948,0.57163 -1.31164,0.74082c-2.64419,0.75548 -3.39967,-1.88871 -3.39967,-1.88871c-1.09526,-3.83342 -2.59726,-6.52671 -4.58603,-9.93789c-0.98855,-1.69558 -1.32256,-3.05315 -3.17893,-3.94306c-0.12319,-0.05905 0.06561,0.38609 -0.06984,0.40383c-0.48125,0.06302 -0.96096,-0.13728 -1.44144,-0.20592l-3.74663,-0.91922c0,0 -1.80314,-2.07634 0.2732,-3.87948c2.07634,-1.80314 3.87948,0.2732 3.87948,0.2732l0.37177,-0.91922c4.87858,0.69694 8.14503,4.36757 10.41469,8.72729c-0.01177,-3.27504 -0.45425,-6.46804 -2.21157,-8.62821c-0.16012,-0.19683 0.31421,0.72839 0.06229,0.75864c-1.36726,0.16418 -3.14889,-2.33155 -4.00943,-3.19209l-1.88508,-1.44364c0,0 -0.91274,-2.59411 1.68137,-3.50685z"/></g></g></svg>