<svg version="1.1" xmlns="http://www.w3.org/2000/svg" xmlns:xlink="http://www.w3.org/1999/xlink" width="78.60396" height="68.39579" viewBox="0,0,78.60396,68.39579"><g transform="translate(-199.82674,-134.91299)"><g data-paper-data="{&quot;isPaintingLayer&quot;:true}" fill="none" fill-rule="nonzero" stroke="none" stroke-width="0.5" stroke-linecap="butt" stroke-linejoin="miter" stroke-miterlimit="10" stroke-dasharray="" stroke-dashoffset="0" font-family="none" font-weight="none" font-size="none" text-anchor="none" style="mix-blend-mode: normal"><path d="M224.3965,188.43253c-0.46162,0.13191 -0.98207,0.23805 -1.49399,0.32309c0.16774,0.23712 0.34445,0.47308 0.52294,0.71444c0.11599,0.15685 0.23087,0.31305 0.34466,0.46873c0.04232,-0.19575 0.08709,-0.39489 0.13385,-0.59754l0.20214,0.29599c0,0 0,-0.59516 0.29039,-1.2047zM229.08504,199.78393c-0.10564,0.59254 -0.46264,1.22208 -1.36089,1.67121c-2.23607,1.11803 -3.3541,-1.11803 -3.3541,-1.11803c-0.70977,-1.41953 -1.28516,-2.91462 -2.1293,-4.25859c-1.26874,-2.01999 -3.26205,-3.66198 -4.34458,-5.81733c-0.13561,-0.27001 -0.32282,-0.55233 -0.51072,-0.83978c-3.51206,0.41664 -6.95308,0.68791 -10.41818,-0.28233c-0.80247,-0.2247 -1.79691,-0.16137 -2.38396,-0.75283c-3.31529,-3.34021 -3.14263,-6.77751 -1.28028,-9.47662c-1.60049,-0.72471 -2.77331,-2.10885 -3.25104,-4.61083c-1.33477,-6.99046 3.43867,-13.49644 9.65397,-15.78082c-0.02079,-0.39539 -0.00338,-0.80824 0.05647,-1.23854c0.82606,-5.93912 7.8102,-7.00863 13.70735,-5.72395c-0.68749,-1.68773 -1.29053,-3.57159 -0.91209,-4.28006c0.77878,-1.45794 1.91217,-2.71275 3.06092,-3.90123c1.46656,-1.51728 2.89265,-1.60217 4.89255,-1.99172c4.75678,-0.92655 9.77592,-0.55745 14.59323,-0.55745c1.27882,0 3.93253,0.1989 5.28537,1.04355c2.90747,-1.14439 6.34134,-1.29215 9.59117,-1.30971c2.29129,-0.01238 5.31578,0.15781 7.33003,1.45578c4.69822,3.02748 4.18318,7.30663 1.63024,10.63757c0.19941,0.14775 0.37467,0.31991 0.51121,0.53012c2.36684,3.64371 2.9469,8.29957 1.68767,12.23362c2.89974,0.45004 6.38134,2.35894 6.21524,5.69305c-0.06968,1.39874 -0.54372,2.75229 -0.94887,4.09288c-0.87728,2.90284 -1.41876,2.69479 -4.53646,4.33565c1.7031,0.4523 3.33743,1.07967 4.84557,2.13768c0.41406,0.29047 1.0444,0.44958 1.19773,0.93157c0.05495,0.17274 1.05598,5.24185 0.11811,6.4561c-1.83987,2.38208 -4.62757,3.27775 -7.24551,4.38091c-1.74733,0.7363 -3.61992,1.3674 -5.54394,1.871c-0.01107,0.08109 -0.02348,0.1621 -0.03733,0.24302c-0.26722,1.5616 -3.85459,3.18766 -4.66015,3.61955c-5.58374,2.99369 -12.93708,3.54106 -19.17764,4.03496l-1.26212,0.09645c-0.00417,-0.15544 -0.00835,-0.31088 -0.01252,-0.46632c-1.41899,0.39554 -4.08333,0.41539 -4.37176,0.42736c-3.0167,0.12524 -4.9148,-1.42889 -6.63539,-3.48588z" fill="#059750"/><path d="M240.92205,199.76654c0.03247,-0.01556 0.05101,-0.02444 0.05101,-0.02444l-1.06465,0.66541c-3.95492,1.73018 -8.37088,1.65041 -11.27754,-2.25308c-0.27744,-0.37259 -0.30324,-1.72085 -0.12774,-3.12248c-4.60826,-0.28398 -8.9899,-2.13184 -9.04932,-7.54642c-0.01713,-1.56146 1.49303,-4.90839 2.65147,-6.30851c-2.1765,-1.33526 -4.07653,-3.23765 -4.44266,-5.57386c-0.02139,-0.13649 -0.10163,-0.54955 -0.17305,-1.09371c-2.26548,-0.47359 -3.91611,-3.36293 -4.29611,-5.3667c-0.76893,-4.05456 0.70178,-9.46807 3.22414,-13.05086l-0.24111,-0.27555l2.12018,-1.85516c0.23043,-0.20376 0.49874,-0.36567 0.79302,-0.47382c0.69703,-0.28754 1.75413,-0.41796 2.7306,0.68601c0.01024,0.0115 0.02037,0.0231 0.0304,0.0348c0.81745,0.94761 0.74325,1.8342 0.47034,2.47899l-0.73148,3.16974l-1.53336,-0.35385c-1.22108,1.89731 -1.66013,4.20302 -1.91944,6.70909c-0.09313,0.9 -0.03627,2.27636 0.3027,2.98228c0.00285,-0.0043 0.00582,-0.00858 0.00889,-0.01286c0.07754,-0.10774 0.21335,-0.1503 0.37313,-0.15384l1.39414,-1.54905c0.45784,-0.51296 1.12407,-0.83592 1.86573,-0.83592c1.38071,0 2.5,1.11929 2.5,2.5c0,0.47782 -0.13405,0.92433 -0.36659,1.30398l-1.24612,2.11841c0.10262,0.50334 -0.27398,0.91573 -0.65747,1.33632c0.01941,-0.0007 0.03841,0.0027 0.05685,0.01077c0.4235,0.18548 0.2249,0.91267 0.46906,1.30527c0.44932,0.72246 2.00074,2.10908 3.25621,2.679c0.14243,-0.08179 0.28663,-0.16045 0.4327,-0.23566c0.41175,-0.21202 1.20977,-0.0478 1.33081,0.39924l1.27701,0.3831c1.05813,0.29105 1.83543,1.2601 1.83543,2.4107c0,1.38071 -1.11929,2.5 -2.5,2.5c-0.15625,0 -0.30915,-0.01433 -0.45746,-0.04176l-2.06376,-0.34396c0.34561,0.10682 0.66594,0.22211 0.68917,0.52406c0.08188,1.06422 -2.35903,4.19144 -2.46063,5.63509c-0.01637,0.23266 0.4032,-0.5437 0.57994,-0.39151c0.40617,0.34976 0.2208,1.1645 0.66541,1.46389c0.23335,0.15714 0.22954,-0.67108 0.51087,-0.6718c1.61633,-0.00412 2.79211,0.58145 4.35382,0.612l1.20579,-1.20579c0.45241,-0.45241 1.07741,-0.73223 1.76777,-0.73223c1.38071,0 2.5,1.11929 2.5,2.5c0,0.46716 -0.12813,0.90439 -0.35117,1.27847l-1.04287,1.82501c0.13997,0.52103 -0.42146,0.9258 -0.79291,1.38759l-0.27174,0.47555c-0.00233,0.00786 0.11191,0.20881 0.26356,0.49673c0.95599,0.17969 4.51514,0.90311 3.69338,0.00227l1.06465,-0.66541c0,0 4.33968,3.09274 2.59899,4.26443z" fill="#03733d"/><path d="M254.87517,199.70542c-2.11918,0.77061 -3.02198,-1.0653 -3.17861,-1.43263c-2.4788,-2.7499 -5.09597,-4.96827 -4.94154,-8.98911c0.12098,-3.14994 1.33472,-7.18155 2.54146,-10.06199c0.11531,-0.27524 0.77941,-0.18856 0.75205,-0.48573c-0.05303,-0.57595 -0.77208,-0.90793 -0.93157,-1.46389c-0.05347,-0.18641 0.52222,-0.29535 0.38702,-0.43437c-0.53301,-0.54807 -2.85976,-0.85737 -3.516,-0.97668c-4.48731,-0.87928 -7.96355,-2.62779 -8.74373,-7.67123c-0.19029,-1.23012 1.14507,-4.11708 1.42353,-5.39005c0.31052,-1.41953 -0.21877,-3.37078 0.93157,-4.25859c0.55999,-0.43219 1.49623,0.82624 2.07904,0.42536c0.50907,-0.35016 -1.15458,-0.44049 -1.73005,-0.66541c-0.6778,-0.2649 -1.36828,-0.50062 -2.02974,-0.80403c-1.33673,-0.61316 -3.2376,-1.88562 -4.06229,-2.88978c-2.21062,-2.69171 -1.64674,-6.91205 -1.49635,-10.07036c0,0 0.11891,-2.49717 2.61608,-2.37826c2.49717,0.11891 2.37826,2.61608 2.37826,2.61608c-0.13469,2.82846 -0.61589,5.57649 1.16527,8.02867c0.11636,0.1602 0.13417,-0.52743 0.32939,-0.49432c0.29623,0.05025 4.56784,1.86754 4.62432,1.99067c1.79334,3.90996 0.64709,7.56332 -0.31833,11.38479c-0.32924,1.30327 -1.30311,2.54958 -1.10309,3.87883c0.0437,0.2904 0.49143,-0.63142 0.74096,-0.47658c0.54362,0.33732 0.57333,1.1872 1.06465,1.59697c0.14007,0.11682 0.12519,-0.46026 0.30742,-0.45263c0.93547,0.03915 1.79284,0.56347 2.71751,0.71052c1.11874,0.20341 3.29787,0.39349 4.20271,1.15262c3.41507,2.86513 3.93489,6.00194 2.73604,10.25871c-0.7151,2.53912 -3.37349,6.88017 -1.8375,9.6971c0.09102,0.16693 0.17035,-0.52991 0.34482,-0.45436c1.17401,0.50834 2.45554,2.62291 3.2947,3.56697l0.74712,1.33888c0,0 0.85436,2.34948 -1.49513,3.20384z" fill="#03733d"/><path d="M271.13857,191.50703c0.08935,0.75457 -0.02619,2.0286 -1.62553,2.60937c-2.34987,0.8533 -3.20317,-1.49656 -3.20317,-1.49656l0.20412,-1.5111c0.60223,-2.20819 0.64447,-4.59428 1.33283,-6.75017c0.18903,-0.59204 1.69973,-3.5112 2.28611,-3.76503c0.21827,-0.09448 0.30394,0.8781 0.31447,0.64049c0.02584,-0.5829 -0.31413,-1.14856 -0.26616,-1.73005c0.01521,-0.18444 0.52433,-0.17908 0.43712,-0.34231c-1.572,-2.94219 -5.82943,-3.91411 -8.52221,-5.45284c-2.60523,-1.49755 -4.64737,-2.60781 -6.31673,-5.36455c-0.55727,-0.92026 0.10784,-3.47977 0.31471,-4.48272c0.45735,-2.21738 1.06116,-4.63112 1.68937,-6.79071c0.11229,-0.38601 0.62174,-0.64886 0.59352,-1.04988c-0.04742,-0.67401 -0.66776,-1.20023 -0.79849,-1.86313c-0.04642,-0.23538 0.45214,-0.46587 0.30225,-0.65319c-0.84174,-1.0519 -2.40884,-1.23157 -3.49842,-2.02394c-2.00596,-1.45879 -3.48487,-3.89833 -4.98895,-5.81262c0,0 -1.54455,-1.9658 0.42124,-3.51035c1.9658,-1.54455 3.51035,0.42124 3.51035,0.42124c1.38024,1.75667 2.73198,4.03734 4.59289,5.36619c2.15911,1.54179 4.7584,2.92777 5.05485,6.10621c0.35954,3.85492 -1.27717,7.15643 -1.97571,10.79076c-0.05791,0.30128 -0.60064,3.25245 -0.21761,3.50214c0.31409,0.20475 0.10889,-1.02434 0.48372,-1.01548c1.29653,0.03064 2.18576,1.39876 3.3137,2.03881c2.99059,1.70891 7.86858,2.95498 9.57682,6.25829c2.68278,5.18784 -0.63174,6.9109 -2.01938,11.30515c-0.44044,1.39474 -0.34251,3.82876 -0.79647,5.49328z" fill="#03733d"/><path d="M214.06936,181.79762c-2.27455,1.03751 -3.53751,-2.27455 -3.53751,-2.27455v-1.46389c0.24186,-1.26936 -0.43257,-2.87761 -0.87811,-4.35474c-0.47215,-0.27278 -0.8468,-0.69548 -1.0589,-1.20304l-0.50915,-1.14558c-0.39618,-0.18418 -0.76207,-0.82612 -0.53232,-1.19773c0.3734,-0.60397 0.81771,-1.16345 1.30742,-1.68478c-1.22952,-0.73223 -2.58529,-1.24446 -3.86719,-1.88541c0,0 -2.23607,-1.11803 -1.11803,-3.3541c1.11803,-2.23607 3.3541,-1.11803 3.3541,-1.11803c2.2224,1.1112 4.14308,1.95182 5.97298,3.66225c0.36665,0.34271 1.00182,0.56672 1.06465,1.06465c0.11141,0.88298 -0.00043,1.77062 -0.13433,2.65873l0.56131,0.30617l-0.31881,0.58448c0.09677,0.34386 0.18348,0.68951 0.26171,1.03449c0.14286,0.6299 -0.55968,1.21782 -0.53232,1.86313c0.01156,0.27266 0.50809,0.27636 0.6333,0.51884c0.84199,1.63058 0.69149,2.45464 0.7937,4.25068v1.46389c0,0 0.81206,1.23703 -1.46249,2.27455z" fill="#05a859"/><path d="M262.61528,171.3754c-2.49881,0.07728 -2.57609,-2.42152 -2.57609,-2.42152l-0.48236,2.42495c-0.98301,-0.4915 -1.6907,-0.78844 -2.25934,-1.22326c-0.29967,1.34674 -0.76992,2.69807 -0.99785,4.03666c-0.28237,1.03534 -0.16418,2.15113 -0.0574,3.21896l0.72354,-0.40633c0,0 0.65509,2.41265 -1.75756,3.06773c-2.41265,0.65509 -3.06773,-1.75756 -3.06773,-1.75756l-0.87343,-0.40633c-0.17778,-1.77782 -0.26411,-3.29817 0.20876,-5.03207c0.26244,-0.83188 0.61241,-2.48317 1.1771,-3.26128c-1.06927,-0.74263 -1.79938,-1.33907 -2.35946,-2.67003l-0.49891,0.37419c-0.26352,0.79057 -1.32983,1.0047 -2,1.5c-1.64031,1.2123 -3.1781,2.38356 -4.51558,3.95414c-0.25763,0.30254 -0.50171,0.62214 -0.73875,0.95064c0.2938,0.03196 0.58141,0.04278 0.8464,-0.00355l2.21627,-0.59101c0.22189,-0.06451 0.45652,-0.0991 0.69922,-0.0991c1.38071,0 2.5,1.11929 2.5,2.5c0,0.58212 -0.19896,1.11777 -0.53258,1.54266l-1.31667,1.71167c-0.00396,0.81695 -2.50816,2.71856 -2.97525,3.11072l-1.19773,0.93157c0,0 1.7298,-0.61616 -0.58113,0.33755c-2.31093,0.95372 -2.48857,-4.28432 -2.48857,-4.28432l0.00798,-0.00621c-1.45673,-0.41368 -2.71387,-1.58212 -4.15157,-4.10691c-0.05738,-0.10077 2.75533,-3.57137 2.96496,-3.86435c1.1292,-1.57819 2.40382,-2.90925 3.81059,-4.13178c-1.84938,0.26205 -3.69348,0.59026 -5.51368,0.85087c-0.95756,0.1371 -4.44995,1.06438 -5.05615,0.76573l-2.42775,0.36767c-0.13605,0.02292 -0.27584,0.03486 -0.41841,0.03486c-1.38071,0 -2.5,-1.11929 -2.5,-2.5c0,-0.69036 0.27982,-1.31536 0.73223,-1.76777l2.19555,-2.19555c-0.52621,0 -1.05242,0 -1.57863,0c-4.30772,0 -5.39998,0.72691 -8.61243,-3.825c-0.24131,-0.34192 0.41399,-0.73009 0.66541,-1.06465c0.43471,-0.57848 0.81428,-0.99233 1.18011,-1.32025c-0.57749,-0.7073 -1.0537,-1.79164 -1.44092,-3.40379c-0.16992,-0.70744 0.88594,-1.15434 1.33081,-1.73005c1.46282,-1.89307 3.04765,-3.60478 4.66931,-5.36158c0,0 1.6957,-1.83701 3.53271,-0.14131c1.83701,1.6957 0.14131,3.53271 0.14131,3.53271c-0.79801,0.86451 -1.59143,1.71571 -2.3622,2.5869l0.7439,-0.24797c0.2642,-0.09499 0.54902,-0.14675 0.84593,-0.14675c1.38071,0 2.5,1.11929 2.5,2.5c0,0.78746 -0.36408,1.48989 -0.93309,1.94813l-1.44771,1.18449c-0.00929,0.11238 -0.16213,0.27749 -0.3976,0.46817c1.24709,-0.06338 4.87619,-0.23372 5.06932,0.02094c0.81037,1.06852 2.47625,3.60278 1.89043,5.4918c3.60113,-0.55205 7.2433,-1.20094 10.88535,-1.42244v-0.07693h3.06076c0.18308,-0.44444 0.53538,-0.84476 0.93183,-1.07262c0.31412,-0.18054 0.71703,0.90264 0.90927,0.59554c0.23181,-0.37033 -0.72417,-0.8052 -0.53232,-1.19773c0.153,-0.31304 1.29704,0.40359 1.02963,0.18022c-2.45715,-2.05241 -7.81807,-0.48197 -9.97328,-3.0906c-1.26602,-1.53237 -2.44133,-3.2879 -2.86454,-5.23003c-0.00016,-0.00071 0.60206,-0.49319 1.25616,-1.02791c-0.15721,-0.08145 -0.30316,-0.18836 -0.43547,-0.32613l-2.49076,-0.06732c-1.35336,-0.03146 -2.44078,-1.1384 -2.44078,-2.49931c0,-1.38071 1.11929,-2.5 2.5,-2.5h1.35093c0.43115,-0.00002 0.86266,-0.00128 1.29434,-0.00249c0.01988,-0.01683 0.03999,-0.03306 0.06033,-0.0487c-0.91396,-1.91048 -1.03452,-4.24047 -0.04936,-6.82842c0.38008,-0.99844 1.41953,-1.59697 2.1293,-2.39546c0,0 1.66091,-1.86852 3.52943,-0.20761c1.86852,1.66091 0.20761,3.52943 0.20761,3.52943c-0.70977,0.79849 -1.74801,1.39748 -2.1293,2.39546c-0.07551,0.19764 0.5509,-0.25956 0.63148,-0.06394c0.46476,1.1283 0.47002,2.51124 1.17974,3.48249c0.05071,-0.00577 0.10095,-0.01055 0.15057,-0.01405c-0.04549,-0.19737 -0.09748,-0.45376 0.02595,-0.46639c0.73375,-0.07506 1.40211,0.45889 2.1234,0.62545l1.61104,0.29292c1.18845,0.19326 2.09567,1.22442 2.09567,2.46747c0,1.38071 -1.11929,2.5 -2.5,2.5c-0.04601,0 -0.09173,-0.00124 -0.13713,-0.0037l-0.75494,-0.03595l-1.20722,1.03476c-0.19217,0.67324 -0.96149,0.97853 -1.57192,1.38243c0.24355,0.1818 0.48959,0.35254 0.73745,0.43727c3.9831,1.36153 6.62306,0.73193 9.21073,4.44941c1.24918,1.79458 0.19452,3.01924 -0.68771,5.25337c-0.2487,0.62981 -1.15241,1.05863 -1.06465,1.73005c0.05844,0.44713 0.82212,-0.82628 1.21232,-0.60027c0.56211,0.32559 0.66726,1.0932 0.98394,1.67931c0.21911,-0.35365 0.5997,-0.69039 0.79288,-1.04599c0.51935,-0.95603 1.49081,-2.87907 2.27499,-3.69788c0.18753,-0.19581 0.68042,-0.04586 0.75321,-0.30703c0.21438,-0.76917 -0.18797,-1.61941 0,-2.39546c0.07568,-0.31245 0.773,-0.3088 0.73223,-0.62769c-0.15657,-1.22472 -2.86845,-2.2175 -3.18186,-3.62436c-0.36661,-1.64571 -0.6846,-3.38426 -0.385,-5.04347c0.10278,-0.56918 0.88577,-0.94922 1.46389,-0.93157c0.34466,0.01053 0.13603,1.28153 0.31344,0.98585c0.85054,-1.41757 0.61846,-4.83415 1.16272,-6.64836c0,0 0.71837,-2.39457 3.11294,-1.6762c2.39457,0.71837 1.6762,3.11294 1.6762,3.11294c-0.40416,1.34722 -0.33968,4.55028 -0.96658,5.5951c-0.50087,0.83478 -1.19731,1.53395 -1.91545,2.20369c0.21835,0.31941 0.43338,0.66879 0.64617,0.92506c0.24274,0.29234 1.53104,1.32688 1.60906,1.5658c0.18279,0.55973 1.12198,5.24189 0.73223,6.55869c-0.6559,2.21602 -1.74328,3.10156 -2.83998,4.88313c-0.02647,0.04299 -0.22737,0.42622 -0.48307,0.91439c0.39862,0.20341 0.74009,0.41543 0.87643,0.4836l3.24391,1.89262c0,0 0.07728,2.49881 -2.42152,2.57609z" fill="#05a859"/></g></g></svg>