<svg version="1.1" xmlns="http://www.w3.org/2000/svg" xmlns:xlink="http://www.w3.org/1999/xlink" width="101.68667" height="76.69773" viewBox="0,0,101.68667,76.69773"><g transform="translate(-192.3781,-137.60467)"><g data-paper-data="{&quot;isPaintingLayer&quot;:true}" fill="#2d69a8" fill-rule="nonzero" stroke="none" stroke-width="0.5" stroke-linecap="butt" stroke-linejoin="miter" stroke-miterlimit="10" stroke-dasharray="" stroke-dashoffset="0" font-family="none" font-weight="none" font-size="none" text-anchor="none" style="mix-blend-mode: normal"><path d="M224.46238,165.72722c1.28624,-2.14373 3.42997,-0.85749 3.42997,-0.85749l1.81724,0.50545c0.62104,0.35488 1.49802,0.44957 1.86313,1.06465c0.9696,1.63339 1.67211,3.47587 1.94778,5.35525c0.06074,0.41406 -0.69811,0.46345 -1.06465,0.66541c-1.2121,0.66785 -6.54562,2.90323 -7.57189,1.0502l-1.14304,-0.38101c-1.02156,-0.31417 -1.76412,-1.26534 -1.76412,-2.38994c0,-0.90946 0.48562,-1.70549 1.21171,-2.14294l1.05342,-0.65839c-0.25528,-0.56556 -0.31839,-1.31313 0.22044,-2.21119z"/><path d="M242.89767,184.77066c0.43921,1.24628 0.91748,2.48588 1.00317,3.79263c0.02738,0.4176 -0.68963,0.47967 -1.06465,0.66541c-1.34678,0.66702 -2.88677,1.15254 -4.38586,1.04541c-4.29765,-0.30713 -5.5772,-0.52756 -5.33962,-6.0162c0.01975,-0.45629 0.7942,-0.45151 1.19773,-0.66541c1.78027,-0.94364 3.5224,-1.39736 5.4513,-1.94847c0,0 2.40381,-0.6868 3.09061,1.71701c0.15947,0.55815 0.15232,1.02373 0.04732,1.40963z"/><path d="M260.14254,165.31194c0,0 2.5,0 2.5,2.5c0,2.5 -2.5,2.5 -2.5,2.5c-0.26096,0 -0.52193,0 -0.78289,0l0.23317,1.05224c-1.06761,0.10676 -4.96175,0.81534 -5.46889,-0.57914l-1.5435,-0.64312c-0.93176,-0.3634 -1.59194,-1.26959 -1.59194,-2.32997c0,-1.38071 1.11929,-2.5 2.5,-2.5c0.7714,0 1.83384,0 2.92778,0c1.35948,0 2.76762,0 3.72627,0z"/><path d="M260.99257,185.37769c0.43076,-1.25327 1.1161,-2.41829 2.10175,-1.83068c-0.01914,-0.01425 -0.0298,-0.0222 -0.0298,-0.0222l1.06465,0.66541c2.42206,3.55999 3.33984,4.7318 -0.58506,8.20455c-0.76546,0.67728 -5.39123,0.48812 -5.89996,-0.61469l-1.41232,-0.64196c-0.89206,-0.38183 -1.51707,-1.26761 -1.51707,-2.29936c0,-1.10109 0.71184,-2.03592 1.70042,-2.3694l0.87677,-0.31882l-0.05979,-0.59785l2.62816,-0.26282c0.09264,-0.01041 0.18681,-0.01575 0.28222,-0.01575c0.00915,0 0.01829,0.00005 0.02742,0.00015c0.2521,-0.00681 0.53646,0.01695 0.8226,0.10344z"/><path d="M243.59132,156.57719c1.38675,2.08013 -0.69338,3.46688 -0.69338,3.46688l-0.20984,0.06675c-0.86086,1.12907 -2.42261,0.84512 -2.42261,0.84512l-0.14891,-0.02707l-1.52736,0.48588l-2.09259,-1.30787c-0.72608,-0.43745 -1.21171,-1.23348 -1.21171,-2.14294c0,-1.38071 1.11929,-2.5 2.5,-2.5c0.16973,0 0.33551,0.01691 0.49574,0.04915c0.31376,0.05705 1.74059,0.31647 1.88784,0.34324c0.30727,-0.18468 2.15487,-1.18106 3.42282,0.72086z"/><path d="M226.14432,190.82321c0.411,2.46598 -2.05499,2.87698 -2.05499,2.87698l-0.01485,0.65369c-0.75848,0.30339 -4.00499,2.05809 -4.67215,1.36413l-1.29735,0.12973c-0.09264,0.01041 -0.18681,0.01575 -0.28222,0.01575c-1.38071,0 -2.5,-1.11929 -2.5,-2.5c0,-0.92661 0.50412,-1.73548 1.25305,-2.16731c0.50029,-0.30017 2.19085,-1.31451 2.62233,-1.5734c0,0 1.59557,-0.95734 2.85956,0.15636c0.0529,-0.02356 0.10614,-0.04619 0.15982,-0.06766l1.0498,-0.94328c0,0 2.46598,-0.411 2.87698,2.05499z"/><path d="M198.14774,169.52236l-0.87555,-0.23015c-0.93063,-1.67513 -0.92179,-3.8672 -0.47041,-5.72956c0.09858,-0.40672 0.68963,-0.47967 1.06465,-0.66541c1.76134,-0.87234 5.48953,-2.07609 7.26434,-0.29761c0.99547,0.99753 1.99307,2.05197 2.63384,3.30714c0.20569,0.40292 -0.13272,0.89855 -0.26616,1.33081c-1.01881,3.3003 -1.87865,4.36513 -5.79486,4.88905c-0.90537,0.12112 -1.59697,-0.88721 -2.39546,-1.33081c0,0 -0.79611,-0.44228 -1.16038,-1.27346z"/><path d="M228.74985,138.84484c1.28624,2.14373 -0.85749,3.42997 -0.85749,3.42997l1.9637,-0.58879c-0.77504,3.87522 -3.02587,5.33711 -6.69586,4.73885c-0.82248,-0.13407 -1.94004,-0.05172 -2.38231,-0.75801l-2.32792,-0.7407c-1.03815,-0.30391 -1.79638,-1.26322 -1.79638,-2.39962c0,-1.38071 1.11929,-2.5 2.5,-2.5c0.57668,0 2.88342,0 3.46011,0c0,0 1.55046,0 2.20935,1.22102c0.05389,-0.23042 0.10765,-0.42981 0.13011,-0.54212l0.36673,-2.71809c0,0 2.14373,-1.28624 3.42997,0.85749z"/><path d="M288.4625,146.83852c-1.11803,2.23607 -3.3541,1.11803 -3.3541,1.11803l0.98186,0.61745c-6.22795,2.49118 -20.29075,4.628 -19.26798,-5.86265c0.1309,-1.34267 2.13361,-1.76663 3.42541,-2.1554c2.93288,-0.88266 7.07537,-0.26325 10.12318,-0.26325c0,0 2.5,0 2.5,2.5c0,2.5 -2.5,2.5 -2.5,2.5c-1.11335,0 -2.22695,-0.01933 -3.3403,-0.01926c1.43046,0.20882 2.86531,0.38805 4.13879,0.07634c1.09314,-0.26757 2.01903,-1.0002 3.06396,-1.41816l3.11116,-0.4472c0,0 2.23607,1.11803 1.11803,3.3541zM272.36811,145.34674c-0.13796,0.00676 -0.27576,0.01486 -0.41337,0.0246c0.08203,0.2242 0.18303,0.4281 0.35004,0.51246c0.16104,0.08135 0.06138,-0.27933 0.06333,-0.53706z"/><path d="M200.66283,201.86369c-1.04765,2.2699 -3.31754,1.22225 -3.31754,1.22225l-1.03708,-0.12617c-0.88721,-0.53232 -1.77441,-1.06465 -2.66162,-1.59697c0,0 -2.14373,-1.28624 -0.85749,-3.42997c1.28624,-2.14373 3.42997,-0.85749 3.42997,-0.85749c0.88721,0.53232 1.77441,1.06465 2.66162,1.59697l0.55989,-0.12617c0,0 2.2699,1.04765 1.22225,3.31754z"/><path d="M266.74742,213.11544c-0.95227,1.42841 -2.2315,1.22202 -2.93961,0.95248l0.32716,0.16077c-1.10875,0 -5.25017,0.46244 -5.64279,-0.92934l-1.28237,-0.64118c-0.84561,-0.40086 -1.43041,-1.26228 -1.43041,-2.26029c0,-1.33139 1.04074,-2.41969 2.35306,-2.49575c0.33879,-0.02259 1.13283,-0.07552 1.93471,-0.12898l0.82928,-1.38213l2.41872,1.45123c0.54432,0.21321 1.11662,0.64247 1.35054,1.50257l1.38832,0.30375c0,0 2.08013,1.38675 0.69338,3.46688z"/><path d="M280.37376,173.06172c-0.72502,-2.39256 1.37459,-3.00838 1.37459,-3.00838l1.93583,-0.86303c0.85666,-0.35683 1.68694,-0.6419 2.5151,-0.88284l-0.02908,-0.15268l2.18553,-0.41629v-0.56342h3.19395c0.14924,0 0.29543,0.01308 0.43748,0.03815c0.73522,0.10147 1.6979,0.51008 1.99996,1.9036c0.01236,0.05418 0.02296,0.10904 0.03173,0.1645c0.24033,1.41915 -0.50951,2.1575 -1.15889,2.52329c-0.26649,0.16432 -0.56616,0.28002 -0.88663,0.33472l-3.62674,0.69081c-0.89327,0.21667 -1.76917,0.49966 -2.62646,0.92689l-1.93583,0.86303c0,0 -2.68551,0.83422 -3.41053,-1.55834z"/></g></g></svg>