<svg version="1.1" xmlns="http://www.w3.org/2000/svg" xmlns:xlink="http://www.w3.org/1999/xlink" width="54.25" height="53"><g transform="translate(-210.75,-150.75)"><g data-paper-data="{&quot;isPaintingLayer&quot;:true}" fill="none" fill-rule="nonzero" stroke="none" stroke-width="none" stroke-linecap="none" stroke-linejoin="miter" stroke-miterlimit="10" stroke-dasharray="" stroke-dashoffset="0" font-family="none" font-weight="none" font-size="none" text-anchor="none" style="mix-blend-mode: normal"><path d="M264.75,180.75c0,12.56448 -11.19288,22.75 -25,22.75c-13.80712,0 -25,-10.18552 -25,-22.75c0,-12.56448 11.19288,-22.75 25,-22.75c13.80712,0 25,10.18552 25,22.75z" data-paper-data="{&quot;origPos&quot;:null}" fill="#e1ffff" stroke="#0096ff" stroke-width="0.5" stroke-linecap="butt"/><path d="M226.75,163.75l4,-0.75l-7.25,5.75l-3.5,6.25" fill="none" stroke="#0096ff" stroke-width="0.5" stroke-linecap="round"/><path d="M230.75,163l-0.25,3.5" fill="none" stroke="#0096ff" stroke-width="0.5" stroke-linecap="round"/><path d="M255,196.5l-4.75,1.25l0.5,-5.5" fill="none" stroke="#0096ff" stroke-width="0.5" stroke-linecap="round"/><path d="M261.25,183.5l-4.25,8.25l-6,6" fill="none" stroke="#0096ff" stroke-width="0.5" stroke-linecap="round"/><text transform="translate(221.5,184.00956) scale(0.14706,0.26082)" font-size="40" xml:space="preserve" data-paper-data="{&quot;origPos&quot;:null}" fill="#4d9797" fill-rule="nonzero" stroke="none" stroke-width="1" stroke-linecap="butt" stroke-linejoin="miter" stroke-miterlimit="10" stroke-dasharray="" stroke-dashoffset="0" font-family="Pixel" font-weight="normal" text-anchor="start" style="mix-blend-mode: normal"><tspan x="0" dy="0">Regenerate</tspan></text><path d="M218.41667,156.33333c0,-1.24264 1.00736,-2.25 2.25,-2.25c1.24264,0 2.25,1.00736 2.25,2.25c0,1.24264 -1.00736,2.25 -2.25,2.25c-1.24264,0 -2.25,-1.00736 -2.25,-2.25z" fill="#417f45" stroke="none" stroke-width="0.5" stroke-linecap="butt"/><path d="M210.75,166c0,-1.24264 1.00736,-2.25 2.25,-2.25c1.24264,0 2.25,1.00736 2.25,2.25c0,1.24264 -1.00736,2.25 -2.25,2.25c-1.24264,0 -2.25,-1.00736 -2.25,-2.25z" fill="#417f45" stroke="none" stroke-width="0.5" stroke-linecap="butt"/><path d="M230.41667,154c0,-1.24264 1.00736,-2.25 2.25,-2.25c1.24264,0 2.25,1.00736 2.25,2.25c0,1.24264 -1.00736,2.25 -2.25,2.25c-1.24264,0 -2.25,-1.00736 -2.25,-2.25z" fill="#417f45" stroke="none" stroke-width="0.5" stroke-linecap="butt"/><path d="M242.75,164.33333c0,-1.24264 1.00736,-2.25 2.25,-2.25c1.24264,0 2.25,1.00736 2.25,2.25c0,1.24264 -1.00736,2.25 -2.25,2.25c-1.24264,0 -2.25,-1.00736 -2.25,-2.25z" fill="#417f45" stroke="none" stroke-width="0.5" stroke-linecap="butt"/><path d="M250.41667,153c0,-1.24264 1.00736,-2.25 2.25,-2.25c1.24264,0 2.25,1.00736 2.25,2.25c0,1.24264 -1.00736,2.25 -2.25,2.25c-1.24264,0 -2.25,-1.00736 -2.25,-2.25z" fill="#417f45" stroke="none" stroke-width="0.5" stroke-linecap="butt"/><path d="M259.75,165.66667c0,-1.24264 1.00736,-2.25 2.25,-2.25c1.24264,0 2.25,1.00736 2.25,2.25c0,1.24264 -1.00736,2.25 -2.25,2.25c-1.24264,0 -2.25,-1.00736 -2.25,-2.25z" fill="#417f45" stroke="none" stroke-width="0.5" stroke-linecap="butt"/></g></g></svg>