<svg version="1.1" xmlns="http://www.w3.org/2000/svg" xmlns:xlink="http://www.w3.org/1999/xlink" width="79.31189" height="64.61768" viewBox="0,0,79.31189,64.61768"><g transform="translate(-202.58273,-147.56897)"><g data-paper-data="{&quot;isPaintingLayer&quot;:true}" fill="none" fill-rule="nonzero" stroke="none" stroke-width="0.5" stroke-linecap="butt" stroke-linejoin="miter" stroke-miterlimit="10" stroke-dasharray="" stroke-dashoffset="0" font-family="none" font-weight="none" font-size="none" text-anchor="none" style="mix-blend-mode: normal"><path d="M232.88056,179.19722c0.09072,1.46147 -1.34338,2.25023 -1.34338,2.25023c-3.40535,1.87294 -8.48192,3.88293 -9.23564,7.71333c-0.1862,0.94628 -0.19244,4.41087 0.15052,5.26737c0.08085,0.20192 0.36652,-0.44846 0.55596,-0.3416c1.05735,0.59642 5.00644,4.33424 5.06576,5.49565c0.06679,1.30753 -0.36361,2.5931 -0.54541,3.88965c-2.17579,3.48126 -6.70419,6.1946 -10.55341,7.61358c-0.96797,0.35684 -2.16408,1.56658 -2.9586,0.90852c-1.47013,-1.21762 -2.63252,-2.81214 -3.58195,-4.46819c-0.14703,-0.25646 -0.63085,-4.36617 -0.67795,-4.74633c-0.35871,-2.89546 -1.53006,-6.78413 -0.82161,-9.6821c0.01372,-0.05611 2.76971,-6.10746 0.73223,-4.62012c-1.39342,-1.39342 -4.89598,-2.64769 -5.78762,-4.24444c-2.91055,-5.21222 -0.52851,-11.67283 3.25908,-15.66006c2.18554,-2.30074 4.94342,-4.43829 7.70047,-6.03484c0.94785,-0.54888 1.89124,-1.83312 2.93034,-1.48675c0.54736,0.18245 2.97876,1.19193 4.10972,2.55369c0.42073,0.06579 0.86989,0.29926 1.2495,0.12257c0.21585,-0.10047 -0.59184,-0.31921 -0.47969,-0.52923c0.2676,-0.50112 0.96648,-0.62877 1.33081,-1.06465c0.08814,-0.10545 -0.40945,0.1013 -0.41073,-0.03613c-0.01036,-1.11288 0.72206,-2.17712 0.01342,-3.39349c-0.13247,-0.22738 -0.1443,0.73697 -0.40118,0.67991c-2.42452,-0.53857 -5.15229,-6.35304 -3.58962,-8.30024c3.35509,-4.18069 12.48419,-4.12263 17.08408,-2.44972c1.89599,1.13759 3.03019,3.14137 3.03657,5.42279c0.00592,2.11702 -1.26775,4.59685 0.84104,5.98323c0.28843,0.18962 0.58272,-0.49721 0.92621,-0.4631c0.82926,0.08234 1.54209,0.71201 2.37171,0.79057c1.05846,0.10022 2.06738,-0.51256 3.06846,-0.87065c0.14343,-0.05131 -0.45316,-0.1014 -0.38914,-0.23963c0.18455,-0.39848 0.62104,-0.62104 0.93157,-0.93157c1.47,-1.47 2.68845,-3.0116 4.05298,-4.558c2.6871,-3.04524 4.55372,-4.3721 8.62743,-4.95758c1.124,0 5.08271,-0.3014 5.96955,0.5614c3.02455,2.94254 3.77398,6.74052 3.45067,10.72196c-0.09236,1.13733 0.13372,2.47884 -0.57265,3.375c-0.63776,0.80912 -3.21391,3.17647 -4.73453,3.6171c-0.42711,0.12376 -0.86852,0.18191 -1.31368,0.21877c0.11249,0.46481 -0.4052,1.19896 -0.30489,1.73878c0.03956,0.21288 0.21818,-0.60291 0.41049,-0.50342c1.44808,0.74916 2.87149,2.68775 4.49472,3.50512c1.94399,0.97889 4.4842,1.45529 6.53736,2.2336c0.98228,0.37292 4.57826,1.24446 5.37705,2.13348c4.83951,5.38615 1.47563,12.0732 -1.50756,17.23909c-2.08716,3.61425 -3.83895,6.10548 -8.06177,7.33889c-0.5681,0.16593 -1.17634,0.60824 -1.73005,0.39924c-3.78879,-1.43009 -6.35492,-5.73634 -8.21965,-9.10251c-0.63963,-1.18789 -1.29606,-2.36683 -1.96565,-3.53809c-0.50965,-0.89149 -1.90862,-3.11179 -3.29225,-3.21094c-0.32223,-0.02309 0.05829,0.77886 -0.21935,0.94403c-0.66581,0.39608 -1.5824,0.16109 -2.26238,0.53232c-0.20787,0.11349 0.64645,0.13937 0.60499,0.37254c-0.2297,1.29163 -1.4367,2.19583 -2.18297,3.27478c-1.46556,2.11889 -3.37261,3.53201 -5.73913,4.60693c-1.0148,0.46095 -2.11334,1.33363 -3.1836,1.02244c-6.65975,-1.93636 -4.81792,-7.56472 -5.5919,-12.84372c-0.24424,-1.83177 -1.12717,-3.32902 -2.88018,-4.42592c-0.12009,-0.07514 -0.22918,0.04439 -0.3446,0.17647z" fill="#418d3a"/><path d="M221.47622,202.47497c-2.45741,0.45952 -2.91692,-1.99789 -2.91692,-1.99789l0.35186,-2.84706c0.53593,-1.60779 1.09325,-3.02086 1.90058,-4.52019c1.57804,0.62366 0.30235,0.34541 0.25094,-1.15434c-0.00593,-0.17288 0.58829,-0.07839 0.47497,-0.2091c-2.18188,-2.51667 -5.73393,-3.70954 -7.91216,-6.51471c-4.03221,-5.19276 -3.80724,-13.38877 -0.96658,-19.0701c0,0 1.11803,-2.23607 3.3541,-1.11803c2.23607,1.11803 1.11803,3.3541 1.11803,3.3541c-1.65107,3.30214 -2.60655,9.41956 -0.4472,12.85857c1.83421,2.92119 5.52103,3.82035 7.53819,6.27186c0.98858,1.20145 2.23384,2.63514 2.07194,4.18258c-0.13601,1.3 -0.71992,2.51311 -1.07987,3.76966c-0.7388,1.37207 -1.08318,2.30181 -1.55952,3.73083l-0.18046,0.34689c0,0 0.45952,2.45741 -1.99789,2.91692z" fill="#588c3a"/><path d="M238.55427,205.16792c-1.50081,0.14293 -2.18277,-0.70538 -2.48769,-1.40139l0.31955,1.14136c-4.50883,-2.29139 -8.73165,-5.3364 -9.60976,-10.68735c-0.47625,-2.90213 1.35577,-5.41167 2.47783,-7.88019c0.54893,-0.86388 0.36816,-2.02441 0.72461,-2.98387c0.10267,-0.27636 0.75853,-0.17562 0.74904,-0.47027c-0.02848,-0.88408 -1.06018,-1.41622 -1.59216,-2.1229c-1.82853,-2.42903 -4.37629,-4.73071 -5.77951,-7.40399c-1.88744,-3.59577 -1.15391,-9.51938 1.60852,-12.42603c1.92922,-2.02994 5.38833,-3.5373 7.72829,-5.06336c0,0 2.09403,-1.36567 3.4597,0.72836c1.36567,2.09403 -0.72836,3.4597 -0.72836,3.4597c-2.40557,1.56885 -5.64425,3.04636 -7.70911,5.0508c-0.9795,0.95083 -0.11095,6.07573 0.54387,7.26997c0.60153,1.09705 1.93829,1.60498 2.73889,2.56643c2.58362,3.10268 3.97993,4.73619 3.94659,8.99553c-0.0171,2.18419 -0.34259,2.45568 -1.13853,4.46867c-0.57421,1.26326 -1.72336,2.71962 -2.08674,4.03895c-1.06659,3.87253 4.12518,6.57568 6.9321,8.00215l2.15459,1.99169c0,0 0.23702,2.48874 -2.25172,2.72576z" fill="#588c3a"/><path d="M254.78343,194.94586c-1.71616,0.54971 -2.59152,-0.53386 -2.94652,-1.18173l0.58693,1.30089c-3.47463,0 -7.06257,0.43627 -10.33115,-1.11325c-3.07171,-1.45618 -1.72822,-6.91691 -0.95699,-9.23062c0.67476,-1.85204 2.04248,-6.48944 1.48931,-8.33608c-1.08356,-3.61727 -5.59022,-5.6351 -7.02538,-9.32958c-0.38684,-0.99583 0.35385,-2.1143 0.67608,-3.13287c0.98401,-3.1104 2.83189,-4.96133 5.06468,-7.19412c0,0 1.76777,-1.76777 3.53553,0c1.76777,1.76777 0,3.53553 0,3.53553c-1.90648,1.90648 -3.17248,3.04861 -3.98483,5.58166c-0.22645,0.7061 -0.90383,1.65712 -0.38856,2.19037c0.26114,0.27026 0.56115,-0.79237 0.91329,-0.66108c1.51509,0.56486 4.88321,4.74514 5.36944,6.23658c1.31751,4.04129 0.34168,8.74375 -0.90615,12.69072c-0.38221,1.14664 -0.97851,3.04841 -0.83235,4.24741c0.02824,0.23165 0.20073,-0.67701 0.40768,-0.56916c0.42552,0.22175 0.32197,1.14139 0.79849,1.19773c0.36956,0.04369 -0.40552,-0.92603 -0.08391,-1.11325c1.09102,-0.63514 4.97192,0 6.25481,0l3.97782,1.73739c0,0 0.76261,2.38084 -1.61823,3.14346z" fill="#588c3a"/><path d="M271.46611,195.41257c-2.31523,0.94324 -3.25847,-1.37199 -3.25847,-1.37199l0.44072,1.16591c-0.48796,-0.31052 -0.97593,-0.62104 -1.46389,-0.93157c-0.86977,-0.93065 -1.9038,-1.73135 -2.6093,-2.79196c-0.86035,-1.29341 -0.09869,-4.21259 -0.80901,-5.62442c-2.97825,-5.9195 -9.43614,-9.79708 -11.71301,-16.18347c-0.39119,-1.09726 -0.00861,-2.32984 0.00024,-3.49472c0.02624,-3.45417 0.53672,-6.32171 1.41288,-9.65114c0,0 0.63623,-2.41769 3.05392,-1.78145c2.41769,0.63623 1.78145,3.05392 1.78145,3.05392c-0.78785,2.99383 -1.22538,5.37857 -1.24874,8.44789c-0.00869,1.1418 -0.43412,2.36951 0.00024,3.4255c0.44755,1.08807 2.63379,2.95199 3.5701,3.98182c2.06226,2.26825 3.71679,4.84189 5.61061,7.24941c1.7016,2.16316 2.47118,4.34783 2.9881,7.05994c0.18954,0.99443 -0.42774,2.34609 0.3284,3.0192c0.24447,0.21763 0.21232,-0.61922 0.31849,-0.92883c0.48796,0.31052 0.97593,0.62104 1.46389,0.93157l1.50537,1.16591c0,0 0.94324,2.31523 -1.37199,3.25847z" fill="#588c3a"/><path d="M232.21728,171.62612c-1.53214,0.17764 -2.2286,-0.69959 -2.53736,-1.39767l0.18225,0.62153c-2.2962,-1.78593 -9.74516,-3.50404 -8.99561,-6.8688c0.28705,-1.28855 0.48017,-2.67549 1.22289,-3.76689c1.04314,-1.53286 5.48235,-3.11954 7.25929,-3.39421c0.37119,-0.05738 0.79298,0.37293 1.11294,0.1762c0.41611,-0.25586 0.50964,-1.02925 0.79212,-1.39853c-1.12736,-0.96821 -2.15763,-1.98852 -3.22151,-3.0524c0,0 -1.76777,-1.76777 0,-3.53553c1.76777,-1.76777 3.53553,0 3.53553,0c1.14878,1.14878 2.24667,2.267 3.52024,3.2757c0.44533,0.35271 1.27795,0.49902 1.33081,1.06465c0.64368,6.88786 -4.83421,8.01302 -9.75697,10.17539c2.4506,0.71365 4.25475,1.81026 6.26998,3.37767l1.48084,1.95162c0,0 0.28793,2.48336 -2.19544,2.77129z" fill="#69a845"/><path d="M221.69752,182.46091c-2.40552,0.68081 -3.08632,-1.72471 -3.08632,-1.72471l-1.54094,-0.09261c-0.38853,-1.06846 -1.03584,-2.75393 -1.21516,-3.78214c-0.10792,-0.61878 0.62006,-1.25485 0.39705,-1.84205c-0.74924,-1.97277 -2.36043,-3.6409 -2.7081,-5.72232c-0.22691,-1.3585 0.70977,-2.66162 1.06465,-3.99243c0,0 0.64416,-2.41559 3.05974,-1.77143c2.41559,0.64416 1.77143,3.05974 1.77143,3.05974c-0.35488,1.33081 -1.32085,2.63916 -1.06465,3.99243c0.0555,0.29313 0.6556,-0.32355 0.88509,-0.13292c0.56791,0.47177 0.96547,1.16232 1.19773,1.86313c0.76762,2.31618 0.48272,4.34098 1.31119,6.61927l1.653,0.43971c0,0 0.68081,2.40552 -1.72471,3.08632z" fill="#69a845"/><path d="M251.80576,178.36335c-2.30039,0.97889 -3.3908,-2.95818 -3.3908,-2.95818l0.39924,-1.46389c0.06073,-0.22067 0.11673,-0.4574 0.17199,-0.7003c-2.12812,0.33062 -4.25098,0.42061 -6.45964,-0.08749c-0.45955,-0.10572 -0.86286,-0.50536 -1.06465,-0.93157c-0.64761,-1.36786 -1.24508,-2.80955 -1.41839,-4.31301c-0.02517,-0.21837 1.18144,-1.44152 1.3609,-1.74733c0.70286,-1.1977 1.24209,-2.48418 1.86313,-3.72627c0,0 1.11803,-2.23607 3.3541,-1.11803c2.23607,1.11803 1.11803,3.3541 1.11803,3.3541c-0.62104,1.24209 -1.15389,2.53234 -1.86313,3.72627c-0.14005,0.23577 -0.29712,0.46049 -0.46008,0.68134c0.11706,0.16988 0.24694,0.30662 0.4026,0.31161c0.34775,0.01116 0.23704,-0.75598 0.56237,-0.87935c0.7792,-0.29546 1.6613,-0.14788 2.48471,-0.27608c0.17875,-0.02783 3.25968,-0.76604 3.28791,-0.73582c3.45648,3.6988 2.37464,4.45535 1.48395,7.75751l-0.39924,1.46389c0,0 0.86736,0.66371 -1.43302,1.64259z" fill="#69a845"/><path d="M275.81597,180.20202c-1.07091,0.48678 -1.86696,0.2406 -2.4097,-0.15653c-0.95855,-0.08382 -1.90822,-0.15171 -2.8834,-0.15171c-5.78869,0 -12.53888,-2.63055 -15.27578,-8.35557c-0.83103,-1.73833 -0.0137,-3.90158 0.5,-5.75859c0.68828,-2.48809 3.94941,-4.65118 4.88277,-7.02719c0.59815,-1.52266 0.70977,-3.19395 1.06465,-4.79092c0,0 0.54233,-2.44047 2.98279,-1.89814c2.44047,0.54233 1.89814,2.98279 1.89814,2.98279c-0.61391,2.76258 -0.98179,4.78648 -2.48964,7.23232c-0.84743,1.37459 -1.7013,2.81396 -2.59801,4.15808c-0.53997,0.80938 -1.57186,1.38485 -1.74071,2.34306c-0.04649,0.26385 0.45222,0.36568 0.5,0.6293c0.12658,0.69839 -0.24662,1.46375 0,2.1293c0.12174,0.32854 0.08451,-0.97699 0.43432,-0.95719c1.43505,0.08124 2.78164,2.72055 3.89053,3.44802c1.90998,1.25302 3.79299,0.86474 5.95093,0.86474c1.50774,0 2.98409,0.13999 4.48493,0.27643l2.04958,1.72139c0,0 1.03451,2.27592 -1.24141,3.31042z" fill="#69a845"/></g></g></svg>