<svg version="1.1" xmlns="http://www.w3.org/2000/svg" xmlns:xlink="http://www.w3.org/1999/xlink" width="61.71466" height="41.52385" viewBox="0,0,61.71466,41.52385"><g transform="translate(-213.46404,-156.31361)"><g data-paper-data="{&quot;isPaintingLayer&quot;:true}" fill="none" fill-rule="nonzero" stroke="none" stroke-width="0.5" stroke-linecap="butt" stroke-linejoin="miter" stroke-miterlimit="10" stroke-dasharray="" stroke-dashoffset="0" font-family="none" font-weight="none" font-size="none" text-anchor="none" style="mix-blend-mode: normal"><path d="M228.73541,192.66956c-2.36687,0 -4.94533,0.2494 -7.24232,-0.41987c-2.09457,-0.6103 -2.53564,-3.95973 -2.64744,-5.45382c-2.9663,-0.69427 -5.18478,-2.2345 -5.02976,-6.6959c0.04291,-1.2348 0.95777,-1.10433 1.31535,-1.98172c0.20708,-0.50813 0.02082,-1.19964 0.39924,-1.59697c0.19387,-0.20355 0.76337,0.67658 0.74447,0.39612c-0.03226,-0.47875 -0.70196,-0.72771 -0.79849,-1.19773c-0.23043,-1.12205 -0.43486,-2.27856 -0.43099,-3.42486c-0.4847,-0.45597 -0.78737,-1.10326 -0.78737,-1.82124c0,-0.93354 0.51168,-1.74756 1.26988,-2.17692l2.63178,-1.55282l0.00338,0.00573c0.06334,-0.03631 0.12751,-0.07295 0.1922,-0.10974c0.06946,-0.03949 0.13952,-0.07915 0.20982,-0.11871c0.09756,-0.48848 0.33747,-0.92558 0.67464,-1.26624h-0.3524c-1.38071,0 -2.5,-1.11929 -2.5,-2.5c0,-1.30978 1.00724,-2.3843 2.28938,-2.49125l2.46233,-0.23451c0.52522,-0.60525 1.57689,-0.17148 2.39231,-0.22784c0.03253,-0.00225 0.06469,-0.00528 0.09642,-0.00918c0.28161,-0.03466 0.56359,-0.07053 0.84573,-0.10782c0.42588,-0.77064 1.24679,-1.29253 2.1896,-1.29253h2.70315c0.2689,-0.12856 0.60068,-0.08565 0.94929,0h1.34756c0.4253,0 0.82579,0.1062 1.17641,0.29352c1.18467,0.01138 2.37157,-0.00119 3.55743,-0.0128v-0.01456h0.3886c1.44139,-0.3969 2.8791,-0.81636 4.3416,-1.06589c0.20545,-0.03505 5.184,-0.52859 5.23195,-0.53108c0.83221,-0.0432 1.88075,-0.55765 2.5,0h2.5c1.36181,0 2.4693,1.08885 2.49937,2.44344c0.40696,0.25566 0.68555,0.59812 0.73229,1.0835c0.06696,0.69542 0.1064,1.40422 0.09558,2.11092c3.01258,1.40713 6.05798,2.98643 9.10517,4.0945c3.46251,1.26211 7.53895,2.24174 10.25559,4.83005c0.69304,0.66031 0.64886,3.767 0.57265,4.70581c-0.24677,3.03998 -1.98517,5.97771 -3.34446,8.70614c-0.93815,1.8831 -0.96166,2.4534 -2.15043,3.14401c0.34693,1.4549 0.00562,3.16746 -1.31301,5.07329c-0.7705,1.11361 -3.51094,1.28012 -4.74162,1.28012c-3.95758,0 -7.91517,0 -11.87275,0c-1.41743,0 -3.24939,1.00079 -4.25412,0.00445c-0.34618,-0.00222 -0.69299,-0.00445 -1.04058,-0.00445h-1.46389c-1.32819,0 -2.41446,-1.03575 -2.49519,-2.34361c-4.39539,0.13383 -8.76241,0.48048 -13.20838,0.48048z" data-paper-data="{&quot;origPos&quot;:null}" fill="#68737c"/><path d="M275.14743,172.18288c0.15382,2.49526 -0.30987,1.36792 -0.30987,1.36792l-0.66541,1.19773c-1.26265,2.22746 -1.99837,4.7794 -3.71141,6.74792c-4.05594,4.66085 -10.85747,4.13738 -15.38182,0.84695c-0.81975,-0.66367 -4.8112,-4.05696 -4.34972,-5.31275c-0.49162,0.16874 -0.91104,0.55307 -1.30229,0.90084c-1.35037,1.20027 -2.75986,2.66325 -4.3816,3.48462c-5.34579,2.70749 -10.63522,-1.05686 -13.36198,-5.34176c0,0 -1.34219,-2.10915 0.76696,-3.45134c2.10915,-1.34219 3.45134,0.76696 3.45134,0.76696c0.75292,1.18317 1.26322,2.44836 2.415,2.87372c2.13569,0.78871 3.27422,1.38948 5.51599,0.30171c1.62782,-0.78987 4.01304,-5.64729 6.73598,-4.73727c4.34196,1.4511 4.10082,4.67038 7.45116,6.4716c3.06725,2.23073 6.63816,2.33791 9.37126,-0.75003c0.97406,-1.10052 1.65252,-3.84519 2.41032,-5.22937l0.66541,-1.19773c0,0 4.52684,-1.43497 4.68066,1.06029z" fill="#9cacb9"/><path d="M224.4019,165.80023c-0.38375,-2.47037 2.08662,-2.85412 2.08662,-2.85412l-1.90078,0.12422c0.89226,-2.0076 1.95826,-3.65144 4.1897,-4.09773c2.29605,-0.35059 4.39045,-0.37117 6.66796,0.37133c0.4562,0.14873 0.92911,0.40089 1.19773,0.79849c0.10344,0.15311 -0.5774,0.34897 -0.39663,0.38725c0.52258,0.11065 1.15986,-0.44012 1.59697,-0.13308c0.29468,0.20699 -0.67409,1.06543 -0.31541,1.03329c1.17757,-0.10552 1.23157,-2.04492 2.06406,-2.88443c0.66521,-0.67081 3.39368,-1.89595 3.78221,-2.01685c3.10335,-0.9657 8.23769,1.60195 11.35986,2.16962c0,0 2.45967,0.44721 2.01246,2.90689c-0.44721,2.45967 -2.90689,2.01246 -2.90689,2.01246c-2.84534,-0.51733 -7.66755,-3.01674 -10.46543,-2.08897c-0.02409,0.00799 -1.22586,2.33585 -1.60627,2.55127c-1.08545,0.61467 -2.30832,0.96251 -3.50935,1.29945c-3.30466,0.92709 -5.11155,-2.67905 -8.50067,-1.5038c-0.02644,0.00529 -0.05296,0.01029 -0.07956,0.01506c0.00374,0.00406 0.0073,0.00831 0.01066,0.01273c0.26447,0.34776 -0.35488,0.79849 -0.53232,1.19773l-1.90078,2.78584c0,0 -2.47037,0.38375 -2.85412,-2.08662z" fill="#9cacb9"/><path d="M261.29267,193.6716c-0.30809,2.48094 -1.55247,2.0131 -1.55247,2.0131l-1.33081,0.53232c-5.29786,2.08769 -11.08341,2.60442 -15.79832,-1.16751c-3.84124,-3.83066 -8.18938,0.11266 -12.2961,1.33391c-5.70175,1.69558 -11.32264,-2.21494 -14.30618,-6.69025c0,0 -1.38675,-2.08013 0.69338,-3.46688c2.08013,-1.38675 3.46688,0.69338 3.46688,0.69338c2.19083,3.28624 5.54765,5.73997 9.64841,4.48856c1.5831,-0.48311 3.08087,-2.06974 4.80366,-2.44994c4.29964,-0.94889 7.62577,-0.35893 11.11343,2.18688c3.27951,2.6236 7.17998,1.91357 10.81789,0.42947l1.33081,-0.53232c0,0 3.71751,0.14834 3.40942,2.62928z" fill="#9cacb9"/><path d="M241.08564,168.92998c-0.54615,1.0923 -1.3591,1.38423 -2.04785,1.39709c0.18249,0.50833 0.18249,0.94498 0.18249,0.94498c0,0.33403 0.11393,0.77279 0.2248,1.20875c0.66809,-0.40737 3.1321,-1.8188 3.34099,-1.95806l1.99451,-0.66259c0,0 2.47655,0.34159 2.13496,2.81815c-0.18023,1.30667 -0.95479,1.82883 -1.64635,2.03056l0.29038,-0.02587c-3.75264,2.50176 -7.96165,4.73316 -10.84868,0.35102c-0.03822,0.07268 -0.08045,0.14638 -0.12696,0.22106c-1.3214,2.12224 -3.44364,0.80085 -3.44364,0.80085l-1.12993,0.22724c-2.59063,-0.94205 -4.43929,-2.40546 -4.27032,-4.95732c-2.54609,1.18886 -5.20565,1.25875 -7.5588,-0.64926c0.12144,0.23769 0.17296,0.40943 0.17296,0.40943c0.26616,0.88721 0.13897,2.01123 0.79849,2.66162c0.25609,0.25255 -0.46325,-0.92286 -0.13528,-1.0705c0.43567,-0.19612 0.91338,0.2999 1.33081,0.53232c2.02686,1.12854 3.02362,3.48319 4.79779,4.54746c0.15062,0.09035 -0.0535,-0.50013 0.12169,-0.51267c2.30578,-0.16494 4.9105,1.90061 7.18607,2.30258c1.19701,0.21144 1.54142,-0.31291 2.86128,0.14523c1.62757,0.56495 2.61159,1.85994 4.19684,2.30074c0.4436,0.17744 0.85322,0.54568 1.33081,0.53232c0.21491,-0.00601 -0.47446,-0.41216 -0.31894,-0.56062c0.37558,-0.35852 0.9951,-0.30911 1.46389,-0.53232c0.37416,-0.17816 1.97003,-1.41609 2.22974,-1.39122c1.39183,0.13327 2.7131,0.72809 3.98557,1.30753c0.39966,0.18199 0.50602,0.82314 0.93157,0.93157c0.23027,0.05867 0.16141,-0.54867 0.39475,-0.59361c0.04104,-0.00791 0.08218,-0.01395 0.12341,-0.01835c0.09148,-0.43125 0.33369,-0.88814 0.82331,-1.33325c1.60219,-1.45654 3.07823,-0.26385 3.44474,0.08161l2.83949,-0.92233c0,0 2.42441,0.61012 1.81429,3.03452c-0.10928,0.43425 -0.27677,0.77115 -0.47811,1.03163c0.21658,0.07879 0.45105,0.15968 0.70741,0.24513l1.29416,0.22798c0,0 2.14373,1.28624 0.85749,3.42997c-1.28624,2.14373 -3.42997,0.85749 -3.42997,0.85749l-0.30282,0.22798c-1.8681,-0.6227 -3.18545,-1.31016 -4.40244,-2.26603c-1.12667,0.41864 -2.27838,0.63132 -3.62356,0.39257c-1.21402,-0.21548 -2.45111,-0.4063 -3.59769,-0.85978c-0.19138,-0.07569 -0.46828,-0.20976 -0.68024,-0.36614c-0.40009,0.24126 -0.80109,0.48106 -1.22239,0.68169c-1.96615,0.93632 -4.01493,1.31463 -6.04143,0.50403c-0.62149,-0.27884 -2.42217,-0.91921 -2.96698,-1.652c-0.07776,-0.1046 0.36861,-0.26894 0.24361,-0.30585c-4.53462,-1.33903 -9.59333,-1.1573 -13.78555,-3.92042c-1.06442,-0.70156 -1.40941,-2.21574 -2.65475,-2.90508c-2.79541,-1.54737 -4.0292,-2.3391 -4.9262,-5.32909c0,0 -0.71837,-2.39457 1.6762,-3.11294c0.69998,-0.21 1.25673,-0.15398 1.69418,0.03046c-0.07303,-0.08693 -0.14565,-0.17615 -0.21784,-0.26769c-0.73298,-0.92944 -0.53232,-2.30674 -0.79849,-3.46011c0,0 -0.56215,-2.43598 1.87383,-2.99813c2.43598,-0.56215 2.99813,1.87383 2.99813,1.87383c0.26616,1.15337 0.06264,2.53294 0.79849,3.46011c0.1904,0.2399 -0.02699,-0.86288 0.27903,-0.87543c0.59466,-0.02439 1.01109,0.90313 1.59697,0.79849c0.35111,-0.06271 -0.3524,-0.80605 -0.10677,-1.06465c0.49831,-0.52461 1.34706,-0.66483 1.94258,-1.05936l1.40012,-1.40012c0.90497,0.58768 1.72338,0.94557 2.40793,1.25679l0.27162,-1.35812c-0.02112,-0.56561 0.17596,-1.21119 0.85606,-1.83424c0.00813,-0.00748 0.0163,-0.0149 0.02453,-0.02227c1.09793,-0.98805 2.13522,-0.73567 2.79499,-0.36956c0.27664,0.13999 0.52372,0.32989 0.72942,0.55787l2.65479,2.92027c0.13532,0.0998 -0.19416,-0.47344 -0.02875,-0.50361c0.44505,-0.08116 0.88721,0.17744 1.33081,0.26616l2.22472,0.21538c0,0 2.23607,1.11803 1.11803,3.3541zM232.96598,168.75688l-0.22486,0.20442l-0.32776,-0.36053l-1.17721,-0.23544c-0.00204,0.08423 -0.00641,0.17166 -0.01316,0.26251c-0.06061,0.81519 -0.22948,1.61837 -0.37871,2.42283c0.28645,0.16057 0.60716,0.43621 0.87477,0.53353l2.06401,0.22724c0,0 0.15863,0.09877 0.36215,0.28567c0.04052,-0.27885 0.07505,-0.55622 0.07505,-0.82505c0,0 0,-0.86862 0.51201,-1.58185c-0.66227,-0.25693 -1.23367,-0.5649 -1.7663,-0.93332zM239.55509,172.93177c0.00387,0.01724 0.00767,0.03441 0.01138,0.05151c0.21441,0.26095 0.43204,0.58977 0.60809,0.42737c0.19029,-0.17553 -0.28755,-0.30762 -0.61948,-0.47888z" fill="#586169"/><path d="M233.85107,187.18663c-0.47717,2.45404 -2.93121,1.97686 -2.93121,1.97686l0.53305,0.16161c-4.45586,1.62031 -8.63261,2.22613 -12.13771,-1.81716c-0.58115,-0.67038 0,-1.77441 0,-2.66162c0,0 0,-2.5 2.5,-2.5c2.5,0 2.5,2.5 2.5,2.5c0,0.06367 0,0.12734 0,0.19101c0.55198,0.06055 1.33072,0.51205 1.89168,0.50293c1.68196,-0.02734 1.93965,-0.33316 3.53732,-0.91413l2.13002,-0.37072c0,0 2.45404,0.47717 1.97686,2.93121z" fill="#586169"/><path d="M262.87668,189.03468c1.19207,-0.62929 3.62986,-1.65466 4.18007,0.1335c0.73521,2.38945 0.062,1.2255 0.062,1.2255l-0.39924,1.99622c-0.88103,1.33243 -1.49887,2.88268 -2.64308,3.99729c-1.5359,1.49617 -4.41827,-1.05597 -5.86754,-2.6362c-0.72953,-0.79545 0.35488,-2.1293 0.53232,-3.19395c0,0 0.411,-2.46598 2.87698,-2.05499c0.55083,0.0918 0.95811,0.28614 1.25849,0.53262zM263.65977,191.45945c0.08858,0.01032 0.10648,0.00032 0.00854,-0.05126c-0.00285,0.01709 -0.0057,0.03418 -0.00854,0.05126z" fill="#586169"/></g></g></svg>