<svg version="1.1" xmlns="http://www.w3.org/2000/svg" xmlns:xlink="http://www.w3.org/1999/xlink" width="75.19886" height="58.18985" viewBox="0,0,75.19886,58.18985"><g transform="translate(-204.25996,-146.59303)"><g data-paper-data="{&quot;isPaintingLayer&quot;:true}" fill="#a074d1" fill-rule="nonzero" stroke="none" stroke-width="0.5" stroke-linecap="butt" stroke-linejoin="miter" stroke-miterlimit="10" stroke-dasharray="" stroke-dashoffset="0" font-family="none" font-weight="none" font-size="none" text-anchor="none" style="mix-blend-mode: normal"><path d="M218.51769,180.87916l0.48024,-2.40121c0.02898,-0.7012 0.33448,-1.55141 1.48298,-2.04706c0.06106,-0.0273 0.12342,-0.05222 0.18696,-0.07464c0.27725,-0.10192 0.53405,-0.15703 0.77122,-0.17532c-1.93698,-2.29801 -3.92302,-4.63765 -5.26877,-7.3317c-1.10524,-2.21256 -1.97886,-5.66176 -4.10441,-7.22049c-0.5646,-0.41403 -3.63175,-0.06204 -4.63772,-0.06204c-0.44251,0 -1.08671,0.37124 -1.32754,0c-0.94681,-1.45945 -1.22713,-3.25575 -1.84069,-4.88362c1.01733,-3.05198 3.71322,-4.86547 6.29514,-6.59973c6.62795,-4.45197 16.77428,-5.03249 22.95218,0.53102c3.0907,2.78333 2.54322,7.91636 5.34458,10.34222c0.35401,0.44251 0.56629,1.05299 1.06204,1.32754c0.29295,0.16224 -0.62569,-0.73557 -0.35912,-0.93826c0.4227,-0.32141 1.08031,0.13812 1.59305,0c0.59378,-0.15995 0.90293,-0.83545 1.36885,-1.23679c1.75045,-1.50782 2.64364,-4.78419 4.59642,-6.2595c4.63444,-3.50128 11.36391,-3.22133 16.03067,-0.11271c1.32256,0.88098 3.02133,1.4299 3.88398,2.76449c0.68149,1.05432 0.85819,2.35956 1.28729,3.53934c0.4336,3.03517 -0.9127,5.43428 -2.01224,8.18526c-0.33545,0.83926 -0.77077,1.64136 -1.26641,2.40025c0.11059,0.27143 0.21342,0.62424 0.4142,0.74696c0.97019,0.59301 5.05049,0.9414 6.55228,1.65351c4.75313,2.25382 7.69958,6.48512 7.44012,11.75366c-1.26985,6.34927 -5.24384,16.64874 -13.86833,13.95761c-1.98321,-0.61883 -4.30317,-2.36672 -6.0654,-3.54237c-0.80757,-0.53876 -1.38752,-1.53842 -2.33783,-1.73679c-0.20077,-0.04191 -0.15849,0.45488 -0.35856,0.5c-0.56848,0.1282 -5.07072,-0.37716 -4.07569,0.29653c-3.58786,2.6909 -5.67199,6.76387 -9.50657,9.17104c-1.36409,0.85631 -3.64267,1.77363 -5.26887,1.15279c-0.49881,-0.19043 -3.51155,-1.79251 -4.21683,-2.6719c-1.6008,-1.99598 -2.4525,-5.92342 -5.24844,-6.8554c-0.16725,-0.05575 0.33425,0.42996 0.17246,0.5c-0.96395,0.41726 -2.10068,0.10493 -3.14153,0.2462c-3.15623,0.39453 -6.18359,1.33933 -9.31937,1.889c-0.82082,0.14388 -1.73255,0.8296 -2.463,0.4285c-1.68095,-0.92301 -3.86977,-2.95991 -3.22325,-4.76534c1.34329,-3.75121 4.44533,-7.72894 6.90217,-10.88741c0.403,-0.51808 0.93802,-1.01416 1.49916,-1.50257zM215.49685,192.73618c0.20183,-0.03439 0.40139,-0.06838 0.59277,-0.10096c-0.2354,-0.01497 -0.48244,-0.06034 -0.59277,0.10096z"/></g></g></svg>