<svg version="1.1" xmlns="http://www.w3.org/2000/svg" xmlns:xlink="http://www.w3.org/1999/xlink" width="32.38451" height="44.43112" viewBox="0,0,32.38451,44.43112"><g transform="translate(-224.19822,-138.24311)"><g data-paper-data="{&quot;isPaintingLayer&quot;:true}" fill="none" fill-rule="nonzero" stroke="none" stroke-width="0.5" stroke-linecap="butt" stroke-linejoin="miter" stroke-miterlimit="10" stroke-dasharray="" stroke-dashoffset="0" font-family="none" font-weight="none" font-size="none" text-anchor="none" style="mix-blend-mode: normal"><path d="M228.67462,151.7844c0,-1.83463 1.45927,-1.83463 1.45927,-1.83463l-0.65308,-0.22877c3.43745,-5.40203 7.32343,-2.50207 11.22432,-0.36147l0.05305,-0.13339l0.80524,0.50618c-0.02046,-1.68115 -0.23772,-4.34802 0.88512,-5.49536c1.95882,-2.00157 4.89053,-2.8396 7.34506,-2.84871c0.19153,-0.03637 0.41281,-0.0228 0.66763,0.06457c1.40785,0.48272 1.02389,2.2527 1.02389,2.2527l-1.65106,1.35191c-0.67626,0 -1.62633,-0.15854 -2.26594,0.11209c-0.63164,0.26726 -1.86929,1.63443 -2.56222,1.34618c-0.16142,-0.06715 0.19151,-0.76191 0.05308,-0.6378c-0.90878,0.81484 -0.57557,2.8443 -0.57557,4.07187c0,1.9179 0.04706,3.79013 0.12795,5.64027c0.08226,-0.13554 0.17172,-0.25224 0.26932,-0.34531c2.3528,-2.24347 5.68319,-1.8513 8.20169,-0.40311c0.43536,0.00748 1.00124,0.22759 1.28486,1.20815c0.4987,1.72417 -0.87272,2.35114 -0.87272,2.35114l-1.39452,-0.08323c-0.84938,-0.53393 -1.54478,-1.04486 -2.54599,-1.04784c-0.20835,-0.00062 -2.06046,0.54795 -2.36095,0.47402c-0.3289,0.98796 -0.58274,1.9167 -0.80753,3.0471c0,0 -0.28379,1.42715 -1.35961,1.40607c0.19871,2.54387 0.43208,5.09979 0.66462,7.73105c0,0 0.14591,1.65093 -1.08946,1.98551c0.68857,2.15074 1.05474,4.46362 0.99132,7.02154l0.0924,0.0166l-0.24017,2.11369c-0.02376,0.23597 -0.08318,0.45797 -0.17125,0.65719c-0.19667,0.48972 -0.60905,1.06514 -1.44766,0.93218c-0.02732,-0.00402 -0.05442,-0.00898 -0.08126,-0.01487c-0.82508,-0.17133 -1.09108,-0.86384 -1.17077,-1.40056c-0.01196,-0.06646 -0.02106,-0.13429 -0.02711,-0.20328l-0.1786,-1.79631l0.29525,-0.0464c0.26729,-5.79639 -2.10856,-9.98339 -5.41359,-14.03373c-0.6257,-0.78664 -1.28998,-1.46909 -1.96964,-2.18116l-1.31051,-0.81572c0,0 -0.71542,-1.59902 0.55644,-2.49846c1.27186,-0.89945 1.98728,0.69957 1.98728,0.69957l0.63518,-0.20419c0.74454,0.78004 1.47934,1.54344 2.16496,2.40541c1.19199,1.52503 2.27995,3.07089 3.20336,4.68444c-0.40288,-4.57895 -0.7649,-9.01452 -0.89788,-13.62904c-0.01778,-0.00016 -0.03532,-0.00065 -0.05261,-0.00146c-0.00045,0 -0.00091,0 -0.00136,0c-0.19224,0 -0.3758,-0.04674 -0.54388,-0.13166l-1.9142,-0.90247l0.05163,-0.1731c-2.60773,-1.65925 -5.34746,-3.62203 -7.39858,-0.39863l-1.62592,1.60586c0,0 -1.45927,0 -1.45927,-1.83463z" data-paper-data="{&quot;origPos&quot;:null}" fill="#33613a"/><path d="M228.48588,159.10749c-1.44701,-0.23729 -1.25827,-2.05651 -1.25827,-2.05651l0.07736,-0.13679c-0.35008,-0.33513 -0.57604,-0.86466 -0.57604,-1.46055c0,-0.08681 0.00479,-0.1722 0.01407,-0.25581c-0.21779,0.1625 -0.47208,0.25581 -0.74371,0.25581c-0.80593,0 -1.45927,-0.82139 -1.45927,-1.83463c0,-0.30813 0.06042,-0.59854 0.16719,-0.85348l0.71651,-1.80161l0.05129,0.03223c0.93031,-1.77854 2.04097,-2.57525 3.92926,-2.57525c0,0 1.45927,0 1.45927,1.83463c0,0.56181 -0.13684,0.95158 -0.32672,1.22199c0.0153,0.0255 0.03004,0.05089 0.04423,0.07615l0.57786,-0.58121c0.25114,-0.25705 0.57159,-0.41115 0.92067,-0.41115c0.80593,0 1.45927,0.82139 1.45927,1.83463c0,0.43888 -0.12258,0.84177 -0.32703,1.15749l-0.96559,1.51745l-0.05278,-0.05308c-0.06874,0.08622 -0.14159,0.17606 -0.21782,0.26805c-0.17753,0.86085 -0.77189,1.68586 -1.903,2.82349l0.04899,-0.58377c0,0 -0.18874,1.81922 -1.63576,1.58193z" data-paper-data="{&quot;origPos&quot;:null}" fill="#3478be"/><path d="M230.91217,166.95065c-0.32116,-0.53837 -0.36745,-1.02737 -0.2973,-1.43078c-0.07738,0.01594 -0.15681,0.02423 -0.23777,0.02423c-0.80593,0 -1.45927,-0.82139 -1.45927,-1.83463c0,-0.50661 0.16334,-0.96527 0.42741,-1.29727l1.21606,-1.52886l0.02419,0.03041c1.39143,-1.51401 2.86756,-2.46568 4.68081,-3.22556c0,0 1.38439,-0.58016 1.84585,1.16032c0.08363,0.31544 0.10664,0.59277 0.08824,0.83544c0.4288,0.31954 0.71628,0.90724 0.71628,1.57936c0,0.64692 -0.26632,1.21562 -0.66865,1.54229l-0.81767,0.68534c-0.0966,0.44488 -0.29272,0.75309 -0.29272,0.75309c-0.94,1.47723 -1.82766,2.2254 -3.24,2.98638l0.05751,0.08718c0,0 -1.16742,1.10078 -2.04298,-0.36692z" data-paper-data="{&quot;origPos&quot;:null}" fill="#3478be"/><path d="M254.45507,162.79216c-1.45927,0 -1.45927,-1.83463 -1.45927,-1.83463l-0.40939,1.64094c-2.22409,-1.39809 -2.75147,-3.29316 -1.92771,-6.17892c0.03994,-0.13992 0.30759,-0.5923 0.63783,-1.08859c0.0357,-0.6798 0.36592,-1.25842 0.83173,-1.53603l1.40474,-0.88303c0.20279,-0.13423 0.43377,-0.21019 0.67886,-0.21019c0.74734,0 1.36346,0.7063 1.4491,1.6169c0.69494,0.51526 0.92177,1.47584 0.92177,3.79073c0,0.26522 -0.49984,0.73557 -1.0829,1.12519c-0.28707,0.33266 -0.65468,0.44395 -0.86855,0.48119c-0.05681,0.02433 -0.11239,0.04643 -0.16633,0.06598l1.44939,1.17582c0,0 0,1.83463 -1.45927,1.83463z" data-paper-data="{&quot;origPos&quot;:null}" fill="#3478be"/><path d="M254.43412,146.96695c-0.53891,0.3764 -0.97663,0.30756 -1.30248,0.10249l0.10737,0.12838c-0.37527,0 -2.50534,0.28179 -2.67202,-0.17785l-0.70598,-0.14793c-0.70339,-0.13136 -1.24303,-0.89376 -1.24303,-1.81462c0,-0.27289 0.04739,-0.53188 0.13239,-0.76464c-0.15422,-0.24285 -0.28677,-0.49745 -0.38571,-0.76422h-0.47633c-0.80593,0 -1.45927,-0.82139 -1.45927,-1.83463c0,-1.01324 0.65334,-1.83463 1.45927,-1.83463h1.45927c0.01453,-0.01827 0.05636,-0.03022 0.11957,-0.03737c0.89964,-1.00265 2.33768,-2.21823 3.16379,-1.18571h0.85125c0.80593,0 1.45927,0.82139 1.45927,1.83463c0,0.58569 -0.21831,1.10729 -0.5582,1.44319l-0.40428,0.40662c0.02182,0.23307 0.00525,0.49885 -0.06748,0.80056c-0.01101,0.04793 -0.02353,0.09506 -0.0375,0.14129c-0.05668,0.19528 -0.12544,0.35962 -0.20263,0.49762l1.32967,0.71209c0,0 0.70869,1.60375 -0.56695,2.49473z" data-paper-data="{&quot;origPos&quot;:null}" fill="#3478be"/><path d="M242.03565,155.73697c-0.56916,0.11299 -0.94907,-0.1012 -1.20044,-0.40179v0.42424h-2.43212c-0.80593,0 -1.45927,-0.82139 -1.45927,-1.83463c0,-0.50661 0.16334,-0.96527 0.42741,-1.29727l0.68143,-0.85671c-0.04426,-0.00302 -0.08849,-0.00675 -0.13268,-0.01138c-1.12722,-0.11799 -1.73725,-0.60591 -2.66397,-1.85598c-0.76711,-1.03477 0.16636,-2.92342 0.73993,-4.14033c0.20879,-0.44299 0.54491,-0.67307 0.94773,-0.75485c0.31493,-1.78621 1.15257,-3.39848 2.5121,-4.22929c0.26289,-0.16065 0.50673,0.37381 0.72964,0.61155c1.70398,1.81724 1.85166,3.69088 2.31755,6.32663c0,0 0.17702,1.00153 -0.32941,1.67311c0.03465,0.96738 -0.43862,2.14629 -1.09895,2.78546c-0.00593,0.01868 -0.012,0.03745 -0.0182,0.05629l2.19309,1.40664c0,0 0.22759,1.81218 -1.21382,2.09831z" data-paper-data="{&quot;origPos&quot;:null}" fill="#3478be"/><path d="M237.4141,159.4623c0.21647,1.81433 -1.20322,2.08182 -1.20322,2.08182l-0.72964,0.15289c-0.67293,0.11086 -2.04469,1.16009 -2.43201,0.79537c-0.06837,0.11091 -0.36052,-0.37602 -0.31656,-0.23476c0.05885,0.18914 0.29776,0.34241 0.42941,0.49128l0.36944,-0.15483c0.15422,-0.06971 0.32047,-0.10769 0.49377,-0.10769c0.80593,0 1.45927,0.82139 1.45927,1.83463c0,0.58569 -0.21831,1.10729 -0.5582,1.44319l-1.20553,1.21249l-0.11728,-0.1843c-2.13099,1.08292 -4.01339,0.46044 -5.15747,-2.73084c-0.31503,-0.87872 0.08224,-2.00603 0.589,-2.98611l-0.04069,-0.04092l0.65308,-1.02633v-0.50991c-0.07398,0.04801 -0.15508,0.09212 -0.24396,0.13155c-0.68442,0.3037 -1.14856,0.02837 -1.44225,-0.32511l0.22694,0.42971c-2.41939,0 -3.54306,-0.96612 -3.98054,-4.18395c-0.07708,-0.56696 0.32901,-1.38037 0.81879,-2.15012v-2.5333h2.16036c0.33643,-0.09955 0.7484,-0.04508 1.19001,0.40869c0.00946,0.00963 0.01881,0.01942 0.02807,0.02934c0.65455,0.69599 0.59326,1.47214 0.43553,1.98776c-0.05928,0.2191 -0.15061,0.41957 -0.26694,0.59259l-1.20993,1.82538c-0.00571,0.01072 -0.02355,0.06467 -0.04949,0.14627c0.04962,0.04593 0.09422,0.12566 0.13825,0.21723c0.00184,-0.00317 0.00393,-0.00622 0.00625,-0.00915c0.17198,-0.21621 0.48642,0 0.72964,0l2.10571,1.22403c0,0 0.22971,0.81826 -0.07444,1.52792h0.60958c0.32971,-0.0983 0.73256,-0.04679 1.16968,0.38254c0.01168,0.01135 0.0232,0.02291 0.03459,0.0347c0.00886,0.00907 0.01758,0.01815 0.02619,0.02726c0.86653,-0.60904 1.85578,-0.93038 2.94193,-1.18396l0.72964,-0.15289c0,0 1.46656,-0.27682 1.68303,1.53752zM227.6378,156.45483c0.03744,0.06196 0.07783,0.11419 0.12299,0.14772c0.07099,0.05271 -0.02012,-0.02972 -0.12299,-0.14772z" data-paper-data="{&quot;origPos&quot;:null}" fill="#1f4973"/><path d="M243.63259,156.02608c-0.43421,0.39236 -0.82367,0.44092 -1.14287,0.34494c-1.02245,0.00237 -1.31426,0.07413 -2.5508,-0.6886c-0.26969,-0.16635 -0.17419,-0.79251 -0.42601,-0.99843c-1.5108,-1.2354 -4.08924,-1.67412 -4.4399,-4.45983c-0.28911,-2.29672 0.42115,-3.54711 0.66942,-5.73195c0,0 0.20637,-1.81619 1.65098,-1.55674c1.4446,0.25946 1.23824,2.07564 1.23824,2.07564c-0.17908,1.57602 -0.97034,3.08469 -1.11224,4.53604c-0.0204,0.20869 0.17964,-0.59285 0.32239,-0.48331c0.21883,0.16791 0.09571,0.65369 0.24321,0.91731c0.07523,0.13445 2.2241,1.00116 2.61325,1.34983c0.47119,0.42218 0.77446,1.08136 1.16056,1.62632c-0.05373,-0.09684 -0.08147,-0.18946 -0.05075,-0.25559c0.12263,-0.26406 0.48642,0 0.72964,0l1.42816,0.76387c0,0 0.85168,1.48974 -0.33327,2.5605z" data-paper-data="{&quot;origPos&quot;:null}" fill="#1f4973"/><path d="M252.93455,148.01889c-1.1395,1.14608 -2.0511,-0.28652 -2.0511,-0.28652l-0.86521,-0.15458c-1.7538,-2.20492 -3.77402,-4.02972 -3.32609,-7.40854c0,0 0.2399,-1.80967 1.67932,-1.50805c1.43942,0.30161 1.19952,2.11128 1.19952,2.11128c-0.08107,0.61155 -0.60337,1.41112 -0.24321,1.83463c0.15352,0.18052 0.11515,-0.72796 0.32208,-0.68158c0.60996,0.13672 1.9889,2.50049 2.43212,3.05771l1.08049,0.45697c0,0 0.9116,1.43261 -0.2279,2.57869z" data-paper-data="{&quot;origPos&quot;:null}" fill="#1f4973"/><path d="M255.00404,163.05721c-1.42688,0.38441 -1.73264,-1.4095 -1.73264,-1.4095l-0.45757,0.74243c-1.38986,-1.3979 -2.31496,-2.34375 -2.6617,-4.7647c-0.20871,-1.45725 1.27803,-4.47784 1.78166,-5.74419c0,0 0.65261,-1.64094 1.95781,-0.82047c1.30521,0.82047 0.65261,2.46141 0.65261,2.46141c-0.45507,1.14426 -0.816,2.21865 -1.13688,3.42895c-0.08107,0.30577 -0.16214,0.61155 -0.24321,0.91731c-0.00923,0.0348 -0.01934,0.07772 -0.03005,0.12601c0.37883,-0.06431 1.15541,1.18093 1.50296,1.53049l1.48813,1.35397c0,0 0.30576,1.7939 -1.12112,2.17831z" data-paper-data="{&quot;origPos&quot;:null}" fill="#1f4973"/><path d="M232.92666,152.52951c-0.59267,1.6765 -0.68089,0.89583 -0.68089,0.89583l-0.72964,0.45866c-2.46412,0.84812 -3.34632,0.93977 -4.3598,-3.0911c-0.17278,-0.68719 0.8107,-1.01923 1.21606,-1.52886c0,0 1.03186,-1.29727 2.06372,0c0.25035,0.31474 0.37922,0.62949 0.43082,0.9257l0.07362,-0.04628c0,0 2.57877,0.70955 1.9861,2.38605z" data-paper-data="{&quot;origPos&quot;:null}" fill="#77a9db"/><path d="M240.53753,152.07475c-1.44701,0.23729 -1.63576,-1.58193 -1.63576,-1.58193l-0.01226,-0.84884c0,-2.09913 -0.50837,-4.08154 -0.71837,-6.19364c0,0 -0.181,-1.82046 1.267,-2.04802c1.448,-0.22756 1.62901,1.59291 1.62901,1.59291c0.22505,2.26359 0.7409,4.36073 0.7409,6.64876l-0.01226,0.37426c0,0 0.18874,1.81922 -1.25827,2.05651z" data-paper-data="{&quot;origPos&quot;:null}" fill="#77a9db"/><path d="M252.9958,145.97474c-1.45927,0 -1.45927,-1.83463 -1.45927,-1.83463c0,-0.35673 0,-1.78366 0,-2.1404c0,0 0,-1.83463 1.45927,-1.83463c1.45927,0 1.45927,1.83463 1.45927,1.83463c0,0.35673 0,0.71347 0,1.0702v1.0702c0,0 0,1.83463 -1.45927,1.83463z" data-paper-data="{&quot;origPos&quot;:null}" fill="#77a9db"/><path d="M233.31261,160.93073c-0.22189,-1.81329 1.22041,-2.09227 1.22041,-2.09227l0.46511,-0.02134c0.96965,0 1.50372,-0.11786 2.45708,-0.51739c0,0 1.38439,-0.58016 1.84585,1.16032c0.46146,1.74049 -0.92292,2.32064 -0.92292,2.32064c-1.1658,0.48855 -2.13755,0.70569 -3.38001,0.70569l-0.02132,-0.02134c0,0 -1.4423,0.27896 -1.6642,-1.53433z" data-paper-data="{&quot;origPos&quot;:null}" fill="#77a9db"/><path d="M254.08983,158.50502c-1.45423,0.15236 -1.5606,-1.52667 -1.5606,-1.52667l-0.12161,-0.91731c-0.122,-1.05118 -0.14146,-1.99664 -0.14146,-3.05355c0,0 0,-1.83463 1.45927,-1.83463c1.45927,0 1.45927,1.83463 1.45927,1.83463c0,0.83612 -0.03377,1.63029 0.10175,2.45033l0.12161,0.91731c0,0 0.136,1.97754 -1.31823,2.1299z" data-paper-data="{&quot;origPos&quot;:null}" fill="#77a9db"/><path d="M242.40168,168.27018c-1.19548,1.05209 -2.22122,-0.92283 -2.22122,-0.92283l-0.24321,-0.91731c0.10191,-0.02879 0.14777,-0.07855 0.15256,-0.14233l-1.12852,-1.13504c-0.14265,-0.14097 -0.26389,-0.31467 -0.35656,-0.51207c-0.23682,-0.46358 -0.42274,-1.20708 0.10263,-2.05255c0.00902,-0.01468 0.01823,-0.02917 0.0276,-0.04349c0.4408,-0.68027 0.93325,-0.76404 1.32376,-0.66971h1.26291v0.95286l0.66839,0.67225l-0.06899,0.10842c0.25105,0.39695 0.46632,0.87369 0.78498,1.66134l0.09291,0.35042c0.05697,-1.32292 0.24531,-2.54344 0.51197,-3.88448l-0.03555,-1.27594c0,0 0.15276,-1.82455 1.60401,-1.63249c1.45125,0.19206 1.29849,2.0166 1.29849,2.0166l-0.03555,1.78176c-0.27527,1.38433 -0.44285,2.41041 -0.44285,3.83584c0,0 0,1.18863 -0.761,1.6524c0.23223,0.44579 0.26821,0.9283 0.26821,0.9283l0.00637,0.47701c0,2.62644 0.47515,5.10569 0.65858,7.64428h0.07106v1.83463c0,0.23188 -0.03422,0.45371 -0.09665,0.65795c-0.14223,0.52629 -0.49377,1.17668 -1.36262,1.17668c-0.86886,0 -1.22039,-0.65039 -1.36262,-1.17668c-0.03756,-0.12287 -0.06491,-0.25212 -0.08073,-0.38609l-0.23927,-1.80488l0.16963,-0.03554c-0.16858,-2.61487 -0.67591,-5.19489 -0.67591,-7.91035l0.00637,-0.13453c0,0 -0.05018,-0.67289 0.23523,-1.24015c-0.04197,0.04183 -0.08672,0.08375 -0.13439,0.12571zM243.05193,167.57159c-0.01721,-0.03258 -0.03334,-0.06551 -0.04843,-0.09858c-0.02783,0.06662 -0.06127,0.13457 -0.10111,0.20352c0.04626,-0.0378 0.09602,-0.07296 0.14955,-0.10493z" data-paper-data="{&quot;origPos&quot;:null}" fill="#4e9459"/><path d="M250.4888,154.26195c0.46146,1.74049 -0.92292,2.32064 -0.92292,2.32064l-1.13556,0.2687c-0.8107,0.40769 -1.62141,0.81539 -2.43212,1.22308c0,0 -1.3549,0.68136 -1.89685,-1.02204c-0.54196,-1.70341 0.81294,-2.38477 0.81294,-2.38477c0.8107,-0.40769 1.62141,-0.81539 2.43212,-1.22308l1.29656,-0.34285c0,0 1.38439,-0.58016 1.84585,1.16032z" data-paper-data="{&quot;origPos&quot;:null}" fill="#4e9459"/><path d="M243.76842,143.48225c-0.20637,-1.81619 1.23824,-2.07564 1.23824,-2.07564l0.44959,-0.32421h1.45927c0.18444,0 0.36088,0.04302 0.52333,0.12151c0.41861,0.17881 0.93594,0.62077 0.93594,1.71312c0,1.09235 -0.51732,1.53431 -0.93594,1.71312c-0.0043,0.00208 -0.00862,0.00413 -0.01294,0.00616l-2.40056,1.20721l-0.2776,-0.87251c-0.40737,-0.1422 -0.86931,-0.52051 -0.97933,-1.48876z" data-paper-data="{&quot;origPos&quot;:null}" fill="#4e9459"/><path d="M230.87245,148.92928c-0.16114,-1.82341 1.2892,-2.02601 1.2892,-2.02601l0.89078,-0.317c0.48642,0 0.97285,0 1.45927,0c0,0 1.45927,0 1.45927,1.83463c0,1.83463 -1.45927,1.83463 -1.45927,1.83463c-0.48642,0 -0.97285,0 -1.45927,0l-0.56849,0.29455c0,0 -1.45035,0.2026 -1.6115,-1.6208z" data-paper-data="{&quot;origPos&quot;:null}" fill="#4e9459"/></g></g></svg>