<svg version="1.1" xmlns="http://www.w3.org/2000/svg" xmlns:xlink="http://www.w3.org/1999/xlink" width="82.16081" height="62.10199" viewBox="0,0,82.16081,62.10199"><g transform="translate(-199.11934,-148.84104)"><g data-paper-data="{&quot;isPaintingLayer&quot;:true}" fill="#75ccd1" fill-rule="nonzero" stroke="none" stroke-width="0.5" stroke-linecap="butt" stroke-linejoin="miter" stroke-miterlimit="10" stroke-dasharray="" stroke-dashoffset="0" font-family="none" font-weight="none" font-size="none" text-anchor="none" style="mix-blend-mode: normal"><path d="M204.17037,175.6228c3.66345,-0.93396 7.30775,-2.23737 10.73705,-3.70954c2.17361,-0.93311 4.69998,-1.56845 5.65477,-3.72621c0.88455,-1.99902 -1.61162,-6.14848 -2.73521,-7.73361c-0.83273,-1.24909 -2.3299,-3.5151 -1.96438,-5.1446c1.26488,-5.63888 7.26548,-7.3668 12.26932,-6.04811c4.21063,1.10966 5.99299,4.74942 8.64368,7.77494c0.66587,0.76003 4.74133,3.98293 4.63772,3.24814c5.1219,0 9.64904,-5.85243 15.13401,-4.24814c9.30986,2.72303 7.88397,13.50564 5.20237,20.63257c0.17359,0.20986 0.35659,0.47526 0.54577,0.57713c1.01371,0.54583 2.11106,0.92701 3.20192,1.29519c3.9428,1.33074 11.36112,0.64049 14.1079,4.40227c3.56948,4.88849 0.63554,8.86664 -1.43975,13.3511c-1.87476,3.74951 -6.79789,8.2253 -11.52888,6.69214c-3.94778,-1.27934 -7.00876,-4.53733 -11.50493,-4.27327c-0.28956,0.01701 -2.18172,1.78229 -2.53672,2.11487c-2.37264,2.22279 -4.72308,4.43507 -7.02436,6.73635c-2.66116,2.66116 -4.3903,3.84966 -8.27193,3.20851c-3.33452,-0.55078 -4.78518,-6.31872 -7.9211,-8.02263c-2.98787,-1.62347 -4.15908,0.21994 -6.79134,1.05326c-4.32814,1.37019 -9.34603,2.34371 -12.90997,-0.75505c-1.12823,-0.98097 -1.1498,-2.35732 -1.52802,-3.74409c-0.47259,-2.83551 0.96269,-5.11865 2.20048,-7.59422c0.06451,-0.12903 0.12903,-0.25805 0.19354,-0.38708c-0.37728,-0.22149 -0.78063,-0.64481 -1.17834,-0.75219c-0.54144,-0.1462 -1.10946,0.20214 -1.67029,0.20214c-0.89998,0 -5.18557,0.59473 -5.8412,0c-3.65274,-3.3135 -3.1425,-6.67882 -1.37469,-9.9096c-0.4752,-0.28119 -0.90141,-0.78167 -1.07676,-1.65843c-0.49029,-2.45145 1.96116,-2.94174 1.96116,-2.94174c0.90597,-0.18119 1.81384,-0.38816 2.72062,-0.61786c0.00594,-0.00792 0.01188,-0.01583 0.01781,-0.02374z"/></g></g></svg>