<svg version="1.1" xmlns="http://www.w3.org/2000/svg" xmlns:xlink="http://www.w3.org/1999/xlink" width="150.03724" height="74.61082"><g transform="translate(-136.6924,-128.95378)"><g data-paper-data="{&quot;isPaintingLayer&quot;:true}" fill="none" fill-rule="nonzero" stroke="none" stroke-width="0.5" stroke-linecap="butt" stroke-linejoin="miter" stroke-miterlimit="10" stroke-dasharray="" stroke-dashoffset="0" font-family="none" font-weight="none" font-size="none" text-anchor="none" style="mix-blend-mode: normal"><path d="M255.96782,170.90737c1.9658,1.54455 -1.05426,4.41725 -1.05426,4.41725l-1.32754,0.26551c0.41548,-1.5645 0.10014,-0.03185 -0.61436,0.37609c-0.1531,0.08741 -0.24078,-0.60522 -0.29653,-0.43796c-0.78,2.34 -0.48129,4.00195 -1.95145,6.08464c0.37782,0.53216 0.59944,1.30033 0.15626,2.33441c-0.70532,1.64574 -2.08417,1.60764 -2.80998,1.45347c-0.19131,0.27213 -0.46748,0.53395 -0.85673,0.7675c-2.14373,1.28624 -3.42997,-0.85749 -3.42997,-0.85749c-0.46828,-0.78047 -0.94615,-1.55391 -1.4283,-2.32347c-0.35636,-0.13009 -0.71419,-0.25069 -1.07357,-0.3587c-0.60745,-0.18256 -1.69102,-0.10735 -2.2169,-0.40076c-2.57806,-1.43841 -4.05494,-3.46184 -6.8104,-4.3784c-4.61688,-1.53573 -8.97588,-0.92358 -13.63379,-1.7283c-4.10318,-0.82064 -8.51061,-0.01343 -12.56037,0.79653l-2.52282,0.54064c0,0 -2.46107,-0.43948 -2.02159,-2.90055c0.43948,-2.46107 2.90055,-2.02159 2.90055,-2.02159l0.66329,-0.5214c4.69419,-0.93884 9.76207,-1.74842 14.52153,-0.79653c3.37236,0.87389 7.07108,0.0424 10.55136,0.84417c2.23523,0.51494 4.92505,1.19428 6.95602,2.40685c-2.0659,-3.66496 -3.7979,-7.49776 -4.65384,-11.819c-0.71436,-3.60645 0.88323,-6.92453 0.88323,-10.4868l0.63015,-0.36501c0,0 -0.69703,-2.40087 1.70384,-3.09789c2.40087,-0.69703 3.09789,1.70384 3.09789,1.70384l-0.43188,1.75906c0,2.65876 -1.73556,6.20466 -1.24084,8.62984c1.41363,6.92994 5.00359,12.44326 8.61622,18.14724c0.21048,0.08973 0.42049,0.1813 0.63005,0.27408c0.12391,-0.25377 0.239,-0.40722 0.239,-0.40722c0.53102,-0.70802 1.31318,-1.28446 1.59305,-2.12407c0.05575,-0.16725 -0.42996,0.33425 -0.5,0.17246c-0.17579,-0.4061 -0.13994,-0.90774 0,-1.32754c0.44114,-1.32343 0.91123,-2.88287 2.09305,-3.62407c0.8718,-0.54677 1.8915,-0.81131 2.83725,-1.21696l1.32754,-0.26551c0,0 0.06905,-1.0589 2.03484,0.48566z" fill="#826e38"/><path d="M191.62321,198.27228c-1.15964,0.82832 -2.13042,0.52343 -2.75083,0.10811c-4.54592,1.3708 -9.04903,2.31759 -13.72034,2.56993c0.05468,0.74003 -0.16064,1.71653 -1.42687,2.32212c-2.25534,1.07864 -3.33397,-1.1767 -3.33397,-1.1767l-0.17404,-1.14501c-0.4273,-0.0233 -0.8565,-0.0528 -1.28775,-0.08871c-3.69428,-0.30762 -7.21632,-1.71236 -10.84514,-2.43813c-5.52815,-1.10563 -10.81131,0.87575 -16.23677,1.30471v0.07138h-2.65509c-1.38071,0 -2.5,-1.11929 -2.5,-2.5c0,-0.92661 0.50412,-1.73548 1.25305,-2.16731l1.28825,-0.77295c0.24669,-1.12398 4.09794,-1.67328 5.00932,-2.08654c3.12778,-1.41827 6.39646,-4.64374 8.78715,-7.01471c1.81956,-1.80454 1.16351,-4.92079 2.34403,-7.23092c1.16818,-2.28596 3.00863,-4.37746 4.48009,-6.48416c1.48567,-2.12604 2.93693,-2.59263 5.3987,-3.24575c4.21,-1.11694 9.24296,-4.13052 13.76574,-3.23466c2.67104,0.52907 3.97011,2.13335 6.27916,3.15509c0.72558,0.32106 2.87689,-0.06217 3.81018,0.03102c2.19687,0.21935 3.31236,0.68015 5.21712,1.82754c1.45769,1.09326 3.78787,1.01825 5.72702,1.37517c0.33976,-0.02469 0.57808,0.01105 0.57808,0.01105l-0.11136,0.39387c1.76492,-0.03885 3.56112,0.04398 5.00996,0.68905c1.02543,0.45656 1.65208,0.84186 2.22661,1.16743l-0.02108,-0.1054l2.22181,-0.44436c0.55012,-0.24788 1.27224,-0.31381 2.13739,0.17872c0.04466,0.02485 0.08848,0.05103 0.1314,0.07848c1.22279,0.76528 1.27566,1.81718 1.11644,2.54618c-0.05651,0.31933 -0.17364,0.61773 -0.33906,0.88289l-0.13881,0.23136c-0.00541,0.16573 -0.02571,0.34234 -0.06334,0.53051c-0.20561,1.02805 -0.75612,1.53874 -1.32609,1.78521l-0.04367,0.07278l-0.02459,-0.01475c-4.77012,7.59634 -10.25141,14.44332 -18.85512,17.71382c-0.15545,0.37728 -0.44228,0.757 -0.92757,1.10364zM187.67011,190.66226c0.35051,-1.46709 -0.95331,-3.69899 -1.59463,-4.98867c-0.59516,-1.19685 -1.26659,-2.71721 -2.08254,-3.99515c-0.86346,0.01798 -1.73766,0.10636 -2.62535,0.2839c-2.98259,0.59652 -5.51175,1.83871 -7.92975,3.31049c0.74449,1.21004 1.2876,2.4413 1.52987,3.66443c0.43263,2.18412 0.3613,4.59349 0.27017,6.94001c1.22931,0.07108 2.9597,0.35831 3.91441,0.16356c2.79792,-0.57074 5.71112,-1.53323 8.51782,-2.48145c0,-0.96571 0,-1.93141 0,-2.89712zM177.7325,177.14097c-2.59282,-1.41476 -4.90305,-3.26044 -7.43425,-4.77916c0,0 -0.16493,-0.09896 -0.37585,-0.28772c-0.36188,0.12849 -0.71768,0.24746 -1.06618,0.3512c-1.30506,0.38852 -2.70641,1.59498 -3.95019,1.04076c-0.24012,-0.107 0.41846,-0.93866 0.2314,-0.75394c-0.49053,0.4844 -0.78977,1.13019 -1.18466,1.69528c-0.19306,0.27615 -0.4045,0.55419 -0.62683,0.83396c2.14823,1.63651 4.82761,3.7926 7.08824,6.18809c2.49378,-1.58642 5.03297,-3.01517 8.06351,-3.90102c-0.25129,-0.12569 -0.50039,-0.25388 -0.74521,-0.38746zM180.30498,172.8535c1.87505,1.02236 3.97737,1.78327 5.52394,3.32984c0.17636,0.17636 0.35117,0.35822 0.5242,0.5452c3.35992,0.25688 6.65003,1.17996 9.91775,2.2692c1.34773,0.44924 5.82058,2.11201 6.94992,1.2478l1.32754,-0.26551c0,0 0.24373,-0.05034 0.59293,-0.04153c0.27543,-0.40455 0.54718,-0.8127 0.8158,-1.22372c-0.09811,-0.03937 -0.19622,-0.0808 -0.29437,-0.1245c-0.4858,-0.2163 -0.62807,-0.92642 -1.11436,-1.1416c-1.40427,-0.62138 -3.14305,-0.6424 -4.81989,-0.5787v0.09623l-0.3938,0l-0.09649,0.48247l-2.60968,-0.52194c-0.15607,-0.02803 -0.30712,-0.07055 -0.45169,-0.12611c-0.50255,-0.17075 -1.08814,-0.51758 -1.39362,-1.22206c-1.24868,-0.30104 -2.43933,-0.73797 -3.45796,-1.50194c-0.18687,-1.23238 -5.72897,-0.88395 -6.69005,-1.1416c-2.05462,-0.55081 -3.69006,-2.4791 -5.61641,-2.87205c-1.00249,-0.2045 -2.03127,-0.16122 -3.06346,0.02494c1.42063,0.96863 2.83712,1.94085 4.3497,2.76557zM192.67011,190.66226c0,0.34347 0,0.68694 0,1.03041c3.29754,-1.58144 6.02615,-3.84974 8.41202,-6.50275c-3.66151,-0.29448 -7.17087,-1.67349 -10.75195,-2.61413c1.30759,2.63054 2.1816,5.47247 2.33993,8.08646zM170.32533,190.79421c-0.18881,-0.9256 -0.58114,-1.8524 -1.11727,-2.76487c-1.32954,0.88303 -2.68674,1.76128 -4.12935,2.56453c-1.99389,1.11019 -3.99846,1.82146 -5.91431,2.94706c3.93958,0.79072 7.43577,1.65686 11.1975,2.07203c0.13539,-1.72033 0.23783,-3.47354 -0.03657,-4.81875zM154.68497,190.52082c2.69737,-2.02302 5.647,-2.96974 8.53679,-4.56933c1.01853,-0.56379 1.98805,-1.15419 2.93014,-1.75254c-1.89405,-1.91848 -4.08796,-3.64389 -5.86593,-4.98997c-0.03587,0.06402 -0.07061,0.12808 -0.10413,0.19219c-1.13425,2.16893 -1.00067,4.94795 -1.99686,7.18541c-0.88286,1.98291 -2.93874,3.14646 -4.48038,4.51591c-0.79213,0.70366 -1.55548,1.40867 -2.32746,2.08901c0.77375,-0.05952 1.55192,-0.09785 2.32816,-0.1093c-0.41849,-1.51274 0.97968,-2.56137 0.97968,-2.56137z" fill="#409f51"/><path d="M190.29205,182.54347c3.58108,0.94064 7.1756,2.33498 10.83711,2.62946c-2.38588,2.65301 -5.18922,4.97992 -8.48676,6.56137c0,-0.34347 -0.0049,-0.69066 -0.0049,-1.03413c-0.15833,-2.61399 -1.03786,-5.52616 -2.34545,-8.15669z" data-paper-data="{&quot;noHover&quot;:false,&quot;origItem&quot;:[&quot;Path&quot;,{&quot;applyMatrix&quot;:true,&quot;segments&quot;:[[[192.67011,190.66226],[-0.15833,-2.61399],[0,0.34347]],[[192.67011,191.69268],[0,-0.34347],[3.29754,-1.58144]],[[201.08214,185.18993],[-2.38588,2.65301],[-3.66151,-0.29448]],[[190.33018,182.5758],[3.58108,0.94064],[1.30759,2.63054]]],&quot;closed&quot;:true}]}" fill="#1cbc39"/><path d="M175.90796,170.07178c1.03219,-0.18616 2.06237,-0.23308 3.06486,-0.02858c1.92635,0.39295 3.56066,2.32411 5.61528,2.87492c0.96108,0.25765 6.56571,-0.12139 6.75259,1.11099c1.01863,0.76397 2.24356,1.25324 3.49224,1.55428c0.30547,0.70449 0.88912,1.06109 1.39167,1.23184c0.14457,0.05556 0.19994,0.06901 0.35601,0.09704l2.60926,0.52337l0.09582,-0.47968l0.39371,0.00044l-0.0001,-0.09571c1.67684,-0.06371 3.51408,-0.02525 4.91835,0.59612c0.48629,0.21518 0.62796,0.92838 1.11376,1.14468c0.09816,0.0437 0.19623,0.08531 0.29433,0.12468c-0.26862,0.41101 -0.54163,0.8236 -0.81706,1.22815c-0.3492,-0.00881 -0.59319,0.04227 -0.59319,0.04227l-1.32847,0.26794c-1.12934,0.86421 -5.60772,-0.78853 -6.95545,-1.23777c-3.26772,-1.08924 -6.64603,-2.02566 -10.00594,-2.28255c-0.17303,-0.18699 -0.34948,-0.37518 -0.52584,-0.55154c-1.54657,-1.54657 -3.64858,-2.32761 -5.52364,-3.34997c-1.51258,-0.82472 -2.92757,-1.8023 -4.3482,-2.77093z" data-paper-data="{&quot;noHover&quot;:false,&quot;origItem&quot;:[&quot;Path&quot;,{&quot;applyMatrix&quot;:true,&quot;segments&quot;:[[[180.30498,172.8535],[-1.51258,-0.82472],[1.87505,1.02236]],[[185.82892,176.18334],[-1.54657,-1.54657],[0.17636,0.17636]],[[186.35311,176.72854],[-0.17303,-0.18699],[3.35992,0.25688]],[[196.27086,178.99774],[-3.26772,-1.08924],[1.34773,0.44924]],[[203.22078,180.24554],[-1.12934,0.86421],[0,0]],[204.54832,179.98003],[[205.14125,179.93851],[-0.3492,-0.00881],[0.27543,-0.40455]],[[205.95706,178.71479],[-0.26862,0.41101],[-0.09811,-0.03937]],[[205.66268,178.59029],[0.09816,0.0437],[-0.4858,-0.2163]],[[204.54832,177.44869],[0.48629,0.21518],[-1.40427,-0.62138]],[[199.72843,176.86999],[1.67684,-0.06371],[0,0]],[199.72843,176.96622],[199.33464,176.96622],[199.23814,177.44869],[[196.62847,176.92675],[0,0],[-0.15607,-0.02803]],[[196.17678,176.80064],[0.14457,0.05556],[-0.50255,-0.17075]],[[194.78316,175.57858],[0.30547,0.70449],[-1.24868,-0.30104]],[[191.3252,174.07664],[1.01863,0.76397],[-0.18687,-1.23238]],[[184.63515,172.93504],[0.96108,0.25765],[-2.05462,-0.55081]],[[179.01874,170.06299],[1.92635,0.39295],[-1.00249,-0.2045]],[[175.95528,170.08793],[1.03219,-0.18616],[1.42063,0.96863]]],&quot;closed&quot;:true}]}" fill="#1cbc39"/><path d="M170.40314,195.64124c-3.76174,-0.41516 -7.34701,-1.29506 -11.28659,-2.08578c1.91586,-1.1256 3.97815,-1.90041 5.97204,-3.0106c1.44261,-0.80324 2.82772,-1.66522 4.15726,-2.54825c0.53613,0.91246 0.93981,1.86282 1.12863,2.78842c0.27441,1.34521 0.16405,3.13588 0.02866,4.85621z" data-paper-data="{&quot;noHover&quot;:false,&quot;origItem&quot;:[&quot;Path&quot;,{&quot;applyMatrix&quot;:true,&quot;segments&quot;:[[[170.32533,190.79421],[0.27441,1.34521],[-0.18881,-0.9256]],[[169.20806,188.02935],[0.53613,0.91246],[-1.32954,0.88303]],[[165.07872,190.59387],[1.44261,-0.80324],[-1.99389,1.11019]],[[159.1644,193.54094],[1.91586,-1.1256],[3.93958,0.79072]],[[170.36191,195.61296],[-3.76174,-0.41516],[0.13539,-1.72033]]],&quot;closed&quot;:true}]}" fill="#1cbc39"/><path d="M187.71187,193.58688c-2.80669,0.94822 -5.77147,1.93224 -8.56939,2.50298c-0.95471,0.19475 -2.70567,-0.1018 -3.93498,-0.17288c0.09112,-2.34652 0.14284,-4.79521 -0.28978,-6.97932c-0.24228,-1.22313 -0.77998,-2.47738 -1.52448,-3.68742c2.41799,-1.47178 4.99738,-2.74106 7.97997,-3.33757c0.88769,-0.17754 1.77763,-0.26144 2.64109,-0.27942c0.81595,1.27794 1.50915,2.81822 2.10431,4.01507c0.64132,1.28968 1.95052,3.55898 1.60001,5.02607c0,0.96571 -0.00675,1.9468 -0.00675,2.9125z" data-paper-data="{&quot;noHover&quot;:false,&quot;origItem&quot;:[&quot;Path&quot;,{&quot;applyMatrix&quot;:true,&quot;segments&quot;:[[[187.67011,190.66226],[0,0.96571],[0.35051,-1.46709]],[[186.07548,185.67359],[0.64132,1.28968],[-0.59516,-1.19685]],[[183.99294,181.67844],[0.81595,1.27794],[-0.86346,0.01798]],[[181.36759,181.96234],[0.88769,-0.17754],[-2.98259,0.59652]],[[173.43784,185.27283],[2.41799,-1.47178],[0.74449,1.21004]],[[174.96772,188.93726],[-0.24228,-1.22313],[0.43263,2.18412]],[[175.23789,195.87727],[0.09112,-2.34652],[1.22931,0.07108]],[[179.1523,196.04083],[-0.95471,0.19475],[2.79792,-0.57074]],[[187.67011,193.55938],[-2.80669,0.94822],[0,-0.96571]]],&quot;closed&quot;:true}]}" fill="#1cbc39"/><path d="M178.52744,177.53353c-3.03054,0.88585 -5.62465,2.35923 -8.11843,3.94565c-2.26063,-2.3955 -4.98385,-4.61109 -7.13209,-6.2476c0.22233,-0.27976 0.43542,-0.56401 0.62848,-0.84017c0.39489,-0.56509 0.70056,-1.22359 1.19109,-1.708c0.18705,-0.18471 -0.47443,0.65161 -0.2343,0.75861c1.24377,0.55422 2.6676,-0.67342 3.97267,-1.06194c0.34849,-0.10375 0.71542,-0.22645 1.0773,-0.35494c0.21092,0.18877 0.37928,0.28713 0.37928,0.28713c2.5312,1.51872 4.89816,3.41678 7.49098,4.83154c0.24482,0.13358 0.49373,0.26403 0.74503,0.38971z" data-paper-data="{&quot;noHover&quot;:false,&quot;origItem&quot;:[&quot;Path&quot;,{&quot;applyMatrix&quot;:true,&quot;segments&quot;:[[[177.7325,177.14097],[0.24482,0.13358],[-2.59282,-1.41476]],[[170.29825,172.36181],[2.5312,1.51872],[0,0]],[[169.9224,172.07408],[0.21092,0.18877],[-0.36188,0.12849]],[[168.85623,172.42529],[0.34849,-0.10375],[-1.30506,0.38852]],[[164.90604,173.46605],[1.24377,0.55422],[-0.24012,-0.107]],[[165.13744,172.71211],[0.18705,-0.18471],[-0.49053,0.4844]],[[163.95278,174.4074],[0.39489,-0.56509],[-0.19306,0.27615]],[[163.32595,175.24135],[0.22233,-0.27976],[2.14823,1.63651]],[[170.41419,181.42945],[-2.26063,-2.3955],[2.49378,-1.58642]],[[178.4777,177.52843],[-3.03054,0.88585],[-0.25129,-0.12569]]],&quot;closed&quot;:true}]}" fill="#1cbc39"/><path d="M153.67567,193.12248c-0.77623,0.01146 -1.56111,0.04387 -2.33486,0.10339c0.77198,-0.68034 1.60756,-1.45452 2.39969,-2.15817c1.54164,-1.36945 3.52,-2.47047 4.40286,-4.45338c0.9962,-2.23746 0.91442,-5.09316 2.04867,-7.26209c0.03353,-0.06411 0.06869,-0.12808 0.10456,-0.1921c1.77797,1.34608 4.00951,3.10727 5.90356,5.02575c-0.94209,0.59835 -1.90994,1.19904 -2.92847,1.76283c-2.88979,1.59959 -5.92367,2.58545 -8.62104,4.60848c0,0 -1.39346,1.05256 -0.97497,2.5653z" data-paper-data="{&quot;noHover&quot;:false,&quot;origItem&quot;:[&quot;Path&quot;,{&quot;applyMatrix&quot;:true,&quot;segments&quot;:[[[154.68497,190.52082],[0,0],[2.69737,-2.02302]],[[163.22176,185.95149],[-2.88979,1.59959],[1.01853,-0.56379]],[[166.1519,184.19895],[-0.94209,0.59835],[-1.89405,-1.91848]],[[160.28597,179.20898],[1.77797,1.34608],[-0.03587,0.06402]],[[160.18184,179.40116],[0.03353,-0.06411],[-1.13425,2.16893]],[[158.18497,186.58657],[0.9962,-2.23746],[-0.88286,1.98291]],[[153.7046,191.10248],[1.54164,-1.36945],[-0.79213,0.70366]],[[151.37713,193.1915],[0.77198,-0.68034],[0.77375,-0.05952]],[[153.70529,193.08219],[-0.77623,0.01146],[-0.41849,-1.51274]]],&quot;closed&quot;:true}]}" fill="#1cbc39"/><path d="M245.50365,149.06276c-0.10948,0.05796 -0.21641,0.10762 -0.32077,0.14967c-1.24183,1.09431 -2.11308,2.40713 -3.32933,3.65677c-0.35401,0.35401 -0.70802,0.70802 -1.06204,1.06204l-1.41635,-0.725c-0.00279,0.00369 -0.00557,0.00738 -0.00836,0.01106c-0.18826,0.69421 -0.63011,1.17288 -0.63011,1.17288l-0.09356,-0.2524c-1.01157,1.24255 -2.09079,2.41106 -3.12408,3.62793l0.19452,0.14589l-1.40555,1.87407c-0.23666,0.47332 -0.65254,0.94663 -1.38337,1.1485c-0.0897,0.03573 -0.18362,0.06699 -0.28146,0.09214c-0.28676,0.4533 -0.78197,0.85416 -1.62544,1.02285c-2.45145,0.49029 -2.94174,-1.96116 -2.94174,-1.96116c-0.73746,-3.68732 -0.57957,-7.36093 -0.57957,-11.11065c0,-6.33488 -0.26955,-11.25678 4.44936,-16.10525c3.45276,-3.45276 7.38435,-3.93883 12.08189,-3.07326c1.81584,0.33459 2.86933,1.77935 4.46133,2.31001c0.16725,0.05575 -0.33425,-0.42996 -0.17246,-0.5c1.64898,-0.71379 5.37543,0 7.16874,0c0.32084,0 0.64167,0 0.96251,0l0.4118,-1.0295c0.35452,-0.94948 1.26971,-1.62559 2.34282,-1.62559c1.25484,0 2.29374,0.92451 2.47274,2.12954l0.25875,1.55252c1.25793,0.87602 -0.43151,4.56703 -0.94132,5.58762c-1.77818,3.55972 -4.92468,6.20587 -8.56146,7.76493c-2.16069,0.92627 -4.02582,1.08819 -5.97934,2.28547c-0.20778,0.28681 -0.51219,0.55811 -0.94816,0.78892zM237.55477,139.32599c0,0 -1.5,-2 0.5,-3.5c2,-1.5 3.5,0.5 3.5,0.5c0.54743,0.72991 1.097,1.40174 1.63137,2.05986c0.96323,-0.23745 1.96621,-0.37699 3.00635,-0.40477c0.903,0 1.54588,-0.61177 2.36469,-1.30525c-1.07033,-0.07948 -2.1082,-0.24698 -3.06817,-0.56696c-0.50449,-0.16816 -0.62807,-0.92642 -1.11436,-1.1416c-1.92004,-0.84961 -4.39629,0.27554 -6.14743,-0.48247c-0.16179,-0.07004 0.33971,-0.55575 0.17246,-0.5c-0.9388,0.31293 -2.25868,1.76319 -2.91834,2.42286c-0.99688,0.95419 -2.7384,2.67927 -2.98489,4.07343c-0.34617,1.95799 -0.08254,4.26794 -0.01476,6.34128c1.56649,-2.51466 3.58415,-4.74591 5.98695,-6.33853c-0.30429,-0.37067 -0.6106,-0.75349 -0.91386,-1.15784zM237.86866,148.32227c-0.31291,0.31291 -0.62063,0.76515 -1.06204,0.79653c-0.23996,0.01706 0.01502,-0.91836 -0.11058,-0.71318c-0.1829,0.29877 -0.29276,0.62657 -0.3681,0.96855c0.5143,-0.28567 1.21962,-0.46064 2.03586,-0.0844c1.30921,-1.25749 2.4297,-2.51864 3.63632,-3.66345c-0.24747,-0.61286 -0.54064,-1.17021 -0.86692,-1.69538c-1.22743,1.17795 -2.10077,3.22757 -3.26454,4.39134z" fill="#409f51"/><path d="M241.16251,143.89042c0.32628,0.52517 0.63716,1.10602 0.88463,1.71888c-1.20662,1.14481 -2.38864,2.47082 -3.69785,3.72831c-0.81624,-0.37624 -1.54312,-0.21449 -2.05742,0.07118c0.07534,-0.34198 0.18051,-0.67544 0.36341,-0.97421c0.1256,-0.20518 -0.05407,0.66514 0.1859,0.64808c0.4414,-0.03137 0.74523,-0.48698 1.05814,-0.79989c1.16377,-1.16377 2.03577,-3.2144 3.2632,-4.39235z" data-paper-data="{&quot;noHover&quot;:false,&quot;origItem&quot;:[&quot;Path&quot;,{&quot;applyMatrix&quot;:true,&quot;segments&quot;:[[[237.86866,148.32227],[1.16377,-1.16377],[-0.31291,0.31291]],[[236.80663,149.1188],[0.4414,-0.03137],[-0.23996,0.01706]],[[236.69604,148.40562],[0.1256,-0.20518],[-0.1829,0.29877]],[[236.32794,149.37417],[0.07534,-0.34198],[0.5143,-0.28567]],[[238.36381,149.28977],[-0.81624,-0.37624],[1.30921,-1.25749]],[[242.00012,145.62631],[-1.20662,1.14481],[-0.24747,-0.61286]],[[241.1332,143.93093],[0.32628,0.52517],[-1.22743,1.17795]]],&quot;closed&quot;:true}]}" fill="#1cbc39"/><path d="M238.51859,140.48174c-2.4028,1.59261 -4.50933,3.85735 -6.07582,6.37202c-0.06778,-2.07334 -0.3425,-4.41418 0.00368,-6.37217c0.24649,-1.39416 1.99907,-3.15111 2.99595,-4.1053c0.65966,-0.65966 2.00333,-2.12621 2.94213,-2.43914c0.16725,-0.05575 -0.33661,0.43078 -0.17482,0.50082c1.75115,0.75801 4.27423,-0.3608 6.19427,0.48881c0.48629,0.21518 0.61865,0.98155 1.12313,1.14971c0.95996,0.31999 2.00518,0.49901 3.07551,0.57849c-0.81882,0.69348 -1.55323,1.34549 -2.45622,1.34549c-1.04014,0.02778 -2.03734,0.17751 -3.00058,0.41496c-0.53437,-0.65812 -1.05682,-1.3113 -1.60426,-2.04121c0,0 -1.46369,-2.00389 -3.46369,-0.50389c-2,1.5 -0.47626,3.47313 -0.47626,3.47313c0.30326,0.40435 0.61268,0.76761 0.91697,1.13828z" data-paper-data="{&quot;noHover&quot;:false,&quot;origItem&quot;:[&quot;Path&quot;,{&quot;applyMatrix&quot;:true,&quot;segments&quot;:[[[237.55477,139.32599],[0.30326,0.40435],[0,0]],[[238.05477,135.82599],[-2,1.5],[2,-1.5]],[[241.55477,136.32599],[0,0],[0.54743,0.72991]],[[243.18614,138.38585],[-0.53437,-0.65812],[0.96323,-0.23745]],[[246.19249,137.98108],[-1.04014,0.02778],[0.903,0]],[[248.55718,136.67583],[-0.81882,0.69348],[-1.07033,-0.07948]],[[245.48902,136.10886],[0.95996,0.31999],[-0.50449,-0.16816]],[[244.37466,134.96726],[0.48629,0.21518],[-1.92004,-0.84961]],[[238.22722,134.48479],[1.75115,0.75801],[-0.16179,-0.07004]],[[238.39968,133.98479],[0.16725,-0.05575],[-0.9388,0.31293]],[[235.48134,136.40765],[0.65966,-0.65966],[-0.99688,0.95419]],[[232.49645,140.48108],[0.24649,-1.39416],[-0.34617,1.95799]],[[232.48169,146.82235],[-0.06778,-2.07334],[1.56649,-2.51466]],[[238.46863,140.48383],[-2.4028,1.59261],[-0.30429,-0.37067]]],&quot;closed&quot;:true}]}" fill="#1cbc39"/><path d="M257.83358,164.88824c4.62162,2.77297 10.10381,3.58171 15.52943,3.80815c-0.01596,-0.00314 -0.03192,-0.0063 -0.04788,-0.00949c-4.00624,-1.45976 -6.54801,-4.63396 -10.92659,-5.52714c-0.49099,-0.10016 -3.74823,0.35782 -3.98263,0c-0.22012,-0.33601 1.03174,-1.17964 0.67246,-1c-0.75624,0.37812 -1.41169,1.30154 -1.98233,2.43675c0.43996,0.11318 0.73755,0.29173 0.73755,0.29173zM250.65014,166.91997c0.08582,-0.04291 0.17,-0.08088 0.25253,-0.11423c0.99346,-2.84333 2.38167,-6.74898 4.17569,-7.64599c1.83011,-0.91506 5.15387,-1.42712 7.31018,-1c2.4741,0.49007 5.73524,1.54034 7.92396,2.74585c0.93765,0.51644 3.93195,3.30654 3.98321,2.87839c2.73691,0.54738 6.21739,-0.64475 8.80252,0.21696c0.90802,0.30267 1.7332,0.81784 2.56204,1.29653c0.3832,0.22131 1.05059,0.35416 1.06204,0.79653c0.14922,5.76499 -1.98911,6.00302 -5.24844,9.26235c-3.93511,3.93511 -6.60259,6.38902 -12.4476,6.38902c-6.91317,0 -8.95863,-6.16696 -14.24669,-9.22852c-0.12149,-0.07034 0.08947,0.40271 -0.05007,0.41818c-0.44853,0.04971 -0.88503,-0.17701 -1.32754,-0.26551l-0.14255,-0.08824c-0.48454,0.21682 -1.10838,0.27962 -1.88185,-0.03858c-0.06074,-0.0241 -0.12031,-0.05051 -0.1786,-0.07913c-1.09299,-0.5196 -1.38636,-1.34087 -1.40784,-2.02918l-0.25901,-0.16033c0,0 -1.11803,-2.23607 1.11803,-3.3541zM263.3265,172.96622c0.55659,0.49078 2.12152,3.24696 2.20742,3.29669c0.81508,0.4719 2.59573,0.48247 3.49234,0.48247c0.88503,0 1.84289,-0.35158 2.65509,0c0.16179,0.07004 -0.33971,0.55575 -0.17246,0.5c1.00008,-0.33336 3.55546,-2.05759 4.32699,-2.74784c0.26154,-0.23399 0.52424,-0.47813 0.78741,-0.72957c-4.77439,-0.05878 -9.65843,-0.363 -14.24198,-1.61389c0.32261,0.26946 0.63786,0.54116 0.94518,0.81214zM281.06687,169.0053c-0.12824,0.00147 -0.25666,0.00326 -0.38523,0.00526c0.10035,0.04052 0.20559,0.08739 0.31253,0.14137c0.02456,-0.04839 0.04871,-0.09746 0.0727,-0.14663z" fill="#409f51"/><path d="M262.33424,172.13723c4.58355,1.25089 9.56424,1.56545 14.33863,1.62423c-0.26317,0.25144 -0.52547,0.50047 -0.78701,0.73446c-0.77153,0.69025 -3.34591,2.45535 -4.34599,2.78871c-0.16725,0.05575 0.33975,-0.43502 0.17796,-0.50505c-0.8122,-0.35158 -1.81788,0.01449 -2.70291,0.01449c-0.89661,0 -2.71245,-0.04097 -3.52753,-0.51286c-0.0859,-0.04973 -1.65243,-2.83774 -2.20902,-3.32852c-0.30732,-0.27098 -0.62151,-0.546 -0.94413,-0.81546z" data-paper-data="{&quot;noHover&quot;:false,&quot;origItem&quot;:[&quot;Path&quot;,{&quot;applyMatrix&quot;:true,&quot;segments&quot;:[[[263.3265,172.96622],[-0.30732,-0.27098],[0.55659,0.49078]],[[265.53391,176.26291],[-0.0859,-0.04973],[0.81508,0.4719]],[[269.02626,176.74538],[-0.89661,0],[0.88503,0]],[[271.68135,176.74538],[-0.8122,-0.35158],[0.16179,0.07004]],[[271.50889,177.24538],[-0.16725,0.05575],[1.00008,-0.33336]],[[275.83588,174.49753],[-0.77153,0.69025],[0.26154,-0.23399]],[[276.62329,173.76796],[-0.26317,0.25144],[-4.77439,-0.05878]],[[262.38131,172.15408],[4.58355,1.25089],[0.32261,0.26946]]],&quot;closed&quot;:true}]}" fill="#1cbc39"/><path d="M257.04628,164.59149c0.57064,-1.13521 1.23165,-2.07701 1.98789,-2.45513c0.35928,-0.17964 -0.80091,0.70307 -0.58079,1.03909c0.2344,0.35782 3.40501,-0.14694 3.896,-0.04679c4.37859,0.89318 7.00586,4.11723 11.0121,5.57698c0.01595,0.00319 0.03193,0.00631 0.0479,0.00945c-5.42562,-0.22644 -11.00405,-1.05744 -15.62567,-3.83041c0,0 -0.29747,-0.18001 -0.73743,-0.29319z" data-paper-data="{&quot;noHover&quot;:false,&quot;origItem&quot;:[&quot;Path&quot;,{&quot;applyMatrix&quot;:true,&quot;segments&quot;:[[[257.83358,164.88824],[0,0],[4.62162,2.77297]],[[273.36301,168.69639],[-5.42562,-0.22644],[-0.01596,-0.00314]],[[273.31513,168.68689],[0.01595,0.00319],[-4.00624,-1.45976]],[[262.38853,163.15975],[4.37859,0.89318],[-0.49099,-0.10016]],[[258.4059,163.15975],[0.2344,0.35782],[-0.22012,-0.33601]],[[259.07836,162.15975],[0.35928,-0.17964],[-0.75624,0.37812]],[[257.09603,164.5965],[0.57064,-1.13521],[0.43996,0.11318]]],&quot;closed&quot;:true}]}" fill="#1cbc39"/><path d="M177.6004,176.765c-1.76777,1.76777 -3.53553,0 -3.53553,0l-1.28478,0.02241c-0.60023,-0.24009 -1.09002,-0.77068 -1.72661,-0.88323l-0.30949,0c-0.47044,0.06122 -1.00305,0.32869 -1.28356,0h-1.59305c-1.38071,0 -2.5,-1.11929 -2.5,-2.5c0,-1.0731 0.67611,-1.98829 1.62559,-2.34282l2.60102,-1.04041l0.08687,0.21718c1.56752,-0.28057 2.5011,-0.15389 4.43871,0.16904c0,0 2.0827,0.34712 2.10107,2.31736l1.37977,0.50493c0,0 1.76777,1.76777 0,3.53553z" fill="#5cd572"/><path d="M189.39591,187.33742c-0.65779,2.41191 -3.0697,1.75412 -3.0697,1.75412l-0.93526,-1.50496c-1.25556,0 -2.51112,0 -3.76669,0c-0.26362,0.10545 -1.31086,0.52434 -2.20807,0.88323l-2.60245,1.04098c-0.30123,0.12865 -0.63286,0.19986 -0.98112,0.19986c-1.38071,0 -2.5,-1.11929 -2.5,-2.5c0,-0.57191 0.19204,-1.09897 0.51515,-1.5202l0.78137,-1.04183c-0.33684,-1.49959 2.6214,-1.73923 4.12407,-2.06204c0.10992,-0.02361 0.22164,-0.04463 0.33498,-0.06326l0.32799,-0.81997l1.73544,0.69418c1.43863,0.01841 2.94678,0.18905 4.23931,0.18905l2.25085,1.68114c0,0 2.41191,0.65779 1.75412,3.0697z" fill="#5cd572"/><path d="M204.33634,177.40517c-0.28387,2.48383 -2.7677,2.19997 -2.7677,2.19997l-1.8402,0.01617c-2.09046,0 -4.25043,0.14307 -6.33149,-0.04855c-3.59754,-0.33124 -6.43601,-2.07552 -10.13007,-2.07552c0,0 -2.5,0 -2.5,-2.5c0,-2.5 2.5,-2.5 2.5,-2.5c3.33218,0 5.75876,0.82968 8.89374,1.77186c2.3841,0.71651 5.10912,0.35221 7.56781,0.35221l2.40794,0.01617c0,0 2.48383,0.28387 2.19997,2.7677z" fill="#5cd572"/><path d="M253.20302,132.64065c-0.12484,2.49688 -2.62172,2.37204 -2.62172,2.37204l-0.93719,-0.5279c-0.98268,0 -4.02105,-0.50009 -4.55496,-0.35627c-1.12476,0.30299 -3.92092,1.6704 -4.82865,2.27912c-0.07868,0.05276 -0.14801,0.127 -0.21205,0.21205c-0.27438,0.36442 -0.45151,0.92734 -0.84999,0.84999l-1.06204,1.06204c-0.45241,0.45241 -1.07741,0.73223 -1.76777,0.73223c-1.38071,0 -2.5,-1.11929 -2.5,-2.5c0,-0.57191 0.19204,-1.09897 0.51515,-1.5202l1.24735,-1.66313c0.04045,-0.27772 0.2423,-0.50407 0.53425,-0.69732l1.0779,-1.34738c0.06242,-0.07821 0.12489,-0.15639 0.18738,-0.23456v-1.81658h2.17936c0.56486,-0.13395 1.25501,-0.06377 2.00388,0.52127c0.02,0.01546 0.03975,0.03123 0.05926,0.04728c0.03446,0.02808 0.0678,0.05628 0.10005,0.08458c0.26343,-0.12982 0.51451,-0.23414 0.74343,-0.29687c2.24734,-0.61584 4.81404,-0.35627 7.12744,-0.35627l1.18688,0.53414c0,0 2.49688,0.12484 2.37204,2.62172z" fill="#5cd572"/><path d="M277.85872,170.35317c-1.19713,2.19474 -3.39187,0.99761 -3.39187,0.99761l-1.36491,-0.72576c-3.13425,-2.35069 -7.00072,-3.65394 -10.4066,-5.69746c0,0 -2.14373,-1.28624 -0.85749,-3.42997c1.28624,-2.14373 3.42997,-0.85749 3.42997,-0.85749c3.56082,2.13649 7.52264,3.50132 10.83412,5.98493l0.75917,0.33628c0,0 2.19474,1.19713 0.99761,3.39187z" fill="#5cd572"/></g></g></svg>