<svg version="1.1" xmlns="http://www.w3.org/2000/svg" xmlns:xlink="http://www.w3.org/1999/xlink" width="67.73899" height="119.40953" viewBox="0,0,67.73899,119.40953"><g transform="translate(-198.80096,-66.07365)"><g data-paper-data="{&quot;isPaintingLayer&quot;:true}" fill="none" fill-rule="nonzero" stroke="none" stroke-width="0.5" stroke-linecap="butt" stroke-linejoin="miter" stroke-miterlimit="10" stroke-dasharray="" stroke-dashoffset="0" font-family="none" font-weight="none" font-size="none" text-anchor="none" style="mix-blend-mode: normal"><path d="M230.26375,93.47069c2.47748,-0.33479 2.81228,2.14269 2.81228,2.14269l-0.37193,1.12536c-0.96082,2.88246 -0.33379,5.04595 1.34526,7.73243c0,0 1.1367,1.81872 -0.38012,3.13992c0.31501,0.68756 0.57193,1.41214 0.76012,2.17751c0.48129,1.95743 0.32587,4.37176 0.08156,6.64561c2.44161,-1.82703 4.65873,-3.95605 6.46257,-6.44338c1.35949,-1.87461 2.6209,-3.57692 4.03012,-5.09505l-1.05949,-1.07366c0,0 0.8066,-0.86223 1.90371,-0.84728l-0.1339,-0.32664c0.91304,-0.33202 1.80028,-0.57704 2.67805,-0.75701c0.93409,-0.66371 1.96078,-1.27265 3.11731,-1.82503c3.66814,-1.69299 7.42112,-2.57279 11.48663,-1.81971c1.02662,0.19017 2.6965,-0.08131 2.99429,0.91941c0.51124,1.71805 0.6175,3.56337 0.51393,5.35288c-0.04012,0.69319 -0.50607,1.31444 -0.93157,1.86313c-4.29364,5.53681 -12.18491,4.30975 -18.33888,4.30975c-0.21693,0 -0.43387,0 -0.63715,0c-0.62246,0.84012 -1.23638,1.71899 -1.886,2.62102c-2.58906,3.59504 -6.06459,6.54161 -9.80086,8.93104l0.06807,0.12642l-1.98374,1.06817v1.09379l-1.85902,0c5.2413,2.99621 9.25826,10.46616 9.23141,16.95447c3.6095,-2.78509 8.56306,-4.38878 12.62389,-5.95119c2.1871,-0.84119 6.39086,-3.47976 8.74923,-2.16285c1.48159,0.82732 4.00543,2.05648 3.5162,3.68135c-0.46513,1.54485 -1.35832,2.94994 -2.3071,4.25483c-1.82984,2.51665 -6.09394,2.31366 -8.66165,2.65322c-2.83856,0.37539 -5.88173,1.78053 -8.62887,2.56543l-2.20698,-1.23159c-0.28938,0.15437 -0.51027,0.28922 -0.59469,0.38018c-2.49954,2.69353 -2.92783,6.39044 -3.66732,9.90726c0.85089,0.88489 1.67663,1.82692 2.27609,2.85722c2.59445,4.45912 1.0027,9.99593 1.44731,14.81612c0.30635,3.32128 1.09866,6.35562 1.09866,9.72667c0,0 0,2.5 -2.5,2.5c-2.5,0 -2.5,-2.5 -2.5,-2.5c0,-3.11473 -0.75401,-5.82792 -1.03063,-8.90468c-0.37855,-4.21046 0.9592,-9.27903 -0.8684,-13.25726c-0.53983,0.42919 -1.35388,0.7226 -2.47188,0.22571c-0.28152,-0.12512 -0.51293,-0.26951 -0.70231,-0.42653c-0.05195,0.12224 -0.10621,0.24342 -0.16288,0.36343c-0.19037,0.40313 -0.88721,0.08872 -1.33081,0.13308c-1.95164,0.19516 -3.87492,0.41165 -5.83816,0.41165c-3.02408,0 -8.46132,0.2312 -10.69987,-2.26015c-3.06438,-3.41044 -3.51656,-4.85691 0.35937,-7.78667c0.82232,-0.62158 4.06027,-0.27643 5.01726,-0.27643c0.37531,0 0.7699,-0.00258 1.18029,-0.0057c0.32026,-0.06965 0.61505,-0.06234 0.88141,-0.0066c3.58227,-0.02371 8.08864,0.01512 11.51127,1.2979c0.15849,-0.78983 0.31199,-1.58326 0.48604,-2.36881c-0.45835,-0.05548 -0.95619,-0.27292 -1.45403,-0.77076c-1.05315,-1.05315 -0.85147,-2.10631 -0.5163,-2.78567c0.12552,-0.28122 0.30145,-0.535 0.5163,-0.74986l1.86313,-1.86313c0.07998,-0.25187 -0.59118,0.52734 -0.73223,0.30388c-0.95365,-1.51079 0.41321,-5.28062 0,-7.0533c-0.26419,-1.13339 -1.73642,-2.55126 -2.42778,-3.55708c-1.00994,-1.46929 -1.79282,-3.32825 -3.00791,-4.63801c-0.39304,-0.42367 -1.35365,-1.35029 -1.7394,-0.62707c-5.33368,-0.48488 -10.80474,-1.03955 -16.10281,-1.73005c-1.66921,-0.21755 -5.18466,-0.42669 -6.37841,-1.80218c-0.29507,-0.33999 -0.63,-0.81942 -0.94901,-1.3815l-0.16494,0c0,0 -3.52354,-2.20907 -1.90724,-4.1163c0.34723,-0.40973 0.63329,-0.6842 0.86844,-0.86262c0.17448,-0.84944 0.65206,-1.57955 1.58042,-2.04002c3.13344,-1.55418 4.86145,-1.38668 7.89835,-0.49216c2.54615,0.92587 5.18477,2.42649 7.90328,3.34412c0.46363,0.04945 1.29197,0.13794 2.1195,0.22709c1.24014,0.1336 2.47845,0.26869 2.48471,0.27608l2.45473,0.27275c0.30577,0.02988 0.59538,0.11484 0.8588,0.24483c0.19523,-0.20793 0.42563,-0.38244 0.6817,-0.51405c0.00516,-0.00279 0.01032,-0.00557 0.01548,-0.00836c-0.05985,-0.38944 -0.03108,-0.67709 -0.03108,-0.67709c0.27905,-2.79048 0.96323,-6.60527 0.25376,-9.33308c-0.6926,-2.6629 -4.84769,-5.13756 -7.07602,-6.53027l-1.06465,-0.66541c0,0 -2.00956,-3.29503 0.24524,-4.37479c2.2548,-1.07976 2.40476,0.1348 2.40476,0.1348l1.06465,0.66541c0.77761,0.48601 1.55571,0.99679 2.31442,1.53938c-0.18465,-1.71478 0.00654,-3.49093 0.64293,-5.40011l0.16039,1.12536c0,0 -0.33479,-2.47748 2.14269,-2.81228zM221.82737,156.19342c1.33997,0.35043 2.38965,0.35382 3.7391,0.34185c-0.59235,-0.14135 -1.13986,-0.26819 -1.56191,-0.33384c-0.30673,0.00207 -0.59449,0.00391 -0.85856,0.00391c-0.43947,0 -0.87905,-0.00615 -1.31863,-0.01193z" fill="#427c4b"/><path d="M217.5566,104.03757c-1.19396,0.01322 -4.5642,-0.37239 -5.11047,-1.59474c-0.14028,-0.31389 -0.24604,-0.63883 -0.32967,-0.97086c-1.5145,0.28354 -3.94644,0.18693 -4.39046,-0.10842c-3.17688,-2.11319 -3.88974,-3.75329 -3.97393,-7.33717c-0.00016,-0.00677 -0.00037,-0.0136 -0.00063,-0.02047c-0.26842,-0.0736 -0.58839,-0.52052 -0.82794,-0.72865c-1.37569,-1.19523 -4.76807,-4.67573 -4.0147,-6.78544c0.41143,-1.15214 1.15547,-2.16405 1.91081,-3.13499c-0.09963,0.02125 -0.20122,0.01488 -0.30573,-0.02995c-0.67095,-0.28781 -1.0772,-5.23731 -0.62851,-5.74388c1.00915,-1.13935 2.4917,-1.74854 3.73755,-2.62281c0.10694,-0.00972 0.21394,-0.01892 0.32098,-0.02761c-0.46972,-2.54045 -0.59361,-6.35056 1.76471,-7.1006c1.84293,-0.58612 3.86969,-0.23967 5.80028,-0.12687c0.97364,0.05689 2.27709,-1.57499 3.23663,-1.62317c1.15004,-0.05774 2.3,0.19787 3.42718,0.43319c1.16834,0.24391 1.7393,0.94855 2.2692,1.85434c1.59037,-0.77454 4.16945,-1.3398 4.81599,-1.392c3.37354,0.33735 6.67636,3.48534 7.76625,6.68424c0.43063,1.26391 1.407,2.90002 0.59645,3.96112c-0.10565,0.13831 -0.21756,0.27064 -0.33467,0.39803c0.40054,0.21981 0.71388,0.39607 0.78909,0.43762c2.54164,1.40411 5.55478,5.90274 2.9413,8.78038c-0.50108,0.55173 -1.10429,0.99796 -1.73765,1.40336c0.02176,0.15008 0.03436,0.32337 0.03651,0.52193c0.02767,2.54551 -0.96013,6.41338 -3.48121,7.75332c-0.44035,0.23404 -0.90685,0.41243 -1.38182,0.5699c-0.57995,0.75357 -1.309,1.38584 -2.04092,2.01576l-0.49808,1.49423l-0.87567,-0.29189c-0.07688,0.00641 -0.15375,0.01281 -0.23063,0.01922l-0.94996,0.83122l-0.09048,-0.10341c-2.40055,1.67563 -4.82559,2.54764 -8.20983,2.5851z" fill="#edf166"/><path d="M221.49973,104.88675c-0.60639,0.26951 -1.12336,0.30652 -1.55566,0.21548c-1.08861,0.00193 -3.26559,0.39687 -4.23321,-0.1455c-1.29055,-0.72338 -2.58841,-1.52456 -3.58205,-2.62067c-0.09643,-0.10638 -0.17677,-0.27972 -0.22634,-0.4667c-1.07983,-0.16143 -1.69376,-0.33882 -2.98871,-1.12719c-1.13085,-0.68846 -2.2999,-1.35716 -3.26019,-2.26855c-0.34655,-0.3289 -0.5101,-0.85355 -0.53232,-1.33081c-0.00751,-0.16127 0.56045,-0.00992 0.46387,-0.13929c-0.25036,-0.33534 -0.70977,-0.4436 -1.06465,-0.66541c-1.07166,-1.24514 -3.45465,-3.09396 -2.36537,-4.32371c0.30772,-0.34741 1.04085,0.71396 1.34421,0.36273c0.28558,-0.33064 -0.8393,-0.28251 -1.19773,-0.53232c-0.90881,-0.63341 -1.85086,-1.26186 -2.57695,-2.09848c-1.06984,-1.23272 -0.68068,-3.2714 -0.40392,-4.87999c0.07522,-0.43718 0.35501,-1.07531 0.79849,-1.06465c0.29352,0.00706 0.37179,0.85712 0.38668,1.09601c-0.00003,-0.00094 -0.00007,-0.0019 -0.0001,-0.00286c-0.05055,-1.47959 -0.77277,-2.89576 -0.75829,-4.37615c0.03059,-3.12757 3.57804,-6.69627 4.5019,-9.7758c0,0 0.71837,-2.39457 3.11294,-1.6762c2.39457,0.71837 1.6762,3.11294 1.6762,3.11294c-0.59605,1.98683 -1.24679,3.76616 -2.33847,5.55282c-0.73208,1.19813 -2.26083,2.80751 -2.20914,4.36738c0.01877,0.56656 0.93537,0.92086 0.83869,1.47942c-0.26916,1.55502 -1.96721,2.7095 -2.00888,4.28709c-0.01048,0.39678 0.42174,-1.02579 0.79381,-0.88756c0.13168,0.04892 0.19502,0.15624 0.22699,0.29246c1.89552,-0.91905 2.67632,3.7491 2.86272,5.22184c-0.00983,-0.10886 -0.02113,-0.2399 -0.03377,-0.39495c1.71538,1.07211 1.83048,3.57087 3.12549,4.51855c0.22515,0.16476 0.45829,-0.45824 0.73224,-0.40541c0.72101,0.13904 1.29985,0.69862 1.99622,0.93157c0.58598,0.19602 1.43817,-0.41377 1.85317,0.04403c0.7377,0.81378 1.2956,1.77964 1.77651,2.77792c0.85886,-0.17814 2.41733,0.13746 3.29797,0.13746l2.81685,1.48465c0,0 1.01535,2.28453 -1.26918,3.29988zM204.40191,88.00286c0.01765,0.11574 0.04979,0.22208 0.11185,0.30672c0.09755,0.13304 -0.00699,-0.05479 -0.11185,-0.30672z" fill="#bcc051"/><path d="M223.34648,92.6505c-2.29174,0.99896 -3.2907,-1.29278 -3.2907,-1.29278l0.10645,-1.83948c-0.39152,-1.9576 -0.61351,-2.3568 0.15136,-4.91968c0.03869,-0.12963 0.11036,-0.29499 0.20076,-0.45338c-1.54703,-0.65512 -3.02415,-0.96376 -4.45935,-2.39897c0,0 -1.76777,-1.76777 0,-3.53553c1.76777,-1.76777 3.53553,0 3.53553,0c0.62104,0.62104 1.08452,1.45675 1.86313,1.86313c0.12438,0.06492 -0.08614,-0.40227 0.05333,-0.41752c0.44971,-0.04918 0.94756,0.0258 1.33081,0.26616c1.23552,0.77488 3.20765,1.62584 3.10668,3.08075c-0.10054,1.44874 -0.61441,2.85399 -1.16344,4.19845c0.00591,0.00147 0.01188,0.0032 0.01792,0.00521c0.42936,0.14249 0.17744,0.88721 0.26616,1.33081l-0.42587,0.82214c0,0 0.99896,2.29174 -1.29278,3.2907zM224.34731,87.61797c-0.36559,0.24655 -0.7772,0.45017 -0.49818,0.51612c0.22584,0.05338 0.36055,-0.24264 0.49818,-0.51612zM221.8794,84.85931c0.01049,-0.00364 0.00999,-0.01056 -0.00472,-0.02211c0.0016,0.00736 0.00317,0.01473 0.00472,0.02211z" fill="#bcc051"/><path d="M236.78779,83.56723c-1.19333,2.19681 -3.39014,1.00348 -3.39014,1.00348l-1.31238,-1.99277c-1.58984,-2.04408 -3.27497,-2.57062 -5.13873,-4.59881c-0.48364,-0.52631 -0.32546,-1.4169 -0.69563,-2.02836c-0.2942,-0.48597 -1.08807,-0.7632 -1.06465,-1.33081c0.01658,-0.40175 1.37026,-0.07795 1.13628,-0.40496c-0.25942,-0.36257 -0.88721,0.08874 -1.33081,0.13308c-1.77319,0.17725 -3.65973,0.48818 -5.43583,0.23284c-0.65438,-0.09407 -3.92372,-1.21783 -4.14498,-1.86585c-0.10108,-0.29604 1.11343,-0.41647 0.80695,-0.47909c-0.82464,-0.1685 -1.59697,0.53232 -2.39546,0.79849c0,0 -2.37171,0.79057 -3.16228,-1.58114c-0.79057,-2.37171 1.58114,-3.16228 1.58114,-3.16228c0.79849,-0.26616 1.5582,-0.88458 2.39546,-0.79849c2.61411,0.26882 4.334,2.10241 6.77613,2.44598c0.90825,0.12777 3.3136,-1.20628 4.41217,-0.69873c1.48307,0.68519 3.40499,2.03683 4.33023,3.58748c0.61373,1.02857 0.58228,2.4524 1.43367,3.29488c0.13699,0.13556 0.15026,-0.50253 0.33983,-0.46778c0.54672,0.10024 1.03775,0.44162 1.46389,0.79849c0.90553,0.75832 1.8797,2.07861 2.63939,3.05535l-0.24773,0.66885c0,0 2.19681,1.19333 1.00348,3.39014z" fill="#fbfdc7"/><path d="M220.74339,98.68773c-1.67491,1.85598 -3.50224,0.20653 -3.50224,0.20653l-1.06465,-0.93157c-2.964,-2.97726 -7.63367,-3.47357 -10.1354,-7.19293c-0.60239,-0.89559 -0.35488,-2.1293 -0.53232,-3.19395c0,0 -0.411,-2.46598 2.05499,-2.87698c2.46598,-0.411 2.87698,2.05499 2.87698,2.05499c0.17744,1.06465 -0.04272,2.28055 0.53232,3.19395c0.16807,0.26696 -0.16308,-0.90547 0.15107,-0.93425c1.03034,-0.09439 1.77441,1.06465 2.66162,1.59697c1.9606,1.17636 3.91077,2.1317 5.68326,3.58932l1.06465,0.93157c0,0 1.88463,1.70037 0.20972,3.55635z" fill="#fbfdc7"/><path d="M211.19091,83.27509c0.0066,-0.05144 0.01759,-0.10462 0.03322,-0.15958c-0.02003,0.041 -0.03167,0.0648 -0.03167,0.0648l0.39924,-1.19773c0.92365,-0.96905 1.66726,-2.14949 2.77095,-2.90716c1.03602,-0.71121 2.551,-0.45041 4.03218,0.19556c0.04354,0.00124 0.08722,0.00269 0.13104,0.00435c0.2783,0.01053 0.58071,0.2012 0.88282,0.49725c1.44658,0.79708 2.73927,1.84678 3.35637,2.55204c0.51671,0.90364 1.17737,1.739 1.55013,2.71091c1.21164,3.15916 -1.88595,6.36696 -4.36313,7.55708c-2.05537,0.98747 -4.52462,-0.0873 -6.46206,-1.58604c-0.71082,-0.24611 -1.40748,-0.53019 -2.04583,-0.91978c-2.56058,-1.56274 -2.00224,-4.60096 -0.25326,-6.8117zM216.67452,86.3078c0.00766,0.00828 0.01535,0.01643 0.02308,0.02444c0.00494,0.00055 0.00988,0.00109 0.01482,0.00161c-0.01253,-0.00852 -0.02518,-0.01721 -0.0379,-0.02605z" fill="#545543"/><path d="M217.32863,83.9116c3.08307,0.71627 7.47137,2.6712 5.51027,5.89743c-0.79085,1.30103 -1.65676,2.62235 -2.84701,3.57178c-0.81457,0.64976 -2.07921,-0.15525 -3.11244,-0.28991c-4.40342,-0.5739 -6.91588,-2.3346 -7.63931,-7.12322c-0.08303,-0.5496 0.38084,-1.09712 0.79849,-1.46389c1.87008,-1.64229 3.1958,-3.57007 5.31147,-2.08392c0.67137,0.4716 1.35835,0.94931 1.97853,1.49173z" fill="#404033"/><path d="M208.0868,115.19619c1.50697,0.43056 1.79928,1.53594 1.80764,2.30081l0.26771,-2.33298c3.23277,0.74602 5.51734,3.00826 8.3883,4.25932c1.78655,0.09896 3.59275,0.17048 5.39306,0.42146l0.01864,-0.08078l2.55104,0.5887c1.13455,0.2367 1.98682,1.24246 1.98682,2.44728c0,1.38071 -1.11929,2.5 -2.5,2.5l-1.7,0c-0.20491,0.25527 -3.42563,-0.20866 -3.53041,-0.22193c-0.77623,-0.09834 -1.51276,-0.28553 -2.22131,-0.53274c-0.45351,-0.00786 -0.89856,-0.02826 -1.32842,-0.0744c-3.35887,-0.36057 -6.34752,-0.79579 -9.26357,-2.11653l-0.09848,0.15475l-2.1645,-1.37741c-0.26955,-0.16558 -0.50529,-0.38084 -0.69447,-0.63304c-0.46932,-0.57913 -0.89682,-1.5433 -0.14884,-2.77522c0.0239,-0.04016 0.04889,-0.0796 0.07493,-0.11827c0.11808,-0.17877 0.2418,-0.33164 0.36926,-0.46177l-0.29801,-0.23026c0,0 0.6868,-2.40381 3.09061,-1.71701z" fill="#61b76e"/><path d="M235.42957,112.37816c3.68221,-2.67797 5.60442,-5.96819 8.7,-9.2c2.19136,-2.2878 5.40662,-2.87801 8.34661,-3.42267c2.08247,-0.38579 4.16396,-1.02642 6.30397,-1.02642c0.43843,0 1.07471,-0.17612 1.3,0.2l1.26163,0.1941c1.21902,0.16665 2.15823,1.21206 2.15823,2.47683c0,1.08491 -0.69107,2.00841 -1.65702,2.35431l-1.5021,0.57773c-3.82142,1.51357 -6.37246,4.46608 -10.88307,4.17711c-0.96864,-0.06206 -1.51473,-0.90432 -1.82052,-1.98534c-1.10549,1.06774 -1.85408,2.59397 -2.8024,3.75928c-1.9328,2.37508 -3.99482,4.14264 -6.46446,5.93875c-1.1,0.8 -2.2,1.6 -3.3,2.4l-1.42645,1.21898c0,0 -1.67599,1.18584 -3.06497,-0.11056c-1.44016,-0.55449 -1.47838,-2.27472 -1.47838,-2.27472l-0.20062,-1.65554c0,-5.5514 -0.62224,-11.00689 -0.19264,-16.59174c0,0 0.19174,-2.49264 2.68438,-2.30089c2.49264,0.19174 2.30089,2.68438 2.30089,2.68438c-0.35559,4.6227 0.04014,9.15079 0.1694,13.72645c0.52251,-0.38001 1.04502,-0.76002 1.56754,-1.14003z" fill="#61b76e"/><path d="M243.35334,184.89529c-2.49529,0.15334 -2.64863,-2.34195 -2.64863,-2.34195l-0.00471,-0.55334c0,-3.31935 -0.6,-6.52919 -0.6,-9.8c0,-4.46698 -1.56209,-7.6799 -2.39264,-12.00826c-0.12357,-0.64399 -0.22039,-1.32376 -0.29115,-2.02801c-0.20473,0.07068 -0.42152,0.11552 -0.64645,0.1306l-2.57802,0.19831l-0.00405,-0.05268c-2.94446,0.03429 -5.99107,-0.41286 -8.77798,-1.2885c-0.69076,-0.21704 -1.62433,-0.38822 -2.4003,-0.68053c0.27428,0.46865 0.46575,0.82596 0.46575,0.82596l-2,-0.1c-1.52871,-0.26276 -4.21447,0.15877 -4.44559,-1.37504l-1.07429,-0.7813c-0.63856,-0.45293 -1.05528,-1.19807 -1.05528,-2.04054c0,-1.32366 1.0287,-2.40705 2.33024,-2.49433l2.57802,-0.19831l0.00165,0.0214c0.32267,-0.01586 0.64912,-0.02928 0.97864,-0.04017c0.43516,-0.36725 0.99746,-0.58859 1.61146,-0.58859h2.6l0,0.02781c2.79717,0.11088 5.40754,0.55527 8.05401,1.42416c1.73566,0.19925 3.9592,0.29327 4.12768,1.79818l0.14974,0.13613c0.09809,-1.65608 0.31349,-3.30542 0.63903,-4.82946l-0.14216,-0.04739l0.45329,-1.35987l-0.67871,-1.2443l1.85788,-1.01339c0.03443,-0.02956 0.07007,-0.05849 0.10694,-0.08661c-1.15216,-0.27846 -2.29941,-0.80919 -3.46032,-1.69701c-0.21224,-0.16231 0.18033,-3.83075 0.08883,-4.32146c-0.54014,-2.89654 -2.3552,-4.88644 -3.5679,-7.49623c-0.76964,-1.65632 -1.228,-3.52986 -1.93598,-5.22903c0,0 -0.96154,-2.30769 1.34615,-3.26923c2.30769,-0.96154 3.26923,1.34615 3.26923,1.34615c0.75584,1.81402 1.24364,3.80185 2.06402,5.57097c1.0297,2.22052 2.49608,3.88919 3.2321,6.30377c0.38018,1.24721 0.61508,2.53998 0.67411,3.84593c1.28249,-0.34285 3.13209,-0.38016 4.54771,-0.57443c-0.08151,-0.24679 -0.12563,-0.51059 -0.12563,-0.78469c0,-1.10611 0.71835,-2.04445 1.71397,-2.37393l2.74519,-0.98042l0.00963,0.02695c2.22423,-0.69946 4.361,-1.13949 6.75514,-1.35731c0.01458,-0.00133 0.02927,-0.00297 0.04406,-0.0049c0.59508,-0.07764 1.3538,-0.62553 1.75594,-0.1951l1.7639,-0.19599c0.10227,-0.01274 0.20646,-0.0193 0.31218,-0.0193c1.38071,0 2.5,1.11929 2.5,2.5c0,0.42207 -0.10459,0.81971 -0.28927,1.16841c1.25358,0.46492 2.94302,1.3926 2.2605,2.87635c-1.04476,2.27123 -1.0741,1.14997 -1.0741,1.14997l-1.1,0.6c-3.53825,1.66552 -7.3461,2.01822 -11.13678,0.94165c-0.06219,-0.01766 -0.12587,-0.03393 -0.19065,-0.04922c-1.17475,0.53363 -2.3781,0.99576 -3.62555,1.32841c-1.89893,0.48707 -3.6899,0.96904 -5.43333,1.10441c0.63533,0.52495 0.78721,1.23027 0.78738,1.78423c0.0012,0.03178 0.0018,0.06371 0.0018,0.09578c0,0.2956 -0.0513,0.57922 -0.14549,0.84243c-2.80345,8.49743 1.74549,16.3036 1.74549,24.75757c0,3.24398 0.6,6.49263 0.6,9.8l-0.00471,0.24666c0,0 0.15334,2.49529 -2.34195,2.64863z" fill="#61b76e"/></g></g></svg>