<svg version="1.1" xmlns="http://www.w3.org/2000/svg" xmlns:xlink="http://www.w3.org/1999/xlink" width="53.23427" height="58.66667" viewBox="0,0,53.23427,58.66667"><g transform="translate(-212.39713,-145.08332)"><g data-paper-data="{&quot;isPaintingLayer&quot;:true}" fill="none" fill-rule="nonzero" stroke="none" stroke-width="none" stroke-linecap="none" stroke-linejoin="miter" stroke-miterlimit="10" stroke-dasharray="" stroke-dashoffset="0" font-family="none" font-weight="none" font-size="none" text-anchor="none" style="mix-blend-mode: normal"><path d="M264.75,180.75c0,12.56448 -11.19288,22.75 -25,22.75c-13.80712,0 -25,-10.18552 -25,-22.75c0,-12.56448 11.19288,-22.75 25,-22.75c13.80712,0 25,10.18552 25,22.75z" data-paper-data="{&quot;origPos&quot;:null}" fill="#e1ffff" stroke="#0096ff" stroke-width="0.5" stroke-linecap="butt"/><path d="M226.75,163.75l4,-0.75l-7.25,5.75l-3.5,6.25" fill="none" stroke="#0096ff" stroke-width="0.5" stroke-linecap="round"/><path d="M230.75,163l-0.25,3.5" fill="none" stroke="#0096ff" stroke-width="0.5" stroke-linecap="round"/><path d="M255,196.5l-4.75,1.25l0.5,-5.5" fill="none" stroke="#0096ff" stroke-width="0.5" stroke-linecap="round"/><path d="M261.25,183.5l-4.25,8.25l-6,6" fill="none" stroke="#0096ff" stroke-width="0.5" stroke-linecap="round"/><text transform="translate(221.5,184.00956) scale(0.14706,0.26082)" font-size="40" xml:space="preserve" data-paper-data="{&quot;origPos&quot;:null}" fill="#4d9797" fill-rule="nonzero" stroke="none" stroke-width="1" stroke-linecap="butt" stroke-linejoin="miter" stroke-miterlimit="10" stroke-dasharray="" stroke-dashoffset="0" font-family="Pixel" font-weight="normal" text-anchor="start" style="mix-blend-mode: normal"><tspan x="0" dy="0">Regenerate</tspan></text><path d="M222.28275,154.92606c-0.92607,-2.05058 1.12451,-2.97665 1.12451,-2.97665l2.59274,-0.19942c3.73292,0 5.03794,-0.19036 6.65421,-3.4229c0,0 1.00623,-2.01246 3.01869,-1.00623c2.01246,1.00623 1.00623,3.01869 1.00623,3.01869c-2.33541,4.67081 -5.59383,5.91044 -10.67913,5.91044l-0.7406,-0.19942c0,0 -2.05058,0.92607 -2.97665,-1.12451z" data-paper-data="{&quot;origPos&quot;:null}" fill="#417f45" stroke="none" stroke-width="0.5" stroke-linecap="butt"/><path d="M225.87561,151.6011c0.38662,1.58517 -1.19854,1.97179 -1.19854,1.97179l-0.42183,0.22541c-2.1943,0.62694 -3.93008,2.05743 -6.24961,2.48001c-1.20566,0.21965 -2.60766,-0.10009 -3.80774,-0.25175c-0.20953,-0.02324 -0.4071,-0.08616 -0.58501,-0.18108c-0.43983,-0.21266 -0.95995,-0.66569 -0.85629,-1.60762c0.00284,-0.0279 0.00638,-0.0556 0.0106,-0.08306c0.13495,-0.92775 0.74611,-1.23681 1.2224,-1.33455c0.12502,-0.03067 0.2557,-0.04695 0.39018,-0.04695h1.93379v0.22902l0.20238,0.02529l-0.00315,0.02516c0.51377,0.04787 1.02354,0.05455 1.49283,-0.03775c1.87666,-0.3691 3.47113,-1.81675 5.35313,-2.35446l0.54507,-0.25804c0,0 1.58517,-0.38662 1.97179,1.19854z" data-paper-data="{&quot;origPos&quot;:null}" fill="#417f45" stroke="none" stroke-width="0.5" stroke-linecap="butt"/><path d="M254.58466,153.29028c-1.83175,1.67298 -4.37601,0.76465 -4.83047,0.58253l0.90458,0.37718c-4.14001,0 -7.18189,0.24251 -11.0555,-1.36368c-2.13352,-0.88467 -1.84869,-4.11144 -1.84869,-5.55299c0,0 0,-2.25 3.51932,-2.25c3.51932,0 3.51932,2.25 3.51932,2.25c0,0.77778 -0.26118,1.57369 0,2.33333c0.0264,0.07681 0.08446,0.16814 0.16276,0.2673c0.6186,-0.58702 4.62205,-0.18397 5.70278,-0.18397l3.06097,0.40673c0,0 2.88314,1.29029 0.86494,3.13356z" data-paper-data="{&quot;origPos&quot;:null}" fill="#417f45" stroke="none" stroke-width="0.5" stroke-linecap="butt"/><path d="M251.4286,153.56485c-0.23152,-2.23806 2.00653,-2.46958 2.00653,-2.46958l0.23152,0.32139c2.88979,0 5.07556,0.37238 7.33333,-0.46544v-0.86789h2.14766c0.64449,-0.08528 1.49325,0.05305 2.10553,1.07608c0.02546,0.04155 0.04961,0.08399 0.07239,0.12726c0.61326,1.1361 0.18733,1.98199 -0.25867,2.48105c-0.18152,0.21913 -0.40378,0.40328 -0.65519,0.54082l-2.29541,1.31166l-0.15701,-0.27478c-2.64372,0.77392 -5.33499,0.57123 -8.29263,0.57123l0.23152,-0.34528c0,0 -2.23806,0.23152 -2.46958,-2.00653z" data-paper-data="{&quot;origPos&quot;:null}" fill="#417f45" stroke="none" stroke-width="0.5" stroke-linecap="butt"/><path d="M263.88163,162.39552c-0.39553,2.21496 -2.27867,1.85357 -2.27867,1.85357l-1.26974,-0.03596c-2.25403,-0.08216 -4.39585,-0.35101 -6.49073,-0.95673l-0.06215,0.14501l-2.28567,-0.97957c-0.26936,-0.10826 -0.51293,-0.26713 -0.71896,-0.46482c-0.4987,-0.44332 -1.01766,-1.23171 -0.54564,-2.42465c0.02122,-0.05568 0.04458,-0.1103 0.06999,-0.16376c0.53003,-1.15277 1.44157,-1.33332 2.10541,-1.28528h2.2612v0.73021c1.86388,0.61365 3.7145,0.86701 5.79397,0.90139l1.26974,0.03596c0,0 2.54679,0.42966 2.15126,2.64463z" data-paper-data="{&quot;origPos&quot;:null}" fill="#417f45" stroke="none" stroke-width="0.5" stroke-linecap="butt"/><path d="M212.48,163.53009c-0.5301,-2.18666 1.65656,-2.71676 1.65656,-2.71676l0.86343,-0.06334c3.09434,0 5.50908,-0.56118 8.16218,-1.72399l0.02871,-1.0137l2.37752,0.06734c0.6512,-0.05926 1.50993,0.1111 2.0754,1.17884c0.02628,0.04823 0.05084,0.09753 0.07361,0.14782c0.54411,1.16515 0.07195,1.98392 -0.40035,2.45631c-0.1939,0.20915 -0.42706,0.38139 -0.68777,0.50498l-3.28974,1.64487l-0.09021,-0.18042c-2.61669,0.94589 -5.22067,1.41796 -8.24935,1.41796l0.19677,-0.06334c0,0 -2.18666,0.5301 -2.71676,-1.65656z" data-paper-data="{&quot;origPos&quot;:null}" fill="#417f45" stroke="none" stroke-width="0.5" stroke-linecap="butt"/></g></g></svg>