<svg version="1.1" xmlns="http://www.w3.org/2000/svg" xmlns:xlink="http://www.w3.org/1999/xlink" width="115.78975" height="95.2011" viewBox="0,0,115.78975,95.2011"><g transform="translate(-191.04919,-126.33754)"><g data-paper-data="{&quot;isPaintingLayer&quot;:true}" fill="#8283d1" fill-rule="nonzero" stroke="none" stroke-width="0.5" stroke-linecap="butt" stroke-linejoin="miter" stroke-miterlimit="10" stroke-dasharray="" stroke-dashoffset="0" font-family="none" font-weight="none" font-size="none" text-anchor="none" style="mix-blend-mode: normal"><path d="M192.89045,182.35813c-0.34014,-0.25915 -0.64305,-0.65759 -0.84391,-1.26015c-0.79057,-2.37171 1.58114,-3.16228 1.58114,-3.16228c4.96459,-1.65486 10.0966,-1.82022 14.93978,-3.90879c1.10011,-0.47441 3.34573,-1.27933 4.21221,-2.23545c0.11557,-0.12752 -0.50717,0.05978 -0.50393,-0.11229c0.00896,-0.47652 0.43576,-0.86056 0.53102,-1.32754c0.24619,-1.20686 -0.61068,-3.08609 -0.17881,-4.3817c0.30267,-0.90802 0.86435,-1.70802 1.29653,-2.56204c4.43615,-5.91487 14.33743,-8.01474 20.55431,-3.63828c1.51672,1.06771 4.5124,4.05431 5.87251,3.70031c0.18763,-0.04883 4.99537,-0.24942 2.77916,-0.59305c1.25769,-1.67691 2.52182,-4.22107 3.30788,-6.15845c0.48312,-1.19074 0.17475,-3.28078 0.17475,-4.55496c0,-6.60685 -3.48219,-12.73615 -2.34103,-19.34142c0.62318,-3.11592 4.62972,-6.69524 8.06787,-6.47481c5.20733,0.33386 11.99721,3.59721 15.00248,8.11793c3.01559,4.53624 0.3834,9.80451 2.6775,14.38024c1.19746,2.99366 6.87444,3.62998 9.91816,3.74493c2.58523,0.09763 5.34996,0.51875 7.93932,0.25923c4.31964,-0.43292 8.84535,-0.71455 11.0273,4.18611c0.73582,1.65266 0.96637,3.56863 1.26251,5.33715c0.49978,2.99869 -0.15634,6.38756 -1.42182,9.16683c-0.76589,1.68207 -2.4946,3.51926 -2.70561,5.44809c-0.01647,0.15054 0.97849,0.91076 1.40334,1.1336c1.71685,0.90053 4.3463,3.03977 5.74073,4.4342c2.72103,2.72103 3.46003,5.53903 3.65509,9.27916c0,3.65048 -0.32305,9.3997 -1.86404,12.78813c-5.24247,11.5275 -18.27944,12.64167 -28.04258,6.43966c-2.16636,-1.44424 -3.02252,-3.74886 -5.38292,-4.00708c-1.06843,-0.11688 -4.61336,4.10109 -5.61845,5.10618c-3.30867,3.30867 -9.07198,11.5665 -14.65306,8.83054c-0.8567,-0.41997 -1.59933,-1.04088 -2.39899,-1.56132c-3.20408,-2.56327 -5.53138,-6.3762 -8.96782,-8.68069c-1.61788,-1.08496 -4.29895,0.4667 -6.23823,0.68368c-7.01176,0.78455 -14.01399,0.58245 -21.03575,0.15905c-1.47793,-0.08912 -4.19781,-0.2083 -5.34086,-1.35135c-3.79811,-3.79811 -2.01109,-8.62229 1.63139,-11.8482c3.63132,-3.21602 9.13955,-4.20608 13.80897,-4.62982c1.19077,-0.10806 2.43373,-0.05281 3.64527,-0.0322c-4.42511,-5.4107 -10.82207,-1.8015 -16.30455,-0.43183c-5.33384,1.33254 -11.8009,0.99641 -16.42428,-2.01259c-2.94874,-2.35899 -3.64978,-6.61613 -0.76259,-8.92876zM226.6335,193.73503c0.22994,-0.70563 1.3344,-2.46464 -0.13233,-0.00181c0.04416,0.00066 0.08827,0.00127 0.13233,0.00181z"/></g></g></svg>