<svg version="1.1" xmlns="http://www.w3.org/2000/svg" xmlns:xlink="http://www.w3.org/1999/xlink" width="65.67119" height="59.52658" viewBox="0,0,65.67119,59.52658"><g transform="translate(-210.21063,-149.83172)"><g data-paper-data="{&quot;isPaintingLayer&quot;:true}" fill="none" fill-rule="nonzero" stroke="none" stroke-width="0.5" stroke-linecap="butt" stroke-linejoin="miter" stroke-miterlimit="10" stroke-dasharray="" stroke-dashoffset="0" font-family="none" font-weight="none" font-size="none" text-anchor="none" style="mix-blend-mode: normal"><path d="M274.73133,160.79803c0.29367,1.08948 0.16666,2.28702 -0.26604,3.16208l1.36905,-0.19992c0,0 0.30238,2.00113 -0.61903,3.16507c-0.04467,0.23942 -0.08933,0.47883 -0.134,0.71824c-2.6055,13.43971 -10.96316,18.72025 -16.49039,28.59057c-1.46738,2.25122 -1.97784,4.94071 -3.87569,6.73286c-3.8004,3.58877 -9.25499,4.32793 -13.37581,2.96548c-2.18165,-0.72131 -4.39308,-0.48354 -6.48959,-1.81798c-5.35509,-3.50139 -10.60017,-7.88651 -16.10683,-10.68435c-3.24159,-1.647 -6.57233,-0.97211 -8.53237,-6.27302c0.12739,-2.06523 -0.01802,-4.21525 0.38214,-6.19572c0.15845,-0.78419 1.13128,-0.49009 1.50563,-0.83429c0.86011,-0.79084 1.6747,-2.05534 2.4302,-3.06821c4.43915,-5.95143 9.52891,-10.84421 14.49729,-15.40235c3.92308,-3.59915 8.15395,-6.04823 12.36267,-8.75174c2.18566,-1.40398 4.33067,-3.09248 6.76679,-3.07284c1.40953,0.01137 3.1004,0.90357 4.57938,1.06211c7.26585,0.7789 14.20557,0.64806 21.02079,4.98603c0,0 1.90936,1.21533 1.1221,4.16288c-0.05871,0.21984 -0.12369,0.41653 -0.19363,0.59229c0.01664,0.05327 0.03243,0.10755 0.04733,0.16283zM270.91772,163.24776c-0.2007,-0.74461 -0.20492,-1.53967 -0.04934,-2.24776c-5.97014,-3.25944 -12.05293,-3.06222 -18.41978,-3.74475c-1.73866,-0.18638 -3.7868,-1.33525 -5.43642,-1.29587c-0.56366,0.01346 -3.13116,2.25089 -4.03671,2.83258c-4.02597,2.58612 -8.09002,4.90643 -11.83929,8.34613c-4.21926,3.87087 -8.46628,7.96642 -12.34658,12.74583c-1.35409,1.66786 -2.6283,3.86621 -4.11767,5.23084c-0.049,0.0449 -0.09848,0.08846 -0.14836,0.13086c1.24816,1.38513 3.24066,1.04528 5.01449,1.92717c5.81414,2.89066 11.20679,7.58032 16.88632,11.04658c1.71906,1.0942 3.61291,0.78436 5.42934,1.38615c0.90495,0.29981 1.74565,1.01546 2.66153,1.22155c0.58643,0.13195 2.05149,-0.70359 2.7029,-0.93816c1.93458,-0.69664 4.18452,-1.20138 5.91021,-2.80915c0.96673,-0.90067 1.62917,-3.66777 2.33771,-5.01579c4.89288,-8.73752 13.56079,-14.26973 15.64599,-26.18524c0.09135,-0.48965 0.18271,-0.9793 0.27406,-1.46896l0.06187,-0.00904c-0.22377,-0.30828 -0.40734,-0.69694 -0.53026,-1.15297z" data-paper-data="{&quot;origRot&quot;:0,&quot;origPos&quot;:null}" fill="#6f5e30"/><path d="M271.48311,164.38024l-0.06188,0.00901c-0.09135,0.48965 -0.18235,0.98084 -0.27371,1.4705c-2.0852,11.91551 -10.75802,17.50036 -15.6509,26.23787c-0.70854,1.34802 -1.37852,4.12725 -2.34526,5.02792c-1.72569,1.60776 -3.99107,2.1235 -5.92565,2.82014c-0.6514,0.23458 -2.12421,1.0713 -2.71064,0.93936c-0.91588,-0.20609 -1.76431,-0.92302 -2.66927,-1.22283c-1.81642,-0.60179 -3.72378,-0.30098 -5.44284,-1.39519c-5.67953,-3.46625 -11.08773,-8.19309 -16.90187,-11.08375c-1.77383,-0.88191 -3.76671,-0.54611 -5.01488,-1.93123c0.04988,-0.0424 0.09934,-0.08609 0.14835,-0.131c1.48937,-1.36461 2.76336,-3.56956 4.11745,-5.2374c3.88029,-4.77941 8.133,-8.90536 12.35227,-12.77623c3.74928,-3.4397 7.84087,-5.78692 11.86685,-8.37305c0.90555,-0.58169 3.48316,-2.81881 4.04682,-2.83227c1.64962,-0.03938 3.70963,1.1156 5.4483,1.302c6.36686,0.68253 12.46596,0.51182 18.43611,3.77127c-0.15558,0.7081 -0.15065,1.50566 0.05005,2.25024c0.12293,0.45604 0.30693,0.84639 0.5307,1.15465z" data-paper-data="{&quot;noHover&quot;:false,&quot;origItem&quot;:[&quot;Path&quot;,{&quot;applyMatrix&quot;:true,&quot;segments&quot;:[[[241.14603,140.65128],[0.42605,0],[-0.69563,0]],[[239.33079,139.9671],[0.48431,0.4259],[-5.64962,6.25929]],[[226.92619,161.37047],[3.80044,-7.60089],[-1.03782,2.07565]],[[223.11327,167.6243],[0.81249,-2.041],[-0.27762,0.69739]],[[223.30404,173.52542],[0,-1.30599],[0,5.80627]],[[223.89416,190.84563],[-0.82128,-5.74895],[0.92423,6.4696]],[[227.72847,210.24737],[-1.82114,-6.35395],[0.63552,2.21731]],[[229.78766,217.04272],[-0.32483,-2.28314],[0.01069,0.07512]],[[229.81599,217.26848],[-0.00825,-0.07537],[1.74153,-1.07543]],[[233.91581,211.74254],[-1.60969,1.88841],[5.27613,-6.18971]],[[251.35076,194.64391],[-5.66565,5.83349],[1.75074,-1.75074]],[[255.23195,188.42872],[-1.40841,2.03359],[0.70168,-1.01315]],[[257.56621,185.56155],[-0.63263,1.05764],[0.40506,-0.6772]],[[258.20176,181.92788],[-0.14642,0.87853],[0.43485,-2.60911]],[[258.98802,173.73134],[0.39757,2.65422],[-0.22272,-1.48689]],[[256.18955,169.19542],[0.71104,1.31773],[-4.45518,-8.91036]],[[243.3406,141.28419],[8.42221,6.51184],[-0.3432,-0.27456]],[[242.311,140.46051],[0.3432,0.27456],[0,0]],[[242.33545,140.38145],[0,0],[-0.35996,0.17294]]],&quot;closed&quot;:true}],&quot;origRot&quot;:0,&quot;origPos&quot;:null}" fill="#826e38"/><path d="M249.4012,162.02972c0.17575,-3.17671 2.23356,-2.90538 2.23356,-2.90538l0.49053,0.69432c2.7192,0.29151 5.42729,0.15372 8.1606,0.44673c0,0 2.06033,0.22087 1.91727,3.40147c-0.14308,3.1806 -2.20341,2.95974 -2.20341,2.95974c-2.73516,-0.29322 -5.43619,-0.15467 -8.1606,-0.44673l-0.5559,-0.70214c0,0 -2.05781,-0.27132 -1.88205,-3.44802z" data-paper-data="{&quot;origRot&quot;:0,&quot;origPos&quot;:null}" fill="#6f5e30"/><path d="M228.0591,179.39598c-1.06752,-2.72933 0.7005,-4.37729 0.7005,-4.37729l0.86908,-0.56176c3.30361,-3.03081 6.55927,-6.14584 9.78628,-9.3683c0,0 1.73412,-1.73166 2.85586,0.94534c1.12174,2.67701 -0.61237,4.40868 -0.61237,4.40868c-3.27085,3.26623 -6.571,6.42385 -9.9195,9.49586l-0.8443,0.53884c0,0 -1.76801,1.64796 -2.83553,-1.08138z" data-paper-data="{&quot;origRot&quot;:0,&quot;origPos&quot;:null}" fill="#6f5e30"/><path d="M234.17332,182.34043c0.78727,-2.94753 2.69663,-1.73221 2.69663,-1.73221l0.59311,0.3986c2.07704,0.92348 3.88725,2.45318 5.87711,3.71976c0,0 1.90936,1.21533 1.1221,4.16288c-0.78727,2.94753 -2.69663,1.73221 -2.69663,1.73221c-1.85032,-1.17775 -3.53301,-2.63695 -5.44578,-3.48739l-1.02445,-0.63099c0,0 -1.90936,-1.21533 -1.1221,-4.16288z" data-paper-data="{&quot;origRot&quot;:0,&quot;origPos&quot;:null}" fill="#6f5e30"/><path d="M259.63113,172.73332c1.0531,-0.67647 2.26204,0.09304 2.70025,1.71874c0.4382,1.6257 -0.06027,3.49199 -1.11337,4.16845c-1.0531,0.67647 -2.26204,-0.09304 -2.70025,-1.71874c-0.4382,-1.6257 0.06027,-3.49199 1.11337,-4.16845z" data-paper-data="{&quot;origRot&quot;:0,&quot;origPos&quot;:null}" fill="#6f5e30"/><path d="M253.33248,176.44247c-0.48842,1.17671 -0.85522,2.49753 -1.46525,3.53015c-1.70163,2.88044 -4.96831,1.65544 -7.54442,0.1892l-0.00821,0.03073l-0.82269,-0.52365c-0.60739,-0.3734 -1.15422,-0.73467 -1.60364,-1.02073v0v0c-0.23206,-0.14772 -0.4468,-0.36033 -0.63178,-0.62997c-0.47125,-0.63569 -0.95933,-1.77691 -0.49031,-3.53291c0.46902,-1.75602 1.33629,-2.03452 1.96083,-1.97274c0.18272,0.00719 0.36291,0.05196 0.53593,0.13137l1.88731,0.83913l-0.05739,0.30758l0.79627,0.50683l-0.00777,0.02909c1.1065,0.64044 2.26495,1.09293 3.33655,0.8059c0.14742,-0.03949 0.27497,-0.15365 0.39577,-0.29498c-0.01546,-0.09864 -0.02775,-0.19763 -0.03694,-0.29669c-0.08387,0.05356 -0.15861,0.10141 -0.21353,0.13688l0.26878,-1.44064c0.16431,-0.90987 0.58772,-1.69848 1.19646,-2.08951c1.0531,-0.67647 2.26204,0.09304 2.70025,1.71874c0.08221,0.30501 0.13146,0.61848 0.15026,0.93099c0.22709,3.04159 -0.06863,1.20004 -0.07241,1.17649c-0.00151,0.00807 -0.00304,0.01613 -0.00459,0.02418z" data-paper-data="{&quot;origRot&quot;:0,&quot;origPos&quot;:null}" fill="#6f5e30"/><path d="M246.60524,193.46489c-1.13125,-2.66745 0.59668,-4.4138 0.59668,-4.4138l0.67856,-0.46836c2.62496,-2.31301 5.19902,-4.67505 7.48703,-7.73733c0.17107,-0.24044 0.37143,-0.44026 0.5973,-0.58535c0.02446,-0.01571 0.049,-0.03065 0.07362,-0.0448c0.56549,-0.36295 1.42395,-0.53877 2.22133,0.79804c0.03824,0.06246 0.07499,0.12755 0.11011,0.19523c0.65778,1.23392 0.55913,2.37863 0.3145,3.19105l-0.48963,2.62439l-0.85219,-0.37891l-0.70432,0.94608l-0.04095,-0.07265c-2.09812,2.4827 -4.36299,4.57006 -6.66915,6.60215l-0.46369,0.26538c0,0 -1.72793,1.74635 -2.85918,-0.92111z" data-paper-data="{&quot;origRot&quot;:0,&quot;origPos&quot;:null}" fill="#988141"/><path d="M259.39918,172.64493c-1.0334,-2.76045 0.75477,-4.35574 0.75477,-4.35574l0.22285,-0.12517c1.95584,-1.89069 3.93373,-3.08433 5.78982,-5.21452c0,0 1.65744,-1.90221 2.88965,0.65642c1.23222,2.55864 -0.42522,4.46085 -0.42522,4.46085c-1.93369,2.21926 -4.04092,3.54784 -6.06201,5.5016l-0.34828,0.24171c0,0 -1.78817,1.59529 -2.82157,-1.16517z" data-paper-data="{&quot;origRot&quot;:0,&quot;origPos&quot;:null}" fill="#988141"/><path d="M251.55448,165.5581c0.67295,3.01427 -1.27964,4.05312 -1.27964,4.05312l-0.7362,0.47964c-0.78882,0.5067 -1.55622,0.94976 -2.34002,1.33414l0.01681,0.11121l-1.79915,0.64787c-0.26012,0.10119 -0.52441,0.12068 -0.77973,0.06687c-0.61375,-0.09129 -1.42808,-0.56632 -1.72047,-2.35093c-0.01095,-0.06412 -0.02055,-0.12845 -0.02881,-0.19286c-0.24079,-1.7837 0.34913,-2.75948 0.87075,-3.25885c0.02896,-0.03012 0.05852,-0.05921 0.08869,-0.08723l1.56578,-1.51363l0.25761,0.63508c0.7669,-0.35626 1.49666,-0.77462 2.28166,-1.27887l0.97718,-0.62097c0,0 1.95259,-1.03885 2.62554,1.97541z" data-paper-data="{&quot;origRot&quot;:0,&quot;origPos&quot;:null}" fill="#988141"/><path d="M226.66288,187.50116c0.5337,-3.07998 2.52885,-2.25609 2.52885,-2.25609l1.13224,0.34761c0.63437,0.28205 1.26875,0.5641 1.90312,0.84615l1.88478,0.838c0.24737,0.10645 0.48091,0.28336 0.68737,0.52233c0.50993,0.54503 1.07443,1.58188 0.75358,3.3794c-0.00545,0.03112 -0.0112,0.06211 -0.01726,0.09294c-0.28179,1.46145 -0.88905,2.00922 -1.44011,2.18564l-1.74236,1.11922l-0.44276,-1.64262c-0.27549,-0.12249 -0.55096,-0.24496 -0.82645,-0.36746c-0.63437,-0.28205 -1.26875,-0.5641 -1.90312,-0.84615l-1.05644,-0.31512c0,0 -1.99515,-0.82388 -1.46145,-3.90386z" data-paper-data="{&quot;origRot&quot;:0,&quot;origPos&quot;:null}" fill="#988141"/><path d="M268.40947,169.19062c-0.00339,-0.18819 -0.00696,-0.37671 -0.0103,-0.5656h-0.01434v-2.65509c0,-1.38071 1.11929,-2.5 2.5,-2.5c1.27327,0 2.32422,0.95187 2.48007,2.18283l0.26031,1.82218c0.53404,0.32625 0.17701,1.23904 0.26551,1.85856l-0.48038,0.06863c0.03859,2.38991 0.04438,4.77993 -0.65272,7.07844c-0.06858,0.22613 -1.11659,4.10459 -1.82626,4.27067l-1.03796,1.81643c-0.30905,0.56487 -0.82982,0.99735 -1.45559,1.19074c-0.35516,0.97705 -0.81382,1.91719 -1.33598,2.81894c-0.27422,1.04254 -0.52186,2.2686 -1.38575,2.13331l-0.56016,0.74689c0.88409,1.17602 -0.70338,2.93136 -1.26604,4.3136c-1.06989,2.62831 -2.08061,5.37578 -3.51341,7.83299c-1.39071,2.38503 -2.24591,3.60216 -4.75921,4.92028c-0.42208,0.22136 -0.9576,0.83151 -1.32754,0.53102c-1.08758,-0.88339 -1.82611,-1.6787 -2.29054,-2.43786c-0.40379,-0.05525 -0.84303,-0.2367 -1.30043,-0.61787c-1.92055,-1.60046 -0.32009,-3.52101 -0.32009,-3.52101c1.05299,-1.26359 2.10139,-2.48516 3.1214,-3.70696c1.25402,-2.36198 2.80535,-4.55778 3.99733,-6.96199c1.11516,-2.23031 2.31938,-4.57396 3.8281,-6.57103c0.41435,-0.54847 1.47561,-1.29214 2.05964,-2.06487l0.90874,-2.27185c0.13353,-0.35761 0.34658,-0.67643 0.61766,-0.93497c0.14899,-0.60426 0.25285,-1.21512 0.2872,-1.83237v-2.19945c0,-1.38071 1.11929,-2.5 2.5,-2.5c0.24765,0 0.48689,0.03601 0.71277,0.10308c0.0201,-0.67753 0.01441,-1.3586 0.00322,-2.04409l-0.22698,0.00666c0,0 0.07555,-0.13111 0.22174,-0.31022z" fill="#62532a"/><path d="M214.06591,183.64861c2.5,0 2.5,2.5 2.5,2.5c0,2.87807 0,6.39282 0,9.55832l0,2.65509c0,0.31597 -0.05862,0.61826 -0.16558,0.89657c-0.24366,0.71716 -0.84591,1.60343 -2.33442,1.60343c-1.48852,0 -2.09076,-0.88627 -2.33442,-1.60343c-0.07059,-0.18368 -0.12012,-0.3778 -0.14565,-0.5794l-0.52582,-3.68074l0.50589,-0.07227c0,-2.57184 0,-5.14369 0,-7.71553v-1.06204c0,0 0,-2.5 2.5,-2.5z" fill="#62532a"/><path d="M223.62423,199.79998c-2.5,0 -2.5,-2.5 -2.5,-2.5c0,-1.31106 0,-3.08825 0,-4.77916c0,0 0,-3.18611 0,-3.18611c0,-0.31597 0.05862,-0.61826 0.16558,-0.89657c0.24366,-0.71716 0.84591,-1.60343 2.33442,-1.60343c1.48852,0 2.09076,0.88627 2.33442,1.60343c0.10696,0.27831 0.16558,0.58059 0.16558,0.89657c0,1.06204 0,2.12407 0,3.18611c0,1.15054 0,2.30108 0,3.45162v1.32754c0,0 0,2.5 -2.5,2.5z" fill="#62532a"/><path d="M240.6168,209.3583c-2.5,0 -2.5,-2.5 -2.5,-2.5c0,-2.8321 0,-7.25724 0,-10.08934c0,0 0,-2.5 2.5,-2.5c2.5,0 2.5,2.5 2.5,2.5c0,2.8321 0,5.66419 0,8.49629v1.59305c0,0 0,2.5 -2.5,2.5z" fill="#62532a"/><path d="M259.20243,197.67591c-2.5,0 -2.5,-2.5 -2.5,-2.5c0,-2.65509 0,-6.37221 0,-9.0273c0,0 0,-2.5 2.5,-2.5c2.5,0 2.5,2.5 2.5,2.5c0,2.65509 0,5.31018 0,7.96527v1.06204c0,0 0,2.5 -2.5,2.5z" fill="#564925"/><path d="M269.60185,180.66404c-2.48069,0.31009 -2.76154,-1.9904 -2.76154,-1.9904l-0.26551,-1.32754c-0.41757,-2.41702 -0.40518,-4.81276 -0.81106,-7.24803c0,0 -0.411,-2.46598 2.05499,-2.87698c2.46598,-0.411 2.87698,2.05499 2.87698,2.05499c0.38672,2.32033 0.20269,4.8539 0.78199,7.08945l0.26551,1.32754c0,0 0.33933,2.6609 -2.14136,2.97099z" fill="#564925"/></g></g></svg>