<svg version="1.1" xmlns="http://www.w3.org/2000/svg" xmlns:xlink="http://www.w3.org/1999/xlink" width="138.86878" height="102.34939" viewBox="0,0,138.86878,102.34939"><g transform="translate(-170.62857,-113.43355)"><g data-paper-data="{&quot;isPaintingLayer&quot;:true}" fill="#5b8bba" fill-rule="nonzero" stroke="none" stroke-width="0.5" stroke-linecap="butt" stroke-linejoin="miter" stroke-miterlimit="10" stroke-dasharray="" stroke-dashoffset="0" font-family="none" font-weight="none" font-size="none" text-anchor="none" style="mix-blend-mode: normal"><path d="M188.21558,164.16537c-0.00948,-0.10169 -0.01445,-0.20811 -0.01445,-0.31951c0,-2.5 2.5,-2.5 2.5,-2.5c2.47957,0 5.54318,0.49408 7.96527,0c0.81442,-0.16613 2.35343,-1.20379 3.13011,-1.59463c4.37947,-2.20384 8.14866,-4.66704 11.06593,-8.55674c1.92615,-2.5682 0.58875,-7.2015 0.33054,-10.30241c-0.28024,-3.36552 -0.03402,-6.85663 -0.03402,-10.23483c0,-1.3512 -0.02884,-3.23183 0.57957,-4.47292c0.84914,-1.73217 2.22408,-3.1931 3.37205,-4.72683c1.75854,-2.34472 4.20494,-6.42564 7.13772,-7.40323c7.63403,-2.54468 17.86643,3.15353 21.96385,9.47555c3.72884,6.21474 8.59854,11.54186 15.33855,14.27651c2.8185,1.14356 6.25187,-0.55851 8.91282,-1.32211c6.78051,-1.93729 15.52992,-4.17628 22.72404,-2.75128c3.74021,0.74085 7.99083,3.35113 11.05832,5.54467c1.27128,0.95346 2.27019,2.09418 3.15509,3.4206c0.62039,0.92992 1.52891,1.77048 1.73679,2.86885c1.42808,7.54552 -7.00744,10.85174 -12.63214,13.16575c-1.42259,0.58526 -6.02664,1.72834 -6.36273,3.42695c-1.64085,2.18779 0.90106,5.52542 3.79989,6.97662c6.84481,3.42664 14.9181,5.95971 15.55124,14.88816c0,1.8861 0.08041,4.36217 -0.55032,6.15128c-1.40838,3.99493 -6.11945,9.65028 -10.97698,8.03111c-1.32343,-0.44114 -2.39579,-1.43168 -3.62407,-2.09305c-4.0023,-2.15505 -8.89925,-3.66689 -13.25877,-4.90637c-2.26204,-0.6463 -4.63937,-1.20373 -7.01296,-0.96585c-9.37526,0.93961 -11.64797,13.93974 -17.08337,19.71195c-6.21434,6.21434 -19.35815,9.62168 -22.94009,-1.1048c-0.99038,-2.9658 -1.53143,-6.00685 -2.17288,-9.05821c-0.27221,-1.29489 -0.4299,-4.35479 -1.51879,-5.17583c-1.70905,-2.4995 -4.54136,-0.28973 -7.30389,1.37733c-5.82012,3.51217 -11.21325,7.62576 -16.99257,11.15137c-1.17375,0.70425 -2.57807,1.02957 -3.94133,1.15279c-4.46279,0.4034 -6.61469,-5.93444 -6.9651,-9.44396c-0.10418,-1.0434 0.28304,-2.1506 -0.04855,-3.14538c-0.05575,-0.16725 -0.14342,0.52538 -0.29653,0.43796c-0.80535,-0.45981 -1.95331,-2.26538 -2.68836,-2.91834c-2.11082,-1.87506 -4.6178,-3.15347 -7.52504,-2.98489c-4.45112,0 -8.96929,-0.73739 -12.08934,-4.18611c-1.01705,-1.12419 -2.20292,-3.80833 -1.79353,-5.33715c1.77562,-6.63087 10.21509,-13.3486 16.1405,-16.00763c0.45451,-0.1818 0.90901,-0.36361 1.36352,-0.54541z"/></g></g></svg>