<svg version="1.1" xmlns="http://www.w3.org/2000/svg" xmlns:xlink="http://www.w3.org/1999/xlink" width="46.45564" height="77.30308" viewBox="0,0,46.45564,77.30308"><g transform="translate(-216.33272,-128.66668)"><g data-paper-data="{&quot;isPaintingLayer&quot;:true}" fill="none" fill-rule="nonzero" stroke="none" stroke-width="none" stroke-linecap="none" stroke-linejoin="miter" stroke-miterlimit="10" stroke-dasharray="" stroke-dashoffset="0" font-family="none" font-weight="none" font-size="none" text-anchor="none" style="mix-blend-mode: normal"><path d="M236.67681,205.56039c-12.46919,-1.54452 -21.20154,-13.90458 -19.50427,-27.60699c1.69727,-13.70239 13.18145,-23.55831 25.65064,-22.0138c12.46919,1.54452 21.20154,13.90458 19.50427,27.60699c-1.69727,13.70239 -13.18145,23.55831 -25.65064,22.0138z" data-paper-data="{&quot;origPos&quot;:null,&quot;origRot&quot;:0}" fill="#e1ffff" stroke="#0096ff" stroke-width="0.5" stroke-linecap="butt"/><path d="M258.21911,169.93836l0.25261,4.06186l-4.81517,-7.90185l-5.77235,-4.24175" data-paper-data="{&quot;origRot&quot;:0}" fill="none" stroke="#0096ff" stroke-width="0.5" stroke-linecap="round"/><path d="M258.47172,174.00021l-3.44272,-0.67834" data-paper-data="{&quot;origRot&quot;:0}" fill="none" stroke="#0096ff" stroke-width="0.5" stroke-linecap="round"/><path d="M225.28681,197.22547l-1.63059,-4.63316l5.52243,0.05292" data-paper-data="{&quot;origRot&quot;:0}" fill="none" stroke="#0096ff" stroke-width="0.5" stroke-linecap="round"/><path d="M238.75027,202.4021l-8.5671,-3.56789l-6.46621,-5.49436" data-paper-data="{&quot;origRot&quot;:0}" fill="none" stroke="#0096ff" stroke-width="0.5" stroke-linecap="round"/><text transform="translate(221.5,184.00956) scale(0.14706,0.26082)" font-size="40" xml:space="preserve" data-paper-data="{&quot;origPos&quot;:null}" fill="#4d9797" fill-rule="nonzero" stroke="none" stroke-width="1" stroke-linecap="butt" stroke-linejoin="miter" stroke-miterlimit="10" stroke-dasharray="" stroke-dashoffset="0" font-family="Pixel" font-weight="normal" text-anchor="start" style="mix-blend-mode: normal"><tspan x="0" dy="0">Regenerate</tspan></text><path d="M242.54911,150.44401c0.05899,0.06751 0.11918,0.13175 0.18052,0.1924c0.50084,0.49522 0.99936,0.99643 1.49501,1.4986c0.8391,0.46813 1.54019,1.2156 2.23002,1.90543c0.06521,0.06521 0.19561,0.2276 0.34523,0.39433c0.32021,0.0887 0.63635,0.16671 0.68301,0.44988l0.47812,0.15937c0.40862,0.12567 0.70565,0.50614 0.70565,0.95598c0,0.55228 -0.44772,1 -1,1c-0.11876,0 -0.23269,-0.0207 -0.33837,-0.0587l-0.30799,-0.10266c0.61632,0.76538 1.26676,1.37381 2.0605,1.49469h1.25253c0.55228,0 1,0.44772 1,1c0,0.35261 -0.1825,0.6626 -0.4582,0.84065l-0.48709,0.32473c-0.10247,0.57501 -2.53183,0.68309 -3.0547,0.50128c-2.57098,-0.89395 -5.28331,-3.55073 -6.5547,-5.16795c-0.16945,-0.21554 -0.30184,-0.42949 -0.4005,-0.64023c-1.9234,0.54188 -3.74487,1.80818 -6.0448,1.80818c-0.29514,0 -2.85205,0.22193 -3,0h-0.66667c-0.55228,0 -1,-0.44772 -1,-1c0,-0.55228 0.44772,-1 1,-1c0.05556,0 0.61111,0 0.66667,0c0.14203,-0.21305 1.88102,-0.10134 2.8676,-0.03615c0.69557,-0.16063 1.19929,-0.66193 1.93628,-0.94443c0.48656,-0.1865 2.85786,-0.53845 2.89264,-0.59529c1.4172,-2.31562 -0.61473,-4.45188 -0.73787,-6.88123c-0.04837,-1.02604 0.03911,-5.02861 -0.09198,-5.27623c-1.14088,-2.155 -2.19027,-4.98058 -2.19993,-7.56409c-0.43427,-0.41677 -1.09064,-1.21435 -0.66673,-2.03591c0.72853,-1.41193 2.43839,-2.23658 3.78055,-0.89443c0.90257,0.90257 1.40292,2.8813 1.66788,4.56765c0.39868,0.04569 0.72608,0.32583 0.84088,0.6991l0.32604,0.97812l-0.04439,0.0148c0.34736,1.65688 0.3156,3.51446 0.23268,5.34204c0.25339,0.72184 0.50339,1.41314 0.69507,2.07136c0.26001,0.89285 0.03667,1.72113 0.43385,2.48411l0.55857,0.83785c0.11072,0.16096 0.17553,0.35595 0.17553,0.56608c0,0.55228 -0.44772,1 -1,1c-0.11749,0 -0.23024,-0.02026 -0.33496,-0.05748c0.00108,0.01902 0.00162,0.03819 0.00162,0.05748c0,0.00864 -0.00011,0.01725 -0.00033,0.02583c0.08852,0.41779 0.10096,0.82333 -0.11723,1.08484zM238.01965,134.20526c0.10367,0.20997 0.19977,0.4213 0.28448,0.64075c-0.08515,-0.70122 0.31491,-1.88533 -0.08467,-2.28492c-0.17568,-0.17568 -0.56385,-0.10716 -0.66667,-0.33333c-0.07154,-0.15738 0.49692,-0.3345 0.33525,-0.39571c-0.44766,-0.16949 -0.87798,0.39341 -0.84759,0.46084c0.06109,0.13557 0.12311,0.26615 0.18548,0.39276c0.77408,0.13795 0.77408,0.98101 0.77408,0.98101c0,0.17921 0.00679,0.35884 0.01965,0.53859zM242.53127,154.98219c0.23384,0.30585 0.47058,0.609 0.73726,0.88588c0.47469,0.49285 1.19847,1.15285 1.95513,1.75341c-0.01857,-0.02218 -0.03714,-0.04444 -0.05571,-0.06678c-0.81593,-0.98122 -1.63867,-2.5547 -2.50128,-2.5547c-0.04528,-0.00663 -0.09041,-0.01256 -0.1354,-0.01781zM239.00069,137.28679c-0.00046,-0.03995 -0.00069,-0.07999 -0.00069,-0.12013c0.16267,-0.59494 -0.24419,-1.172 -0.51007,-1.75132c0.1109,0.41787 0.17674,0.87828 0.17674,1.41798c-0.23714,-0.16768 0.01988,0.10809 0.33403,0.45346z" fill="#664d34" stroke="none" stroke-width="0.5" stroke-linecap="butt"/><path d="M224.66667,165c0,0 0,0.13735 -0.0509,0.31024c0.03223,0.10184 0.0509,0.2198 0.0509,0.35643c0,1 -1,1 -1,1c-2.11111,0 -4.22222,0 -6.33333,0l0.05256,0.33195c0,0 -0.99862,0.05256 -1.05118,-0.94606c-0.05256,-0.99862 0.94606,-1.05118 0.94606,-1.05118l0.05256,-0.33472c1.77588,0 3.55175,0 5.32763,0c-0.05254,-1.48039 -0.45473,-1.86694 -0.65385,-3.44251c-0.83096,0.07159 -1.57548,0.2455 -2.11908,0.6079l-0.764,0.49356c0,0 -0.99228,0.12403 -1.11631,-0.86824c-0.12403,-0.99228 0.86824,-1.11631 0.86824,-1.11631l-0.09733,-0.17311c2.23083,-1.48722 5.63783,-0.83462 8.22137,-0.83462c0,0 1,0 1,1c0,1 -1,1 -1,1c-0.87546,0 -1.94541,-0.09339 -3.01516,-0.13359c-0.16473,0.47236 0.68183,2.95637 0.68183,3.80025zM228.33333,152.66667c0.14693,0 0.27227,0.02159 0.37919,0.05842c1.81087,-0.71431 4.08578,0.22471 5.84399,1.68006c0.01734,-1.32982 0.06639,-2.64642 0.61143,-3.79318l0.33333,-0.5c0,0 -0.01648,-0.57667 0.97347,-0.43525c0.98995,0.14142 0.69063,1.54465 0.69063,1.54465l-0.33333,0.5c-0.27303,-0.0903 -0.16538,1.93109 -0.16538,2.27863c0,0.75489 -0.02816,1.46638 -0.10001,2.18l0.08059,0.01612l-0.08713,0.43565c0.12505,0.19659 0.237,0.39308 0.33431,0.58769c0,0 0.44721,0.89443 -0.44721,1.34164c-0.31547,0.15773 -0.57531,0.14857 -0.77951,0.07061c-0.13731,0.04322 -0.30227,0.05652 -0.49993,0.02132c-0.02273,-0.00379 -0.04521,-0.00834 -0.06739,-0.01364c-0.55588,-0.12614 -0.71559,-0.51271 -0.75339,-0.80706c-0.00898,-0.05388 -0.01366,-0.10923 -0.01366,-0.16566v-0.95659c-0.5535,-0.85549 -1.18456,-1.43437 -2.37377,-2.00297c-0.45,-0.21516 -1.85862,-0.04044 -2.45956,-0.04044c-0.18245,0 -0.47854,0.04707 -0.76387,0.08969c0.17075,1.43044 0.5972,2.79181 0.5972,4.24364c0,0 0,1 -1,1c-1,0 -1,-1 -1,-1c0,-1.7951 -0.66667,-3.48581 -0.66667,-5.33333h0.66667c0,0 0,-1 1,-1z" fill="#588343" stroke="none" stroke-width="0.5" stroke-linecap="butt"/><path d="M258.56921,158.17781c0.82219,0.56921 -0.01451,1.65424 -0.01451,1.65424l-0.5,0.33333c-0.46058,-0.148 -1.87996,2.69886 -2.07487,3.37469c0.01332,0.15494 0.02017,0.30851 0.02017,0.45993c0,0 0,1 -1,1c-1,0 -1,-1 -1,-1c0,-1.35843 -0.64459,-2.56371 -1.37377,-3.29289l-0.22624,-0.68146c0,0 -0.06743,-0.17533 -0.06786,-0.40323c-0.17762,-0.05165 -0.30784,-0.14383 -0.40329,-0.25121c-0.02248,0.0562 -0.04991,0.10988 -0.08176,0.16051c-0.14857,0.25829 -0.44639,0.55548 -1.01264,0.45465c-0.02273,-0.00379 -0.04521,-0.00834 -0.06739,-0.01364c-0.55588,-0.12614 -0.71559,-0.51271 -0.75339,-0.80706c-0.00898,-0.05388 -0.01366,-0.10923 -0.01366,-0.16566c0,-0.00834 0.0001,-0.01666 0.00031,-0.02495l0.02056,-0.95856l-0.88365,0.96409c0,0 -0.98058,-0.19612 -0.78446,-1.1767c0.01598,-0.07991 0.03717,-0.152 0.06262,-0.21703l-0.07422,0.0378c0.04498,-2.09639 -0.25935,-3.47146 1.88021,-4.79004c0.11535,-0.07109 1.34843,0.91747 1.49134,1.03389c0.67507,0.54995 1.12743,1.13463 1.42521,1.77352c1.13879,-0.28825 2.44609,-0.30869 3.69542,-0.30869h0.83333c0,0 0.55709,-0.29987 0.92848,0.62861c0.37139,0.92848 -0.92848,1.37139 -0.92848,1.37139h-0.83333c-0.53151,0 -2.0905,0.00108 -3.23133,0.04946c0.0468,0.40588 0.06466,0.83278 0.06466,1.28387c0,0 0,0.01168 -0.00126,0.03252c0.42546,0.15138 0.60127,0.60851 0.60127,0.60851l-0.22624,-0.01479c0.3947,0.3947 0.75058,0.88114 1.04735,1.41703c0.53121,-0.85096 1.18703,-1.63522 1.85751,-2.20864l0.5,-0.33333c0,0 0.30172,-0.55935 1.12391,0.00986zM250.82694,156.99583c0.1617,-0.19859 0.3412,-0.3735 0.53592,-0.52755c-0.13917,-0.27038 -0.34201,-0.55644 -0.63765,-0.91101c-0.04949,-0.05935 -0.12177,-0.12053 -0.20709,-0.18186c0.06645,0.4529 -0.04491,1.03092 -0.1195,1.61123z" fill="#588343" stroke="none" stroke-width="0.5" stroke-linecap="butt"/><path d="M241.34911,136.45468c-0.05474,0.49354 -0.53693,0.75655 -0.53693,0.75655l-0.50401,-0.91047l-1.01059,0.80847c-0.1721,0.14011 -0.3917,0.22411 -0.63092,0.22411c-0.55228,0 -1,-0.44772 -1,-1v-0.88457c-0.17379,0.29214 -0.36111,0.46136 -0.55279,0.44566c-0.34771,-0.02848 -0.69752,-0.0833 -1.03919,-0.16857c-0.13547,0.09556 -0.27169,0.18153 -0.40818,0.25635c0.0001,0.00592 0.00016,0.01185 0.00016,0.01779c0,0.44984 -0.29702,0.83031 -0.70565,0.95598l-0.88112,0.29371c0.44829,-0.09442 0.92619,-0.13835 1.46745,-0.10573l0.02852,-0.11409l1.31304,0.32826c0.12694,0.02881 0.24471,0.08176 0.34822,0.15379c0.25051,0.16009 0.53323,0.47058 0.4079,1.02931c-0.00526,0.02489 -0.01145,0.04944 -0.01853,0.0736c-0.10611,0.37962 -0.32776,0.5636 -0.5522,0.64861l-0.85294,0.56863l-0.43564,-0.65346c-2.22644,-0.30309 -2.8058,1.13076 -5.00518,1.3825c-1.55112,0.17754 -2.3679,-1.37271 -2.56803,-1.76949l-0.50687,-0.16896c-0.40862,-0.12567 -0.70565,-0.50614 -0.70565,-0.95598c0,-0.4759 0.33244,-0.87416 0.77776,-0.97522l0.64637,-0.16159c0.27485,-0.43994 0.93861,-0.29005 1.52091,-0.22214c0.11625,-0.12115 0.26271,-0.21308 0.42728,-0.26369l0.53196,-0.17732c0.39175,-0.14058 1.12239,-0.597 1.77816,-0.84716c-0.00323,-0.00538 -0.00647,-0.01079 -0.00969,-0.01621c-0.00896,-0.00121 -0.01771,-0.00232 -0.02626,-0.00333h-0.64649c-0.55228,0 -1,-0.44772 -1,-1c0,-0.44984 0.29702,-0.83031 0.70565,-0.95598l0.92681,-0.30894c0.07114,-0.11613 0.51292,-0.29258 1.05543,-0.45175c0.51963,-1.59509 0.84222,-3.61667 2.97878,-3.61667c0.52437,0.31462 1.11465,0.54009 1.58421,0.92885l0.17834,-0.35669c0.16034,-0.33825 0.50491,-0.57216 0.90412,-0.57216c0.55228,0 1,0.44772 1,1v0.5c0.11686,0.08928 0.03701,1.68318 0,1.83333c-0.09412,0.38181 -0.18076,0.70163 -0.25826,0.98954c0.03724,-0.06464 0.07731,-0.12962 0.11798,-0.19417l-0.0251,-0.01674l0.65806,-0.98709c0.17805,-0.2757 0.48804,-0.4582 0.84065,-0.4582c0.11204,0 0.21977,0.01842 0.32034,0.05241c0.54214,-0.32733 1.3116,-0.62306 1.513,-0.38574h0.5c0.55228,0 1,0.44772 1,1c0,0.35261 -0.1825,0.6626 -0.4582,0.84065l-0.52513,0.35009c-0.35667,0.25885 -1.16011,1.36532 -1.21319,1.38513l-0.16159,0.64637c-0.08371,0.36887 -0.37133,0.66029 -0.73809,0.74948c-0.1396,0.19748 -0.27751,0.39163 -0.40507,0.58298zM239.89712,133.67794c-0.03242,0.13658 -0.06182,0.27139 -0.08793,0.40905c0.23644,-0.1884 0.43732,-0.36324 0.49352,-0.47045c0.05762,-0.10992 -0.21208,0.30158 -0.30271,0.21679c-0.05028,-0.04705 -0.08357,-0.09919 -0.10288,-0.15539zM236.33333,132.42001c0,-0.54992 0,-1.09983 0,-1.64975c-0.25094,0.18797 -0.35527,0.61681 -0.48983,1.16289c0.07372,0.01286 0.12754,0.03467 0.1565,0.06684c0.11773,0.13081 0.22975,0.27154 0.33333,0.42001zM231.26002,138.30124c-0.02007,-0.01129 -0.03931,-0.02411 -0.05767,-0.03854c-0.27672,0.04913 -0.5651,0.0758 -0.86901,0.07063c-0.05354,-0.00091 -0.10927,0.00482 -0.16644,0.01517c-0.00736,0.02544 -0.01733,0.05067 -0.03008,0.07562c-0.06508,0.12732 -0.38843,0.38651 -0.25069,0.34811c0.50597,-0.14105 0.9564,-0.30387 1.3739,-0.471z" fill="#588343" stroke="none" stroke-width="0.5" stroke-linecap="butt"/><path d="M239.23554,153.9043c-2.23764,0.23554 -2.46293,-1.91944 -2.46293,-1.91944l-0.16667,-1.16667c-0.13956,-1.09484 0.16678,-2.62385 -0.00736,-3.59855c-0.57108,-3.19647 -1.59283,-5.07247 -1.16455,-8.49873c0,0 0.27908,-2.23263 2.5117,-1.95355c2.23263,0.27908 1.95355,2.5117 1.95355,2.5117c-0.33738,2.69902 0.36423,3.71274 0.83545,6.16794c0.30412,1.58454 0.0585,3.15934 0.32598,4.73479l0.16667,1.16667c0,0 0.24579,2.32029 -1.99185,2.55584z" fill="#58422d" stroke="none" stroke-width="0.5" stroke-linecap="butt"/></g></g></svg>