<svg version="1.1" xmlns="http://www.w3.org/2000/svg" xmlns:xlink="http://www.w3.org/1999/xlink" width="60.36538" height="98.86023" viewBox="0,0,60.36538,98.86023"><g transform="translate(-206.63531,-105.92222)"><g data-paper-data="{&quot;isPaintingLayer&quot;:true}" fill="none" fill-rule="nonzero" stroke="none" stroke-width="none" stroke-linecap="none" stroke-linejoin="miter" stroke-miterlimit="10" stroke-dasharray="" stroke-dashoffset="0" font-family="none" font-weight="none" font-size="none" text-anchor="none" style="mix-blend-mode: normal"><path d="M221.16179,197.46762c-8.40193,-9.34204 -6.89082,-24.39998 3.37516,-33.63288c10.26597,-9.23288 25.3993,-9.14441 33.80124,0.19763c8.40193,9.34204 6.89082,24.39998 -3.37516,33.63288c-10.26597,9.23288 -25.3993,9.14441 -33.80124,-0.19763z" data-paper-data="{&quot;origPos&quot;:null,&quot;origRot&quot;:0}" fill="#e1ffff" stroke="#0096ff" stroke-width="0.5" stroke-linecap="butt"/><path d="M260.78382,184.6968l-2.47258,3.23247l1.54552,-9.1234l-1.57706,-6.98751" data-paper-data="{&quot;origRot&quot;:0}" fill="none" stroke="#0096ff" stroke-width="0.5" stroke-linecap="round"/><path d="M256.15666,185.15975l2.15459,2.76951" data-paper-data="{&quot;origRot&quot;:0}" fill="none" stroke="#0096ff" stroke-width="0.5" stroke-linecap="round"/><path d="M218.02706,183.70621l1.80675,-4.56735l4.13492,3.66094" data-paper-data="{&quot;origRot&quot;:0}" fill="none" stroke="#0096ff" stroke-width="0.5" stroke-linecap="round"/><path d="M224.79817,196.44255l-4.12903,-8.31121l-1.27963,-8.38823" data-paper-data="{&quot;origRot&quot;:0}" fill="none" stroke="#0096ff" stroke-width="0.5" stroke-linecap="round"/><text transform="translate(221.5,184.00956) scale(0.14706,0.26082)" font-size="40" xml:space="preserve" data-paper-data="{&quot;origPos&quot;:null}" fill="#4d9797" fill-rule="nonzero" stroke="none" stroke-width="1" stroke-linecap="butt" stroke-linejoin="miter" stroke-miterlimit="10" stroke-dasharray="" stroke-dashoffset="0" font-family="Pixel" font-weight="normal" text-anchor="start" style="mix-blend-mode: normal"><tspan x="0" dy="0">Regenerate</tspan></text><path d="M230.60429,151.66861c0.99805,-0.06238 1.06043,0.93567 1.06043,0.93567l-0.3827,1.04527c-0.55271,1.65814 -0.79474,2.80677 0.27268,3.51839c0,0 0.14933,0.09955 0.27929,0.27758c0.14482,0.02735 0.28987,0.05403 0.43522,0.08017l0.04702,-0.14105l0.97812,0.32604c0.0742,0.02282 0.14472,0.05404 0.21046,0.09256c0.26337,0.1406 0.57017,0.42964 0.48583,1.00082c-0.00283,0.02061 -0.00629,0.04102 -0.01036,0.06121c-0.10729,0.56132 -0.48858,0.73415 -0.78194,0.78173c-0.06411,0.0129 -0.13043,0.01967 -0.19834,0.01967c-0.0625,0 -0.12366,-0.00573 -0.18298,-0.0167l-1.9542,-0.3257l0.00501,-0.03006c-0.16712,-0.03393 -0.33408,-0.06893 -0.501,-0.10516c0.07274,0.16815 0.14405,0.33689 0.21319,0.50651l0.03533,-0.01178l0.10541,0.31623h0.27924v1c0,0.01283 -0.00024,0.0256 -0.00072,0.03831c-0.00009,0.29653 -0.10886,0.70148 -0.6443,0.89685c-0.0252,0.00957 -0.05089,0.01815 -0.07701,0.0257c-0.5458,0.1654 -0.87597,-0.09307 -1.05412,-0.33026c-0.07964,-0.0979 -0.14113,-0.21116 -0.17933,-0.33465c-0.02393,-0.07097 -0.0517,-0.14922 -0.08287,-0.23419c-0.60886,-0.4337 -1.09463,-0.95093 -1.56282,-1.47254c-0.25683,0.48669 -0.96914,1.17525 -1.0655,1.41077c-0.08576,0.20963 -0.13653,0.46663 -0.16302,0.75262c0.29784,0.36308 0.58294,0.64564 0.76302,0.78071c0,0 0.8,0.6 0.2,1.4c-0.16734,0.22312 -0.35024,0.33734 -0.527,0.38605c0.00712,0.02125 0.01385,0.04318 0.02018,0.0658c0.00708,0.02417 0.01326,0.04872 0.01853,0.0736c0.11005,0.49061 -0.09452,0.78981 -0.31563,0.96387c-0.00833,0.09412 -0.0297,0.1845 -0.0623,0.2693c-0.09747,0.28686 -0.33836,0.64137 -0.93377,0.64137c-0.07253,0 -0.1398,-0.00526 -0.2022,-0.01502l-0.1978,0.14835l-0.27164,-0.36218c-0.09038,-0.08125 -0.15589,-0.1762 -0.20336,-0.27115l-0.06032,-0.08043c-0.64543,-0.10107 -1.19763,-0.43634 -1.78563,-1.03358c0.08146,0.30844 0.16677,0.60292 0.28204,0.83346l0.17838,1.36103c0,0 -0.01168,0.00519 -0.03299,0.01308c0.1229,0.11979 0.22404,0.29341 0.2741,0.54366c0.19612,0.98058 -0.78446,1.1767 -0.78446,1.1767c-0.02986,0.00597 -0.05964,0.01165 -0.08931,0.01704c0.13149,0.14751 0.22653,0.36075 0.22653,0.66905c0,0.59541 -0.35451,0.8363 -0.64137,0.93377c-0.11132,0.04278 -0.23224,0.06623 -0.35863,0.06623h-0.22442c-0.29483,0.33333 -0.77558,0.33333 -0.77558,0.33333c-1.53868,0 -3.0165,0.18161 -4.44721,-0.43891c-0.09997,-0.04336 -0.24922,-0.05675 -0.41028,-0.05901c0.25788,0.35502 0.52416,0.83124 0.52416,0.83124h-0.5c-1.72107,-0.81234 -2.26394,-0.97327 -0.83333,-3c0.43129,-0.611 1.96922,0.5514 2.33333,0.66667c0.02405,0.00761 0.04854,0.01482 0.07346,0.02163c-0.48371,-0.51438 -0.90645,-1.15 -1.30122,-1.90775l-0.33333,-0.66667c0,0 -0.50334,-0.23217 0.08802,-1.03858c0.59136,-0.8064 1.70083,0.14415 1.70083,0.14415l0.33333,0.66667c0.08465,0.1742 0.2231,0.35089 0.34452,0.52898c-0.30753,-1.02543 -0.09936,-2.25189 0.82772,-3.38176l0.66667,-0.5c0,0 -0.72702,0.3111 0.18094,-0.10796c0.29906,-0.13803 0.51167,0.00017 0.66234,0.24759c0.31392,-0.60939 0.98956,-1.00037 2.22339,-0.93963c0.65772,0.03238 1.09502,0.73443 1.3852,1.40968c-0.01492,-0.23758 -0.02549,-0.47421 -0.0278,-0.70394c-1.01714,-1.56577 -1.32407,-3.49697 -0.07879,-4.83597c-0.6285,0.09171 -1.3601,0.2133 -1.7029,0.19627c-0.55016,0.09127 -1.27528,0.13826 -1.34691,-0.22892c-0.01731,0.05811 -0.0288,0.09621 -0.0288,0.09621v-0.5c1.46868,-2.20301 3.16171,-2.00186 4.81351,-1.04591c0.13302,-0.0737 0.30289,-0.12076 0.51982,-0.12076c1,0 1,1 1,1l-0.08756,0.11209c0.10486,0.08208 0.2092,0.16533 0.31297,0.24928c-1.19633,-3.49111 -1.98981,-7.61101 2.25748,-6.47672l0.5,0.16667c0,0 -0.03721,-0.00145 -0.09436,-0.00386c0.19184,0.10505 0.18177,0.37198 0.08824,0.67371c0.08606,-0.02725 0.18362,-0.04564 0.29418,-0.05255zM229.38465,153.01711l0.12475,-0.12655l-0.32563,-0.10854c-0.12981,-0.08148 -0.33865,-0.03087 -0.5185,-0.00804c-0.01524,0.61546 -0.14743,1.44602 -0.01571,2.01243c0.07934,0.34119 0.17644,0.67501 0.28627,1.00355c-0.03052,-0.93171 0.16097,-1.9093 0.44882,-2.77285zM225.44721,158.89443c-0.1832,-0.05346 0.02608,-0.69084 -0.11388,-0.56109c-0.4134,0.38325 -0.43847,0.93316 -0.26502,1.51191c0.22938,-0.34265 0.43245,-0.68438 0.47614,-0.94125c-0.03188,0.00277 -0.06425,0.00006 -0.09724,-0.00957zM221.75286,166.40614c-0.10721,-0.24123 -0.12244,-0.44709 -0.08678,-0.61943l-0.5605,0.66051c-0.28684,-0.57369 -0.54924,-1.26371 -0.67498,-1.93683l-0.16393,0.12295c-0.60329,-0.6787 -0.4929,0.53757 -0.43462,0.81197c0.09061,0.42661 0.99808,1.01994 1.04172,1.34759c0.02036,0.15282 -0.55592,0.20528 -0.40322,0.22653c0.50108,0.06974 0.99325,-0.16227 1.48844,-0.29185c-0.0766,-0.08255 -0.14679,-0.1879 -0.20613,-0.32143zM224.0908,164.02986l0.15986,-0.03996c-0.0046,-0.05414 -0.00923,-0.10862 -0.01382,-0.16337c-0.10756,0.08193 -0.22474,0.15472 -0.14604,0.20333zM218.44868,167.18377c-0.04244,0.10646 -0.42566,-0.14805 -0.3348,-0.0782c0.31808,0.24453 0.61046,0.44399 0.89325,0.6055c-0.2079,-0.21174 -0.38383,-0.44964 -0.5235,-0.70741c-0.00024,0.06002 -0.01101,0.12007 -0.03494,0.18011z" fill="#588343" stroke="none" stroke-width="0.5" stroke-linecap="butt"/><path d="M266.99805,169.27096c0.06238,0.99805 -0.99805,1.06238 -0.99805,1.06238h-0.5c-0.83203,-0.23234 -2.51364,0.10118 -3.83333,0.2587v0.07464h-1c-0.12639,0 -0.2473,-0.02345 -0.35863,-0.06623c-0.28686,-0.09747 -0.64137,-0.33836 -0.64137,-0.93377c0,-0.59541 0.35451,-0.8363 0.64137,-0.93377c0.02109,-0.00811 0.04252,-0.01552 0.06428,-0.02221l0.27823,-0.09274c-0.29234,-0.0901 -0.45331,-0.29132 -0.54195,-0.4856l-0.3098,-0.4647c-0.21279,-0.03597 -0.4385,-0.15775 -0.63085,-0.44628c-0.5547,-0.83205 0.27735,-1.38675 0.27735,-1.38675c0.2788,-0.18587 0.59687,-0.35898 0.94019,-0.51669c0.05587,-0.18259 0.11562,-0.36299 0.17772,-0.54193c-0.67034,-0.04453 -1.33227,-0.10933 -1.89655,-0.10933c-0.12639,0 -0.2473,-0.02345 -0.35863,-0.06623c-0.28686,-0.09747 -0.64137,-0.33836 -0.64137,-0.93377c0,-0.38696 0.14974,-0.62419 0.33333,-0.76961v-1.23039h0.0918c0.06482,-0.79549 0.1403,-1.64307 0.14108,-2.4351c-0.9872,0.46247 -1.89192,1.57025 -2.98688,2.11775l-0.1552,0.62082l-1.24447,-0.31112c-0.51698,0.21881 -1.12984,0.34098 -1.84633,0.34098c0,0 -1,0 -1,-1c0,-1 1,-1 1,-1c1.15137,0 1.26786,-0.25324 1.98658,-0.62703c-0.03251,-0.54878 -0.07572,-2.69755 -0.10289,-2.90788c-0.11087,-0.85823 -1.73809,-3.63454 -1.79289,-3.32828l-0.66667,-0.16667c0,0 -0.79379,-1.93245 0.20552,-1.96946c0.99931,-0.03701 0.27955,0.02917 0.27955,0.02917l0.66667,0.16667c2.09791,1.01868 3.48664,3.79934 3.54257,6.28436c0.09485,-0.16361 0.25824,-0.31514 0.53044,-0.41721c0.15802,-0.05926 0.29937,-0.08185 0.42518,-0.07845l-0.62876,-0.48393c1.78693,-1.19129 2.70982,-0.67897 3.17532,0.5066c0.07122,-0.00522 0.14219,-0.00788 0.21271,-0.00788c2.62325,0 3.4813,1.19358 3.57197,2.83711c0.14853,0.20056 0.29075,0.40419 0.42675,0.60819l-0.08223,-0.02105c0.28067,0.11599 0.62379,0.38093 0.58097,0.98033c-0.0276,0.3864 -0.1942,0.61243 -0.38796,0.74434c0.6022,0.47605 0.92257,1.23855 1.3905,1.85108v0.21504c0.26729,-0.05417 0.51626,-0.07028 0.66667,0.11829c1.43114,1.79423 0.85347,2.14819 -0.51711,3.11535l-0.5,0.16667c0,0 0.14911,-0.42495 0.30807,-0.77613c-0.17657,-0.13831 -0.3866,-0.38204 -0.56335,-0.60701c-0.2839,-0.07086 -0.56582,-0.14081 -0.83958,-0.06683c-0.59198,0.15998 -1.21418,0.34611 -1.80412,0.57277c-0.05288,0.33343 -0.08392,0.64522 -0.08392,0.92852c0,0.12639 -0.02345,0.2473 -0.06623,0.35863c-0.07029,0.20688 -0.21518,0.44894 -0.51384,0.56784l0.01937,0.05812c1.38455,-0.05339 2.69245,-0.2319 4.06069,-0.31793h0.5c0,0 0.93567,-0.06043 0.99805,0.93762zM263.15398,162.25412c-0.00657,0.03139 -0.01323,0.06282 -0.01996,0.09427c0.02457,-0.01893 0.04903,-0.03782 0.07336,-0.0564zM261.69458,160.88852c-0.21072,-0.27276 -0.43005,-0.5225 -0.73502,-0.84808c-0.32604,-0.34808 -0.63299,-0.5942 -0.92512,-0.75727c0.07232,1.19586 0.00984,2.46482 -0.02034,3.3835c0.43477,0 0.86955,0 1.30432,0c0.18028,-0.57036 0.32231,-1.1552 0.37616,-1.77814z" fill="#588343" stroke="none" stroke-width="0.5" stroke-linecap="butt"/><path d="M232.66667,138.66667c-4.23342,0 -8.33527,-0.66666 -12.66666,-0.66666c-3.03765,0 -10.05484,-1.35726 -9.83205,-5.0547c0.04381,-0.72706 1.69881,-1.51038 2.23205,-1.91197c2.13284,-1.59963 7.17596,-3.31404 9.93334,-2.03333c1.06885,0.49644 2.05588,1.50207 3.0547,2.16795c0.84848,0.56565 3.56505,-0.72177 5.11196,-0.83461c1.37858,-0.10056 3.19722,0.09097 4.5,-0.33334c0.15902,-0.05179 -0.45093,0.10557 -0.49872,-0.0547c-0.33907,-1.13725 2.64813,-1.87864 2.99872,-1.9453c0.35197,0 0.70367,-0.0019 1.05508,-0.00607c0.35495,-0.08783 0.51523,-0.06198 0.5851,-0.00913c2.73603,-0.05321 5.45457,-0.25795 8.1506,-0.79654c0.72497,-0.14483 2.1164,0.05353 2.72632,-0.47027c0.03373,-0.02897 0.18121,-0.25236 0.40268,-0.50797l-0.94065,-0.72996c0,0 0.33947,-0.5577 0.92044,-0.49754c2.1821,-1.36034 4.83352,-1.98252 7.26709,-1.98252c2.54305,0.0194 8.33664,1.21749 6.33333,4.66666c-0.21211,0.3652 -3.40165,0.31511 -3.62622,0.37377c-0.52981,0.13839 -3.24061,2.22925 -3.54173,2.68093c-1.80563,2.29843 -5.10718,2.90063 -7.51582,3.22732c-0.73078,0.09912 -1.31554,0.39026 -1.9107,0.59766l-0.58669,0.97781l-1.38827,-0.83297c0.39606,0.8024 0.73305,1.63737 1.01812,2.49258c0.80364,3.00917 -0.30137,5.62704 -0.84463,8.36226c1.5159,-0.87097 3.19738,-1.43581 4.78398,-0.37808c1.34432,0.89622 2.38411,1.74447 3.27193,2.65684c0.03066,-0.20602 0.1421,-0.42635 0.4067,-0.62479c0.8,-0.6 1.4,0.2 1.4,0.2c1.06566,1.42089 2.5481,1.71881 3.71977,3.06852c1.85449,2.13627 2.81356,5.26218 2.81356,8.03148v0.5c0,0 0.36559,0.36766 -0.50104,0.86662c-0.86662,0.49896 -1.49896,-0.86662 -1.49896,-0.86662v-0.5c0,-0.19377 -0.00567,-0.39396 -0.01713,-0.599c-0.20108,0.11337 -0.4113,0.21282 -0.6234,0.30943c0.30963,0.8234 0.3072,1.36111 0.3072,2.28957c0,2.72933 0.53853,7.67616 -1.9453,9.33205c-1.77922,1.03276 -3.42063,1.03778 -4.72088,-0.80104c-0.434,-0.61376 -0.42368,-3.27297 -0.4992,-3.47631c-0.86787,-2.33677 -1.19349,-4.46905 -1.96707,-6.78979c-0.17228,-0.51683 -1.86645,-3.62631 -1.76197,-3.98436c0.05346,-0.1832 0.69084,0.02607 0.56109,-0.11388c-0.1866,-0.20129 -1.90444,0.0396 -2.16667,0c-0.97699,-0.14756 -1.57834,0.98316 -2.38612,1.56109c-1.23934,0.8867 -2.86106,1.13888 -4.05918,1.93762c-0.97192,0.46194 -2.99059,0.05995 -3.68093,0.54172c-1.33079,0.92873 -2.30376,2.49633 -3.7071,3.29289c-0.12008,0.06815 -0.18016,-0.37261 -0.2929,-0.29289c-0.79756,0.56396 -2.67109,3.15781 -3.87377,2.29289h-0.83333c-0.55229,0 -1,-0.44771 -1,-1c0,-0.27614 0.11193,-0.52614 0.29289,-0.70711l0.80209,-0.80208c0.03715,-0.35911 0.01558,-0.8675 0.07297,-1.04551c0.35272,-1.09393 1.83205,-2.00001 1.83205,-2.9453c0.38765,-2.13208 2.12777,-3.31501 3.05131,-5.14956c0.93281,-1.85295 0.61535,-5.277 0.61535,-7.35044c0,-2.15075 -0.61346,-4.24185 -1.15071,-6.35363c-0.10822,0.0203 -0.18262,0.0203 -0.18262,0.0203z" fill="#664d34" stroke="none" stroke-width="0.5" stroke-linecap="butt"/><path d="M237.37895,111.35354c1.09786,-0.48273 2.37778,-1.17923 3.34197,-0.58616c0.28553,0.17562 0.58119,0.39039 0.88056,0.63853c0.06942,-0.01493 0.13888,-0.02929 0.2083,-0.04306c1.54737,-0.80886 3.23943,-1.27951 4.85688,-1.27951c0.77778,0 1.64904,-0.3697 2.33334,0c0.94817,0.51226 1.69252,1.33461 2.53878,2.00193c0.84368,1.26552 1.13621,2.72514 1.10899,4.20638c1.23178,0.15857 2.33358,0.47635 3.28529,0.95421c1.40759,-0.53933 2.85635,-0.77593 3.7336,-0.16251c2.81797,1.97045 4.37204,5.71239 5.19642,8.92857c1.01699,4.57645 -4.91064,4.8191 -8.46074,3.55121c-0.08508,0.00665 -0.16397,0.01325 -0.23568,0.02022c-1.20454,0.11709 -2.48524,0.18154 -3.78312,0.18619c-3.46858,4.54828 -9.40534,4.1886 -14.26392,1.81381c-1.51336,0 -3.02674,0 -4.5401,0c-0.22261,0.19826 -0.47142,0.35509 -0.75137,0.43167c-0.50917,0.13929 -1.02498,0.22629 -1.54455,0.2717c-0.45254,0.32808 -0.98454,0.61473 -1.60027,0.84663c-2.11396,0.79617 -4.30611,0.61949 -6.28797,-0.14335c-0.16769,0.68123 -0.47965,1.24311 -0.99395,1.56301c-0.37308,0.23206 -1.25003,0.6042 -2.29304,0.93481c0.06209,0.18259 0.10718,0.3888 0.13046,0.62166c0.22388,2.23883 -2.01495,2.46272 -2.01495,2.46272c-3.29238,0.32924 -5.58584,0.65702 -8.31488,-1.48118c-0.30923,-0.24228 -0.8879,-0.44431 -0.83334,-0.83334c0.08939,-0.63738 0.27492,-1.25161 0.49947,-1.85643c-0.4974,-0.30957 -0.97855,-0.64778 -1.44726,-0.98649c-1.24519,-0.89983 -1.25623,-2.8211 -1.37788,-4.0814c-0.03137,-0.32497 -0.24158,-3.4676 0,-3.66667c3.33697,-2.74971 5.46142,-3.04502 9.1218,-1.76243c0.55464,-0.60988 1.14816,-1.09257 1.77582,-1.47865c0.13057,-0.95633 0.39465,-1.90499 0.77779,-2.78544c-1.16861,-2.02384 -1.34452,-4.20385 0.65026,-6.8978c0.28053,-0.37885 0.56076,-0.82885 1,-1c0.20639,-0.08042 0.41436,-0.15175 0.62367,-0.21497c0.14946,-0.52374 0.4036,-1.00319 0.7845,-1.40642c0.98713,-1.04499 2.5066,-1.97598 4.19322,-2.56085c2.90364,-2.34077 7.30802,-2.17857 10.19505,0.52515c0.70524,0.66046 1.2366,2.42665 1.50683,3.26827zM211.23659,126.30114c0.02907,-0.22142 0.04635,-0.43906 0.01342,-0.63448c-0.04403,-0.26126 -0.02806,0.19447 -0.01342,0.63448zM259.49998,121.3996c0.02728,0.08375 0.05339,0.16851 0.07833,0.25429c0.01276,0.00398 0.02551,0.00798 0.03826,0.01199c0.0215,-0.02142 0.03847,-0.04859 0.05009,-0.08255c0.04619,-0.13493 -0.02882,-0.18182 -0.16668,-0.18373z" fill="#588343" stroke="none" stroke-width="0.5" stroke-linecap="butt"/><path d="M236.33872,131.46548c-1.24998,0.55461 -2.5736,1.00396 -3.92971,1.12552c-0.534,0.04786 -0.90256,-0.24338 -1.15518,-0.7184c-0.18383,0.20959 -0.49319,0.38775 -0.692,0.56782c-2.04074,1.84841 -3.43151,2.61465 -6.27653,1.66896c-0.15858,-0.05272 -0.53714,-0.27898 -1.0027,-0.59122c0.40165,0.58207 0.63406,1.33602 0.63406,2.31518c-0.26986,0.96506 -0.37205,1.99365 -0.80958,2.89516c-0.78181,1.61085 -3.33549,2.21857 -4.94042,2.18816c-4.28303,-0.08115 -8.61836,-1.57535 -10.72738,-5.59847c-1.74841,-3.33521 0.6296,-8.021 1.78732,-11.10823c0,0 0.79002,-2.10674 2.89676,-1.31671c1.34388,0.50396 1.50904,1.54369 1.45244,2.2306c0.41215,0.27348 0.72897,0.67915 0.89,1.15652l0.64874,1.78403c0.27668,0.40216 0.48246,0.96779 0.66667,1.83333c0.08336,0.39169 0.11686,0.96692 0.12971,1.55255c0.11785,0.00412 0.23657,0.00811 0.35598,0.0121c0.10135,-0.51359 0.13675,-1.1296 0.09497,-1.64156c-0.1186,-0.2284 -0.20847,-0.50389 -0.25591,-0.83596c-0.05382,-0.37673 -0.03481,-0.69885 0.03392,-0.97404l-0.04536,-0.45361c0,0 0.09978,-0.03232 0.26945,-0.08204c0.54078,-0.87727 1.65118,-1.0359 1.65118,-1.0359c0.91185,-0.13026 1.69487,-0.10203 2.3953,0.04135c0.00386,-0.04946 0.00624,-0.09861 0.00624,-0.14729l0.59676,-1.8915c-0.68598,-0.12226 -1.44836,-0.45134 -2.40859,-1.00142c-3.84447,-2.20236 -2.92955,-8.08389 -0.85291,-10.9792c0.87138,-1.21489 3.1873,-1.36215 4.04263,-2.04263l1.31397,-1.97096c0.15398,-0.23842 0.3518,-0.44586 0.58207,-0.61092c0.53089,-0.41151 1.40796,-0.77741 2.50364,-0.0773c0.03272,0.02053 0.06487,0.04188 0.09643,0.06401c0.86439,0.59579 1.03592,1.32735 0.97916,1.92923l0.30235,3.02347l-0.14459,0.01446c0.52872,0.10171 0.99159,0.3885 1.31854,0.7903l0.32196,-0.13387c0,0 0.26158,0.61034 0.16896,1.30997c0.00858,0.07983 0.01297,0.16091 0.01297,0.24301c0,0.85192 -0.47346,1.59325 -1.17161,1.97522l-0.00603,0.00345c0.04872,0.03647 0.09111,0.0735 0.12636,0.11108c0.03573,0.03808 0.07111,0.07592 0.10616,0.11351l0.56724,0.37816l-0.0928,0.1392c2.9854,3.31748 2.90123,4.58131 -1.11265,6.52939c-0.89469,0.43422 -1.97044,0.34521 -3.02857,-0.01556c0.63193,1.03727 0.23125,1.91035 -0.15277,2.41518c0.02288,0.0025 0.04577,0.00493 0.06867,0.00726l0.36267,-0.32354c0,0.10099 0.02619,0.22677 0.05816,0.35803c0.39671,0.02583 0.79512,0.03622 1.19184,0.05863c2.54304,0.14369 3.7282,0.47549 4.57407,2.52523c-0.02227,-0.55842 -0.01287,-1.09721 0.00161,-1.53288c0.01566,-0.47115 0.62115,-0.71948 1,-1c2.38128,-1.76326 2.5039,-1.65901 4.92432,-1.65901c0,0 0.50011,0 1.02877,0.23578c0.59316,-0.05066 1.19482,-0.04315 1.78943,-0.0465c1.68373,-0.00947 2.83693,1.19014 4.29811,1.77384c0.40408,0.16142 1.96453,0.04999 2.09606,0.43739c0.17538,0.51657 1.3969,4.71042 -0.48388,5.62323c-0.90151,0.43753 -1.93011,0.53973 -2.89516,0.80958c-3.12143,0 -3.79151,-0.34767 -6.16128,-2.45119zM220.98487,130.56072c-0.0436,-0.01792 -0.08757,-0.0329 -0.13188,-0.0452c0.00239,0.04198 0.00439,0.08301 0.00594,0.12331c0.13779,-0.02133 0.21816,-0.0402 0.12594,-0.07811zM227.34731,119.86637c0.12546,-0.01954 0.23394,-0.05646 0.31936,-0.11637c0.10106,-0.07088 -0.02363,-0.0657 -0.20897,-0.05458c-0.03078,0.04041 -0.0629,0.07975 -0.09629,0.11795c-0.00462,0.01771 -0.00931,0.03539 -0.01409,0.053zM220.68253,131.91346c0.26114,0.06805 0.51301,0.14737 0.75301,0.24017c-0.24618,-0.20081 -0.47271,-0.39621 -0.6617,-0.57442c-0.0243,0.10391 -0.05441,0.21427 -0.09131,0.33425zM218.09713,136.04497c-0.26644,0.20535 -0.54608,0.37712 -0.83841,0.51349c0.68471,0.107 1.38986,0.1042 2.11277,-0.06405c-0.21813,-0.11803 -0.46203,-0.28798 -0.65627,-0.33098c-0.20487,-0.04536 -0.41118,-0.08338 -0.61808,-0.11846zM219.85964,135.48755c0.00949,0.0262 0.01849,0.05247 0.02696,0.07879c0.13155,-0.08212 0.25399,-0.1727 0.33965,-0.29484c0.11511,-0.16413 -0.11131,0.01159 -0.36661,0.21605z" fill="#466735" stroke="none" stroke-width="0.5" stroke-linecap="butt"/><path d="M239.53712,116.59249c0.34204,-0.80276 0.72054,-1.51681 0.72054,-1.51681l0.83334,0.83333c-0.25255,0.05811 -0.99606,0.07272 -0.75765,0.17433c2.21653,0.9447 4.28288,-0.33674 6.87211,1.00193c1.63578,0.84571 0.41035,3.92005 -0.53878,5.49808c-0.2746,0.45654 -4.19591,-0.11383 -4.74847,-0.18043c-5.4854,-0.66115 -6.65291,-3.4712 -7.15703,-8.51235c0,0 -0.22388,-2.23883 2.01495,-2.46272c2.23883,-0.22388 2.46272,2.01495 2.46272,2.01495c0.08756,0.87555 0.07491,2.07482 0.29828,3.1497z" fill="#466735" stroke="none" stroke-width="0.5" stroke-linecap="butt"/><path d="M261.45639,130.03027c-0.76851,1.00868 -1.67239,1.01573 -2.31493,0.82979l0.57005,0.27447c-1.87318,0.62439 -2.62665,1.0216 -5.01929,0.69637c-2.50305,-0.34025 -3.43922,-3.08089 -3.88722,-5.55653l-0.03762,0.0047l-0.15462,-1.23694c-0.0691,-0.50988 -0.12336,-0.98458 -0.17442,-1.39534c-0.01428,-0.10244 -0.02167,-0.20709 -0.02167,-0.31346c0,-0.18545 0.02244,-0.36565 0.06474,-0.53805c0.13478,-0.65681 0.56097,-1.49959 1.84033,-1.68568c0.03788,-0.00583 0.07606,-0.01071 0.11454,-0.01463c1.06978,-0.11774 1.68226,0.34802 2.02888,0.85485l1.45918,1.45918l-0.87172,0.87172l0.18003,1.44019l-0.08232,0.01029c0.11688,0.79106 0.31214,1.53484 0.67979,1.984c0.10359,0.12655 0.15469,-0.42746 0.31103,-0.37945c0.45684,0.14033 0.68926,0.81144 1.16667,0.83333c0.3186,0.01461 -0.71103,-0.54876 -0.51929,-0.80363c0.31684,-0.42118 1,-0.33334 1.5,-0.5l2.74177,0.01148c0,0 1.78972,1.3636 0.42613,3.15332z" fill="#466735" stroke="none" stroke-width="0.5" stroke-linecap="butt"/><path d="M245.89693,134.03596c0.29737,2.23026 -2.23026,2.54737 -2.23026,2.54737h-1.33333c-1.01347,-0.12267 -1.88528,0.23054 -2.84481,0.52015c0.27549,0.70562 0.42815,1.54897 0.42815,2.56318c-0.01504,1.72823 -0.08933,3.5337 -0.51526,5.21965c-0.31954,1.26482 -1.32676,2.46884 -1.48474,3.78035c-0.25694,2.13301 -0.05881,4.22522 -0.70109,6.24232c2.02351,-0.72745 3.59804,-1.62549 5.19343,-3.49997c0.89595,-1.05269 2.03513,-3.58496 3.67625,-3.61446c4.37276,-0.07859 6.38534,2.97282 7.78686,6.62404c0.49575,1.29151 0.35707,2.68074 1.0293,3.86176c0.97036,2.26417 1.34859,4.25893 1.34859,6.71965l-0.41795,-0.33373c0.40071,0.4912 0.68878,1.24431 0.20975,2.27901c-0.94528,2.0418 -2.98708,1.09652 -2.98708,1.09652l-1.30472,-3.0418c0,-1.84954 -0.2404,-3.21022 -0.98474,-4.94701c-0.88604,-2.33136 -1.09396,-3.38243 -2.20533,-5.59629c-0.21296,-0.42421 -0.49698,-0.85868 -0.5,-1.33333c-0.0011,-0.173 0.59919,-0.03528 0.49043,-0.16981c-0.28159,-0.34832 -1.1765,-0.21887 -1.16667,-0.66667c0.00192,-0.08769 0.0296,-0.16245 0.07619,-0.22721c-0.10572,0.06484 -0.19498,0.12896 -0.25443,0.1884c-0.67064,0.67064 -1.00335,1.61761 -1.61446,2.34291c-1.67228,1.98478 -3.52789,3.18261 -5.65593,4.08142l0.04481,0.14937l-1.96575,0.58972l-0.5671,1.32324l-2.04185,-0.87508c-0.38058,-0.08059 -0.78351,-0.26787 -1.10584,-0.65875c-0.61156,0.56678 -1.2639,1.02948 -1.87499,1.22341c-0.17246,0.05473 -0.12709,-0.67953 -0.18809,-0.50919c-0.33916,0.94727 -0.22222,2 -0.33333,3c0,0 -0.24847,2.23624 -2.48471,1.98777c-2.23624,-0.24847 -1.98777,-2.48471 -1.98777,-2.48471c0.26751,-2.40757 0.50444,-4.39792 2.64525,-6.00919c0.87366,-0.65756 2.06199,-0.89644 2.80801,-1.69589c0.1052,-0.11273 -0.45763,0.05464 -0.45176,-0.09944c0.03848,-1.01004 0.9269,-2.41812 1.05192,-3.49272c0.09458,-0.81292 -0.17095,-1.6425 -0.06718,-2.45429c0.4146,-3.24327 2.04252,-5.64776 2,-9c0,-0.44444 0.11429,-0.90383 0,-1.33333c-0.03263,-0.12263 -0.18906,0.32656 -0.28878,0.24808c-0.31482,-0.24776 -0.32463,-0.79142 -0.66667,-1c-0.10735,-0.06546 -2.75143,0.05259 -3.46122,0.00192c-2.02565,-0.1446 -3.69654,-0.71964 -5.55299,-1.51526l-3.32818,-2.66996c0,0 -0.39811,-2.2145 1.81639,-2.61261c2.2145,-0.39811 2.61261,1.81639 2.61261,1.81639l0.67182,-0.66996c2.71182,1.16221 6.54035,1.10805 9.28307,2.28319c0.37061,-1.04276 1.54582,-1.37854 1.54582,-1.37854c1.544,-0.44114 2.64281,-0.6804 4.28479,-0.75324h1.33333c0,0 1.93289,-0.27763 2.23026,1.95263zM248.36506,151.61638c0.07695,-0.02506 0.15029,-0.05039 0.21635,-0.0776c0.20198,-0.08319 0.05176,-0.03422 -0.21635,0.0776z" fill="#58422d" stroke="none" stroke-width="0.5" stroke-linecap="butt"/><path d="M260.0725,159.79178c-2.12512,0.73917 -2.86429,-1.38595 -2.86429,-1.38595l-0.10751,-1.12676c-0.30517,-2.44134 -0.92787,-3.96357 -2.30615,-6.031c0,0 -1.24808,-1.87211 0.62404,-3.12019c1.87211,-1.24808 3.12019,0.62404 3.12019,0.62404c1.73649,2.60473 2.63626,4.84164 3.02718,7.969l-0.10751,0.20657c0,0 0.73917,2.12512 -1.38595,2.86429z" fill="#58422d" stroke="none" stroke-width="0.5" stroke-linecap="butt"/></g></g></svg>