<svg version="1.1" xmlns="http://www.w3.org/2000/svg" xmlns:xlink="http://www.w3.org/1999/xlink" width="76.57662" height="58.56079" viewBox="0,0,76.57662,58.56079"><g transform="translate(-191.86329,-159.28173)"><g data-paper-data="{&quot;isPaintingLayer&quot;:true}" fill="none" fill-rule="nonzero" stroke="none" stroke-width="0.5" stroke-linecap="butt" stroke-linejoin="miter" stroke-miterlimit="10" stroke-dasharray="" stroke-dashoffset="0" font-family="none" font-weight="none" font-size="none" text-anchor="none" style="mix-blend-mode: normal"><path d="M264.05921,207.19517c-0.14104,0.3526 -0.31422,0.63022 -0.50652,0.84749l0.65131,-0.12945c-0.52284,3.13703 -1.30768,5.09962 -4.11419,6.99707c-1.05475,0.7131 -3.32097,0.39514 -4.56251,0.7294c-1.76992,0.47651 -3.4862,1.17501 -5.25176,1.67946c-2.76996,0.66121 -5.46594,0.50803 -8.30584,0.50803c-8.91769,0 -18.28134,-1.58141 -24.19152,-8.96914c-1.31913,-2.49238 -1.04794,-3.74824 -1.08778,-5.68728c-0.59488,0.46286 -1.21571,0.90474 -1.78182,1.34156c-4.03598,3.11419 -11.13899,4.70726 -15.47867,1.23552c-7.15159,-5.83461 -11.19753,-20.48039 -3.0888,-26.96738c0,0 1.95217,-1.56174 3.51391,0.39043c1.56174,1.95217 -0.39043,3.51391 -0.39043,3.51391c-0.6864,0.54912 -1.51249,0.95904 -2.0592,1.64736c-0.84251,1.06074 -0.29726,3.4771 -0.29726,4.84319c0,4.71722 1.68984,9.7531 5.44526,12.66814c2.78087,2.2247 7.55336,0.10717 10.26132,-2.0592c0.6864,-0.54912 1.43764,-1.0258 2.0592,-1.64736c0.25556,-0.25556 0.99696,-1.71445 1.25692,-1.66876c2.86802,0.50407 4.7677,0.80359 5.14756,3.24221c0.30914,1.98463 -0.44733,4.65887 0.12829,6.55633c0.058,0.19119 0.1839,-0.35476 0.27585,-0.53214c4.94412,6.18016 12.86322,7.09261 20.28718,7.09261c2.11019,0 4.97281,0.50394 6.93223,-0.31565c2.23178,-0.63765 4.36982,-1.50896 6.65932,-1.91545c0.70279,-0.12478 3.20164,-0.14891 3.70656,-0.61776c0.21001,-0.19501 -0.84097,0.13027 -0.84545,-0.15629c-0.01491,-0.95319 0.69294,-1.79047 0.84966,-2.73081l3.39446,-3.14571c0,0 2.32119,0.92848 1.39272,3.24967z" fill="#43a755"/><path d="M265.57166,207.30627c0.19595,4.24548 -4.04954,4.44143 -4.04954,4.44143l-0.73277,1.18221c-8.61221,1.43537 -17.57707,0.05783 -26.23277,0.05783c0,0 -0.57827,0 -1.30819,-0.2133c-2.55129,2.43677 -5.46516,0.10568 -5.46516,0.10568c-4.05378,-3.24302 -7.043,-6.42968 -8.79007,-11.44704c-0.37497,-1.07686 -0.72434,-1.39252 -1.52912,-2.15241c-0.8327,0.77915 -2.30879,1.8242 -2.37749,1.87362c-3.30708,2.20472 -6.53208,2.36115 -10.38835,2.36115c-1.47166,0 -4.13666,0.02611 -5.25645,-1.04178c-4.85455,-4.62956 -5.51594,-12.98203 -2.99378,-19.16195c0.04038,-0.56948 0.22458,-1.18281 0.63014,-1.81976c0.42326,-6.7271 5.60854,-12.38596 11.97758,-11.53094c-0.00087,-0.00388 -0.00173,-0.00776 -0.0026,-0.01164c-0.51536,-2.30684 -0.90893,-8.64544 2.0077,-9.95995c4.04415,-1.82268 9.03722,0.45108 12.53392,3.61391c0.82776,-1.8898 2.03101,-3.07992 4.63664,-4.08428c2.94229,-1.13412 7.7718,2.06962 9.98489,3.84904c0.61315,0.493 1.23025,0.98398 1.87531,1.43433c0.65419,-0.71982 2.77859,-1.5365 3.14677,-1.67956c2.35777,-0.91613 5.01341,-0.2964 7.3469,0.41184c3.17421,1.05807 5.42381,4.73513 6.52322,7.75874c0.26487,0.72845 0.31435,1.51937 0.25758,2.31131c0.07287,0.04132 0.13918,0.08316 0.19531,0.12279c1.02377,0.72275 1.8339,1.71706 2.64073,2.67597c2.00497,2.38288 2.33417,5.52893 1.62955,8.35784c1.04369,0.51389 2.2023,1.21005 2.74238,1.87571c1.36583,1.68344 2.89095,5.06148 2.57966,7.75765c0.10543,0.13417 0.19449,0.28285 0.2645,0.44753c1.9378,4.55842 1.01867,8.87134 -1.90706,11.84801c0.03,0.19419 0.05056,0.39933 0.06056,0.61605zM264.29468,198.74655c-0.00867,-0.06878 -0.04622,-0.12722 -0.10239,-0.1783l-0.2897,0.14485c0.21822,0.09729 0.41155,0.18789 0.39208,0.03346z" fill="#49b75d"/><path d="M253.81742,178.82355c-1.38565,2.37539 -3.76104,0.98975 -3.76104,0.98975l0.10987,0.33719c-4.89626,-0.81604 -7.72316,-2.96966 -10.75577,-6.76043c0,0 -1.71791,-2.14739 0.42948,-3.8653c2.14739,-1.71791 3.8653,0.42948 3.8653,0.42948c2.3026,2.87825 3.74216,4.16725 7.36518,4.77109l1.75723,0.33719c0,0 2.37539,1.38565 0.98975,3.76104z" fill="#6eb87b"/><path d="M236.60443,175.78486c-1.22984,2.45967 -3.68951,1.22984 -3.68951,1.22984l-1.23552,-0.41184c-2.77378,-1.38689 -5.53304,-2.56493 -8.12055,-4.28993c0,0 -2.28814,-1.52543 -0.76271,-3.81356c1.52543,-2.28814 3.81356,-0.76271 3.81356,-0.76271c2.40563,1.60375 4.94387,2.65411 7.52937,3.94686l1.23552,0.41184c0,0 2.45967,1.22984 1.22984,3.68951z" fill="#6eb87b"/><path d="M213.2738,173.73134c0,-1.51878 1.23122,-2.75 2.75,-2.75c1.51878,0 2.75,1.23122 2.75,2.75c0,1.51878 -1.23122,2.75 -2.75,2.75c-1.51878,0 -2.75,-1.23122 -2.75,-2.75z" fill="#6eb87b"/><path d="M215.18014,190.81443c-1.84501,2.03922 -3.88424,0.19421 -3.88424,0.19421l-0.62035,0.42045c-4.30317,-2.15158 -6.5148,-4.79849 -8.64295,-9.05479c0,0 -1.22984,-2.45967 1.22984,-3.68951c2.45967,-1.22984 3.68951,1.22984 3.68951,1.22984c1.65192,3.30384 2.90939,4.95817 6.18328,6.59512l1.85069,0.42045c0,0 2.03922,1.84501 0.19421,3.88424z" fill="#6eb87b"/><path d="M232.27546,185.54518c-0.69416,2.66095 -3.35511,1.96679 -3.35511,1.96679l-0.58162,0.05164c-3.42267,-0.57044 -6.29207,-1.15679 -9.42638,-2.72395c0,0 -2.45967,-1.22984 -1.22984,-3.68951c1.22984,-2.45967 3.68951,-1.22984 3.68951,-1.22984c2.76788,1.38394 4.84321,1.71352 7.8709,2.21813l1.06574,0.05164c0,0 2.66095,0.69416 1.96679,3.35511z" fill="#6eb87b"/><path d="M251.60501,184.81755c-0.79021,2.63402 -3.42423,1.84382 -3.42423,1.84382l-0.07373,0.07856c-3.0875,-0.51458 -5.80079,-1.32299 -8.6027,-2.72395c0,0 -2.45967,-1.22984 -1.22984,-3.68951c1.22984,-2.45967 3.68951,-1.22984 3.68951,-1.22984c2.33809,1.16905 4.4716,1.78886 7.04722,2.21813l0.74995,0.07856c0,0 2.63402,0.79021 1.84382,3.42423z" fill="#6eb87b"/><path d="M247.85187,196.07849c-0.93148,2.58744 -3.51892,1.65596 -3.51892,1.65596l-1.16798,0.12514c-3.70365,-0.61727 -6.49297,-2.11148 -9.65404,-4.08715c0,0 -2.332,-1.4575 -0.8745,-3.78949c1.4575,-2.332 3.78949,-0.8745 3.78949,-0.8745c2.56689,1.60431 4.67868,2.83188 7.64324,3.32597l2.12674,0.12514c0,0 2.58744,0.93148 1.65596,3.51892z" fill="#6eb87b"/><path d="M236.60065,205.63531c-1.83965,2.04406 -3.88371,0.20441 -3.88371,0.20441l-1.56821,-0.75513c-2.57177,-2.14314 -4.79906,-4.37057 -6.94154,-6.94154c0,0 -1.76051,-2.11261 0.3521,-3.87312c2.11261,-1.76051 3.87312,0.3521 3.87312,0.3521c1.93418,2.32102 3.91739,4.30404 6.23734,6.23734l1.72651,0.89223c0,0 2.04406,1.83965 0.20441,3.88371z" fill="#6eb87b"/><path d="M251.98674,198.85357c0,-1.51878 1.23122,-2.75 2.75,-2.75c1.51878,0 2.75,1.23122 2.75,2.75c0,1.51878 -1.23122,2.75 -2.75,2.75c-1.51878,0 -2.75,-1.23122 -2.75,-2.75z" fill="#6eb87b"/></g></g></svg>