<svg version="1.1" xmlns="http://www.w3.org/2000/svg" xmlns:xlink="http://www.w3.org/1999/xlink" width="114.29044" height="68.07574" viewBox="0,0,114.29044,68.07574"><g transform="translate(-180.73414,-145.11411)"><g data-paper-data="{&quot;isPaintingLayer&quot;:true}" fill="#f4ffff" fill-rule="nonzero" stroke="none" stroke-width="0.5" stroke-linecap="butt" stroke-linejoin="miter" stroke-miterlimit="10" stroke-dasharray="" stroke-dashoffset="0" font-family="none" font-weight="none" font-size="none" text-anchor="none" style="mix-blend-mode: normal"><path d="M205.68937,195.26238c-2.11143,-3.05135 -5.82183,-3.33875 -9.40125,-2.42516c-2.96737,0.65942 -5.73453,1.12157 -8.7731,1.12157c-0.88503,0 -1.86349,0.3958 -2.65509,0c-7.7792,-3.8896 -2.61135,-14.62631 -0.19712,-20.42105c1.00846,-2.42055 1.56393,-3.72235 3.47628,-5.58517c4.91739,-3.68804 10.17327,1.77532 15.18644,1.39258c1.09613,-0.08369 2.93622,-3.66886 3.57316,-4.69613c3.07157,-4.95383 6.18267,-9.85092 9.68086,-14.51656c4.26092,-5.68123 12.83368,-5.74094 18.98661,-4.05782c2.05204,0.56133 3.86664,0.87383 5.48859,2.49578c2.89852,2.89852 4.15635,6.86111 6.42132,10.17157c0.86811,1.30216 2.40629,4.33969 4.19903,4.69693c0.31918,0.0636 -0.84513,-0.44742 -0.66275,-0.71696c0.2529,-0.37375 0.90938,-0.09584 1.32754,-0.26551c0.9671,-0.39239 2.0868,-1.48631 2.91119,-2.15581c1.93527,-1.57167 3.51135,-3.47304 5.36966,-5.12577c1.51176,-1.34453 3.62611,-2.52872 4.77916,-4.24814c0.35008,-0.52204 0.06415,-1.37134 0.50861,-1.8158c0.7853,-0.7853 1.81351,-1.28249 2.72026,-1.92373c6.00669,-2.40268 12.63879,4.48528 12.67274,10.32719c0.01491,2.56465 -0.47889,4.6238 -1.54293,6.9185c-0.85982,1.8543 -2.10308,3.48405 -2.83547,5.38613c-0.17126,0.44477 -0.86505,0.98758 -0.53102,1.32754c0.31621,0.32183 0.24381,-1.20487 0.69302,-1.16267c0.56421,0.053 0.59824,1.00191 1.06204,1.32754c0.04503,0.03161 2.44734,0.32853 3.05177,0.43783c3.76813,0.75363 8.83012,-2.11553 11.78233,2.22989c4.80834,7.07752 0.52603,19.43808 -6.56498,22.98694c-6.01708,2.40683 -11.87219,1.71893 -18.18656,1.24084c-3.79555,-0.28738 -8.95565,-1.67774 -12.48488,0.40273c-0.35605,0.20989 -1.76763,2.14088 -2.20891,2.58217c-4.89588,4.89588 -12.06305,13.05959 -19.82237,11.88361c-2.93578,-0.44494 -6.5773,-1.51051 -9.25111,-2.77147c-1.23646,-0.58311 -3.74951,-3.25668 -5.35188,-2.53871c-0.91246,0 -2.13556,0.09905 -3.47598,0.17001c0.12382,0.52639 0.24097,1.06496 0.35175,1.61886c0,0 0.49029,2.45145 -1.96116,2.94174c-2.45145,0.49029 -2.94174,-1.96116 -2.94174,-1.96116c-0.18982,-0.94909 -0.39573,-1.84528 -0.6222,-2.70957c-2.24711,-0.32955 -4.14473,-1.18798 -4.76754,-3.18395c-0.97046,-3.11011 -0.18611,-6.23761 -0.00433,-9.3788z"/></g></g></svg>