<svg version="1.1" xmlns="http://www.w3.org/2000/svg" xmlns:xlink="http://www.w3.org/1999/xlink" width="47.24126" height="48.70815" viewBox="0,0,47.24126,48.70815"><g transform="translate(-219.84585,-151.73767)"><g data-paper-data="{&quot;isPaintingLayer&quot;:true}" fill="none" fill-rule="nonzero" stroke="none" stroke-width="0.5" stroke-linecap="butt" stroke-linejoin="miter" stroke-miterlimit="10" stroke-dasharray="" stroke-dashoffset="0" font-family="none" font-weight="none" font-size="none" text-anchor="none" style="mix-blend-mode: normal"><path d="M246.21064,153.13837l0.08355,-0.20776c2.43455,0.81152 5.18174,1.52798 6.81336,3.65323c0.57732,0.75198 1.9502,2.27388 1.86128,3.51701c-0.01253,0.17519 -0.60301,-0.02893 -0.51266,0.12168c0.26852,0.44763 0.59352,0.93931 1.07651,1.1373c1.36011,0.55757 3.04359,0.54444 4.46887,1.01953c2.03115,0.69745 3.95704,1.4554 5.57101,2.98372c3.86007,3.65522 -0.53796,10.14292 -3.42726,12.72172c-0.63681,0.56838 -1.63152,0.67099 -2.20347,1.30459c-0.37245,0.41259 -0.32346,1.17526 -0.79849,1.46389c-0.24829,0.15086 -0.60709,-0.8758 -0.64374,-0.58759c-0.06549,0.51508 0.62428,0.95288 0.53233,1.46389c-0.04737,0.26328 -0.95514,-0.18548 -0.80182,0.03373c0.6222,0.88957 2.0223,0.82004 2.94185,1.39701c1.97254,1.23765 3.51073,2.98735 3.7227,5.31902c-0.09535,7.0414 -8.11857,12.25112 -15.03546,11.40893c-2.45341,-0.29872 -4.43675,-5.5853 -5.4968,-7.47758c-0.36857,-0.65793 -1.08628,-1.2424 -1.06465,-1.99622c0.01266,-0.44139 1.33221,-0.27455 1.14123,-0.67269c-0.23868,-0.4976 -3.48595,0.24354 -3.73388,0.31116c-4.97688,1.14315 -12.49802,1.21747 -17.01916,-1.59698c-1.18089,-0.73512 -2.37464,-1.51824 -3.29369,-2.56239c-1.6716,-1.89913 0.89936,-5.88828 2.26601,-7.18341c2.88972,-2.73849 6.91566,-2.79396 10.41586,-3.84402c1.1061,-0.27241 2.49877,-1.22656 3.38,-0.50467c0.21988,0.18012 -0.70059,0.83847 -0.43696,0.73223c0.40731,-0.16415 0.49398,-0.89467 0.93157,-0.93157c0.28553,-0.02408 0.11261,1.10931 0.19933,0.8362c0.99282,-3.12632 -1.66965,-6.75767 -2.38682,-9.64039c-1.41925,-5.70479 1.15255,-9.68093 5.54569,-12.87594c0,0 2.02184,-1.47043 3.49227,0.55141c1.47043,2.02184 -0.55141,3.49227 -0.55141,3.49227c-1.50973,1.09798 -3.26655,2.02449 -3.91506,3.88966c-1.55848,4.48235 4.7074,9.84857 2.81533,14.58298c-1.8356,4.5931 -4.09973,2.9599 -7.6372,4.65695c-3.30354,0.99106 -6.50476,0.84885 -9.28013,3.34235c-0.34755,0.31225 -0.40521,0.85245 -0.49705,1.31056c-0.01504,0.07504 0.05166,0.01953 0.14177,-0.06034c-0.03829,-0.22808 -0.01334,-0.44242 0.12608,-0.6157c0.32499,-0.40392 3.8904,1.41031 4.3962,1.55461c2.65833,0.7584 7.4002,1.04271 9.99178,0.04236c4.09844,-1.11775 5.40167,-0.74615 8.32,2.83241c1.28047,1.57016 2.43194,4.15723 3.27259,6.01669c0.17249,0.38153 0.40359,0.80449 0.77532,0.99367c0.00061,-0.01203 0.00197,-0.02441 0.00411,-0.03714c0.15853,-0.94231 1.77442,-0.70976 2.66162,-1.06464c1.87317,-0.74927 4.80245,-1.3863 5.26134,-3.3982c0.12275,-0.53819 0.61624,-1.24482 0.2307,-1.63989c-0.04436,-0.48797 0.13898,-1.05639 -0.13308,-1.46389c-0.1433,-0.21464 -0.15145,0.71968 -0.40281,0.66118c-2.19547,-0.51095 -5.76781,-3.91739 -5.57867,-6.1549c0.40543,-4.7962 3.29112,-5.44219 5.92436,-8.62234c0.82795,-0.99991 2.87908,-3.53469 2.5706,-4.99988c-0.05383,-0.2557 -0.30869,0.71708 -0.52976,0.57779c-0.41962,-0.26439 -0.29743,-0.99829 -0.66541,-1.33081c-0.138,-0.1247 -0.07726,0.51102 -0.26233,0.49248c-0.86387,-0.08654 -1.59035,-0.70564 -2.41769,-0.96886c-2.22425,-0.74141 -5.50706,-0.68939 -6.96424,-2.90025c-0.84379,-1.28021 -1.00336,-2.90947 -1.7104,-4.26999c-0.62162,-1.19616 -3.13991,-1.717 -4.64612,-2.15857c-0.42535,0.01104 -0.73469,-0.06629 -0.73469,-0.06629l0.61326,-1.52487l0.59942,-3.32584c0,0 0.28382,0.07095 0.633,0.2614zM252.43871,195.58627c0.30793,0.27913 0.55325,0.52325 0.42049,0.30199c-0.08147,-0.13578 -0.24437,-0.22506 -0.42049,-0.30199z" fill="#68737c"/><path d="M253.20312,195.27206c-0.07549,0.00082 -0.15022,-0.00137 -0.22441,-0.00671c-0.10454,0.16272 -0.18592,0.29286 -0.23262,0.37691zM254.88384,194.89074c-0.10698,0.74367 -0.53248,1.69084 -1.95228,1.98531c-2.4479,0.50771 -2.95562,-1.94019 -2.95562,-1.94019l-1.60063,-1.72182c0.06096,-0.10973 0.28629,-0.55318 0.5691,-1.10211c-0.20518,-0.30057 -0.36019,-0.68046 -0.32975,-1.02192c-0.17293,-0.22472 -0.34601,-0.4515 -0.51759,-0.68052c-0.21086,0.52754 -0.65551,1.03955 -1.53673,1.33329c-2.37171,0.79057 -3.16228,-1.58114 -3.16228,-1.58114l-0.28902,-0.60452c-0.26616,-0.88721 -0.53232,-1.77441 -0.79849,-2.66162c0,0 -0.06525,-0.21752 -0.09087,-0.5411c-0.3818,0.05093 -0.75926,0.09725 -1.13467,0.13935c-0.06136,0.0274 -0.12345,0.05464 -0.18628,0.08173c-1.67488,0.50247 -3.35502,0.52266 -5.06975,0.51171c-0.16826,0.03635 -0.32446,0.04606 -0.45482,-0.00332c-0.26019,-0.00196 -0.52122,-0.00371 -0.78321,-0.00371c-0.66541,0 -1.33081,0 -1.33081,0c-0.64297,0 -1.22924,-0.24272 -1.67219,-0.64154c-1.56174,0.60414 -3.2821,0.69244 -5.35096,-0.24795c-0.10647,-0.27268 -0.22335,-0.54259 -0.34547,-0.8111c-1.03253,-0.30743 -1.78543,-1.26398 -1.78543,-2.39639c0,-0.43459 0.11089,-0.84328 0.30592,-1.19932c-0.04204,-0.17624 -0.07726,-0.3543 -0.10441,-0.53452c-0.06609,-0.43865 0.68055,-0.57656 1.06465,-0.79849c0.82968,-0.47938 1.65561,-0.99547 2.56465,-1.29849c0.71836,-0.23945 1.4599,-0.29786 2.20611,-0.26983c1.7503,-0.43119 3.52107,-0.77878 5.19305,-1.59553c0.14531,-0.07098 0.29566,-0.16197 0.44927,-0.26432c-0.62581,-0.45437 -1.03275,-1.19185 -1.03275,-2.02437c0,-1.38071 1.11929,-2.5 2.5,-2.5c0.67526,0 1.288,0.26772 1.73785,0.70281c0.00558,-0.90874 -0.02252,-1.86744 0.02075,-2.86065c0.01135,-0.26054 -0.00069,-0.56003 -0.01869,-0.87605c-0.13764,0.00789 -0.27577,0.01093 -0.41448,0.00842c-0.53408,-0.00968 -0.7641,-0.75613 -1.06465,-1.19773c-0.62341,-0.91596 -1.30194,-1.82314 -1.69613,-2.85864c-1.33848,-3.51611 1.54698,-6.60819 4.61632,-7.57826c-0.05967,-0.21405 -0.09156,-0.43969 -0.09156,-0.67277c0,-1.18416 0.8233,-2.17603 1.92871,-2.43443c0.09686,-0.41438 0.2968,-0.78911 0.57129,-1.0957c0.3558,-0.39739 0.83686,-0.68028 1.38112,-0.78658c0.44848,-0.66997 1.21222,-1.11108 2.07899,-1.11108c1.21772,0 2.23209,0.87062 2.45461,2.02335l0.44669,2.08458c0.32871,1.46642 0.83702,2.66804 1.40561,3.84247c0.46051,0.41887 0.75084,1.11822 0.98586,1.87752l0.0438,-0.01217l0.1318,0.47449c0.24497,0.50968 0.48691,1.04104 0.71756,1.61054c0.06867,0.16956 0.17224,0.36718 0.25742,0.56606c0.00811,-0.0071 0.01623,-0.01418 0.02437,-0.02125c1.4801,-1.28572 3.89104,-0.9002 5.69921,-0.19713c0.18395,-0.01573 0.38349,-0.01413 0.59991,0.00826c2.48673,0.25725 2.22948,2.74398 2.22948,2.74398l1.33167,1.58848c-0.2763,2.76304 -1.63276,4.76586 -2.72773,6.94149c-0.0856,0.71289 -0.18999,1.42052 -0.31594,2.11751c-0.21546,1.19231 -0.62137,2.26905 -1.17218,3.20905c-0.09612,1.97325 0.16395,4.07109 0.34469,6.11454h0.1573v0.25919c0.22033,-0.06353 0.45316,-0.09757 0.69395,-0.09757c1.38071,0 2.5,1.11929 2.5,2.5c0,0.81137 -0.38653,1.53247 -0.98549,1.9892l-1.17739,0.91575c0.13143,1.19974 -2.02704,1.33287 -3.13492,1.8117c-0.74791,0.32326 -1.37622,0.59908 -1.92859,0.80302z" fill="#68737c"/><path d="M258.99857,178.66995c-2.34082,-0.87781 -1.46301,-3.21863 -1.46301,-3.21863l1.6166,-0.58299c0.76702,-1.91754 0.81689,-2.45654 0.62831,-4.71948c0,0 -0.04775,-0.57295 0.17732,-1.19223c-0.96518,0.20306 -1.85409,-0.30489 -1.85409,-0.30489l-0.67617,-0.2007c-1.86806,-0.93403 -3.50677,-1.91427 -5.17288,-3.16385c0,0 -0.84084,-0.63063 -1.02322,-1.61929c-1.30136,0.7716 -2.66932,-0.21899 -2.66932,-0.21899l-1.09837,-1.35567c-2.12734,-1.59551 -3.46979,-3.06194 -5.94462,-3.88689c0,0 -2.37171,-0.79057 -1.58114,-3.16228c0.79057,-2.37171 3.16228,-1.58114 3.16228,-1.58114c2.91862,0.97287 4.93445,2.80853 7.36348,4.6303l1.03092,1.30596c0,0 0.87638,0.63462 1.05852,1.64541c1.32538,-0.78949 2.70147,0.24258 2.70147,0.24258c1.45424,1.09068 2.78702,1.88075 4.40895,2.69172l0.9208,0.33162c0,0 2.03349,1.162 1.03935,3.20481c0.13655,-0.03013 0.28313,-0.05235 0.44048,-0.06546c2.49136,-0.20761 2.69898,2.28375 2.69898,2.28375c0.22134,2.65613 0.04417,4.45958 -0.96866,6.99166l-1.57734,0.48166c0,0 -0.87781,2.34082 -3.21863,1.46301z" fill="#8e9daa"/><path d="M230.55803,177.95593c-0.56215,-2.43598 1.87383,-2.99813 1.87383,-2.99813l0.83623,0.06427l0.77474,-0.25825l0.86771,-1.73541l2.29221,1.1461c0.60307,0.15134 1.23444,0.56084 1.58928,1.53332c0.02393,0.063 0.04538,0.12722 0.06424,0.19254c0.41351,1.36449 -0.23268,2.18992 -0.82566,2.63529c-0.24581,0.19996 -0.53034,0.35414 -0.84062,0.44956c-0.78026,0.26009 -1.56051,0.52017 -2.34077,0.78026l-1.29307,0.06427c0,0 -2.43598,0.56215 -2.99813,-1.87383z" fill="#8e9daa"/><path d="M261.86012,189.97528c-2.20118,1.18525 -3.38643,-1.01593 -3.38643,-1.01593l-0.06498,-1.01606c-0.53232,-0.70977 -1.06465,-1.41953 -1.59697,-2.1293c0,0 -1.5,-2 0.5,-3.5c2,-1.5 3.5,0.5 3.5,0.5c0.53232,0.70977 1.06465,1.41953 1.59697,2.1293l0.46734,1.64556c0,0 1.18525,2.20118 -1.01593,3.38643z" fill="#8e9daa"/><path d="M240.42638,175.58216c-2.44698,0.51216 -2.95913,-1.93482 -2.95913,-1.93482l0.16245,0.23703c-1.85123,-4.16527 -2.61093,-7.62833 -2.61093,-12.19416c0,0 0,-2.5 2.5,-2.5c2.5,0 2.5,2.5 2.5,2.5c0,3.97368 0.58236,6.5688 2.17999,10.16346l0.16245,0.76935c0,0 0.51216,2.44698 -1.93482,2.95913z" fill="#586169"/><path d="M253.21115,199.82095c-1.93268,1.58579 -3.51847,-0.34689 -3.51847,-0.34689l-1.26665,-1.52185c-2.33379,-2.62552 -4.23449,-5.44847 -6.54809,-8.07526c-0.77986,0.24866 -1.5388,0.04777 -1.5388,0.04777l-1.48957,0.3494c-6.67645,0 -11.8331,-1.7947 -17.35648,-5.47695c0,0 -2.08013,-1.38675 -0.69338,-3.46688c1.38675,-2.08013 3.46688,-0.69338 3.46688,-0.69338c4.7865,3.191 8.83694,4.63721 14.58298,4.63721l2.76903,-0.18293c0,0 0.15917,0.04213 0.385,0.14562c1.59397,-0.88446 2.94158,0.57544 2.94158,0.57544c2.61469,2.83259 4.67307,5.95522 7.21789,8.81814l1.39497,1.67209c0,0 1.58579,1.93268 -0.34689,3.51847z" fill="#586169"/><path d="M253.63272,180.21074c-2.01848,1.47504 -3.49352,-0.54344 -3.49352,-0.54344l-0.1642,0.49486c-2.89842,-1.44921 -5.10965,-2.4865 -6.10886,-5.99216c-0.32446,-1.13835 0.53232,-2.30674 0.79849,-3.46011c0,0 0.56215,-2.43598 2.99813,-1.87383c2.43598,0.56215 1.87383,2.99813 1.87383,2.99813c-0.14526,0.62947 -0.19517,1.29619 -0.30585,1.93917c0.30651,0.11202 0.5253,0.72648 0.84694,0.94048c0.6511,0.4332 1.43391,0.62644 2.13339,0.97618l1.96509,1.02719c0,0 1.47504,2.01848 -0.54344,3.49352z" fill="#586169"/></g></g></svg>