<svg xmlns="http://www.w3.org/2000/svg" xmlns:xlink="http://www.w3.org/1999/xlink" version="1.1" width="291.1000061035156" height="291.1000061035156" viewBox="0 0.9000000953674316 291.1000061035156 291.1000061035156">
  <!-- Exported by Scratch - http://scratch.mit.edu/ -->
  <g id="ID0.8923370959237218">
    <path id="ID0.6516649480909109" fill="#FF0000" d="M 145.200 9.700 L 145.100 6.900 C 105.700 7 72 21 44.100 48.900 C 16 77 2 110.800 2 150.400 C 2 176.900 8.300 200.800 20.800 222.100 L 23.200 220.700 L 74.200 190.700 L 76.400 189.400 C 75.800 188.400 75.300 187.400 74.800 186.500 C 74.800 186.400 74.800 186.400 74.800 186.400 C 74.700 186.400 74.700 186.400 74.700 186.300 C 69.400 175.700 66.700 164 66.700 151.200 C 66.700 129.400 74.400 110.800 89.800 95.300 C 104.100 81.100 121 73.500 140.700 72.400 C 142.100 72.300 143.600 72.200 145.100 72.200 L 145.200 9.700 Z " transform="matrix(1, 0, 0, 1, 0, -4)"/>
    <path id="ID0.9311903514899313" fill="#FFFF00" d="M 145.600 6.900 L 145.200 9.700 L 145.100 72.200 C 145.200 72.200 145.300 72.200 145.300 72.200 L 145.400 72.200 L 145.700 72.200 C 147.400 72.200 149.200 72.300 150.900 72.400 C 170.500 73.500 187.300 81.200 201.500 95.300 C 216.900 110.800 224.600 129.400 224.600 151.200 C 224.600 164.200 221.900 176 216.500 186.700 C 216.400 186.700 216.400 186.700 216.400 186.700 C 216.400 186.800 216.400 186.800 216.400 186.800 C 215.900 187.800 215.300 188.800 214.800 189.800 L 216.200 190.700 L 269.200 221.700 L 270.300 222.300 C 282.800 200.900 289.100 177 289.100 150.400 C 289.100 110.800 275.100 77 247.100 48.900 C 219 20.900 185.200 6.900 145.600 6.900 Z " transform="matrix(1, 0, 0, 1, 0, -4)"/>
    <path id="ID0.8385788956657052" fill="#666666" d="M 150.800 73.400 L 145.300 72.300 L 140.800 73.200 L 140.700 73.200 L 140.700 99.400 L 140.800 100.500 C 142.300 100.400 144 100.300 145.600 100.300 C 147.300 100.300 149.100 100.400 150.700 100.600 L 150.800 98.800 L 150.800 73.400 Z " transform="matrix(1, 0, 0, 1, 0, -4)"/>
    <path id="ID0.413503669667989" fill="#999999" d="M 150.700 100.600 C 149.100 100.400 147.300 100.300 145.600 100.300 C 144 100.300 142.300 100.400 140.800 100.500 C 129.100 101.600 118.900 106.400 110.400 114.900 C 100.600 124.700 95.800 136.400 95.800 150.200 C 95.800 158.200 97.400 165.400 100.700 172 C 101.800 174.300 103.100 176.500 104.600 178.600 C 106.300 181 108.200 183.300 110.400 185.400 C 120.100 195.200 131.800 200 145.600 200 C 159.400 200 171.100 195.200 180.900 185.400 C 182.800 183.500 184.500 181.500 186.100 179.500 C 187.700 177.200 189.100 174.900 190.400 172.500 C 193.800 165.800 195.500 158.300 195.500 150.200 C 195.500 136.400 190.600 124.700 180.900 114.900 C 172.400 106.400 162.300 101.600 150.700 100.600 Z " transform="matrix(1, 0, 0, 1, 0, -4)"/>
    <path id="ID0.4624333227984607" fill="#003FFF" d="M 270.300 222.300 L 269.200 221.700 L 216.200 190.700 L 214.800 189.800 C 213.700 191.600 212.600 193.400 211.400 195.200 L 211.300 195.300 C 208.500 199.400 205.200 203.300 201.500 207 C 186.100 222.500 167.500 230.100 145.700 230.100 C 123.900 230.100 105.300 222.500 89.800 207 C 85.800 203 82.300 198.700 79.400 194.300 C 79.300 194.300 79.300 194.300 79.300 194.200 C 78.300 192.600 77.300 191 76.400 189.400 L 74.200 190.700 L 23.200 220.700 L 20.800 222.100 C 27 232.700 34.800 242.600 44.100 251.900 C 72.100 280 105.900 294 145.600 294 C 185.200 294 219 280 247.100 251.900 C 256.300 242.700 264 232.800 270.200 222.300 C 270.200 222.300 270.200 222.300 270.300 222.300 Z " transform="matrix(1, 0, 0, 1, 0, -4)"/>
    <path id="ID0.46179521968588233" fill="#666666" d="M 190.400 172.500 C 189.100 174.900 187.700 177.200 186.100 179.500 L 186.500 179.800 L 209.200 193.800 L 211.400 195.200 C 212.600 193.400 213.700 191.600 214.800 189.800 C 215.300 188.800 215.900 187.800 216.400 186.800 L 214.200 185.700 L 191.500 173 L 190.400 172.500 Z " transform="matrix(1, 0, 0, 1, 0, -4)"/>
    <path id="ID0.4178217723965645" fill="#666666" d="M 104.600 178.600 C 103.100 176.500 101.800 174.300 100.700 172 L 99.200 172.700 L 76.200 185.700 L 74.800 186.400 C 74.800 186.400 74.800 186.400 74.800 186.500 C 75.300 187.400 75.800 188.400 76.400 189.400 C 77.300 191 78.300 192.600 79.300 194.200 L 80.200 193.700 L 103.200 179.700 L 104.600 178.600 Z " transform="matrix(1, 0, 0, 1, 0, -4)"/>
    <path id="ID0.8994679329916835" fill="none" stroke="#000000" stroke-width="4" stroke-linecap="round" stroke-linejoin="round" d="M 145.600 6.900 C 185.200 6.900 219 20.900 247.100 48.900 C 275.100 77 289.100 110.800 289.100 150.400 C 289.100 177 282.800 200.900 270.300 222.300 C 270.200 222.300 270.200 222.300 270.200 222.300 C 264 232.800 256.300 242.700 247.100 251.900 C 219 280 185.200 294 145.600 294 C 105.900 294 72.100 280 44.100 251.900 C 34.800 242.600 27 232.700 20.800 222.100 C 8.300 200.800 2 176.900 2 150.400 C 2 110.800 16 77 44.100 48.900 C 72 21 105.700 7 145.100 6.900 C 145.300 6.900 145.400 6.900 145.600 6.900 " transform="matrix(1, 0, 0, 1, 0, -4)"/>
    <path id="ID0.9376971996389329" fill="none" stroke="#000000" stroke-width="4" stroke-linecap="round" stroke-linejoin="round" d="M 145.400 72.200 L 145.700 72.200 C 147.400 72.200 149.200 72.300 150.900 72.400 C 170.500 73.500 187.300 81.200 201.500 95.300 C 216.900 110.800 224.600 129.400 224.600 151.200 C 224.600 164.200 221.900 176 216.500 186.700 C 216.400 186.700 216.400 186.700 216.400 186.700 C 216.400 186.800 216.400 186.800 216.400 186.800 C 215.900 187.800 215.300 188.800 214.800 189.800 C 213.700 191.600 212.600 193.400 211.400 195.200 L 211.300 195.300 C 208.500 199.400 205.200 203.300 201.500 207 C 186.100 222.500 167.500 230.100 145.700 230.100 C 123.900 230.100 105.300 222.500 89.800 207 C 85.800 203 82.300 198.700 79.400 194.300 C 79.300 194.300 79.300 194.300 79.300 194.200 C 78.300 192.600 77.300 191 76.400 189.400 C 75.800 188.400 75.300 187.400 74.800 186.500 C 74.800 186.400 74.800 186.400 74.800 186.400 C 74.700 186.400 74.700 186.400 74.700 186.300 C 69.400 175.700 66.700 164 66.700 151.200 C 66.700 129.400 74.400 110.800 89.800 95.300 C 104.100 81.100 121 73.500 140.700 72.400 C 142.100 72.300 143.600 72.200 145.100 72.200 " transform="matrix(1, 0, 0, 1, 0, -4)"/>
    <path id="ID0.361627793405205" fill="none" stroke="#000000" stroke-width="4" stroke-linecap="round" stroke-linejoin="round" d="M 145.100 72.200 C 145.200 72.200 145.300 72.200 145.300 72.200 " transform="matrix(1, 0, 0, 1, 0, -4)"/>
    <path id="ID0.3473399360664189" fill="none" stroke="#000000" stroke-width="4" stroke-linecap="round" stroke-linejoin="round" d="M 145.600 100.300 C 144 100.300 142.300 100.400 140.800 100.500 C 129.100 101.600 118.900 106.400 110.400 114.900 C 100.600 124.700 95.800 136.400 95.800 150.200 C 95.800 158.200 97.400 165.400 100.700 172 C 101.800 174.300 103.100 176.500 104.600 178.600 C 106.300 181 108.200 183.300 110.400 185.400 C 120.100 195.200 131.800 200 145.600 200 C 159.400 200 171.100 195.200 180.900 185.400 C 182.800 183.500 184.500 181.500 186.100 179.500 C 187.700 177.200 189.100 174.900 190.400 172.500 C 193.800 165.800 195.500 158.300 195.500 150.200 C 195.500 136.400 190.600 124.700 180.900 114.900 C 172.400 106.400 162.300 101.600 150.700 100.600 C 149.100 100.400 147.300 100.300 145.600 100.300 " transform="matrix(1, 0, 0, 1, 0, -4)"/>
    <path id="ID0.2572804526425898" fill="none" stroke="#000000" stroke-width="4" stroke-linecap="round" stroke-linejoin="round" d="M 150.800 98.800 L 150.800 73.400 " transform="matrix(1, 0, 0, 1, 0, -4)"/>
    <path id="ID0.33771951775997877" fill="none" stroke="#000000" stroke-width="4" stroke-linecap="round" stroke-linejoin="round" d="M 140.700 73.200 L 140.700 99.400 " transform="matrix(1, 0, 0, 1, 0, -4)"/>
    <path id="ID0.6831875680945814" fill="none" stroke="#000000" stroke-width="4" stroke-linecap="round" stroke-linejoin="round" d="M 145.200 9.700 L 145.100 72.200 " transform="matrix(1, 0, 0, 1, 0, -4)"/>
    <path id="ID0.762640317901969" fill="none" stroke="#000000" stroke-width="4" stroke-linecap="round" stroke-linejoin="round" d="M 216.200 190.700 L 269.200 221.700 " transform="matrix(1, 0, 0, 1, 0, -4)"/>
    <path id="ID0.14066206011921167" fill="none" stroke="#000000" stroke-width="4" stroke-linecap="round" stroke-linejoin="round" d="M 209.200 193.800 L 186.500 179.800 " transform="matrix(1, 0, 0, 1, 0, -4)"/>
    <path id="ID0.5219559594988823" fill="none" stroke="#000000" stroke-width="4" stroke-linecap="round" stroke-linejoin="round" d="M 214.200 185.700 L 191.500 173 " transform="matrix(1, 0, 0, 1, 0, -4)"/>
    <path id="ID0.28498897375538945" fill="none" stroke="#000000" stroke-width="4" stroke-linecap="round" stroke-linejoin="round" d="M 80.200 193.700 L 103.200 179.700 " transform="matrix(1, 0, 0, 1, 0, -4)"/>
    <path id="ID0.9876601323485374" fill="none" stroke="#000000" stroke-width="4" stroke-linecap="round" stroke-linejoin="round" d="M 99.200 172.700 L 76.200 185.700 " transform="matrix(1, 0, 0, 1, 0, -4)"/>
    <path id="ID0.8238834631629288" fill="none" stroke="#000000" stroke-width="4" stroke-linecap="round" stroke-linejoin="round" d="M 23.200 220.700 L 74.200 190.700 " transform="matrix(1, 0, 0, 1, 0, -4)"/>
  </g>
</svg>