<svg version="1.1" xmlns="http://www.w3.org/2000/svg" xmlns:xlink="http://www.w3.org/1999/xlink" width="77.19949" height="77.07521" viewBox="0,0,77.19949,77.07521"><defs><radialGradient cx="104.86361" cy="169.91538" r="30.52759" gradientUnits="userSpaceOnUse" id="color-1"><stop offset="0" stop-color="#0eab00"/><stop offset="1" stop-color="#075100"/></radialGradient><radialGradient cx="108.27777" cy="178.60595" r="30.47299" gradientUnits="userSpaceOnUse" id="color-2"><stop offset="0" stop-color="#9c8200"/><stop offset="1" stop-color="#4c3f00"/></radialGradient></defs><g transform="translate(-79.12433,-157.93646)"><g data-paper-data="{&quot;isPaintingLayer&quot;:true}" fill-rule="nonzero" stroke="#000000" stroke-linejoin="miter" stroke-miterlimit="10" stroke-dasharray="" stroke-dashoffset="0" style="mix-blend-mode: normal"><path d="" fill="none" stroke-width="0.5" stroke-linecap="butt"/><path d="" data-paper-data="{&quot;origPos&quot;:null}" fill="none" stroke-width="0.5" stroke-linecap="round"/><path d="" data-paper-data="{&quot;origPos&quot;:null}" fill="none" stroke-width="0.5" stroke-linecap="butt"/><path d="" data-paper-data="{&quot;origPos&quot;:null}" fill="none" stroke-width="0.5" stroke-linecap="butt"/><path d="" data-paper-data="{&quot;origPos&quot;:null}" fill="none" stroke-width="0.5" stroke-linecap="round"/><path d="" data-paper-data="{&quot;origPos&quot;:null}" fill="#e800ff" stroke-width="0.5" stroke-linecap="butt"/><path d="" fill="none" stroke-width="0.5" stroke-linecap="butt"/><path d="" data-paper-data="{&quot;origPos&quot;:null}" fill="none" stroke-width="0.5" stroke-linecap="round"/><path d="" data-paper-data="{&quot;origPos&quot;:null}" fill="none" stroke-width="0.5" stroke-linecap="butt"/><path d="" data-paper-data="{&quot;origPos&quot;:null}" fill="none" stroke-width="0.5" stroke-linecap="butt"/><path d="" data-paper-data="{&quot;origPos&quot;:null}" fill="none" stroke-width="0.5" stroke-linecap="round"/><path d="" data-paper-data="{&quot;origPos&quot;:null}" fill="#e800ff" stroke-width="0.5" stroke-linecap="butt"/><path d="M79.5,202.00001l18,-43h58.5l-11.25,43z" data-paper-data="{&quot;origPos&quot;:null,&quot;index&quot;:null}" fill="#17ff00" stroke-width="0.5" stroke-linecap="butt"/><path d="M79.51179,217.79221v-15.65625h65.57729v15.65625z" data-paper-data="{&quot;origPos&quot;:null}" fill="#096b00" stroke-width="0.5" stroke-linecap="butt"/><path d="M145.15168,233.00222v-15.65625l10.67139,-42.22353c0,0 0,5.74834 0,9.42758c0,2.43082 0,6.22867 0,6.22867z" data-paper-data="{&quot;origPos&quot;:null}" fill="#b69700" stroke-width="0.5" stroke-linecap="butt"/><path d="M145.16049,217.82566v-15.65625c0,0 9.9123,-39.22003 10.32171,-40.83993c0.13647,-0.53997 0.34969,-1.3836 0.34969,-1.3836v15.65625z" data-paper-data="{&quot;origPos&quot;:null}" fill="#68ff5a" stroke-width="0.5" stroke-linecap="butt"/><path d="M79.46447,233.49064v-15.65625h65.5773v15.65625z" data-paper-data="{&quot;origPos&quot;:null}" fill="#6b5900" stroke-width="0.5" stroke-linecap="butt"/><path d="M148.4176,182.94163c-2.27095,7.49327 -14.73027,19.12793 -38.70593,18.67786c-13.17169,-0.24726 -23.40359,-12.6483 -20.70318,-20.47814c2.55285,-7.40197 14.29303,-21.05958 35.10538,-20.47814c20.38703,0.56956 27.90428,10.39796 24.30373,22.27841z" data-paper-data="{&quot;origPos&quot;:null}" fill="#000000" stroke-width="2" stroke-linecap="butt"/><path d="M111.33649,174.97393c-9.57823,-0.1798 -21.74303,13.43594 -21.74303,13.43594c0,0 -1.94389,-4.97848 -0.88882,-8.03766c2.55285,-7.40197 14.29304,-21.05958 35.10538,-20.47814c0,0 11.86008,-0.15397 18.28294,3.55399c0,0 7.62413,7.09854 7.34563,12.33043c-0.03028,0.56891 -24.73417,-5.17618 -38.10211,-0.80456z" data-paper-data="{&quot;origPos&quot;:null}" fill="url(#color-1)" stroke-width="0.5" stroke-linecap="butt"/><path d="M112.69699,187.37564c-7.63173,-0.12015 -18.12969,7.32847 -18.12969,7.32847c0,0 -5.75185,-5.93606 -5.66603,-7.0195c6.81808,-10.29513 21.78462,-15.78442 38.66898,-15.38882c0,0 7.47072,0.49389 11.93385,1.22149c4.04473,0.65939 9.86648,2.33249 9.86648,2.33249c0,0 0.96515,3.08815 0.14599,6.33764c-0.67616,2.68224 -3.13067,4.91313 -3.59375,5.63374c-0.15436,0.24021 -1.21182,0.07663 -1.22974,0.35905c-0.03611,0.56891 -16.05634,-5.17618 -31.99608,-0.80456z" data-paper-data="{&quot;origPos&quot;:null}" fill="url(#color-2)" stroke-width="0.5" stroke-linecap="butt"/></g></g></svg>