<svg version="1.1" xmlns="http://www.w3.org/2000/svg" xmlns:xlink="http://www.w3.org/1999/xlink" width="47.8363" height="38.02661" viewBox="0,0,47.8363,38.02661"><g transform="translate(-223.32286,-156.7367)"><g data-paper-data="{&quot;isPaintingLayer&quot;:true}" fill-rule="nonzero" stroke="#000000" stroke-linejoin="miter" stroke-miterlimit="10" stroke-dasharray="" stroke-dashoffset="0" style="mix-blend-mode: normal"><path d="" fill="none" stroke-width="0.5" stroke-linecap="butt"/><path d="" data-paper-data="{&quot;origPos&quot;:null}" fill="none" stroke-width="0.5" stroke-linecap="round"/><path d="" data-paper-data="{&quot;origPos&quot;:null}" fill="none" stroke-width="0.5" stroke-linecap="butt"/><path d="" data-paper-data="{&quot;origPos&quot;:null}" fill="none" stroke-width="0.5" stroke-linecap="butt"/><path d="" data-paper-data="{&quot;origPos&quot;:null}" fill="none" stroke-width="0.5" stroke-linecap="round"/><path d="" data-paper-data="{&quot;origPos&quot;:null}" fill="#e800ff" stroke-width="0.5" stroke-linecap="butt"/><path d="" fill="none" stroke-width="0.5" stroke-linecap="butt"/><path d="" data-paper-data="{&quot;origPos&quot;:null}" fill="none" stroke-width="0.5" stroke-linecap="round"/><path d="" data-paper-data="{&quot;origPos&quot;:null}" fill="none" stroke-width="0.5" stroke-linecap="butt"/><path d="" data-paper-data="{&quot;origPos&quot;:null}" fill="none" stroke-width="0.5" stroke-linecap="butt"/><path d="" data-paper-data="{&quot;origPos&quot;:null}" fill="none" stroke-width="0.5" stroke-linecap="round"/><path d="" data-paper-data="{&quot;origPos&quot;:null}" fill="#e800ff" stroke-width="0.5" stroke-linecap="butt"/><path d="M270.15914,173.03036c0,0.25833 -13.23335,3.94968 -13.19009,4.20536c0.12974,0.76703 12.34743,8.24339 8.01709,8.79479c-2.29145,0.29178 -9.53939,-6.15068 -10.97756,-4.60168c-3.26581,3.5175 0.20999,11.79103 -5.01243,12.33448c-0.76487,0.0796 -0.4193,-10.31553 -1.18985,-10.31553c-3.23659,0 -18.83554,10.24263 -18.04425,7.56636c0.97761,-3.30643 14.81073,-6.85449 12.20907,-9.44394c-2.50983,-2.49804 -18.21828,0.17475 -17.63228,-3.07661c0.41255,-2.28899 17.22946,0.39899 17.22946,-1.91687c0,-3.20549 -16.2543,-12.89379 -12.51058,-13.18205c3.90441,-0.30064 9.93085,7.66639 13.28819,5.94032c3.01697,-1.55108 -0.40172,-11.59829 3.12114,-11.59829c0,0 0.964,11.78451 4.39941,11.98557c4.25843,0.24923 12.68644,-12.37291 14.39573,-9.03752c0.66837,1.30423 -11.69001,11.12462 -11.01159,12.42508c1.63933,3.14244 16.90856,-10.3621 16.90856,-0.07946z" data-paper-data="{&quot;origPos&quot;:null}" fill="#a0cccc" stroke-width="2" stroke-linecap="butt"/></g></g></svg>