<svg version="1.1" xmlns="http://www.w3.org/2000/svg" xmlns:xlink="http://www.w3.org/1999/xlink" width="32.94612" height="32.94714"><defs><linearGradient x1="240.70418" y1="163.88384" x2="240.70418" y2="196.22406" gradientUnits="userSpaceOnUse" id="color-1"><stop offset="0" stop-color="#ffd42a"/><stop offset="1" stop-color="#fa7500"/></linearGradient><linearGradient x1="240.70422" y1="168.20756" x2="240.70422" y2="195.35683" gradientUnits="userSpaceOnUse" id="color-2"><stop offset="0" stop-color="#ffd42a"/><stop offset="1" stop-color="#fa7500"/></linearGradient></defs><g transform="translate(-224.23162,-163.78268)"><g data-paper-data="{&quot;isPaintingLayer&quot;:true}" fill="none" fill-rule="nonzero" stroke="none" stroke-width="none" stroke-linecap="butt" stroke-linejoin="miter" stroke-miterlimit="10" stroke-dasharray="" stroke-dashoffset="0" font-family="none" font-weight="none" font-size="none" text-anchor="none" style="mix-blend-mode: normal"><g data-paper-data="{&quot;origPos&quot;:null}"><path d="M257.17775,180.25625c0,9.09759 -7.37498,16.47357 -16.47357,16.47357c-9.09759,0 -16.47255,-7.37598 -16.47255,-16.47357c0,-9.09759 7.37497,-16.47357 16.47256,-16.47357c9.09859,0 16.47357,7.37598 16.47357,16.47357z" id="a5HcFhwQtn 1" fill="#514100" stroke="none" stroke-width="1"/><g fill-opacity="0" fill="#000000" stroke="#000000" stroke-width="0"><path d="M257.17775,180.25625c0,9.09759 -7.37498,16.47357 -16.47357,16.47357c-9.09759,0 -16.47255,-7.37598 -16.47255,-16.47357c0,-9.09759 7.37497,-16.47357 16.47256,-16.47357c9.09859,0 16.47357,7.37598 16.47357,16.47357z" id="a5HcFhwQtn 2"/></g></g><g data-paper-data="{&quot;origPos&quot;:null}"><path d="M256.67301,180.25625c0,8.81841 -7.1494,15.96781 -15.96882,15.96781c-8.81841,0 -15.96781,-7.14941 -15.96781,-15.96781c0,-8.81841 7.14941,-15.96781 15.96781,-15.96781c8.81942,0 15.96882,7.1494 15.96882,15.96781z" id="b3Sj9cEkP 1" fill="url(#color-1)" stroke="none" stroke-width="1"/><g fill-opacity="0" fill="#000000" stroke-opacity="0" stroke="#000000" stroke-width="0"><path d="M256.67301,180.25625c0,8.81841 -7.1494,15.96781 -15.96882,15.96781c-8.81841,0 -15.96781,-7.14941 -15.96781,-15.96781c0,-8.81841 7.14941,-15.96781 15.96781,-15.96781c8.81942,0 15.96882,7.1494 15.96882,15.96781z" id="b3Sj9cEkP 2"/></g></g><g data-paper-data="{&quot;origPos&quot;:null}"><path d="M230.81964,169.43707c0.11532,0.35504 -0.22355,0.98623 -0.75662,1.41005c-0.53307,0.42382 -1.05804,0.48047 -1.17336,0.12644c-0.11532,-0.35403 0.22355,-0.98522 0.75561,-1.41005c0.53307,-0.42382 1.05906,-0.48047 1.17437,-0.12644z" id="a2saEL5lgs 1" fill="#ffffff" stroke="none" stroke-width="1"/><g fill-opacity="0" fill="#000000" stroke-opacity="0" stroke="#000000" stroke-width="0"><path d="M230.81964,169.43707c0.11532,0.35504 -0.22355,0.98623 -0.75662,1.41005c-0.53307,0.42382 -1.05804,0.48047 -1.17336,0.12644c-0.11532,-0.35403 0.22355,-0.98522 0.75561,-1.41005c0.53307,-0.42382 1.05906,-0.48047 1.17437,-0.12644z" id="a2saEL5lgs 2"/></g></g><g data-paper-data="{&quot;origPos&quot;:null}"><path d="M228.54069,171.63914c0.10317,0.24377 -0.01214,0.52498 -0.25693,0.62815c-0.24377,0.10217 -0.52498,-0.01215 -0.62815,-0.25693c-0.10217,-0.24479 0.01214,-0.52598 0.25692,-0.62815c0.24479,-0.10317 0.52599,0.01214 0.62816,0.25693z" id="bsnFp7Uc9 1" fill="#ffffff" stroke="none" stroke-width="1"/><g fill-opacity="0" fill="#000000" stroke-opacity="0" stroke="#000000" stroke-width="0"><path d="M228.54069,171.63914c0.10317,0.24377 -0.01214,0.52498 -0.25693,0.62815c-0.24377,0.10217 -0.52498,-0.01215 -0.62815,-0.25693c-0.10217,-0.24479 0.01214,-0.52598 0.25692,-0.62815c0.24479,-0.10317 0.52599,0.01214 0.62816,0.25693z" id="bsnFp7Uc9 2"/></g></g><g data-paper-data="{&quot;origPos&quot;:null}"><path d="M229.77474,171.93349c0.08193,0.19421 -0.01012,0.41877 -0.20433,0.50071c-0.19522,0.08193 -0.41978,-0.00911 -0.50171,-0.20433c-0.08193,-0.19522 0.0091,-0.41978 0.20432,-0.50171c0.19522,-0.08193 0.41978,0.01011 0.50172,0.20533z" id="a2afUOVPXw 1" fill="#ffffff" stroke="none" stroke-width="1"/><g fill-opacity="0" fill="#000000" stroke-opacity="0" stroke="#000000" stroke-width="0"><path d="M229.77474,171.93349c0.08193,0.19421 -0.01012,0.41877 -0.20433,0.50071c-0.19522,0.08193 -0.41978,-0.00911 -0.50171,-0.20433c-0.08193,-0.19522 0.0091,-0.41978 0.20432,-0.50171c0.19522,-0.08193 0.41978,0.01011 0.50172,0.20533z" id="a2afUOVPXw 2"/></g></g><g data-paper-data="{&quot;origPos&quot;:null}"><path d="M253.94191,187.30147c0.12037,0.35302 -0.20837,0.98926 -0.73537,1.42118c-0.52599,0.43192 -1.05097,0.49666 -1.17134,0.14364c-0.12037,-0.35201 0.20838,-0.98825 0.73538,-1.42017c0.52599,-0.43293 1.05096,-0.49666 1.17133,-0.14465z" id="b5IK3R4Kp 1" fill="#ffffff" stroke="none" stroke-width="1"/><g fill-opacity="0" fill="#000000" stroke-opacity="0" stroke="#000000" stroke-width="0"><path d="M253.94191,187.30147c0.12037,0.35302 -0.20837,0.98926 -0.73537,1.42118c-0.52599,0.43192 -1.05097,0.49666 -1.17134,0.14364c-0.12037,-0.35201 0.20838,-0.98825 0.73538,-1.42017c0.52599,-0.43293 1.05096,-0.49666 1.17133,-0.14465z" id="b5IK3R4Kp 2"/></g></g><g data-paper-data="{&quot;origPos&quot;:null}"><path d="M251.69634,189.53692c0.10621,0.24276 -0.00506,0.52599 -0.24783,0.6322c-0.24276,0.10621 -0.52598,-0.00404 -0.63219,-0.24681c-0.10621,-0.24377 0.00506,-0.52599 0.24782,-0.63321c0.24276,-0.10621 0.52599,0.00506 0.6322,0.24782z" id="dw5AM9Fu0 1" fill="#ffffff" stroke="none" stroke-width="1"/><g fill-opacity="0" fill="#000000" stroke-opacity="0" stroke="#000000" stroke-width="0"><path d="M251.69634,189.53692c0.10621,0.24276 -0.00506,0.52599 -0.24783,0.6322c-0.24276,0.10621 -0.52598,-0.00404 -0.63219,-0.24681c-0.10621,-0.24377 0.00506,-0.52599 0.24782,-0.63321c0.24276,-0.10621 0.52599,0.00506 0.6322,0.24782z" id="dw5AM9Fu0 2"/></g></g><g data-paper-data="{&quot;origPos&quot;:null}"><path d="M252.93444,189.81307c0.08497,0.1932 -0.00304,0.41978 -0.19725,0.50475c-0.19421,0.08497 -0.41978,-0.00405 -0.50475,-0.19826c-0.08497,-0.1932 0.00405,-0.41877 0.19725,-0.50373c0.19421,-0.08497 0.41978,0.00303 0.50475,0.19724z" id="aJBa2ga9v 1" fill="#ffffff" stroke="none" stroke-width="1"/><g fill-opacity="0" fill="#000000" stroke-opacity="0" stroke="#000000" stroke-width="0"><path d="M252.93444,189.81307c0.08497,0.1932 -0.00304,0.41978 -0.19725,0.50475c-0.19421,0.08497 -0.41978,-0.00405 -0.50475,-0.19826c-0.08497,-0.1932 0.00405,-0.41877 0.19725,-0.50373c0.19421,-0.08497 0.41978,0.00303 0.50475,0.19724z" id="aJBa2ga9v 2"/></g></g><g data-paper-data="{&quot;origPos&quot;:null}"><g data-paper-data="{&quot;origPos&quot;:null}"><path d="M252.32607,179.27199c0,6.41812 -5.2028,11.62185 -11.62185,11.62185c-6.41811,0 -11.62091,-5.20373 -11.62091,-11.62185c0,-6.41811 5.20279,-11.62184 11.62091,-11.62184c6.41905,0 11.62185,5.20372 11.62185,11.62184z" id="c1ZrAeIIYt 1" fill="#514100" stroke="none" stroke-width="1"/><g fill-opacity="0" fill="#000000" stroke-opacity="0" stroke="#000000" stroke-width="0"><path d="M252.32607,179.27199c0,6.41812 -5.2028,11.62185 -11.62185,11.62185c-6.41811,0 -11.62091,-5.20373 -11.62091,-11.62185c0,-6.41811 5.20279,-11.62184 11.62091,-11.62184c6.41905,0 11.62185,5.20372 11.62185,11.62184z" id="c1ZrAeIIYt 2"/></g></g><g data-paper-data="{&quot;origPos&quot;:null}"><path d="M252.32607,181.03821c0,6.41905 -5.2028,11.62185 -11.62185,11.62185c-6.41811,0 -11.62091,-5.2028 -11.62091,-11.62185c0,-6.41811 5.20279,-11.62184 11.62091,-11.62184c6.41905,0 11.62185,5.20372 11.62185,11.62184z" id="a2xWwmiZX 1" fill="#ffdd55" stroke="none" stroke-width="1"/><g fill-opacity="0" fill="#000000" stroke-opacity="0" stroke="#000000" stroke-width="0"><path d="M252.32607,181.03821c0,6.41905 -5.2028,11.62185 -11.62185,11.62185c-6.41811,0 -11.62091,-5.2028 -11.62091,-11.62185c0,-6.41811 5.20279,-11.62184 11.62091,-11.62184c6.41905,0 11.62185,5.20372 11.62185,11.62184z" id="a2xWwmiZX 2"/></g></g><g data-paper-data="{&quot;origPos&quot;:null}"><path d="M252.32607,180.10857c0,6.41905 -5.2028,11.62184 -11.62185,11.62184c-6.41811,0 -11.62091,-5.2028 -11.62091,-11.62184c0,-6.41811 5.20279,-11.62184 11.62091,-11.62184c6.41905,0 11.62185,5.20372 11.62185,11.62184z" id="b2JF9hWyNJ 1" fill="url(#color-2)" stroke="none" stroke-width="1"/><g fill-opacity="0" fill="#000000" stroke-opacity="0" stroke="#000000" stroke-width="0"><path d="M252.32607,180.10857c0,6.41905 -5.2028,11.62184 -11.62185,11.62184c-6.41811,0 -11.62091,-5.2028 -11.62091,-11.62184c0,-6.41811 5.20279,-11.62184 11.62091,-11.62184c6.41905,0 11.62185,5.20372 11.62185,11.62184z" id="b2JF9hWyNJ 2"/></g></g></g></g></g></svg>