<svg version="1.1" xmlns="http://www.w3.org/2000/svg" xmlns:xlink="http://www.w3.org/1999/xlink" width="367.40728" height="30.83299" viewBox="0,0,367.40728,30.83299"><g transform="translate(-56.25,-164.66702)"><g data-paper-data="{&quot;isPaintingLayer&quot;:true}" fill="none" fill-rule="nonzero" stroke="none" stroke-width="none" stroke-linecap="butt" stroke-linejoin="miter" stroke-miterlimit="10" stroke-dasharray="" stroke-dashoffset="0" font-family="none" font-weight="none" font-size="none" text-anchor="none" style="mix-blend-mode: normal"><g data-paper-data="{&quot;origPos&quot;:null}"><g id="g6652" fill="#65a3ff" stroke-width="0.26459" opacity="0.8"><path d="M70.3823,175.10701c0,0 -3.31346,-0.69282 -3.46407,1.83746c0,0 -0.2711,2.62065 3.55444,2.19893c0,0 4.72922,-0.81331 5.2413,3.28336c0,0 0.42171,3.13271 -2.37967,4.66896c0,0 -3.61469,2.19909 -10.60309,0.27124c0,0 -6.68717,-1.68683 -6.47632,-10.39223c0,0 -0.39159,-8.34391 7.92219,-10.24161c0,0 5.33166,-1.38563 9.48856,1.0844c0,0 2.98212,1.83747 1.41575,5.54252c0,0 -0.9338,2.43991 -4.6991,1.74711z" id="path6561"/><path d="M77.53073,181.85456c-0.5422,-4.54847 0.15061,-10.78382 0.15061,-10.78382c0,0 0.36147,-5.96424 4.72922,-5.96424c0,0 4.12677,-0.24099 4.66897,6.41607c0.51207,6.35582 -0.15062,12.28995 -0.15062,12.28995c0,0 -0.2711,4.66887 -4.78946,4.54847c-4.21714,-0.12048 -4.60873,-6.50644 -4.60873,-6.50644z" id="path6563"/><path d="M94.11406,171.61294c-2.04833,0.21085 -3.79543,-1.08441 -4.00628,-2.89175c-0.18073,-1.77723 1.29527,-3.4339 3.31347,-3.64481c1.98808,-0.21087 3.79543,1.08441 3.97616,2.89176c0.18073,1.77721 -1.29527,3.4339 -3.28334,3.6448zM98.69264,184.89693c-0.60245,3.58472 -4.21713,3.49421 -4.21713,3.49421c-3.40383,0.12048 -4.27738,-2.62065 -4.27738,-2.62065c-1.59648,-4.36777 -0.12048,-9.78981 -0.12048,-9.78981c0.99404,-3.67489 4.18701,-3.52433 4.18701,-3.52433c3.70506,-0.21085 4.45812,3.55447 4.45812,3.55447c0,0 0.93381,3.22308 -0.03011,8.8861z" id="path6565"/><path d="M109.40636,180.22795c0,0 0,1.50613 2.13869,0.69282c0,0 2.98212,-1.35551 4.72922,1.47599c0,0 1.50612,2.59054 -1.50612,4.75935c0,0 -3.97616,2.98212 -9.81991,0.36147c0,0 -3.85567,-1.71698 -3.85567,-7.2595c0,0 -0.21086,-6.11486 5.42203,-7.83184c0,0 5.18106,-1.74708 8.67526,1.50614c0,0 1.50612,1.29525 0.66269,3.67491c0,0 -0.87355,2.40981 -4.33763,1.74712c0,0 -2.10856,-0.66271 -2.10856,0.87353z" id="path6567"/><path d="M128.00131,171.58283c1.50612,-2.07844 2.98212,-2.6809 4.21714,-2.6809c1.7471,0 2.98212,1.29525 2.98212,1.29525c0.75306,0.81331 1.02416,1.65675 1.02416,2.53028c0,2.43992 -2.34955,4.75935 -2.34955,4.75935c2.28931,1.44588 4.428,4.51836 4.428,7.04864c0,2.16881 -2.13869,3.73517 -4.00628,3.73517c-3.91591,0 -6.23535,-6.41608 -6.35583,-6.80766c0,0.06026 0.03012,0.33136 0.03012,0.72294c0,1.80734 -0.42171,6.20523 -4.48824,6.20523c-3.34359,0 -4.39787,-3.91582 -4.39787,-3.97616c-0.57234,-2.28932 -0.78318,-4.72924 -0.78318,-6.95828c0,-4.30751 0.72294,-7.83184 0.72294,-7.83184c0.42172,-1.65672 1.05429,-4.24726 4.36775,-4.24726c4.6991,0 4.60873,6.08483 4.60873,6.20523z" id="path6569"/><path d="M141.60769,188.99357c0,0 -1.89771,-0.36148 -1.62661,-2.86162c0.48196,-4.2774 4.57861,-16.11551 5.99437,-19.48921c1.11453,-2.65077 3.37371,-1.8676 3.37371,-1.8676c0,0 1.95795,0.1205 1.50612,3.04237c-1.32538,8.31378 -6.38595,19.63981 -6.38595,19.63981c-1.02416,2.1387 -2.86164,1.53625 -2.86164,1.53625z" id="path6571"/><path d="M158.49696,175.43834c0,0 -6.11485,0.66271 -6.11485,-3.97616c0,-4.00627 3.97616,-4.45811 3.97616,-4.45811c6.38595,-1.32525 12.89239,-0.09023 12.89239,-0.09023c3.67494,0.78319 3.4942,3.88579 3.4942,3.88579c-0.18074,5.12082 -5.63289,4.39789 -5.63289,4.39789c1.02416,6.08472 0,9.51868 0,9.51868c-0.78318,3.7654 -4.09665,3.52432 -4.09665,3.52432c0,0 -3.67493,0.39159 -4.51836,-3.52432c-0.87355,-4.06653 0,-9.27772 0,-9.27772z" id="path6573"/><path d="M184.81595,174.83605c0.03012,-0.12051 0.75306,-2.56043 3.43396,-2.56043c4.48825,0 4.51836,7.68122 4.51836,7.68122c0.45183,9.15724 -4.30751,8.52466 -4.30751,8.52466c0,0 -2.98212,0.21085 -3.43396,-2.83152c0,0 -0.8133,3.25322 -6.14497,2.62065c0,0 -5.78351,-0.21085 -5.78351,-7.10887c0,0 -0.63257,-8.04269 6.38596,-8.67526c4.24726,-0.39161 5.24131,2.07859 5.33167,2.34955zM182.28567,180.8304c0.06025,0.84356 0.5422,1.11452 1.20489,1.11452c0.6627,0 1.17478,-0.42169 1.17478,-1.11452c0,-0.63257 -0.42172,-1.26514 -1.17478,-1.26514c-0.69281,0 -1.26515,0.63257 -1.20489,1.26514z" id="path6575"/><path d="M197.35064,174.92642c2.8315,-3.25322 8.91624,-3.67494 12.80203,-1.50613c0,0 2.50016,1.44588 3.25322,4.33763c0.66269,2.59053 0.09037,6.92817 -2.0182,8.67525c-3.91592,3.22311 -8.37403,0.96393 -8.37403,0.96393c0,0 1.77722,8.10291 -3.70506,8.10291c-4.3075,0 -4.87983,-5.27141 -4.87983,-5.27141c0,0 -1.41575,-10.30187 2.92188,-15.30218zM203.22451,180.95088c0.06025,0.8433 0.54221,1.11455 1.2049,1.11455c0.66269,0 1.17477,-0.42172 1.17477,-1.11455c0,-0.63257 -0.42171,-1.26514 -1.17477,-1.26514c-0.69281,0 -1.26515,0.63257 -1.2049,1.26514z" id="path6577"/><path d="M239.37989,187.84894c-1.62661,0.66269 -3.04236,0.66268 -3.04236,0.66268c-8.79575,0 -8.79575,-7.65111 -8.79575,-7.65111c0,-9.30783 8.79575,-8.46438 8.79575,-8.46438c7.77158,0 7.77158,7.62096 7.77158,7.62096c0,1.8676 -0.36147,3.31347 -0.93379,4.42799c-1.26514,2.34955 -3.79543,3.40385 -3.79543,3.40385zM234.95189,180.95088c0.06025,0.8433 0.5422,1.11455 1.2049,1.11455c0.66269,0 1.17477,-0.42172 1.17477,-1.11455c0,-0.63257 -0.42171,-1.26514 -1.17477,-1.26514c-0.69281,0 -1.26515,0.63257 -1.2049,1.26514z" id="path6579"/><path d="M265.61463,181.01114c0,0 0.54221,6.23534 -4.24726,7.07876c0.03012,0 -4.94009,0.69282 -5.15094,-4.1569c0,0 -0.2711,-4.24726 -1.05428,-4.24726c0.24096,2.9219 0.03011,4.45813 0.03011,4.45813c0,0 -0.33134,3.97604 -4.48824,4.03638c-3.94603,0.06026 -4.57861,-4.187 -4.57861,-4.187c0,0 -0.72294,-2.6809 -0.36147,-6.92817c0,0 0.36147,-4.51825 4.39787,-4.75932c3.52432,-0.21087 4.36775,1.26514 4.90996,2.19893c0,0 9.66929,-5.87387 10.54285,6.50644z" id="path6581"/><path d="M291.65641,174.83605c0.03012,-0.12051 0.75306,-2.56043 3.43395,-2.56043c4.48825,0 4.51837,7.68122 4.51837,7.68122c0.45184,9.15724 -4.30751,8.52466 -4.30751,8.52466c0,0 -2.98212,0.21085 -3.43396,-2.83152c0,0 -0.81331,3.25322 -6.14497,2.62065c0,0 -5.7835,-0.21085 -5.7835,-7.10887c0,0 -0.63258,-8.04269 6.38595,-8.67526c4.24726,-0.39161 5.24131,2.07859 5.33167,2.34955zM289.12612,180.8304c0.06025,0.84356 0.5422,1.11452 1.20489,1.11452c0.66269,0 1.17478,-0.42169 1.17478,-1.11452c0,-0.63257 -0.42172,-1.26514 -1.17478,-1.26514c-0.69281,0 -1.26515,0.63257 -1.20489,1.26514z" id="path6583"/><path d="M322.82887,173.32992c0,0 4.75934,-2.19893 8.34391,1.8676c1.71698,1.95794 1.95795,5.93409 0.81331,8.37401c-1.35551,2.9219 -3.67494,3.76532 -3.67494,3.76532c-4.60873,2.10856 -9.85003,0.39158 -11.98872,-2.40981c-3.58457,-4.69909 -1.65673,-15.1817 -1.65673,-15.1817c0,0 0.66269,-5.21116 4.81959,-4.84969c5.15093,0.48195 3.34359,8.43427 3.34359,8.43427zM322.37703,180.49905c0.06025,0.8433 0.5422,1.11455 1.2049,1.11455c0.66269,0 1.17477,-0.42173 1.17477,-1.11455c0,-0.63257 -0.42171,-1.26514 -1.17477,-1.26514c-0.69282,0 -1.26515,0.63257 -1.2049,1.26514z" id="path6585"/><path d="M342.97135,176.3723c0.03012,1.38562 -0.06025,3.61469 0.96393,3.61469c0.93379,0 0.90362,-1.08441 0.93379,-3.61469c0.03012,-3.94604 3.43396,-3.94605 3.43396,-3.94605c3.97616,-0.21085 4.45811,3.28333 4.45811,3.28333c0.87356,4.18704 -0.90367,8.13306 -0.90367,8.13306c0,0 -1.71698,4.7593 -7.62096,4.60873c-6.23534,-0.1506 -7.89207,-3.13272 -7.89207,-3.13272c-2.47004,-3.61469 -1.17477,-9.5187 -1.17477,-9.5187c0.90368,-4.00627 4.57861,-3.34359 4.57861,-3.34359c0,0 3.13286,0.21088 3.22309,3.91594z" id="path6587"/><path d="M363.77654,173.32992c0,0 4.75932,-2.19893 8.3439,1.8676c1.71698,1.95794 1.95797,5.93409 0.81331,8.37401c-1.35551,2.9219 -3.67494,3.76532 -3.67494,3.76532c-4.60873,2.10856 -9.85003,0.39158 -11.9887,-2.40981c-3.58457,-4.69909 -1.65675,-15.1817 -1.65675,-15.1817c0,0 0.66271,-5.21116 4.81961,-4.84969c5.15094,0.48195 3.34359,8.43427 3.34359,8.43427zM363.32471,180.49905c0.06022,0.8433 0.5422,1.11455 1.20488,1.11455c0.66269,0 1.17478,-0.42173 1.17478,-1.11455c0,-0.63257 -0.42173,-1.26514 -1.17478,-1.26514c-0.69282,0 -1.26522,0.63257 -1.20488,1.26514z" id="path6589"/><path d="M384.25038,173.32992c0,0 4.75932,-2.19893 8.3439,1.8676c1.71698,1.95794 1.95797,5.93409 0.81331,8.37401c-1.35551,2.9219 -3.67494,3.76532 -3.67494,3.76532c-4.60873,2.10856 -9.85003,0.39158 -11.98871,-2.40981c-3.58457,-4.69909 -1.65675,-15.1817 -1.65675,-15.1817c0,0 0.66271,-5.21116 4.81961,-4.84969c5.15094,0.48195 3.34359,8.43427 3.34359,8.43427zM383.79854,180.49905c0.06023,0.8433 0.5422,1.11455 1.20489,1.11455c0.66269,0 1.17478,-0.42173 1.17478,-1.11455c0,-0.63257 -0.42173,-1.26514 -1.17478,-1.26514c-0.69282,0 -1.26523,0.63257 -1.20489,1.26514z" id="path6591"/><path d="M396.32,171.07074c0,0 0.36147,-5.96424 4.72921,-5.96424c0,0 4.12678,-0.24099 4.66899,6.41607c0.51212,6.35582 -0.15057,12.28995 -0.15057,12.28995c0,0 -0.2711,4.66887 -4.78946,4.54847c-4.21715,-0.12048 -4.60873,-6.50644 -4.60873,-6.50644c-0.54226,-4.54847 0.15057,-10.78382 0.15057,-10.78382z" id="path6593"/><path d="M423.47634,184.68608c0,0 0.33135,2.10856 -2.1387,3.1026c0,0 -4.51837,1.56635 -9.39819,-0.42173c0,0 -4.33766,-1.68684 -4.12675,-7.2896c0,0 0,-5.7835 5.00031,-7.59085c0,0 5.30156,-1.83749 9.15721,1.59647c0,0 1.65669,1.44588 1.68686,4.21715c0.03012,3.1026 -3.16286,3.94604 -5.96424,3.40384c2.31944,1.86757 5.42204,0.18073 5.78351,2.98212zM415.70476,179.14354c0.06025,0.8433 0.5422,1.11455 1.20489,1.11455c0.66271,0 1.17477,-0.42172 1.17477,-1.11455c0,-0.63257 -0.42169,-1.26514 -1.17477,-1.26514c-0.6928,0 -1.26523,0.63257 -1.20489,1.26514z" id="path6595"/></g><path d="M149.34857,164.77587c0,0 1.95795,0.11981 1.50612,3.04169c-0.47645,2.9886 -1.43924,6.35778 -2.47244,9.45881h-6.13627c1.35707,-4.32852 2.94788,-8.77022 3.73001,-10.63404c0.69658,-1.65673 1.83911,-1.97174 2.59894,-1.97528c0.45589,-0.00211 0.77365,0.10882 0.77365,0.10882zM319.48581,164.89501c5.15094,0.48196 3.34317,8.43518 3.34317,8.43518c0,0 4.7594,-2.19864 8.34397,1.86789c0.48769,0.55614 0.85152,1.27794 1.10311,2.07829h-18.09257c-0.17352,-3.92699 0.48244,-7.5306 0.48244,-7.5306c0,0 0.58208,-4.58049 4.08006,-4.85521c0.2332,-0.0183 0.48002,-0.01815 0.73982,0.00445zM360.43347,164.89501c5.15094,0.48196 3.34317,8.43518 3.34317,8.43518c0,0 4.7594,-2.19864 8.34397,1.86789c0.48769,0.55614 0.85152,1.27794 1.10311,2.07829h-18.09257c-0.17352,-3.92699 0.48243,-7.5306 0.48243,-7.5306c0,0 0.58208,-4.58049 4.08006,-4.85521c0.2332,-0.0183 0.48002,-0.01815 0.73982,0.00445zM380.9073,164.89501c5.15093,0.48196 3.34317,8.43518 3.34317,8.43518c0,0 4.7594,-2.19864 8.34397,1.86789c0.48769,0.55614 0.85152,1.27794 1.10312,2.07829h-18.09257c-0.17352,-3.92699 0.48243,-7.5306 0.48243,-7.5306c0,0 0.58208,-4.58049 4.08006,-4.85521c0.2332,-0.0183 0.48001,-0.01815 0.73982,0.00445zM97.3977,167.96757c0.18074,1.77722 -1.29627,3.4338 -3.28435,3.64466c-2.04832,0.21086 -3.79419,-1.08425 -4.00504,-2.8916c-0.18073,-1.77722 1.29409,-3.43388 3.31229,-3.64474c0.24851,-0.02635 0.49537,-0.02907 0.73541,-0.01024c1.68027,0.13134 3.08355,1.3205 3.24169,2.90192zM87.07988,171.52254c0.16347,2.0289 0.20004,3.99016 0.18385,5.75383h-9.93098c0.03246,-3.29102 0.34858,-6.20536 0.34858,-6.20536c0,0 0.36094,-5.96417 4.72869,-5.96417c0,0 4.12766,-0.24136 4.66986,6.4157zM405.71858,171.52254c0.16333,2.02724 0.19993,3.98685 0.18385,5.74947c-0.05124,0.00037 -0.10162,0.00436 -0.15296,0.00436h-9.77802c0.03247,-3.29102 0.34858,-6.20536 0.34858,-6.20536c0,0 0.36095,-5.96417 4.7287,-5.96417c0,0 4.12765,-0.24136 4.66985,6.4157zM128.00107,171.58286c1.50612,-2.07844 2.98182,-2.68135 4.21684,-2.68135c1.7471,0 2.98282,1.29579 2.98282,1.29579c0.75306,0.81331 1.02369,1.65628 1.02369,2.52983c0,2.11911 -1.69018,4.05251 -2.15622,4.54923h-15.76279c0.02018,-4.22286 0.71923,-7.65117 0.71923,-7.65117c0.42172,-1.65673 1.05487,-4.24778 4.36834,-4.24778c4.6991,0 4.60809,6.08496 4.60809,6.20544zM73.666,167.81756c0,0 2.98129,1.83695 1.41493,5.542c0,0 -0.93397,2.44021 -4.69927,1.7474c0,0 -2.20177,-0.45936 -3.09608,0.74418c-3.24237,-1.41048 -5.95828,-3.78917 -7.78505,-6.77755c1.12575,-1.02198 2.63929,-1.8749 4.67721,-2.34006c0,0 1.3318,-0.34625 3.18433,-0.38391c1.85253,-0.03766 4.22549,0.23292 6.30394,1.46794zM169.25025,166.91441c3.67494,0.78319 3.49467,3.88594 3.49467,3.88594c-0.18073,5.12081 -5.63324,4.39772 -5.63324,4.39772c0.12348,0.73363 0.21455,1.42313 0.28387,2.07829h-9.12644c0.10682,-1.11423 0.22798,-1.83852 0.22798,-1.83852c0,0 -6.11567,0.66322 -6.11567,-3.97563c0,-4.00628 3.9771,-4.45804 3.9771,-4.45804c2.39473,-0.49702 4.80576,-0.63333 6.88491,-0.61043c3.46526,0.03825 6.00684,0.52067 6.00684,0.52067zM115.19021,173.93173c0,0 1.3615,1.1774 0.76336,3.34464h-14.35816c0.60662,-1.81187 1.94407,-3.9437 4.9199,-4.85076c0,0 1.29491,-0.4361 3.02695,-0.46622c1.73204,-0.03012 3.90085,0.34573 5.64795,1.97234zM417.98817,172.16678c-2.52576,2.56304 -5.85448,4.33258 -9.58828,4.90664c0.61029,-1.69905 1.8546,-3.66296 4.41246,-4.58749c0,0 1.3255,-0.45824 3.13284,-0.48836c0.63315,-0.01055 1.32778,0.03615 2.04297,0.16921zM210.15232,173.41988c0,0 2.22095,1.28637 3.10638,3.85649h-17.39099c0.39936,-0.85578 0.88104,-1.65688 1.48259,-2.35037c1.59273,-1.82994 4.21564,-2.76351 6.89668,-2.84454c2.08526,-0.06303 4.20531,0.38956 5.90535,1.33841zM192.4701,177.27637h-18.87357c0.68253,-2.15398 2.25702,-4.46323 5.88769,-4.79044c4.24726,-0.39159 5.24137,2.07928 5.33173,2.35038c0.03012,-0.12049 0.75348,-2.56071 3.43437,-2.56071c2.70407,0 3.78378,2.78406 4.21978,5.00077zM299.31055,177.27637h-18.87357c0.68253,-2.15398 2.25703,-4.46323 5.8877,-4.79044c4.24726,-0.39159 5.24136,2.07928 5.33173,2.35038c0.03012,-0.12049 0.75347,-2.56071 3.43437,-2.56071c2.70407,0 3.78378,2.78406 4.21978,5.00077zM255.0712,174.50534c0,0 7.46652,-4.5329 9.86921,2.77103h-19.18833c0.00565,-0.07312 0.00545,-0.13773 0.01176,-0.21176c0,0 0.36136,-4.51715 4.39776,-4.75813c0.44054,-0.02635 0.83878,-0.02643 1.20019,-0.00445c2.52987,0.15408 3.23498,1.38623 3.70941,2.20331zM236.33734,172.39617c4.62492,0 6.48853,2.6946 7.24674,4.8802h-15.49068c1.64173,-4.67538 6.47554,-4.92607 7.86595,-4.89783c0.24051,0.0049 0.378,0.01763 0.378,0.01763zM339.74784,172.45649c0,0 3.13368,0.21026 3.22404,3.91531c0.00592,0.27246 0.00871,0.59033 0.01471,0.90457h-8.03363c0.09782,-0.87852 0.21621,-1.47667 0.21621,-1.47667c0.67775,-3.00471 2.9144,-3.38298 3.99034,-3.38441c0.35865,-0.00045 0.58832,0.04119 0.58832,0.04119zM352.76167,175.70993c0.11025,0.5285 0.1771,1.05308 0.2118,1.56644h-8.12041c0.00458,-0.29595 0.01202,-0.55402 0.01618,-0.90457c0.03012,-3.94603 3.43437,-3.94618 3.43437,-3.94618c3.97616,-0.21086 4.45806,3.28432 4.45806,3.28432zM98.7229,176.01146c0,0 0.12401,0.44039 0.23533,1.26491h-9.15145c0.14078,-0.78295 0.27063,-1.29579 0.27063,-1.29579c0.99404,-3.67494 4.18743,-3.5241 4.18743,-3.5241c3.70506,-0.21086 4.45806,3.55497 4.45806,3.55497z" id="text5262" fill="#b3cff8" stroke-width="1" opacity="0.15"/></g></g></g></svg>