<svg version="1.1" xmlns="http://www.w3.org/2000/svg" xmlns:xlink="http://www.w3.org/1999/xlink" width="652.73087" height="359.79286"><defs><linearGradient x1="241.79065" y1="359.9787" x2="241.79065" y2="1.3502" gradientUnits="userSpaceOnUse" id="color-1"><stop offset="0" stop-color="#ffd898"/><stop offset="0.50806" stop-color="#f8e1be"/><stop offset="1" stop-color="#cab2ff"/></linearGradient><radialGradient cx="74.44763" cy="229.6135" r="72.59295" fx="74.44763" fy="229.6135" gradientUnits="userSpaceOnUse" id="color-2"><stop offset="0" stop-color="#ffffff" stop-opacity="0"/><stop offset="0.79374" stop-color="#ffffff" stop-opacity="0.2"/><stop offset="0.89468" stop-color="#ffffff" stop-opacity="0.2"/><stop offset="1" stop-color="#ffffff" stop-opacity="0.3"/></radialGradient><linearGradient x1="75.41826" y1="246.4319" x2="75.41826" y2="157.3023" gradientUnits="userSpaceOnUse" id="color-3"><stop offset="0" stop-color="#ffffff" stop-opacity="0"/><stop offset="0.49547" stop-color="#ffffff" stop-opacity="0.04459"/><stop offset="0.77547" stop-color="#ffffff" stop-opacity="0.2"/><stop offset="1" stop-color="#ffffff" stop-opacity="0.31"/></linearGradient><linearGradient x1="76.03998" y1="211.97213" x2="76.03998" y2="301.10168" gradientUnits="userSpaceOnUse" id="color-4"><stop offset="0" stop-color="#ffffff" stop-opacity="0"/><stop offset="0.49547" stop-color="#ffffff" stop-opacity="0.04459"/><stop offset="0.77547" stop-color="#ffffff" stop-opacity="0.2"/><stop offset="1" stop-color="#ffffff" stop-opacity="0.31"/></linearGradient><radialGradient cx="410.44764" cy="165.6135" r="67.59295" fx="410.44764" fy="165.6135" gradientUnits="userSpaceOnUse" id="color-5"><stop offset="0" stop-color="#ffffff" stop-opacity="0"/><stop offset="0.79374" stop-color="#ffffff" stop-opacity="0.2"/><stop offset="0.89468" stop-color="#ffffff" stop-opacity="0.2"/><stop offset="1" stop-color="#ffffff" stop-opacity="0.3"/></radialGradient><linearGradient x1="411.35141" y1="181.27349" x2="411.35141" y2="98.2829" gradientUnits="userSpaceOnUse" id="color-6"><stop offset="0" stop-color="#ffffff" stop-opacity="0"/><stop offset="0.49547" stop-color="#ffffff" stop-opacity="0.04459"/><stop offset="0.77547" stop-color="#ffffff" stop-opacity="0.2"/><stop offset="1" stop-color="#ffffff" stop-opacity="0.31"/></linearGradient><linearGradient x1="411.93031" y1="149.18722" x2="411.93031" y2="232.17778" gradientUnits="userSpaceOnUse" id="color-7"><stop offset="0" stop-color="#ffffff" stop-opacity="0"/><stop offset="0.49547" stop-color="#ffffff" stop-opacity="0.04459"/><stop offset="0.77547" stop-color="#ffffff" stop-opacity="0.2"/><stop offset="1" stop-color="#ffffff" stop-opacity="0.31"/></linearGradient></defs><g transform="translate(86.86536,0.39637)"><g data-paper-data="{&quot;isPaintingLayer&quot;:true}" fill="none" fill-rule="nonzero" stroke="none" stroke-width="none" stroke-linecap="butt" stroke-linejoin="miter" stroke-miterlimit="none" stroke-dasharray="" stroke-dashoffset="0" font-family="none" font-weight="none" font-size="none" text-anchor="none" style="mix-blend-mode: normal"><path d="M9.21613,214.34136l10.65355,15.69383l-8.59728,-1.35006l0.14542,0.29604l13.18354,19.42036l-10.30908,-1.61931l13.46387,19.8336l-9.14803,-1.43666l13.43483,19.79032l-32.10214,-5.04149l-32.10275,5.04149l13.2575,-19.7625l-8.97014,1.40883l13.28542,-19.80512l-10.1311,1.59083l13.02812,-19.42092l0.1346,-0.26877l-8.43,1.32387l10.52778,-15.69383l9.4007,-18.82326z" id="path3727" fill="#c03c74" stroke="none" stroke-width="0.07014" stroke-miterlimit="10"/><path d="M-86.86472,359.39649v-359.79286h652.73023v359.79286z" data-paper-data="{&quot;origPos&quot;:null}" id="rect3549" fill="url(#color-1)" stroke="none" stroke-width="0.26459" stroke-miterlimit="10"/><path d="M545.16414,254.08251l1.95885,5.66557l-2.50177,-1.11608l0.02164,0.10271l2.42413,7.01089l-2.99985,-1.33841l2.47563,7.16008l-2.66213,-1.18749l2.47039,7.14441l-9.34158,-4.16727l-10.16253,-1.08749l5.63604,-4.95138l-2.83966,-0.30332l5.64785,-4.96205l-3.20703,-0.34336l5.53848,-4.86584l0.06276,-0.07137l-2.66866,-0.28548l4.47559,-3.93201l4.38795,-4.98011z" data-paper-data="{&quot;origPos&quot;:null}" id="path3765" fill="#d4749c" stroke="none" stroke-width="0.02206" stroke-miterlimit="10"/><path d="M-37.89563,251.88002l1.19784,3.46449l-1.52985,-0.6825l0.01299,0.06354l1.48242,4.28716l-1.8345,-0.81818l1.51388,4.37846l-1.62797,-0.72605l1.51067,4.36889l-5.71247,-2.54831l-6.21444,-0.66505l3.44646,-3.02779l-1.73643,-0.18582l3.45368,-3.03436l-1.96115,-0.20975l3.38686,-2.97544l0.03895,-0.04352l-1.63191,-0.17495l2.73691,-2.40443l2.6832,-3.04537z" id="path3771" fill="#d9a7bc" stroke="none" stroke-width="0.01349" stroke-miterlimit="10"/><path d="M41.7978,259.69786l2.04883,3.0347l-1.65342,-0.26111l0.0303,0.05788l2.53544,3.75528l-1.98261,-0.31289l2.58937,3.83531l-1.75942,-0.27764l2.58379,3.82691l-6.17377,-0.97485l-6.17389,0.97485l2.54968,-3.82152l-1.72514,0.27243l2.55496,-3.82975l-1.94834,0.30768l2.50558,-3.75546l0.02597,-0.05222l-1.62134,0.25588l2.02472,-3.03475l1.80789,-3.63988z" id="path3796" fill="#d9a7bc" stroke="none" stroke-width="0.01349" stroke-miterlimit="10"/><path d="M170.55634,254.16103l1.32265,1.95908l-1.06733,-0.16848l0.02311,0.03486l1.63673,2.42423l-1.27984,-0.20217l1.67151,2.47589l-1.13574,-0.17893l1.66793,2.47048l-3.98546,-0.62929l-3.98553,0.62929l1.64592,-2.46695l-1.11361,0.17603l1.64927,-2.47228l-1.25771,0.19868l1.61749,-2.4243l0.01733,-0.03486l-1.04665,0.16499l1.30706,-1.95907l1.16706,-2.34971z" data-paper-data="{&quot;origPos&quot;:null}" id="path3800" fill="#d9a7bc" stroke="none" stroke-width="0.00653" stroke-miterlimit="10"/><path d="M247.4095,256.24217l1.14432,2.12605l-1.06712,-0.28069l0.01688,0.04351l1.41608,2.6309l-1.27959,-0.33683l1.4462,2.68695l-1.13554,-0.29853l1.44309,2.68111l-3.98456,-1.04909l-4.11264,0.22934l1.92292,-2.33676l-1.14915,0.06397l1.92687,-2.34181l-1.29784,0.07224l1.88964,-2.29647l0.01948,-0.03481l-1.08003,0.06049l1.52702,-1.85574l1.42452,-2.26688z" id="path3802" fill="#d9a7bc" stroke="none" stroke-width="0.00889" stroke-miterlimit="10"/><path d="M376.48965,261.71541l2.10564,2.26408l-1.41438,-0.00009l0.03506,0.05004l2.60567,2.80171l-1.69606,-0.00035l2.66112,2.86146l-1.50502,0.00013l2.65538,2.8552l-5.28152,-0.001l-5.02786,1.62624l1.63139,-3.52616l-1.40491,0.45403l1.63466,-3.53369l-1.58671,0.51269l1.60312,-3.46532l0.01255,-0.05004l-1.32029,0.42735l1.29548,-2.80032l1.03566,-3.27689z" id="path3804" fill="#d9a7bc" stroke="none" stroke-width="0.0114" stroke-miterlimit="10"/><path d="M387.07197,263.74768l1.34073,1.44163l-0.90058,-0.00005l0.0225,0.03046l1.65913,1.78395l-1.07995,-0.00023l1.69443,1.82198l-0.9583,0.00009l1.69077,1.81798l-3.36293,-0.00061l-3.20141,1.03547l1.03877,-2.24524l-0.89456,0.28896l1.04085,-2.25003l-1.01031,0.32639l1.02076,-2.20651l0.00779,-0.03046l-0.84067,0.27199l0.82488,-1.78308l0.65945,-2.08649z" id="path3806" fill="#d9a7bc" stroke="none" stroke-width="0.00726" stroke-miterlimit="10"/><path d="M481.55728,255.70331l1.5914,2.65484l-1.38345,-0.29549l0.0238,0.05614l1.96934,3.28525l-1.65893,-0.35467l2.01121,3.35526l-1.47213,-0.31464l2.00689,3.34796l-5.16587,-1.1052l-5.25426,0.53963l2.32493,-3.10803l-1.4681,0.15014l2.3297,-3.11466l-1.65805,0.16972l2.28469,-3.05446l0.02294,-0.04656l-1.37979,0.14187l1.84625,-2.46823l1.69068,-2.98875z" id="path3808" fill="#d9a7bc" stroke="none" stroke-width="0.0114" stroke-miterlimit="10"/><path d="M278.3592,269.93674c55.12855,18.95167 92.05569,-2.04958 147.10583,-4.51851c49.61766,0.28148 93.61036,-1.49242 140.39985,13.30381v80.67385h-652.73022v-105.99386c25.48064,6.83108 47.73945,11.36038 73.85347,15.20596c58.01075,11.39009 116.63734,-6.31011 173.92417,-6.59951c34.48268,0.55216 83.6484,-1.1777 117.44692,7.92825z" id="path3720" fill="#d4749c" stroke="none" stroke-width="0.26459" stroke-miterlimit="10"/><path d="M-51.98611,237.19084l2.39711,6.93312l-3.06144,-1.36578l0.02597,0.12533l2.96643,8.57925l-3.671,-1.63772l3.02954,8.7619l-3.25767,-1.45325l3.02304,8.74279l-11.43149,-5.09957l-12.43608,-1.33079l6.8969,-6.05901l-3.4749,-0.37165l6.9114,-6.07211l-3.92454,-0.41995l6.77757,-5.95435l0.07661,-0.08704l-3.26567,-0.34902l5.4769,-4.8116l5.36956,-6.09422z" id="path3747" fill="#d4749c" stroke="none" stroke-width="0.027" stroke-miterlimit="10"/><path d="M92.16891,244.55778l3.95505,5.85826l-3.1917,-0.50399l0.05367,0.11053l4.89433,7.24928l-3.82716,-0.60451l4.99838,7.4036l-3.39621,-0.53632l4.98765,7.38737l-11.91775,-1.88187l-11.918,1.88187l4.92182,-7.37702l-3.33012,0.52592l4.93207,-7.39285l-3.76102,0.59381l4.83659,-7.2495l0.04978,-0.10009l-3.1296,0.49428l3.90844,-5.85822l3.48996,-7.02638z" data-paper-data="{&quot;origPos&quot;:null}" id="path3757" fill="#d4749c" stroke="none" stroke-width="0.02604" stroke-miterlimit="10"/><path d="M196.45138,235.37763l4.36652,6.46774l-3.5238,-0.55642l0.0593,0.12229l5.40354,8.00346l-4.22534,-0.6674l5.5184,8.17388l-3.74956,-0.59207l5.50659,8.1559l-13.15766,-2.07765l-13.15796,2.07765l5.43388,-8.1445l-3.67659,0.58067l5.44522,-8.16204l-4.15233,0.65556l5.33979,-8.00373l0.05496,-0.11053l-3.4552,0.54576l4.31506,-6.46774l3.85304,-7.7574z" id="path3759" fill="#d4749c" stroke="none" stroke-width="0.02875" stroke-miterlimit="10"/><path d="M433.16519,237.46078l4.69525,6.95467l-3.78907,-0.59838l0.06384,0.13143l5.81032,8.60601l-4.54341,-0.7177l5.93383,8.78927l-4.03183,-0.63668l5.92112,8.7699l-14.1482,-2.23405l-14.14848,2.23405l5.84297,-8.75763l-3.9534,0.62441l5.85517,-8.77648l-4.46494,0.70491l5.74178,-8.60627l0.05917,-0.11881l-3.71532,0.58689l4.6399,-6.95467l4.14313,-8.34137z" id="path3761" fill="#d4749c" stroke="none" stroke-width="0.03091" stroke-miterlimit="10"/><path d="M462.2304,243.18671l3.8058,5.63715l-3.07128,-0.48515l0.05176,0.10706l4.70963,6.97577l-3.68273,-0.58172l4.80975,7.12418l-3.26806,-0.51605l4.79943,7.10854l-11.468,-1.81079l-11.46823,1.81079l4.73609,-7.09862l-3.20448,0.50594l4.74597,-7.11381l-3.61912,0.57136l4.65409,-6.97586l0.04796,-0.09661l-3.0115,0.47548l3.76094,-5.63715l3.35826,-6.76131z" id="path3763" fill="#d4749c" stroke="none" stroke-width="0.02506" stroke-miterlimit="10"/><path d="M281.06113,246.58779l3.95505,5.85826l-3.19171,-0.50399l0.05366,0.11054l4.89434,7.24928l-3.82716,-0.60451l4.99838,7.4036l-3.39621,-0.53632l4.98765,7.38737l-11.91774,-1.88186l-11.918,1.88186l4.92182,-7.377l-3.33012,0.52592l4.93207,-7.39285l-3.76103,0.59381l4.8366,-7.2495l0.04978,-0.1001l-3.1296,0.49429l3.90844,-5.85822l3.48995,-7.02638z" id="path3767" fill="#d4749c" stroke="none" stroke-width="0.02604" stroke-miterlimit="10"/><path d="M142.81766,248.8909l3.005,4.45101l-2.42499,-0.38296l0.03896,0.08399l3.71861,5.50789l-2.90778,-0.45929l3.79769,5.62514l-2.58041,-0.40732l3.78954,5.61281l-9.05492,-1.42979l-9.0551,1.42979l3.73951,-5.60494l-2.53016,0.3995l3.7473,-5.61695l-2.85758,0.45115l3.67481,-5.50807l0.03896,-0.07615l-2.37781,0.37556l2.96959,-4.45097l2.6516,-5.33857z" id="path3769" fill="#d4749c" stroke="none" stroke-width="0.01979" stroke-miterlimit="10"/><path d="M134.6456,310.67694c55.70937,15.23215 108.30637,-12.91776 162.27359,-19.03679c49.5273,-8.27205 85.65106,23.64021 132.39189,30.15312c46.98233,2.61967 92.49438,-13.68529 136.55378,-28.06667v65.66933h-652.73022v-58.47967c33.20507,-13.7434 69.4266,-17.78456 105.81616,-19.07418c42.63637,0.75335 75.52827,18.44934 115.69481,28.83486z" data-paper-data="{&quot;origPos&quot;:null}" id="path3713" fill="#c03c74" stroke="none" stroke-width="1" stroke-miterlimit="10"/><path d="M144.66216,245.81227l10.19803,16.1505l-8.57916,-1.62532l0.13696,0.30307l12.61977,19.98534l-10.28727,-1.9493l12.8882,20.41061l-9.12884,-1.72949l12.86047,20.36613l-32.03444,-6.06923l-32.34646,4.0969l13.90431,-19.5181l-9.03824,1.14486l13.93348,-19.5602l-10.20798,1.2927l13.66374,-19.18078l0.14333,-0.26687l-8.49402,1.07585l11.0414,-15.49978l10.00787,-18.68951z" data-paper-data="{&quot;origPos&quot;:null,&quot;origRot&quot;:0}" id="path3739" fill="#c03c74" stroke="none" stroke-width="0.05771" stroke-miterlimit="10"/><path d="M335.97597,219.80456l12.78372,18.93517l-10.31631,-1.62885l0.17464,0.35729l15.81962,23.43131l-12.37036,-1.95367l16.15602,23.92982l-10.9773,-1.73338l16.12119,23.87773l-38.52101,-6.08278l-38.52173,6.08278l15.90839,-23.84405l-10.76373,1.6997l15.94181,-23.89552l-12.15683,1.91937l15.63315,-23.43205l0.16152,-0.32421l-10.11558,1.59734l12.63285,-18.93513l11.28034,-22.71087z" data-paper-data="{&quot;origPos&quot;:null}" id="path3741" fill="#c03c74" stroke="none" stroke-width="0.08417" stroke-miterlimit="10"/><path d="M511.09893,261.3456l8.48708,13.28662l-6.84899,-1.14301l0.11599,0.25023l10.50259,16.44158l-8.21264,-1.37096l10.72592,16.79142l-7.28777,-1.21634l10.70281,16.75482l-25.57404,-4.26819l-25.57448,4.26819l10.56154,-16.73123l-7.14603,1.19275l10.58374,-16.76731l-8.0709,1.34685l10.37881,-16.44205l0.10734,-0.22761l-6.71573,1.12086l8.38693,-13.28667l7.48898,-15.93603z" data-paper-data="{&quot;origPos&quot;:null}" id="path3743" fill="#c03c74" stroke="none" stroke-width="0.05745" stroke-miterlimit="10"/><path d="M228.51289,269.00739l6.5805,9.74701l-5.31033,-0.83851l0.09003,0.18408l8.14319,12.06137l-6.36771,-1.00571l8.31643,12.31804l-5.65067,-0.89225l8.29851,12.29118l-19.82891,-3.13115l-19.82927,3.13115l8.18896,-12.27386l-5.54069,0.87493l8.2061,-12.30032l-6.25777,0.988l8.04722,-12.06176l0.0831,-0.16711l-5.20709,0.82224l6.50287,-9.74698l5.80661,-11.6905z" data-paper-data="{&quot;origPos&quot;:null}" id="path3745" fill="#c03c74" stroke="none" stroke-width="0.04333" stroke-miterlimit="10"/><path d="M416.65628,273.05332l7.74455,11.4713l-6.24972,-0.98686l0.10604,0.21672l9.58378,14.19502l-7.49417,-1.18361l9.78763,14.49714l-6.65028,-1.05009l9.76655,14.46553l-23.33667,-3.68505l-23.3372,3.68505l9.63766,-14.44513l-6.52087,1.02969l9.65779,-14.47633l-7.36477,1.16281l9.47078,-14.1955l0.09781,-0.19714l-6.12823,0.96771l7.65328,-11.47126l6.83384,-13.75862z" data-paper-data="{&quot;origPos&quot;:null}" id="path3828" fill="#c03c74" stroke="none" stroke-width="0.05099" stroke-miterlimit="10"/><path d="M83.75419,76.07831c3.79132,0 6.84349,2.69294 6.84349,6.03742c0,3.34444 -3.05217,6.03661 -6.84349,6.03661h-0.45523c0.65774,0.92772 1.04337,2.02208 1.04337,3.20136c0,0.55106 -0.09002,1.08202 -0.2454,1.58858h2.34673c3.79128,0 6.84345,2.69212 6.84345,6.03656c0,3.34449 -3.05217,6.03664 -6.84345,6.03664h-53.08849c-3.79128,0 -6.84345,-2.69215 -6.84345,-6.03664c0,-0.55101 0.09002,-1.08199 0.2454,-1.5885h-2.34678c-3.79128,0 -6.84345,-2.69216 -6.84345,-6.03665c0,-3.34444 3.05217,-6.0366 6.84345,-6.0366h0.45445c-0.65739,-0.92764 -1.0426,-2.02217 -1.0426,-3.20136c0,-3.34449 3.05221,-6.03742 6.84349,-6.03742z" data-paper-data="{&quot;origPos&quot;:null}" id="rect3948" fill="#cfbbfb" stroke="none" stroke-width="0.09001" stroke-miterlimit="10"/><path d="M-71.36249,16.98769c0,-1.06211 0.86101,-1.92312 1.92312,-1.92312c1.06212,0 1.92312,0.86101 1.92312,1.92312c0,1.06211 -0.86101,1.92313 -1.92312,1.92313c-1.06212,0 -1.92312,-0.86101 -1.92312,-1.92313z" id="path3961" fill="#ffffff" stroke="none" stroke-width="0.26459" stroke-miterlimit="10"/><path d="M-41.01625,32.16083c0,-1.06211 0.86101,-1.92313 1.92312,-1.92313c1.06212,0 1.92312,0.86101 1.92312,1.92313c0,1.06211 -0.86101,1.92312 -1.92312,1.92312c-1.06212,0 -1.92312,-0.86101 -1.92312,-1.92312z" id="circle3963" fill="#ffffff" stroke="none" stroke-width="0.26459" stroke-miterlimit="10"/><path d="M8.63608,10.41105c0,-1.06212 0.86101,-1.92313 1.92312,-1.92313c1.06212,0 1.92312,0.86101 1.92312,1.92313c0,1.06212 -0.86101,1.92312 -1.92312,1.92312c-1.06212,0 -1.92312,-0.86101 -1.92312,-1.92312z" data-paper-data="{&quot;origPos&quot;:null}" id="circle3965" fill="#ffffff" stroke="none" stroke-width="0.26459" stroke-miterlimit="10"/><path d="M44.86125,23.61223c0,-1.06211 0.86101,-1.92312 1.92313,-1.92312c1.06211,0 1.92312,0.86101 1.92312,1.92312c0,1.06211 -0.86101,1.92312 -1.92312,1.92312c-1.06212,0 -1.92313,-0.86101 -1.92313,-1.92312z" data-paper-data="{&quot;origPos&quot;:null}" id="circle3967" fill="#ffffff" stroke="none" stroke-width="0.26459" stroke-miterlimit="10"/><path d="M139.60566,26.01966c0,-1.06211 0.86101,-1.92312 1.92312,-1.92312c1.06211,0 1.92312,0.86101 1.92312,1.92312c0,1.06211 -0.86101,1.92312 -1.92312,1.92312c-1.06211,0 -1.92312,-0.86101 -1.92312,-1.92312z" data-paper-data="{&quot;origPos&quot;:null}" id="circle3975" fill="#ffffff" stroke="none" stroke-width="0.26459" stroke-miterlimit="10"/><path d="M194.88273,15.55623c0,-1.06212 0.86101,-1.92313 1.92313,-1.92313c1.06212,0 1.92312,0.86101 1.92312,1.92313c0,1.06211 -0.86101,1.92312 -1.92312,1.92312c-1.06212,0 -1.92313,-0.86101 -1.92313,-1.92312z" id="circle3977" fill="#ffffff" stroke="none" stroke-width="0.26459" stroke-miterlimit="10"/><path d="M257.00656,29.45906c0,-1.06211 0.86101,-1.92312 1.92312,-1.92312c1.06212,0 1.92312,0.86101 1.92312,1.92312c0,1.06211 -0.86101,1.92312 -1.92312,1.92312c-1.06212,0 -1.92312,-0.86101 -1.92312,-1.92312z" data-paper-data="{&quot;origPos&quot;:null}" id="circle3979" fill="#ffffff" stroke="none" stroke-width="0.26459" stroke-miterlimit="10"/><path d="M317.98936,16.70137c0,-1.06212 0.86101,-1.92313 1.92312,-1.92313c1.06212,0 1.92312,0.86101 1.92312,1.92313c0,1.06211 -0.86101,1.92312 -1.92312,1.92312c-1.06212,0 -1.92312,-0.86101 -1.92312,-1.92312z" data-paper-data="{&quot;origPos&quot;:null}" id="circle3981" fill="#ffffff" stroke="none" stroke-width="0.26459" stroke-miterlimit="10"/><path d="M374.38353,22.42309c0,-1.06211 0.86101,-1.92312 1.92313,-1.92312c1.06212,0 1.92312,0.86101 1.92312,1.92312c0,1.06211 -0.86101,1.92312 -1.92312,1.92312c-1.06212,0 -1.92313,-0.86101 -1.92313,-1.92312z" data-paper-data="{&quot;origPos&quot;:null}" id="circle3983" fill="#ffffff" stroke="none" stroke-width="0.26459" stroke-miterlimit="10"/><path d="M426.20111,30.59221c0,-1.06211 0.86101,-1.92313 1.92312,-1.92313c1.06212,0 1.92313,0.86101 1.92313,1.92313c0,1.06211 -0.86101,1.92312 -1.92313,1.92312c-1.06212,0 -1.92312,-0.86101 -1.92312,-1.92312z" data-paper-data="{&quot;origPos&quot;:null}" id="circle3985" fill="#ffffff" stroke="none" stroke-width="0.26459" stroke-miterlimit="10"/><path d="M482.88556,14.12485c0,-1.06212 0.86101,-1.92312 1.92312,-1.92312c1.06212,0 1.92313,0.86101 1.92313,1.92312c0,1.06212 -0.86101,1.92313 -1.92313,1.92313c-1.06212,0 -1.92312,-0.86101 -1.92312,-1.92313z" id="circle3987" fill="#ffffff" stroke="none" stroke-width="0.26459" stroke-miterlimit="10"/><path d="M526.6872,31.87457c0,-1.06211 0.86101,-1.92312 1.92312,-1.92312c1.06212,0 1.92313,0.86101 1.92313,1.92312c0,1.06212 -0.86101,1.92313 -1.92313,1.92313c-1.06212,0 -1.92312,-0.86101 -1.92312,-1.92313z" id="circle3989" fill="#ffffff" stroke="none" stroke-width="0.26459" stroke-miterlimit="10"/><path d="M93.60569,15.01964c0,-1.06211 0.86101,-1.92312 1.92312,-1.92312c1.06211,0 1.92312,0.86101 1.92312,1.92312c0,1.06211 -0.86101,1.92312 -1.92312,1.92312c-1.06211,0 -1.92312,-0.86101 -1.92312,-1.92312z" data-paper-data="{&quot;origPos&quot;:null}" id="path1639" fill="#ffffff" stroke="none" stroke-width="0.26459" stroke-miterlimit="10"/><path d="M268.18832,63.07832c3.79128,0 6.84349,2.69293 6.84349,6.03742c0,1.17919 -0.38521,2.27372 -1.0426,3.20136h0.45445c3.79128,0 6.84345,2.69216 6.84345,6.0366c0,3.34449 -3.05217,6.03665 -6.84345,6.03665h-2.34678c0.15538,0.50651 0.2454,1.03749 0.2454,1.5885c0,3.34449 -3.05217,6.03664 -6.84345,6.03664h-53.08849c-3.79128,0 -6.84345,-2.69215 -6.84345,-6.03664c0,-3.34444 3.05217,-6.03656 6.84345,-6.03656h2.34673c-0.15538,-0.50656 -0.2454,-1.03752 -0.2454,-1.58858c0,-1.17928 0.38563,-2.27364 1.04337,-3.20136h-0.45523c-3.79132,0 -6.84349,-2.69217 -6.84349,-6.03661c0,-3.34448 3.05217,-6.03742 6.84349,-6.03742z" data-paper-data="{&quot;origPos&quot;:null,&quot;index&quot;:null}" id="rect3948" fill="#cfbbfb" stroke="none" stroke-width="0.09001" stroke-miterlimit="10"/><path d="M469.86127,14.61223c0,-1.06211 0.86101,-1.92312 1.92313,-1.92312c1.06211,0 1.92312,0.86101 1.92312,1.92312c0,1.06211 -0.86101,1.92312 -1.92312,1.92312c-1.06212,0 -1.92313,-0.86101 -1.92313,-1.92312z" data-paper-data="{&quot;origPos&quot;:null}" id="circle3967" fill="#ffffff" stroke="none" stroke-width="0.26459" stroke-miterlimit="10"/><g data-paper-data="{&quot;origPos&quot;:null}"><path d="M152.03139,82.48918c3.89363,3.83552 5.84003,8.6019 5.84003,14.29706c0,4.88158 -1.51074,9.15263 -4.53267,12.81379c3.02192,3.60308 4.53267,7.81672 4.53267,12.64018c0,5.69519 -1.9464,10.48855 -5.84003,14.38219c-3.89363,3.83551 -8.68818,5.75377 -14.38332,5.75377c-2.67324,0 -4.73672,-1.01653 -6.18958,-3.05053c-1.39472,2.034 -3.48634,3.05053 -6.27581,3.05053c-2.20831,0 -4.03879,-0.7261 -5.49164,-2.17896c-1.45284,-1.39472 -2.18006,-3.19705 -2.18006,-5.40538v-38.00558c0,-5.69516 1.91825,-10.46154 5.75377,-14.29706c3.89364,-3.89364 8.68816,-5.84003 14.38332,-5.84003c5.69515,0 10.48969,1.94638 14.38332,5.84003zM214.52291,78.82806c1.45284,1.39473 2.17895,3.19705 2.17895,5.40537v34.1709c0,2.44079 0.84319,4.50314 2.52848,6.18844c1.68531,1.68531 3.74878,2.52848 6.18957,2.52848c2.44079,0 4.50313,-0.84317 6.18844,-2.52848c1.74341,-1.68529 2.61587,-3.74765 2.61587,-6.18844c0,-2.44079 -0.87246,-4.50427 -2.61587,-6.18956c-1.68531,-1.74345 -3.74765,-2.61476 -6.18844,-2.61476c-2.20833,0 -4.03992,-0.69797 -5.49277,-2.09268c-1.39473,-1.45285 -2.09156,-3.28331 -2.09156,-5.49164c0,-2.20831 0.69683,-4.03879 2.09156,-5.49163c1.45284,-1.45285 3.28443,-2.17894 5.49277,-2.17894c6.79934,0 12.49444,2.32464 17.08544,6.97377c4.64912,4.59101 6.97377,10.28612 6.97377,17.08545c0,6.74121 -2.32465,12.43632 -6.97377,17.08543c-4.64912,4.59101 -10.34422,6.8864 -17.08544,6.8864c-6.74122,0 -12.43633,-2.29539 -17.08544,-6.8864c-4.591,-4.64911 -6.88752,-10.34422 -6.88752,-17.08543v-34.1709c0,-2.15019 0.72723,-3.95253 2.18009,-5.40537c1.45285,-1.45284 3.25403,-2.17893 5.40425,-2.17893c2.20833,0 4.03878,0.7261 5.49163,2.17893zM263.72738,78.82806c1.45284,1.39473 2.17895,3.19705 2.17895,5.40537v34.1709c0,2.44079 0.84205,4.50314 2.52735,6.18844c1.68531,1.68531 3.74878,2.52848 6.18956,2.52848c2.44079,0 4.50427,-0.84317 6.18958,-2.52848c1.74342,-1.68529 2.61474,-3.74765 2.61474,-6.18844c0,-2.44079 -0.87131,-4.50427 -2.61474,-6.18956c-1.68531,-1.74345 -3.74879,-2.61476 -6.18958,-2.61476c-2.20833,0 -4.03878,-0.69797 -5.49162,-2.09268c-1.39473,-1.45285 -2.09269,-3.28331 -2.09269,-5.49164c0,-2.20831 0.69795,-4.03879 2.09269,-5.49163c1.45285,-1.45285 3.28329,-2.17894 5.49162,-2.17894c6.79934,0 12.49444,2.32464 17.08544,6.97377c4.64912,4.59101 6.97377,10.28612 6.97377,17.08545c0,6.74121 -2.32465,12.43632 -6.97377,17.08543c-4.64912,4.59101 -10.34422,6.8864 -17.08544,6.8864c-6.74122,0 -12.43632,-2.29539 -17.08543,-6.8864c-4.59101,-4.64911 -6.88639,-10.34422 -6.88639,-17.08543v-34.1709c0,-2.15019 0.7261,-3.95253 2.17895,-5.40537c1.45285,-1.45284 3.25516,-2.17893 5.40538,-2.17893c2.20833,0 4.03878,0.7261 5.49163,2.17893zM312.93075,78.91552c1.45285,1.39473 2.17895,3.22518 2.17895,5.49163v50.38474c0,2.20834 -0.7261,4.01065 -2.17895,5.40537c-1.45285,1.45285 -3.28329,2.17896 -5.49162,2.17896c-2.20833,0 -4.03878,-0.7261 -5.49163,-2.17896c-1.39473,-1.39472 -2.0927,-3.19703 -2.0927,-5.40537v-50.38474c0,-2.20834 0.69797,-4.0095 2.0927,-5.40424c1.45285,-1.45284 3.2833,-2.17894 5.49163,-2.17894c2.26645,0 4.09688,0.69683 5.49162,2.09156zM134.16062,93.38623c-0.92983,0.92983 -1.39473,2.06344 -1.39473,3.40006v4.96847h4.79479c1.39476,0 2.58579,-0.46493 3.57371,-1.39477c0.98794,-0.98794 1.48214,-2.17894 1.48214,-3.5737c0,-1.39476 -0.49422,-2.55763 -1.48214,-3.48743c-0.92981,-0.92983 -2.09158,-1.39477 -3.48631,-1.39477c-1.33663,0 -2.4995,0.49422 -3.48745,1.48214zM197.93228,96.6989c1.45285,1.39476 2.17895,3.19593 2.17895,5.40425v19.70019c0,5.81138 -1.97567,10.69374 -5.92741,14.64547c-3.89363,3.95175 -8.74671,5.92741 -14.55809,5.92741c-5.86952,0 -10.77997,-1.9464 -14.73174,-5.84004c-3.89363,-3.95175 -5.84003,-8.86337 -5.84003,-14.73285v-19.5254c0,-2.20834 0.69683,-4.03879 2.09156,-5.49164c1.45285,-1.45285 3.28331,-2.18006 5.49163,-2.18006c2.20834,0 4.03992,0.72721 5.49277,2.18006c1.45284,1.45285 2.17895,3.28331 2.17895,5.49164v19.5254c0,1.51095 0.4942,2.78978 1.48213,3.83585c1.04605,0.98794 2.32376,1.48212 3.83472,1.48212c1.51096,0 2.76052,-0.49419 3.74847,-1.48212c0.98794,-1.04607 1.48214,-2.32491 1.48214,-3.83585v-19.70019c0,-2.20831 0.7261,-4.0095 2.17895,-5.40425c1.45285,-1.45284 3.28329,-2.18006 5.49162,-2.18006c2.20833,0 4.01064,0.72722 5.40538,2.18006zM357.68882,101.84212c1.51096,1.56908 2.26633,3.31173 2.26633,5.22948c0,2.44079 -1.04581,4.475 -3.13791,6.10217l-11.07064,10.80964c-1.62719,1.56907 -3.39909,2.3537 -5.31685,2.3537c-2.15022,0 -3.9818,-0.75536 -5.49276,-2.26633c-1.51096,-1.56908 -2.26632,-3.42881 -2.26632,-5.579c0,-1.62719 0.63942,-3.22573 1.91793,-4.79482l3.74847,-3.74849c-1.97588,0.46493 -3.60256,1.51072 -4.88106,3.13793c-1.22039,1.56908 -1.83055,3.3714 -1.83055,5.40538c0,2.44079 0.84205,4.5324 2.52735,6.2758c1.68531,1.68533 3.74878,2.52848 6.18957,2.52848h7.75796c2.20833,0 4.00951,0.7261 5.40425,2.17896c1.45285,1.39476 2.18008,3.19593 2.18008,5.40427c0,2.20831 -0.72724,4.03877 -2.18008,5.49163c-1.39473,1.45285 -3.19592,2.18006 -5.40425,2.18006h-7.75796c-6.79934,0 -12.49444,-2.29648 -17.08544,-6.8875c-4.591,-4.64911 -6.88637,-10.37236 -6.88637,-17.17169c0,-6.79935 2.29538,-12.49446 6.88637,-17.08545c4.591,-4.59101 10.28611,-6.88751 17.08544,-6.88751c6.85745,0 12.63923,2.44171 17.34646,7.32328zM132.76585,127.12131h5.05583c1.33662,0 2.47024,-0.4649 3.40007,-1.39473c0.92981,-0.98795 1.39476,-2.14971 1.39476,-3.48633c0,-1.51096 -0.58088,-2.7324 -1.74316,-3.66221c-1.10416,-0.92983 -2.44157,-1.48141 -4.01064,-1.65577c-1.51096,-0.17433 -2.87647,-0.66856 -4.09686,-1.48213z" data-paper-data="{&quot;origPos&quot;:null}" id="path874" fill="none" stroke="#128fae" stroke-width="7.959" stroke-miterlimit="4"/><path d="M340.12666,110.64533c2.67905,-0.34339 5.51802,-0.82896 8.41652,-1.40827c2.89848,-0.57932 5.85629,-1.25258 8.7735,-1.97283c0.88562,-0.21865 1.714,-0.45851 2.58929,-0.68445c0.01157,0.16516 0.04921,0.32424 0.04921,0.49208c0,2.44079 -1.04563,4.47474 -3.13773,6.1019l-11.07111,10.80985c-1.62719,1.56907 -3.39859,2.35308 -5.31635,2.35308c-2.15022,0 -3.98165,-0.75533 -5.4926,-2.26629c-1.51096,-1.56908 -2.26629,-3.4283 -2.26629,-5.57849c0,-1.62719 0.63885,-3.22564 1.91736,-4.79473l2.76465,-2.76464c0.91064,-0.08428 1.81767,-0.16468 2.77359,-0.2872z" data-paper-data="{&quot;origPos&quot;:null}" id="path907" fill="#00ccff" stroke="none" stroke-width="4.7573" stroke-miterlimit="10"/><path d="M319.75415,109.62089c2.12725,0.48785 4.26402,0.88926 6.41505,1.16581c2.15103,0.27654 4.31593,0.42809 6.50005,0.41604c0.94324,-0.00521 1.95538,-0.06111 2.98205,-0.12884c-0.81959,0.52439 -1.5524,1.19355 -2.19561,2.0122c-1.22039,1.56908 -1.83057,3.37183 -1.83057,5.40581c0,2.44079 0.84225,4.53208 2.52754,6.27548c1.68531,1.68533 3.7488,2.52844 6.18959,2.52844h7.75801c2.20833,0 4.00929,0.72665 5.40402,2.1795c1.45285,1.39474 2.1804,3.1957 2.1804,5.40404c0,2.20831 -0.72755,4.03885 -2.1804,5.49171c-1.39473,1.45285 -3.19569,2.1795 -5.40402,2.1795h-7.75801c-6.79934,0 -12.49432,-2.29643 -17.08533,-6.88746c-4.591,-4.64911 -6.88656,-10.37189 -6.88656,-17.17122c0,-3.37847 0.56917,-6.48336 1.70263,-9.31658c0.56127,0.14036 1.11864,0.31656 1.68115,0.44556z" data-paper-data="{&quot;origPos&quot;:null}" id="path905" fill="#00ccff" stroke="none" stroke-width="4.7573" stroke-miterlimit="10"/><path d="M300.74073,103.94308c2.11178,0.65791 4.21975,1.3453 6.32737,2.02383c2.10763,0.67853 4.21549,1.3483 6.32827,1.97014c0.56935,0.16758 1.1432,0.29372 1.71336,0.45362v26.40101c0,2.20834 -0.72576,4.01111 -2.17861,5.40582c-1.45285,1.45285 -3.28338,2.17861 -5.49171,2.17861c-2.20833,0 -4.03886,-0.72576 -5.49172,-2.17861c-1.39473,-1.39472 -2.09272,-3.19748 -2.09272,-5.40582v-31.10628c0.29466,0.09049 0.59128,0.16594 0.88577,0.25768z" data-paper-data="{&quot;origPos&quot;:null}" id="path901" fill="#00ccff" stroke="none" stroke-width="4.7573" stroke-miterlimit="10"/><path d="M253.15932,102.33887c2.35757,-0.39268 4.71475,-0.7796 7.07266,-1.13001c1.89072,-0.28098 3.78235,-0.51173 5.67423,-0.73008v17.92546c0,2.44079 0.84224,4.5034 2.52755,6.18869c1.68531,1.68531 3.74879,2.52844 6.18958,2.52844c2.44079,0 4.50427,-0.84314 6.18959,-2.52844c1.74341,-1.68529 2.61433,-3.7479 2.61433,-6.18869c0,-2.44079 -0.87092,-4.5043 -2.61433,-6.18959c-1.68531,-1.74345 -3.7488,-2.61433 -6.18959,-2.61433c-2.20833,0 -4.03886,-0.698 -5.49171,-2.09272c-1.39473,-1.45285 -2.09272,-3.28338 -2.09272,-5.49172c0,-0.59756 0.06065,-1.16218 0.16283,-1.70442c0.0355,-0.00376 0.07097,-0.00975 0.10647,-0.01342c2.35987,-0.24694 4.72083,-0.42685 7.08429,-0.50909c2.36346,-0.08224 4.72904,-0.06672 7.09772,0.07695c2.18015,0.13224 4.34216,0.40973 6.4902,0.7945c1.31875,0.23622 2.62455,0.5734 3.93402,0.88129c4.50411,4.553 6.76846,10.1701 6.76846,16.86254c0,6.74121 -2.32513,12.43622 -6.97425,17.08533c-4.64912,4.59101 -10.34411,6.88656 -17.08533,6.88656c-6.74122,0 -12.4362,-2.29556 -17.08533,-6.88656c-4.59101,-4.64911 -6.88657,-10.34412 -6.88657,-17.08533v-15.67885c0.83548,-0.13924 1.67249,-0.24737 2.50787,-0.38652z" data-paper-data="{&quot;origPos&quot;:null}" id="path895" fill="#00ccff" stroke="none" stroke-width="4.7573" stroke-miterlimit="10"/><path d="M211.4767,104.05492c1.73802,0.27993 3.48116,0.49517 5.22509,0.69966v13.64965c0,2.44079 0.84314,4.5034 2.52844,6.18869c1.68531,1.68531 3.7488,2.52844 6.18959,2.52844c2.44078,0 4.50338,-0.84314 6.18868,-2.52844c1.74341,-1.68529 2.61612,-3.7479 2.61612,-6.18869c0,-2.44079 -0.87271,-4.5043 -2.61612,-6.18959c-1.68531,-1.74345 -3.7479,-2.61433 -6.18868,-2.61433c-2.20834,0 -4.03977,-0.698 -5.49262,-2.09272c-0.71811,-0.74803 -1.24345,-1.60075 -1.59169,-2.54903c2.15022,0.21626 4.30535,0.36738 6.46873,0.41335c2.3725,0.05042 4.74213,-0.01602 7.10845,-0.1682c2.36633,-0.15218 4.72968,-0.38999 7.09145,-0.68355c1.85737,-0.23087 3.71051,-0.57353 5.56597,-0.85803c3.25734,4.14406 4.90925,9.0508 4.90925,14.74209c0,6.74121 -2.32513,12.43622 -6.97424,17.08533c-4.64911,4.59101 -10.34411,6.88656 -17.08533,6.88656c-6.74122,0 -12.43621,-2.29556 -17.08533,-6.88656c-4.591,-4.64911 -6.88746,-10.34412 -6.88746,-17.08533v-16.26756c3.34003,0.67968 6.67833,1.3785 10.02967,1.91825z" data-paper-data="{&quot;origPos&quot;:null}" id="path889" fill="#00ccff" stroke="none" stroke-width="4.7573" stroke-miterlimit="10"/><path d="M159.99703,98.41201c0.18074,-0.01337 0.38661,-0.0408 0.56636,-0.05368c4.01083,-0.28681 7.76864,-0.44665 11.11852,-0.43662c0.47604,0.00143 0.94816,0.05696 1.42348,0.068c0.79928,1.22235 1.20338,2.65028 1.20338,4.28833v19.52519c0,1.51095 0.49459,2.78954 1.48253,3.83561c1.04605,0.98794 2.32375,1.48253 3.83472,1.48253c1.51096,0 2.75998,-0.49459 3.74793,-1.48253c0.98794,-1.04607 1.48253,-2.32466 1.48253,-3.83561v-19.69966c0,-1.09238 0.18051,-2.08437 0.53592,-2.97759c4.29385,0.66425 8.57357,1.52051 12.85246,2.39871c0.61486,0.12618 1.23178,0.2274 1.84668,0.35341c0.00189,0.07775 0.01969,0.14669 0.01969,0.22547v19.69966c0,5.81138 -1.97568,10.69373 -5.92744,14.64547c-3.89363,3.95175 -8.74638,5.92743 -14.55778,5.92743c-5.86952,0 -10.7805,-1.94612 -14.73226,-5.83976c-3.89363,-3.95175 -5.83975,-8.86366 -5.83975,-14.73314v-19.52519c0,-1.45898 0.3344,-2.73685 0.94302,-3.86603z" data-paper-data="{&quot;origPos&quot;:null}" id="path883" fill="#00ccff" stroke="none" stroke-width="4.7573" stroke-miterlimit="10"/><path d="M121.79035,103.23628c3.52425,-0.57046 7.24305,-1.13044 10.97538,-1.67399v0.19235h4.79473c1.33098,0 2.46446,-0.45235 3.42494,-1.29911c2.32057,-0.3025 4.65195,-0.6356 6.94025,-0.89739c3.38314,-0.38705 6.60677,-0.66542 9.79883,-0.93049c-0.34127,4.11007 -1.75616,7.78673 -4.38586,10.97269c3.02192,3.60308 4.53259,7.81607 4.53259,12.63953c0,5.69519 -1.94613,10.48876 -5.83975,14.38241c-3.89363,3.83551 -8.68816,5.75387 -14.38331,5.75387c-2.67324,0 -4.73673,-1.01607 -6.18959,-3.05006c-1.39472,2.034 -3.48601,3.05006 -6.27548,3.05006c-2.20831,0 -4.03885,-0.72576 -5.49171,-2.17861c-1.45284,-1.39472 -2.1804,-3.19748 -2.1804,-5.40582v-30.80655c1.60048,-0.26927 2.59979,-0.477 4.27938,-0.74887zM132.76574,127.12136h5.05599c1.33662,0 2.47006,-0.46502 3.39989,-1.39484c0.92982,-0.98795 1.39484,-2.15007 1.39484,-3.48668c0,-1.51096 -0.5806,-2.73223 -1.74289,-3.66203c-1.10416,-0.92983 -2.44191,-1.48085 -4.01098,-1.6552c-1.51096,-0.17433 -2.87648,-0.66895 -4.09686,-1.48253z" data-paper-data="{&quot;origPos&quot;:null}" id="path879" fill="#00ccff" stroke="none" stroke-width="4.7573" stroke-miterlimit="10"/><g data-paper-data="{&quot;origPos&quot;:null}" fill="#66e0ff" stroke="none" stroke-width="4.7573" stroke-miterlimit="10"><path d="M323.25692,101.40659c4.591,-4.59101 10.28599,-6.88746 17.08533,-6.88746c6.85745,0 12.63934,2.4416 17.34658,7.32318c1.37873,1.43175 2.09643,3.01552 2.21709,4.73748c-0.87529,0.22593 -1.70366,0.46579 -2.58928,0.68445c-2.9172,0.72025 -5.87502,1.39351 -8.7735,1.97283c-2.89848,0.57932 -5.73745,1.06489 -8.41651,1.40827c-0.95592,0.12253 -1.86295,0.20291 -2.77359,0.2872l0.98418,-0.98418c-0.98182,0.23102 -1.87641,0.6076 -2.68591,1.12554c-1.02668,0.06773 -2.03883,0.12362 -2.98205,0.12884c-2.18412,0.01205 -4.34902,-0.1395 -6.50005,-0.41604c-2.15103,-0.27655 -4.2878,-0.67796 -6.41505,-1.16581c-0.56252,-0.12901 -1.11989,-0.3052 -1.68115,-0.44556c1.14768,-2.8688 2.87411,-5.45893 5.18394,-7.76875z" data-paper-data="{&quot;origPos&quot;:null}" id="path903"/><path d="M299.85497,84.40715c0,-2.20834 0.69799,-4.00928 2.09273,-5.40404c1.45285,-1.45284 3.28338,-2.1795 5.49171,-2.1795c2.26645,0 4.09698,0.69709 5.49172,2.09183c1.45285,1.39473 2.17861,3.22527 2.17861,5.49171v23.98352c-0.57016,-0.1599 -1.14401,-0.28604 -1.71336,-0.45362c-2.11278,-0.62184 -4.22064,-1.29161 -6.32827,-1.97014c-2.10763,-0.67853 -4.21558,-1.36592 -6.32736,-2.02383c-0.29448,-0.09174 -0.5911,-0.16719 -0.88577,-0.25768z" data-paper-data="{&quot;origPos&quot;:null}" id="path899"/><path d="M269.1316,96.52417c1.45285,-1.45285 3.28339,-2.17861 5.49172,-2.17861c6.79934,0 12.49432,2.32422 17.08533,6.97335c0.07307,0.07216 0.13385,0.15007 0.20577,0.22278c-1.30947,-0.30789 -2.6153,-0.64507 -3.93403,-0.88129c-2.14805,-0.38476 -4.31005,-0.66226 -6.4902,-0.7945c-2.36868,-0.14367 -4.73426,-0.15919 -7.09772,-0.07695c-2.36345,0.08224 -4.72442,0.26215 -7.08429,0.50909c-0.0355,0.00371 -0.07097,0.00975 -0.10647,0.01342c0.27545,-1.46161 0.91256,-2.72759 1.92989,-3.78729z" data-paper-data="{&quot;origPos&quot;:null}" id="path897"/><path d="M250.65144,84.23359c0,-2.15019 0.72577,-3.95297 2.17861,-5.40581c1.45285,-1.45284 3.2556,-2.17861 5.40582,-2.17861c2.20834,0 4.03886,0.72577 5.49171,2.17861c1.45284,1.39473 2.17861,3.1975 2.17861,5.40581v16.2452c-1.89188,0.21835 -3.7835,0.4491 -5.67423,0.73008c-2.35791,0.35042 -4.71509,0.73733 -7.07266,1.13001c-0.83539,0.13915 -1.6724,0.24727 -2.50787,0.38652z" data-paper-data="{&quot;origPos&quot;:null}" id="path893"/><path d="M217.83538,102.01588c0,-2.20831 0.69709,-4.03887 2.09182,-5.49171c1.45284,-1.45285 3.28428,-2.17861 5.49262,-2.17861c6.79933,0 12.49432,2.32422 17.08533,6.97335c0.75763,0.74817 1.4308,1.53642 2.06498,2.34324c-1.85546,0.28448 -3.70861,0.62715 -5.56597,0.85803c-2.36178,0.29356 -4.72513,0.53138 -7.09145,0.68355c-2.36632,0.15217 -4.73595,0.21863 -7.10845,0.1682c-2.16339,-0.04598 -4.31851,-0.19709 -6.46873,-0.41335c-0.32812,-0.89348 -0.50014,-1.87138 -0.50014,-2.94269z" data-paper-data="{&quot;origPos&quot;:null}" id="path891"/><path d="M201.44703,84.23359c0,-2.15019 0.72755,-3.95297 2.1804,-5.40581c1.45284,-1.45284 3.25381,-2.17861 5.40403,-2.17861c2.20834,0 4.03886,0.72577 5.49171,2.17861c1.45284,1.39473 2.17862,3.1975 2.17862,5.40581v20.52101c-1.74393,-0.20449 -3.48707,-0.41975 -5.22509,-0.69966c-3.35134,-0.53975 -6.68964,-1.23857 -10.02967,-1.91825z" data-paper-data="{&quot;origPos&quot;:null}" id="path887"/><path d="M187.03508,96.69864c1.45285,-1.45284 3.28339,-2.1795 5.49171,-2.1795c2.20834,0 4.01108,0.72666 5.40582,2.1795c1.40102,1.34499 2.10896,3.07794 2.15893,5.17946c-0.6149,-0.12601 -1.23181,-0.22722 -1.84667,-0.35341c-4.2789,-0.8782 -8.55863,-1.73446 -12.85247,-2.39871c0.36309,-0.91249 0.90851,-1.72252 1.64268,-2.42734z" data-paper-data="{&quot;origPos&quot;:null}" id="path885"/><path d="M161.14584,96.78634c1.45285,-1.45286 3.28339,-2.1804 5.49171,-2.1804c2.20834,0 4.03977,0.72755 5.49262,2.1804c0.37517,0.37519 0.69697,0.77783 0.97523,1.20338c-0.47533,-0.01104 -0.94743,-0.06663 -1.42348,-0.068c-3.34988,-0.01002 -7.10769,0.1498 -11.11852,0.43662c-0.17975,0.01287 -0.38561,0.04029 -0.56636,0.05368c0.31259,-0.57996 0.67552,-1.13268 1.1488,-1.62567z" data-paper-data="{&quot;origPos&quot;:null}" id="path881"/><path d="M117.51097,96.78634c0,-5.69517 1.91833,-10.4619 5.75386,-14.29742c3.89364,-3.89364 8.68815,-5.83976 14.38331,-5.83976c5.69515,0 10.48967,1.94611 14.38331,5.83976c3.89363,3.83552 5.83975,8.60225 5.83975,14.29742c0,0.63359 -0.09583,1.22828 -0.14673,1.84131c-3.19208,0.26507 -6.41569,0.54344 -9.79883,0.93049c-2.2883,0.26179 -4.61968,0.59489 -6.94025,0.89739c0.04601,-0.04057 0.10425,-0.05322 0.14942,-0.09573c0.98793,-0.98794 1.48163,-2.17871 1.48163,-3.57346c0,-1.39476 -0.4937,-2.55776 -1.48163,-3.48757c-0.92982,-0.92983 -2.09195,-1.39484 -3.48668,-1.39484c-1.33663,0 -2.49962,0.4946 -3.48757,1.48253c-0.92983,0.92983 -1.39484,2.06327 -1.39484,3.39989v4.77596c-3.73233,0.54357 -7.45113,1.10353 -10.97538,1.67399c-1.67959,0.27188 -2.67889,0.47961 -4.27938,0.74887z" data-paper-data="{&quot;origPos&quot;:null}" id="path852"/></g></g><g data-paper-data="{&quot;origPos&quot;:null}"><g data-paper-data="{&quot;origPos&quot;:null}" id="g1799" fill="#00cbfe" stroke="#128fae" stroke-width="7.9375" stroke-miterlimit="4"><path d="M154.00273,227.09443c-6.45775,0 -11.87087,-2.18423 -16.23932,-6.5527c-4.36848,-4.4318 -6.55272,-9.87655 -6.55272,-16.33429c0,-2.40583 0.7914,-4.36848 2.37418,-5.88795c1.58277,-1.58277 3.57708,-2.37416 5.98291,-2.37416c2.40582,0 4.36846,0.79139 5.88793,2.37416c1.58278,1.51947 2.37419,3.48212 2.37419,5.88795c0,1.7727 0.5698,3.26052 1.70941,4.46343c1.2029,1.20291 2.69071,1.80437 4.46343,1.80437c1.77272,0 3.26053,-0.60146 4.46343,-1.80437c1.20291,-1.20291 1.80437,-2.69073 1.80437,-4.46343v-40.64582c0,-2.40582 0.75973,-4.36846 2.2792,-5.88793c1.58278,-1.58278 3.57709,-2.37419 5.98291,-2.37419c2.40583,0 4.40014,0.7914 5.98291,2.37419c1.58278,1.51947 2.37418,3.48211 2.37418,5.88793v40.64582c0,6.45774 -2.21588,11.9025 -6.64768,16.33429c-4.36847,4.36847 -9.78158,6.5527 -16.23932,6.5527z" id="path1791"/><path d="M200.54983,226.90449c-6.39444,0 -11.74423,-2.12093 -16.0494,-6.36277c-4.24184,-4.30516 -6.36277,-9.65495 -6.36277,-16.0494v-21.27257c0,-2.40583 0.75973,-4.40014 2.2792,-5.98291c1.58278,-1.58277 3.57709,-2.37416 5.98291,-2.37416c2.40583,0 4.40014,0.79139 5.98291,2.37416c1.58278,1.58277 2.37418,3.57708 2.37418,5.98291v21.27257c0,1.6461 0.53814,3.03895 1.61443,4.17854c1.13961,1.0763 2.53245,1.61444 4.17854,1.61444c1.6461,0 3.00729,-0.53815 4.08358,-1.61444c1.0763,-1.13959 1.61444,-2.53244 1.61444,-4.17854v-21.4625c0,-2.40583 0.79139,-4.36848 2.37416,-5.88795c1.58278,-1.58277 3.57709,-2.37416 5.98291,-2.37416c2.40583,0 4.36848,0.79139 5.88795,2.37416c1.58277,1.51947 2.37416,3.48212 2.37416,5.88795v21.4625c0,6.33111 -2.15257,11.64926 -6.45774,15.95443c-4.24184,4.30516 -9.52834,6.45774 -15.85947,6.45774z" id="path1793"/><path d="M307.79857,245.42304c-1.58277,1.58277 -3.57708,2.37416 -5.98291,2.37416h-0.37985c-6.33111,0 -11.64926,-2.15257 -15.95443,-6.45774c-4.30516,-4.30517 -6.45774,-9.62332 -6.45774,-15.95443v-28.30012c0,-1.58278 -0.56979,-2.91233 -1.70941,-3.9886c-1.07628,-1.13961 -2.40582,-1.70941 -3.98861,-1.70941c-1.7094,0 -3.10223,0.5698 -4.17853,1.70941v25.54608c0,2.40583 -0.79139,4.36848 -2.37416,5.88795c-1.58278,1.58277 -3.57709,2.37416 -5.98291,2.37416c-2.40583,0 -4.40014,-0.79139 -5.98291,-2.37416c-1.51947,-1.51947 -2.2792,-3.48212 -2.2792,-5.88795v-21.55746c0,-1.58278 -0.5698,-2.91233 -1.70941,-3.9886c-1.13961,-1.13961 -2.50079,-1.70941 -4.08357,-1.70941c-1.6461,0 -3.03895,0.53815 -4.17854,1.61444c-1.0763,1.07628 -1.61444,2.43747 -1.61444,4.08358v21.55746c0,2.40583 -0.79139,4.36848 -2.37416,5.88795c-1.51948,1.58277 -3.48213,2.37416 -5.88795,2.37416c-2.40583,0 -4.40014,-0.79139 -5.98291,-2.37416c-1.58277,-1.51947 -2.37416,-3.48212 -2.37416,-5.88795v-21.55746c0,-6.33113 2.15257,-11.61763 6.45774,-15.85947c4.30516,-4.30516 9.6233,-6.45774 15.95443,-6.45774c4.93827,0 9.37006,1.45615 13.29536,4.36847c3.86198,-2.91232 8.29377,-4.36847 13.29536,-4.36847c6.33113,0 11.61763,2.15257 15.85947,6.45774c4.30516,4.24184 6.45774,9.52834 6.45774,15.85947v28.30012c0,1.64608 0.53815,3.00728 1.61444,4.08358c1.13961,1.13961 2.53245,1.70941 4.17854,1.70941h0.37985c2.40583,0 4.40014,0.79139 5.98291,2.37416c1.58278,1.58277 2.37419,3.57708 2.37419,5.98291c0,2.40582 -0.7914,4.36847 -2.37419,5.88795z" id="path1795"/><path d="M323.14761,227.09443c-2.40583,0 -4.40014,-0.79139 -5.98291,-2.37416c-1.51947,-1.58277 -2.2792,-3.57708 -2.2792,-5.98291c0,-2.40582 0.75973,-4.36847 2.2792,-5.88795c1.58277,-1.58277 3.57708,-2.37416 5.98291,-2.37416c2.65907,0 4.90661,-0.91801 6.74263,-2.75404c1.89933,-1.89933 2.849,-4.17855 2.849,-6.83762c0,-2.65906 -0.94967,-4.9066 -2.849,-6.74264c-1.83601,-1.83603 -4.08356,-2.75404 -6.74263,-2.75404c-2.65907,0 -4.90661,0.918 -6.74265,2.75404c-1.83603,1.83603 -2.75404,4.08358 -2.75404,6.74264v37.13204c0,2.40583 -0.79139,4.40014 -2.37416,5.98291c-1.58277,1.58278 -3.57707,2.37418 -5.98291,2.37418c-2.40583,0 -4.40014,-0.7914 -5.98291,-2.37418c-1.51947,-1.58277 -2.2792,-3.57708 -2.2792,-5.98291v-37.13204c0,-7.40742 2.50079,-13.61191 7.50237,-18.6135c5.0016,-5.00159 11.20609,-7.50237 18.61351,-7.50237c7.40742,0 13.61191,2.5008 18.6135,7.50237c5.0649,5.00159 7.59735,11.20608 7.59735,18.6135c0,7.40743 -2.53245,13.64358 -7.59735,18.70848c-5.00159,5.00159 -11.20608,7.50237 -18.6135,7.50237z" id="path1797"/></g><path d="M299.93881,188.45595c1.17576,-2.23331 2.70545,-4.29621 4.59527,-6.186c5.0016,-5.0016 11.2063,-7.50237 18.61374,-7.50237c7.40741,0 13.61213,2.50078 18.61373,7.50237c1.14486,1.13054 2.14135,2.33167 3.02738,3.58514c-4.62877,0.89205 -9.53394,1.79566 -14.3197,2.50241c-2.68431,0.39644 -5.30871,0.73815 -7.77975,0.99425c-2.47105,0.25606 -4.78908,0.4274 -6.85812,0.48415c-1.90537,0.05233 -3.80586,0.0075 -5.70381,-0.10928c-1.89797,-0.11683 -3.79322,-0.3064 -5.68592,-0.54484c-1.50321,-0.18936 -3.00173,-0.48664 -4.50281,-0.72578z" data-paper-data="{&quot;origPos&quot;:null}" id="path2030" fill="#66e0ff" stroke="none" stroke-width="1.23402" stroke-miterlimit="10"/><path d="M225.22241,190.82633c0.54971,0.05233 1.09194,0.15949 1.64543,0.1849c1.82941,0.08389 3.65216,0.05233 5.47017,-0.06753c1.81802,-0.11973 3.63139,-0.32731 5.44135,-0.59649c1.80997,-0.26923 3.61627,-0.59996 5.42147,-0.96443c1.8052,-0.36447 3.60976,-0.76253 5.41352,-1.16819c3.60751,-0.81128 7.21536,-1.65152 10.83696,-2.30262c1.8108,-0.32553 3.62504,-0.604 5.44432,-0.8083c1.81929,-0.20434 3.64306,-0.33402 5.47416,-0.36288c1.90586,-0.03009 3.80748,0.03348 5.70582,0.167c1.89832,0.13348 3.79398,0.33707 5.68692,0.58659c3.78588,0.49903 7.56294,1.18216 11.34003,1.86019c0.13912,0.02482 0.27846,0.04252 0.41757,0.06753c1.3644,2.90214 2.12266,6.0985 2.12266,9.66281v28.30037c0,1.5234 0.46709,2.79931 1.38893,3.8347v-28.33616c0,-4.60859 0.97109,-8.75035 2.9071,-12.42774c1.50108,0.23915 2.9996,0.53646 4.50281,0.72578c1.8927,0.23843 3.78795,0.42805 5.68592,0.54484c1.89797,0.11697 3.79844,0.16161 5.70381,0.10928c2.06904,-0.0567 4.38706,-0.2281 6.85812,-0.48415c2.47103,-0.2561 5.09544,-0.5978 7.77975,-0.99425c4.78574,-0.70675 9.69092,-1.61036 14.3197,-2.50241c3.03384,4.29199 4.56942,9.29548 4.56942,15.02861c0,7.40743 -2.53191,13.64326 -7.5968,18.70815c-5.0016,5.00161 -11.20632,7.50236 -18.61373,7.50236c-2.40583,0 -4.40043,-0.79139 -5.9832,-2.3742c-1.51947,-1.58276 -2.27874,-3.57733 -2.27874,-5.9832c0,-2.40581 0.75927,-4.36826 2.27874,-5.88773c1.58277,-1.58276 3.57737,-2.37416 5.9832,-2.37416c2.65906,0 4.90676,-0.91794 6.74277,-2.75401c1.89933,-1.89932 2.84843,-4.17813 2.84843,-6.8372c0,-2.65908 -0.9491,-4.90678 -2.84843,-6.74279c-1.83601,-1.83605 -4.08371,-2.754 -6.74277,-2.754c-2.65908,0 -4.90675,0.91794 -6.74279,2.754c-1.83603,1.83601 -2.75398,4.08371 -2.75398,6.74279v37.132c0,2.40581 -0.79141,4.40038 -2.3742,5.98318c-1.23416,1.23416 -2.72248,1.98006 -4.45707,2.2519c-1.40304,1.02499 -3.06786,1.54599 -5.00389,1.54599h-0.3798c-6.33111,0 -11.65002,-2.15226 -15.95519,-6.45742c-4.30516,-4.30519 -6.45744,-9.62308 -6.45744,-15.9542v-28.30037c0,-1.58282 -0.56945,-2.91252 -1.70907,-3.98885c-1.07628,-1.13957 -2.40601,-1.70904 -3.9888,-1.70904c-1.70939,0 -3.1024,0.56947 -4.17868,1.70904v25.54643c0,2.40583 -0.79141,4.36828 -2.3742,5.88776c-1.58278,1.58276 -3.57738,2.3742 -5.9832,2.3742c-2.40583,0 -4.39942,-0.79145 -5.98221,-2.3742c-1.51947,-1.51948 -2.27974,-3.48193 -2.27974,-5.88776v-21.55758c0,-1.58282 -0.56945,-2.91252 -1.70906,-3.98885c-1.13961,-1.13957 -2.50047,-1.70904 -4.08324,-1.70904c-1.6461,0 -3.03911,0.53831 -4.1787,1.61462c-1.0763,1.07626 -1.61461,2.43713 -1.61461,4.08327v21.55758c0,2.40583 -0.79141,4.36828 -2.3742,5.88776c-1.51948,1.58276 -3.48193,2.3742 -5.88774,2.3742c-2.40583,0 -4.40044,-0.79145 -5.9832,-2.3742c-1.58277,-1.51948 -2.37418,-3.48193 -2.37418,-5.88776v-21.55758c0,-2.23174 0.36487,-4.28641 0.89975,-6.25859z" data-paper-data="{&quot;origPos&quot;:null}" id="path2028" fill="#00cbfe" stroke="none" stroke-width="1.23402" stroke-miterlimit="10"/><path d="M225.22241,190.82623c0.98254,-3.62263 2.77009,-6.85459 5.55768,-9.60117c4.30516,-4.30517 9.62407,-6.45745 15.9552,-6.45745c4.93828,0 9.36937,1.45627 13.29467,4.3686c3.86198,-2.91233 8.29407,-4.3686 13.29565,-4.3686c6.33113,0 11.61791,2.15227 15.85975,6.45745c1.88147,1.8538 3.27564,3.94405 4.33478,6.19696c-0.13912,-0.02482 -0.27846,-0.04252 -0.41757,-0.06753c-3.77709,-0.67804 -7.55415,-1.36116 -11.34003,-1.86019c-1.89293,-0.24952 -3.78859,-0.45307 -5.68692,-0.58659c-1.89834,-0.13352 -3.79996,-0.19701 -5.70582,-0.167c-1.8311,0.02887 -3.65487,0.15859 -5.47416,0.36288c-1.81928,0.2043 -3.63353,0.48277 -5.44432,0.8083c-3.6216,0.65109 -7.22944,1.49133 -10.83696,2.30262c-1.80376,0.40566 -3.60832,0.80372 -5.41352,1.16819c-1.8052,0.36447 -3.6115,0.6952 -5.42147,0.96443c-1.80996,0.26917 -3.62332,0.47683 -5.44135,0.59649c-1.81802,0.11967 -3.64076,0.15142 -5.47017,0.06753c-0.55349,-0.0254 -1.09572,-0.13256 -1.64543,-0.1849z" data-paper-data="{&quot;origPos&quot;:null}" id="path2026" fill="#66e0ff" stroke="none" stroke-width="1.23402" stroke-miterlimit="10"/><path d="M206.2478,183.02957c0,-2.40583 0.79141,-4.36828 2.3742,-5.88773c1.58278,-1.58277 3.57738,-2.3742 5.9832,-2.3742c2.40583,0 4.36828,0.79143 5.88774,2.3742c1.58277,1.51945 2.3742,3.4819 2.3742,5.88773v7.53218c-0.19425,-0.03097 -0.39272,-0.03193 -0.58658,-0.06561c-1.5162,-0.26323 -3.0207,-0.60886 -4.51773,-1.00912c-2.99407,-0.80047 -5.95752,-1.81957 -8.9211,-2.83451c-0.86161,-0.29507 -1.73152,-0.52829 -2.59392,-0.81725z" data-paper-data="{&quot;origPos&quot;:null}" id="path2024" fill="#66e0ff" stroke="none" stroke-width="1.23402" stroke-miterlimit="10"/><path d="M178.1373,183.33379c0.20713,-0.02905 0.41107,-0.08023 0.61741,-0.10832c2.21163,-0.30094 4.37425,-0.54008 6.40971,-0.689c2.03545,-0.14907 3.94452,-0.20778 5.64814,-0.14718c1.31456,0.04679 2.61271,0.21046 3.90727,0.40266c0.00606,0.14574 0.03678,0.27861 0.03678,0.42752v21.27324c0,1.64613 0.53832,3.0381 1.61461,4.17767c1.13961,1.07632 2.53261,1.61463 4.17871,1.61463c1.6461,0 3.00696,-0.53831 4.08324,-1.61463c1.0763,-1.13957 1.61461,-2.53154 1.61461,-4.17767v-18.65747c0.8624,0.28895 1.7323,0.52217 2.59392,0.81724c2.96358,1.01495 5.92704,2.03405 8.92111,2.83452c1.49704,0.40026 3.00153,0.74589 4.51772,1.00912c0.19387,0.03367 0.39233,0.03463 0.58659,0.06561v13.93098c0,6.33112 -2.15227,11.64906 -6.45744,15.9542c-4.24184,4.30513 -9.52861,6.45745 -15.85975,6.45745c-6.39444,0 -11.74447,-2.12116 -16.04965,-6.36299c-4.24184,-4.30519 -6.36299,-9.65423 -6.36299,-16.04867v-21.15892z" data-paper-data="{&quot;origPos&quot;:null}" id="path2022" fill="#00cbfe" stroke="none" stroke-width="1.23402" stroke-miterlimit="10"/><path d="M178.1373,183.21948c0,-2.40583 0.76027,-4.39942 2.27974,-5.98221c1.58278,-1.58277 3.57737,-2.3742 5.98319,-2.3742c2.40583,0 4.39942,0.79143 5.98221,2.3742c1.48484,1.48481 2.24552,3.34561 2.3374,5.55468c-1.29455,-0.19228 -2.59272,-0.3559 -3.90728,-0.40266c-1.70363,-0.0606 -3.6127,-0.00192 -5.64814,0.14718c-2.03546,0.14901 -4.19808,0.38805 -6.40971,0.689c-0.20634,0.02809 -0.41028,0.07927 -0.61741,0.10832z" data-paper-data="{&quot;origPos&quot;:null}" id="path2020" fill="#66e0ff" stroke="none" stroke-width="1.23402" stroke-miterlimit="10"/><path d="M176.88957,204.20741c0,6.45772 -2.21555,11.90219 -6.64734,16.33398c-4.36847,4.36847 -9.78178,6.55286 -16.23953,6.55286c-6.45775,0 -11.87107,-2.18439 -16.23954,-6.55286c-4.36848,-4.43179 -6.55288,-9.87626 -6.55288,-16.33398c0,-2.40587 0.7914,-4.36832 2.37419,-5.88776c1.58277,-1.58279 3.57737,-2.3742 5.9832,-2.3742c2.40582,0 4.36828,0.7914 5.88775,2.3742c1.58278,1.51944 2.3742,3.48188 2.3742,5.88776c0,1.77267 0.57045,3.26009 1.71005,4.46299c1.2029,1.20297 2.69032,1.80454 4.46304,1.80454c1.77272,0 3.26013,-0.60158 4.46303,-1.80454c1.20291,-1.20289 1.8045,-2.69032 1.8045,-4.46299v-17.48828c1.78092,-0.40395 3.18719,-0.75615 5.24748,-1.18014c3.60307,-0.74152 7.53485,-1.41474 11.37185,-1.98746z" data-paper-data="{&quot;origPos&quot;:null}" id="path2018" fill="#00cbfe" stroke="none" stroke-width="1.23402" stroke-miterlimit="10"/><path d="M174.51536,157.67405c1.58278,1.51948 2.3742,3.48194 2.3742,5.88776v19.98972c-3.83699,0.57271 -7.76878,1.24594 -11.37185,1.98746c-2.0603,0.42399 -3.46656,0.77618 -5.24748,1.18014v-23.15731c0,-2.40581 0.76027,-4.36828 2.27974,-5.88776c1.58279,-1.58277 3.57638,-2.37419 5.98222,-2.37419c2.40583,0 4.40042,0.7914 5.98319,2.37419z" data-paper-data="{&quot;origPos&quot;:null}" id="path1700" fill="#66e0ff" stroke="none" stroke-width="1.23402" stroke-miterlimit="10"/></g><g data-paper-data="{&quot;origPos&quot;:null}" stroke="none" stroke-miterlimit="10"><path d="M1.85468,229.6135c0,-40.09195 32.50094,-72.59295 72.59295,-72.59295c40.09195,0 72.59295,32.50094 72.59295,72.59295c0,40.09195 -32.50094,72.59295 -72.59295,72.59295c-40.09195,0 -72.59295,-32.50094 -72.59295,-72.59295z" data-paper-data="{&quot;origPos&quot;:null}" id="path5051" fill="url(#color-2)" stroke-width="3.23729"/><path d="M13.62654,201.86707c0,-24.76723 27.23056,-44.84509 60.82109,-44.84509c33.59062,0 60.82109,20.07785 60.82109,44.84509c0,24.76724 -27.23056,44.84508 -60.82109,44.84508c-33.59061,0 -60.82109,-20.07785 -60.82109,-44.84508z" data-paper-data="{&quot;origPos&quot;:null}" id="circle5371" fill="url(#color-3)" stroke-width="2.32901"/><path d="M75.06948,211.69186c33.59062,0 60.8211,20.07784 60.8211,44.84508c0,24.76724 -27.23057,44.84508 -60.8211,44.84508c-33.59061,0 -60.82109,-20.07785 -60.82109,-44.84508c0,-24.76723 27.23056,-44.84508 60.82109,-44.84508z" data-paper-data="{&quot;origPos&quot;:null}" id="circle5371-12" fill="url(#color-4)" stroke-width="2.32901"/></g><path d="M48.97695,245.74254c-6.4571,-14.95822 0.43442,-32.31876 15.39264,-38.77585c14.95822,-6.4571 32.31876,0.43442 38.77585,15.39264c6.4571,14.95822 -0.43442,32.31876 -15.39264,38.77585c-14.95822,6.4571 -32.31876,-0.43442 -38.77585,-15.39264z" data-paper-data="{&quot;origPos&quot;:null}" fill="#57bdff" stroke="none" stroke-width="0.5" stroke-miterlimit="10"/><path d="M60.67656,229.29267c-0.77485,-1.79499 0.05212,-3.87825 1.84712,-4.6531c1.79499,-0.77485 3.87825,0.05212 4.6531,1.84712c0.77485,1.79499 -0.05212,3.87825 -1.84712,4.6531c-1.79499,0.77485 -3.87825,-0.05212 -4.6531,-1.84712z" data-paper-data="{&quot;origPos&quot;:null}" fill="#000000" stroke="none" stroke-width="0.5" stroke-miterlimit="10"/><path d="M77.62272,221.65612c-0.77485,-1.79499 0.05212,-3.87825 1.84712,-4.6531c1.79499,-0.77485 3.87825,0.05212 4.6531,1.84712c0.77485,1.79499 -0.05212,3.87825 -1.84712,4.6531c-1.79499,0.77485 -3.87825,-0.05212 -4.6531,-1.84712z" fill="#000000" stroke="none" stroke-width="0.5" stroke-miterlimit="10"/><path d="M57.23121,250.68633c-0.67799,-1.5706 0.04562,-3.39347 1.61623,-4.07146c1.5706,-0.67799 3.39347,0.04562 4.07146,1.61623c0.67799,1.5706 -0.04562,3.39347 -1.61623,4.07146c-1.5706,0.67799 -3.39347,-0.04562 -4.07146,-1.61623z" data-paper-data="{&quot;origPos&quot;:null}" fill="#9ed8ff" stroke="none" stroke-width="0" stroke-miterlimit="10"/><path d="M67.38169,252.03551c-0.51657,-1.19667 0.03474,-2.5855 1.23141,-3.10207c1.19667,-0.51657 2.5855,0.03474 3.10207,1.23141c0.51657,1.19667 -0.03474,2.5855 -1.23141,3.10207c-1.19667,0.51657 -2.5855,-0.03474 -3.10207,-1.23141z" data-paper-data="{&quot;origPos&quot;:null}" fill="#9ed8ff" stroke="none" stroke-width="0" stroke-miterlimit="10"/><path d="M454.7542,91.07831c3.79132,0 6.84349,2.69294 6.84349,6.03742c0,3.34444 -3.05217,6.03661 -6.84349,6.03661h-0.45523c0.65774,0.92772 1.04337,2.02208 1.04337,3.20136c0,0.55106 -0.09002,1.08202 -0.2454,1.58858h2.34673c3.79128,0 6.84345,2.69212 6.84345,6.03656c0,3.34449 -3.05217,6.03664 -6.84345,6.03664h-53.08849c-3.79128,0 -6.84345,-2.69215 -6.84345,-6.03664c0,-0.55101 0.09002,-1.08199 0.2454,-1.5885h-2.34678c-3.79128,0 -6.84345,-2.69216 -6.84345,-6.03665c0,-3.34444 3.05217,-6.0366 6.84345,-6.0366h0.45445c-0.65739,-0.92764 -1.0426,-2.02217 -1.0426,-3.20136c0,-3.34449 3.05221,-6.03742 6.84349,-6.03742z" data-paper-data="{&quot;origPos&quot;:null,&quot;index&quot;:null}" id="rect3948" fill="#cfbbfb" stroke="none" stroke-width="0.09001" stroke-miterlimit="10"/><path d="M72.84761,258.24163c-0.38742,-0.89749 0.02607,-1.93913 0.92356,-2.32655c0.89749,-0.38742 1.93913,0.02607 2.32655,0.92356c0.38742,0.89749 -0.02607,1.93913 -0.92356,2.32655c-0.89749,0.38742 -1.93913,-0.02607 -2.32655,-0.92356z" data-paper-data="{&quot;origPos&quot;:null}" fill="#9ed8ff" stroke="none" stroke-width="0" stroke-miterlimit="10"/><g data-paper-data="{&quot;origPos&quot;:null}" stroke="none" stroke-miterlimit="10"><path d="M342.85468,165.6135c0,-37.33053 30.26237,-67.59295 67.59295,-67.59295c37.33053,0 67.59295,30.26237 67.59295,67.59295c0,37.33053 -30.26236,67.59295 -67.59295,67.59295c-37.33053,0 -67.59295,-30.26237 -67.59295,-67.59295z" data-paper-data="{&quot;origPos&quot;:null}" id="path5051" fill="url(#color-5)" stroke-width="3.23729"/><path d="M353.81573,139.77816c0,-23.06133 25.355,-41.75629 56.63191,-41.75629c31.27699,0 56.6319,18.69495 56.6319,41.75629c0,23.06134 -25.35499,41.75628 -56.6319,41.75628c-31.27698,0 -56.63191,-18.69495 -56.63191,-41.75628z" data-paper-data="{&quot;origPos&quot;:null}" id="circle5371" fill="url(#color-6)" stroke-width="2.32901"/><path d="M411.02666,148.92626c31.27699,0 56.63191,18.69493 56.63191,41.75627c0,23.06134 -25.355,41.75627 -56.63191,41.75627c-31.27698,0 -56.6319,-18.69494 -56.6319,-41.75627c0,-23.06133 25.35499,-41.75627 56.6319,-41.75627z" data-paper-data="{&quot;origPos&quot;:null}" id="circle5371-12" fill="url(#color-7)" stroke-width="2.32901"/></g></g></g></svg>