<svg version="1.1" xmlns="http://www.w3.org/2000/svg" xmlns:xlink="http://www.w3.org/1999/xlink" width="478.99481" height="363.63526"><defs><linearGradient x1="241.22458" y1="360.19603" x2="241.22458" y2="-2.26241" gradientUnits="userSpaceOnUse" id="color-1"><stop offset="0" stop-color="#ffe88d"/><stop offset="1" stop-color="#cebfff"/></linearGradient></defs><g transform="translate(-0.04628,4.02764)"><g data-paper-data="{&quot;isPaintingLayer&quot;:true}" fill="none" fill-rule="nonzero" stroke="none" stroke-width="none" stroke-linecap="butt" stroke-linejoin="miter" stroke-miterlimit="10" stroke-dasharray="" stroke-dashoffset="0" font-family="none" font-weight="none" font-size="none" text-anchor="none" style="mix-blend-mode: normal"><path d="M0.04673,359.60762v-363.63526h478.99437v363.63526z" data-paper-data="{&quot;origPos&quot;:null}" id="rect3549" fill="url(#color-1)" stroke-width="0.26458"/><g data-paper-data="{&quot;origPos&quot;:null}"><path d="M463.8498,282.71638l1.43747,4.13489l-1.83587,-0.81454l0.01588,0.07495l1.77889,5.11676l-2.20138,-0.9768l1.8167,5.22562l-1.95355,-0.86666l1.81285,5.21418l-6.85515,-3.04139l-7.45759,-0.79368l4.13591,-3.61366l-2.08384,-0.22137l4.14459,-3.62144l-2.35343,-0.25059l4.06432,-3.55122l0.04606,-0.05209l-1.95835,-0.20835l3.28434,-2.86969l3.22002,-3.63463z" data-paper-data="{&quot;origPos&quot;:null}" id="path3765" fill="#d4749c" stroke-width="0.02206"/><g data-paper-data="{&quot;origPos&quot;:null}" id="g3876"><g id="g3818" fill="#d9a7bc"><path d="M35.98181,281.10892l0.87901,2.52848l-1.12265,-0.49811l0.00953,0.04638l1.08785,3.1289l-1.34622,-0.59714l1.11093,3.19553l-1.19465,-0.52991l1.10858,3.18855l-4.19199,-1.85983l-4.56036,-0.48537l2.52912,-2.20976l-1.27425,-0.13563l2.53443,-2.21456l-1.43915,-0.1531l2.48539,-2.17155l0.02859,-0.03177l-1.19755,-0.12769l2.00843,-1.75482l1.96901,-2.22259z" id="path3771" stroke-width="0.01349"/><path d="M94.46343,286.81462l1.5035,2.21481l-1.21333,-0.19057l0.02223,0.04224l1.86059,2.74071l-1.45491,-0.22836l1.90016,2.79912l-1.29111,-0.20264l1.89605,2.79298l-4.5305,-0.71147l-4.5306,0.71147l1.87104,-2.78905l-1.26595,0.19882l1.87492,-2.79505l-1.42975,0.22455l1.83867,-2.74084l0.01906,-0.0381l-1.18979,0.18675l1.48581,-2.21484l1.32668,-2.65649z" id="path3796" stroke-width="0.01349"/><path d="M182.4449,282.34297l1.03518,1.52491l-0.83537,-0.13118l0.01587,0.02859l1.281,1.88701l-1.00171,-0.15721l1.30827,1.92719l-0.88892,-0.13942l1.30544,1.92299l-3.11928,-0.48985l-3.11933,0.48985l1.28822,-1.92027l-0.87161,0.13689l1.29086,-1.92443l-0.98437,0.15467l1.26592,-1.88707l0.01271,-0.02541l-0.81918,0.12864l1.02298,-1.52494l0.9134,-1.82898z" id="path3798" stroke-width="0.00929"/><path d="M188.00564,284.38789l0.72707,1.07103l-0.58671,-0.09211l0.01271,0.01907l0.89972,1.32534l-0.70353,-0.11053l0.91885,1.35359l-0.62432,-0.09782l0.91686,1.35064l-2.19084,-0.34404l-2.19087,0.34404l0.90476,-1.3487l-0.61216,0.09624l0.90662,-1.35161l-0.69138,0.10862l0.88915,-1.32539l0.00953,-0.01906l-0.57535,0.09019l0.7185,-1.07103l0.64154,-1.28459z" id="path3800" stroke-width="0.00652"/><path d="M245.34788,284.29257l0.83975,1.55165l-0.78308,-0.20486l0.01239,0.03177l1.03917,1.92011l-0.939,-0.24582l1.06127,1.96102l-0.8333,-0.21789l1.05898,1.95676l-2.92399,-0.76566l-3.01799,0.16739l1.41109,-1.70544l-0.84328,0.04669l1.41401,-1.70912l-0.9524,0.05272l1.38667,-1.67602l0.0143,-0.0254l-0.79255,0.04415l1.12057,-1.35438l1.04536,-1.65442z" id="path3802" stroke-width="0.00889"/><path d="M340.07102,288.28708l1.54518,1.6524l-1.03792,-0.00006l0.02572,0.03653l1.91213,2.04477l-1.24462,-0.00025l1.95283,2.08837l-1.10444,0.0001l1.9486,2.08379l-3.87575,-0.00073l-3.6896,1.18688l1.19717,-2.5735l-1.03098,0.33135l1.19957,-2.57898l-1.16437,0.37418l1.17641,-2.52909l0.00921,-0.03653l-0.96886,0.31189l0.95066,-2.04375l0.76,-2.39157z" id="path3804" stroke-width="0.0114"/><path d="M347.83667,289.77028l0.98387,1.05214l-0.66088,-0.00003l0.01652,0.02223l1.21753,1.30198l-0.7925,-0.00016l1.24343,1.32974l-0.70323,0.00005l1.24074,1.32681l-2.46783,-0.00045l-2.3493,0.75572l0.76228,-1.63865l-0.65645,0.21089l0.7638,-1.64213l-0.7414,0.2382l0.74907,-1.61037l0.00571,-0.02224l-0.61691,0.19851l0.60531,-1.30135l0.48392,-1.52277z" id="path3806" stroke-width="0.00726"/><path d="M417.17303,283.89928l1.16782,1.93758l-1.01522,-0.21565l0.01747,0.04097l1.44516,2.39766l-1.21738,-0.25885l1.4759,2.44877l-1.08029,-0.22964l1.47272,2.44343l-3.79088,-0.8066l-3.85574,0.39384l1.70611,-2.26834l-1.07734,0.10958l1.70961,-2.27316l-1.21673,0.12387l1.67658,-2.22924l0.01683,-0.03399l-1.01253,0.10354l1.35484,-1.80138l1.24067,-2.18129z" id="path3808" stroke-width="0.0114"/></g><path d="M268.05977,294.28729c40.4551,13.83146 67.55342,-1.49584 107.95098,-3.29773c36.41103,0.20542 68.69428,-1.0892 103.02991,9.70951v58.87807h-478.99437v-77.35733c18.69852,4.98551 35.03274,8.29111 54.19604,11.09774c42.57014,8.31282 85.59223,-4.60531 127.63113,-4.81651c25.30451,0.40298 61.38388,-0.85951 86.18632,5.78627z" id="path3720" fill="#d4749c" stroke-width="0.26458"/><path d="M25.64177,270.38835l1.75909,5.05998l-2.24657,-0.99678l0.01906,0.09148l2.17686,6.26137l-2.69389,-1.19526l2.22317,6.39468l-2.39058,-1.06063l2.2184,6.38074l-8.38879,-3.72181l-9.12599,-0.97125l5.06117,-4.42205l-2.54998,-0.27123l5.0718,-4.4316l-2.87995,-0.3065l4.97359,-4.34566l0.05622,-0.06353l-2.39645,-0.25473l4.01912,-3.51165l3.94035,-4.44774z" id="path3747" fill="#d4749c" stroke-width="0.02699"/><path d="M151.97465,274.30529l2.90234,4.27553l-2.34219,-0.36783l0.03939,0.08068l3.59161,5.29073l-2.80849,-0.44119l3.66797,5.40336l-2.49224,-0.39143l3.66009,5.39152l-8.74563,-1.37344l-8.74581,1.37344l3.6118,-5.38395l-2.44375,0.38383l3.61932,-5.39551l-2.75996,0.43338l3.54925,-5.29089l0.03653,-0.07304l-2.29659,0.36074l2.86814,-4.2755l2.56104,-5.12805z" id="path3757" fill="#d4749c" stroke-width="0.02604"/><path d="M207.95317,269.06503l3.20429,4.72033l-2.58589,-0.40609l0.04352,0.08925l3.96529,5.84114l-3.1007,-0.48709l4.04958,5.96553l-2.75155,-0.4321l4.04091,5.95241l-9.65551,-1.51633l-9.65573,1.51633l3.98754,-5.94408l-2.698,0.42379l3.99587,-5.95689l-3.04711,0.47845l3.91851,-5.84135l0.04033,-0.08068l-2.53553,0.39832l3.16653,-4.72034l2.82748,-5.66157z" id="path3759" fill="#d4749c" stroke-width="0.02875"/><path d="M381.66135,270.58536l3.44552,5.07572l-2.78054,-0.43671l0.04684,0.09592l4.2638,6.28091l-3.3341,-0.5238l4.35443,6.41465l-2.95868,-0.46465l4.3451,6.40052l-10.38241,-1.63048l-10.38261,1.63048l4.28776,-6.39157l-2.90112,0.4557l4.29672,-6.40533l-3.27652,0.51446l4.21351,-6.2811l0.04342,-0.0867l-2.72642,0.42833l3.40491,-5.07572l3.04037,-6.08777z" id="path3761" fill="#d4749c" stroke-width="0.03091"/><path d="M402.99034,274.76428l2.79282,4.11415l-2.2538,-0.35406l0.03799,0.07814l3.45608,5.09112l-2.70251,-0.42455l3.52955,5.19941l-2.39821,-0.37663l3.52197,5.18802l-8.41559,-1.32157l-8.41575,1.32157l3.4755,-5.18079l-2.35154,0.36925l3.48274,-5.19187l-2.65582,0.41699l3.41531,-5.09118l0.0352,-0.0705l-2.20993,0.34701l2.75988,-4.11416l2.4644,-4.9346z" id="path3763" fill="#d4749c" stroke-width="0.02506"/><path d="M270.04256,277.24651l2.90235,4.27553l-2.34218,-0.36783l0.03938,0.08068l3.59161,5.29073l-2.80849,-0.44119l3.66797,5.40336l-2.49225,-0.39143l3.6601,5.39152l-8.74563,-1.37345l-8.74581,1.37345l3.61179,-5.38396l-2.44374,0.38383l3.61931,-5.39551l-2.75996,0.43338l3.54926,-5.29089l0.03653,-0.07304l-2.29659,0.36074l2.86814,-4.2755l2.56104,-5.12805z" id="path3767" fill="#d4749c" stroke-width="0.02604"/><path d="M168.59504,278.92739l2.20516,3.24847l-1.77954,-0.2795l0.02859,0.0613l2.72883,4.01982l-2.13383,-0.3352l2.78686,4.10539l-1.89359,-0.29728l2.78089,4.0964l-6.6448,-1.0435l-6.64492,1.0435l2.74417,-4.09064l-1.85672,0.29157l2.7499,-4.09942l-2.09698,0.32927l2.69669,-4.01994l0.02859,-0.05558l-1.74491,0.27411l2.17917,-3.24844l1.94583,-3.89625z" id="path3769" fill="#d4749c" stroke-width="0.01978"/></g><path d="M162.59814,324.02063c40.88132,11.11686 79.47868,-9.42775 119.08156,-13.89359c36.34472,-6.03718 62.8535,17.2533 97.15342,22.0066c34.47715,1.91192 67.87534,-9.98793 100.20754,-20.48386v47.92735h-478.99437v-42.68013c24.36695,-10.03033 50.94747,-12.97967 77.65129,-13.92087c31.28793,0.54982 55.42507,13.46486 84.90056,21.04451z" data-paper-data="{&quot;origPos&quot;:null}" id="path3713" fill="#c03c74" stroke-width="1"/><path d="M70.55394,256.06674l7.81793,11.51664l-6.30896,-0.99071l0.10672,0.21725l9.6745,14.25128l-7.56513,-1.1883l9.88022,14.55453l-6.71312,-1.05427l9.85891,14.52278l-23.55757,-3.69961l-23.55802,3.69961l9.72877,-14.50235l-6.58257,1.03384l9.74927,-14.53364l-7.43454,1.1674l9.56044,-14.2517l0.09878,-0.19724l-6.1862,0.97151l7.72562,-11.51664l6.89853,-13.81311z" data-paper-data="{&quot;origPos&quot;:null}" id="path3727" fill="#c03c74" stroke-width="0.07014"/><path d="M123.4226,273.23025l6.43254,9.47584l-5.19098,-0.81518l0.08797,0.17881l7.96008,11.72581l-6.2245,-0.97769l8.1294,11.97532l-5.52356,-0.86742l8.11189,11.94922l-19.38302,-3.04402l-19.38337,3.04402l8.00481,-11.93242l-5.41609,0.85062l8.02157,-11.95815l-6.11706,0.96051l7.8663,-11.72619l0.08131,-0.1623l-5.08997,0.79936l6.35659,-9.47581l5.67606,-11.36525z" data-paper-data="{&quot;origPos&quot;:null}" id="path3739" fill="#c03c74" stroke-width="0.05771"/><path d="M310.34076,257.69936l9.3811,13.81942l-7.57045,-1.18877l0.12816,0.26075l11.60895,17.10084l-9.07778,-1.42584l11.8558,17.46466l-8.05548,-1.26508l11.83024,17.42664l-28.26795,-4.43939l-28.26848,4.43939l11.67408,-17.40206l-7.89878,1.24049l11.69862,-17.43963l-8.92109,1.40081l11.47211,-17.10138l0.11853,-0.23661l-7.42314,1.16578l9.2704,-13.81939l8.27787,-16.57504z" data-paper-data="{&quot;origPos&quot;:null}" id="path3741" fill="#c03c74" stroke-width="0.08416"/><path d="M438.85164,288.01721l6.22809,9.69696l-5.02601,-0.83421l0.08511,0.18263l7.70713,11.99953l-6.0267,-1.00056l7.87102,12.25486l-5.34799,-0.88772l7.85406,12.22814l-18.76706,-3.11504l-18.76737,3.11504l7.75039,-12.21093l-5.24398,0.87051l7.76668,-12.23726l-5.92269,0.98296l7.61631,-11.99989l0.07877,-0.16611l-4.92821,0.81804l6.15461,-9.69699l5.49565,-11.63056z" data-paper-data="{&quot;origPos&quot;:null}" id="path3743" fill="#c03c74" stroke-width="0.05745"/><path d="M231.48093,293.60901l4.82898,7.11366l-3.89689,-0.61196l0.06607,0.13434l5.97574,8.80273l-4.67283,-0.73399l6.10286,8.99005l-4.14664,-0.65119l6.08971,8.97046l-14.55109,-2.2852l-14.55136,2.2852l6.00932,-8.95781l-4.06594,0.63855l6.0219,-8.97713l-4.59216,0.72106l5.9053,-8.80301l0.06099,-0.12196l-3.82112,0.60009l4.77202,-7.11361l4.26108,-8.53207z" data-paper-data="{&quot;origPos&quot;:null}" id="path3745" fill="#c03c74" stroke-width="0.04332"/><path d="M178.42028,297.06784l4.95733,7.30273l-4.00048,-0.62822l0.06764,0.13817l6.1346,9.03668l-4.79703,-0.75347l6.26506,9.22898l-4.25682,-0.66852l6.25156,9.20892l-14.93785,-2.34593l-14.93814,2.34593l6.16908,-9.19591l-4.17403,0.65551l6.18195,-9.21575l-4.71417,0.74022l6.06224,-9.03697l0.06256,-0.12546l-3.92272,0.61607l4.89888,-7.30269l4.37436,-8.75886z" data-paper-data="{&quot;origPos&quot;:null}" id="path3826" fill="#c03c74" stroke-width="0.04448"/><path d="M369.54657,296.56188l5.6832,8.37208l-4.58625,-0.72024l0.07781,0.15817l7.03289,10.35993l-5.49947,-0.86383l7.18248,10.58042l-4.88019,-0.76639l7.167,10.55736l-17.12521,-2.68946l-17.12558,2.68946l7.07242,-10.54246l-4.78523,0.75149l7.08719,-10.56524l-5.40451,0.84865l6.94996,-10.36029l0.07178,-0.14387l-4.4971,0.70626l5.61622,-8.37206l5.01489,-10.04143z" data-paper-data="{&quot;origPos&quot;:null}" id="path3828" fill="#c03c74" stroke-width="0.05099"/></g><g fill="#ffffff" stroke-width="0.26458"><path d="M10.42277,11.24231c0,-0.77941 0.63184,-1.41125 1.41125,-1.41125c0.77941,0 1.41125,0.63185 1.41125,1.41125c0,0.77941 -0.63185,1.41125 -1.41125,1.41125c-0.77941,0 -1.41125,-0.63184 -1.41125,-1.41125z" data-paper-data="{&quot;origPos&quot;:null}" id="path3961"/><path d="M32.6918,22.37683c0,-0.77941 0.63184,-1.41125 1.41125,-1.41125c0.7794,0 1.41125,0.63184 1.41125,1.41125c0,0.77941 -0.63184,1.41125 -1.41125,1.41125c-0.7794,0 -1.41125,-0.63184 -1.41125,-1.41125z" data-paper-data="{&quot;origPos&quot;:null}" id="circle3963"/><path d="M62.52379,10.3515c0,-0.77941 0.63185,-1.41125 1.41125,-1.41125c0.77941,0 1.41125,0.63185 1.41125,1.41125c0,0.77941 -0.63184,1.41124 -1.41125,1.41124c-0.7794,0 -1.41125,-0.63184 -1.41125,-1.41124z" data-paper-data="{&quot;origPos&quot;:null}" id="circle3965"/><path d="M92.77615,31.78024c0,-0.77941 0.63185,-1.41125 1.41125,-1.41125c0.7794,0 1.41124,0.63184 1.41124,1.41125c0,0.7794 -0.63184,1.41125 -1.41124,1.41125c-0.7794,0 -1.41125,-0.63184 -1.41125,-1.41125z" data-paper-data="{&quot;origPos&quot;:null}" id="circle3967"/><path d="M114.41488,13.29281c0,-0.77941 0.63184,-1.41125 1.41125,-1.41125c0.7794,0 1.41125,0.63184 1.41125,1.41125c0,0.77941 -0.63184,1.41125 -1.41125,1.41125c-0.7794,0 -1.41125,-0.63184 -1.41125,-1.41125z" data-paper-data="{&quot;origPos&quot;:null}" id="circle3969"/><path d="M156.43199,24.00706c0,-0.77941 0.63184,-1.41125 1.41125,-1.41125c0.7794,0 1.41125,0.63184 1.41125,1.41125c0,0.77941 -0.63184,1.41125 -1.41125,1.41125c-0.7794,0 -1.41125,-0.63184 -1.41125,-1.41125z" data-paper-data="{&quot;origPos&quot;:null}" id="circle3975"/><path d="M205.80204,11.19185c0,-0.77941 0.63184,-1.41125 1.41125,-1.41125c0.7794,0 1.41125,0.63184 1.41125,1.41125c0,0.77941 -0.63184,1.41125 -1.41125,1.41125c-0.7794,0 -1.41125,-0.63185 -1.41125,-1.41125z" data-paper-data="{&quot;origPos&quot;:null}" id="circle3977"/><path d="M251.39052,27.99869c0,-0.77941 0.63185,-1.41125 1.41125,-1.41125c0.7794,0 1.41125,0.63184 1.41125,1.41125c0,0.77941 -0.63184,1.41125 -1.41125,1.41125c-0.7794,0 -1.41125,-0.63184 -1.41125,-1.41125z" data-paper-data="{&quot;origPos&quot;:null}" id="circle3979"/><path d="M297.60929,12.03221c0,-0.77941 0.63184,-1.41125 1.41125,-1.41125c0.7794,0 1.41125,0.63185 1.41125,1.41125c0,0.77941 -0.63184,1.41125 -1.41125,1.41125c-0.7794,0 -1.41125,-0.63185 -1.41125,-1.41125z" data-paper-data="{&quot;origPos&quot;:null}" id="circle3981"/><path d="M337.52548,14.76331c0,-0.77941 0.63184,-1.41125 1.41125,-1.41125c0.7794,0 1.41125,0.63184 1.41125,1.41125c0,0.77941 -0.63184,1.41125 -1.41125,1.41125c-0.7794,0 -1.41125,-0.63184 -1.41125,-1.41125z" data-paper-data="{&quot;origPos&quot;:null}" id="circle3983"/><path d="M375.55088,24.42722c0,-0.77941 0.63184,-1.41124 1.41125,-1.41124c0.7794,0 1.41125,0.63184 1.41125,1.41124c0,0.77941 -0.63184,1.41125 -1.41125,1.41125c-0.7794,0 -1.41125,-0.63185 -1.41125,-1.41125z" data-paper-data="{&quot;origPos&quot;:null}" id="circle3985"/><path d="M417.14775,10.14144c0,-0.77941 0.63184,-1.41125 1.41125,-1.41125c0.7794,0 1.41125,0.63184 1.41125,1.41125c0,0.77941 -0.63184,1.41125 -1.41125,1.41125c-0.7794,0 -1.41125,-0.63184 -1.41125,-1.41125z" data-paper-data="{&quot;origPos&quot;:null}" id="circle3987"/><path d="M449.29082,23.16677c0,-0.77941 0.63184,-1.41125 1.41125,-1.41125c0.7794,0 1.41125,0.63184 1.41125,1.41125c0,0.77941 -0.63184,1.41125 -1.41125,1.41125c-0.7794,0 -1.41125,-0.63184 -1.41125,-1.41125z" data-paper-data="{&quot;origPos&quot;:null}" id="circle3989"/></g></g></g></svg>