<svg version="1.1" xmlns="http://www.w3.org/2000/svg" xmlns:xlink="http://www.w3.org/1999/xlink" width="25" height="25"><g transform="translate(-227.56119,-167.55094)"><g data-paper-data="{&quot;isPaintingLayer&quot;:true}" fill="none" fill-rule="nonzero" stroke="none" stroke-width="none" stroke-linecap="butt" stroke-linejoin="miter" stroke-miterlimit="10" stroke-dasharray="" stroke-dashoffset="0" font-family="none" font-weight="none" font-size="none" text-anchor="none" style="mix-blend-mode: normal"><path d="M227.5612,180.05094c0,-6.90356 5.59644,-12.5 12.5,-12.5c6.90356,0 12.5,5.59644 12.5,12.5c0,6.90356 -5.59644,12.5 -12.5,12.5c-6.90356,0 -12.5,-5.59644 -12.5,-12.5z" data-paper-data="{&quot;origPos&quot;:null}" fill="#ffcf59" stroke-width="0.5"/><path d="M234.8752,175.61622c0,-0.82843 0.67157,-1.5 1.5,-1.5c0.82843,0 1.5,0.67157 1.5,1.5c0,0.82843 -0.67157,1.5 -1.5,1.5c-0.82843,0 -1.5,-0.67157 -1.5,-1.5z" fill="#000000" stroke-width="0.5"/><path d="M242.7502,175.49122c0,-0.82843 0.67157,-1.5 1.5,-1.5c0.82843,0 1.5,0.67157 1.5,1.5c0,0.82843 -0.67157,1.5 -1.5,1.5c-0.82843,0 -1.5,-0.67157 -1.5,-1.5z" fill="#000000" stroke-width="0.5"/><path d="M230.05323,183.36039c0,-0.72487 0.58763,-1.3125 1.3125,-1.3125c0.72487,0 1.3125,0.58763 1.3125,1.3125c0,0.72487 -0.58763,1.3125 -1.3125,1.3125c-0.72487,0 -1.3125,-0.58763 -1.3125,-1.3125z" data-paper-data="{&quot;origPos&quot;:null}" fill="#ffe7ab" stroke-width="0"/><path d="M233.56713,185.5479c0,-0.55229 0.44771,-1 1,-1c0.55229,0 1,0.44771 1,1c0,0.55229 -0.44771,1 -1,1c-0.55229,0 -1,-0.44771 -1,-1z" data-paper-data="{&quot;origPos&quot;:null}" fill="#ffe7ab" stroke-width="0"/><path d="M234.81713,189.1729c0,-0.41421 0.33579,-0.75 0.75,-0.75c0.41421,0 0.75,0.33579 0.75,0.75c0,0.41421 -0.33579,0.75 -0.75,0.75c-0.41421,0 -0.75,-0.33579 -0.75,-0.75z" data-paper-data="{&quot;origPos&quot;:null}" fill="#ffe7ab" stroke-width="0"/></g></g></svg>