<svg version="1.1" xmlns="http://www.w3.org/2000/svg" xmlns:xlink="http://www.w3.org/1999/xlink" width="38.17289" height="40.58797"><g transform="translate(-221.03332,-159.67922)"><g data-paper-data="{&quot;isPaintingLayer&quot;:true}" fill="#000000" fill-rule="nonzero" stroke="none" stroke-width="0" stroke-linecap="round" stroke-linejoin="round" stroke-miterlimit="4" stroke-dasharray="" stroke-dashoffset="0" font-family="none" font-weight="none" font-size="none" text-anchor="none" style="mix-blend-mode: normal"><g><path d="M253.80716,192.31724c0,0 0,-1.02277 0,-2.28442v-27.10847c0,-1.26165 0,-2.28442 0,-2.28442h5.17802c0,0 0,1.02277 0,2.28442v27.10847c0,1.26165 0,2.28442 0,2.28442z" data-paper-data="{&quot;origPos&quot;:null}" id="rect9527"/><g data-paper-data="{&quot;origPos&quot;:null}" id="g9563"><path d="M229.44,195.97231c0,0 0,-1.02277 0,-2.28442v-27.10847c0,-1.26165 0,-2.28442 0,-2.28442h5.17803c0,0 0,1.02277 0,2.28442v27.10847c0,1.26165 0,2.28442 0,2.28442z" id="rect9525"/><path d="M221.03332,194.55613c0,-3.15413 3.03422,-5.71106 6.77712,-5.71106c3.7429,0 6.77711,2.55693 6.77711,5.71106c0,3.15413 -3.03421,5.71105 -6.77711,5.71105c-3.7429,0 -6.77712,-2.55692 -6.77712,-5.71105z" id="path9529"/></g><path d="M259.20621,164.79907c0,0 -0.94322,0.14258 -2.10672,0.31848l-24.9998,3.77934c-1.16351,0.17589 -2.10673,0.31848 -2.10673,0.31848l-0.77399,-5.11985c0,0 0.94321,-0.14258 2.10672,-0.31848l24.99981,-3.77934c1.16351,-0.17589 2.10672,-0.31848 2.10672,-0.31848z" data-paper-data="{&quot;origPos&quot;:null}" id="rect9533"/><path d="M245.40049,190.90106c0,-3.15413 3.03421,-5.71105 6.77711,-5.71105c3.7429,0 6.77712,2.55692 6.77712,5.71105c0,3.15413 -3.03422,5.71106 -6.77712,5.71106c-3.7429,0 -6.77711,-2.55693 -6.77711,-5.71106z" data-paper-data="{&quot;origPos&quot;:null}" id="ellipse9535"/></g></g></g></svg>