<svg version="1.1" xmlns="http://www.w3.org/2000/svg" xmlns:xlink="http://www.w3.org/1999/xlink" width="204.07194" height="59.30943"><g transform="translate(-138.00569,-150.34841)"><g data-paper-data="{&quot;isPaintingLayer&quot;:true}" fill="none" fill-rule="nonzero" stroke="none" stroke-width="none" stroke-linecap="butt" stroke-linejoin="miter" stroke-miterlimit="none" stroke-dasharray="" stroke-dashoffset="0" font-family="none" font-weight="none" font-size="none" text-anchor="none" style="mix-blend-mode: normal"><path d="M331.53208,150.34841c7.03037,0 10.54556,3.51934 10.54556,10.54971c0,22.92766 0,35.66294 0,38.21c0,7.03453 -3.51519,10.54971 -10.54556,10.54971c-109.78933,0 -170.78155,0 -182.98082,0c-7.03037,0 -10.54556,-3.51519 -10.54556,-10.54971c0,-22.9235 0,-35.66294 0,-38.21c0,-7.03037 3.51519,-10.54971 10.54556,-10.54971c109.78933,0 170.78155,0 182.98082,0z" data-paper-data="{&quot;origPos&quot;:null}" id="b4r59Qfqzb 1" fill-opacity="0.7" fill="#2d81ff" stroke="none" stroke-width="1" stroke-miterlimit="10"/><path d="M331.53208,150.34841c7.03037,0 10.54556,3.51934 10.54556,10.54971c0,22.92766 0,35.66294 0,38.21c0,7.03453 -3.51519,10.54971 -10.54556,10.54971c-109.78933,0 -170.78155,0 -182.98082,0c-7.03037,0 -10.54556,-3.51519 -10.54556,-10.54971c0,-22.9235 0,-35.66294 0,-38.21c0,-7.03037 3.51519,-10.54971 10.54556,-10.54971c109.78933,0 170.78155,0 182.98082,0z" data-paper-data="{&quot;origPos&quot;:null}" id="b4r59Qfqzb 2" fill-opacity="0" fill="#000000" stroke-opacity="0" stroke="#000000" stroke-width="0.33" stroke-miterlimit="10"/><g data-paper-data="{&quot;origPos&quot;:null}" id="g8041"><g id="text7770" fill="#d5e5ff" stroke="#47486d" stroke-width="4" stroke-miterlimit="4"><path d="M188.86131,176.41461c0,13.19483 -11.22963,13.19483 -11.22963,13.19483c-12.63333,0 -12.63334,-11.86131 -12.63334,-11.86131c0,-14.52834 12.63334,-13.22991 12.63334,-13.22991c11.22963,0 11.22963,11.89638 11.22963,11.89638zM175.7016,177.25685c0.07018,0.98258 0.63167,1.29842 1.4037,1.29842c0.77204,0 1.36861,-0.49131 1.36861,-1.29842c0,-0.73695 -0.49129,-1.47389 -1.36861,-1.47389c-0.80712,0 -1.47388,0.73694 -1.4037,1.47389z" id="path7789"/><path d="M194.72343,174.06341c3.2987,-3.78999 10.38742,-4.28128 14.91437,-1.75463c0,0 2.91268,1.68445 3.78999,5.05334c0.77204,3.01798 0.10528,8.07131 -2.3512,10.10667c-4.56204,3.75491 -9.75575,1.12296 -9.75575,1.12296c0,0 2.07046,9.43992 -4.31638,9.43992c-5.01825,0 -5.68499,-6.14121 -5.68499,-6.14121c0,0 -1.64935,-12.00167 3.40399,-17.82704zM201.56648,181.08194c0.07018,0.98258 0.63167,1.29842 1.40371,1.29842c0.77204,0 1.36862,-0.49131 1.36862,-1.29842c0,-0.73695 -0.49131,-1.47389 -1.36862,-1.47389c-0.80712,0 -1.47389,0.73694 -1.40371,1.47389z" id="path7791"/><path d="M225.69429,162.62323c5.82537,0 5.05333,6.21138 5.05333,6.21138c0,0 6.66761,-0.73694 6.66761,4.66732c0,5.01824 -6.24649,4.45675 -6.24649,4.45675c0,0 1.50899,11.68584 -4.52693,11.68584c-6.00083,0 -5.54463,-5.57973 -5.08844,-11.89639c0,0 -7.05361,1.33352 -7.05361,-4.2462c0,-3.89527 3.96548,-4.73751 6.38685,-4.73751c0,0 -1.19316,-6.17632 4.80769,-6.14119z" id="path7793"/><path d="M244.08994,170.20323c-2.3863,0.24564 -4.42169,-1.26334 -4.66733,-3.3689c-0.21056,-2.07046 1.50898,-4.00056 3.86019,-4.2462c2.31612,-0.24564 4.42167,1.26334 4.63223,3.3689c0.21056,2.07046 -1.50898,4.00056 -3.82509,4.2462zM244.51105,189.7498c-3.96547,0.14036 -4.98315,-3.05306 -4.98315,-3.05306c-1.8599,-5.08842 -0.14036,-11.40509 -0.14036,-11.40509c1.15806,-4.2813 4.87787,-4.10584 4.87787,-4.10584c4.31638,-0.24564 5.1937,4.14094 5.1937,4.14094c0,0 1.08786,3.75491 -0.0351,10.35231c-0.70185,4.17597 -4.91297,4.07074 -4.91297,4.07074z" id="path7795"/><path d="M265.41472,189.11814c-1.895,0.77204 -3.54435,0.77203 -3.54435,0.77203c-10.24704,0 -10.24705,-8.91351 -10.24705,-8.91351c0,-10.84362 10.24705,-9.86103 10.24705,-9.86103c9.05389,0 9.0539,8.87843 9.0539,8.87843c0,2.17574 -0.42111,3.86019 -1.08787,5.15862c-1.47389,2.73721 -4.42166,3.96546 -4.42166,3.96546zM260.25611,181.08194c0.07018,0.98258 0.63167,1.29842 1.40371,1.29842c0.77204,0 1.3686,-0.49131 1.3686,-1.29842c0,-0.73695 -0.49129,-1.47389 -1.3686,-1.47389c-0.80712,0 -1.47389,0.73694 -1.40371,1.47389z" id="path7797"/><path d="M291.03013,189.39888c0.0351,0 -5.75519,0.80713 -6.00083,-4.84277c0,0 -0.31584,-4.94805 -1.22825,-4.94805c0.28074,3.40397 0.0351,5.1937 0.0351,5.1937c0,0 -0.38602,4.63215 -5.2288,4.70241c-4.59713,0.07018 -5.33406,-4.87787 -5.33406,-4.87787c0,0 -0.84222,-3.12324 -0.42111,-8.07129c0,0 0.42111,-5.2639 5.12352,-5.54465c4.10584,-0.24564 5.08844,1.47389 5.72009,2.56177c0,0 11.26472,-6.84306 12.2824,7.58c0,0 0.63169,7.26417 -4.94805,8.24676z" id="path7799"/><path d="M315.30708,183.95952c0,6.14121 -7.65019,6.35176 -7.65019,6.35176c-10.3874,0.42112 -9.86103,-4.2462 -9.86103,-4.2462c-0.17544,-4.66734 6.66761,-4.63221 6.66761,-4.63221c-6.28158,-1.4739 -6.00083,-5.12353 -6.00083,-5.12353c0.28074,-5.96573 8.98371,-5.75517 8.98371,-5.75517c6.56231,0.14036 7.8256,1.96517 7.72037,4.2462c-0.21056,4.2111 -7.50982,3.26361 -7.50982,3.26361c8.17657,1.01769 7.65019,5.89555 7.65019,5.89555z" id="path7801"/></g><g id="text7762" fill="#d5e5ff" stroke="none" stroke-width="0.5544" stroke-miterlimit="10"><path d="M188.85786,176.41515c0,13.19483 -11.22963,13.19483 -11.22963,13.19483c-12.63333,0 -12.63333,-11.86131 -12.63333,-11.86131c0,-14.52834 12.63333,-13.22991 12.63333,-13.22991c11.22963,0 11.22963,11.89638 11.22963,11.89638zM175.69815,177.25738c0.07018,0.98258 0.63167,1.29842 1.40369,1.29842c0.77204,0 1.36862,-0.49131 1.36862,-1.29842c0,-0.73695 -0.49131,-1.47389 -1.36862,-1.47389c-0.80712,0 -1.47389,0.73694 -1.40369,1.47389z" id="path7774"/><path d="M194.71998,174.06394c3.2987,-3.78999 10.38742,-4.28128 14.91437,-1.75463c0,0 2.91269,1.68445 3.78999,5.05334c0.77204,3.01798 0.10527,8.07131 -2.3512,10.10667c-4.56204,3.75491 -9.75575,1.12296 -9.75575,1.12296c0,0 2.07046,9.43992 -4.31638,9.43992c-5.01825,0 -5.68501,-6.14121 -5.68501,-6.14121c0,0 -1.64935,-12.00167 3.40399,-17.82704zM201.56303,181.08248c0.07018,0.98258 0.63167,1.29842 1.40369,1.29842c0.77204,0 1.36862,-0.49131 1.36862,-1.29842c0,-0.73695 -0.49131,-1.47389 -1.36862,-1.47389c-0.80712,0 -1.47389,0.73694 -1.40369,1.47389z" id="path7776"/><path d="M225.69084,162.62377c5.82537,0 5.05334,6.21138 5.05334,6.21138c0,0 6.66759,-0.73694 6.66759,4.66732c0,5.01824 -6.24648,4.45675 -6.24648,4.45675c0,0 1.50897,11.68584 -4.52695,11.68584c-6.00083,0 -5.54463,-5.57973 -5.08843,-11.89639c0,0 -7.05361,1.33352 -7.05361,-4.2462c0,-3.89527 3.96547,-4.7375 6.38684,-4.7375c0,0 -1.19314,-6.17633 4.80769,-6.1412z" id="path7778"/><path d="M244.08648,170.20377c-2.3863,0.24564 -4.42167,-1.26334 -4.66731,-3.3689c-0.21056,-2.07046 1.50897,-4.00056 3.86019,-4.2462c2.31612,-0.24564 4.42167,1.26334 4.63221,3.3689c0.21056,2.07046 -1.50897,4.00056 -3.82509,4.2462zM244.5076,189.75035c-3.96547,0.14036 -4.98315,-3.05306 -4.98315,-3.05306c-1.8599,-5.08842 -0.14036,-11.40509 -0.14036,-11.40509c1.15806,-4.2813 4.87787,-4.10584 4.87787,-4.10584c4.31638,-0.24564 5.1937,4.14094 5.1937,4.14094c0,0 1.08786,3.75491 -0.0351,10.35231c-0.70185,4.17597 -4.91297,4.07074 -4.91297,4.07074z" id="path7780"/><path d="M265.41126,189.11867c-1.895,0.77204 -3.54435,0.77203 -3.54435,0.77203c-10.24704,0 -10.24704,-8.91351 -10.24704,-8.91351c0,-10.84362 10.24704,-9.86102 10.24704,-9.86102c9.05389,0 9.05389,8.87843 9.05389,8.87843c0,2.17574 -0.42111,3.86019 -1.08786,5.15862c-1.47389,2.73721 -4.42167,3.96546 -4.42167,3.96546zM260.25266,181.08248c0.07018,0.98258 0.63167,1.29842 1.40371,1.29842c0.77204,0 1.3686,-0.49131 1.3686,-1.29842c0,-0.73695 -0.49129,-1.47389 -1.3686,-1.47389c-0.80712,0 -1.47389,0.73694 -1.40371,1.47389z" id="path7782"/><path d="M291.02667,189.39942c0.0351,0 -5.75519,0.80713 -6.00083,-4.84277c0,0 -0.31584,-4.94805 -1.22825,-4.94805c0.28074,3.40397 0.0351,5.1937 0.0351,5.1937c0,0 -0.38602,4.63215 -5.2288,4.70241c-4.59713,0.07018 -5.33407,-4.87787 -5.33407,-4.87787c0,0 -0.84222,-3.12324 -0.42111,-8.0713c0,0 0.42111,-5.2639 5.12352,-5.54465c4.10584,-0.24564 5.08844,1.47389 5.72009,2.56177c0,0 11.26473,-6.84306 12.28241,7.58c0,0 0.63167,7.26417 -4.94805,8.24676z" id="path7784"/><path d="M315.30361,183.96006c0,6.14121 -7.65018,6.35176 -7.65018,6.35176c-10.3874,0.42112 -9.86103,-4.2462 -9.86103,-4.2462c-0.17544,-4.66734 6.66761,-4.63222 6.66761,-4.63222c-6.28158,-1.4739 -6.00083,-5.12353 -6.00083,-5.12353c0.28074,-5.96573 8.9837,-5.75517 8.9837,-5.75517c6.56231,0.14036 7.82561,1.96518 7.72037,4.2462c-0.21056,4.2111 -7.50982,3.2636 -7.50982,3.2636c8.17657,1.01769 7.65018,5.89555 7.65018,5.89555z" id="path7786"/></g><path d="M243.71094,162.56246c2.14051,-0.02894 4.00344,1.42139 4.20083,3.39535c0.21056,2.07043 -1.50937,4.00015 -3.82547,4.24579c-2.3863,0.24564 -4.4213,-1.26361 -4.66695,-3.36917c-0.21054,-2.07044 1.50862,-4.00014 3.85983,-4.2458c0.14475,-0.01504 0.28909,-0.02454 0.43178,-0.02612zM225.6908,162.62391c5.82537,0 5.05376,6.21168 5.05376,6.21168c0,0 6.66719,-0.73732 6.66719,4.66696c0,0.86724 -0.18937,1.56461 -0.49802,2.13026c-7.57674,-0.10509 -15.05269,-0.37727 -22.25941,-0.81041c-0.10039,-0.39073 -0.15784,-0.82689 -0.15784,-1.31986c0,-3.89527 3.96531,-4.7373 6.3867,-4.7373c0,0 -1.19322,-6.17648 4.80762,-6.14134zM177.08564,164.49159c0.34545,0.00712 0.54301,0.02706 0.54301,0.02706c6.78921,0 9.47043,4.34696 10.53193,7.78589c-7.90726,-1.07517 -14.80231,-2.37147 -20.42191,-3.83941c3.05143,-3.76179 7.76056,-4.00624 9.34698,-3.97348zM309.96252,170.72218c-2.84063,0.52145 -5.86906,1.00879 -9.06566,1.45884c2.66241,-1.71732 6.54614,-1.62648 6.54614,-1.62648c0.95118,0.02032 1.77904,0.08013 2.51952,0.16764zM209.63408,172.30944c0,0 1.35231,0.78364 2.49172,2.34779c-5.76474,-0.38061 -11.30452,-0.8633 -16.53754,-1.44089c1.86431,-1.57224 4.4883,-2.38548 7.1652,-2.46634c2.42931,-0.07341 4.90009,0.45402 6.88062,1.55945zM278.70613,170.98718c3.49338,-0.00951 4.39369,1.56586 4.98587,2.58576c0,0 5.53731,-3.35596 9.19817,-0.39253c-6.16682,0.68405 -12.75917,1.23572 -19.64176,1.64367c0.54642,-1.5616 1.81587,-3.63954 4.72419,-3.81321c0.25662,-0.01582 0.50064,-0.02312 0.73353,-0.02374zM260.99347,171.09514c0.16521,-0.00316 0.31085,-0.00316 0.43342,0c0.28019,0.00538 0.43996,0.02121 0.43996,0.02121c4.18049,0 6.42821,1.89319 7.6395,3.93098c-5.4671,0.2782 -11.06509,0.46543 -16.72317,0.55934c2.07304,-3.94112 6.36492,-4.47473 8.21029,-4.5116zM244.65629,171.17668c3.97571,0.03396 4.79943,4.15011 4.79943,4.15011c0,0 0.03379,0.13691 0.07768,0.33445c-1.83597,0.02154 -3.67513,0.03327 -5.51497,0.03513c-1.57567,-0.00696 -3.15009,-0.02117 -4.72174,-0.04257c0.0514,-0.21998 0.08749,-0.36145 0.08749,-0.36145c1.15806,-4.2813 4.87794,-4.106 4.87794,-4.106c0.13489,-0.00791 0.26591,-0.01059 0.39416,-0.00949z" id="path7822" fill="#ddeaff" stroke="none" stroke-width="4.22035" stroke-miterlimit="4" opacity="0.8"/></g><path d="M292.61608,190.26898c-0.24788,0.94541 -0.5996,0.86146 -0.5996,0.86146l-2.88563,0.24919c-0.7742,-0.19827 -0.99143,-0.66996 -1.78776,-0.77262c0,0 -0.45569,0.43867 -0.33101,-0.52865c0.00748,-0.05803 0.18521,0.72128 0.19942,0.671c-0.30404,-0.1444 -1.34952,-0.4782 -1.15449,-1.12591c0.28217,-0.93712 1.3756,-0.6571 1.3756,-0.6571c0.97621,0.25 1.90263,0.38963 2.90396,0.5187l0.61619,0.07943c0,0 1.16841,0.1985 0.99046,1.15782c-0.03605,0.19433 -0.10836,0.34179 -0.20077,0.45342c0.18323,0.18464 -0.52475,-0.71116 -0.62641,-0.32344z" data-paper-data="{&quot;origPos&quot;:null,&quot;origRot&quot;:0}" fill="#47486d" stroke="none" stroke-width="0.5" stroke-miterlimit="10"/></g></g></svg>