<svg version="1.1" xmlns="http://www.w3.org/2000/svg" xmlns:xlink="http://www.w3.org/1999/xlink" width="140.07195" height="59.30942"><g transform="translate(-169.50569,-150.34841)"><g data-paper-data="{&quot;isPaintingLayer&quot;:true}" fill="none" fill-rule="nonzero" stroke="none" stroke-width="none" stroke-linecap="butt" stroke-linejoin="miter" stroke-miterlimit="none" stroke-dasharray="" stroke-dashoffset="0" font-family="none" font-weight="none" font-size="none" text-anchor="none" style="mix-blend-mode: normal"><path d="M302.03422,150.34841c4.77254,0 7.15882,3.51934 7.15882,10.54971c0,22.92766 0,35.66295 0,38.21c0,7.03453 -2.38627,10.54971 -7.15882,10.54971c-74.53008,0 -115.93442,0 -124.21585,0c-4.77254,0 -7.15882,-3.51519 -7.15882,-10.54971c0,-22.9235 0,-35.66295 0,-38.21c0,-7.03037 2.38627,-10.54971 7.15882,-10.54971c74.53008,0 115.93442,0 124.21585,0z" data-paper-data="{&quot;origPos&quot;:null}" id="b4r59Qfqzb 1" fill-opacity="0.7" fill="#2d81ff" stroke="none" stroke-width="1" stroke-miterlimit="10"/><path d="M302.33932,150.34841c4.82554,0 7.23832,3.51934 7.23832,10.54971c0,22.92766 0,35.66295 0,38.21c0,7.03453 -2.41277,10.54971 -7.23832,10.54971c-75.35776,0 -117.22191,0 -125.59531,0c-4.82554,0 -7.23832,-3.51519 -7.23832,-10.54971c0,-22.9235 0,-35.66295 0,-38.21c0,-7.03037 2.41277,-10.54971 7.23832,-10.54971c75.35776,0 117.22191,0 125.59531,0z" data-paper-data="{&quot;origPos&quot;:null}" id="b4r59Qfqzb 2" fill-opacity="0" fill="#000000" stroke-opacity="0" stroke="#000000" stroke-width="0.33" stroke-miterlimit="10"/><path d="M244.95085,182.97329c0,0 0,-0.87869 0,-1.96262v0c0,-1.08393 0,-1.96262 0,-1.96262h7.11778c0,0 0,0.87869 0,1.96262v0c0,1.08393 0,1.96262 0,1.96262z" data-paper-data="{&quot;origPos&quot;:null}" id="rect8194" fill-opacity="0.99682" fill="#2d81ff" stroke="none" stroke-width="4" stroke-miterlimit="4" opacity="0.8"/><g data-paper-data="{&quot;origPos&quot;:null}"><path d="M233.32266,169.88382c0.60408,7.4977 -0.17746,14.49803 -0.17746,14.49803c0,0 -0.31976,5.50744 -5.6499,5.36533c-4.97478,-0.14215 -5.43647,-7.67552 -5.43647,-7.67552c-0.63961,-5.36566 0.17746,-12.72106 0.17746,-12.72106c0,0 0.4263,-7.036 5.57876,-7.036c0,0 4.86799,-0.28387 5.50761,7.56921zM207.59186,163.59952c0.4858,0 0.77442,0.03007 0.77442,0.03007c10.58919,0.35531 10.76661,9.16786 10.76661,9.16786c0.35534,10.41157 -10.76661,9.16791 -10.76661,9.16791c1.5635,6.9292 -3.73062,7.17748 -3.73062,7.17748c-5.57886,0.56855 -7.17829,-4.97445 -7.17829,-4.97445c-2.20312,-7.39111 0.1423,-14.00084 0.1423,-14.00084c2.07874,-6.0053 7.88706,-6.56824 9.9922,-6.56824zM258.96186,179.83346c0.53302,10.8024 -5.08155,10.05599 -5.08155,10.05599c0,0 -3.51735,0.24842 -4.05035,-3.34053c0,0 -0.9599,3.83815 -7.24945,3.09196c0,0 -6.82255,-0.24882 -6.82255,-8.38612c0,0 -0.74627,-9.48808 7.53319,-10.23427c5.01032,-0.46195 6.18359,2.45236 6.2902,2.77221c0.03554,-0.14215 0.88782,-3.02082 4.05037,-3.02082c5.29456,0 5.33015,9.06159 5.33015,9.06159zM281.21064,171.30509c0,0 4.22921,1.31454 1.35094,9.27422c-2.66506,7.35555 -6.00562,12.22386 -6.00562,12.22386c0,0 -3.30459,6.39599 -8.24384,4.01518c-4.69051,-2.23866 -1.13747,-9.06135 -0.35572,-10.73143c-0.56854,-0.56855 -1.2438,-1.13671 -1.2438,-1.13671c-3.12701,-2.38076 -4.86813,-5.25899 -4.86813,-5.25899c0,0 -3.16213,-4.51326 1.1375,-7.96006c0,0 3.80211,-2.5938 7.5332,2.09673c0.78175,0.99494 1.45712,1.9898 2.09673,2.91369c0.89946,-1.61904 3.08854,-5.86922 6.54698,-5.89849c0.64045,-0.00544 1.32443,0.13443 2.05176,0.46201zM206.87386,173.57926c0.07107,0.99499 0.63951,1.31499 1.42127,1.31499c0.78175,-0.00005 1.3861,-0.4977 1.3861,-1.31499c0,-0.74619 -0.49774,-1.49239 -1.3861,-1.49239c-0.81729,0 -1.49233,0.74619 -1.42127,1.49239zM248.01779,179.37146c-0.81729,0 -2.0157,1.06022 -1.94463,1.80646c0.07107,0.99533 1.16288,1.00008 1.94463,1.00008c0.78175,0 1.17594,-0.60154 1.17594,-1.41878c0,-0.10777 -0.00595,-0.21334 -0.01893,-0.3151c-0.07665,-0.60304 -0.39692,-1.07266 -1.157,-1.07266z" data-paper-data="{&quot;origPos&quot;:null}" id="path8163" fill="#d5e5ff" stroke="#47486d" stroke-width="4" stroke-miterlimit="4"/><path d="M233.32266,169.88382c0.60408,7.4977 -0.17746,14.49803 -0.17746,14.49803c0,0 -0.31976,5.50744 -5.6499,5.36533c-4.97478,-0.14215 -5.43647,-7.67552 -5.43647,-7.67552c-0.63961,-5.36566 0.17746,-12.72106 0.17746,-12.72106c0,0 0.4263,-7.036 5.57876,-7.036c0,0 4.86799,-0.28387 5.50761,7.56921zM207.59186,163.59952c0.4858,0 0.77442,0.03007 0.77442,0.03007c10.58919,0.35531 10.76661,9.16786 10.76661,9.16786c0.35534,10.41157 -10.76661,9.16791 -10.76661,9.16791c1.5635,6.9292 -3.73062,7.17748 -3.73062,7.17748c-5.57886,0.56855 -7.17829,-4.97445 -7.17829,-4.97445c-2.20312,-7.39111 0.1423,-14.00084 0.1423,-14.00084c2.07874,-6.0053 7.88706,-6.56824 9.9922,-6.56824zM258.96186,179.83346c0.53302,10.8024 -5.08155,10.05599 -5.08155,10.05599c0,0 -3.51735,0.24842 -4.05035,-3.34053c0,0 -0.9599,3.83815 -7.24945,3.09196c0,0 -6.82255,-0.24882 -6.82255,-8.38612c0,0 -0.74627,-9.48808 7.53319,-10.23427c5.01032,-0.46195 6.18359,2.45236 6.2902,2.77221c0.03554,-0.14215 0.88782,-3.02082 4.05037,-3.02082c5.29456,0 5.33015,9.06159 5.33015,9.06159zM281.21064,171.30509c0,0 4.22921,1.31454 1.35094,9.27422c-2.66506,7.35555 -6.00562,12.22386 -6.00562,12.22386c0,0 -3.30459,6.39599 -8.24384,4.01518c-4.69051,-2.23866 -1.13747,-9.06135 -0.35572,-10.73143c-0.56854,-0.56855 -1.2438,-1.13671 -1.2438,-1.13671c-3.12701,-2.38076 -4.86813,-5.25899 -4.86813,-5.25899c0,0 -3.16213,-4.51326 1.1375,-7.96006c0,0 3.80211,-2.5938 7.5332,2.09673c0.78175,0.99494 1.45712,1.9898 2.09673,2.91369c0.89946,-1.61904 3.08854,-5.86922 6.54698,-5.89849c0.64045,-0.00544 1.32443,0.13443 2.05176,0.46201zM206.87386,173.57926c0.07107,0.99499 0.63951,1.31499 1.42127,1.31499c0.78175,-0.00005 1.3861,-0.4977 1.3861,-1.31499c0,-0.74619 -0.49774,-1.49239 -1.3861,-1.49239c-0.81729,0 -1.49233,0.74619 -1.42127,1.49239zM246.59652,180.8639c0.07107,0.99494 0.63952,1.3141 1.42127,1.3141c0.78175,0 1.38528,-0.49685 1.38528,-1.3141c0,-0.74624 -0.49692,-1.49244 -1.38528,-1.49244c-0.81729,0 -1.49234,0.7462 -1.42127,1.49244z" data-paper-data="{&quot;origPos&quot;:null}" id="path8047" fill="#d5e5ff" stroke="none" stroke-width="0.56137" stroke-miterlimit="10"/><path d="M233.32266,169.88382c0.12324,1.5296 0.18631,3.03439 0.21261,4.4674c-3.95481,-0.13962 -7.8463,-0.36077 -11.6269,-0.66074c0.12435,-2.50503 0.32792,-4.33987 0.32792,-4.33987c0,0 0.4263,-7.036 5.57876,-7.036c0,0 4.86799,-0.28387 5.50761,7.56921zM207.59187,163.59944c0.4858,0 0.77443,0.03007 0.77443,0.03007c10.58919,0.35531 10.76662,9.16786 10.76662,9.16786c0.00776,0.22824 0.00301,0.44361 0,0.66079c-3.51547,-0.32298 -6.90357,-0.7142 -10.12715,-1.16941c-0.19811,-0.12302 -0.43288,-0.20199 -0.71063,-0.20199c-0.12285,0 -0.24055,0.02136 -0.35491,0.05238c-3.72155,-0.54506 -7.19574,-1.17378 -10.37083,-1.8768c0.00695,-0.02042 0.03026,-0.0948 0.03026,-0.0948c2.07874,-6.0053 7.88706,-6.56824 9.9922,-6.56824zM253.63171,170.77188c2.20508,0 3.49595,1.57248 4.25398,3.40682c-4.66002,0.23996 -9.41971,0.36416 -14.19631,0.37042c-2.11996,-0.00106 -4.23846,-0.02535 -6.34825,-0.07279c1.09014,-1.72844 2.91035,-3.1819 5.95001,-3.45584c5.01032,-0.46195 6.18359,2.45236 6.2902,2.77221c0.03554,-0.14215 0.88782,-3.02082 4.05037,-3.02082zM281.21064,171.30509c0,0 0.3395,0.11277 0.75806,0.4416c-2.10869,0.34277 -4.30321,0.65704 -6.57233,0.94122c1.01767,-1.033 2.2711,-1.83218 3.7625,-1.84484c0.64045,-0.00544 1.32443,0.13443 2.05176,0.46201zM270.04741,173.28162c-2.88431,0.29115 -5.85566,0.53491 -8.89149,0.72945c0.34218,-0.7725 0.91565,-1.55008 1.82605,-2.27991c0,0 0.9505,-0.64845 2.36741,-0.71064c1.29847,-0.05696 2.98881,0.38297 4.69802,2.2611z" data-paper-data="{&quot;origPos&quot;:null}" id="path8182" fill="#dce9ff" stroke="none" stroke-width="4.18206" stroke-miterlimit="4" opacity="0.8"/></g></g></g></svg>