<svg version="1.1" xmlns="http://www.w3.org/2000/svg" xmlns:xlink="http://www.w3.org/1999/xlink" width="68.1859" height="68.1859"><defs><radialGradient cx="239.94762" cy="180.11349" r="34.09295" fx="239.94762" fy="180.11349" gradientUnits="userSpaceOnUse" id="color-1"><stop offset="0" stop-color="#ffffff" stop-opacity="0"/><stop offset="0.79374" stop-color="#ffffff" stop-opacity="0.2"/><stop offset="0.89468" stop-color="#ffffff" stop-opacity="0.2"/><stop offset="1" stop-color="#ffffff" stop-opacity="0.3"/></radialGradient><linearGradient x1="240.40347" y1="188.01217" x2="240.40347" y2="146.15287" gradientUnits="userSpaceOnUse" id="color-2"><stop offset="0" stop-color="#ffffff" stop-opacity="0"/><stop offset="0.49547" stop-color="#ffffff" stop-opacity="0.04459"/><stop offset="0.77547" stop-color="#ffffff" stop-opacity="0.2"/><stop offset="1" stop-color="#ffffff" stop-opacity="0.31"/></linearGradient><linearGradient x1="240.69546" y1="171.8283" x2="240.69546" y2="213.68759" gradientUnits="userSpaceOnUse" id="color-3"><stop offset="0" stop-color="#ffffff" stop-opacity="0"/><stop offset="0.49547" stop-color="#ffffff" stop-opacity="0.04459"/><stop offset="0.77547" stop-color="#ffffff" stop-opacity="0.2"/><stop offset="1" stop-color="#ffffff" stop-opacity="0.31"/></linearGradient></defs><g transform="translate(-205.85467,-146.02054)"><g data-paper-data="{&quot;isPaintingLayer&quot;:true}" fill="none" fill-rule="nonzero" stroke="none" stroke-width="none" stroke-linecap="butt" stroke-linejoin="miter" stroke-miterlimit="10" stroke-dasharray="" stroke-dashoffset="0" font-family="none" font-weight="none" font-size="none" text-anchor="none" style="mix-blend-mode: normal"><path d="M205.85467,180.11349c0,-18.829 15.26392,-34.09295 34.09295,-34.09295c18.829,0 34.09295,15.26392 34.09295,34.09295c0,18.829 -15.26392,34.09295 -34.09295,34.09295c-18.829,0 -34.09295,-15.26392 -34.09295,-34.09295z" id="path5051" fill="url(#color-1)" stroke-width="3.23729"/><path d="M211.38327,167.0825c0,-11.63182 12.78871,-21.06129 28.56435,-21.06129c15.77568,0 28.56435,9.42947 28.56435,21.06129c0,11.63182 -12.78871,21.06129 -28.56435,21.06129c-15.77568,0 -28.56435,-9.42947 -28.56435,-21.06129z" id="circle5371" fill="url(#color-2)" stroke-width="2.32901"/><path d="M240.23967,171.69667c15.77568,0 28.56435,9.42947 28.56435,21.06129c0,11.63182 -12.78871,21.06129 -28.56435,21.06129c-15.77568,0 -28.56435,-9.42947 -28.56435,-21.06129c0,-11.63182 12.78871,-21.06129 28.56435,-21.06129z" id="circle5371-12" fill="url(#color-3)" stroke-width="2.32901"/></g></g></svg>