<svg version="1.1" xmlns="http://www.w3.org/2000/svg" xmlns:xlink="http://www.w3.org/1999/xlink" width="80.14093" height="81.84558"><g transform="translate(-199.32242,-137.76325)"><g data-paper-data="{&quot;isPaintingLayer&quot;:true}" fill="#ffffff" fill-rule="nonzero" stroke="none" stroke-width="none" stroke-linecap="butt" stroke-linejoin="miter" stroke-miterlimit="10" stroke-dasharray="" stroke-dashoffset="0" font-family="none" font-weight="none" font-size="none" text-anchor="none" style="mix-blend-mode: normal"><path d="M206.43637,180.10659c0,-18.67211 15.13673,-33.80884 33.80884,-33.80884c18.67211,0 33.80884,15.13673 33.80884,33.80884c0,18.67211 -15.13673,33.80884 -33.80884,33.80884c-18.67211,0 -33.80884,-15.13673 -33.80884,-33.80884z" data-paper-data="{&quot;origPos&quot;:null}" stroke-width="0"/><path d="M238.52932,139.76325c0,-1.10457 0.89543,-2 2,-2c1.10457,0 2,0.89543 2,2c0,1.10457 -0.89543,2 -2,2c-1.10457,0 -2,-0.89543 -2,-2z" stroke-width="0.5"/><path d="M202.73172,156.24153c0,-1.10457 0.89543,-2 2,-2c1.10457,0 2,0.89543 2,2c0,1.10457 -0.89543,2 -2,2c-1.10457,0 -2,-0.89543 -2,-2z" stroke-width="0.5"/><path d="M199.32242,195.73252c0,-1.10457 0.89543,-2 2,-2c1.10457,0 2,0.89543 2,2c0,1.10457 -0.89543,2 -2,2c-1.10457,0 -2,-0.89543 -2,-2z" stroke-width="0.5"/><path d="M224.03981,217.60884c0,-1.10457 0.89543,-2 2,-2c1.10457,0 2,0.89543 2,2c0,1.10457 -0.89543,2 -2,2c-1.10457,0 -2,-0.89543 -2,-2z" stroke-width="0.5"/><path d="M257.56455,215.90419c0,-1.10457 0.89543,-2 2,-2c1.10457,0 2,0.89543 2,2c0,1.10457 -0.89543,2 -2,2c-1.10457,0 -2,-0.89543 -2,-2z" stroke-width="0.5"/><path d="M275.46335,195.44842c0,-1.10457 0.89543,-2 2,-2c1.10457,0 2,0.89543 2,2c0,1.10457 -0.89543,2 -2,2c-1.10457,0 -2,-0.89543 -2,-2z" stroke-width="0.5"/><path d="M271.48583,156.80973c0,-1.10457 0.89543,-2 2,-2c1.10457,0 2,0.89543 2,2c0,1.10457 -0.89543,2 -2,2c-1.10457,0 -2,-0.89543 -2,-2z" stroke-width="0.5"/></g></g></svg>