<svg version="1.1" xmlns="http://www.w3.org/2000/svg" xmlns:xlink="http://www.w3.org/1999/xlink" width="71.40982" height="20.74832"><g transform="translate(-204.47,-169.60534)"><g data-paper-data="{&quot;isPaintingLayer&quot;:true}" fill="none" fill-rule="nonzero" stroke="none" stroke-width="none" stroke-linecap="butt" stroke-linejoin="miter" stroke-miterlimit="10" stroke-dasharray="" stroke-dashoffset="0" font-family="none" font-weight="none" font-size="none" text-anchor="none" style="mix-blend-mode: normal"><g data-paper-data="{&quot;origPos&quot;:null}"><path d="M265.50102,169.60535c6.91765,0 10.3788,3.45651 10.3788,10.37416v0c0,6.91765 -3.46115,10.37416 -10.3788,10.37416c-30.39041,0 -47.27448,0 -50.65222,0c-6.91765,0 -10.37879,-3.45651 -10.37879,-10.37416v0c0,-6.91765 3.46114,-10.37416 10.37879,-10.37416c30.39041,0 47.27911,0 50.65222,0z" id="a6I2uw3799 1" fill="#55ff55" stroke="none" stroke-width="1"/><g fill-opacity="0" fill="#000000" stroke-opacity="0" stroke="#000000" stroke-width="2.35"><path d="M265.50102,169.60535c6.91765,0 10.3788,3.45651 10.3788,10.37416v0c0,6.91765 -3.46115,10.37416 -10.3788,10.37416c-30.39041,0 -47.27448,0 -50.65222,0c-6.91765,0 -10.37879,-3.45651 -10.37879,-10.37416v0c0,-6.91765 3.46114,-10.37416 10.37879,-10.37416c30.39041,0 47.27911,0 50.65222,0z" id="a6I2uw3799 2"/></g></g></g></g></svg>