<svg version="1.1" xmlns="http://www.w3.org/2000/svg" xmlns:xlink="http://www.w3.org/1999/xlink" width="71.40983" height="20.75296"><g transform="translate(-204.43332,-169.56704)"><g data-paper-data="{&quot;isPaintingLayer&quot;:true}" fill="none" fill-rule="nonzero" stroke="none" stroke-width="none" stroke-linecap="butt" stroke-linejoin="miter" stroke-miterlimit="10" stroke-dasharray="" stroke-dashoffset="0" font-family="none" font-weight="none" font-size="none" text-anchor="none" style="mix-blend-mode: normal"><path d="M265.46436,169.56704c6.91765,0 10.3788,3.46114 10.3788,10.3788v0c0,6.91765 -3.46114,10.37416 -10.3788,10.37416c-30.39041,0 -47.27448,0 -50.65223,0c-6.91765,0 -10.3788,-3.45651 -10.3788,-10.37416v0c0,-6.91765 3.46114,-10.3788 10.3788,-10.3788c30.39041,0 47.27912,0 50.65223,0z" id="b1Xc7fdn97 1" fill="#ff5555" stroke="none" stroke-width="1"/><path d="M265.46436,169.56704c6.91765,0 10.3788,3.46114 10.3788,10.3788c0,6.91765 -3.46114,10.37416 -10.3788,10.37416c-30.39041,0 -47.27448,0 -50.65223,0c-6.91765,0 -10.3788,-3.45651 -10.3788,-10.37416c0,-6.91765 3.46114,-10.3788 10.3788,-10.3788c30.39041,0 47.27912,0 50.65223,0z" id="b1Xc7fdn97 2" fill-opacity="0" fill="#000000" stroke-opacity="0" stroke="#000000" stroke-width="2.35"/></g></g></svg>