<svg version="1.1" xmlns="http://www.w3.org/2000/svg" xmlns:xlink="http://www.w3.org/1999/xlink" width="189.71818" height="88.37955"><g transform="translate(-145.1668,-137.48494)"><g data-paper-data="{&quot;isPaintingLayer&quot;:true}" fill="none" fill-rule="nonzero" stroke="none" stroke-width="none" stroke-linecap="butt" stroke-linejoin="miter" stroke-miterlimit="none" stroke-dasharray="" stroke-dashoffset="0" font-family="none" font-weight="none" font-size="none" text-anchor="none" style="mix-blend-mode: normal"><g data-paper-data="{&quot;origPos&quot;:null}" id="g1799" fill="#00cbfe" stroke="#128fae" stroke-width="7.9375" stroke-miterlimit="4"><path d="M168.12797,201.2798c-5.38119,0 -9.89189,-1.8201 -13.53209,-5.46031c-3.64022,-3.69298 -5.46033,-8.23005 -5.46033,-13.61123c0,-2.00476 0.65947,-3.64022 1.97839,-4.90638c1.31891,-1.31891 2.98075,-1.97837 4.98551,-1.97837c2.00475,0 3.6402,0.65946 4.90636,1.97837c1.31892,1.26616 1.97839,2.90162 1.97839,4.90638c0,1.47718 0.47481,2.71696 1.42444,3.71934c1.00237,1.00238 2.24215,1.50357 3.71934,1.50357c1.47719,0 2.71697,-0.50119 3.71934,-1.50357c1.00238,-1.00238 1.50357,-2.24216 1.50357,-3.71934v-33.86982c0,-2.00475 0.63308,-3.6402 1.89924,-4.90636c1.31892,-1.31892 2.98076,-1.97839 4.98551,-1.97839c2.00476,0 3.6666,0.65947 4.98551,1.97839c1.31892,1.26616 1.97839,2.90161 1.97839,4.90636v33.86982c0,5.38118 -1.84648,9.91825 -5.53946,13.61123c-3.64021,3.64021 -8.15091,5.46031 -13.53209,5.46031z" id="path1791"/><path d="M206.91527,201.12153c-5.32843,0 -9.78636,-1.76735 -13.37383,-5.30204c-3.53469,-3.58745 -5.30204,-8.04539 -5.30204,-13.37383v-17.72625c0,-2.00476 0.63308,-3.6666 1.89924,-4.98551c1.31892,-1.31891 2.98076,-1.97837 4.98551,-1.97837c2.00476,0 3.6666,0.65946 4.98551,1.97837c1.31892,1.31891 1.97839,2.98075 1.97839,4.98551v17.72625c0,1.37168 0.44843,2.53233 1.34529,3.48194c0.94963,0.89687 2.11027,1.3453 3.48194,1.3453c1.37168,0 2.50595,-0.44844 3.40281,-1.3453c0.89687,-0.94961 1.3453,-2.11026 1.3453,-3.48194v-17.88452c0,-2.00476 0.65946,-3.64022 1.97837,-4.90638c1.31892,-1.31891 2.98076,-1.97837 4.98551,-1.97837c2.00476,0 3.64022,0.65946 4.90638,1.97837c1.31891,1.26616 1.97837,2.90162 1.97837,4.90638v17.88452c0,5.27566 -1.79372,9.70723 -5.38118,13.29469c-3.53469,3.58745 -7.93988,5.38118 -13.21556,5.38118z" id="path1793"/><path d="M296.28473,216.55288c-1.31891,1.31891 -2.98075,1.97837 -4.98551,1.97837h-0.31653c-5.27566,0 -9.70723,-1.79372 -13.29469,-5.38118c-3.58745,-3.58746 -5.38118,-8.01903 -5.38118,-13.29469v-23.58225c0,-1.31892 -0.47481,-2.42682 -1.42444,-3.32367c-0.89686,-0.94963 -2.00475,-1.42444 -3.32367,-1.42444c-1.42443,0 -2.58507,0.47481 -3.48194,1.42444v21.28733c0,2.00476 -0.65946,3.64022 -1.97837,4.90638c-1.31892,1.31891 -2.98076,1.97837 -4.98551,1.97837c-2.00476,0 -3.6666,-0.65946 -4.98551,-1.97837c-1.26616,-1.26616 -1.89924,-2.90162 -1.89924,-4.90638v-17.96365c0,-1.31892 -0.47481,-2.42682 -1.42444,-3.32367c-0.94963,-0.94963 -2.08389,-1.42444 -3.40281,-1.42444c-1.37168,0 -2.53233,0.44844 -3.48194,1.3453c-0.89687,0.89686 -1.3453,2.03112 -1.3453,3.40281v17.96365c0,2.00476 -0.65946,3.64022 -1.97837,4.90638c-1.26617,1.31891 -2.90163,1.97837 -4.90638,1.97837c-2.00476,0 -3.6666,-0.65946 -4.98551,-1.97837c-1.31891,-1.26616 -1.97837,-2.90162 -1.97837,-4.90638v-17.96365c0,-5.27568 1.79372,-9.68087 5.38118,-13.21556c3.58745,-3.58745 8.01901,-5.38118 13.29469,-5.38118c4.11502,0 7.80799,1.2134 11.07891,3.64021c3.21816,-2.42681 6.91113,-3.64021 11.07891,-3.64021c5.27568,0 9.68087,1.79372 13.21556,5.38118c3.58745,3.53469 5.38118,7.93988 5.38118,13.21556v23.58225c0,1.37167 0.44844,2.50594 1.3453,3.40281c0.94963,0.94963 2.11027,1.42444 3.48194,1.42444h0.31653c2.00476,0 3.6666,0.65946 4.98551,1.97837c1.31892,1.31891 1.97839,2.98075 1.97839,4.98551c0,2.00475 -0.65947,3.64021 -1.97839,4.90638z" id="path1795"/><path d="M309.07495,201.2798c-2.00476,0 -3.6666,-0.65946 -4.98551,-1.97837c-1.26616,-1.31891 -1.89924,-2.98075 -1.89924,-4.98551c0,-2.00475 0.63308,-3.64021 1.89924,-4.90638c1.31891,-1.31891 2.98075,-1.97837 4.98551,-1.97837c2.21578,0 4.08864,-0.76497 5.61858,-2.29492c1.5827,-1.5827 2.37405,-3.48195 2.37405,-5.69773c0,-2.21577 -0.79135,-4.08863 -2.37405,-5.61858c-1.52993,-1.52995 -3.4028,-2.29492 -5.61858,-2.29492c-2.21578,0 -4.08864,0.76497 -5.61859,2.29492c-1.52995,1.52995 -2.29492,3.40281 -2.29492,5.61858v30.94181c0,2.00476 -0.65946,3.6666 -1.97837,4.98551c-1.31891,1.31892 -2.98075,1.97839 -4.98551,1.97839c-2.00476,0 -3.6666,-0.65947 -4.98551,-1.97839c-1.26616,-1.31891 -1.89924,-2.98075 -1.89924,-4.98551v-30.94181c0,-6.17254 2.08389,-11.34269 6.25166,-15.51047c4.16779,-4.16778 9.33794,-6.25166 15.51048,-6.25166c6.17254,0 11.34269,2.08389 15.51047,6.25166c4.22054,4.16778 6.33081,9.33793 6.33081,15.51047c0,6.17255 -2.11027,11.36908 -6.33081,15.58962c-4.16778,4.16778 -9.33793,6.25166 -15.51047,6.25166z" id="path1797"/></g><path d="M289.73526,169.08268c0.97975,-1.861 2.25443,-3.57999 3.8292,-5.15474c4.16779,-4.16779 9.33812,-6.25166 15.51067,-6.25166c6.17253,0 11.34287,2.08388 15.51066,6.25166c0.954,0.94207 1.78437,1.94296 2.52269,2.98747c-3.85712,0.74334 -7.94455,1.49631 -11.93248,2.08524c-2.23681,0.33035 -4.4237,0.6151 -6.4828,0.8285c-2.05911,0.21337 -3.9907,0.35615 -5.71481,0.40344c-1.58773,0.04361 -3.17139,0.00625 -4.75294,-0.09106c-1.58156,-0.09735 -3.16086,-0.25532 -4.73803,-0.45401c-1.25261,-0.15779 -2.50131,-0.40551 -3.75215,-0.60479z" data-paper-data="{&quot;origPos&quot;:null}" id="path2030" fill="#66e0ff" stroke="none" stroke-width="1.23402" stroke-miterlimit="10"/><path d="M227.47473,171.0579c0.45807,0.04361 0.9099,0.1329 1.37112,0.15407c1.52443,0.0699 3.04331,0.04361 4.55825,-0.05627c1.51494,-0.09977 3.02601,-0.27275 4.53423,-0.49705c1.50823,-0.22435 3.0134,-0.49994 4.51766,-0.80365c1.50426,-0.30371 3.00798,-0.63541 4.51104,-0.97344c3.00611,-0.67603 6.0125,-1.3762 9.03035,-1.91875c1.50892,-0.27126 3.02072,-0.50331 4.53671,-0.67355c1.516,-0.17028 3.03573,-0.27833 4.56157,-0.30238c1.58814,-0.02507 3.17274,0.0279 4.75461,0.13916c1.58186,0.11123 3.16149,0.28088 4.73886,0.4888c3.15474,0.41584 6.30213,0.98508 9.44955,1.55008c0.11593,0.02068 0.23204,0.03543 0.34796,0.05627c1.13694,2.41833 1.76879,5.08183 1.76879,8.05194v23.58246c0,1.26944 0.38922,2.33264 1.15738,3.19542v-23.61228c0,-3.8403 0.8092,-7.29159 2.42246,-10.35593c1.25084,0.19928 2.49954,0.44703 3.75215,0.60479c1.57717,0.19868 3.15647,0.35669 4.73803,0.45401c1.58156,0.09747 3.16521,0.13467 4.75294,0.09106c1.72411,-0.04725 3.6557,-0.19007 5.71481,-0.40344c2.05909,-0.2134 4.24599,-0.49814 6.4828,-0.8285c3.98792,-0.58893 8.07536,-1.3419 11.93248,-2.08524c2.52807,3.57648 3.80766,7.74585 3.80766,12.52321c0,6.17255 -2.10982,11.36881 -6.33035,15.58934c-4.16779,4.1678 -9.33813,6.25165 -15.51066,6.25165c-2.00476,0 -3.66684,-0.65946 -4.98575,-1.9784c-1.26616,-1.3189 -1.89886,-2.98096 -1.89886,-4.98575c0,-2.00474 0.6327,-3.64003 1.89886,-4.9062c1.31891,-1.3189 2.98099,-1.97837 4.98575,-1.97837c2.21577,0 4.08876,-0.76491 5.61869,-2.29489c1.5827,-1.58269 2.37357,-3.4816 2.37357,-5.69738c0,-2.21579 -0.79087,-4.08878 -2.37357,-5.61871c-1.52993,-1.52997 -3.40292,-2.29489 -5.61869,-2.29489c-2.21579,0 -4.08876,0.76491 -5.61871,2.29489c-1.52995,1.52993 -2.29487,3.40292 -2.29487,5.61871v30.94178c0,2.00474 -0.65948,3.6668 -1.9784,4.98573c-1.02842,1.02842 -2.26862,1.64997 -3.71404,1.87649c-1.16914,0.85412 -2.55642,1.28826 -4.1697,1.28826h-0.31648c-5.27566,0 -9.70786,-1.79346 -13.29532,-5.38091c-3.58745,-3.58748 -5.38093,-8.01883 -5.38093,-13.2945v-23.58246c0,-1.31895 -0.47452,-2.42698 -1.42415,-3.32387c-0.89686,-0.9496 -2.00491,-1.42413 -3.32383,-1.42413c-1.42442,0 -2.5852,0.47453 -3.48206,1.42413v21.28762c0,2.00476 -0.65948,3.64005 -1.9784,4.90622c-1.31892,1.3189 -2.981,1.9784 -4.98575,1.9784c-2.00476,0 -3.666,-0.65951 -4.98492,-1.9784c-1.26616,-1.26617 -1.89969,-2.90146 -1.89969,-4.90622v-17.96375c0,-1.31895 -0.47452,-2.42698 -1.42415,-3.32387c-0.94963,-0.9496 -2.08362,-1.42413 -3.40253,-1.42413c-1.37168,0 -2.53246,0.44857 -3.48207,1.34545c-0.89687,0.89684 -1.34544,2.03084 -1.34544,3.40255v17.96375c0,2.00476 -0.65948,3.64005 -1.9784,4.90622c-1.26617,1.3189 -2.90146,1.9784 -4.90621,1.9784c-2.00476,0 -3.66684,-0.65951 -4.98575,-1.9784c-1.31891,-1.26617 -1.97839,-2.90146 -1.97839,-4.90622v-17.96375c0,-1.85969 0.30404,-3.57183 0.74976,-5.21523z" data-paper-data="{&quot;origPos&quot;:null}" id="path2028" fill="#00cbfe" stroke="none" stroke-width="1.23402" stroke-miterlimit="10"/><path d="M227.47473,171.05782c0.81874,-3.01871 2.30829,-5.71187 4.63116,-8.00057c3.58745,-3.58746 8.01966,-5.38094 13.29533,-5.38094c4.11503,0 7.80742,1.2135 11.07834,3.64032c3.21816,-2.42682 6.91138,-3.64032 11.07915,-3.64032c5.27568,0 9.6811,1.79347 13.21579,5.38094c1.56781,1.54476 2.72956,3.28654 3.61214,5.16387c-0.11593,-0.02068 -0.23204,-0.03543 -0.34796,-0.05627c-3.14742,-0.565 -6.29481,-1.13424 -9.44955,-1.55008c-1.57736,-0.20792 -3.157,-0.37754 -4.73886,-0.4888c-1.58187,-0.11126 -3.16647,-0.16417 -4.75461,-0.13916c-1.52584,0.02406 -3.04557,0.13215 -4.56157,0.30238c-1.51599,0.17024 -3.02779,0.40229 -4.53671,0.67355c-3.01785,0.54255 -6.02423,1.24271 -9.03035,1.91875c-1.50306,0.33803 -3.00678,0.66973 -4.51104,0.97344c-1.50426,0.30371 -3.00943,0.5793 -4.51766,0.80365c-1.50822,0.2243 -3.01928,0.39734 -4.53423,0.49705c-1.51494,0.09972 -3.03382,0.12617 -4.55825,0.05627c-0.46122,-0.02116 -0.91305,-0.11046 -1.37112,-0.15407z" data-paper-data="{&quot;origPos&quot;:null}" id="path2026" fill="#66e0ff" stroke="none" stroke-width="1.23402" stroke-miterlimit="10"/><path d="M211.66333,164.56093c0,-2.00476 0.65948,-3.64005 1.9784,-4.9062c1.31892,-1.31891 2.981,-1.9784 4.98575,-1.9784c2.00476,0 3.64005,0.65949 4.90621,1.9784c1.31891,1.26615 1.9784,2.90144 1.9784,4.9062v6.2765c-0.16187,-0.02581 -0.32725,-0.02661 -0.4888,-0.05467c-1.26344,-0.21935 -2.51712,-0.50736 -3.76458,-0.84089c-2.49493,-0.66702 -4.96435,-1.51623 -7.43388,-2.36198c-0.71797,-0.24588 -1.44286,-0.44022 -2.16149,-0.681z" data-paper-data="{&quot;origPos&quot;:null}" id="path2024" fill="#66e0ff" stroke="none" stroke-width="1.23402" stroke-miterlimit="10"/><path d="M188.2391,164.81444c0.1726,-0.02421 0.34254,-0.06685 0.51448,-0.09026c1.84293,-0.25077 3.64503,-0.45005 5.34116,-0.57414c1.69612,-0.12422 3.28694,-0.17314 4.70655,-0.12264c1.09541,0.03899 2.17715,0.17537 3.25589,0.33553c0.00505,0.12144 0.03065,0.23216 0.03065,0.35625v17.72681c0,1.37171 0.44858,2.53162 1.34544,3.48122c0.94963,0.89689 2.1104,1.34546 3.48208,1.34546c1.37168,0 2.50567,-0.44857 3.40253,-1.34546c0.89687,-0.9496 1.34544,-2.10951 1.34544,-3.48122v-15.54711c0.71863,0.24078 1.44351,0.43512 2.16149,0.681c2.46953,0.84575 4.93895,1.69496 7.43388,2.36198c1.24747,0.33353 2.50115,0.62154 3.76458,0.84089c0.16155,0.02806 0.32693,0.02886 0.4888,0.05467v11.60857c0,5.27567 -1.79347,9.70706 -5.38093,13.2945c-3.53469,3.58743 -7.94011,5.38094 -13.21579,5.38094c-5.32843,0 -9.78657,-1.76754 -13.37404,-5.30222c-3.53469,-3.58748 -5.30222,-8.04479 -5.30222,-13.37322v-17.63155z" data-paper-data="{&quot;origPos&quot;:null}" id="path2022" fill="#00cbfe" stroke="none" stroke-width="1.23402" stroke-miterlimit="10"/><path d="M188.2391,164.71918c0,-2.00476 0.63353,-3.666 1.89969,-4.98492c1.31892,-1.31891 2.98099,-1.9784 4.98574,-1.9784c2.00476,0 3.666,0.65949 4.98492,1.9784c1.2373,1.23728 1.87117,2.78787 1.94774,4.62867c-1.07874,-0.16022 -2.16049,-0.29657 -3.2559,-0.33553c-1.41962,-0.0505 -3.01043,-0.0016 -4.70655,0.12264c-1.69613,0.12417 -3.49823,0.32336 -5.34116,0.57414c-0.17194,0.02341 -0.34188,0.06605 -0.51448,0.09026z" data-paper-data="{&quot;origPos&quot;:null}" id="path2020" fill="#66e0ff" stroke="none" stroke-width="1.23402" stroke-miterlimit="10"/><path d="M187.19937,182.20824c0,5.38116 -1.8462,9.918 -5.53917,13.61097c-3.64021,3.64021 -8.15108,5.46044 -13.53226,5.46044c-5.38119,0 -9.89206,-1.82023 -13.53227,-5.46044c-3.64022,-3.69297 -5.46046,-8.22981 -5.46046,-13.61097c0,-2.00479 0.65947,-3.64008 1.97839,-4.90622c1.31891,-1.31893 2.98099,-1.9784 4.98575,-1.9784c2.00475,0 3.64005,0.65947 4.90621,1.9784c1.31892,1.26614 1.9784,2.90142 1.9784,4.90622c0,1.47715 0.47535,2.71661 1.42497,3.71897c1.00237,1.00243 2.24182,1.50371 3.71901,1.50371c1.47719,0 2.71664,-0.50129 3.71901,-1.50371c1.00238,-1.00236 1.50367,-2.24182 1.50367,-3.71897v-14.57284c1.48403,-0.33661 2.65586,-0.63009 4.37268,-0.9834c3.00241,-0.6179 6.27873,-1.17889 9.47607,-1.65613z" data-paper-data="{&quot;origPos&quot;:null}" id="path2018" fill="#00cbfe" stroke="none" stroke-width="1.23402" stroke-miterlimit="10"/><path d="M185.22097,143.4324c1.31892,1.26617 1.9784,2.90147 1.9784,4.90622v16.65726c-3.19733,0.47724 -6.47366,1.03823 -9.47607,1.65613c-1.71683,0.35331 -2.88865,0.64679 -4.37268,0.9834v-19.29679c0,-2.00474 0.63353,-3.64005 1.89969,-4.90622c1.31893,-1.31891 2.98017,-1.97839 4.98493,-1.97839c2.00476,0 3.66683,0.65947 4.98574,1.97839z" data-paper-data="{&quot;origPos&quot;:null}" id="path1700" fill="#66e0ff" stroke="none" stroke-width="1.23402" stroke-miterlimit="10"/></g></g></svg>