<svg version="1.1" xmlns="http://www.w3.org/2000/svg" xmlns:xlink="http://www.w3.org/1999/xlink" width="6.4399" height="6.43991"><defs><radialGradient cx="240.28095" cy="180.11349" r="3.21995" fx="240.28095" fy="180.11349" gradientUnits="userSpaceOnUse" id="color-1"><stop offset="0" stop-color="#ffffff" stop-opacity="0"/><stop offset="0.79374" stop-color="#ffffff" stop-opacity="0.2"/><stop offset="0.89468" stop-color="#ffffff" stop-opacity="0.2"/><stop offset="1" stop-color="#ffffff" stop-opacity="0.3"/></radialGradient><linearGradient x1="240.32401" y1="180.85949" x2="240.32401" y2="176.90604" gradientUnits="userSpaceOnUse" id="color-2"><stop offset="0" stop-color="#ffffff" stop-opacity="0"/><stop offset="0.49547" stop-color="#ffffff" stop-opacity="0.04459"/><stop offset="0.77547" stop-color="#ffffff" stop-opacity="0.2"/><stop offset="1" stop-color="#ffffff" stop-opacity="0.31"/></linearGradient><linearGradient x1="240.35158" y1="179.33099" x2="240.35158" y2="183.28444" gradientUnits="userSpaceOnUse" id="color-3"><stop offset="0" stop-color="#ffffff" stop-opacity="0"/><stop offset="0.49547" stop-color="#ffffff" stop-opacity="0.04459"/><stop offset="0.77547" stop-color="#ffffff" stop-opacity="0.2"/><stop offset="1" stop-color="#ffffff" stop-opacity="0.31"/></linearGradient></defs><g transform="translate(-237.061,-176.89354)"><g data-paper-data="{&quot;isPaintingLayer&quot;:true}" fill="none" fill-rule="nonzero" stroke="none" stroke-width="none" stroke-linecap="butt" stroke-linejoin="miter" stroke-miterlimit="10" stroke-dasharray="" stroke-dashoffset="0" font-family="none" font-weight="none" font-size="none" text-anchor="none" style="mix-blend-mode: normal"><g><path d="M237.061,180.11349c0,-1.77833 1.44162,-3.21995 3.21995,-3.21995c1.77833,0 3.21995,1.44162 3.21995,3.21995c0,1.77833 -1.44162,3.21995 -3.21995,3.21995c-1.77833,0 -3.21995,-1.44162 -3.21995,-3.21995z" id="path5051" fill="url(#color-1)" stroke-width="3.23729"/><path d="M237.58316,178.88276c0,-1.09858 1.20785,-1.98916 2.6978,-1.98916c1.48996,0 2.69779,0.89058 2.69779,1.98916c0,1.09858 -1.20784,1.98916 -2.69779,1.98916c-1.48996,0 -2.6978,-0.89058 -2.6978,-1.98916z" id="circle5371" fill="url(#color-2)" stroke-width="2.32901"/><path d="M240.30854,179.31855c1.48996,0 2.6978,0.89058 2.6978,1.98916c0,1.09858 -1.20785,1.98916 -2.6978,1.98916c-1.48996,0 -2.69779,-0.89058 -2.69779,-1.98916c0,-1.09858 1.20784,-1.98916 2.69779,-1.98916z" id="circle5371-12" fill="url(#color-3)" stroke-width="2.32901"/></g></g></g></svg>