<svg version="1.1" xmlns="http://www.w3.org/2000/svg" xmlns:xlink="http://www.w3.org/1999/xlink" width="35.55393" height="48.94912"><defs><radialGradient cx="221.31836" cy="167.64796" r="4.04734" fx="221.31836" fy="167.64796" gradientUnits="userSpaceOnUse" id="color-1"><stop offset="0" stop-color="#ffffff" stop-opacity="0"/><stop offset="0.79374" stop-color="#ffffff" stop-opacity="0.2"/><stop offset="0.89468" stop-color="#ffffff" stop-opacity="0.2"/><stop offset="1" stop-color="#ffffff" stop-opacity="0.3"/></radialGradient><linearGradient x1="221.37248" y1="167.64293" x2="221.37248" y2="162.67361" gradientUnits="userSpaceOnUse" id="color-2"><stop offset="0" stop-color="#ffffff" stop-opacity="0"/><stop offset="0.49547" stop-color="#ffffff" stop-opacity="0.04459"/><stop offset="0.77547" stop-color="#ffffff" stop-opacity="0.2"/><stop offset="1" stop-color="#ffffff" stop-opacity="0.31"/></linearGradient><linearGradient x1="221.40713" y1="166.66439" x2="221.40713" y2="171.63371" gradientUnits="userSpaceOnUse" id="color-3"><stop offset="0" stop-color="#ffffff" stop-opacity="0"/><stop offset="0.49547" stop-color="#ffffff" stop-opacity="0.04459"/><stop offset="0.77547" stop-color="#ffffff" stop-opacity="0.2"/><stop offset="1" stop-color="#ffffff" stop-opacity="0.31"/></linearGradient><radialGradient cx="242.8009" cy="166.07676" r="4.04734" fx="242.8009" fy="166.07676" gradientUnits="userSpaceOnUse" id="color-4"><stop offset="0" stop-color="#ffffff" stop-opacity="0"/><stop offset="0.79374" stop-color="#ffffff" stop-opacity="0.2"/><stop offset="0.89468" stop-color="#ffffff" stop-opacity="0.2"/><stop offset="1" stop-color="#ffffff" stop-opacity="0.3"/></radialGradient><linearGradient x1="242.85502" y1="167.01445" x2="242.85502" y2="162.04513" gradientUnits="userSpaceOnUse" id="color-5"><stop offset="0" stop-color="#ffffff" stop-opacity="0"/><stop offset="0.49547" stop-color="#ffffff" stop-opacity="0.04459"/><stop offset="0.77547" stop-color="#ffffff" stop-opacity="0.2"/><stop offset="1" stop-color="#ffffff" stop-opacity="0.31"/></linearGradient><linearGradient x1="242.88968" y1="165.09319" x2="242.88968" y2="170.06251" gradientUnits="userSpaceOnUse" id="color-6"><stop offset="0" stop-color="#ffffff" stop-opacity="0"/><stop offset="0.49547" stop-color="#ffffff" stop-opacity="0.04459"/><stop offset="0.77547" stop-color="#ffffff" stop-opacity="0.2"/><stop offset="1" stop-color="#ffffff" stop-opacity="0.31"/></linearGradient><radialGradient cx="234.28763" cy="154.33565" r="4.04734" fx="234.28763" fy="154.33565" gradientUnits="userSpaceOnUse" id="color-7"><stop offset="0" stop-color="#ffffff" stop-opacity="0"/><stop offset="0.79374" stop-color="#ffffff" stop-opacity="0.2"/><stop offset="0.89468" stop-color="#ffffff" stop-opacity="0.2"/><stop offset="1" stop-color="#ffffff" stop-opacity="0.3"/></radialGradient><linearGradient x1="234.34175" y1="155.27334" x2="234.34175" y2="150.30402" gradientUnits="userSpaceOnUse" id="color-8"><stop offset="0" stop-color="#ffffff" stop-opacity="0"/><stop offset="0.49547" stop-color="#ffffff" stop-opacity="0.04459"/><stop offset="0.77547" stop-color="#ffffff" stop-opacity="0.2"/><stop offset="1" stop-color="#ffffff" stop-opacity="0.31"/></linearGradient><linearGradient x1="234.37641" y1="153.35208" x2="234.37641" y2="158.3214" gradientUnits="userSpaceOnUse" id="color-9"><stop offset="0" stop-color="#ffffff" stop-opacity="0"/><stop offset="0.49547" stop-color="#ffffff" stop-opacity="0.04459"/><stop offset="0.77547" stop-color="#ffffff" stop-opacity="0.2"/><stop offset="1" stop-color="#ffffff" stop-opacity="0.31"/></linearGradient><radialGradient cx="220.26835" cy="152.17901" r="4.04734" fx="220.26835" fy="152.17901" gradientUnits="userSpaceOnUse" id="color-10"><stop offset="0" stop-color="#ffffff" stop-opacity="0"/><stop offset="0.79374" stop-color="#ffffff" stop-opacity="0.2"/><stop offset="0.89468" stop-color="#ffffff" stop-opacity="0.2"/><stop offset="1" stop-color="#ffffff" stop-opacity="0.3"/></radialGradient><linearGradient x1="220.32247" y1="153.1167" x2="220.32247" y2="148.14738" gradientUnits="userSpaceOnUse" id="color-11"><stop offset="0" stop-color="#ffffff" stop-opacity="0"/><stop offset="0.49547" stop-color="#ffffff" stop-opacity="0.04459"/><stop offset="0.77547" stop-color="#ffffff" stop-opacity="0.2"/><stop offset="1" stop-color="#ffffff" stop-opacity="0.31"/></linearGradient><linearGradient x1="220.35713" y1="151.19544" x2="220.35713" y2="156.16477" gradientUnits="userSpaceOnUse" id="color-12"><stop offset="0" stop-color="#ffffff" stop-opacity="0"/><stop offset="0.49547" stop-color="#ffffff" stop-opacity="0.04459"/><stop offset="0.77547" stop-color="#ffffff" stop-opacity="0.2"/><stop offset="1" stop-color="#ffffff" stop-opacity="0.31"/></linearGradient></defs><g transform="translate(-216.22099,-148.13167)"><g data-paper-data="{&quot;isPaintingLayer&quot;:true}" fill="none" fill-rule="nonzero" stroke="none" stroke-width="none" stroke-linecap="butt" stroke-linejoin="miter" stroke-miterlimit="10" stroke-dasharray="" stroke-dashoffset="0" font-family="none" font-weight="none" font-size="none" text-anchor="none" style="mix-blend-mode: normal"><path d="M228.94359,180.35807v-16.7222l13.64072,10.99119l8.91119,7.9766l-9.32131,0.77863l4.45791,10.58107l-5.29157,2.72295l-5.03957,-10.28321l-6.94726,5.67372z" data-paper-data="{&quot;origPos&quot;:null}" id="path9427" fill="#fefefe" stroke-width="1"/><path d="M240.86709,196.99494c-0.31936,-0.14006 -0.44238,-0.33379 -1.02531,-1.61477c-0.58536,-1.28632 -0.78134,-1.71919 -1.09508,-2.41878c-0.19789,-0.44127 -0.45871,-1.0144 -0.5796,-1.27364c-0.12089,-0.25924 -0.21979,-0.47993 -0.21979,-0.49043c0,-0.0105 -0.13292,-0.30274 -0.29537,-0.64942c-0.16246,-0.34668 -0.55752,-1.21297 -0.87792,-1.9251c-0.3204,-0.71213 -0.60372,-1.29531 -0.62962,-1.29597c-0.02589,-0.00066 -0.22609,0.1932 -0.44489,0.43079c-0.2188,0.2376 -0.67459,0.72045 -1.01287,1.07301c-0.33828,0.35256 -1.32812,1.40176 -2.19964,2.33155c-0.94075,1.00365 -1.66751,1.73283 -1.78867,1.79464c-0.49014,0.25005 -1.07484,0.18845 -1.45286,-0.15306c-0.41864,-0.37821 -0.38397,0.91416 -0.383,-14.27802c0.00073,-11.4127 0.01361,-13.74562 0.07743,-14.01688c0.08595,-0.3653 0.32392,-0.66082 0.63919,-0.79375c0.22636,-0.09544 0.9619,-0.09867 1.2176,-0.00534c0.15429,0.05632 0.7715,0.57535 3.68802,3.1014c2.23954,1.9397 9.74599,8.43723 10.43019,9.0283c1.32458,1.14428 1.89135,1.63532 2.8672,2.48405c0.49348,0.4292 1.26051,1.09305 1.70451,1.47522c1.73745,1.49549 2.11976,1.85112 2.20227,2.04859c0.1061,0.25395 0.10795,0.99979 0.00308,1.24915c-0.14867,0.35353 -0.52828,0.61828 -0.98003,0.68349c-0.13796,0.01992 -1.11621,0.06168 -2.17389,0.0928c-1.05768,0.03113 -2.66301,0.07952 -3.5674,0.10755c-0.90439,0.02802 -1.71333,0.05223 -1.79764,0.05378c-0.09494,0.00176 -0.15329,0.03338 -0.15329,0.08309c0,0.08048 0.44585,1.08369 1.79748,4.04455c0.39886,0.87374 0.88227,1.93978 1.07424,2.36898c0.35514,0.794 0.47039,1.04749 0.83628,1.83944c0.58937,1.27565 0.64002,1.54139 0.39439,2.06893c-0.20286,0.43568 -0.33449,0.51586 -2.22943,1.35813c-0.40165,0.17853 -1.11907,0.50507 -1.59426,0.72566c-0.47519,0.22058 -0.97685,0.43596 -1.11481,0.47861c-0.31639,0.09782 -1.08725,0.09397 -1.3165,-0.00657zM242.89613,195.27472c0.69644,-0.31859 1.65504,-0.75447 2.13023,-0.96863c0.47519,-0.21416 0.87122,-0.42559 0.88008,-0.46984c0.01308,-0.06537 -0.6099,-1.48841 -1.5325,-3.50061c-0.07731,-0.16862 -0.70392,-1.54575 -1.39246,-3.0603c-0.68854,-1.51455 -1.33783,-2.93978 -1.44286,-3.16716c-0.30639,-0.66332 -0.31307,-0.80962 -0.05118,-1.12086c0.18375,-0.21837 0.25339,-0.22619 2.56346,-0.28771c4.83344,-0.12872 6.30653,-0.17861 6.40541,-0.21693c0.08788,-0.03406 -0.25638,-0.35507 -1.95092,-1.81914c-1.1317,-0.97778 -2.32101,-2.00599 -2.64291,-2.2849c-0.77273,-0.66954 -5.62164,-4.8601 -7.10693,-6.14201c-0.6438,-0.55564 -2.81337,-2.42967 -4.82127,-4.1645c-2.00789,-1.73483 -3.67913,-3.15423 -3.71387,-3.15423c-0.08321,0 -0.14592,10.17282 -0.12213,19.81205l0.01747,7.07531l2.0624,-2.19758c3.64325,-3.88205 3.77927,-4.02269 3.96594,-4.10068c0.21478,-0.08974 0.41406,-0.03354 0.63783,0.17988c0.09358,0.08925 0.94788,1.90524 2.42388,5.15246c1.31985,2.9037 2.30982,5.01463 2.35173,5.01463c0.0398,0 0.64218,-0.26066 1.33862,-0.57925z" id="path9425" fill="#d0d0d0" stroke-width="1"/><path d="M240.89742,196.96689c-0.10957,-0.05568 -0.26626,-0.18911 -0.34818,-0.29652c-0.08193,-0.10741 -1.07965,-2.24764 -2.21716,-4.75607c-1.13751,-2.50843 -2.09865,-4.59284 -2.13585,-4.63204c-0.06772,-0.07133 -0.1665,0.02883 -2.81565,2.85505c-1.65456,1.76515 -2.43817,2.58088 -2.58251,2.68835c-0.21964,0.16353 -0.65782,0.2618 -0.96319,0.21601c-0.32025,-0.04803 -0.68267,-0.32238 -0.85351,-0.64613l-0.13104,-0.24831l0.0287,-13.68433c0.01775,-8.46146 0.0492,-13.77613 0.08241,-13.92484c0.0661,-0.29602 0.3121,-0.61176 0.60168,-0.77226c0.16381,-0.09079 0.31805,-0.12204 0.619,-0.12542c0.22046,-0.00247 0.41633,0.02059 0.43528,0.05125c0.01895,0.03066 0.07967,0.05574 0.13495,0.05574c0.10592,0 0.19827,0.07758 3.71713,3.12274c6.75255,5.84353 12.75287,11.03904 13.51462,11.70191c0.4771,0.41518 1.47232,1.2773 2.21159,1.91582c1.52211,1.31468 1.5753,1.3833 1.5753,2.03262c0,0.32409 -0.02392,0.4176 -0.1629,0.63674c-0.17821,0.281 -0.52968,0.5186 -0.84044,0.56813c-0.1073,0.0171 -1.90076,0.08418 -3.98546,0.14906c-2.0847,0.06488 -3.81004,0.13639 -3.83408,0.15891c-0.04907,0.04596 -0.12304,-0.12164 2.3141,5.2433c0.98184,2.16135 1.81955,4.02693 1.8616,4.14575c0.10538,0.29782 0.09368,0.68821 -0.02869,0.95763c-0.21008,0.46252 -0.27498,0.49724 -4.33657,2.32037c-0.80864,0.36298 -0.86463,0.37967 -1.25416,0.37386c-0.27353,-0.00408 -0.47331,-0.03939 -0.60696,-0.10731zM243.80318,194.92502c1.78393,-0.80922 2.17076,-1.00417 2.17076,-1.09395c0,-0.09711 -0.564,-1.36772 -2.03401,-4.58236c-1.42438,-3.11484 -2.53582,-5.59212 -2.56606,-5.71944c-0.05406,-0.22766 0.10566,-0.54257 0.31997,-0.63084c0.18505,-0.07622 0.8955,-0.10473 6.45399,-0.25902c1.21097,-0.03361 2.25986,-0.07244 2.33087,-0.08628c0.07504,-0.01462 0.12173,-0.0583 0.11148,-0.10427c-0.0097,-0.04351 -1.24672,-1.14023 -2.74893,-2.43715c-1.50221,-1.29692 -3.22042,-2.78068 -3.81824,-3.29724c-0.59782,-0.51656 -1.68665,-1.45697 -2.41962,-2.08979c-1.98899,-1.71723 -2.70215,-2.33359 -7.13591,-6.16725c-2.23374,-1.93141 -4.11,-3.54592 -4.16945,-3.58779c-0.06344,-0.04468 -0.12866,-0.05556 -0.15788,-0.02635c-0.04767,0.04767 -0.16203,26.68905 -0.11549,26.90249c0.04684,0.21478 -0.17181,0.43592 4.28775,-4.33653c1.77,-1.89419 1.74102,-1.86731 2.01337,-1.86731c0.16949,0 0.26775,0.03844 0.39181,0.15329c0.12267,0.11357 0.63681,1.19328 1.98405,4.16662c1.89703,4.18671 2.62546,5.7857 2.71071,5.95031c0.02778,0.05365 0.08866,0.09755 0.13529,0.09755c0.04663,0 1.06162,-0.44311 2.25554,-0.9847z" id="path9423" fill="#afafaf" stroke-width="1"/><path d="M240.95729,196.96824c-0.39381,-0.20161 -0.39991,-0.21248 -1.56505,-2.78649c-2.61657,-5.78049 -3.15584,-6.94027 -3.23403,-6.95533c-0.0491,-0.00946 -0.35275,0.27369 -0.72248,0.67371c-0.35078,0.37951 -1.20216,1.28763 -1.89195,2.01805c-0.68979,0.73041 -1.5751,1.67266 -1.96735,2.09388c-0.40784,0.43795 -0.80161,0.8085 -0.91972,0.86547c-0.31948,0.15411 -0.83747,0.1697 -1.10298,0.03319c-0.25731,-0.1323 -0.47364,-0.35513 -0.60072,-0.61878c-0.08356,-0.17337 -0.09152,-0.94462 -0.09234,-8.94638c-0.00101,-9.88798 0.0843,-18.6946 0.1836,-18.95417c0.16626,-0.43457 0.6451,-0.75552 1.1272,-0.75552c0.34745,0 0.6764,0.1476 1.05907,0.47522c0.45306,0.38787 1.4795,1.27549 5.18705,4.48548c1.92967,1.67071 4.93824,4.27553 6.68571,5.7885c1.74747,1.51297 3.59109,3.10917 4.09694,3.54712c4.88124,4.22601 4.57073,3.91767 4.57073,4.53882c0,0.51926 -0.28515,0.95548 -0.7525,1.1512c-0.17319,0.07253 -1.52283,0.13619 -5.23962,0.24717c-2.67937,0.08 -2.81217,0.08669 -2.86907,0.14454c-0.02978,0.03028 0.22695,0.66084 0.63345,1.5559c2.85788,6.29254 3.54862,7.83615 3.60944,8.06609c0.05951,0.22496 0.05577,0.30449 -0.02616,0.55741c-0.10634,0.32825 -0.19701,0.45295 -0.48368,0.66528c-0.1073,0.07947 -1.18588,0.58888 -2.39685,1.13201c-1.21097,0.54313 -2.24531,1.01049 -2.29855,1.03859c-0.16302,0.08602 -0.77688,0.04823 -0.99015,-0.06095zM243.76735,194.97484c1.19297,-0.5435 2.19355,-1.02793 2.22353,-1.07651c0.0514,-0.08331 -0.17629,-0.60851 -1.9674,-4.53815c-2.56154,-5.61993 -2.63283,-5.78478 -2.60178,-6.01625c0.01953,-0.14558 0.07962,-0.26889 0.16816,-0.34505c0.16158,-0.13898 0.42195,-0.15678 3.60374,-0.24625c4.53867,-0.12763 5.31186,-0.15915 5.3717,-0.21899c0.04293,-0.04293 0.04329,-0.0884 0.00123,-0.15653c-0.03261,-0.05281 -0.72183,-0.66917 -1.53162,-1.3697c-2.9337,-2.53788 -3.77246,-3.26324 -4.59381,-3.97279c-3.72372,-3.2168 -10.06818,-8.69888 -10.70221,-9.24749c-2.87913,-2.49125 -3.46126,-2.98073 -3.54484,-2.98073c-0.08388,0 -0.09738,0.12046 -0.12644,1.12875c-0.05857,2.03223 -0.09703,25.8953 -0.04179,25.92944c0.09597,0.05931 0.1977,-0.03306 1.09326,-0.99272c3.98474,-4.26998 4.94475,-5.26792 5.10065,-5.30216c0.21165,-0.04649 0.4374,0.06423 0.58841,0.28858c0.06553,0.09736 1.11786,2.37994 2.33852,5.0724c1.9819,4.37159 2.30243,5.03813 2.42052,5.03352c0.01713,-0.00067 1.00722,-0.4459 2.20019,-0.9894z" id="path9421" fill="#8f8f8f" stroke-width="1"/><path d="M241.01304,196.96792c-0.1073,-0.05511 -0.26533,-0.17421 -0.35119,-0.26467c-0.14158,-0.14919 -0.68127,-1.27308 -1.74299,-3.62974c-1.55764,-3.45744 -2.68098,-5.88259 -2.73245,-5.89903c-0.07481,-0.0239 -0.49637,0.41143 -3.69996,3.82085c-1.06965,1.13838 -1.71967,1.78702 -1.86659,1.86263c-0.283,0.14565 -0.81941,0.16123 -1.06268,0.03086c-0.24554,-0.13158 -0.46938,-0.37357 -0.59732,-0.64576c-0.11166,-0.23755 -0.11206,-0.29078 -0.07238,-9.67114c0.02195,-5.18775 0.05645,-11.37623 0.07668,-13.75217c0.04071,-4.78178 0.01345,-4.45946 0.40827,-4.82778c0.40642,-0.37915 0.83106,-0.45178 1.30423,-0.22309c0.17266,0.08345 1.39884,1.1063 3.29095,2.74523c1.65866,1.43672 4.19043,3.62809 5.62616,4.86971c1.43573,1.24162 2.81272,2.43496 3.05999,2.65187c0.24726,0.2169 2.30574,2.00067 4.57438,3.96392c2.26864,1.96325 4.16616,3.61687 4.2167,3.6747c0.47304,0.54128 0.42343,1.24374 -0.12073,1.70952c-0.12466,0.1067 -0.33221,0.22044 -0.46122,0.25274c-0.12901,0.0323 -1.18773,0.08687 -2.35271,0.12128c-1.16498,0.0344 -2.74523,0.08586 -3.51166,0.11434c-0.76643,0.02848 -1.55107,0.05212 -1.74365,0.05254c-0.25992,0.00056 -0.35843,0.02237 -0.38234,0.08469c-0.01802,0.04696 0.90836,2.15288 2.1026,4.77976c2.39438,5.26678 2.31389,5.04304 2.02014,5.61554c-0.10383,0.20236 -0.23309,0.35527 -0.38027,0.44984c-0.12263,0.0788 -1.21375,0.58818 -2.42472,1.13196c-1.21097,0.54378 -2.24531,1.01233 -2.29855,1.04122c-0.15488,0.08406 -0.66633,0.04924 -0.87867,-0.05981zM243.80157,194.99032c1.17948,-0.53632 2.17481,-1.01625 2.21183,-1.0665c0.08314,-0.11285 0.36631,0.54076 -2.32735,-5.37187c-2.43087,-5.3358 -2.38595,-5.21758 -2.09369,-5.50985l0.1474,-0.1474l1.96381,-0.06308c1.0801,-0.03469 3.05493,-0.09492 4.38853,-0.13383c1.37296,-0.04006 2.45494,-0.09433 2.4944,-0.12512c0.03832,-0.0299 0.06968,-0.08778 0.06968,-0.12862c0,-0.04084 -1.19773,-1.10952 -2.66162,-2.37484c-1.46389,-1.26532 -4.14153,-3.57925 -5.95031,-5.14205c-1.80878,-1.5628 -4.29203,-3.70918 -5.51833,-4.76974c-5.26264,-4.55136 -6.0825,-5.25672 -6.20449,-5.33808c-0.29401,-0.19606 -0.27493,-0.97171 -0.33227,13.50419c-0.02927,7.38843 -0.04143,13.46485 -0.02703,13.50318c0.01441,0.03832 0.07111,0.06968 0.126,0.06968c0.05967,0 1.08214,-1.04809 2.54219,-2.60587c3.26806,-3.48682 3.47208,-3.69282 3.65726,-3.69282c0.25111,0 0.41633,0.11252 0.56209,0.38278c0.11425,0.21184 4.1019,8.95344 4.44678,9.74809c0.07845,0.18077 0.13336,0.2369 0.23172,0.2369c0.07089,0 1.09393,-0.43881 2.27341,-0.97513z" id="path9419" fill="#6f6f6f" stroke-width="1"/><path d="M241.00043,196.92149c-0.14489,-0.08273 -0.32417,-0.23272 -0.39838,-0.33331c-0.07421,-0.10059 -1.06952,-2.24462 -2.2118,-4.76452c-1.14228,-2.5199 -2.11158,-4.61925 -2.154,-4.66524c-0.08885,-0.09631 -0.08826,-0.09689 -2.24759,2.20122c-3.5311,3.75805 -3.34817,3.59218 -3.96417,3.59458c-0.26404,0.00103 -0.35657,-0.0277 -0.57954,-0.17993c-0.14883,-0.10162 -0.3168,-0.2789 -0.38255,-0.40378c-0.06447,-0.12244 -0.13889,-0.23856 -0.16537,-0.25804c-0.02695,-0.01983 -0.03125,-3.1 -0.00976,-6.9958c0.02112,-3.8282 0.05533,-10.02053 0.07602,-13.76073l0.03763,-6.80036l0.15524,-0.26408c0.14893,-0.25336 0.48992,-0.54416 0.63807,-0.54416c0.03887,0 0.07067,-0.02508 0.07067,-0.05574c0,-0.11867 0.4941,-0.05621 0.7965,0.10069c0.16753,0.08692 0.91823,0.69115 1.68949,1.35985c0.76339,0.66188 3.57023,3.09237 6.23743,5.40109c2.66719,2.30872 6.34189,5.48972 8.16601,7.0689c1.82411,1.57918 3.50469,3.0324 3.73462,3.22938c0.99608,0.85335 1.28204,1.21496 1.28204,1.62125c0,0.39701 -0.30444,0.84816 -0.71301,1.05659c-0.21347,0.1089 -0.4214,0.12107 -3.92282,0.22949c-2.03357,0.06297 -3.83536,0.13249 -4.00397,0.15449c-0.26157,0.03413 -0.30498,0.05637 -0.29572,0.15148c0.00597,0.06131 0.95117,2.18183 2.10045,4.71227c1.14927,2.53043 2.11837,4.71509 2.15355,4.8548c0.10643,0.42267 -0.09927,0.93479 -0.47799,1.19001c-0.09244,0.06229 -1.15788,0.56125 -2.36765,1.1088c-1.20977,0.54755 -2.27242,1.0302 -2.36144,1.07256c-0.2502,0.11905 -0.58453,0.08806 -0.88196,-0.08177zM242.99707,195.38798c0.70224,-0.31884 1.65305,-0.74894 2.11291,-0.95577c0.9279,-0.41734 0.97546,-0.44578 0.97546,-0.58332c0,-0.05294 -1.04096,-2.38489 -2.31324,-5.18212c-1.27228,-2.79723 -2.31324,-5.14512 -2.31324,-5.21754c0,-0.20362 0.10953,-0.39684 0.26517,-0.46775c0.09201,-0.04192 1.08756,-0.09267 2.85056,-0.14529c5.48052,-0.1636 5.98777,-0.18665 6.07728,-0.27615c0.07299,-0.07299 0.06993,-0.09865 -0.02627,-0.22029c-0.05989,-0.07572 -1.25017,-1.12185 -2.64508,-2.32474c-1.39491,-1.20288 -3.19053,-2.7528 -3.99026,-3.44427c-0.79974,-0.69146 -2.25241,-1.947 -3.22817,-2.79008c-1.82098,-1.57337 -2.21584,-1.91481 -7.3486,-6.35444c-1.64813,-1.42557 -3.05824,-2.61564 -3.13358,-2.64461c-0.09633,-0.03704 -0.15756,-0.03208 -0.20636,0.01671c-0.05472,0.05471 -0.07893,2.91559 -0.11454,13.53657c-0.04101,12.23336 -0.03709,13.47526 0.04285,13.5552c0.06248,0.06248 0.11256,0.07211 0.17267,0.0332c0.04657,-0.03014 1.37718,-1.43438 2.95691,-3.12053c1.57974,-1.68616 2.9411,-3.09941 3.02526,-3.14055c0.22628,-0.11064 0.52339,0.02662 0.66562,0.3075c0.05939,0.11728 1.09283,2.38295 2.29653,5.03481c1.2037,2.65186 2.2278,4.86688 2.27578,4.92227c0.0548,0.06326 0.13153,0.08958 0.20639,0.0708c0.06554,-0.01645 0.69372,-0.29078 1.39595,-0.60962z" id="path9417" fill="#4e4e4e" stroke-width="1"/><path d="M241.236,197.03299c0,-0.026 -0.10282,-0.09364 -0.22848,-0.15031c-0.12567,-0.05667 -0.28827,-0.18142 -0.36135,-0.27723c-0.15005,-0.19672 -0.08873,-0.06595 -1.72439,-3.67787c-2.63594,-5.82079 -2.62431,-5.79611 -2.73817,-5.81329c-0.07934,-0.01197 -0.74102,0.65674 -2.5095,2.5362c-3.14597,3.34338 -2.9167,3.11822 -3.28391,3.22497c-0.58035,0.16871 -1.04128,-0.04333 -1.35557,-0.6236l-0.17453,-0.32223l0.02061,-3.93241c0.06858,-13.08391 0.15764,-23.2973 0.2047,-23.47319c0.02925,-0.10933 0.13508,-0.29031 0.23517,-0.40219c0.20049,-0.22409 0.65899,-0.48598 0.85083,-0.48598c0.30962,0 0.8611,0.4116 2.77114,2.06826c1.08178,0.93827 3.7854,3.27961 6.00806,5.20298c2.22266,1.92337 4.6432,4.01904 5.37897,4.65705c1.20757,1.0471 5.33518,4.61774 6.56641,5.68035c0.51785,0.44693 0.87497,0.94486 0.87497,1.21997c0,0.40523 -0.4722,0.98567 -0.91019,1.11881c-0.09722,0.02955 -0.72859,0.06783 -1.40305,0.08506c-1.7305,0.04421 -4.80796,0.14558 -5.79639,0.19093c-0.9748,0.04473 -0.96696,0.03834 -0.72174,0.5873c0.08424,0.18859 1.04105,2.29938 2.12624,4.69066c1.08519,2.39127 1.98687,4.44837 2.00374,4.57131c0.04506,0.32847 -0.07,0.67715 -0.30517,0.92479c-0.17023,0.17926 -0.54232,0.36905 -2.18398,1.114c-1.08834,0.49386 -2.09167,0.9478 -2.22963,1.00874c-0.13796,0.06094 -0.35281,0.15882 -0.47746,0.2175c-0.22961,0.1081 -0.63735,0.14611 -0.63735,0.05942zM243.83958,195.04257c1.18924,-0.53824 2.19372,-1.01978 2.23218,-1.07008c0.03847,-0.0503 0.05426,-0.14294 0.03509,-0.20586c-0.01917,-0.06292 -1.06024,-2.36929 -2.3135,-5.12527c-1.74012,-3.8266 -2.27865,-5.06163 -2.27865,-5.22568c0,-0.25979 0.14038,-0.42035 0.40101,-0.45866c0.10135,-0.0149 1.17506,-0.05416 2.38602,-0.08725c4.70365,-0.12852 6.164,-0.18194 6.28476,-0.22988c0.24238,-0.09623 0.15671,-0.27565 -0.33461,-0.70084c-1.2656,-1.09525 -2.83437,-2.4507 -4.05549,-3.50402c-0.74636,-0.6438 -1.72255,-1.48722 -2.16931,-1.87425c-0.44676,-0.38703 -2.681,-2.31754 -4.96497,-4.29002c-4.76686,-4.11675 -7.32827,-6.33187 -8.07363,-6.98213c-0.65936,-0.57523 -0.76055,-0.63899 -0.88728,-0.5591c-0.11629,0.07331 -0.09897,-1.36579 -0.17955,14.91869c-0.04329,8.74857 -0.04295,12.11407 0.00122,12.19661c0.04073,0.07611 0.10529,0.10826 0.19424,0.09672c0.09316,-0.01208 0.83213,-0.76337 2.45679,-2.49774c3.72463,-3.97613 3.5412,-3.79037 3.74249,-3.79037c0.10312,0 0.23335,0.05169 0.31597,0.12542c0.09322,0.08319 0.90318,1.80518 2.40554,5.11421c1.24575,2.74383 2.29065,5.02014 2.32199,5.05847c0.03134,0.03832 0.11559,0.06968 0.18721,0.06968c0.07163,0 1.10324,-0.44038 2.29248,-0.97862z" id="path9415" fill="#2e2e2e" stroke-width="1"/><path d="M241.18025,196.9401c-0.44324,-0.29677 -0.57783,-0.45001 -0.78185,-0.89016c-0.1139,-0.24573 -0.75279,-1.65079 -1.41976,-3.12235c-0.66697,-1.47155 -1.52556,-3.36534 -1.90799,-4.20842c-0.38243,-0.84308 -0.72095,-1.56422 -0.75228,-1.60254c-0.16135,-0.1974 -0.06543,-0.29122 -4.16892,4.07749c-0.89748,0.95549 -1.4427,1.49244 -1.58861,1.56454c-0.14017,0.06926 -0.33754,0.11005 -0.53483,0.11055c-0.42395,0.00107 -0.7149,-0.19774 -0.92433,-0.63161c-0.08319,-0.17234 -0.172,-0.32783 -0.19736,-0.34553c-0.04733,-0.03305 -0.04429,-0.38392 0.06333,-7.2977c0.0346,-2.22266 0.08132,-7.65507 0.10382,-12.07202l0.04092,-8.03082l0.15044,-0.22724c0.09812,-0.14821 0.25321,-0.27885 0.44593,-0.37563c0.16251,-0.08161 0.33791,-0.17709 0.38976,-0.21217c0.07355,-0.04976 0.11645,-0.0444 0.19509,0.02437c0.05545,0.04849 0.1886,0.1165 0.2959,0.15114c0.17873,0.0577 0.62155,0.41858 2.23473,1.8212c0.3191,0.27745 1.70892,1.48106 3.08851,2.6747c4.2133,3.64542 7.14846,6.18666 10.59505,9.17314c0.61552,0.53335 1.83197,1.58427 2.70323,2.33538c2.12252,1.82983 2.20581,1.91054 2.40465,2.33052c0.14321,0.30247 0.15598,0.36491 0.09124,0.44593c-0.04141,0.05181 -0.13634,0.21548 -0.21096,0.3637c-0.10177,0.20215 -0.20624,0.30997 -0.41806,0.43147c-0.27193,0.15597 -0.30921,0.16198 -1.00701,0.16217c-0.39854,0.00011 -1.289,0.02446 -1.97879,0.05411c-0.68979,0.02965 -2.15297,0.08383 -3.25151,0.1204c-2.08649,0.06946 -2.19849,0.08616 -2.11621,0.31568c0.01892,0.05276 0.35918,0.81081 0.75613,1.68454c0.39696,0.87374 1.00478,2.21569 1.35073,2.98213c0.34594,0.76643 0.97155,2.14515 1.39023,3.06382c0.41868,0.91867 0.77514,1.77176 0.79214,1.89576c0.017,0.124 0.00172,0.33382 -0.03394,0.46626c-0.12718,0.47232 -0.23107,0.53593 -2.70214,1.65456c-1.25493,0.5681 -2.33875,1.04722 -2.4085,1.06473c-0.06974,0.0175 -0.15599,0.06699 -0.19166,0.10997c-0.09243,0.11137 -0.27152,0.08902 -0.49713,-0.06203zM243.85581,195.0905c1.18031,-0.5326 2.19049,-1.02115 2.24485,-1.08568c0.06267,-0.07438 0.08572,-0.16037 0.06299,-0.23496c-0.03892,-0.12776 -1.24402,-2.79771 -2.78282,-6.16551c-0.65234,-1.42769 -0.68,-1.48841 -1.33129,-2.92159c-0.71853,-1.58115 -0.68375,-1.705 0.47876,-1.70476c0.34691,0.00006 1.27037,-0.02384 2.05213,-0.05314c0.78176,-0.0293 2.43726,-0.08259 3.67888,-0.11842c2.41879,-0.06981 2.50833,-0.08245 2.50833,-0.3543c0,-0.10507 -0.34802,-0.43354 -1.65828,-1.56514c-0.91206,-0.78769 -1.82133,-1.5751 -2.0206,-1.74981c-0.19927,-0.1747 -1.00194,-0.86914 -1.7837,-1.54321c-0.78176,-0.67406 -2.43526,-2.10254 -3.67443,-3.1744c-1.23917,-1.07186 -2.73365,-2.36271 -3.32106,-2.86855c-0.97796,-0.84216 -2.6204,-2.26127 -4.0969,-3.53981c-0.5976,-0.51748 -2.14943,-1.85899 -3.27447,-2.83068c-0.65208,-0.5632 -0.84406,-0.64991 -0.95986,-0.43354c-0.03804,0.07108 -0.05764,1.31049 -0.05751,3.63708c0.0001,1.94109 -0.02714,7.99797 -0.06054,13.45972c-0.04486,7.33385 -0.04439,9.961 0.00177,10.04725c0.04085,0.07632 0.11716,0.11679 0.22025,0.11679c0.13038,0 0.27748,-0.12777 0.84808,-0.73667c0.37969,-0.40517 1.67847,-1.79102 2.88618,-3.07967c1.20772,-1.28865 2.23465,-2.37435 2.28208,-2.41267c0.14053,-0.11353 0.39227,-0.08309 0.52851,0.06391c0.06809,0.07347 0.23948,0.39329 0.38086,0.71069c0.20137,0.45209 2.19679,4.84579 2.95813,6.51349c0.07698,0.16862 0.4109,0.90466 0.74205,1.63564c0.60589,1.33746 0.69112,1.46613 0.91798,1.38587c0.04599,-0.01627 1.04932,-0.46535 2.22963,-0.99795z" data-paper-data="{&quot;origPos&quot;:null}" id="path9413" fill="#020202" stroke-width="1"/><path d="M217.27101,167.64796c0,-2.23529 1.81206,-4.04734 4.04734,-4.04734c2.23529,0 4.04734,1.81206 4.04734,4.04734c0,2.23529 -1.81206,4.04734 -4.04734,4.04734c-2.23529,0 -4.04734,-1.81206 -4.04734,-4.04734z" data-paper-data="{&quot;origPos&quot;:null}" id="path5051" fill="url(#color-1)" stroke-width="3.23729"/><path d="M217.92735,165.15826c0,-1.38087 1.51822,-2.50029 3.39102,-2.50029c1.87282,0 3.39101,1.11942 3.39101,2.50029c0,1.38087 -1.51821,2.50029 -3.39101,2.50029c-1.87282,0 -3.39102,-1.11942 -3.39102,-2.50029z" data-paper-data="{&quot;origPos&quot;:null}" id="circle5371" fill="url(#color-2)" stroke-width="2.32901"/><path d="M221.35304,166.64875c1.87282,0 3.39102,1.11942 3.39102,2.50029c0,1.38087 -1.51822,2.50029 -3.39102,2.50029c-1.87282,0 -3.39101,-1.11942 -3.39101,-2.50029c0,-1.38087 1.51821,-2.50029 3.39101,-2.50029z" data-paper-data="{&quot;origPos&quot;:null}" id="circle5371-12" fill="url(#color-3)" stroke-width="2.32901"/><g data-paper-data="{&quot;origPos&quot;:null}"><path d="M238.75356,166.07676c0,-2.23529 1.81206,-4.04734 4.04734,-4.04734c2.23529,0 4.04734,1.81206 4.04734,4.04734c0,2.23529 -1.81206,4.04734 -4.04734,4.04734c-2.23529,0 -4.04734,-1.81206 -4.04734,-4.04734z" data-paper-data="{&quot;origPos&quot;:null}" id="path5051" fill="url(#color-4)" stroke-width="3.23729"/><path d="M239.40989,164.52978c0,-1.38087 1.51822,-2.50029 3.39102,-2.50029c1.87282,0 3.39101,1.11942 3.39101,2.50029c0,1.38087 -1.51821,2.50029 -3.39101,2.50029c-1.87282,0 -3.39102,-1.11942 -3.39102,-2.50029z" data-paper-data="{&quot;origPos&quot;:null}" id="circle5371" fill="url(#color-5)" stroke-width="2.32901"/><path d="M242.83558,165.07755c1.87282,0 3.39102,1.11942 3.39102,2.50029c0,1.38087 -1.51822,2.50029 -3.39102,2.50029c-1.87282,0 -3.39101,-1.11942 -3.39101,-2.50029c0,-1.38087 1.51821,-2.50029 3.39101,-2.50029z" data-paper-data="{&quot;origPos&quot;:null}" id="circle5371-12" fill="url(#color-6)" stroke-width="2.32901"/></g><g data-paper-data="{&quot;origPos&quot;:null}"><path d="M230.24028,154.33565c0,-2.23529 1.81206,-4.04734 4.04734,-4.04734c2.23529,0 4.04734,1.81206 4.04734,4.04734c0,2.23529 -1.81206,4.04734 -4.04734,4.04734c-2.23529,0 -4.04734,-1.81206 -4.04734,-4.04734z" data-paper-data="{&quot;origPos&quot;:null}" id="path5051" fill="url(#color-7)" stroke-width="3.23729"/><path d="M230.89662,152.78867c0,-1.38087 1.51822,-2.50029 3.39102,-2.50029c1.87282,0 3.39101,1.11942 3.39101,2.50029c0,1.38087 -1.51821,2.50029 -3.39101,2.50029c-1.87282,0 -3.39102,-1.11942 -3.39102,-2.50029z" data-paper-data="{&quot;origPos&quot;:null}" id="circle5371" fill="url(#color-8)" stroke-width="2.32901"/><path d="M234.32231,153.33644c1.87282,0 3.39102,1.11942 3.39102,2.50029c0,1.38087 -1.51822,2.50029 -3.39102,2.50029c-1.87282,0 -3.39101,-1.11942 -3.39101,-2.50029c0,-1.38087 1.51821,-2.50029 3.39101,-2.50029z" data-paper-data="{&quot;origPos&quot;:null}" id="circle5371-12" fill="url(#color-9)" stroke-width="2.32901"/></g><g data-paper-data="{&quot;origPos&quot;:null}"><path d="M216.221,152.17901c0,-2.23529 1.81206,-4.04734 4.04734,-4.04734c2.23529,0 4.04734,1.81206 4.04734,4.04734c0,2.23529 -1.81206,4.04734 -4.04734,4.04734c-2.23529,0 -4.04734,-1.81206 -4.04734,-4.04734z" data-paper-data="{&quot;origPos&quot;:null}" id="path5051" fill="url(#color-10)" stroke-width="3.23729"/><path d="M216.87734,150.63204c0,-1.38087 1.51822,-2.50029 3.39102,-2.50029c1.87282,0 3.39101,1.11942 3.39101,2.50029c0,1.38087 -1.51821,2.50029 -3.39101,2.50029c-1.87282,0 -3.39102,-1.11942 -3.39102,-2.50029z" data-paper-data="{&quot;origPos&quot;:null}" id="circle5371" fill="url(#color-11)" stroke-width="2.32901"/><path d="M220.30303,151.17981c1.87282,0 3.39102,1.11942 3.39102,2.50029c0,1.38087 -1.51822,2.50029 -3.39102,2.50029c-1.87282,0 -3.39101,-1.11942 -3.39101,-2.50029c0,-1.38087 1.51821,-2.50029 3.39101,-2.50029z" data-paper-data="{&quot;origPos&quot;:null}" id="circle5371-12" fill="url(#color-12)" stroke-width="2.32901"/></g></g></g></svg>