<svg version="1.1" xmlns="http://www.w3.org/2000/svg" xmlns:xlink="http://www.w3.org/1999/xlink" width="160.90935" height="29.29249" viewBox="0,0,160.90935,29.29249"><g transform="translate(-189.5,-167.74779)"><g data-paper-data="{&quot;isPaintingLayer&quot;:true}" fill="#65a3ff" fill-rule="nonzero" stroke="none" stroke-width="0.35275" stroke-linecap="butt" stroke-linejoin="miter" stroke-miterlimit="10" stroke-dasharray="" stroke-dashoffset="0" font-family="none" font-weight="none" font-size="none" text-anchor="none" style="mix-blend-mode: normal"><path d="M199.9274,175.37912c0,0 -0.16912,-6.45464 4.7071,-6.45464c0,0 3.83333,0.02819 4.48162,5.58087c0.62009,5.29901 0,9.837 0,9.837c0,0 -0.39461,4.96076 -4.48162,4.93259c-4.48162,-0.05637 -4.59436,-6.42645 -4.59436,-6.42645h-1.04289c0,0 -0.33824,6.34192 -4.76347,6.37008c0,0 -4.05881,0.22549 -4.53798,-5.3272c-0.53554,-6.48282 0.19731,-10.20342 0.19731,-10.20342c0,0 0.62009,-4.73529 4.28431,-4.73529c4.9044,0 4.67891,6.42645 4.67891,6.42645z" id="path7727"/><path d="M215.61657,173.88526c-1.91666,0.19731 -3.55146,-1.01471 -3.74877,-2.70588c-0.16912,-1.66298 1.21201,-3.21318 3.10049,-3.41054c1.86029,-0.19731 3.55146,1.01471 3.72059,2.70588c0.16912,1.663 -1.21201,3.21318 -3.0723,3.41054zM215.95481,189.58499c-3.18505,0.11274 -4.00244,-2.4522 -4.00244,-2.4522c-1.49387,-4.087 -0.11274,-9.16052 -0.11274,-9.16052c0.93015,-3.43863 3.91789,-3.2978 3.91789,-3.2978c3.46691,-0.19731 4.17157,3.32599 4.17157,3.32599c0,0 0.87377,3.01592 -0.02819,8.31493c-0.56373,3.35411 -3.94607,3.2696 -3.94607,3.2696z" id="path7729"/><path d="M224.88059,192.48817c0.8174,-1.80391 3.38235,-1.40931 3.38235,-1.40931c3.32597,-0.14094 3.12867,-2.14214 3.12867,-2.14214c0,0 -4.81984,1.21201 -7.52572,-1.663c-1.66299,-1.74753 -2.19852,-5.04533 -1.38112,-7.38479c1.0147,-2.81862 3.01593,-4.00245 3.01593,-4.00245c3.72059,-2.19852 8.70955,-1.15562 11.18994,1.18383c4.22794,4.00243 2.50857,12.261 2.50857,12.261c-1.80391,10.23163 -12.12008,7.32844 -12.12008,7.32844c-3.72058,-1.32477 -2.19853,-4.17157 -2.19853,-4.17157zM229.89775,183.0458c0.05637,0.7892 0.50736,1.04288 1.12745,1.04288c0.62009,0 1.09927,-0.39461 1.09927,-1.04288c0,-0.59192 -0.39461,-1.18383 -1.09927,-1.18383c-0.64828,0 -1.18382,0.59192 -1.12745,1.18383z" id="path7731"/><path d="M255.96121,189.30312c0.02819,0 -4.62254,0.64829 -4.81984,-3.88969c0,0 -0.25367,-3.97427 -0.98651,-3.97427c0.22549,2.73406 0.02819,4.17158 0.02819,4.17158c0,0 -0.31005,3.77695 -4.19975,3.77695c-3.8897,0 -4.28431,-3.91787 -4.28431,-3.91787c0,0 -0.87377,-5.60907 0,-13.13478c0,0 0.19731,-4.50977 4.28431,-4.45344c3.43872,0.05637 4.79166,3.12867 4.56617,8.00489c0,0 8.56861,-4.79165 9.38601,6.7929c0,0 0.50735,5.83455 -3.97427,6.62375z" id="path7733"/><path d="M275.84573,184.93426c0,4.93251 -6.1446,5.10171 -6.1446,5.10171c-8.34312,0.33824 -7.92033,-3.41054 -7.92033,-3.41054c-0.14094,-3.74874 5.35539,-3.72056 5.35539,-3.72056c-5.04534,-1.18383 -4.81985,-4.11521 -4.81985,-4.11521c0.22548,-4.79174 7.21568,-4.62254 7.21568,-4.62254c5.27083,0.11274 6.28553,1.57842 6.20097,3.41054c-0.16911,3.38234 -6.03186,2.62132 -6.03186,2.62132c6.56739,0.81738 6.1446,4.73529 6.1446,4.73529z" id="path7735"/><path d="M285.47266,181.94652c0,0 0,1.40932 2.00122,0.64828c0,0 2.79044,-1.26839 4.42523,1.38112c0,0 1.40932,2.42401 -1.40931,4.45343c0,0 -3.72059,2.79044 -9.18872,0.33824c0,0 -3.60784,-1.60663 -3.60784,-6.7929c0,0 -0.1973,-5.72181 5.07352,-7.32842c0,0 4.84804,-1.63481 8.11764,1.40931c0,0 1.40931,1.21202 0.62009,3.43873c0,0 -0.8174,2.2549 -4.05882,1.63479c0,0 -1.97304,-0.62008 -1.97304,0.81741z" id="path7737"/><path d="M304.36625,189.07763c-1.52206,0.6201 -2.84681,0.6201 -2.84681,0.6201c-8.23039,0 -8.23039,-7.15929 -8.23039,-7.15929c0,-8.70955 8.23039,-7.92033 8.23039,-7.92033c7.27205,0 7.27205,7.13111 7.27205,7.13111c0,1.74757 -0.33824,3.10049 -0.87377,4.14338c-1.18382,2.19852 -3.55146,3.18503 -3.55146,3.18503zM300.22287,182.62299c0.05637,0.78922 0.50736,1.04288 1.12745,1.04288c0.62009,0 1.09927,-0.3946 1.09927,-1.04288c0,-0.59192 -0.39461,-1.18383 -1.09927,-1.18383c-0.64828,0 -1.18382,0.59192 -1.12745,1.18383z" id="path7739"/><path d="M323.05197,174.56173c2.28309,0.59192 2.67769,2.48039 2.70588,3.46691c0.08456,2.42401 -1.69117,3.41052 -1.69117,3.41052c-2.36764,1.38114 -4.87622,-0.53554 -4.87622,-0.53554c1.24019,9.07598 -4.48162,8.45588 -4.48162,8.45588c-3.18505,0.08456 -4.05882,-2.73406 -4.05882,-2.73406c-1.35294,-4.03062 -0.50735,-9.24508 -0.50735,-9.24508c0.78922,-3.57972 4.28431,-3.38236 4.28431,-3.38236c3.15686,-0.11274 3.72058,2.53675 3.72058,2.53675c1.94485,-2.76225 4.9044,-1.97303 4.9044,-1.97303z" id="path7741"/><path d="M341.58883,186.11809c0,0 0.31005,1.97304 -2.00122,2.90317c0,0 -4.22794,1.46569 -8.79411,-0.3946c0,0 -4.05881,-1.57844 -3.86151,-6.82108c0,0 0,-5.41176 4.67891,-7.10292c0,0 4.96078,-1.71937 8.56862,1.49386c0,0 1.55024,1.35295 1.57843,3.94608c0.02819,2.90319 -2.95955,3.69239 -5.58087,3.18506c2.17034,1.74753 5.07352,0.16911 5.41176,2.79044zM334.31678,180.93181c0.05637,0.78922 0.50736,1.04289 1.12745,1.04289c0.62009,0 1.09927,-0.39461 1.09927,-1.04289c0,-0.59189 -0.39461,-1.18382 -1.09927,-1.18382c-0.64828,0 -1.18382,0.59192 -1.12745,1.18382z" id="path7743"/><path d="M347.19613,180.81908c-2.00122,0 -3.15686,-1.38114 -3.15686,-3.15686c0,-1.74757 1.15563,-3.18506 3.15686,-3.18506c2.11397,0 3.21323,1.43749 3.21323,3.18506c0,1.77572 -1.09927,3.15686 -3.21323,3.15686zM347.19613,189.66955c-2.00122,0 -3.15686,-1.38111 -3.15686,-3.15686c0,-1.77572 1.15563,-3.21321 3.15686,-3.21321c2.11397,0 3.21323,1.43749 3.21323,3.21321c0,1.77575 -1.09927,3.15686 -3.21323,3.15686z" id="path7745"/></g></g></svg>