<svg version="1.1" xmlns="http://www.w3.org/2000/svg" xmlns:xlink="http://www.w3.org/1999/xlink" width="88.32114" height="89.33182"><g transform="translate(-195.64154,-134.06113)"><g data-paper-data="{&quot;isPaintingLayer&quot;:true}" fill="none" fill-rule="nonzero" stroke="#ffffff" stroke-width="none" stroke-linecap="none" stroke-linejoin="miter" stroke-miterlimit="10" stroke-dasharray="" stroke-dashoffset="0" font-family="none" font-weight="none" font-size="none" text-anchor="none" style="mix-blend-mode: normal"><path d="M238.52932,139.76325c0,-1.10457 0.89543,-2 2,-2c1.10457,0 2,0.89543 2,2c0,1.10457 -0.89543,2 -2,2c-1.10457,0 -2,-0.89543 -2,-2z" stroke-width="0.5" stroke-linecap="butt"/><path d="M202.73172,156.24154c0,-1.10457 0.89543,-2 2,-2c1.10457,0 2,0.89543 2,2c0,1.10457 -0.89543,2 -2,2c-1.10457,0 -2,-0.89543 -2,-2z" data-paper-data="{&quot;origPos&quot;:null}" stroke-width="0.5" stroke-linecap="butt"/><path d="M199.32242,195.73252c0,-1.10457 0.89543,-2 2,-2c1.10457,0 2,0.89543 2,2c0,1.10457 -0.89543,2 -2,2c-1.10457,0 -2,-0.89543 -2,-2z" stroke-width="0.5" stroke-linecap="butt"/><path d="M224.03981,217.60884c0,-1.10457 0.89543,-2 2,-2c1.10457,0 2,0.89543 2,2c0,1.10457 -0.89543,2 -2,2c-1.10457,0 -2,-0.89543 -2,-2z" stroke-width="0.5" stroke-linecap="butt"/><path d="M257.56455,215.9042c0,-1.10457 0.89543,-2 2,-2c1.10457,0 2,0.89543 2,2c0,1.10457 -0.89543,2 -2,2c-1.10457,0 -2,-0.89543 -2,-2z" stroke-width="0.5" stroke-linecap="butt"/><path d="M275.46335,195.44843c0,-1.10457 0.89543,-2 2,-2c1.10457,0 2,0.89543 2,2c0,1.10457 -0.89543,2 -2,2c-1.10457,0 -2,-0.89543 -2,-2z" stroke-width="0.5" stroke-linecap="butt"/><path d="M271.48583,156.80973c0,-1.10457 0.89543,-2 2,-2c1.10457,0 2,0.89543 2,2c0,1.10457 -0.89543,2 -2,2c-1.10457,0 -2,-0.89543 -2,-2z" stroke-width="0.5" stroke-linecap="butt"/><path d="M213.82317,179.53837c0,-14.7494 11.95675,-26.70614 26.70614,-26.70614c14.7494,0 26.70614,11.95675 26.70614,26.70614c0,14.7494 -11.95675,26.70614 -26.70614,26.70614c-14.7494,0 -26.70614,-11.95675 -26.70614,-26.70614z" data-paper-data="{&quot;origPos&quot;:null}" stroke-width="8" stroke-linecap="butt"/><path d="M202.9227,155.28268l5.74884,4.04848" data-paper-data="{&quot;origPos&quot;:null,&quot;origRot&quot;:0}" stroke-width="4" stroke-linecap="round"/><path d="M204.06516,194.40193l-6.42362,2.85945" data-paper-data="{&quot;origPos&quot;:null,&quot;origRot&quot;:0}" stroke-width="4" stroke-linecap="round"/><path d="M227.12739,214.93153l-2.77299,6.46142" data-paper-data="{&quot;origPos&quot;:null,&quot;origRot&quot;:0}" stroke-width="4" stroke-linecap="round"/><path d="M257.21463,213.12565l3.8741,5.86777" data-paper-data="{&quot;origPos&quot;:null,&quot;origRot&quot;:0}" stroke-width="4" stroke-linecap="round"/><path d="M275.31968,194.33765l6.643,2.30435" data-paper-data="{&quot;origPos&quot;:null,&quot;origRot&quot;:0}" stroke-width="4" stroke-linecap="round"/><path d="M272.07533,157.93033l6.08524,-3.52268" data-paper-data="{&quot;origPos&quot;:null,&quot;origRot&quot;:0}" stroke-width="4" stroke-linecap="round"/><path d="M240.34757,143.09244l-0.00946,-7.03131" data-paper-data="{&quot;origPos&quot;:null,&quot;origRot&quot;:0}" stroke-width="4" stroke-linecap="round"/></g></g></svg>