<svg version="1.1" xmlns="http://www.w3.org/2000/svg" xmlns:xlink="http://www.w3.org/1999/xlink" width="652.73083" height="359.79286"><defs><linearGradient x1="167.65597" y1="360.10075" x2="167.65597" y2="1.47228" gradientUnits="userSpaceOnUse" id="color-1"><stop offset="0" stop-color="#ffd898"/><stop offset="0.50806" stop-color="#f8e1be"/><stop offset="1" stop-color="#cab2ff"/></linearGradient></defs><g transform="translate(160.99999,0.27431)"><g data-paper-data="{&quot;isPaintingLayer&quot;:true}" fill="none" fill-rule="nonzero" stroke="none" stroke-width="none" stroke-linecap="butt" stroke-linejoin="miter" stroke-miterlimit="10" stroke-dasharray="" stroke-dashoffset="0" font-family="none" font-weight="none" font-size="none" text-anchor="none" style="mix-blend-mode: normal"><path d="M-64.91854,214.46343l10.65355,15.69383l-8.59728,-1.35006l0.14542,0.29604l13.18354,19.42036l-10.30908,-1.61931l13.46387,19.8336l-9.14803,-1.43666l13.43483,19.79032l-32.10214,-5.04149l-32.10275,5.04149l13.2575,-19.7625l-8.97014,1.40883l13.28542,-19.80512l-10.1311,1.59083l13.02812,-19.42092l0.1346,-0.26877l-8.43,1.32387l10.52778,-15.69383l9.4007,-18.82326z" id="path3727" fill="#c03c74" stroke-width="0.07014"/><path d="M-160.99939,359.51855v-359.79286h652.73023v359.79286z" data-paper-data="{&quot;origPos&quot;:null}" id="rect3549" fill="url(#color-1)" stroke-width="0.26459"/><path d="M471.02949,254.20458l1.95885,5.66557l-2.50177,-1.11608l0.02164,0.10271l2.42413,7.01089l-2.99985,-1.33841l2.47563,7.16008l-2.66213,-1.18749l2.47039,7.14441l-9.34158,-4.16727l-10.16253,-1.08749l5.63604,-4.95138l-2.83966,-0.30332l5.64785,-4.96205l-3.20703,-0.34336l5.53848,-4.86584l0.06276,-0.07137l-2.66866,-0.28548l4.47559,-3.93201l4.38795,-4.98011z" data-paper-data="{&quot;origPos&quot;:null}" id="path3765" fill="#d4749c" stroke-width="0.02206"/><path d="M-112.03029,252.00208l1.19784,3.46449l-1.52985,-0.6825l0.01299,0.06354l1.48242,4.28716l-1.8345,-0.81818l1.51388,4.37846l-1.62797,-0.72605l1.51067,4.36889l-5.71247,-2.54831l-6.21444,-0.66505l3.44646,-3.02779l-1.73643,-0.18582l3.45368,-3.03436l-1.96115,-0.20975l3.38686,-2.97544l0.03895,-0.04352l-1.63191,-0.17495l2.73691,-2.40443l2.6832,-3.04537z" id="path3771" fill="#d9a7bc" stroke-width="0.01349"/><path d="M-32.33684,259.81997l2.04883,3.0347l-1.65342,-0.26111l0.0303,0.05788l2.53544,3.75528l-1.98261,-0.31289l2.58937,3.83531l-1.75942,-0.27764l2.58379,3.82691l-6.17377,-0.97485l-6.17389,0.97485l2.54968,-3.82152l-1.72514,0.27243l2.55496,-3.82975l-1.94834,0.30768l2.50558,-3.75546l0.02597,-0.05222l-1.62134,0.25588l2.02472,-3.03475l1.80789,-3.63988z" id="path3796" fill="#d9a7bc" stroke-width="0.01349"/><path d="M96.42166,254.2831l1.32265,1.95908l-1.06733,-0.16848l0.02311,0.03486l1.63673,2.42423l-1.27984,-0.20217l1.67151,2.47589l-1.13574,-0.17893l1.66793,2.47048l-3.98546,-0.62929l-3.98553,0.62929l1.64592,-2.46695l-1.11361,0.17603l1.64927,-2.47228l-1.25771,0.19868l1.61749,-2.4243l0.01733,-0.03486l-1.04665,0.16499l1.30706,-1.95907l1.16706,-2.34971z" data-paper-data="{&quot;origPos&quot;:null}" id="path3800" fill="#d9a7bc" stroke-width="0.00653"/><path d="M173.27484,256.36428l1.14432,2.12605l-1.06712,-0.28069l0.01688,0.04351l1.41608,2.6309l-1.27959,-0.33683l1.4462,2.68695l-1.13554,-0.29853l1.44309,2.68111l-3.98456,-1.04909l-4.11264,0.22934l1.92292,-2.33676l-1.14915,0.06397l1.92687,-2.34181l-1.29784,0.07224l1.88964,-2.29647l0.01948,-0.03481l-1.08003,0.06049l1.52702,-1.85574l1.42452,-2.26688z" id="path3802" fill="#d9a7bc" stroke-width="0.00889"/><path d="M302.35496,261.83749l2.10564,2.26408l-1.41438,-0.00009l0.03506,0.05004l2.60567,2.80171l-1.69606,-0.00035l2.66112,2.86146l-1.50502,0.00013l2.65538,2.8552l-5.28152,-0.001l-5.02786,1.62624l1.63139,-3.52616l-1.40491,0.45403l1.63466,-3.53369l-1.58671,0.51269l1.60312,-3.46532l0.01255,-0.05004l-1.32029,0.42735l1.29548,-2.80032l1.03566,-3.27689z" id="path3804" fill="#d9a7bc" stroke-width="0.0114"/><path d="M312.93728,263.86975l1.34073,1.44163l-0.90058,-0.00005l0.0225,0.03046l1.65913,1.78395l-1.07995,-0.00023l1.69443,1.82198l-0.9583,0.00009l1.69077,1.81798l-3.36293,-0.00061l-3.20141,1.03547l1.03877,-2.24524l-0.89456,0.28896l1.04085,-2.25003l-1.01031,0.32639l1.02076,-2.20651l0.00779,-0.03046l-0.84067,0.27199l0.82488,-1.78308l0.65945,-2.08649z" id="path3806" fill="#d9a7bc" stroke-width="0.00726"/><path d="M407.42261,255.82537l1.5914,2.65484l-1.38345,-0.29549l0.0238,0.05614l1.96934,3.28525l-1.65893,-0.35467l2.01121,3.35526l-1.47213,-0.31464l2.00689,3.34796l-5.16587,-1.1052l-5.25426,0.53963l2.32493,-3.10803l-1.4681,0.15014l2.3297,-3.11466l-1.65805,0.16972l2.28469,-3.05446l0.02294,-0.04656l-1.37979,0.14187l1.84625,-2.46823l1.69068,-2.98875z" id="path3808" fill="#d9a7bc" stroke-width="0.0114"/><path d="M204.22455,270.05887c55.12855,18.95167 92.05569,-2.04958 147.10583,-4.51851c49.61766,0.28148 93.61036,-1.49242 140.39985,13.30381v80.67385h-652.73022v-105.99386c25.48064,6.83108 47.73945,11.36038 73.85347,15.20596c58.01075,11.39009 116.63734,-6.31011 173.92417,-6.59951c34.48268,0.55216 83.6484,-1.1777 117.44692,7.92825z" id="path3720" fill="#d4749c" stroke-width="0.26459"/><path d="M-126.12078,237.3129l2.39711,6.93312l-3.06144,-1.36578l0.02597,0.12533l2.96643,8.57925l-3.671,-1.63772l3.02954,8.7619l-3.25767,-1.45325l3.02304,8.74279l-11.43149,-5.09957l-12.43608,-1.33079l6.8969,-6.05901l-3.4749,-0.37165l6.9114,-6.07211l-3.92454,-0.41995l6.77757,-5.95435l0.07661,-0.08704l-3.26567,-0.34902l5.4769,-4.8116l5.36956,-6.09422z" id="path3747" fill="#d4749c" stroke-width="0.027"/><path d="M18.03424,244.67984l3.95505,5.85826l-3.1917,-0.50399l0.05367,0.11053l4.89433,7.24928l-3.82716,-0.60451l4.99838,7.4036l-3.39621,-0.53632l4.98765,7.38737l-11.91775,-1.88187l-11.918,1.88187l4.92182,-7.37702l-3.33012,0.52592l4.93207,-7.39285l-3.76102,0.59381l4.83659,-7.2495l0.04978,-0.10009l-3.1296,0.49428l3.90844,-5.85822l3.48996,-7.02638z" data-paper-data="{&quot;origPos&quot;:null}" id="path3757" fill="#d4749c" stroke-width="0.02604"/><path d="M122.31671,235.4997l4.36652,6.46774l-3.5238,-0.55642l0.0593,0.12229l5.40354,8.00346l-4.22534,-0.6674l5.5184,8.17388l-3.74956,-0.59207l5.50659,8.1559l-13.15766,-2.07765l-13.15796,2.07765l5.43388,-8.1445l-3.67659,0.58067l5.44522,-8.16204l-4.15233,0.65556l5.33979,-8.00373l0.05496,-0.11053l-3.4552,0.54576l4.31506,-6.46774l3.85304,-7.7574z" id="path3759" fill="#d4749c" stroke-width="0.02875"/><path d="M359.03051,237.58284l4.69525,6.95467l-3.78907,-0.59838l0.06384,0.13143l5.81032,8.60601l-4.54341,-0.7177l5.93383,8.78927l-4.03183,-0.63668l5.92112,8.7699l-14.1482,-2.23405l-14.14848,2.23405l5.84297,-8.75763l-3.9534,0.62441l5.85517,-8.77648l-4.46494,0.70491l5.74178,-8.60627l0.05917,-0.11881l-3.71532,0.58689l4.6399,-6.95467l4.14313,-8.34137z" id="path3761" fill="#d4749c" stroke-width="0.03091"/><path d="M388.09572,243.30877l3.8058,5.63715l-3.07128,-0.48515l0.05176,0.10706l4.70963,6.97577l-3.68273,-0.58172l4.80975,7.12418l-3.26806,-0.51605l4.79943,7.10854l-11.468,-1.81079l-11.46823,1.81079l4.73609,-7.09862l-3.20448,0.50594l4.74597,-7.11381l-3.61912,0.57136l4.65409,-6.97586l0.04796,-0.09661l-3.0115,0.47548l3.76094,-5.63715l3.35826,-6.76131z" id="path3763" fill="#d4749c" stroke-width="0.02506"/><path d="M206.92651,246.70986l3.95505,5.85826l-3.19171,-0.50399l0.05366,0.11054l4.89434,7.24928l-3.82716,-0.60451l4.99838,7.4036l-3.39621,-0.53632l4.98765,7.38737l-11.91774,-1.88186l-11.918,1.88186l4.92182,-7.377l-3.33012,0.52592l4.93207,-7.39285l-3.76103,0.59381l4.8366,-7.2495l0.04978,-0.1001l-3.1296,0.49429l3.90844,-5.85822l3.48995,-7.02638z" id="path3767" fill="#d4749c" stroke-width="0.02604"/><path d="M68.683,249.01297l3.005,4.45101l-2.42499,-0.38296l0.03896,0.08399l3.71861,5.50789l-2.90778,-0.45929l3.79769,5.62514l-2.58041,-0.40732l3.78954,5.61281l-9.05492,-1.42979l-9.0551,1.42979l3.73951,-5.60494l-2.53016,0.3995l3.7473,-5.61695l-2.85758,0.45115l3.67481,-5.50807l0.03896,-0.07615l-2.37781,0.37556l2.96959,-4.45097l2.6516,-5.33857z" id="path3769" fill="#d4749c" stroke-width="0.01979"/><path d="M60.51097,310.79902c55.70937,15.23215 108.30637,-12.91776 162.27359,-19.03679c49.5273,-8.27205 85.65106,23.64021 132.39189,30.15312c46.98233,2.61967 92.49438,-13.68529 136.55378,-28.06667v65.66933h-652.73022v-58.47967c33.20507,-13.7434 69.4266,-17.78456 105.81616,-19.07418c42.63637,0.75335 75.52827,18.44934 115.69481,28.83486z" data-paper-data="{&quot;origPos&quot;:null}" id="path3713" fill="#c03c74" stroke-width="1"/><path d="M70.52751,245.93434l10.19803,16.1505l-8.57916,-1.62532l0.13696,0.30307l12.61977,19.98534l-10.28727,-1.9493l12.8882,20.41061l-9.12884,-1.72949l12.86047,20.36613l-32.03444,-6.06923l-32.34646,4.0969l13.90431,-19.5181l-9.03824,1.14486l13.93348,-19.5602l-10.20798,1.2927l13.66374,-19.18078l0.14333,-0.26687l-8.49402,1.07585l11.0414,-15.49978l10.00787,-18.68951z" data-paper-data="{&quot;origPos&quot;:null,&quot;origRot&quot;:0}" id="path3739" fill="#c03c74" stroke-width="0.05771"/><path d="M261.84128,219.92663l12.78372,18.93517l-10.31631,-1.62885l0.17464,0.35729l15.81962,23.43131l-12.37036,-1.95367l16.15602,23.92982l-10.9773,-1.73338l16.12119,23.87773l-38.52101,-6.08278l-38.52173,6.08278l15.90839,-23.84405l-10.76373,1.6997l15.94181,-23.89552l-12.15683,1.91937l15.63315,-23.43205l0.16152,-0.32421l-10.11558,1.59734l12.63285,-18.93513l11.28034,-22.71087z" data-paper-data="{&quot;origPos&quot;:null}" id="path3741" fill="#c03c74" stroke-width="0.08417"/><path d="M436.96425,261.46771l8.48708,13.28662l-6.84899,-1.14301l0.11599,0.25023l10.50259,16.44158l-8.21264,-1.37096l10.72592,16.79142l-7.28777,-1.21634l10.70281,16.75482l-25.57404,-4.26819l-25.57448,4.26819l10.56154,-16.73123l-7.14603,1.19275l10.58374,-16.76731l-8.0709,1.34685l10.37881,-16.44205l0.10734,-0.22761l-6.71573,1.12086l8.38693,-13.28667l7.48898,-15.93603z" data-paper-data="{&quot;origPos&quot;:null}" id="path3743" fill="#c03c74" stroke-width="0.05745"/><path d="M154.37821,269.1295l6.5805,9.74701l-5.31033,-0.83851l0.09003,0.18408l8.14319,12.06137l-6.36771,-1.00571l8.31643,12.31804l-5.65067,-0.89225l8.29851,12.29118l-19.82891,-3.13115l-19.82927,3.13115l8.18896,-12.27386l-5.54069,0.87493l8.2061,-12.30032l-6.25777,0.988l8.04722,-12.06176l0.0831,-0.16711l-5.20709,0.82224l6.50287,-9.74698l5.80661,-11.6905z" data-paper-data="{&quot;origPos&quot;:null}" id="path3745" fill="#c03c74" stroke-width="0.04333"/><path d="M342.52159,273.17546l7.74455,11.4713l-6.24972,-0.98686l0.10604,0.21672l9.58378,14.19502l-7.49417,-1.18361l9.78763,14.49714l-6.65028,-1.05009l9.76655,14.46553l-23.33667,-3.68505l-23.3372,3.68505l9.63766,-14.44513l-6.52087,1.02969l9.65779,-14.47633l-7.36477,1.16281l9.47078,-14.1955l0.09781,-0.19714l-6.12823,0.96771l7.65328,-11.47126l6.83384,-13.75862z" data-paper-data="{&quot;origPos&quot;:null}" id="path3828" fill="#c03c74" stroke-width="0.05099"/><path d="M-17.38048,76.20039c3.79132,0 6.84349,2.69294 6.84349,6.03742c0,3.34444 -3.05217,6.03661 -6.84349,6.03661h-0.45523c0.65774,0.92772 1.04337,2.02208 1.04337,3.20136c0,0.55106 -0.09002,1.08202 -0.2454,1.58858h2.34673c3.79128,0 6.84345,2.69212 6.84345,6.03656c0,3.34449 -3.05217,6.03664 -6.84345,6.03664h-53.08849c-3.79128,0 -6.84345,-2.69215 -6.84345,-6.03664c0,-0.55101 0.09002,-1.08199 0.2454,-1.5885h-2.34678c-3.79128,0 -6.84345,-2.69216 -6.84345,-6.03665c0,-3.34444 3.05217,-6.0366 6.84345,-6.0366h0.45445c-0.65739,-0.92764 -1.0426,-2.02217 -1.0426,-3.20136c0,-3.34449 3.05221,-6.03742 6.84349,-6.03742z" id="rect3948" fill="#cfbbfb" stroke-width="0.09001"/><path d="M-145.49715,17.10978c0,-1.06211 0.86101,-1.92312 1.92312,-1.92312c1.06212,0 1.92312,0.86101 1.92312,1.92312c0,1.06211 -0.86101,1.92313 -1.92312,1.92313c-1.06212,0 -1.92312,-0.86101 -1.92312,-1.92313z" id="path3961" fill="#ffffff" stroke-width="0.26459"/><path d="M-115.15092,32.2829c0,-1.06211 0.86101,-1.92313 1.92312,-1.92313c1.06212,0 1.92312,0.86101 1.92312,1.92313c0,1.06211 -0.86101,1.92312 -1.92312,1.92312c-1.06212,0 -1.92312,-0.86101 -1.92312,-1.92312z" id="circle3963" fill="#ffffff" stroke-width="0.26459"/><path d="M-74.49859,14.53314c0,-1.06212 0.86101,-1.92313 1.92312,-1.92313c1.06212,0 1.92312,0.86101 1.92312,1.92313c0,1.06212 -0.86101,1.92312 -1.92312,1.92312c-1.06212,0 -1.92312,-0.86101 -1.92312,-1.92312z" id="circle3965" fill="#ffffff" stroke-width="0.26459"/><path d="M-33.27342,43.73431c0,-1.06211 0.86101,-1.92312 1.92313,-1.92312c1.06211,0 1.92312,0.86101 1.92312,1.92312c0,1.06211 -0.86101,1.92312 -1.92312,1.92312c-1.06212,0 -1.92313,-0.86101 -1.92313,-1.92312z" id="circle3967" fill="#ffffff" stroke-width="0.26459"/><path d="M-3.78611,18.5413c0,-1.06211 0.86101,-1.92312 1.92313,-1.92312c1.06211,0 1.92313,0.86101 1.92313,1.92312c0,1.06211 -0.86101,1.92312 -1.92312,1.92312c-1.06211,0 -1.92313,-0.86101 -1.92313,-1.92312z" id="circle3969" fill="#ffffff" stroke-width="0.26459"/><path d="M65.47101,33.14173c0,-1.06211 0.86101,-1.92312 1.92312,-1.92312c1.06211,0 1.92312,0.86101 1.92312,1.92312c0,1.06211 -0.86101,1.92312 -1.92312,1.92312c-1.06211,0 -1.92312,-0.86101 -1.92312,-1.92312z" data-paper-data="{&quot;origPos&quot;:null}" id="circle3975" fill="#ffffff" stroke-width="0.26459"/><path d="M120.74806,15.67831c0,-1.06212 0.86101,-1.92313 1.92313,-1.92313c1.06212,0 1.92312,0.86101 1.92312,1.92313c0,1.06211 -0.86101,1.92312 -1.92312,1.92312c-1.06212,0 -1.92313,-0.86101 -1.92313,-1.92312z" id="circle3977" fill="#ffffff" stroke-width="0.26459"/><path d="M182.87191,38.58114c0,-1.06211 0.86101,-1.92312 1.92312,-1.92312c1.06212,0 1.92312,0.86101 1.92312,1.92312c0,1.06211 -0.86101,1.92312 -1.92312,1.92312c-1.06212,0 -1.92312,-0.86101 -1.92312,-1.92312z" id="circle3979" fill="#ffffff" stroke-width="0.26459"/><path d="M243.85469,16.82347c0,-1.06212 0.86101,-1.92313 1.92312,-1.92313c1.06212,0 1.92312,0.86101 1.92312,1.92313c0,1.06211 -0.86101,1.92312 -1.92312,1.92312c-1.06212,0 -1.92312,-0.86101 -1.92312,-1.92312z" data-paper-data="{&quot;origPos&quot;:null}" id="circle3981" fill="#ffffff" stroke-width="0.26459"/><path d="M300.24884,20.54516c0,-1.06211 0.86101,-1.92312 1.92313,-1.92312c1.06212,0 1.92312,0.86101 1.92312,1.92312c0,1.06211 -0.86101,1.92312 -1.92312,1.92312c-1.06212,0 -1.92313,-0.86101 -1.92313,-1.92312z" id="circle3983" fill="#ffffff" stroke-width="0.26459"/><path d="M352.06643,33.71428c0,-1.06211 0.86101,-1.92313 1.92312,-1.92313c1.06212,0 1.92313,0.86101 1.92313,1.92313c0,1.06211 -0.86101,1.92312 -1.92313,1.92312c-1.06212,0 -1.92312,-0.86101 -1.92312,-1.92312z" id="circle3985" fill="#ffffff" stroke-width="0.26459"/><path d="M408.75088,14.24693c0,-1.06212 0.86101,-1.92312 1.92312,-1.92312c1.06212,0 1.92313,0.86101 1.92313,1.92312c0,1.06212 -0.86101,1.92313 -1.92313,1.92313c-1.06212,0 -1.92312,-0.86101 -1.92312,-1.92313z" id="circle3987" fill="#ffffff" stroke-width="0.26459"/><path d="M452.55254,31.99664c0,-1.06211 0.86101,-1.92312 1.92312,-1.92312c1.06212,0 1.92313,0.86101 1.92313,1.92312c0,1.06212 -0.86101,1.92313 -1.92313,1.92313c-1.06212,0 -1.92312,-0.86101 -1.92312,-1.92313z" id="circle3989" fill="#ffffff" stroke-width="0.26459"/><path d="M19.47101,15.14172c0,-1.06211 0.86101,-1.92312 1.92312,-1.92312c1.06211,0 1.92312,0.86101 1.92312,1.92312c0,1.06211 -0.86101,1.92312 -1.92312,1.92312c-1.06211,0 -1.92312,-0.86101 -1.92312,-1.92312z" data-paper-data="{&quot;origPos&quot;:null}" id="circle3975" fill="#ffffff" stroke-width="0.26459"/></g></g></svg>