<svg version="1.1" xmlns="http://www.w3.org/2000/svg" xmlns:xlink="http://www.w3.org/1999/xlink" width="108.78398" height="106.11097"><g transform="translate(-184.82868,-126.25786)"><g data-paper-data="{&quot;isPaintingLayer&quot;:true}" fill="none" fill-rule="nonzero" stroke="#ffffff" stroke-width="none" stroke-linecap="none" stroke-linejoin="miter" stroke-miterlimit="10" stroke-dasharray="" stroke-dashoffset="0" font-family="none" font-weight="none" font-size="none" text-anchor="none" style="mix-blend-mode: normal"><path d="M238.52934,139.76326c0,-1.10457 0.89543,-2 2,-2c1.10457,0 2,0.89543 2,2c0,1.10457 -0.89543,2 -2,2c-1.10457,0 -2,-0.89543 -2,-2z" fill="#d8c4ff" stroke-width="0.5" stroke-linecap="butt"/><path d="M199.32244,195.73253c0,-1.10457 0.89543,-2 2,-2c1.10457,0 2,0.89543 2,2c0,1.10457 -0.89543,2 -2,2c-1.10457,0 -2,-0.89543 -2,-2z" fill="#d8c4ff" stroke-width="0.5" stroke-linecap="butt"/><path d="M271.48582,156.80973c0,-1.10457 0.89543,-2 2,-2c1.10457,0 2,0.89543 2,2c0,1.10457 -0.89543,2 -2,2c-1.10457,0 -2,-0.89543 -2,-2z" fill="#d8c4ff" stroke-width="0.5" stroke-linecap="butt"/><path d="M213.82319,179.53837c0,-14.7494 11.95675,-26.70614 26.70614,-26.70614c14.7494,0 26.70614,11.95675 26.70614,26.70614c0,14.7494 -11.95675,26.70614 -26.70614,26.70614c-14.7494,0 -26.70614,-11.95675 -26.70614,-26.70614z" data-paper-data="{&quot;origPos&quot;:null}" fill="none" stroke-width="3" stroke-linecap="butt"/><path d="M194.94122,146.05888l11.55627,9.85591" data-paper-data="{&quot;origPos&quot;:null,&quot;origRot&quot;:0}" fill="none" stroke-width="4" stroke-linecap="round"/><path d="M186.82868,201.7374l18.32352,-7.80133" data-paper-data="{&quot;origPos&quot;:null,&quot;origRot&quot;:0}" fill="none" stroke-width="4" stroke-linecap="round"/><path d="M225.72979,216.63972l-7.54372,13.72911" data-paper-data="{&quot;origPos&quot;:null,&quot;origRot&quot;:0}" fill="none" stroke-width="4" stroke-linecap="round"/><path d="M261.09688,211.41747l9.72478,14.51366" data-paper-data="{&quot;origPos&quot;:null,&quot;origRot&quot;:0}" fill="none" stroke-width="4" stroke-linecap="round"/><path d="M291.61266,191.73538l-14.4295,-3.29873" data-paper-data="{&quot;origPos&quot;:null,&quot;origRot&quot;:0}" fill="none" stroke-width="4" stroke-linecap="round"/><path d="M285.13801,147.43023l-12.90738,10.34482" data-paper-data="{&quot;origPos&quot;:null,&quot;origRot&quot;:0}" fill="none" stroke-width="4" stroke-linecap="round"/><path d="M240.34759,141.85013l-0.00946,-13.59227" data-paper-data="{&quot;origPos&quot;:null,&quot;origRot&quot;:0}" fill="none" stroke-width="4" stroke-linecap="round"/></g></g></svg>