<svg version="1.1" xmlns="http://www.w3.org/2000/svg" xmlns:xlink="http://www.w3.org/1999/xlink" width="42.27922" height="32.45611" viewBox="0,0,42.27922,32.45611"><g transform="translate(-218.90343,-163.94751)"><g data-paper-data="{&quot;isPaintingLayer&quot;:true}" fill="none" fill-rule="nonzero" stroke="none" stroke-width="none" stroke-linecap="round" stroke-linejoin="round" stroke-miterlimit="4" stroke-dasharray="" stroke-dashoffset="0" font-family="none" font-weight="none" font-size="none" text-anchor="none" style="mix-blend-mode: normal"><path d="M244.88704,189.46847c-3.36829,-0.27696 -6.61709,-2.24684 -7.89589,-5.55076c-2.72071,-5.59962 1.71088,-12.87688 7.92772,-13.06413c0.11667,-0.00727 0.23373,-0.0077 0.35068,-0.01082z" id="path9521" fill="#37c837" stroke-width="0.0868"/><path d="M261.18264,180.1856c-0.00965,8.12149 -6.41763,14.79276 -14.53214,15.12924l0.06521,-3.17544c6.33369,-0.36724 11.28239,-5.60948 11.28445,-11.9538c-0.00059,-6.1563 -4.66793,-11.30962 -10.79409,-11.918l0.06521,-3.18248c7.8586,0.6496 13.90707,7.21509 13.91137,15.10049z" data-paper-data="{&quot;origPos&quot;:null}" id="path9480" fill="#000000" stroke-width="0.17945"/><path d="M249.9372,172.27797c5.37547,2.39157 6.59966,10.35011 2.2152,14.26555c-1.449,1.50954 -3.38279,2.28528 -5.37148,2.41786l0.35994,-17.53177c0.97154,0.12395 1.92302,0.4053 2.79633,0.84836z" data-paper-data="{&quot;origPos&quot;:null}" id="circle9484" fill="#000000" stroke-width="0.0868"/><path d="M244.9989,164.35972c0.26347,0.26674 0.40771,0.62883 0.39979,1.00368l-0.31305,14.84153l-0.31374,14.84153c-0.00991,0.46576 -0.25303,0.89541 -0.64718,1.14374c-0.39416,0.24832 -0.88668,0.28212 -1.31107,0.08997l-14.20328,-6.42963c-0.0609,0.00366 -0.11414,0.02041 -0.17668,0.02045l-6.28936,0.00504c-1.76485,0.00142 -3.22913,-1.4618 -3.23054,-3.22604l-0.01036,-12.90909c-0.00142,-1.76424 1.46052,-3.2298 3.22537,-3.23122l6.03413,-0.00483l15.31136,-6.44855c0.16655,-0.07018 0.3452,-0.10713 0.52594,-0.10874c0.37492,-0.00328 0.7352,0.14541 0.99868,0.41216z" data-paper-data="{&quot;origPos&quot;:null,&quot;origRot&quot;:0}" id="path9478" fill="#000000" stroke-width="0.1"/></g></g></svg>