<svg version="1.1" xmlns="http://www.w3.org/2000/svg" xmlns:xlink="http://www.w3.org/1999/xlink" width="209.98566" height="66.34315" viewBox="0,0,209.98566,66.34315"><g transform="translate(-133.74018,-143.46683)"><g data-paper-data="{&quot;isPaintingLayer&quot;:true}" fill="none" fill-rule="nonzero" stroke="none" stroke-width="none" stroke-linecap="butt" stroke-linejoin="miter" stroke-miterlimit="none" stroke-dasharray="" stroke-dashoffset="0" font-family="none" font-weight="none" font-size="none" text-anchor="none" style="mix-blend-mode: normal"><path d="M166.48525,155.78148c3.24453,3.19611 4.86645,7.16789 4.86645,11.91362c0,4.06778 -1.25888,7.62681 -3.77703,10.67762c2.51814,3.00242 3.77703,6.5136 3.77703,10.53295c0,4.74575 -1.62192,8.74002 -4.86645,11.98456c-3.24453,3.1961 -7.23978,4.79457 -11.9855,4.79457c-2.22759,0 -3.94707,-0.84707 -5.15772,-2.54198c-1.16221,1.69491 -2.90514,2.54198 -5.22958,2.54198c-1.84017,0 -3.36549,-0.60505 -4.57614,-1.81571c-1.21064,-1.16221 -1.81663,-2.66407 -1.81663,-4.50426v-31.66973c0,-4.74573 1.59846,-8.71751 4.79457,-11.91362c3.24454,-3.24454 7.23977,-4.86645 11.9855,-4.86645c4.74572,0 8.74097,1.6219 11.9855,4.86645zM218.55891,152.73072c1.21064,1.16222 1.8157,2.66407 1.8157,4.50425v28.47432c0,2.03389 0.70262,3.75243 2.10696,5.15677c1.40435,1.40435 3.12383,2.10696 5.15772,2.10696c2.03389,0 3.75242,-0.70261 5.15677,-2.10696c1.45277,-1.40434 2.17978,-3.12288 2.17978,-5.15677c0,-2.03389 -0.72701,-3.75337 -2.17978,-5.15771c-1.40435,-1.4528 -3.12288,-2.17886 -5.15677,-2.17886c-1.84018,0 -3.36643,-0.58161 -4.57708,-1.74381c-1.16222,-1.21065 -1.74288,-2.73595 -1.74288,-4.57614c0,-1.84017 0.58066,-3.36549 1.74288,-4.57613c1.21064,-1.21065 2.73689,-1.81569 4.57708,-1.81569c5.66583,0 10.41151,1.9371 14.23715,5.81118c3.87407,3.82565 5.81118,8.57134 5.81118,14.23716c0,5.61739 -1.93711,10.36308 -5.81118,14.23714c-3.87407,3.82565 -8.61975,5.73838 -14.23715,5.73838c-5.6174,0 -10.36309,-1.91273 -14.23715,-5.73838c-3.82564,-3.87406 -5.73931,-8.61975 -5.73931,-14.23714v-28.47432c0,-1.79174 0.606,-3.29361 1.81665,-4.50425c1.21065,-1.21064 2.71155,-1.81569 4.50331,-1.81569c1.84018,0 3.36548,0.60505 4.57613,1.81569zM259.56059,152.73072c1.21064,1.16222 1.8157,2.66407 1.8157,4.50425v28.47432c0,2.03389 0.70167,3.75243 2.10602,5.15677c1.40435,1.40435 3.12383,2.10696 5.15771,2.10696c2.03389,0 3.75337,-0.70261 5.15772,-2.10696c1.45278,-1.40434 2.17884,-3.12288 2.17884,-5.15677c0,-2.03389 -0.72606,-3.75337 -2.17884,-5.15771c-1.40435,-1.4528 -3.12383,-2.17886 -5.15772,-2.17886c-1.84018,0 -3.36548,-0.58161 -4.57612,-1.74381c-1.16222,-1.21065 -1.74382,-2.73595 -1.74382,-4.57614c0,-1.84017 0.5816,-3.36549 1.74382,-4.57613c1.21065,-1.21065 2.73594,-1.81569 4.57612,-1.81569c5.66583,0 10.41151,1.9371 14.23715,5.81118c3.87407,3.82565 5.81118,8.57134 5.81118,14.23716c0,5.61739 -1.93711,10.36308 -5.81118,14.23714c-3.87407,3.82565 -8.61975,5.73838 -14.23715,5.73838c-5.6174,0 -10.36308,-1.91273 -14.23715,-5.73838c-3.82565,-3.87406 -5.73837,-8.61975 -5.73837,-14.23714v-28.47432c0,-1.79174 0.60505,-3.29361 1.8157,-4.50425c1.21065,-1.21064 2.7125,-1.81569 4.50426,-1.81569c1.84018,0 3.36548,0.60505 4.57613,1.81569zM300.56132,152.80358c1.21065,1.16222 1.8157,2.68752 1.8157,4.57613v41.98517c0,1.84019 -0.60505,3.34204 -1.8157,4.50425c-1.21065,1.21065 -2.73594,1.81571 -4.57612,1.81571c-1.84018,0 -3.36548,-0.60505 -4.57613,-1.81571c-1.16222,-1.16221 -1.74383,-2.66406 -1.74383,-4.50425v-41.98517c0,-1.84019 0.58161,-3.34108 1.74383,-4.50331c1.21065,-1.21064 2.73595,-1.81569 4.57613,-1.81569c1.88861,0 3.4139,0.58066 4.57612,1.74288zM151.59369,164.8619c-0.77482,0.77482 -1.16222,1.71945 -1.16222,2.83324v4.14018h3.99546c1.16224,0 2.15472,-0.38742 2.97794,-1.16225c0.82324,-0.82324 1.23506,-1.81569 1.23506,-2.97793c0,-1.16224 -0.41183,-2.13125 -1.23506,-2.90605c-0.7748,-0.77482 -1.74289,-1.16225 -2.90511,-1.16225c-1.1138,0 -2.08281,0.41183 -2.90606,1.23506zM204.73407,167.62232c1.21065,1.16224 1.8157,2.66314 1.8157,4.50331v16.416c0,4.84257 -1.64631,8.911 -4.93926,12.20395c-3.24453,3.29296 -7.28855,4.93926 -12.13113,4.93926c-4.89102,0 -8.98286,-1.62192 -12.27583,-4.86645c-3.24453,-3.29296 -4.86645,-7.38577 -4.86645,-12.27676v-16.27035c0,-1.84019 0.58066,-3.36549 1.74288,-4.57614c1.21065,-1.21065 2.73595,-1.81663 4.57613,-1.81663c1.84019,0 3.36643,0.60598 4.57708,1.81663c1.21064,1.21065 1.8157,2.73595 1.8157,4.57614v16.27035c0,1.25906 0.41181,2.3247 1.23505,3.19638c0.87167,0.82324 1.93637,1.23504 3.19544,1.23504c1.25907,0 2.30032,-0.4118 3.12357,-1.23504c0.82324,-0.87168 1.23505,-1.93733 1.23505,-3.19638v-16.416c0,-1.84017 0.60505,-3.34108 1.8157,-4.50331c1.21065,-1.21064 2.73594,-1.81663 4.57612,-1.81663c1.84018,0 3.34203,0.60599 4.50426,1.81663zM337.85783,171.90812c1.25907,1.3075 1.88851,2.75964 1.88851,4.35768c0,2.03389 -0.87146,3.72898 -2.61479,5.08489l-9.22507,9.00758c-1.35592,1.30749 -2.83244,1.96132 -4.43049,1.96132c-1.79176,0 -3.318,-0.62943 -4.57707,-1.88851c-1.25907,-1.3075 -1.88851,-2.8572 -1.88851,-4.64894c0,-1.35592 0.53282,-2.68797 1.59819,-3.99548l3.12357,-3.12358c-1.64648,0.38742 -3.00198,1.25887 -4.06735,2.61481c-1.01694,1.3075 -1.52538,2.80936 -1.52538,4.50426c0,2.03389 0.70167,3.77681 2.10602,5.22957c1.40435,1.40437 3.12383,2.10696 5.15772,2.10696h6.46464c1.84018,0 3.34109,0.60505 4.50331,1.81571c1.21065,1.16224 1.81664,2.66314 1.81664,4.50333c0,1.84017 -0.606,3.36547 -1.81664,4.57613c-1.16222,1.21065 -2.66313,1.81663 -4.50331,1.81663h-6.46464c-5.66583,0 -10.41151,-1.91364 -14.23715,-5.7393c-3.82564,-3.87406 -5.73836,-8.6432 -5.73836,-14.30902c0,-5.66584 1.91272,-10.41153 5.73836,-14.23716c3.82564,-3.82565 8.57133,-5.7393 14.23715,-5.7393c5.71425,0 10.53216,2.03465 14.45466,6.10243zM150.43147,192.97305h4.21298c1.11379,0 2.05843,-0.3874 2.83325,-1.16222c0.7748,-0.82325 1.16224,-1.79134 1.16224,-2.90513c0,-1.25907 -0.48404,-2.27689 -1.45256,-3.05169c-0.92009,-0.77482 -2.03454,-1.23444 -3.34203,-1.37974c-1.25907,-0.14527 -2.39694,-0.5571 -3.41388,-1.23505z" data-paper-data="{&quot;origPos&quot;:null}" id="path874" fill="none" stroke="#128fae" stroke-width="7.959" stroke-miterlimit="4"/><path d="M323.22343,179.24376c2.23243,-0.28614 4.59812,-0.69076 7.01341,-1.1735c2.41528,-0.48274 4.88,-1.04376 7.31088,-1.64394c0.73798,-0.1822 1.42826,-0.38207 2.15763,-0.57035c0.00964,0.13763 0.04101,0.27019 0.04101,0.41005c0,2.03389 -0.87132,3.72876 -2.61465,5.08466l-9.22546,9.00776c-1.35592,1.30749 -2.83202,1.9608 -4.43007,1.9608c-1.79176,0 -3.31787,-0.62941 -4.57694,-1.88848c-1.25907,-1.3075 -1.88848,-2.85677 -1.88848,-4.64851c0,-1.35592 0.53235,-2.6879 1.59772,-3.99541l2.30376,-2.30375c0.75883,-0.07023 1.51465,-0.13723 2.31121,-0.23932z" data-paper-data="{&quot;origPos&quot;:null}" id="path907" fill="#00ccff" stroke="none" stroke-width="4.7573" stroke-miterlimit="10"/><path d="M306.24721,178.3901c1.77262,0.40652 3.55317,0.74101 5.34561,0.97146c1.79243,0.23044 3.59642,0.35672 5.41643,0.34668c0.78599,-0.00434 1.6294,-0.05092 2.48492,-0.10736c-0.68296,0.43697 -1.2936,0.99457 -1.82958,1.67675c-1.01694,1.3075 -1.5254,2.80972 -1.5254,4.50462c0,2.03389 0.70184,3.77654 2.10618,5.2293c1.40435,1.40437 3.12384,2.10693 5.15773,2.10693h6.46468c1.84018,0 3.34091,0.60551 4.50313,1.81616c1.21065,1.16223 1.81691,2.66295 1.81691,4.50314c0,1.84017 -0.60626,3.36554 -1.81691,4.5762c-1.16222,1.21065 -2.66295,1.81616 -4.50313,1.81616h-6.46468c-5.66583,0 -10.41141,-1.9136 -14.23706,-5.73926c-3.82564,-3.87406 -5.73851,-8.64281 -5.73851,-14.30863c0,-2.81525 0.47429,-5.40253 1.41879,-7.76343c0.4677,0.11696 0.93215,0.26379 1.40089,0.37128z" data-paper-data="{&quot;origPos&quot;:null}" id="path905" fill="#00ccff" stroke="none" stroke-width="4.7573" stroke-miterlimit="10"/><path d="M290.40349,173.65883c1.75973,0.54823 3.51628,1.12103 5.27254,1.68644c1.75627,0.56541 3.51273,1.12353 5.27329,1.6417c0.47444,0.13964 0.95262,0.24476 1.42773,0.378v21.99974c0,1.84019 -0.60477,3.34242 -1.81542,4.50462c-1.21065,1.21065 -2.73601,1.81542 -4.5762,1.81542c-1.84018,0 -3.36555,-0.60477 -4.5762,-1.81542c-1.16222,-1.16221 -1.74385,-2.66443 -1.74385,-4.50462v-25.9206c0.24554,0.0754 0.49271,0.13827 0.7381,0.21472z" data-paper-data="{&quot;origPos&quot;:null}" id="path901" fill="#00ccff" stroke="none" stroke-width="4.7573" stroke-miterlimit="10"/><path d="M250.75429,172.32206c1.96454,-0.32722 3.92876,-0.64963 5.89359,-0.94163c1.57552,-0.23414 3.1518,-0.42642 4.72829,-0.60837v14.93713c0,2.03389 0.70183,3.75264 2.10618,5.15698c1.40435,1.40435 3.12384,2.10693 5.15773,2.10693c2.03389,0 3.75337,-0.70258 5.15773,-2.10693c1.45277,-1.40434 2.1785,-3.12309 2.1785,-5.15698c0,-2.03389 -0.72573,-3.75339 -2.1785,-5.15773c-1.40435,-1.4528 -3.12384,-2.1785 -5.15773,-2.1785c-1.84018,0 -3.36555,-0.58164 -4.5762,-1.74385c-1.16222,-1.21065 -1.74385,-2.73601 -1.74385,-4.5762c0,-0.49794 0.05054,-0.96844 0.13569,-1.42028c0.02958,-0.00313 0.05914,-0.00813 0.08872,-0.01118c1.96646,-0.20577 3.93383,-0.35569 5.90328,-0.42422c1.96945,-0.06853 3.94067,-0.0556 5.91447,0.06412c1.8167,0.11019 3.61828,0.34143 5.40823,0.66205c1.0989,0.19684 2.18702,0.47781 3.27819,0.73437c3.75324,3.79398 5.6401,8.47465 5.6401,14.05141c0,5.61739 -1.93751,10.363 -5.81158,14.23706c-3.87407,3.82565 -8.61966,5.73851 -14.23706,5.73851c-5.6174,0 -10.36298,-1.91287 -14.23706,-5.73851c-3.82565,-3.87406 -5.73852,-8.61967 -5.73852,-14.23706v-13.06505c0.6962,-0.11603 1.39367,-0.20613 2.08978,-0.32208z" data-paper-data="{&quot;origPos&quot;:null}" id="path895" fill="#00ccff" stroke="none" stroke-width="4.7573" stroke-miterlimit="10"/><path d="M216.02053,173.75203c1.44828,0.23326 2.90082,0.41262 4.35402,0.58302v11.37414c0,2.03389 0.70258,3.75264 2.10693,5.15698c1.40435,1.40435 3.12384,2.10693 5.15773,2.10693c2.03388,0 3.75263,-0.70258 5.15698,-2.10693c1.45277,-1.40434 2.17999,-3.12309 2.17999,-5.15698c0,-2.03389 -0.72722,-3.75339 -2.17999,-5.15773c-1.40435,-1.4528 -3.1231,-2.1785 -5.15698,-2.1785c-1.84019,0 -3.3663,-0.58164 -4.57695,-1.74385c-0.5984,-0.62333 -1.03616,-1.33389 -1.32634,-2.12408c1.79176,0.18021 3.58761,0.30613 5.39034,0.34444c1.97698,0.04202 3.95158,-0.01335 5.92341,-0.14016c1.97184,-0.12681 3.9412,-0.32498 5.90924,-0.5696c1.54773,-0.19238 3.09194,-0.47792 4.63808,-0.71499c2.71431,3.45321 4.09084,7.54196 4.09084,12.28446c0,5.61739 -1.93751,10.363 -5.81158,14.23706c-3.87406,3.82565 -8.61966,5.73851 -14.23706,5.73851c-5.6174,0 -10.36299,-1.91287 -14.23706,-5.73851c-3.82564,-3.87406 -5.73926,-8.61967 -5.73926,-14.23706v-13.55562c2.78322,0.56637 5.565,1.14869 8.35764,1.59846z" data-paper-data="{&quot;origPos&quot;:null}" id="path889" fill="#00ccff" stroke="none" stroke-width="4.7573" stroke-miterlimit="10"/><path d="M173.12295,169.04983c0.15061,-0.01114 0.32216,-0.034 0.47194,-0.04473c3.34219,-0.239 6.47354,-0.37219 9.26497,-0.36383c0.39668,0.00119 0.79009,0.04746 1.18617,0.05666c0.66603,1.01857 1.00277,2.20845 1.00277,3.57343v16.27018c0,1.25906 0.41214,2.3245 1.23538,3.19618c0.87167,0.82324 1.93636,1.23538 3.19544,1.23538c1.25907,0 2.29987,-0.41214 3.12312,-1.23538c0.82324,-0.87168 1.23538,-1.93712 1.23538,-3.19618v-16.41556c0,-0.91027 0.15042,-1.73689 0.44658,-2.4812c3.57803,0.55351 7.14428,1.26703 10.70985,1.99883c0.51236,0.10515 1.02643,0.18949 1.53882,0.29449c0.00157,0.06479 0.01641,0.12223 0.01641,0.18788v16.41556c0,4.84257 -1.64632,8.91099 -4.93928,12.20394c-3.24453,3.29296 -7.28829,4.93928 -12.13088,4.93928c-4.89102,0 -8.9833,-1.62169 -12.27626,-4.86622c-3.24453,-3.29296 -4.86621,-7.38601 -4.86621,-12.277v-16.27018c0,-1.21576 0.27865,-2.28059 0.78581,-3.22153z" data-paper-data="{&quot;origPos&quot;:null}" id="path883" fill="#00ccff" stroke="none" stroke-width="4.7573" stroke-miterlimit="10"/><path d="M141.28566,173.06985c2.93673,-0.47536 6.03557,-0.94198 9.14569,-1.39492v0.16029h3.99541c1.1091,0 2.05362,-0.37694 2.85398,-1.08254c1.93371,-0.25207 3.87643,-0.52964 5.78325,-0.74779c2.81914,-0.32253 5.50536,-0.55449 8.16528,-0.77537c-0.28438,3.42489 -1.46339,6.48861 -3.6547,9.14345c2.51814,3.00242 3.77697,6.51306 3.77697,10.53241c0,4.74575 -1.62169,8.7402 -4.86621,11.98474c-3.24453,3.1961 -7.23977,4.79465 -11.98549,4.79465c-2.22759,0 -3.94708,-0.84668 -5.15773,-2.54159c-1.16221,1.69491 -2.90486,2.54159 -5.2293,2.54159c-1.84017,0 -3.36554,-0.60477 -4.5762,-1.81542c-1.21064,-1.16221 -1.81691,-2.66443 -1.81691,-4.50462v-25.67084c1.33367,-0.22438 2.16638,-0.39748 3.56597,-0.62403zM150.43135,192.9731h4.21311c1.11379,0 2.05828,-0.3875 2.8331,-1.16231c0.77481,-0.82325 1.16231,-1.79163 1.16231,-2.90542c0,-1.25907 -0.48381,-2.27674 -1.45233,-3.05154c-0.92009,-0.77482 -2.03482,-1.23398 -3.34231,-1.37927c-1.25907,-0.14527 -2.39695,-0.55743 -3.41388,-1.23538z" data-paper-data="{&quot;origPos&quot;:null}" id="path879" fill="#00ccff" stroke="none" stroke-width="4.7573" stroke-miterlimit="10"/><g data-paper-data="{&quot;origPos&quot;:null}" fill="#66e0ff" stroke="none" stroke-width="4.7573" stroke-miterlimit="10"><path d="M309.16605,171.54519c3.82564,-3.82565 8.57123,-5.73926 14.23706,-5.73926c5.71425,0 10.53226,2.03456 14.45476,6.10234c1.14888,1.19307 1.74694,2.51281 1.84748,3.9477c-0.72937,0.18827 -1.41965,0.38814 -2.15763,0.57035c-2.43088,0.60018 -4.8956,1.1612 -7.31088,1.64394c-2.41528,0.48274 -4.78097,0.88736 -7.01341,1.1735c-0.79656,0.1021 -1.55238,0.16909 -2.31121,0.23932l0.82011,-0.82011c-0.81814,0.19251 -1.5636,0.50631 -2.23815,0.9379c-0.85552,0.05644 -1.69894,0.10301 -2.48492,0.10736c-1.82001,0.01004 -3.624,-0.11624 -5.41643,-0.34668c-1.79243,-0.23045 -3.57299,-0.56494 -5.34561,-0.97146c-0.46874,-0.1075 -0.93319,-0.25432 -1.40089,-0.37128c0.95635,-2.39055 2.39497,-4.54888 4.31973,-6.47363z" data-paper-data="{&quot;origPos&quot;:null}" id="path903"/><path d="M289.66539,157.37971c0,-1.84019 0.58163,-3.3409 1.74385,-4.50314c1.21065,-1.21064 2.73601,-1.81616 4.5762,-1.81616c1.88861,0 3.41398,0.58088 4.5762,1.7431c1.21065,1.16222 1.81542,2.68759 1.81542,4.5762v19.98526c-0.47511,-0.13324 -0.95329,-0.23836 -1.42773,-0.378c-1.76056,-0.51817 -3.51702,-1.07629 -5.27329,-1.6417c-1.75627,-0.56541 -3.51281,-1.13821 -5.27254,-1.68644c-0.24539,-0.07645 -0.49256,-0.13932 -0.7381,-0.21472z" data-paper-data="{&quot;origPos&quot;:null}" id="path899"/><path d="M264.06389,167.47672c1.21065,-1.21065 2.73602,-1.81542 4.5762,-1.81542c5.66583,0 10.41141,1.93675 14.23706,5.81083c0.06089,0.06013 0.11154,0.12505 0.17147,0.18564c-1.09117,-0.25656 -2.1793,-0.53753 -3.27819,-0.73437c-1.78995,-0.32062 -3.59153,-0.55186 -5.40823,-0.66205c-1.9738,-0.11972 -3.94502,-0.13265 -5.91447,-0.06412c-1.96944,0.06853 -3.93682,0.21845 -5.90328,0.42422c-0.02958,0.00309 -0.05914,0.00813 -0.08872,0.01118c0.22953,-1.21795 0.76043,-2.27288 1.60816,-3.15592z" data-paper-data="{&quot;origPos&quot;:null}" id="path897"/><path d="M248.66451,157.23507c0,-1.79174 0.60478,-3.29398 1.81542,-4.50462c1.21065,-1.21064 2.71286,-1.81542 4.50462,-1.81542c1.84019,0 3.36555,0.60478 4.5762,1.81542c1.21064,1.16222 1.81542,2.66445 1.81542,4.50462v13.53699c-1.57649,0.18195 -3.15276,0.37423 -4.72829,0.60837c-1.96483,0.292 -3.92905,0.61441 -5.89359,0.94163c-0.69612,0.11595 -1.39359,0.20605 -2.08978,0.32208z" data-paper-data="{&quot;origPos&quot;:null}" id="path893"/><path d="M221.31916,172.05291c0,-1.84017 0.58088,-3.36556 1.7431,-4.5762c1.21064,-1.21065 2.73676,-1.81542 4.57695,-1.81542c5.66582,0 10.41141,1.93675 14.23706,5.81083c0.63133,0.62344 1.19228,1.28029 1.72073,1.9526c-1.54614,0.23706 -3.09035,0.5226 -4.63808,0.71499c-1.96805,0.24462 -3.93741,0.44279 -5.90924,0.5696c-1.97183,0.1268 -3.94643,0.18218 -5.92341,0.14016c-1.80273,-0.03831 -3.59858,-0.16423 -5.39034,-0.34444c-0.27342,-0.74453 -0.41676,-1.5594 -0.41676,-2.45212z" data-paper-data="{&quot;origPos&quot;:null}" id="path891"/><path d="M207.66289,157.23507c0,-1.79174 0.60626,-3.29398 1.81691,-4.50462c1.21064,-1.21064 2.71137,-1.81542 4.50313,-1.81542c1.84019,0 3.36555,0.60478 4.5762,1.81542c1.21064,1.16222 1.81542,2.66445 1.81542,4.50462v17.09998c-1.4532,-0.1704 -2.90574,-0.34977 -4.35402,-0.58302c-2.79264,-0.44977 -5.57442,-1.03209 -8.35764,-1.59846z" data-paper-data="{&quot;origPos&quot;:null}" id="path887"/><path d="M195.65354,167.6221c1.21065,-1.21064 2.73602,-1.81616 4.5762,-1.81616c1.84019,0 3.3424,0.60552 4.50462,1.81616c1.16746,1.12077 1.75738,2.56482 1.79902,4.316c-0.51239,-0.105 -1.02646,-0.18934 -1.53882,-0.29449c-3.56557,-0.7318 -7.13183,-1.44531 -10.70985,-1.99883c0.30256,-0.76037 0.75705,-1.43536 1.36883,-2.02268z" data-paper-data="{&quot;origPos&quot;:null}" id="path885"/><path d="M174.08025,167.69517c1.21065,-1.21066 2.73602,-1.81691 4.5762,-1.81691c1.84019,0 3.3663,0.60626 4.57695,1.81691c0.31263,0.31264 0.58078,0.64816 0.81265,1.00277c-0.39609,-0.0092 -0.78949,-0.05552 -1.18617,-0.05666c-2.79143,-0.00835 -5.92278,0.12483 -9.26497,0.36383c-0.14978,0.01072 -0.32132,0.03358 -0.47194,0.04473c0.26048,-0.48328 0.56291,-0.94385 0.95729,-1.35466z" data-paper-data="{&quot;origPos&quot;:null}" id="path881"/><path d="M137.71969,167.69517c0,-4.74574 1.59853,-8.71781 4.79464,-11.91392c3.24454,-3.24454 7.23976,-4.86622 11.98549,-4.86622c4.74572,0 8.74096,1.62168 11.98549,4.86622c3.24453,3.19611 4.86621,7.16818 4.86621,11.91392c0,0.52797 -0.07985,1.02352 -0.12227,1.53435c-2.65993,0.22088 -5.34614,0.45285 -8.16528,0.77537c-1.90682,0.21815 -3.84954,0.49572 -5.78325,0.74779c0.03834,-0.03381 0.08687,-0.04435 0.12451,-0.07977c0.82323,-0.82324 1.23463,-1.8155 1.23463,-2.97773c0,-1.16224 -0.4114,-2.13136 -1.23463,-2.90616c-0.77481,-0.77482 -1.7432,-1.16231 -2.90542,-1.16231c-1.1138,0 -2.08291,0.41214 -2.90616,1.23538c-0.77482,0.77482 -1.16231,1.71931 -1.16231,2.8331v3.97976c-3.11012,0.45295 -6.20896,0.91956 -9.14569,1.39492c-1.39959,0.22655 -2.2323,0.39965 -3.56597,0.62403z" data-paper-data="{&quot;origPos&quot;:null}" id="path852"/></g></g></g></svg>