<svg version="1.1" xmlns="http://www.w3.org/2000/svg" xmlns:xlink="http://www.w3.org/1999/xlink" width="92.59171" height="35.38493"><g transform="translate(-193.93739,-162.19971)"><g data-paper-data="{&quot;isPaintingLayer&quot;:true}" fill="#cfbbfb" fill-rule="nonzero" stroke="none" stroke-width="0.11006" stroke-linecap="butt" stroke-linejoin="miter" stroke-miterlimit="10" stroke-dasharray="" stroke-dashoffset="0" font-family="none" font-weight="none" font-size="none" text-anchor="none" style="mix-blend-mode: normal"><path d="M205.59457,197.58465c-4.63608,0 -8.36832,-3.29294 -8.36832,-7.38264c0,-4.08965 3.73224,-7.38169 8.36832,-7.38169h0.55668c-0.80433,-1.13448 -1.27587,-2.47264 -1.27587,-3.91472c0,-0.67379 0.10993,-1.3231 0.29993,-1.94254h-2.86965c-4.63604,0 -8.36827,-3.29198 -8.36827,-7.3816c0,-4.08974 3.73224,-7.38174 8.36827,-7.38174h64.9176c4.63603,0 8.36823,3.29199 8.36823,7.38174c0,0.67379 -0.1108,1.32305 -0.30037,1.94244h2.86966c4.63608,0 8.36832,3.29204 8.36832,7.38169c0,4.08965 -3.73224,7.38169 -8.36832,7.38169h-0.55569c0.8039,1.13435 1.27492,2.47272 1.27492,3.91472c0,4.0897 -3.73233,7.38264 -8.36832,7.38264z" data-paper-data="{&quot;origPos&quot;:null}" id="path3955"/></g></g></svg>