<svg version="1.1" xmlns="http://www.w3.org/2000/svg" xmlns:xlink="http://www.w3.org/1999/xlink" width="96.31754" height="21.8784" viewBox="0,0,96.31754,21.8784"><g transform="translate(-191.36558,-168.28315)"><g data-paper-data="{&quot;isPaintingLayer&quot;:true}" fill="#65a3ff" fill-rule="nonzero" stroke="none" stroke-width="0.35275" stroke-linecap="butt" stroke-linejoin="miter" stroke-miterlimit="10" stroke-dasharray="" stroke-dashoffset="0" font-family="none" font-weight="none" font-size="none" text-anchor="none" style="mix-blend-mode: normal"><path d="M208.06015,182.3314c0,7.26625 -7.80663,7.35626 -7.80663,7.35626c-9.00765,0.66054 -8.88755,-4.32368 -8.88755,-4.32368c-0.06005,-5.22443 6.78577,-4.11348 6.78577,-4.11348c-6.93589,-1.59136 -5.94505,-7.32624 -5.94505,-7.32624c0.84071,-6.0051 6.78577,-5.61477 6.78577,-5.61477c7.47635,-0.33028 8.22699,2.52214 8.04684,4.26363c-0.42036,3.96335 -7.5364,3.12263 -7.5364,3.12263c8.9476,1.171 8.55727,6.63564 8.55727,6.63564z" id="path7714"/><path d="M218.50903,181.82096c0,0 0,1.50129 2.13181,0.69059c0,0 2.97253,-1.35114 4.71401,1.47126c0,0 1.50128,2.58219 -1.50128,4.74402c0,0 -3.96337,2.97253 -9.78832,0.36031c0,0 -3.84327,-1.71147 -3.84327,-7.23616c0,0 -0.21018,-6.09518 5.40459,-7.80663c0,0 5.16439,-1.74147 8.64735,1.50129c0,0 1.50128,1.29109 0.66056,3.6631c0,0 -0.87074,2.40204 -4.32367,1.74149c0,0 -2.10178,-0.66057 -2.10178,0.87072z" id="path7716"/><path d="M238.6355,189.41743c-1.62138,0.66057 -3.03258,0.66057 -3.03258,0.66057c-8.76745,0 -8.76745,-7.62649 -8.76745,-7.62649c0,-9.27789 8.76745,-8.43717 8.76745,-8.43717c7.74658,0 7.74658,7.59645 7.74658,7.59645c0,1.8616 -0.3603,3.30281 -0.93079,4.41376c-1.26107,2.34199 -3.78321,3.39289 -3.78321,3.39289zM234.22175,182.54158c0.06005,0.84072 0.54046,1.11095 1.20102,1.11095c0.66056,0 1.171,-0.42036 1.171,-1.11095c0,-0.63054 -0.42036,-1.26106 -1.171,-1.26106c-0.69059,0 -1.26107,0.63052 -1.20102,1.26106z" id="path7718"/><path d="M258.54054,173.95429c2.43207,0.63054 2.85242,2.64224 2.88245,3.69314c0.09008,2.58219 -1.80153,3.63309 -1.80153,3.63309c-2.52214,1.47124 -5.19441,-0.57049 -5.19441,-0.57049c1.32112,9.6682 -4.77406,9.00766 -4.77406,9.00766c-3.39288,0.09008 -4.32367,-2.91247 -4.32367,-2.91247c-1.44122,-4.29366 -0.54046,-9.84838 -0.54046,-9.84838c0.84071,-3.81331 4.56388,-3.60307 4.56388,-3.60307c3.36286,-0.1201 3.96337,2.70229 3.96337,2.70229c2.07176,-2.9425 5.22444,-2.10178 5.22444,-2.10178z" id="path7720"/><path d="M278.28701,186.26475c0,0 0.33028,2.10178 -2.13181,3.09263c0,0 -4.50383,1.56132 -9.36796,-0.42036c0,0 -4.32368,-1.68144 -4.1135,-7.26618c0,0 0,-5.7649 4.98424,-7.56642c0,0 5.28449,-1.83155 9.12776,1.59134c0,0 1.6514,1.44124 1.68143,4.20358c0.03003,3.09263 -3.15268,3.93335 -5.94505,3.39289c2.31196,1.86157 5.40459,0.18015 5.7649,2.97253zM270.54043,180.74006c0.06005,0.8407 0.54046,1.11093 1.20102,1.11093c0.66056,0 1.171,-0.42036 1.171,-1.11093c0,-0.63054 -0.42036,-1.26108 -1.171,-1.26108c-0.69059,0 -1.26107,0.63054 -1.20102,1.26108z" id="path7722"/><path d="M284.26021,180.61996c-2.13181,0 -3.36286,-1.47126 -3.36286,-3.36286c0,-1.86157 1.23105,-3.39289 3.36286,-3.39289c2.25191,0 3.42291,1.53131 3.42291,3.39289c0,1.8916 -1.171,3.36286 -3.42291,3.36286zM284.26021,190.04797c-2.13181,0 -3.36286,-1.47126 -3.36286,-3.36286c0,-1.89162 1.23105,-3.42291 3.36286,-3.42291c2.25191,0 3.42291,1.53129 3.42291,3.42291c0,1.8916 -1.171,3.36286 -3.42291,3.36286z" id="path7724"/></g></g></svg>