<svg version="1.1" xmlns="http://www.w3.org/2000/svg" xmlns:xlink="http://www.w3.org/1999/xlink" width="238.05129" height="238.05129"><defs><radialGradient cx="239.94762" cy="180.11349" r="119.02565" fx="239.94762" fy="180.11349" gradientUnits="userSpaceOnUse" id="color-1"><stop offset="0" stop-color="#ffffff" stop-opacity="0"/><stop offset="0.79374" stop-color="#ffffff" stop-opacity="0.2"/><stop offset="0.89468" stop-color="#ffffff" stop-opacity="0.2"/><stop offset="1" stop-color="#ffffff" stop-opacity="0.3"/></radialGradient><linearGradient x1="241.53909" y1="207.68944" x2="241.53909" y2="61.54984" gradientUnits="userSpaceOnUse" id="color-2"><stop offset="0" stop-color="#ffffff" stop-opacity="0"/><stop offset="0.49547" stop-color="#ffffff" stop-opacity="0.04459"/><stop offset="0.77547" stop-color="#ffffff" stop-opacity="0.2"/><stop offset="1" stop-color="#ffffff" stop-opacity="0.31"/></linearGradient><linearGradient x1="242.55849" y1="151.18815" x2="242.55849" y2="297.32772" gradientUnits="userSpaceOnUse" id="color-3"><stop offset="0" stop-color="#ffffff" stop-opacity="0"/><stop offset="0.49547" stop-color="#ffffff" stop-opacity="0.04459"/><stop offset="0.77547" stop-color="#ffffff" stop-opacity="0.2"/><stop offset="1" stop-color="#ffffff" stop-opacity="0.31"/></linearGradient></defs><g transform="translate(-120.92197,-61.08784)"><g data-paper-data="{&quot;isPaintingLayer&quot;:true}" fill="none" fill-rule="nonzero" stroke="none" stroke-width="none" stroke-linecap="butt" stroke-linejoin="miter" stroke-miterlimit="10" stroke-dasharray="" stroke-dashoffset="0" font-family="none" font-weight="none" font-size="none" text-anchor="none" style="mix-blend-mode: normal"><path d="M120.92197,180.11349c0,-65.73599 53.28955,-119.02565 119.02565,-119.02565c65.73599,0 119.02565,53.28955 119.02565,119.02565c0,65.73599 -53.28955,119.02565 -119.02565,119.02565c-65.73599,0 -119.02565,-53.28955 -119.02565,-119.02565z" id="path5051" fill="url(#color-1)" stroke-width="3.23729"/><path d="M140.22348,134.61957c0,-40.60913 44.64807,-73.52939 99.72414,-73.52939c55.07621,0 99.72414,32.92026 99.72414,73.52939c0,40.60913 -44.64807,73.52939 -99.72414,73.52939c-55.07621,0 -99.72414,-32.92026 -99.72414,-73.52939z" id="circle5371" fill="url(#color-2)" stroke-width="2.32901"/><path d="M240.96723,150.7286c55.07621,0 99.72414,32.92026 99.72414,73.52939c0,40.60913 -44.64807,73.52939 -99.72414,73.52939c-55.07621,0 -99.72414,-32.92026 -99.72414,-73.52939c0,-40.60913 44.64807,-73.52939 99.72414,-73.52939z" id="circle5371-12" fill="url(#color-3)" stroke-width="2.32901"/></g></g></svg>