<svg version="1.1" xmlns="http://www.w3.org/2000/svg" xmlns:xlink="http://www.w3.org/1999/xlink" width="108.78398" height="105.80039"><g transform="translate(-184.82868,-126.56844)"><g data-paper-data="{&quot;isPaintingLayer&quot;:true}" fill="none" fill-rule="nonzero" stroke="#ffffff" stroke-width="none" stroke-linecap="none" stroke-linejoin="miter" stroke-miterlimit="10" stroke-dasharray="" stroke-dashoffset="0" font-family="none" font-weight="none" font-size="none" text-anchor="none" style="mix-blend-mode: normal"><path d="M238.52934,139.76326c0,-1.10457 0.89543,-2 2,-2c1.10457,0 2,0.89543 2,2c0,1.10457 -0.89543,2 -2,2c-1.10457,0 -2,-0.89543 -2,-2z" fill="#d8c4ff" stroke-width="0.5" stroke-linecap="butt"/><path d="M213.82319,179.53837c0,-14.7494 11.95675,-26.70614 26.70614,-26.70614c14.7494,0 26.70614,11.95675 26.70614,26.70614c0,14.7494 -11.95675,26.70614 -26.70614,26.70614c-14.7494,0 -26.70614,-11.95675 -26.70614,-26.70614z" data-paper-data="{&quot;origPos&quot;:null}" fill="none" stroke-width="3" stroke-linecap="butt"/><path d="M194.94122,146.36946l7.82931,6.75011" data-paper-data="{&quot;origPos&quot;:null,&quot;origRot&quot;:0}" fill="none" stroke-width="4" stroke-linecap="round"/><path d="M186.82868,201.7374l9.93787,-4.69553" data-paper-data="{&quot;origPos&quot;:null,&quot;origRot&quot;:0}" fill="none" stroke-width="4" stroke-linecap="round"/><path d="M222.93457,222.23014l-4.7485,8.13869" data-paper-data="{&quot;origPos&quot;:null,&quot;origRot&quot;:0}" fill="none" stroke-width="4" stroke-linecap="round"/><path d="M265.13441,217.93964l5.68725,7.99149" data-paper-data="{&quot;origPos&quot;:null,&quot;origRot&quot;:0}" fill="none" stroke-width="4" stroke-linecap="round"/><path d="M291.61266,191.73538l-10.08139,-2.05641" data-paper-data="{&quot;origPos&quot;:null,&quot;origRot&quot;:0}" fill="none" stroke-width="4" stroke-linecap="round"/><path d="M285.13801,147.43023l-7.62753,5.37556" data-paper-data="{&quot;origPos&quot;:null,&quot;origRot&quot;:0}" fill="none" stroke-width="4" stroke-linecap="round"/><path d="M240.33813,128.56844l-0.30112,9.55473" data-paper-data="{&quot;origPos&quot;:null,&quot;origRot&quot;:0}" fill="none" stroke-width="4" stroke-linecap="round"/></g></g></svg>