<svg version="1.1" xmlns="http://www.w3.org/2000/svg" xmlns:xlink="http://www.w3.org/1999/xlink" width="100.08777" height="97.72533"><g transform="translate(-190.4191,-129.98481)"><g data-paper-data="{&quot;isPaintingLayer&quot;:true}" fill="none" fill-rule="nonzero" stroke="#ffffff" stroke-width="none" stroke-linecap="none" stroke-linejoin="miter" stroke-miterlimit="10" stroke-dasharray="" stroke-dashoffset="0" font-family="none" font-weight="none" font-size="none" text-anchor="none" style="mix-blend-mode: normal"><path d="M238.52933,139.76326c0,-1.10457 0.89543,-2 2,-2c1.10457,0 2,0.89543 2,2c0,1.10457 -0.89543,2 -2,2c-1.10457,0 -2,-0.89543 -2,-2z" fill="#d8c4ff" stroke-width="0.5" stroke-linecap="butt"/><path d="M202.73173,156.24154c0,-1.10457 0.89543,-2 2,-2c1.10457,0 2,0.89543 2,2c0,1.10457 -0.89543,2 -2,2c-1.10457,0 -2,-0.89543 -2,-2z" data-paper-data="{&quot;origPos&quot;:null}" fill="#d8c4ff" stroke-width="0.5" stroke-linecap="butt"/><path d="M199.32243,195.73253c0,-1.10457 0.89543,-2 2,-2c1.10457,0 2,0.89543 2,2c0,1.10457 -0.89543,2 -2,2c-1.10457,0 -2,-0.89543 -2,-2z" fill="#d8c4ff" stroke-width="0.5" stroke-linecap="butt"/><path d="M224.03982,217.60884c0,-1.10457 0.89543,-2 2,-2c1.10457,0 2,0.89543 2,2c0,1.10457 -0.89543,2 -2,2c-1.10457,0 -2,-0.89543 -2,-2z" fill="#d8c4ff" stroke-width="0.5" stroke-linecap="butt"/><path d="M257.56456,215.90421c0,-1.10457 0.89543,-2 2,-2c1.10457,0 2,0.89543 2,2c0,1.10457 -0.89543,2 -2,2c-1.10457,0 -2,-0.89543 -2,-2z" fill="#d8c4ff" stroke-width="0.5" stroke-linecap="butt"/><path d="M275.46335,195.44844c0,-1.10457 0.89543,-2 2,-2c1.10457,0 2,0.89543 2,2c0,1.10457 -0.89543,2 -2,2c-1.10457,0 -2,-0.89543 -2,-2z" fill="#d8c4ff" stroke-width="0.5" stroke-linecap="butt"/><path d="M271.48582,156.80973c0,-1.10457 0.89543,-2 2,-2c1.10457,0 2,0.89543 2,2c0,1.10457 -0.89543,2 -2,2c-1.10457,0 -2,-0.89543 -2,-2z" fill="#d8c4ff" stroke-width="0.5" stroke-linecap="butt"/><path d="M213.82318,179.53837c0,-14.7494 11.95675,-26.70614 26.70614,-26.70614c14.7494,0 26.70614,11.95675 26.70614,26.70614c0,14.7494 -11.95675,26.70614 -26.70614,26.70614c-14.7494,0 -26.70614,-11.95675 -26.70614,-26.70614z" data-paper-data="{&quot;origPos&quot;:null}" fill="none" stroke-width="6" stroke-linecap="butt"/><path d="M196.80468,149.78583l13.41975,11.71939" data-paper-data="{&quot;origPos&quot;:null,&quot;origRot&quot;:0}" fill="none" stroke-width="4" stroke-linecap="round"/><path d="M192.4191,202.66914l15.37302,-9.8201" data-paper-data="{&quot;origPos&quot;:null,&quot;origRot&quot;:0}" fill="none" stroke-width="4" stroke-linecap="round"/><path d="M222.84475,225.71014l4.9038,-12.95266" data-paper-data="{&quot;origPos&quot;:null,&quot;origRot&quot;:0}" fill="none" stroke-width="4" stroke-linecap="round"/><path d="M256.59348,210.9516l9.4142,11.40787" data-paper-data="{&quot;origPos&quot;:null,&quot;origRot&quot;:0}" fill="none" stroke-width="4" stroke-linecap="round"/><path d="M288.50687,195.77291l-14.74008,-3.29873" data-paper-data="{&quot;origPos&quot;:null,&quot;origRot&quot;:0}" fill="none" stroke-width="4" stroke-linecap="round"/><path d="M270.52244,159.48323l11.19919,-8.63663" data-paper-data="{&quot;origPos&quot;:null,&quot;origRot&quot;:0}" fill="none" stroke-width="4" stroke-linecap="round"/><path d="M240.33812,131.98481l0.00946,13.28169" data-paper-data="{&quot;origPos&quot;:null,&quot;origRot&quot;:0}" fill="none" stroke-width="4" stroke-linecap="round"/></g></g></svg>