<svg version="1.1" xmlns="http://www.w3.org/2000/svg" xmlns:xlink="http://www.w3.org/1999/xlink" width="146.71801" height="323.72522" viewBox="0,0,146.71801,323.72522"><defs><radialGradient cx="213.57798" cy="156.00824" r="108.27897" gradientUnits="userSpaceOnUse" id="color-1"><stop offset="0" stop-color="#00ffff"/><stop offset="1" stop-color="#003fff"/></radialGradient><linearGradient x1="227.84449" y1="197.84042" x2="252.75688" y2="194.8365" gradientUnits="userSpaceOnUse" id="color-2"><stop offset="0" stop-color="#3b3b3b"/><stop offset="1" stop-color="#000000"/></linearGradient><linearGradient x1="177.44117" y1="201.86123" x2="231.64768" y2="203.60199" gradientUnits="userSpaceOnUse" id="color-3"><stop offset="0" stop-color="#000000"/><stop offset="1" stop-color="#3b3b3b"/></linearGradient><radialGradient cx="187.5908" cy="80.36909" r="57.87147" gradientUnits="userSpaceOnUse" id="color-4"><stop offset="0" stop-color="#b6b6b6"/><stop offset="1" stop-color="#666666"/></radialGradient><radialGradient cx="197.29858" cy="83.57699" r="17.4949" gradientUnits="userSpaceOnUse" id="color-5"><stop offset="0" stop-color="#ff0000"/><stop offset="1" stop-color="#ff0000" stop-opacity="0"/></radialGradient><radialGradient cx="198.21694" cy="85.37301" r="11.43229" gradientUnits="userSpaceOnUse" id="color-6"><stop offset="0" stop-color="#ff0000"/><stop offset="1" stop-color="#d20000"/></radialGradient><linearGradient x1="147.81059" y1="18.88679" x2="281.01793" y2="16.94535" gradientUnits="userSpaceOnUse" id="color-7"><stop offset="0" stop-color="#cc7700"/><stop offset="1" stop-color="#946f48"/></linearGradient></defs><g transform="translate(-148.10501,-15.55508)"><g data-paper-data="{&quot;isPaintingLayer&quot;:true}" fill-rule="nonzero" stroke-linejoin="miter" stroke-miterlimit="10" stroke-dasharray="" stroke-dashoffset="0" style="mix-blend-mode: normal"><path d="M250.49583,254.16824c0,0 14.01633,14.33213 21.70641,25.10625c6.50463,9.11326 8.27077,16.04239 13.66147,25.85576c0.00903,0.01644 -20.64116,-0.23499 -20.64116,-0.23499c0,0 -8.4037,-28.47999 -24.98379,-29.25375c-4.14908,-0.40375 -2.66758,5.91246 -0.97379,9.72151c3.42702,7.70677 9.21535,19.67344 9.21535,19.67344l-21.37171,0.32228c0,0 -5.60033,-11.19467 -10.25158,-18.35983c-4.62027,-7.11743 -14.50553,-18.23753 -14.50553,-18.23753z" data-paper-data="{&quot;origPos&quot;:null,&quot;index&quot;:null}" fill="#333333" stroke="#000000" stroke-width="2.5" stroke-linecap="butt"/><path d="M250.63538,338.65312v-10.81353h43.16551v10.81353z" data-paper-data="{&quot;origPos&quot;:null}" fill="#ffffff" stroke="#000000" stroke-width="1" stroke-linecap="butt"/><path d="M243.98771,335.48747l-0.04432,-11.23762l7.17948,4.12973l-0.39886,10.14058z" data-paper-data="{&quot;origPos&quot;:null}" fill="#ffffff" stroke="#000000" stroke-width="1" stroke-linecap="butt"/><path d="M251.38878,327.80247l-6.60333,-3.7299l42.19052,0.41947l5.89425,3.21459z" data-paper-data="{&quot;origPos&quot;:null}" fill="#ffffff" stroke="#000000" stroke-width="1" stroke-linecap="butt"/><path d="M252.96206,336.3486v-6.55902h38.46782v6.55902z" data-paper-data="{&quot;origPos&quot;:null}" fill="#ff2e2e" stroke="#000000" stroke-width="0" stroke-linecap="butt"/><path d="M251.72116,326.37709l-0.88635,-0.79772l34.74513,0.17727l1.59544,0.62045z" data-paper-data="{&quot;origPos&quot;:null}" fill="#ff2e2e" stroke="#000000" stroke-width="0" stroke-linecap="butt"/><path d="M244.57151,330.78958l5.67266,2.4818" data-paper-data="{&quot;origPos&quot;:null}" fill="none" stroke="#000000" stroke-width="0.5" stroke-linecap="round"/><path d="M181.54908,130.75269l56.48819,-6.18201l20.30518,132.2614l-55.57306,6.07162z" data-paper-data="{&quot;origPos&quot;:null,&quot;index&quot;:null,&quot;origRot&quot;:0}" id="ID0.9171315478160977" fill="url(#color-1)" stroke="#000000" stroke-width="2.54325" stroke-linecap="butt"/><g data-paper-data="{&quot;origPos&quot;:null,&quot;index&quot;:null,&quot;origRot&quot;:0}" stroke="#000000" stroke-width="0" stroke-linecap="butt"><path d="M221.81415,200.09393l-5.00796,0.67615l4.12942,-20.69644l-5.54258,1.19716l2.96249,-17.04619l17.84649,-2.65766l-4.34822,13.16748l3.81395,-0.64759l-4.33193,19.81239l3.39563,-0.13739l-16.38814,32.16284z" data-paper-data="{&quot;index&quot;:null,&quot;origPos&quot;:null}" fill="#ffde00"/><path d="M219.82815,197.29903l-5.00796,0.67615l4.12945,-20.69644l-5.54258,1.19716l2.9625,-17.04619l17.84649,-2.65766l-4.34822,13.16748l3.81395,-0.64759l-4.33192,19.81239l3.39563,-0.13739l-14.83405,32.22835z" data-paper-data="{&quot;index&quot;:null,&quot;origPos&quot;:null}" fill="#ff0000"/><path d="M216.75931,197.41624l-5.00798,0.67615l4.12945,-20.69644l-5.54258,1.19716l2.9625,-17.04619l17.84649,-2.65766l-4.34822,13.16748l3.81395,-0.6476l-4.33192,19.81239l3.39562,-0.13739l-12.04007,30.37426z" data-paper-data="{&quot;index&quot;:null,&quot;origPos&quot;:null}" fill="#000000"/></g><path d="M217.92187,135.14162c0,0 6.58874,-3.88808 10.78564,-6.50447c4.20311,-2.62026 11.02277,-5.11647 11.02277,-5.11647c0,0 3.90667,20.12171 4.30932,22.63078c4.60496,28.69334 19.93388,119.56012 19.93388,119.56012l-22.31451,3.65491z" data-paper-data="{&quot;origPos&quot;:null,&quot;index&quot;:null,&quot;origRot&quot;:0}" id="ID0.5423141438513994" fill="url(#color-2)" stroke="#000000" stroke-width="2.54325" stroke-linecap="round"/><path d="M242.64388,126.65057c0,0 7.84281,-2.94752 10.65847,-1.15021c8.447,5.39199 21.64465,40.0353 28.23384,64.23534c9.3191,29.77134 -35.64673,54.94677 -35.64673,54.94677c0,0 1.22487,-8.03601 -2.59628,-7.94368c-4.26323,0.10302 -0.28764,-6.93401 -0.28764,-6.93401c0,0 27.48536,-9.74758 20.75046,-38.99863c-6.73494,-29.25105 -16.47794,-39.74141 -16.47794,-39.74141z" data-paper-data="{&quot;origPos&quot;:null,&quot;index&quot;:null,&quot;origRot&quot;:0}" id="ID0.5423141438513994" fill="#000000" stroke="#000000" stroke-width="2.54325" stroke-linecap="round"/><path d="M228.7799,271.6418l-27.97572,1.90518c0,0 -12.95428,-90.71611 -17.4349,-119.42444c-0.3918,-2.5104 -2.94232,-23.1009 -2.94232,-23.1009c0,0 7.79656,0.94154 12.91824,2.37503c4.34632,1.21646 15.98535,3.07404 15.98535,3.07404z" data-paper-data="{&quot;origPos&quot;:null,&quot;index&quot;:null,&quot;origRot&quot;:0}" id="ID0.5423141438513994" fill="url(#color-3)" stroke="#000000" stroke-width="2.54325" stroke-linecap="round"/><path d="M184.47772,155.41346c0,0 -10.14978,13.96219 -6.69833,43.64563c3.45149,29.68344 37.39421,30.4894 37.39421,30.4894c0,0 6.17708,5.70001 2.06882,6.69943c-3.68228,0.89581 -5.59181,12.21888 -5.59181,12.21888c0,0 -52.34673,-13.60788 -53.50494,-44.45395c-1.88351,-24.81975 5.68676,-64.14722 11.93535,-71.47448c2.08287,-2.44243 10.57283,-1.64576 10.57283,-1.64576z" data-paper-data="{&quot;origPos&quot;:null,&quot;index&quot;:null,&quot;origRot&quot;:0}" id="ID0.5423141438513994" fill="#000000" stroke="#000000" stroke-width="2.54325" stroke-linecap="round"/><path d="M210.23544,35.05076c15.67953,-0.23085 29.99154,5.03531 40.44778,13.72976c10.45631,8.69554 11.54274,22.46587 10.55426,37.97745c-0.68106,10.68752 -3.68874,21.35856 -13.33203,29.9323c-10.12118,8.99739 -25.57254,15.90128 -35.81918,16.09274c-10.24644,0.19149 -25.90517,-3.85533 -36.36145,-12.54975c-10.45645,-8.69569 -17.03274,-18.39938 -17.28805,-31.88062c-0.25527,-13.48134 1.77212,-29.39066 11.89346,-38.38917c10.12121,-8.99742 24.22583,-14.68192 39.90519,-14.91275z" data-paper-data="{&quot;origPos&quot;:null,&quot;origRot&quot;:0}" id="ID0.7719937418587506" fill="#ffd499" stroke="#806c4d" stroke-width="2.5" stroke-linecap="butt"/><path d="M213.80426,37.65789c5.8989,0.10096 3.94551,9.8506 4.37045,14.98697c0.96121,11.63362 5.01471,24.9459 -0.218,36.04562c-4.51031,8.6351 -14.77344,14.93802 -25.06989,17.79245c-11.17061,2.69768 -22.85634,3.56467 -27.58622,-1.7114c-8.2225,-16.06205 -4.01318,-39.58069 7.8464,-54.17687c10.42217,-11.93578 23.50347,-13.22382 40.65721,-12.93676z" data-paper-data="{&quot;origPos&quot;:null,&quot;origRot&quot;:0}" id="ID0.479907026514411" fill="url(#color-4)" stroke="#666666" stroke-width="2.5" stroke-linecap="round"/><path d="M238.00244,77.24112c0.1857,4.73466 -0.0542,15.00614 -0.0542,15.00614" data-paper-data="{&quot;origPos&quot;:null,&quot;origRot&quot;:0}" id="ID0.21129454905167222" fill="none" stroke="#000000" stroke-width="2.5" stroke-linecap="round"/><path d="M222.6395,115.54655l-15.88329,0.11509" data-paper-data="{&quot;origPos&quot;:null,&quot;index&quot;:null,&quot;origRot&quot;:0}" fill="none" stroke="#000000" stroke-width="2" stroke-linecap="round"/><path d="M179.8043,83.70374c-0.08018,-8.43357 7.68724,-15.32709 17.34905,-15.3971c9.66184,-0.06999 17.5593,6.71001 17.6395,15.14357c0.08018,8.43357 -7.68724,15.32709 -17.34905,15.3971c-9.66184,0.06999 -17.5593,-6.71001 -17.6395,-15.14357z" data-paper-data="{&quot;origPos&quot;:null,&quot;origRot&quot;:0}" fill="url(#color-5)" stroke="none" stroke-width="0" stroke-linecap="butt"/><path d="M185.69488,83.81225c-0.05242,-5.51103 5.02333,-10.01571 11.33699,-10.06146c6.31365,-0.04576 11.47439,4.38474 11.5268,9.89579c0.05242,5.51103 -5.02333,10.01571 -11.33699,10.06146c-6.31365,0.04576 -11.47439,-4.38474 -11.5268,-9.89579z" data-paper-data="{&quot;origPos&quot;:null,&quot;origRot&quot;:0}" fill="url(#color-6)" stroke="#666666" stroke-width="2" stroke-linecap="butt"/><path d="M164.03394,106.31516c0,0 3.4691,-20.68248 7.68261,-34.19281c2.78637,-8.93441 10.2576,-22.91591 10.2576,-22.91591l34.69882,6.24094l0.55994,4.37884c0,0 -9.59302,-0.75811 -14.88272,-1.1917c-4.88817,-0.40066 -9.82586,-3.23079 -13.91913,-0.86431c-7.49567,4.33352 -7.38079,12.29969 -9.80332,19.85716c-3.27305,10.21079 -5.4712,29.16679 -5.4712,29.16679z" data-paper-data="{&quot;origRot&quot;:0,&quot;origPos&quot;:null}" fill="#7a7a7a" stroke="none" stroke-width="0" stroke-linecap="butt"/><path d="M220.32725,59.7929l-0.31739,-4.23135l34.85223,-0.12623c0,0 -7.17525,3.04182 -14.5175,3.49212c-7.39703,0.45363 -19.73911,0.86879 -19.73911,0.86879z" data-paper-data="{&quot;origPos&quot;:null,&quot;origRot&quot;:0}" fill="#b0936a" stroke="none" stroke-width="0" stroke-linecap="butt"/><path d="M203.70102,113.66449c0,0 1.33694,-0.56362 1.36029,1.89175c0.022,2.31337 -1.90946,2.1176 -1.90946,2.1176" data-paper-data="{&quot;origPos&quot;:null,&quot;origRot&quot;:0}" fill="none" stroke="#000000" stroke-width="2" stroke-linecap="round"/><path d="M167.01164,108.92101l5.7441,0.97256l-0.62133,5.52509z" data-paper-data="{&quot;origPos&quot;:null,&quot;origRot&quot;:0}" fill="#b0936a" stroke="none" stroke-width="0" stroke-linecap="butt"/><path d="M218.21035,17.86073c14.73645,-0.00651 23.02473,1.02439 37.74453,1.63594c8.5231,0.35411 25.29183,0.37999 25.29183,0.37999c0,0 -10.60892,5.29855 -12.598,5.77475c-3.68924,0.88322 -10.26276,2.94537 -10.26276,2.94537c0,0 5.21273,1.12378 8.89281,2.32104c3.95643,1.28717 10.02962,2.47537 10.02962,2.47537c0,0 -6.07627,2.30707 -9.92242,3.19182c-4.80472,1.10528 -11.28734,3.66324 -11.28734,3.66324c0,0 7.62707,3.38805 13.40139,4.45912c5.80689,1.0771 13.42737,3.38547 13.42737,3.38547c0,0 -10.6497,5.1852 -17.574,6.13835c-17.46553,2.40606 -35.42151,-0.02383 -53.09686,0.25104c-10.77553,0.16635 -26.68046,-6.21523 -32.03168,2.20937c-14.11577,20.83958 -12.9229,73.39296 -17.12758,71.69322c-4.20488,-1.69988 -16.7782,-56.7852 -12.28707,-85.13648c1.73753,-10.95671 13.20327,-17.3796 27.57614,-22.68651c14.37287,-5.30686 26.72464,-2.4766 39.82409,-2.70116z" data-paper-data="{&quot;origPos&quot;:null,&quot;origRot&quot;:0}" id="ID0.5302143599838018" fill="url(#color-7)" stroke="#a96300" stroke-width="3.5" stroke-linecap="round"/><path d="M212.33864,251.28678l2.41972,-23.73259c0,0 2.0006,0.69588 3.22188,0.78301c1.04036,0.07421 2.57332,-0.36961 2.57332,-0.36961l3.39087,23.00118c0,0 -3.46127,0.93831 -5.76547,1.00145c-2.22512,0.06096 -5.84028,-0.68342 -5.84028,-0.68342z" data-paper-data="{&quot;origPos&quot;:null,&quot;origRot&quot;:0}" fill="#1f1f1f" stroke="#000000" stroke-width="0" stroke-linecap="butt"/><path d="M211.66687,250.47281c0,0 0.6511,-7.31027 1.26402,-11.99477c0.52493,-4.01197 1.6516,-10.28887 1.6516,-10.28887" data-paper-data="{&quot;origPos&quot;:null,&quot;origRot&quot;:0}" fill="none" stroke="#000000" stroke-width="2.54325" stroke-linecap="round"/><path d="M245.98442,248.20633c-2.23075,0.50769 -5.85473,0.46122 -5.85473,0.46122l-4.19232,-22.90031c0,0 1.61417,0.0477 2.58808,-0.28005c1.14331,-0.38475 2.83716,-1.54567 2.83716,-1.54567l10.00293,22.16891c0,0 -3.22695,1.60563 -5.38112,2.09589z" data-paper-data="{&quot;origPos&quot;:null,&quot;index&quot;:null,&quot;origRot&quot;:0}" fill="#1f1f1f" stroke="#000000" stroke-width="0" stroke-linecap="butt"/><path d="M240.78133,224.91325c0,0 3.54893,5.90902 5.35107,9.62807c2.10425,4.34249 4.65857,11.02864 4.65857,11.02864" data-paper-data="{&quot;origPos&quot;:null,&quot;origRot&quot;:0,&quot;index&quot;:null}" fill="none" stroke="#000000" stroke-width="2.54325" stroke-linecap="round"/></g></g></svg>