<svg version="1.1" xmlns="http://www.w3.org/2000/svg" xmlns:xlink="http://www.w3.org/1999/xlink" width="27.48286" height="12.57475" viewBox="0,0,27.48286,12.57475"><g transform="translate(-227.26714,-174.05409)"><g data-paper-data="{&quot;isPaintingLayer&quot;:true}" fill="none" fill-rule="nonzero" stroke="#000000" stroke-width="none" stroke-linecap="butt" stroke-linejoin="miter" stroke-miterlimit="10" stroke-dasharray="" stroke-dashoffset="0" font-family="none" font-weight="none" font-size="none" text-anchor="none" style="mix-blend-mode: normal"><path d="M253.75,180.85059c0,3.49534 -5.12067,4.77825 -12.3625,4.77825c-7.24183,0 -12.9875,-3.63999 -12.7375,-7.22506c0.40263,-5.77376 7.31504,-2.33144 12.7375,-2.33144c7.24183,0 12.3625,2.01695 12.3625,4.77825z" data-paper-data="{&quot;origPos&quot;:null}" fill="#000000" stroke-width="2"/><path d="M228.5125,176.01814l2.875,-1.71277l19.75,2.32447l2,1.71277l-18.90858,-0.72969z" data-paper-data="{&quot;origPos&quot;:null}" fill="#ffffff" stroke-width="0"/><path d="M253.5125,183.60326l-2.875,2.20213l-15.375,-0.12234l-5.75,-3.79255c0,0 3.1641,1.1867 5.02928,1.3198c5.59552,0.39933 18.97072,0.39297 18.97072,0.39297z" data-paper-data="{&quot;origPos&quot;:null,&quot;index&quot;:null}" fill="#ffffff" stroke-width="0"/><path d="M253.375,180.85059c0,3.49534 -5.12067,4.77825 -12.3625,4.77825c-7.24183,0 -12.9875,-3.63999 -12.7375,-7.22506c0.40263,-5.77376 7.31504,-2.33144 12.7375,-2.33144c7.24183,0 12.3625,2.01695 12.3625,4.77825z" data-paper-data="{&quot;origPos&quot;:null}" fill="none" stroke-width="2"/></g></g></svg>