<svg version="1.1" xmlns="http://www.w3.org/2000/svg" xmlns:xlink="http://www.w3.org/1999/xlink" width="15.11054" height="15.19434" viewBox="0,0,15.11054,15.19434"><g transform="translate(-233.0118,-172.10922)"><g data-paper-data="{&quot;isPaintingLayer&quot;:true}" fill="none" fill-rule="nonzero" stroke="none" stroke-width="none" stroke-linecap="butt" stroke-linejoin="miter" stroke-miterlimit="10" stroke-dasharray="" stroke-dashoffset="0" font-family="none" font-weight="none" font-size="none" text-anchor="none" style="mix-blend-mode: normal"><path d="M247.02994,179.74932c-0.0233,4.01832 -3.43554,6.57469 -6.69804,6.55351c-3.26249,-0.02118 -6.34327,-2.7167 -6.31997,-6.73502c0.0233,-4.01832 3.13397,-6.47963 6.39647,-6.45845c3.26249,0.02118 6.64484,2.62165 6.62154,6.63997z" data-paper-data="{&quot;origPos&quot;:null,&quot;origRot&quot;:0}" fill="#000000" stroke="#000000" stroke-width="2"/><path d="M234.30862,175.72273l2.79278,-3.06373l6.65222,0.15129l2.65973,2.9802z" data-paper-data="{&quot;origPos&quot;:null,&quot;origRot&quot;:0}" fill="#ffffff" stroke="none" stroke-width="0"/><path d="M236.93001,186.28075l-1.92818,-2.12869l11.64119,0.34009l-2.87521,1.83299z" data-paper-data="{&quot;origPos&quot;:null,&quot;origRot&quot;:0}" fill="#ffffff" stroke="none" stroke-width="0"/><path d="M247.12234,179.74992c-0.0233,4.01832 -3.43554,6.57469 -6.69804,6.55351c-3.26249,-0.02118 -6.34327,-2.7167 -6.31997,-6.73502c0.0233,-4.01832 3.13397,-6.47963 6.39647,-6.45845c3.26249,0.02118 6.64484,2.62165 6.62154,6.63997z" data-paper-data="{&quot;origPos&quot;:null,&quot;origRot&quot;:0}" fill="none" stroke="#000000" stroke-width="2"/></g></g></svg>