<svg version="1.1" xmlns="http://www.w3.org/2000/svg" xmlns:xlink="http://www.w3.org/1999/xlink" width="161.15736" height="306.77007" viewBox="0,0,161.15736,306.77007"><defs><radialGradient cx="207.69106" cy="165.28689" r="116.05917" gradientUnits="userSpaceOnUse" id="color-1"><stop offset="0" stop-color="#00ffff"/><stop offset="1" stop-color="#003fff"/></radialGradient><linearGradient x1="224.8609" y1="204.45803" x2="251.40965" y2="200.85662" gradientUnits="userSpaceOnUse" id="color-2"><stop offset="0" stop-color="#3b3b3b"/><stop offset="1" stop-color="#000000"/></linearGradient><linearGradient x1="171.05399" y1="209.79721" x2="229.19473" y2="209.79721" gradientUnits="userSpaceOnUse" id="color-3"><stop offset="0" stop-color="#000000"/><stop offset="1" stop-color="#3b3b3b"/></linearGradient><radialGradient cx="176.26469" cy="93.90868" r="62.02973" gradientUnits="userSpaceOnUse" id="color-4"><stop offset="0" stop-color="#b6b6b6"/><stop offset="1" stop-color="#666666"/></radialGradient><radialGradient cx="186.71216" cy="96.22383" r="18.75196" gradientUnits="userSpaceOnUse" id="color-5"><stop offset="0" stop-color="#ff0000"/><stop offset="1" stop-color="#ff0000" stop-opacity="0"/></radialGradient><radialGradient cx="187.72668" cy="97.9148" r="12.25374" gradientUnits="userSpaceOnUse" id="color-6"><stop offset="0" stop-color="#ff0000"/><stop offset="1" stop-color="#d20000"/></radialGradient><linearGradient x1="132.59419" y1="36.11739" x2="275.32677" y2="32.7667" gradientUnits="userSpaceOnUse" id="color-7"><stop offset="0" stop-color="#cc7700"/><stop offset="1" stop-color="#946f48"/></linearGradient></defs><g transform="translate(-133.66567,-32.51024)"><g data-paper-data="{&quot;isPaintingLayer&quot;:true}" fill-rule="nonzero" stroke-linejoin="miter" stroke-miterlimit="10" stroke-dasharray="" stroke-dashoffset="0" style="mix-blend-mode: normal"><path d="M248.80181,254.16824c0,0 14.68768,14.33213 22.74608,25.10625c6.81619,9.11326 8.66691,16.04239 14.31581,25.85576c0.00947,0.01644 -21.62982,-0.23499 -21.62982,-0.23499c0,0 -8.80622,-28.47999 -26.18045,-29.25375c-4.34781,-0.40375 -2.79535,5.91246 -1.02043,9.72151c3.59117,7.70677 9.65674,19.67344 9.65674,19.67344l-22.39536,0.32228c0,0 -5.86857,-11.19467 -10.7426,-18.35983c-4.84157,-7.11743 -15.20031,-18.23753 -15.20031,-18.23753z" data-paper-data="{&quot;origPos&quot;:null,&quot;index&quot;:null}" fill="#333333" stroke="#000000" stroke-width="2.5" stroke-linecap="butt"/><path d="M250.63538,338.65312v-10.81353h43.16551v10.81353z" data-paper-data="{&quot;origPos&quot;:null}" fill="#ffffff" stroke="#000000" stroke-width="1" stroke-linecap="butt"/><path d="M243.98771,335.48747l-0.04432,-11.23762l7.17948,4.12973l-0.39886,10.14058z" data-paper-data="{&quot;origPos&quot;:null}" fill="#ffffff" stroke="#000000" stroke-width="1" stroke-linecap="butt"/><path d="M251.38878,327.80247l-6.60333,-3.7299l42.19052,0.41947l5.89425,3.21459z" data-paper-data="{&quot;origPos&quot;:null}" fill="#ffffff" stroke="#000000" stroke-width="1" stroke-linecap="butt"/><path d="M252.96206,336.3486v-6.55902h38.46782v6.55902z" data-paper-data="{&quot;origPos&quot;:null}" fill="#ff2e2e" stroke="#000000" stroke-width="0" stroke-linecap="butt"/><path d="M251.72116,326.37709l-0.88635,-0.79772l34.74513,0.17727l1.59544,0.62045z" data-paper-data="{&quot;origPos&quot;:null}" fill="#ff2e2e" stroke="#000000" stroke-width="0" stroke-linecap="butt"/><path d="M244.57151,330.78958l5.67266,2.4818" data-paper-data="{&quot;origPos&quot;:null}" fill="none" stroke="#000000" stroke-width="0.5" stroke-linecap="round"/><path d="M172.24377,142.34981l60.22702,-7.57031l27.72062,124.60205l-59.25178,7.43798z" data-paper-data="{&quot;origPos&quot;:null,&quot;index&quot;:null,&quot;origRot&quot;:0}" id="ID0.9171315478160977" fill="url(#color-1)" stroke="#000000" stroke-width="2.54325" stroke-linecap="butt"/><g data-paper-data="{&quot;origPos&quot;:null,&quot;index&quot;:null,&quot;origRot&quot;:0}" stroke="#000000" stroke-width="0" stroke-linecap="butt"><path d="M218.50336,206.7749l-5.33364,0.79241l3.48877,-19.72004l-5.88277,1.30194l2.40363,-16.22868l18.99591,-3.05876l-4.06303,12.59861l4.05599,-0.72906l-3.74559,18.88923l3.63095,-0.23332l-16.10176,30.94865z" data-paper-data="{&quot;index&quot;:null,&quot;origPos&quot;:null}" fill="#ffde00"/><path d="M216.24992,204.1892l-5.33364,0.79241l3.48879,-19.72004l-5.88277,1.30194l2.40364,-16.22868l18.99591,-3.05876l-4.06303,12.59861l4.05599,-0.72906l-3.74558,18.88923l3.63095,-0.23332l-14.43418,30.96342z" data-paper-data="{&quot;index&quot;:null,&quot;origPos&quot;:null}" fill="#ff0000"/><path d="M212.96809,204.39347l-5.33366,0.79241l3.48879,-19.72004l-5.88277,1.30194l2.40364,-16.22868l18.99591,-3.05876l-4.06303,12.59861l4.05599,-0.72907l-3.74558,18.88923l3.63094,-0.23332l-11.52517,29.1231z" data-paper-data="{&quot;index&quot;:null,&quot;origPos&quot;:null}" fill="#000000"/></g><path d="M211.40185,145.3992c0,0 6.88185,-3.88138 11.25915,-6.48608c4.38377,-2.60854 11.57581,-5.17919 11.57581,-5.17919c0,0 5.09298,18.93159 5.63755,21.29483c6.22792,27.02561 26.74948,112.58831 26.74948,112.58831l-23.7367,4.13875z" data-paper-data="{&quot;origPos&quot;:null,&quot;index&quot;:null,&quot;origRot&quot;:0}" id="ID0.5423141438513994" fill="url(#color-2)" stroke="#000000" stroke-width="2.54325" stroke-linecap="round"/><path d="M237.49896,136.60859c0,0 8.26758,-3.02903 11.36466,-1.41303c9.29126,4.84808 24.99165,37.24561 33.14208,59.95683c11.32602,27.90289 -35.70156,53.10503 -35.70156,53.10503c0,0 0.94919,-7.64539 -3.13958,-7.4418c-4.56182,0.22715 -0.62115,-6.55608 -0.62115,-6.55608c0,0 29.00029,-10.06425 20.46575,-37.55311c-8.53457,-27.48886 -19.44418,-37.12446 -19.44418,-37.12446z" data-paper-data="{&quot;origPos&quot;:null,&quot;index&quot;:null,&quot;origRot&quot;:0}" id="ID0.5423141438513994" fill="#000000" stroke="#000000" stroke-width="2.54325" stroke-linecap="round"/><path d="M229.19473,274.30156l-29.87958,2.65431c0,0 -17.97123,-85.49225 -24.06664,-112.53583c-0.533,-2.36482 -4.19454,-21.78148 -4.19454,-21.78148c0,0 8.39362,0.65437 13.94432,1.85581c4.71038,1.01955 17.26115,2.42435 17.26115,2.42435z" data-paper-data="{&quot;origPos&quot;:null,&quot;index&quot;:null,&quot;origRot&quot;:0}" id="ID0.5423141438513994" fill="url(#color-3)" stroke="#000000" stroke-width="2.54325" stroke-linecap="round"/><path d="M176.49407,165.60852c0,0 -9.64527,13.51047 -4.60821,41.50853c5.0371,27.99806 40.8344,27.74604 40.8344,27.74604c0,0 6.87378,5.20871 2.51843,6.27983c-3.90374,0.96007 -4.86374,11.2615 -4.86374,11.2615c0,0 -56.66249,-10.83191 -59.29569,-40.00043c-3.13801,-23.441 2.59912,-60.8878 8.96136,-68.01493c2.12075,-2.37571 11.25057,-1.87959 11.25057,-1.87959z" data-paper-data="{&quot;origPos&quot;:null,&quot;index&quot;:null,&quot;origRot&quot;:0}" id="ID0.5423141438513994" fill="#000000" stroke="#000000" stroke-width="2.54325" stroke-linecap="round"/><path d="M199.77053,50.7213c16.80068,-0.3966 32.22835,4.42967 43.58135,12.54734c11.35309,8.11871 12.7495,21.15113 11.95145,35.85658c-0.54984,10.13211 -3.59353,20.275 -13.78428,28.5064c-10.69579,8.63815 -27.1395,15.3536 -38.11813,15.65123c-10.97842,0.29767 -27.82889,-3.35824 -39.18192,-11.47588c-11.35325,-8.11885 -18.5649,-17.2366 -19.06569,-30.0046c-0.50075,-12.76809 1.40404,-27.86212 12.1,-36.50135c10.69583,-8.63818 25.7167,-14.1832 42.5172,-14.57979z" data-paper-data="{&quot;origPos&quot;:null,&quot;origRot&quot;:0}" id="ID0.7719937418587506" fill="#ffd499" stroke="#806c4d" stroke-width="2.5" stroke-linecap="butt"/><path d="M203.63936,53.15056c6.32387,0.02871 4.39458,9.28678 4.93656,14.14769c1.2262,11.00972 5.79487,23.57456 0.37372,34.14878c-4.68844,8.23129 -15.58177,14.31854 -26.56891,17.13941c-11.92666,2.68229 -24.43628,3.63621 -29.59444,-1.30819c-9.08312,-15.1224 -4.96806,-37.44958 7.49653,-51.41123c10.96887,-11.42513 24.96708,-12.79374 43.35648,-12.71645z" data-paper-data="{&quot;origPos&quot;:null,&quot;origRot&quot;:0}" id="ID0.479907026514411" fill="url(#color-4)" stroke="#666666" stroke-width="2.5" stroke-linecap="round"/><path d="M230.28443,92.82774c0.2788,4.48308 0.14019,11.14825 0.14019,11.14825" data-paper-data="{&quot;origPos&quot;:null,&quot;origRot&quot;:0}" id="ID0.21129454905167222" fill="none" stroke="#000000" stroke-width="2.5" stroke-linecap="round"/><path d="M214.42095,126.83488l-17.02101,0.28925" data-paper-data="{&quot;origPos&quot;:null,&quot;index&quot;:null,&quot;origRot&quot;:0}" fill="none" stroke="#000000" stroke-width="2" stroke-linecap="round"/><path d="M167.96477,96.54242c-0.22804,-7.98828 7.98056,-14.60671 18.33445,-14.78266c10.35392,-0.17594 18.93229,6.15719 19.16034,14.14547c0.22804,7.98828 -7.98056,14.60671 -18.33445,14.78266c-10.35392,0.17594 -18.93229,-6.15719 -19.16034,-14.14547z" data-paper-data="{&quot;origPos&quot;:null,&quot;origRot&quot;:0}" fill="url(#color-5)" stroke="none" stroke-width="0" stroke-linecap="butt"/><path d="M174.27985,96.57837c-0.14904,-5.22005 5.21501,-9.54497 11.98091,-9.65995c6.7659,-0.11499 12.37158,4.0235 12.52061,9.24356c0.14904,5.22005 -5.21501,9.54497 -11.98091,9.65995c-6.7659,0.11499 -12.37158,-4.0235 -12.52061,-9.24356z" data-paper-data="{&quot;origPos&quot;:null,&quot;origRot&quot;:0}" fill="url(#color-6)" stroke="#666666" stroke-width="2" stroke-linecap="butt"/><path d="M151.45476,118.75493c0,0 3.36952,-19.63205 7.65772,-32.47831c2.83576,-8.49526 10.60748,-21.82483 10.60748,-21.82483l37.2937,5.51836l0.6739,4.14175c0,0 -10.29412,-0.60931 -15.97067,-0.96003c-5.24567,-0.32408 -10.58532,-2.94906 -14.93242,-0.66082c-7.96048,4.19024 -7.70314,11.73535 -10.17214,18.92209c-3.33585,9.7099 -5.37232,27.69202 -5.37232,27.69202z" data-paper-data="{&quot;origRot&quot;:0,&quot;origPos&quot;:null}" fill="#7a7a7a" stroke="none" stroke-width="0" stroke-linecap="butt"/><path d="M211.00336,74.04522l-0.41147,-4.00479l37.35083,-0.51506c0,0 -7.63883,2.96296 -15.50033,3.47285c-7.92014,0.51366 -21.1408,1.047 -21.1408,1.047z" data-paper-data="{&quot;origPos&quot;:null,&quot;origRot&quot;:0}" fill="#b0936a" stroke="none" stroke-width="0" stroke-linecap="butt"/><path d="M194.83882,124.74561c0,0 1.87372,0.68908 1.92078,2.33754c0.04434,1.55312 -1.96957,2.5304 -1.96957,2.5304" data-paper-data="{&quot;origPos&quot;:null,&quot;origRot&quot;:0}" fill="none" stroke="#000000" stroke-width="2" stroke-linecap="round"/><path d="M153.75983,122.42802l6.22657,-0.57874l1.44537,5.14004z" data-paper-data="{&quot;origPos&quot;:null,&quot;origRot&quot;:0}" fill="#b0936a" stroke="none" stroke-width="0" stroke-linecap="butt"/><path d="M208.02802,34.34655c15.79371,-0.17339 24.69407,0.70914 40.48035,1.12143c9.14062,0.23873 27.11298,0.07297 27.11298,0.07297c0,0 -11.28086,5.13975 -13.40463,5.61342c-3.93907,0.87855 -10.94951,2.90663 -10.94951,2.90663c0,0 5.60569,1.00541 9.56999,2.09783c4.262,1.17445 10.79097,2.23112 10.79097,2.23112c0,0 -6.47338,2.25446 -10.5806,3.13624c-5.13084,1.10156 -12.03551,3.5983 -12.03551,3.5983c0,0 8.23142,3.12297 14.43811,4.07209c6.2417,0.95446 14.44786,3.05471 14.44786,3.05471c0,0 -11.32646,5.03283 -18.73155,6.01432c-18.67818,2.47747 -37.96348,0.37936 -56.90245,0.84033c-11.54589,0.27986 -28.69958,-5.58499 -34.29281,2.45643c-14.77746,19.90168 -12.6135,69.67241 -17.14851,68.10994c-4.53522,-1.5626 -18.93888,-53.6027 -14.60323,-80.51106c1.67758,-10.3991 13.8578,-16.61366 29.17253,-21.80403c15.31473,-5.19032 28.60046,-2.64936 42.63605,-3.01073z" data-paper-data="{&quot;origPos&quot;:null,&quot;origRot&quot;:0}" id="ID0.5302143599838018" fill="url(#color-7)" stroke="#a96300" stroke-width="3.5" stroke-linecap="round"/><path d="M227.90669,90.74521l5.15802,0.10322" data-paper-data="{&quot;origPos&quot;:null}" fill="none" stroke="#000000" stroke-width="2.5" stroke-linecap="round"/><path d="M210.66507,255.53019l1.52039,-22.54256c0,0 2.17432,0.598 3.4864,0.64336c1.11771,0.03862 2.73967,-0.42817 2.73967,-0.42817l4.67049,21.67344c0,0 -3.66511,0.99359 -6.13035,1.12342c-2.38064,0.12537 -6.28655,-0.46947 -6.28655,-0.46947z" data-paper-data="{&quot;origPos&quot;:null,&quot;origRot&quot;:0}" fill="#1f1f1f" stroke="#000000" stroke-width="0" stroke-linecap="butt"/><path d="M209.90877,254.77998c0,0 0.36737,-6.94084 0.81241,-11.39457c0.38114,-3.81432 1.30457,-9.79128 1.30457,-9.79128" data-paper-data="{&quot;origPos&quot;:null,&quot;origRot&quot;:0}" fill="none" stroke="#000000" stroke-width="2.54325" stroke-linecap="round"/><path d="M246.56496,251.59079c-2.3665,0.54848 -6.25034,0.61466 -6.25034,0.61466l-5.52439,-21.55357c0,0 1.73113,-0.00391 2.75952,-0.34382c1.20727,-0.39902 2.96918,-1.54964 2.96918,-1.54964l11.71528,20.68444c0,0 -3.38399,1.61825 -5.66926,2.14791z" data-paper-data="{&quot;origPos&quot;:null,&quot;index&quot;:null,&quot;origRot&quot;:0}" fill="#1f1f1f" stroke="#000000" stroke-width="0" stroke-linecap="butt"/><path d="M239.94017,229.69609c0,0 4.06814,5.48651 6.16636,8.95275c2.44996,4.04731 5.48784,10.2998 5.48784,10.2998" data-paper-data="{&quot;origPos&quot;:null,&quot;origRot&quot;:0,&quot;index&quot;:null}" fill="none" stroke="#000000" stroke-width="2.54325" stroke-linecap="round"/></g></g></svg>