<svg version="1.1" xmlns="http://www.w3.org/2000/svg" xmlns:xlink="http://www.w3.org/1999/xlink" width="130.63181" height="307.64754" viewBox="0,0,130.63181,307.64754"><defs><radialGradient cx="229.69088" cy="144.66302" r="97.28323" gradientUnits="userSpaceOnUse" id="color-1"><stop offset="0" stop-color="#00ffff"/><stop offset="1" stop-color="#003fff"/></radialGradient><linearGradient x1="238.85086" y1="188.64443" x2="261.41389" y2="187.44131" gradientUnits="userSpaceOnUse" id="color-2"><stop offset="0" stop-color="#3b3b3b"/><stop offset="1" stop-color="#000000"/></linearGradient><linearGradient x1="193.37844" y1="188.96903" x2="241.75822" y2="194.84059" gradientUnits="userSpaceOnUse" id="color-3"><stop offset="0" stop-color="#000000"/><stop offset="1" stop-color="#3b3b3b"/></linearGradient><radialGradient cx="211.56205" cy="64.67226" r="51.99462" gradientUnits="userSpaceOnUse" id="color-4"><stop offset="0" stop-color="#b6b6b6"/><stop offset="1" stop-color="#666666"/></radialGradient><radialGradient cx="219.69304" cy="70.79602" r="15.71829" gradientUnits="userSpaceOnUse" id="color-5"><stop offset="0" stop-color="#ff0000"/><stop offset="1" stop-color="#ff0000" stop-opacity="0"/></radialGradient><radialGradient cx="220.33439" cy="72.71615" r="10.27134" gradientUnits="userSpaceOnUse" id="color-6"><stop offset="0" stop-color="#ff0000"/><stop offset="1" stop-color="#d20000"/></radialGradient><linearGradient x1="182.14705" y1="-1.78799" x2="301.45396" y2="7.86527" gradientUnits="userSpaceOnUse" id="color-7"><stop offset="0" stop-color="#cc7700"/><stop offset="1" stop-color="#946f48"/></linearGradient></defs><g transform="translate(-177.43314,1.02605)"><g data-paper-data="{&quot;isPaintingLayer&quot;:true}" fill-rule="nonzero" stroke-linejoin="miter" stroke-miterlimit="10" stroke-dasharray="" stroke-dashoffset="0" style="mix-blend-mode: normal"><path d="M253.49583,252.1683c0,0 12.01633,16.33213 19.70641,27.10625c6.50463,9.11326 8.27077,16.04239 13.66147,25.85576c0.00903,0.01644 -20.64116,-0.23499 -20.64116,-0.23499c0,0 -8.4037,-33.72999 -24.98379,-34.50375c-4.14908,-0.40375 -2.66758,11.16246 -0.97379,14.97151c3.42702,7.70677 9.21535,19.67344 9.21535,19.67344l-21.37171,0.32228c0,0 -4.60033,-11.19467 -9.25158,-18.35983c-4.62027,-7.11743 -10.75553,-31.48753 -10.75553,-31.48753z" data-paper-data="{&quot;origPos&quot;:null,&quot;index&quot;:null}" fill="#333333" stroke="#000000" stroke-width="2.5" stroke-linecap="butt"/><path d="M203.19702,116.34485l51.10673,-2.08259l6.75696,137.18708l-50.2779,2.03837z" data-paper-data="{&quot;origPos&quot;:null,&quot;index&quot;:null,&quot;origRot&quot;:0}" id="ID0.9171315478160977" fill="url(#color-1)" stroke="#000000" stroke-width="2.54325" stroke-linecap="butt"/><g data-paper-data="{&quot;origPos&quot;:null,&quot;index&quot;:null,&quot;origRot&quot;:0}" stroke="#000000" stroke-width="0" stroke-linecap="butt"><path d="M233.2574,190.50121l-4.54193,0.316l5.48431,-20.91642l-5.06556,0.81009l4.12435,-17.26044l16.20716,-1.3806l-5.03002,13.17772l3.47048,-0.37672l-5.58928,19.99442l3.05191,0.11505l-17.44954,31.7531z" data-paper-data="{&quot;index&quot;:null,&quot;origPos&quot;:null}" fill="#ffde00"/><path d="M231.72073,187.48489l-4.54193,0.316l5.48433,-20.91642l-5.06556,0.81009l4.12436,-17.26044l16.20716,-1.3806l-5.03002,13.17772l3.47048,-0.37672l-5.58927,19.99442l3.05191,0.11505l-16.06386,31.93744z" data-paper-data="{&quot;index&quot;:null,&quot;origPos&quot;:null}" fill="#ff0000"/><path d="M228.96313,187.37376l-4.54195,0.316l5.48433,-20.91642l-5.06556,0.81009l4.12436,-17.26044l16.20716,-1.3806l-5.03002,13.17772l3.47048,-0.37673l-5.58927,19.99442l3.0519,0.11505l-13.40233,30.24637z" data-paper-data="{&quot;index&quot;:null,&quot;origPos&quot;:null}" fill="#000000"/></g><path d="M235.3819,123.58822c0,0 6.23455,-3.49121 10.21791,-5.8584c3.98925,-2.37069 10.31035,-4.4169 10.31035,-4.4169c0,0 1.7599,20.93272 1.90369,23.53653c1.64483,29.77701 7.5214,124.13177 7.5214,124.13177l-20.29341,2.06665z" data-paper-data="{&quot;origPos&quot;:null,&quot;index&quot;:null,&quot;origRot&quot;:0}" id="ID0.5423141438513994" fill="url(#color-2)" stroke="#000000" stroke-width="2.54325" stroke-linecap="round"/><path d="M233.31494,264.41076l-25.2107,-0.15473c0,0 -3.76361,-94.02123 -5.29582,-123.80424c-0.13398,-2.60437 -0.63925,-23.91568 -0.63925,-23.91568c0,0 6.89881,1.55342 11.36036,3.40978c3.78613,1.57532 14.04593,4.35793 14.04593,4.35793z" data-paper-data="{&quot;origPos&quot;:null,&quot;index&quot;:null,&quot;origRot&quot;:0}" id="ID0.5423141438513994" fill="url(#color-3)" stroke="#000000" stroke-width="2.54325" stroke-linecap="round"/><path d="M250.74168,241.67065c-2.041,0.35257 -5.28146,0.03172 -5.28146,0.03172l-1.77567,-23.80417c0,0 1.44102,0.17061 2.34125,-0.09215c1.05681,-0.30843 2.67356,-1.37148 2.67356,-1.37148l7.04096,23.492c0,0 -3.02769,1.4036 -4.99862,1.74406z" data-paper-data="{&quot;origPos&quot;:null,&quot;index&quot;:null,&quot;origRot&quot;:0}" fill="#1f1f1f" stroke="#000000" stroke-width="0" stroke-linecap="butt"/><path d="M248.095,217.38739c0,0 2.66701,6.32822 3.95925,10.27859c1.50889,4.61258 3.21831,11.66289 3.21831,11.66289" data-paper-data="{&quot;origPos&quot;:null,&quot;origRot&quot;:0,&quot;index&quot;:null}" fill="none" stroke="#000000" stroke-width="2.54325" stroke-linecap="round"/><path d="M220.35319,242.29394l4.21585,-24.15939c0,0 1.73101,0.86455 2.81688,1.04598c0.925,0.15453 2.33577,-0.18512 2.33577,-0.18512l1.04945,23.84721c0,0 -3.17984,0.70148 -5.24821,0.59254c-1.99737,-0.1052 -5.16968,-1.14121 -5.16968,-1.14121z" data-paper-data="{&quot;origPos&quot;:null,&quot;origRot&quot;:0}" fill="#1f1f1f" stroke="#000000" stroke-width="0" stroke-linecap="butt"/><path d="M219.82207,241.40841c0,0 1.21422,-7.44884 2.1675,-12.20738c0.81642,-4.07539 2.36718,-10.42848 2.36718,-10.42848" data-paper-data="{&quot;origPos&quot;:null,&quot;origRot&quot;:0}" fill="none" stroke="#000000" stroke-width="2.54325" stroke-linecap="round"/><g data-paper-data="{&quot;origPos&quot;:null,&quot;origRot&quot;:0}"><path d="M236.34821,20.22649c14.04357,1.13388 26.31394,7.77948 34.79323,17.60006c8.47926,9.82173 8.07195,24.02323 5.63494,39.82717c-1.67911,10.88895 -5.43701,21.55768 -14.91839,29.49795c-9.95112,8.33251 -24.45883,14.05454 -33.64044,13.35513c-9.18143,-0.69935 -22.7781,-6.21354 -31.25744,-16.03411c-8.47937,-9.82189 -13.38822,-20.33727 -12.26668,-34.16998c1.12157,-13.83281 4.52742,-29.95341 14.4788,-38.28706c9.95116,-8.33254 23.13251,-12.92312 37.17594,-11.78923z" data-paper-data="{&quot;origPos&quot;:null,&quot;origRot&quot;:0}" id="ID0.7719937418587506" fill="#ffd499" stroke="#806c4d" stroke-width="2.5" stroke-linecap="butt"/><path d="M239.27836,23.20919c5.26463,0.619 2.54172,10.43596 2.40741,15.73489c-0.30533,12.00169 1.98635,25.99328 -3.80407,36.90669c-4.89769,8.45176 -14.70594,14.01159 -24.19873,16.03581c-10.25873,1.78728 -20.79481,1.65411 -24.49594,-4.16418c-5.74421,-17.17287 0.37456,-40.89787 12.44072,-54.81394c10.51448,-11.31633 22.3406,-11.49255 37.65054,-9.69927z" data-paper-data="{&quot;origPos&quot;:null,&quot;origRot&quot;:0}" id="ID0.479907026514411" fill="url(#color-4)" stroke="#666666" stroke-width="2.5" stroke-linecap="round"/><path d="M256.72438,67.8629c-0.30802,4.8665 -1.55098,15.36782 -1.55098,15.36782" data-paper-data="{&quot;origPos&quot;:null,&quot;origRot&quot;:0}" id="ID0.21129454905167222" fill="none" stroke="#000000" stroke-width="2.5" stroke-linecap="round"/><path d="M225.16581,102.50157l14.21419,1.27027" data-paper-data="{&quot;origPos&quot;:null,&quot;index&quot;:null,&quot;origRot&quot;:0}" fill="none" stroke="#000000" stroke-width="2" stroke-linecap="round"/><path d="M204.03717,69.39689c0.77273,-8.64648 8.4085,-15.02947 17.05498,-14.25677c8.6465,0.77273 15.02947,8.4085 14.25677,17.05498c-0.77273,8.64648 -8.4085,15.02947 -17.05498,14.25677c-8.6465,-0.77273 -15.02947,-8.4085 -14.25677,-17.05498z" data-paper-data="{&quot;origPos&quot;:null,&quot;origRot&quot;:0}" fill="url(#color-5)" stroke="none" stroke-width="0" stroke-linecap="butt"/><path d="M209.29358,70.02289c0.50493,-5.65019 5.49466,-9.82124 11.14483,-9.3163c5.65019,0.50493 9.82124,5.49466 9.3163,11.14483c-0.50493,5.65019 -5.49466,9.82124 -11.14483,9.3163c-5.65019,-0.50493 -9.82124,-5.49466 -9.3163,-11.14483z" data-paper-data="{&quot;origPos&quot;:null,&quot;origRot&quot;:0}" fill="url(#color-6)" stroke="#666666" stroke-width="2" stroke-linecap="butt"/><path d="M187.89987,89.19302c0,0 5.1729,-20.88429 10.29332,-34.35623c3.38612,-8.90903 11.46672,-22.57895 11.46672,-22.57895l30.40241,9.42594l0.06226,4.53469c0,0 -8.50206,-1.61505 -13.18863,-2.52152c-4.33083,-0.83766 -8.46268,-4.16843 -12.35979,-2.10191c-7.13646,3.78423 -7.83136,11.95492 -10.75425,19.48522c-3.9491,10.17405 -7.81267,29.40078 -7.81267,29.40078z" data-paper-data="{&quot;origRot&quot;:0,&quot;origPos&quot;:null}" fill="#7a7a7a" stroke="none" stroke-width="0" stroke-linecap="butt"/><path d="M242.89485,46.45477l0.13987,-4.36242l31.17711,2.91671c0,0 -6.7206,2.48898 -13.33105,2.30859c-6.65976,-0.18179 -17.73748,-0.83518 -17.73748,-0.83518z" data-paper-data="{&quot;origPos&quot;:null,&quot;origRot&quot;:0}" fill="#b0936a" stroke="none" stroke-width="0" stroke-linecap="butt"/><path d="M189.82509,91.60026l5.03893,1.49832l-1.10881,5.60569z" data-paper-data="{&quot;origPos&quot;:null,&quot;origRot&quot;:0}" fill="#b0936a" stroke="none" stroke-width="0" stroke-linecap="butt"/><path d="M245.20047,3.31372c13.17781,1.28127 20.48589,3.06172 33.58693,4.97469c7.5858,1.10767 22.57762,2.59972 22.57762,2.59972c0,0 -10.01691,4.50073 -11.8432,4.8147c-3.38731,0.58236 -9.47176,2.12034 -9.47176,2.12034c0,0 4.54865,1.60681 7.71945,3.15493c3.40892,1.66439 8.72052,3.41237 8.72052,3.41237c0,0 -5.66432,1.83234 -9.19211,2.40256c-4.407,0.71234 -10.45981,2.76619 -10.45981,2.76619c0,0 6.48081,4.13736 11.5369,5.73926c5.08461,1.61091 11.66763,4.64167 11.66763,4.64167c0,0 -10.04202,4.38103 -16.3291,4.75229c-15.85839,0.93834 -31.67113,-3.12018 -47.50376,-4.3834c-9.652,-0.77135 -23.23505,-8.69882 -28.86359,-0.53621c-14.70878,20.11473 -18.90412,74.05555 -22.49371,71.94683c-3.58976,-2.10888 -9.31714,-59.63811 -2.46251,-88.28912c2.65075,-11.07238 13.54638,-16.65002 26.92981,-20.83034c13.38341,-4.18027 24.14485,-0.20137 35.88072,0.71344z" data-paper-data="{&quot;origPos&quot;:null,&quot;origRot&quot;:0}" id="ID0.5302143599838018" fill="url(#color-7)" stroke="#a96300" stroke-width="3.5" stroke-linecap="round"/></g><path d="M261.5178,250.25675l-5.53223,-26.76762l3.86169,-4.37209l6.41034,26.07557z" data-paper-data="{&quot;origPos&quot;:null,&quot;origRot&quot;:0}" fill="#ff2e2e" stroke="#000000" stroke-width="2" stroke-linecap="butt"/><path d="M268.56083,239.02725l4.84184,-13.72162l14.14983,6.99412l-3.86115,13.64779c0,0 -4.79183,2.19144 -9.91559,-0.21721c-4.58092,-2.15344 -5.21494,-6.70308 -5.21494,-6.70308z" data-paper-data="{&quot;origRot&quot;:0,&quot;origPos&quot;:null,&quot;index&quot;:null}" fill="#ffd499" stroke="#806c4d" stroke-width="2" stroke-linecap="butt"/><path d="M256.19242,116.72602c0,0 7.19857,-2.6526 9.62572,-0.66996c7.28146,5.94798 23.71447,33.18951 28.2936,58.3796c2.22156,24.04761 -4.75739,61.73243 -4.75739,61.73243c0,0 -6.31913,0.52173 -10.15695,-0.66361c-3.83782,-1.18534 -10.69777,-4.1598 -10.69777,-4.1598c0,0 12.53321,-21.27467 8.10145,-51.66329c-4.43181,-30.38863 -17.59526,-37.63914 -17.59526,-37.63914z" data-paper-data="{&quot;origPos&quot;:null,&quot;index&quot;:null,&quot;origRot&quot;:0}" id="ID0.5423141438513994" fill="#000000" stroke="#000000" stroke-width="2.54325" stroke-linecap="round"/><path d="M265.10758,236.60254l-5.93719,-26.3748l2.96592,-4.60226l6.62704,25.62983z" data-paper-data="{&quot;origPos&quot;:null,&quot;origRot&quot;:0}" fill="#ff2e2e" stroke="#000000" stroke-width="2" stroke-linecap="butt"/><path d="M261.18446,230.59008l-5.53223,-26.76762l3.86169,-4.37209l6.41034,26.07557z" data-paper-data="{&quot;origPos&quot;:null,&quot;origRot&quot;:0}" fill="#ffffff" stroke="#000000" stroke-width="2" stroke-linecap="butt"/><g data-paper-data="{&quot;origRot&quot;:0,&quot;origPos&quot;:null}" stroke="#000000"><path d="M248.52091,177.47127l8.32102,-1.85374l7.39983,33.21591l-8.32102,1.85374z" data-paper-data="{&quot;origPos&quot;:null}" fill="#ffffff" stroke-width="1" stroke-linecap="butt"/><path d="M249.81735,171.8132l8.63976,-1.96056l-1.94707,6.23258l-7.87157,1.43148z" data-paper-data="{&quot;origPos&quot;:null}" fill="#ffffff" stroke-width="1" stroke-linecap="butt"/><path d="M256.99973,176.19091l1.73818,-5.7207l6.90991,32.53758l-1.4632,5.0867z" data-paper-data="{&quot;origPos&quot;:null}" fill="#ffffff" stroke-width="1" stroke-linecap="butt"/><path d="M250.6931,178.86663l5.04718,-1.12443l6.59453,29.60106l-5.04718,1.12443z" data-paper-data="{&quot;origPos&quot;:null}" fill="#ff2e2e" stroke-width="0" stroke-linecap="butt"/><path d="M258.15356,176.20232l0.4619,-0.81879l5.81992,26.76682l-0.20391,1.33407z" data-paper-data="{&quot;origPos&quot;:null}" fill="#ff2e2e" stroke-width="0" stroke-linecap="butt"/><path d="M253.53241,171.45711l-0.9373,4.79058" data-paper-data="{&quot;origPos&quot;:null}" fill="none" stroke-width="0.5" stroke-linecap="round"/></g><path d="M224.60218,197.60229l-4.5742,-21.31934l25.87225,-5.05997c0,0 6.41628,7.10225 6.98841,12.74635c0.57213,5.6441 -4.23857,14.38102 -4.23857,14.38102z" data-paper-data="{&quot;origRot&quot;:0,&quot;origPos&quot;:null,&quot;index&quot;:null}" fill="#ffd499" stroke="#806c4d" stroke-width="2" stroke-linecap="butt"/><path d="M210.25775,140.76411c0,0 -13.49553,24.05579 -9.75608,35.34301c3.73947,6.78723 35.66469,-9.13729 35.66469,-9.13729c0,0 4.87567,9.48276 6.03603,17.61144c1.16036,8.12868 0.47706,16.00962 0.47706,16.00962c0,0 -51.78733,-1.39302 -59.95773,-9.90879c-5.76534,-6.00904 2.07847,-54.52738 10.09041,-70.34684c1.32198,-2.84157 8.95741,-3.58727 8.95741,-3.58727z" data-paper-data="{&quot;origPos&quot;:null,&quot;index&quot;:null,&quot;origRot&quot;:0}" id="ID0.5423141438513994" fill="#000000" stroke="#000000" stroke-width="2.54325" stroke-linecap="round"/><path d="M268.77424,245.2692l-5.93719,-26.3748l2.96592,-4.60226l6.62704,25.62983z" data-paper-data="{&quot;origPos&quot;:null,&quot;origRot&quot;:0}" fill="#ff2e2e" stroke="#000000" stroke-width="2" stroke-linecap="butt"/></g></g></svg>