<svg version="1.1" xmlns="http://www.w3.org/2000/svg" xmlns:xlink="http://www.w3.org/1999/xlink" width="532.4992" height="368.61787"><g transform="translate(14.47933,3.93395)"><g data-paper-data="{&quot;isPaintingLayer&quot;:true}" fill-rule="nonzero" stroke-linejoin="miter" stroke-miterlimit="10" stroke-dasharray="" stroke-dashoffset="0" style="mix-blend-mode: normal"><path d="M-0.24024,363.93392v-367.86787h480.48048v367.86787z" data-paper-data="{&quot;origPos&quot;:null}" fill="#00e7e7" stroke="none" stroke-width="NaN" stroke-linecap="butt"/><g data-paper-data="{&quot;origPos&quot;:null,&quot;origRot&quot;:0}"><path d="M462.06353,48.76113c-0.72365,2.07567 -2.85604,1.99807 -2.85604,1.99807l-8.54641,-3.70291l2.54344,-6.06721l8.54641,3.70291c0,0 1.57512,1.33679 0.31258,4.06917z" data-paper-data="{&quot;origRot&quot;:0,&quot;origPos&quot;:null,&quot;index&quot;:null}" fill="#ffd499" stroke="#806c4d" stroke-width="2" stroke-linecap="butt"/><path d="M404.0559,35.07304c0,0 0.215,-2.99842 1.31475,-3.54496c3.29919,-1.63959 15.70714,0.20361 25.44034,2.63525c9.7332,2.43165 27.58228,8.57522 27.58228,8.57522c0,0 -0.67433,2.10363 -1.20487,3.41774c-0.52817,1.30824 -1.50793,3.30166 -1.50793,3.30166c0,0 -13.65913,-5.75304 -25.22466,-9.07653c-11.56552,-3.3235 -16.90673,-2.22588 -16.90673,-2.22588z" data-paper-data="{&quot;origPos&quot;:null,&quot;index&quot;:null,&quot;origRot&quot;:0}" id="ID0.5423141438513994" fill="#7e7e7e" stroke="#000000" stroke-width="2.54325" stroke-linecap="round"/><path d="M506.38113,82.31021c0,0 -19.40805,-3.40462 -31.11212,-8.47162c-7.4039,-3.20536 -16.1527,-14.89243 -17.80685,-11.05417c-2.16165,5.28183 5.55353,16.05552 13.20828,20.40843c10.43262,5.93256 31.59188,7.23329 31.59188,7.23329l-3.41041,6.85851c0,0 -20.74604,-2.18617 -31.29902,-7.96254c-9.86876,-5.40184 -21.02917,-20.68024 -21.02917,-20.68024l9.26036,-19.06254c0,0 13.41034,11.36721 23.24429,16.12142c11.29409,5.46012 30.89365,10.05151 30.89365,10.05151z" data-paper-data="{&quot;origPos&quot;:null,&quot;index&quot;:null}" fill="#4232a1" stroke="#000000" stroke-width="2.5" stroke-linecap="butt"/><path d="M451.74179,78.28565c-0.59519,2.95054 -2.65577,3.09882 -2.65577,3.09882l-9.08341,-2.06021l1.53143,-6.39806l9.08341,2.06021c0,0 1.76649,1.19692 1.12436,3.29925z" data-paper-data="{&quot;origRot&quot;:0,&quot;origPos&quot;:null,&quot;index&quot;:null}" fill="#ffd499" stroke="#806c4d" stroke-width="2" stroke-linecap="butt"/><path d="M406.33047,58.18729c0,0 6.35655,3.28877 17.652,7.43843c11.29545,4.14966 23.02033,8.32738 23.02033,8.32738c0,0 -0.38688,2.18723 -0.73343,3.55485c-0.3481,1.37374 -1.04653,3.46949 -1.04653,3.46949c0,0 -15.33645,-6.3375 -24.6266,-10.12449c-9.29015,-3.78702 -23.08597,-8.87694 -24.77967,-12.14867c-0.56457,-1.09058 1.03303,-3.63705 1.03303,-3.63705z" data-paper-data="{&quot;origPos&quot;:null,&quot;index&quot;:null,&quot;origRot&quot;:0}" id="ID0.5423141438513994" fill="#7e7e7e" stroke="#000000" stroke-width="2.54325" stroke-linecap="round"/><path d="M449.22742,71.77386l-51.93478,-16.97728l6.74545,-20.63481l51.93478,16.97728z" data-paper-data="{&quot;origPos&quot;:null,&quot;origRot&quot;:0}" fill="#7e7e7e" stroke="#000000" stroke-width="2.54325" stroke-linecap="butt"/><path d="M512.74427,93.46825l-4.83765,-1.02618c0,0 -2.39927,-5.68903 -2.46524,-9.19071c-0.07105,-3.77134 1.1597,-9.64797 1.1597,-9.64797l9.91098,2.10232z" data-paper-data="{&quot;origPos&quot;:null,&quot;index&quot;:null,&quot;origRot&quot;:0}" fill="#666666" stroke="#000000" stroke-width="2.54325" stroke-linecap="butt"/><path d="M505.79118,109.30414l-4.69025,-0.32328c0,0 -3.41407,-5.31469 -3.96874,-8.77281c-0.59737,-3.72438 -0.19992,-9.71536 -0.19992,-9.71536l10.10749,0.69668z" data-paper-data="{&quot;origPos&quot;:null,&quot;index&quot;:null,&quot;origRot&quot;:0}" fill="#666666" stroke="#000000" stroke-width="2.54325" stroke-linecap="butt"/><path d="M412.47602,54.0466l-12.44772,-4.16296" data-paper-data="{&quot;origPos&quot;:null,&quot;origRot&quot;:0}" fill="none" stroke="#3b3b3b" stroke-width="5" stroke-linecap="round"/><path d="M403.29312,40.00522l16.57848,5.6071" data-paper-data="{&quot;origPos&quot;:null,&quot;origRot&quot;:0}" fill="none" stroke="#3b3b3b" stroke-width="5" stroke-linecap="round"/><path d="M362.84007,38.0631c0.97328,-5.43425 4.02943,-9.97006 8.18068,-12.90811c4.1517,-2.93803 10.59997,-2.61808 15.95324,-1.66116c5.35321,0.95689 8.84706,3.8673 11.72147,8.06128c2.87391,4.19384 3.60493,9.89643 2.95271,13.44509c-0.65221,3.54875 -4.26957,8.47405 -8.42081,11.41209c-3.9557,2.79925 -8.37345,3.15731 -12.66697,2.70575c-6.2315,-0.65539 -11.65308,-1.91977 -14.52746,-6.11369c-2.87391,-4.19383 -4.16614,-9.5069 -3.19286,-14.94123z" data-paper-data="{&quot;origPos&quot;:null,&quot;origRot&quot;:0}" id="ID0.7719937418587506" fill="#ffd499" stroke="#806c4d" stroke-width="2.5" stroke-linecap="butt"/><path d="M413.37149,38.90288l-8.78976,-3.03431l0.67374,-2.83819l9.41115,3.07646z" data-paper-data="{&quot;origPos&quot;:null,&quot;origRot&quot;:0}" fill="#7e7e7e" stroke="none" stroke-width="0" stroke-linecap="butt"/><path d="M406.60533,59.58928l-9.21089,-3.01101l1.12794,-2.68974l8.6968,2.68196z" data-paper-data="{&quot;origPos&quot;:null,&quot;index&quot;:null,&quot;origRot&quot;:0}" fill="#7e7e7e" stroke="none" stroke-width="0" stroke-linecap="butt"/><path d="M436.03715,62.29791c0,0 0.37921,-0.4749 3.26967,0.70473c2.22256,0.90704 2.25946,1.20884 2.25946,1.20884" data-paper-data="{&quot;origPos&quot;:null,&quot;origRot&quot;:0}" fill="none" stroke="#616161" stroke-width="5" stroke-linecap="round"/><path d="M445.29763,53.4461c0,0 -0.20802,0.22173 -2.53719,-0.35916c-3.0291,-0.75546 -3.05459,-1.36264 -3.05459,-1.36264" data-paper-data="{&quot;origPos&quot;:null,&quot;index&quot;:null,&quot;origRot&quot;:0}" fill="none" stroke="#616161" stroke-width="5" stroke-linecap="round"/><path d="M392.5139,34.33691c0,0 -2.9494,-0.45697 -4.82404,-0.82644c-1.02971,-0.20292 -2.55462,-0.43147 -2.55462,-0.43147" data-paper-data="{&quot;origPos&quot;:null,&quot;origRot&quot;:0}" id="ID0.21129454905167222" fill="none" stroke="#000000" stroke-width="2.5" stroke-linecap="round"/><path d="M379.62089,19.40756l4.24733,6.38165l-7.02518,2.60751l4.80276,7.47133l-5.88962,3.32332l3.83773,7.72008l-5.75723,1.51978l2.76351,12.44253l-7.91397,-4.4969l-0.58684,3.44648l-6.32272,-9.05605l-1.96086,0.77437l-1.47558,-10.66887l-1.13984,0.24922l3.11482,-10.77386l-0.99313,-0.61243l5.33524,-6.6277l-0.27651,-1.59864l7.84345,-3.0975l0.3301,-1.93866z" data-paper-data="{&quot;origPos&quot;:null,&quot;index&quot;:null,&quot;origRot&quot;:0}" fill="#2400ea" stroke="#000000" stroke-width="3" stroke-linecap="round"/><path d="M387.63628,53.81905c0,0 -2.9494,-0.45697 -4.82404,-0.82644c-1.02971,-0.20292 -2.55462,-0.43147 -2.55462,-0.43147" data-paper-data="{&quot;origPos&quot;:null,&quot;origRot&quot;:0}" id="ID0.21129454905167222" fill="none" stroke="#000000" stroke-width="2.5" stroke-linecap="round"/><path d="M386.83808,45.93285l0.69515,-4.08259" data-paper-data="{&quot;origPos&quot;:null,&quot;origRot&quot;:0}" fill="none" stroke="#000000" stroke-width="2" stroke-linecap="round"/></g><path d="M-2.37519,363.93392v-91.59159h481.98198v91.59159z" data-paper-data="{&quot;origPos&quot;:null}" fill="#31c700" stroke="#000000" stroke-width="1.5" stroke-linecap="butt"/><path d="M-3.75938,291.84962v-294.29429h79.57958v294.29429z" fill="#dde983" stroke="#000000" stroke-width="1.5" stroke-linecap="butt"/><path d="M-12.76839,186.74452v-131.33133h61.56156v131.33133z" data-paper-data="{&quot;origPos&quot;:null}" fill="#91b8c7" stroke="#000000" stroke-width="3" stroke-linecap="butt"/><path d="M-12.72933,119.75h60.5" data-paper-data="{&quot;origPos&quot;:null}" fill="none" stroke="#000000" stroke-width="3.5" stroke-linecap="round"/><path d="M15.77067,185l0.5,-130" data-paper-data="{&quot;origPos&quot;:null}" fill="none" stroke="#000000" stroke-width="3.5" stroke-linecap="round"/><path d="M357.31975,174.60521l-7.1506,20.02534l2.28364,12.51523l-9.59657,-6.81524z" data-paper-data="{&quot;origPos&quot;:null,&quot;origRot&quot;:0}" fill="#91b8c7" stroke="#000000" stroke-width="1.5" stroke-linecap="butt"/><path d="M286.72099,232.3987l-7.04557,2.89138l-2.76526,7.09601l-8.20391,-8.05888l5.26841,-3.93622z" data-paper-data="{&quot;origPos&quot;:null,&quot;origRot&quot;:0}" fill="#91b8c7" stroke="#000000" stroke-width="1.5" stroke-linecap="butt"/><path d="M323.81595,130.83373l7.20554,5.1313l5.04118,7.92695l-6.13233,3.30067l-2.06379,-6.50295z" data-paper-data="{&quot;origPos&quot;:null,&quot;origRot&quot;:0}" fill="#91b8c7" stroke="#000000" stroke-width="1.5" stroke-linecap="butt"/><path d="M267.50598,137.41223l0.45635,-10.78387l7.56841,-2.99485l1.63255,5.79524l-3.71776,2.14145z" data-paper-data="{&quot;origPos&quot;:null,&quot;origRot&quot;:0}" fill="#91b8c7" stroke="#000000" stroke-width="1.5" stroke-linecap="butt"/><path d="M301.37739,80.72989l3.99529,-2.16817l2.73498,-4.7023l3.99116,2.01758l0.90845,4.57546l-4.15257,2.19605z" data-paper-data="{&quot;origPos&quot;:null,&quot;origRot&quot;:0}" fill="#91b8c7" stroke="#000000" stroke-width="1.5" stroke-linecap="butt"/></g></g></svg>