<svg xmlns="http://www.w3.org/2000/svg" xmlns:xlink="http://www.w3.org/1999/xlink" width="500.498" height="586.306" version="1.1"><defs><radialGradient id="color-1" cx="378.13" cy="146.471" r="98.5" gradientUnits="userSpaceOnUse"><stop offset="0" stop-color="#41629a"/><stop offset="1" stop-color="#547ec7"/></radialGradient><radialGradient id="color-2" cx="425.13" cy="150.471" r="98.5" gradientUnits="userSpaceOnUse"><stop offset="0" stop-color="#41629a"/><stop offset="1" stop-color="#547ec7"/></radialGradient><radialGradient id="color-3" cx="394.749" cy="137.471" r="108.794" gradientUnits="userSpaceOnUse"><stop offset="0" stop-color="#547ec7"/><stop offset="1" stop-color="#41629a"/></radialGradient><radialGradient id="color-4" cx="296.13" cy="134.471" r="98.5" gradientUnits="userSpaceOnUse"><stop offset="0" stop-color="#41629a"/><stop offset="1" stop-color="#547ec7"/></radialGradient><radialGradient id="color-5" cx="277.13" cy="128.471" r="99.333" gradientUnits="userSpaceOnUse"><stop offset="0" stop-color="#547ec7"/><stop offset="1" stop-color="#41629a"/></radialGradient><radialGradient id="color-6" cx="316.13" cy="145.471" r="99.333" gradientUnits="userSpaceOnUse"><stop offset="0" stop-color="#547ec7"/><stop offset="1" stop-color="#41629a"/></radialGradient><radialGradient id="color-7" cx="156.914" cy="150.48" r="98.5" gradientUnits="userSpaceOnUse"><stop offset="0" stop-color="#41629a"/><stop offset="1" stop-color="#547ec7"/></radialGradient><radialGradient id="color-8" cx="203.914" cy="154.48" r="98.5" gradientUnits="userSpaceOnUse"><stop offset="0" stop-color="#41629a"/><stop offset="1" stop-color="#547ec7"/></radialGradient><radialGradient id="color-9" cx="173.533" cy="141.48" r="108.794" gradientUnits="userSpaceOnUse"><stop offset="0" stop-color="#547ec7"/><stop offset="1" stop-color="#41629a"/></radialGradient><radialGradient id="color-10" cx="74.914" cy="138.48" r="98.5" gradientUnits="userSpaceOnUse"><stop offset="0" stop-color="#41629a"/><stop offset="1" stop-color="#547ec7"/></radialGradient><radialGradient id="color-11" cx="55.914" cy="132.48" r="99.333" gradientUnits="userSpaceOnUse"><stop offset="0" stop-color="#547ec7"/><stop offset="1" stop-color="#41629a"/></radialGradient><radialGradient id="color-12" cx="94.914" cy="149.48" r="99.333" gradientUnits="userSpaceOnUse"><stop offset="0" stop-color="#547ec7"/><stop offset="1" stop-color="#41629a"/></radialGradient></defs><g><g fill-rule="nonzero" stroke-dashoffset="0" stroke-linejoin="miter" stroke-miterlimit="10" data-paper-data="{&quot;isPaintingLayer&quot;:true}" transform="translate(8.25224,2.48274)" style="mix-blend-mode:normal"><path fill="#7d6244" stroke="#000" stroke-linecap="butt" stroke-width="2" d="M-7.25224,370.43544v-135.13514h498.4985v135.13514z" data-paper-data="{&quot;origPos&quot;:null}"/><path fill="#74b2c8" stroke="#000" stroke-linecap="butt" stroke-width="2" d="M-5.43683,246.26502v-247.74775h492.49249v247.74775z" data-paper-data="{&quot;origPos&quot;:null}"/><path fill="#90704e" stroke="#000" stroke-linecap="butt" stroke-width="2" d="M55.53607,341.08333l16,-25.16667h363l17,25.16667z" data-paper-data="{&quot;origPos&quot;:null}"/><g data-paper-data="{&quot;origPos&quot;:null}"><path fill="#94f7ff" stroke="#000" stroke-linecap="butt" stroke-width="2" d="M272.12989,218.47148v-191.33333h147v191.33333z" data-paper-data="{&quot;origPos&quot;:null}"/><path fill="none" stroke="#6a6a6a" stroke-linecap="round" stroke-width="7.5" d="M413.29656,123.97148h-137.66667" data-paper-data="{&quot;origPos&quot;:null}"/><path fill="url(#color-1)" stroke="#000" stroke-linecap="butt" stroke-width="2" d="M369.62989,225.80481v-197h21v197c0,0 -6.70711,-1.33333 -11,-1.33333c-3.90263,0 -10,1.33333 -10,1.33333z" data-paper-data="{&quot;origPos&quot;:null}"/><path fill="url(#color-2)" stroke="#000" stroke-linecap="butt" stroke-width="2" d="M407.12989,226.80481v-197h21v197c0,0 -6.70711,-1.33333 -11,-1.33333c-3.90263,0 -10,1.33333 -10,1.33333z" data-paper-data="{&quot;origPos&quot;:null}"/><path fill="url(#color-3)" stroke="#000" stroke-linecap="butt" stroke-width="2" d="M387.62989,227.30481v-197h23v197c0,0 -7.34588,1.66667 -12.04762,1.66667c-4.27431,0 -10.95238,-1.66667 -10.95238,-1.66667z" data-paper-data="{&quot;origPos&quot;:null}"/><path fill="none" stroke="#6a6a6a" stroke-linecap="round" stroke-width="7.5" d="M344.46322,28.30481v190.16667" data-paper-data="{&quot;origPos&quot;:null}"/><path fill="#547ec7" stroke="#000" stroke-linecap="butt" stroke-width="2" d="M379.57192,25.74391c0,6.84514 -9.986,12.39424 -22.30435,12.39424c-12.31835,0 -22.30435,-5.54909 -22.30435,-12.39424c0,-6.84514 9.986,-12.39423 22.30435,-12.39423c12.31835,0 22.30435,5.54909 22.30435,12.39423z" data-paper-data="{&quot;origPos&quot;:null}"/><path fill="url(#color-4)" stroke="#000" stroke-linecap="butt" stroke-width="2" d="M287.12989,223.80481v-197h21v197c0,0 -6.70711,-1.33333 -11,-1.33333c-3.90263,0 -10,1.33333 -10,1.33333z" data-paper-data="{&quot;origPos&quot;:null}"/><path fill="url(#color-5)" stroke="#000" stroke-linecap="butt" stroke-width="2" d="M267.12989,225.80481v-197h21v197c0,0 -6.70711,1.66667 -11,1.66667c-3.90263,0 -10,-1.66667 -10,-1.66667z" data-paper-data="{&quot;origPos&quot;:null}"/><path fill="url(#color-6)" stroke="#000" stroke-linecap="butt" stroke-width="2" d="M305.79654,226.80481v-197h21v197c0,0 -6.70711,1.66667 -11,1.66667c-3.90263,0 -10,-1.66667 -10,-1.66667z" data-paper-data="{&quot;origPos&quot;:null}"/><path fill="#547ec7" stroke="#000" stroke-linecap="butt" stroke-width="2" d="M350.07192,27.13814c0,7.54789 -12.82153,13.66667 -28.63768,13.66667c-15.81615,0 -28.63768,-6.11878 -28.63768,-13.66667c0,-7.54789 12.82153,-13.66666 28.63768,-13.66666c15.81615,0 28.63768,6.11877 28.63768,13.66666z" data-paper-data="{&quot;origPos&quot;:null}"/><path fill="#547ec7" stroke="#000" stroke-linecap="butt" stroke-width="2" d="M312.79654,27.97148c0,6.90356 -12.53603,12.5 -28,12.5c-0.64264,0 -1.00408,-0.00462 -1.6465,-0.02125c-1.92726,-0.04989 -26.3535,-0.34067 -26.3535,-12.47875c0,-7.71044 7.4215,-9.29737 15.00093,-11.07415c4.97775,-1.1669 7.88365,-1.42585 12.99907,-1.42585c0,0 4.96595,0.10819 8.11208,0.53265c9.43838,1.27336 19.88792,5.06379 19.88792,11.96735z" data-paper-data="{&quot;origPos&quot;:null}"/><path fill="#547ec7" stroke="#000" stroke-linecap="butt" stroke-width="2" d="M436.96128,26.99391c0,6.52298 -11.08052,11.8109 -24.74902,11.8109c-13.66851,0 -24.74904,-5.28792 -24.74904,-11.8109c0,-6.52298 11.08053,-11.8109 24.74904,-11.8109c13.66851,0 24.74902,5.28792 24.74902,11.8109z" data-paper-data="{&quot;origPos&quot;:null}"/><path fill="#547ec7" stroke="#000" stroke-linecap="butt" stroke-width="2" d="M404.29461,27.19061c0,6.04615 -8.39422,10.94754 -18.74903,10.94754c-10.3548,0 -18.74903,-4.90138 -18.74903,-10.94754c0,-6.04615 8.39423,-10.94754 18.74903,-10.94754c10.3548,0 18.74903,4.90138 18.74903,10.94754z" data-paper-data="{&quot;origPos&quot;:null}"/><path fill="#547ec7" stroke="none" stroke-linecap="butt" stroke-width="0" d="M295.333,33.47148v-16c0,0 28.65765,2 47,2c26.53787,0 68,-2 68,-2v16c0,0 -6.70234,1.80279 -10.99279,1.69976c-12.87135,-0.30906 -26.84329,-2.68973 -44.0206,-2.31719c-15.99385,0.34687 -24.98899,2.61742 -40.9866,2.61742c-8.58578,0 -19,-2 -19,-2z" data-paper-data="{&quot;origPos&quot;:null}"/></g><path fill="#90704e" stroke="#000" stroke-linecap="butt" stroke-width="2" d="M55.53607,370.5v-29h396v29z" data-paper-data="{&quot;origPos&quot;:null}"/><g data-paper-data="{&quot;origPos&quot;:null}"><path fill="#94f7ff" stroke="#000" stroke-linecap="butt" stroke-width="2" d="M50.91367,222.48049v-191.33333h147v191.33333z" data-paper-data="{&quot;origPos&quot;:null}"/><path fill="none" stroke="#6a6a6a" stroke-linecap="round" stroke-width="7.5" d="M192.08034,127.98049h-137.66667" data-paper-data="{&quot;origPos&quot;:null}"/><path fill="url(#color-7)" stroke="#000" stroke-linecap="butt" stroke-width="2" d="M148.41367,229.81382v-197h21v197c0,0 -6.70711,-1.33333 -11,-1.33333c-3.90263,0 -10,1.33333 -10,1.33333z" data-paper-data="{&quot;origPos&quot;:null}"/><path fill="url(#color-8)" stroke="#000" stroke-linecap="butt" stroke-width="2" d="M185.91367,230.81382v-197h21v197c0,0 -6.70711,-1.33333 -11,-1.33333c-3.90263,0 -10,1.33333 -10,1.33333z" data-paper-data="{&quot;origPos&quot;:null}"/><path fill="url(#color-9)" stroke="#000" stroke-linecap="butt" stroke-width="2" d="M166.41367,231.31382v-197h23v197c0,0 -7.34588,1.66667 -12.04762,1.66667c-4.27431,0 -10.95238,-1.66667 -10.95238,-1.66667z" data-paper-data="{&quot;origPos&quot;:null}"/><path fill="none" stroke="#6a6a6a" stroke-linecap="round" stroke-width="7.5" d="M123.247,32.31382v190.16667" data-paper-data="{&quot;origPos&quot;:null}"/><path fill="#547ec7" stroke="#000" stroke-linecap="butt" stroke-width="2" d="M158.3557,29.75292c0,6.84514 -9.986,12.39424 -22.30435,12.39424c-12.31835,0 -22.30435,-5.54909 -22.30435,-12.39424c0,-6.84514 9.986,-12.39423 22.30435,-12.39423c12.31835,0 22.30435,5.54909 22.30435,12.39423z" data-paper-data="{&quot;origPos&quot;:null}"/><path fill="url(#color-10)" stroke="#000" stroke-linecap="butt" stroke-width="2" d="M65.91367,227.81382v-197h21v197c0,0 -6.70711,-1.33333 -11,-1.33333c-3.90263,0 -10,1.33333 -10,1.33333z" data-paper-data="{&quot;origPos&quot;:null}"/><path fill="url(#color-11)" stroke="#000" stroke-linecap="butt" stroke-width="2" d="M45.91367,229.81382v-197h21v197c0,0 -6.70711,1.66667 -11,1.66667c-3.90263,0 -10,-1.66667 -10,-1.66667z" data-paper-data="{&quot;origPos&quot;:null}"/><path fill="url(#color-12)" stroke="#000" stroke-linecap="butt" stroke-width="2" d="M84.58034,230.81382v-197h21v197c0,0 -6.70711,1.66667 -11,1.66667c-3.90263,0 -10,-1.66667 -10,-1.66667z" data-paper-data="{&quot;origPos&quot;:null}"/><path fill="#547ec7" stroke="#000" stroke-linecap="butt" stroke-width="2" d="M128.8557,31.14715c0,7.54789 -12.82153,13.66667 -28.63768,13.66667c-15.81615,0 -28.63768,-6.11878 -28.63768,-13.66667c0,-7.54789 12.82153,-13.66666 28.63768,-13.66666c15.81615,0 28.63768,6.11877 28.63768,13.66666z" data-paper-data="{&quot;origPos&quot;:null}"/><path fill="#547ec7" stroke="#000" stroke-linecap="butt" stroke-width="2" d="M91.58034,31.98049c0,6.90356 -12.53603,12.5 -28,12.5c-0.64264,0 -1.00408,-0.00462 -1.6465,-0.02125c-1.92726,-0.04989 -26.3535,-0.34067 -26.3535,-12.47875c0,-7.71044 7.4215,-9.29737 15.00093,-11.07415c4.97775,-1.1669 7.88365,-1.42585 12.99907,-1.42585c0,0 4.96595,0.10819 8.11208,0.53265c9.43838,1.27336 19.88792,5.06379 19.88792,11.96735z" data-paper-data="{&quot;origPos&quot;:null}"/><path fill="#547ec7" stroke="#000" stroke-linecap="butt" stroke-width="2" d="M215.74506,31.00292c0,6.52298 -11.08052,11.8109 -24.74902,11.8109c-13.66851,0 -24.74904,-5.28792 -24.74904,-11.8109c0,-6.52298 11.08053,-11.8109 24.74904,-11.8109c13.66851,0 24.74902,5.28792 24.74902,11.8109z" data-paper-data="{&quot;origPos&quot;:null}"/><path fill="#547ec7" stroke="#000" stroke-linecap="butt" stroke-width="2" d="M183.07839,31.19962c0,6.04615 -8.39422,10.94754 -18.74903,10.94754c-10.3548,0 -18.74903,-4.90138 -18.74903,-10.94754c0,-6.04615 8.39423,-10.94754 18.74903,-10.94754c10.3548,0 18.74903,4.90138 18.74903,10.94754z" data-paper-data="{&quot;origPos&quot;:null}"/><path fill="#547ec7" stroke="none" stroke-linecap="butt" stroke-width="0" d="M74.11678,37.48049v-16c0,0 28.65765,2 47,2c26.53787,0 68,-2 68,-2v16c0,0 -6.70234,1.80279 -10.99279,1.69976c-12.87135,-0.30906 -26.84329,-2.68973 -44.0206,-2.31719c-15.99385,0.34687 -24.98899,2.61742 -40.9866,2.61742c-8.58578,0 -19,-2 -19,-2z" data-paper-data="{&quot;origPos&quot;:null}"/></g><path fill="#ffd499" stroke="#9a815c" stroke-linecap="butt" stroke-width="2" d="M231.88535,253.97324c0,0 4.36765,-17.5338 23.18019,-24.05682c21.04186,-7.29608 38.87675,3.26419 38.87675,3.26419l15.30146,60.92824l-58.25143,21.48821l-19.107,-61.62388z" data-paper-data="{&quot;origRot&quot;:0,&quot;origPos&quot;:null,&quot;index&quot;:null}"/><path id="ID0.5423141438513994" fill="#000" stroke="#000" stroke-linecap="round" stroke-width="2.543" d="M234.6928,498.26078c11.18491,-36.14115 5.74088,-57.52732 6.73133,-95.34668c1.14512,-43.7257 -6.7789,-110.36075 -6.7789,-110.36075c0,0 20.29582,-10.38433 33.05536,-15.36834c15.13628,-5.91233 38.42421,-12.55211 38.42421,-12.55211c0,0 8.74595,76.61755 7.16763,126.30547c-1.49576,47.0887 0.44407,74.07035 -16.52733,118.0198c-33.12382,95.10923 -97.78688,104.70443 -62.0723,-10.69739z" data-paper-data="{&quot;origPos&quot;:null,&quot;index&quot;:null,&quot;origRot&quot;:0}"/><path fill="#fff" stroke="#000" stroke-linecap="butt" stroke-width="1.5" d="M196.00001,271.22581l1,-167.96774l99,-12v170.96774z" data-paper-data="{&quot;origPos&quot;:null}"/><path fill="#f4f4f4" stroke="#000" stroke-linecap="butt" stroke-width="1.5" d="M172.04057,258.01728v-169l25,13v170z" data-paper-data="{&quot;origPos&quot;:null}"/><path fill="#f4f4f4" stroke="#000" stroke-linecap="butt" stroke-width="1.5" d="M196.04057,104.01728l-23,-16l101,-10l22,14z" data-paper-data="{&quot;origPos&quot;:null}"/><text fill="#ff2e2e" fill-rule="nonzero" stroke="none" stroke-dashoffset="0" stroke-linecap="butt" stroke-linejoin="miter" stroke-miterlimit="10" stroke-width="1" data-paper-data="{&quot;origPos&quot;:null,&quot;origRot&quot;:-3.62641}" font-family="Sans Serif" font-size="40" font-weight="normal" text-anchor="start" transform="translate(208.68792,125.88449) rotate(-4.65811) scale(0.5,0.5)" xml:space="preserve" style="mix-blend-mode:normal"><tspan x="0" dy="0">Playing</tspan><tspan x="0" dy="46.15">Cards</tspan></text><path fill="none" stroke="#000" stroke-linecap="round" stroke-width="1.5" d="M284.04057,85.01728l-98,12"/><text fill="#ff2e2e" fill-rule="nonzero" stroke="none" stroke-dashoffset="0" stroke-linecap="butt" stroke-linejoin="miter" stroke-miterlimit="10" stroke-width="1" data-paper-data="{&quot;origPos&quot;:null,&quot;origRot&quot;:-4.14424}" font-family="Sans Serif" font-size="40" font-weight="normal" text-anchor="start" transform="translate(206.37083,259.50574) rotate(-3.9709) scale(0.28022,0.28316) skewX(-0.00076)" xml:space="preserve" style="mix-blend-mode:normal"><tspan x="0" dy="0">do not consume</tspan></text><path fill="#fff" stroke="#353535" stroke-linecap="butt" stroke-width="1.5" d="M220.11543,226.96042l-13.32028,-62.64525l43.23405,-9.19287l13.32028,62.64525z" data-paper-data="{&quot;origRot&quot;:0,&quot;origPos&quot;:null}"/><text fill="#ff2e2e" fill-rule="nonzero" stroke="none" stroke-dashoffset="0" stroke-linecap="butt" stroke-linejoin="miter" stroke-miterlimit="10" stroke-width="1" data-paper-data="{&quot;origPos&quot;:null}" font-family="Sans Serif" font-size="40" font-weight="normal" text-anchor="start" transform="translate(211.60907,174.87869) rotate(-10.86662) scale(0.29466,0.29466)" xml:space="preserve" style="mix-blend-mode:normal"><tspan x="0" dy="0">A</tspan></text><text fill="#ff2e2e" fill-rule="nonzero" stroke="none" stroke-dashoffset="0" stroke-linecap="butt" stroke-linejoin="miter" stroke-miterlimit="10" stroke-width="1" data-paper-data="{&quot;origPos&quot;:null,&quot;index&quot;:null}" font-family="Sans Serif" font-size="40" font-weight="normal" text-anchor="start" transform="translate(250.47125,208.25842) rotate(-10.86662) scale(0.29466,-0.29466)" xml:space="preserve" style="mix-blend-mode:normal"><tspan x="0" dy="0">A</tspan></text><path fill="#ff2e2e" stroke="none" stroke-linecap="butt" stroke-width="0" d="M229.88368,190.32894l2.43153,-11.83195l7.01784,10.01802l-1.92362,14.47778z" data-paper-data="{&quot;origPos&quot;:null}"/><path fill="#fff" stroke="#353535" stroke-linecap="butt" stroke-width="1.5" d="M233.40624,219.21697l16.65163,-61.8432l42.68051,11.49197l-16.65163,61.8432z" data-paper-data="{&quot;origRot&quot;:0,&quot;origPos&quot;:null}"/><text fill="#000" fill-rule="nonzero" stroke="none" stroke-dashoffset="0" stroke-linecap="butt" stroke-linejoin="miter" stroke-miterlimit="10" stroke-width="1" data-paper-data="{&quot;origPos&quot;:null}" font-family="Sans Serif" font-size="40" font-weight="normal" text-anchor="start" transform="translate(249.53641,168.97076) rotate(16.20755) scale(0.29466,0.29466)" xml:space="preserve" style="mix-blend-mode:normal"><tspan x="0" dy="0">A</tspan></text><text fill="#000" fill-rule="nonzero" stroke="none" stroke-dashoffset="0" stroke-linecap="butt" stroke-linejoin="miter" stroke-miterlimit="10" stroke-width="1" data-paper-data="{&quot;origPos&quot;:null,&quot;index&quot;:null}" font-family="Sans Serif" font-size="40" font-weight="normal" text-anchor="start" transform="translate(268.94768,216.38043) rotate(16.20716) scale(0.29465,-0.29465)" xml:space="preserve" style="mix-blend-mode:normal"><tspan x="0" dy="0">A</tspan></text><path fill="#000" stroke="none" stroke-linecap="butt" stroke-width="0" d="M253.83889,202.26476l0.55084,-1.92265c0,0 2.19903,0.51126 3.55866,-0.00747c1.22314,-0.46665 3.05938,-2.51744 3.05938,-2.51744c0,0 0.05638,2.30187 0.71513,3.12133c1.03726,1.29031 3.63068,2.28468 3.63068,2.28468l-0.6197,2.16298z" data-paper-data="{&quot;origPos&quot;:null,&quot;origRot&quot;:0}"/><path fill="#000" stroke="none" stroke-linecap="butt" stroke-width="0" d="M268.2433,196.1627c-0.51279,1.78982 -1.00516,3.00542 -2.72968,3.70717c-1.83264,0.74575 -2.74737,-0.85537 -4.64941,-1.4003c-1.80438,-0.51696 -3.2877,0.26692 -4.42753,-1.22432c-1.24713,-1.63163 -1.06135,-3.06637 -0.49573,-5.04061c1.33097,-4.64559 5.9929,-10.41907 9.42179,-9.43669c3.42889,0.98238 4.21152,8.74916 2.88055,13.39475z" data-paper-data="{&quot;origPos&quot;:null,&quot;origRot&quot;:0}"/><path fill="none" stroke="#ff2e2e" stroke-linecap="round" stroke-width="2" d="M190.8694,258.58335v-152" data-paper-data="{&quot;origPos&quot;:null}"/><path fill="none" stroke="#ff2e2e" stroke-linecap="round" stroke-width="2" d="M186.3694,255.58335v-152" data-paper-data="{&quot;origPos&quot;:null}"/><path fill="none" stroke="#ff2e2e" stroke-linecap="round" stroke-width="2" d="M181.8694,101.58335v152" data-paper-data="{&quot;origPos&quot;:null}"/><path fill="none" stroke="#ff2e2e" stroke-linecap="round" stroke-width="2" d="M177.3694,250.58335v-152" data-paper-data="{&quot;origPos&quot;:null}"/></g></g></svg>