<svg version="1.1" xmlns="http://www.w3.org/2000/svg" xmlns:xlink="http://www.w3.org/1999/xlink" width="519.70642" height="1445.41033"><g transform="translate(30.16365,538.88579)"><g data-paper-data="{&quot;isPaintingLayer&quot;:true}" fill-rule="nonzero" stroke-linejoin="miter" stroke-miterlimit="10" stroke-dasharray="" stroke-dashoffset="0" style="mix-blend-mode: normal"><path d="M-29.16365,742.06327v-1279.94906h387.26423v1279.94906z" data-paper-data="{&quot;origPos&quot;:null}" fill="#74b2c8" stroke="#000000" stroke-width="2" stroke-linecap="butt"/><path d="M299.04391,612.42707v-968.34256l174.43701,10.65523l12.45975,1180.14443z" data-paper-data="{&quot;origPos&quot;:null}" fill="#74b2c8" stroke="#000000" stroke-width="2" stroke-linecap="butt"/><path d="M311.20148,618.68004v-500.07247l49.80904,63.65715l3.55778,539.28411z" data-paper-data="{&quot;origPos&quot;:null}" fill="#958964" stroke="#000000" stroke-width="2" stroke-linecap="butt"/><path d="M353.90318,449.59397c0,12.30154 -3.09489,22.27396 -6.9126,22.27396c-3.81774,0 -6.9126,-9.97242 -6.9126,-22.27396c0,-12.30154 3.09489,-22.27396 6.9126,-22.27396c3.81774,0 6.9126,9.97242 6.9126,22.27396z" data-paper-data="{&quot;origPos&quot;:null}" fill="#958964" stroke="#000000" stroke-width="2" stroke-linecap="butt"/><g data-paper-data="{&quot;origPos&quot;:null}" stroke-linecap="butt"><path d="M392.61056,666.86542v-63.20782h17.38214v63.20782z" fill="#979592" stroke="#000000" stroke-width="2"/><path d="M270.47571,891.94752v-22.12275c0,0 67.3749,-6.32078 110.61373,-6.32078c43.23883,0 107.45333,6.32078 107.45333,6.32078v22.12275c0,0 -67.16497,3.16041 -110.15401,3.16041c-42.11445,0 -107.91305,-3.16041 -107.91305,-3.16041z" data-paper-data="{&quot;origPos&quot;:null}" fill="#757472" stroke="#000000" stroke-width="2"/><path d="M368.44788,869.8248v-369.76583h28.4435v369.76583z" data-paper-data="{&quot;origPos&quot;:null}" fill="#757472" stroke="#000000" stroke-width="2"/><path d="M382.76471,536.1154c0,0 25.82635,-92.02761 25.82635,-150.92996c0,-53.74841 -25.82635,-137.72353 -25.82635,-137.72353h23.45822c0,0 40.11426,66.05715 40.11426,137.72353c0,90.81138 -38.92744,150.92996 -38.92744,150.92996z" data-paper-data="{&quot;origPos&quot;:null}" fill="#757472" stroke="#000000" stroke-width="2"/><path d="M425.43271,393.50685c0,79.70948 -29.94101,159.49211 -58.41801,144.32671c-32.26337,-17.18174 -58.41801,-64.61726 -58.41801,-144.32671c0,-79.70948 26.15461,-127.14501 58.41801,-144.32671c28.47697,-15.16533 58.41801,64.61726 58.41801,144.32671z" data-paper-data="{&quot;origPos&quot;:null}" fill="#757472" stroke="#000000" stroke-width="2"/><path d="M419.47386,400.20735c0,66.98112 -21.47702,121.28002 -47.97022,121.28002c-26.49324,0 -47.97022,-54.29889 -47.97022,-121.28002c0,-66.98112 21.47702,-121.28002 47.97022,-121.28002c26.49324,0 47.97022,54.29889 47.97022,121.28002z" data-paper-data="{&quot;origPos&quot;:null}" fill="#979592" stroke="#000000" stroke-width="2"/><path d="M409.99271,400.65485v-2.68516c1.70943,0.63072 -4.08605,-7.50734 -4.58254,-8.41353c-4.41784,-8.06315 -4.10067,-15.75604 -1.49491,-24.61168c0,0 1.4991,-5.09475 5.99645,-3.39651c4.49731,1.69824 2.99821,6.79299 2.99821,6.79299c-0.99045,3.36614 -2.96467,10.92967 -1.3369,14.41274c2.38454,5.10248 5.79981,6.79766 7.36213,12.54648c0.68237,0.19557 1.40571,0.61869 2.14341,1.3767c3.51145,3.60791 0.32667,7.58581 0.32667,7.58581l2.80933,-0.02764c0,14.31492 3.1274,33.14445 -4.76979,45.20465c-3.16111,4.82761 -8.45909,5.52014 -12.42068,8.71582c-0.22532,0.18172 -0.42449,0.42105 -0.60907,0.68997c-0.80994,1.18003 -1.33854,2.93066 -2.55131,2.8902l-3.16041,3.5802l-0.71545,-0.81047c-0.33942,1.73571 -0.84447,3.43092 -1.58723,5.06168c-0.59475,1.30583 -2.50861,1.05174 -3.42579,2.09075c-7.98035,9.04045 -12.67867,23.95828 -25.0268,26.88601c-2.73043,0.6474 -4.89672,-2.22701 -6.57794,-5.46272c-5.72191,-1.31106 -10.33665,-4.73721 -11.53864,-11.67969c-7.19673,1.46986 -14.67979,-0.18128 -16.89191,-7.95348c-3.18462,-11.18889 -0.15274,-22.88519 2.69982,-33.42408c-0.09575,-0.09109 -0.18188,-0.18005 -0.25452,-0.26235c-1.5487,-1.75443 -2.67314,-3.94626 -3.78829,-6.08171c-2.39097,-4.57828 -3.03411,-12.21345 -4.05224,-17.40179c-1.53727,-7.83401 -6.51356,-23.90113 -3.30192,-31.73437c3.17256,-7.73795 9.52246,-12.4294 15.54265,-16.99916c6.07322,-4.5867 -2.12529,-12.66741 -2.90105,-19.69814c-0.51295,-4.64899 -1.61251,-16.38459 0,-20.58628c2.60017,-6.77521 7.22114,-11.38323 12.66864,-14.22546c0.21582,-4.31919 1.81235,-9.00828 3.3766,-14.32445c0,0 1.4991,-5.09475 5.99645,-3.39651c4.49731,1.69824 2.99821,6.79299 2.99821,6.79299c-0.46602,1.58367 -1.60285,4.57018 -2.50351,7.7197c1.96719,-0.31634 3.95026,-0.46742 5.90715,-0.46742l-0.63678,2.04642c0.43867,-0.72237 1.08118,-1.39083 2.02098,-1.75762c1.2651,-1.78587 2.55717,-3.2055 3.35641,-3.86903c0.46912,-0.38945 1.07402,-0.6111 1.76862,-0.7264c1.40741,-1.67489 2.73549,-3.12963 3.78127,-4.06487c5.88834,-5.26581 8.088,-4.39756 14.19642,0.91728c0.75312,0.65526 1.8652,1.65907 1.58017,2.68516c-0.98153,3.5338 -3.32314,6.3816 -4.98474,9.57238c-3.23298,1.8312 -6.14503,2.24709 -9.5117,2.33502c-0.57969,0.94343 -1.17504,1.8726 -1.80958,2.76477c0.59818,0.46602 1.18203,1.16851 1.84006,1.40451c7.02947,2.521 22.50777,-1.72612 26.51518,9.9565c0.89746,2.61639 0.92567,5.51511 1.38849,8.27268c0,11.99479 1.96958,20.12992 -5.78092,28.9699l-3.16041,1.7901c0,0 0.02808,-0.02012 0.07774,-0.05562c-3.68085,1.93894 -4.31786,-9.55113 -4.31786,-9.55113l3.16041,-1.7901c0.17995,1.00448 -0.25736,2.52876 0.53989,3.01329c0.69623,0.42315 0,-1.7901 0,-2.68516c0,-2.08849 0,-4.17694 0,-6.26539c0,-4.4753 0,-8.95056 0,-13.42582c3.15571,-1.54064 -2.88157,-5.91015 -4.74061,-6.26539c-8.56584,-1.63699 -16.99669,-0.34508 -23.52444,-6.57168c-2.15004,1.15885 -4.34141,2.28253 -6.67975,2.60733c-1.40775,0.19557 -2.78585,-0.87322 -3.95049,-1.7901c-1.25177,-0.98556 -2.30221,-1.97601 -3.17563,-2.97583c-1.55096,1.03438 -3.18609,2.24259 -5.14338,3.57717c-0.50902,0.34702 -1.51862,-0.82592 -1.77191,-0.21719c-1.15152,2.76716 0,10.31707 0,13.42582c0,2.38684 0.94226,5.02561 0,7.16043c-0.15804,0.35801 -1.11345,-0.8908 -0.94809,-0.53706c4.32139,9.24695 10.51448,20.94955 -0.37276,29.17194c-2.18111,1.63719 -11.1712,7.82292 -11.32068,8.06235c-2.96164,4.74474 1.43183,20.09195 2.27823,24.90341c0.88587,5.03587 2.02177,9.98338 3.11091,14.96669c0.43165,1.97498 2.61216,4.29158 1.47845,5.86965c-0.48304,0.67235 -2.74918,-1.32431 -2.20812,-0.71138c2.95241,3.34456 8.84614,4.81971 6.94867,11.26826c-2.74801,8.89124 -3.70719,14.40555 -3.70719,24.2584c0,1.71789 1.2173,3.43029 0.78402,5.07657c-0.22651,0.86069 -3.11808,0.01569 -2.36419,0.29376c4.64472,1.71373 9.71656,-1.14123 13.68191,-1.2231c0.55215,-0.01139 0.31388,2.17768 0.68141,1.71073l1.55612,-7.05145c0.13655,-0.68171 0.38762,-1.31416 0.72904,-1.87003c0.75891,-1.3453 2.2308,-2.86362 4.87953,-2.19057c0.11797,0.02828 0.23434,0.06148 0.34898,0.09949c2.59847,0.82283 3.26342,2.93926 3.37413,4.52645c0.02122,0.20606 0.03211,0.41569 0.03211,0.62818v7.16043h-1.05873c-0.16243,0.46755 -0.37573,0.90609 -0.66296,1.30253c-1.08731,1.50027 -2.6877,2.91784 -4.59896,4.14367c0.01112,4.26983 0.96557,5.36983 2.90125,5.53939c1.90054,-1.30406 4.33688,-2.31317 6.04907,-2.9232c1.22243,-0.43551 1.88952,0.31344 2.22807,1.68269l1.68968,1.27609c2.01265,-2.72889 4.89725,-6.3372 5.46205,-7.08299c2.46498,-3.2547 5.11104,-7.50897 7.74904,-10.49742c1.77474,-2.01048 5.27817,-2.36619 6.0554,-5.06971c0.23248,-0.8085 -1.61248,1.52395 -2.11097,0.88814c-1.24604,-1.58906 0,-11.07195 0,-13.42582c0,-3.17726 -1.26646,-10.80487 0,-13.42582c7.50181,-15.5253 21.73324,-7.72729 22.96373,4.92376c0.54545,-1.08911 0.96797,-2.32253 1.23972,-3.74526c1.60345,-8.39638 -0.24157,-20.5172 -0.47644,-29.80738c-3.83682,0.09033 -4.76456,-5.38325 -4.76456,-5.38325zM400.53676,450.40411c0.29229,-0.2092 0.59065,-0.41516 0.88934,-0.61563c1.16165,-1.20381 2.12622,-2.25965 2.24582,-2.59071c0.53956,-1.49401 -0.82652,-8.37863 -0.7694,-10.18864c-0.61586,0.41836 -1.22599,0.87768 -1.85118,0.67108c-0.86852,-0.2871 -0.31268,-4.00535 -0.53989,-3.01329c-0.88444,3.86147 0,9.38017 0,13.42582c0,0.76484 0.01039,1.53594 0.02525,2.31127zM406.57564,436.46841c0.08746,0.00103 0.17316,-0.00246 0.25666,-0.01129c0.31075,-0.03304 0.12713,-0.01372 -0.25666,0.01129zM375.52618,321.2655c-0.11717,0.13549 -0.23587,0.26945 -0.35631,0.40184c-0.03097,0.18398 -0.01878,0.26955 0.05852,0.22258c0.19687,-0.11967 0.27644,-0.34642 0.29776,-0.62445zM385.40567,307.06492c0.77756,-0.09472 1.6613,0.07111 2.38315,0.22861c0.76068,0.16596 -1.72672,-0.88298 -2.30844,-0.30345c-0.02495,0.02488 -0.04993,0.04986 -0.07471,0.07487z" data-paper-data="{&quot;origPos&quot;:null}" fill="#121212" stroke="none" stroke-width="0.5"/><path d="M394.19073,395.86185c0,27.49058 -10.61216,49.77617 -23.70292,49.77617c-13.09076,0 -23.70292,-22.28555 -23.70292,-49.77617c0,-27.49058 10.61216,-49.77617 23.70292,-49.77617c13.09076,0 23.70292,22.28555 23.70292,49.77617z" data-paper-data="{&quot;origPos&quot;:null}" fill="#979592" stroke="#000000" stroke-width="2"/></g><path d="M321.2099,273.90475c0,17.23266 -28.42865,31.20251 -63.49718,31.20251c-35.0685,0 -63.49718,-13.96984 -63.49718,-31.20251c0,-17.23266 28.42865,-31.20251 63.49718,-31.20251c35.0685,0 63.49718,13.96984 63.49718,31.20251z" data-paper-data="{&quot;origPos&quot;:null}" fill="#616161" stroke="#000000" stroke-width="5" stroke-linecap="butt"/><path d="M249.45599,860.51021c0,0 3.52754,-275.98648 -22.19123,-274.44618c-27.0231,1.26103 -25.38348,274.00967 -25.38348,274.00967l-40.04066,-0.0398l12.58498,-311.58921l110.7815,-0.91272l3.18519,314.32723z" data-paper-data="{&quot;origPos&quot;:null,&quot;index&quot;:null}" fill="#4232a1" stroke="#000000" stroke-width="2.5" stroke-linecap="butt"/><path d="M330.48935,571.58601c0,0 -4.17314,9.48762 -20.14288,9.18267c-12.28576,-2.26438 -14.88602,-11.96558 -14.88602,-11.96558l4.61621,-48.47953l35.02887,2.78295l-4.61621,48.47953z" data-paper-data="{&quot;origRot&quot;:0,&quot;origPos&quot;:null}" fill="#ffd499" stroke="#806c4d" stroke-width="2" stroke-linecap="butt"/><path d="M283.72405,271.84021c0,0 15.24773,-3.80185 19.74953,0.7747c13.50542,13.7297 24.50094,78.37561 28.22798,130.6871c3.72701,52.31149 2.1929,150.97789 2.1929,150.97789c0,0 -10.89197,-1.47429 -17.86331,-2.41788c-7.77792,-1.05274 -19.92995,-2.69752 -19.92995,-2.69752c0,0 6.39932,-74.66306 4.12751,-137.52746c-2.27187,-62.8644 -16.40125,-87.62076 -16.40125,-87.62076z" data-paper-data="{&quot;origPos&quot;:null,&quot;index&quot;:null}" id="ID0.5423141438513994" fill="#7e7e7e" stroke="#000000" stroke-width="3" stroke-linecap="round"/><path d="M144.99741,581.0237c-15.62725,1.83513 -19.71093,-8.16254 -19.71093,-8.16254l-4.51723,-48.47953l34.27778,-2.78295l4.51723,48.47953c0,0 -3.07798,10.72131 -14.56688,10.94552z" data-paper-data="{&quot;origRot&quot;:0,&quot;origPos&quot;:null,&quot;index&quot;:null}" fill="#ffd499" stroke="#806c4d" stroke-width="2" stroke-linecap="butt"/><path d="M171.101,322.74119c0,0 -14.12941,24.75633 -16.40125,87.62076c-2.27184,62.8644 4.12751,140.0777 4.12751,140.0777c0,0 -11.49624,1.6304 -18.8544,2.12979c-7.3911,0.50169 -18.9388,0.43538 -18.9388,0.43538c0,0 -1.53414,-98.6664 2.1929,-150.97789c3.72708,-52.31152 14.72256,-116.9574 28.22798,-130.6871c4.50187,-4.57658 19.74953,-0.7747 19.74953,-0.7747z" data-paper-data="{&quot;origPos&quot;:null,&quot;index&quot;:null}" id="ID0.5423141438513994" fill="#7e7e7e" stroke="#000000" stroke-width="3" stroke-linecap="round"/><path d="M173.26872,557.95359v-285.62661h113.48558v285.62661z" data-paper-data="{&quot;origPos&quot;:null}" fill="#7e7e7e" stroke="#000000" stroke-width="3" stroke-linecap="butt"/><path d="M248.52419,905.25291v-52.96236c0,0 31.38642,0.08077 50.59493,4.53491c17.83514,4.13564 44.32461,22.57588 44.32461,22.57588v25.85153z" data-paper-data="{&quot;origPos&quot;:null,&quot;index&quot;:null}" fill="#666666" stroke="#000000" stroke-width="2.54325" stroke-linecap="butt"/><path d="M107.97025,904.34023v-24.57644c0,0 26.48954,-19.71526 44.32461,-23.85097c19.20841,-4.45415 50.59493,-4.53491 50.59493,-4.53491v52.96229z" data-paper-data="{&quot;origPos&quot;:null,&quot;index&quot;:null}" fill="#666666" stroke="#000000" stroke-width="2.54325" stroke-linecap="butt"/><path d="M201.65706,346.55126l0.46625,-68.61129" data-paper-data="{&quot;origPos&quot;:null}" fill="none" stroke="#3b3b3b" stroke-width="5" stroke-linecap="round"/><path d="M255.57724,369.59862l0.93247,-91.48173" data-paper-data="{&quot;origPos&quot;:null}" fill="none" stroke="#3b3b3b" stroke-width="5" stroke-linecap="round"/><path d="M281.60212,326.3142l0.63758,-50.88812l12.11363,-1.32175v54.19255z" data-paper-data="{&quot;origPos&quot;:null}" fill="#7e7e7e" stroke="none" stroke-width="0" stroke-linecap="butt"/><path d="M166.20391,326.38414v-52.27988l12.11363,1.27515l0.63758,49.0921z" data-paper-data="{&quot;origPos&quot;:null,&quot;index&quot;:null}" fill="#7e7e7e" stroke="none" stroke-width="0" stroke-linecap="butt"/><path d="M198.9279,477.02304c0,0 2.97556,1.11282 1.80918,17.3908c-0.89683,12.51663 -2.33648,13.19005 -2.33648,13.19005" data-paper-data="{&quot;origPos&quot;:null}" fill="none" stroke="#616161" stroke-width="5" stroke-linecap="round"/><path d="M257.95185,508.65839c0,0 -1.43965,-0.67341 -2.33648,-13.19008c-1.16634,-16.27798 1.80918,-17.3908 1.80918,-17.3908" data-paper-data="{&quot;origPos&quot;:null,&quot;index&quot;:null}" fill="none" stroke="#616161" stroke-width="5" stroke-linecap="round"/><path d="M217.98251,76.20287c28.78072,-2.13251 55.71825,7.44884 75.98867,24.65119c20.27084,17.20467 27.02891,50.27085 29.13903,78.62009c2.11014,28.34901 -8.08707,49.82143 -25.58842,69.82507c-17.50129,20.00091 -45.42627,31.11174 -64.24219,32.41999c-18.81633,1.30834 -48.45528,-10.60856 -68.72565,-27.81085c-19.31342,-16.3925 -26.86646,-38.29633 -30.15844,-60.6231c-4.77793,-32.40446 -5.42005,-61.4992 12.08108,-81.5025c17.50121,-20.00097 42.72473,-33.44726 71.50583,-35.57977z" data-paper-data="{&quot;origPos&quot;:null}" id="ID0.7719937418587506" fill="#ffd499" stroke="#806c4d" stroke-width="3" stroke-linecap="butt"/><path d="M256.4623,214.82542c0,0 -1.51817,-15.52784 -2.08324,-25.50013c-0.31035,-5.47756 -1.13448,-13.49581 -1.13448,-13.49581" data-paper-data="{&quot;origPos&quot;:null}" id="ID0.21129454905167222" fill="none" stroke="#000000" stroke-width="3" stroke-linecap="round"/><path d="M334.24701,136.93283l-26.79473,29.79773l-22.33071,-32.18384l-31.59053,34.02601l-24.47982,-25.50387l-34.10396,29.4627l-15.17565,-27.17684l-59.41157,30.15929l12.48731,-45.91474l-18.21368,1.50649l37.63989,-43.78116l-6.46869,-8.92259l52.10415,-21.33343l-2.74292,-5.44769l58.59998,1.7734l1.81058,-5.82434l40.49104,18.40349l7.73542,-3.47712l25.87488,35.69046l10.24522,-0.8474z" data-paper-data="{&quot;origPos&quot;:null,&quot;index&quot;:null}" fill="#2400ea" stroke="#000000" stroke-width="3" stroke-linecap="round"/><path d="M186.46746,214.21743c0,0 -1.51817,-15.52784 -2.08324,-25.50013c-0.31035,-5.47756 -1.13448,-13.49581 -1.13448,-13.49581" data-paper-data="{&quot;origPos&quot;:null}" id="ID0.21129454905167222" fill="none" stroke="#000000" stroke-width="3" stroke-linecap="round"/><path d="M232.14528,246.50075c0,4.8325 -4.17867,8.75 -9.33333,8.75c-5.15466,0 -9.33333,-3.9175 -9.33333,-8.75c0,-4.8325 4.17867,-8.75 9.33333,-8.75c5.15466,0 9.33333,3.9175 9.33333,8.75z" data-paper-data="{&quot;origPos&quot;:null}" fill="#000000" stroke="#000000" stroke-width="3" stroke-linecap="butt"/></g></g></svg>