<svg xmlns="http://www.w3.org/2000/svg" xmlns:xlink="http://www.w3.org/1999/xlink" width="534.751" height="441.622" version="1.1" viewBox="0 0 534.751 441.622"><defs><radialGradient id="color-1" cx="92.24" cy="179.637" r="102.081" gradientUnits="userSpaceOnUse"><stop offset="0" stop-color="#0ff"/><stop offset="1" stop-color="#003fff"/></radialGradient><linearGradient id="color-2" x1="97.328" x2="121.014" y1="226.503" y2="227.544" gradientUnits="userSpaceOnUse"><stop offset="0" stop-color="#3b3b3b"/><stop offset="1" stop-color="#000"/></linearGradient><linearGradient id="color-3" x1="49.805" x2="99.733" y1="222.211" y2="233.27" gradientUnits="userSpaceOnUse"><stop offset="0" stop-color="#000"/><stop offset="1" stop-color="#3b3b3b"/></linearGradient><radialGradient id="color-4" cx="77.06" cy="93.622" r="54.559" gradientUnits="userSpaceOnUse"><stop offset="0" stop-color="#b6b6b6"/><stop offset="1" stop-color="#666"/></radialGradient><radialGradient id="color-5" cx="85.655" cy="99.963" r="16.494" gradientUnits="userSpaceOnUse"><stop offset="0" stop-color="red"/><stop offset="1" stop-color="red" stop-opacity="0"/></radialGradient><radialGradient id="color-6" cx="86.347" cy="101.971" r="10.778" gradientUnits="userSpaceOnUse"><stop offset="0" stop-color="red"/><stop offset="1" stop-color="#d20000"/></radialGradient><linearGradient id="color-7" x1="45.509" x2="170.794" y1="24.191" y2="33.087" gradientUnits="userSpaceOnUse"><stop offset="0" stop-color="#c70"/><stop offset="1" stop-color="#946f48"/></linearGradient></defs><g><g fill-rule="nonzero" stroke-dashoffset="0" stroke-linejoin="miter" stroke-miterlimit="10" data-paper-data="{&quot;isPaintingLayer&quot;:true}" transform="translate(-13.56238,-24.66302)" style="mix-blend-mode:normal"><path fill="#ffd499" stroke="#806c4d" stroke-linecap="butt" stroke-width="2" d="M140.61487,285.07587c0,0 -8.5151,1.95321 -13.13187,0.11531c-4.61676,-1.83791 -9.05773,-8.94882 -9.05773,-8.94882l10.47784,-20.57736l16.85902,8.97484z" data-paper-data="{&quot;origRot&quot;:0,&quot;origPos&quot;:null,&quot;index&quot;:null}"/><path id="ID0.5423141438513994" fill="#000" stroke="#000" stroke-linecap="round" stroke-width="2.543" d="M119.15538,149.35797c0,0 7.73861,-2.21773 10.12482,0.04521c13.92089,12.34662 41.73994,54.74871 38.43192,62.83661c-4.68798,11.46185 -23.07178,63.66302 -23.07178,63.66302c0,0 -7.91871,-1.23356 -12.07501,-3.35134c-4.1563,-2.11777 -9.91272,-7.85215 -9.91272,-7.85215c0,0 19.97925,-50.48542 21.01012,-58.55122c-0.70504,-12.45708 -23.52613,-30.07973 -23.52613,-30.07973z" data-paper-data="{&quot;origPos&quot;:null,&quot;index&quot;:null,&quot;origRot&quot;:0}"/><g stroke="#000" stroke-linecap="butt" data-paper-data="{&quot;origRot&quot;:0,&quot;origPos&quot;:null}"><path fill="#333" stroke-width="2.5" d="M54.14624,440.76589l8.08648,-151.10603l53.26019,2.74906l-0.44487,150.11807l-19.25799,-0.81581c0,0 6.47612,-131.14147 -6.49407,-132.31149c-12.33706,-1.27709 -16.39562,131.52933 -16.39562,131.52933z" data-paper-data="{&quot;origPos&quot;:null,&quot;index&quot;:null}"/><path fill="#666" stroke-width="2.543" d="M26.76495,460.48765l0.53908,-12.43302c0,0 13.12438,-8.31625 21.78823,-9.93335c9.331,-1.74162 24.42768,-1.12598 24.42768,-1.12598l-1.10441,25.47171z" data-paper-data="{&quot;origPos&quot;:null,&quot;index&quot;:null}"/><path fill="#666" stroke-width="2.543" d="M94.38197,462.97966l1.10441,-25.47169c0,0 15.09332,0.69335 24.23855,3.23608c8.49135,2.36093 20.8201,12.39519 20.8201,12.39519l-0.51249,11.81978z" data-paper-data="{&quot;origPos&quot;:null,&quot;index&quot;:null}"/></g><g stroke="#000" data-paper-data="{&quot;origPos&quot;:null,&quot;origRot&quot;:0}"><path id="ID0.9171315478160977" fill="url(#color-1)" stroke-linecap="butt" stroke-width="2.543" d="M67.45499,147.36445l53.58637,3.02975l-6.91446,143.96204l-52.71626,-2.99153z" data-paper-data="{&quot;origPos&quot;:null,&quot;index&quot;:null,&quot;origRot&quot;:0}"/><g stroke-linecap="butt" stroke-width="0" data-paper-data="{&quot;origPos&quot;:null,&quot;index&quot;:null,&quot;origRot&quot;:0}"><path fill="#ffde00" d="M91.29699,227.8724l-4.77564,-0.13252l7.85778,-21.28592l-5.37282,0.33017l6.06516,-17.60623l17.06686,0.2087l-6.59521,13.25013l3.66283,-0.04001l-7.87352,20.31235l3.17559,0.43096l-21.45753,31.38488z" data-paper-data="{&quot;index&quot;:null,&quot;origPos&quot;:null}"/><path fill="red" d="M89.99933,224.56576l-4.77564,-0.13252l7.8578,-21.28592l-5.37282,0.33017l6.06517,-17.60623l17.06686,0.2087l-6.59521,13.25013l3.66283,-0.04001l-7.87351,20.31235l3.17559,0.43096l-20.02912,31.71851z" data-paper-data="{&quot;index&quot;:null,&quot;origPos&quot;:null}"/><path fill="#000" d="M87.13066,224.16887l-4.77566,-0.13252l7.8578,-21.28592l-5.37282,0.33017l6.06517,-17.60623l17.06686,0.2087l-6.59521,13.25013l3.66283,-0.04002l-7.87351,20.31235l3.17558,0.43096l-17.07729,30.22347z" data-paper-data="{&quot;index&quot;:null,&quot;origPos&quot;:null}"/></g><path id="ID0.5423141438513994" fill="url(#color-2)" stroke-linecap="round" stroke-width="2.543" d="M100.33022,158.20694c0,0 6.86671,-3.01117 11.26788,-5.07773c4.40768,-2.06961 11.21763,-3.56284 11.21763,-3.56284c0,0 -0.29382,22.04072 -0.40881,24.77469c-1.3147,31.2657 -4.78656,130.40534 -4.78656,130.40534l-21.40428,0.09165z" data-paper-data="{&quot;origPos&quot;:null,&quot;index&quot;:null,&quot;origRot&quot;:0}"/><path id="ID0.5423141438513994" fill="url(#color-3)" stroke-linecap="round" stroke-width="2.543" d="M83.83008,305.06707l-26.31352,-2.72908c0,0 5.64459,-98.57612 7.07751,-129.83662c0.12529,-2.73358 1.76798,-25.04189 1.76798,-25.04189c0,0 7.0467,2.32493 11.51716,4.71802c3.79368,2.03079 14.22532,5.98173 14.22532,5.98173z" data-paper-data="{&quot;origPos&quot;:null,&quot;index&quot;:null,&quot;origRot&quot;:0}"/><path fill="#1f1f1f" stroke-linecap="butt" stroke-width="0" d="M104.34589,283.09276c-2.16746,0.16035 -5.51901,-0.50474 -5.51901,-0.50474l0.56978,-25.04117c0,0 1.48758,0.32494 2.45451,0.1422c1.1351,-0.21449 2.93185,-1.16005 2.93185,-1.16005l4.96091,25.25136c0,0 -3.30495,1.15754 -5.39802,1.31236z" data-paper-data="{&quot;origPos&quot;:null,&quot;index&quot;:null,&quot;origRot&quot;:0}"/><path fill="none" stroke-linecap="round" stroke-width="2.543" d="M104.05481,257.46252c0,0 2.14086,6.88061 3.08814,11.13785c1.1061,4.97091 2.17336,12.50812 2.17336,12.50812" data-paper-data="{&quot;origPos&quot;:null,&quot;origRot&quot;:0,&quot;index&quot;:null}"/><path fill="#1f1f1f" stroke-linecap="butt" stroke-width="0" d="M72.54563,280.64892l6.86332,-24.80195c0,0 1.71975,1.07919 2.83534,1.37927c0.9503,0.25558 2.45825,0.04455 2.45825,0.04455l-1.33261,25.01215c0,0 -3.39236,0.40877 -5.5414,0.08434c-2.07527,-0.31327 -5.28284,-1.71834 -5.28284,-1.71834z" data-paper-data="{&quot;origPos&quot;:null,&quot;origRot&quot;:0}"/><path fill="none" stroke-linecap="round" stroke-width="2.543" d="M72.08112,279.67001c0,0 2.0267,-7.65566 3.50688,-12.52827c1.26767,-4.17306 3.53425,-10.6501 3.53425,-10.6501" data-paper-data="{&quot;origPos&quot;:null,&quot;origRot&quot;:0}"/></g><path fill="#90704e" stroke="#000" stroke-linecap="butt" stroke-width="2" d="M178.24476,349.2005l-51.05406,-41.96306l358.97388,-1.23422l59.03126,41.96308z" data-paper-data="{&quot;origPos&quot;:null}"/><path fill="#ff2e2e" stroke="#000" stroke-linecap="butt" stroke-width="2" d="M154.58148,326.84423l21.14864,-1.84989l3.02389,3.37388l-20.69411,2.58978z" data-paper-data="{&quot;origPos&quot;:null,&quot;origRot&quot;:0}"/><path fill="#fff" stroke="#000" stroke-linecap="butt" stroke-width="2" d="M194.63943,332.10665l-20.76251,-1.96756l2.92128,-3.4631l21.19464,1.21435z" data-paper-data="{&quot;origPos&quot;:null,&quot;origRot&quot;:0,&quot;index&quot;:null}"/><path fill="#fff" stroke="#000" stroke-linecap="butt" stroke-width="2" d="M209.98864,336.24979l-17.42198,-3.21845l2.03935,-6.4957l17.85783,2.73284z" data-paper-data="{&quot;origPos&quot;:null,&quot;origRot&quot;:0,&quot;index&quot;:null}"/><path fill="#ff2e2e" stroke="#000" stroke-linecap="butt" stroke-width="2" d="M200.60311,327.48035l-20.81285,2.77881l-3.35643,-2.61113l20.28397,-3.36374z" data-paper-data="{&quot;origPos&quot;:null,&quot;origRot&quot;:0}"/><path fill="#ff2e2e" stroke="#000" stroke-linecap="butt" stroke-width="2" d="M171.0958,329.18631l20.90811,1.93585l2.68908,3.2943l-20.52311,-1.24764z" data-paper-data="{&quot;origPos&quot;:null,&quot;origRot&quot;:0}"/><g stroke="#000" data-paper-data="{&quot;origRot&quot;:0,&quot;origPos&quot;:null}"><path fill="#fff" stroke-linecap="butt" stroke-width="1" d="M149.09033,315.35125l-0.05487,-7.63776l30.48845,-0.21914l0.05487,7.63776z" data-paper-data="{&quot;origPos&quot;:null}"/><path fill="#fff" stroke-linecap="butt" stroke-width="1" d="M144.37891,313.14902l-0.08835,-7.93708l5.09196,2.88046l-0.23023,7.16448z" data-paper-data="{&quot;origPos&quot;:null}"/><path fill="#fff" stroke-linecap="butt" stroke-width="1" d="M149.56739,307.68343l-4.68297,-2.60099l29.80195,0.08209l4.17951,2.24059z" data-paper-data="{&quot;origPos&quot;:null}"/><path fill="#ff2e2e" stroke-linecap="butt" stroke-width="0" d="M150.72203,313.71173l-0.03333,-4.63274l27.17043,-0.19532l0.03333,4.63274z" data-paper-data="{&quot;origPos&quot;:null}"/><path fill="#ff2e2e" stroke-linecap="butt" stroke-width="0" d="M149.79491,306.67492l-0.63008,-0.55894l24.54194,-0.05118l1.13005,0.43012z" data-paper-data="{&quot;origPos&quot;:null}"/><path fill="none" stroke-linecap="round" stroke-width=".5" d="M148.78671,311.55204l-4.01928,-1.72413" data-paper-data="{&quot;origPos&quot;:null}"/></g><path fill="#90704e" stroke="#000" stroke-linecap="butt" stroke-width="2" d="M176.64932,378.04801v-31.06592h368.54652v31.06592z" data-paper-data="{&quot;origPos&quot;:null}"/><path fill="#ff2e2e" stroke="#000" stroke-linecap="butt" stroke-width="2" d="M330.37974,342.66485l-19.19197,-14.38278l7.12933,-0.14804l21.71346,12.96273z" data-paper-data="{&quot;origPos&quot;:null,&quot;origRot&quot;:0,&quot;index&quot;:null}"/><path fill="#fff" stroke="#000" stroke-linecap="butt" stroke-width="2" d="M310.20027,328.10772l26.07006,-10.82405l1.17192,7.81949l-25.58496,12.38636z" data-paper-data="{&quot;origPos&quot;:null,&quot;origRot&quot;:0,&quot;index&quot;:null}"/><path fill="#ff2e2e" stroke="#000" stroke-linecap="butt" stroke-width="2" d="M317.01709,328.68717l-23.49015,-4.83825l6.38722,-3.1706l25.16662,2.47945z" data-paper-data="{&quot;origPos&quot;:null,&quot;origRot&quot;:0,&quot;index&quot;:null}"/><path fill="#fff" stroke="#000" stroke-linecap="butt" stroke-width="2" d="M290.41614,327.84879l27.14103,-7.75708l0.26576,7.90236l-26.83864,9.36478z" data-paper-data="{&quot;origPos&quot;:null,&quot;origRot&quot;:0,&quot;index&quot;:null}"/><path fill="#ff2e2e" stroke="#000" stroke-linecap="butt" stroke-width="2" d="M280.37916,326.00282l23.45659,-4.99849l-4.57717,5.46797l-24.04513,7.83188z" data-paper-data="{&quot;origPos&quot;:null,&quot;origRot&quot;:0,&quot;index&quot;:null}"/><path fill="#fff" stroke="#000" stroke-linecap="butt" stroke-width="2" d="M269.85377,327.61335l27.48891,-6.41629l-0.12224,7.90588l-27.26573,8.03689z" data-paper-data="{&quot;origPos&quot;:null,&quot;origRot&quot;:0,&quot;index&quot;:null}"/><path fill="#ff2e2e" stroke="#000" stroke-linecap="butt" stroke-width="2" d="M261.91371,330.70427l12.46462,-20.48975l0.83499,7.08181l-10.80796,22.86251z" data-paper-data="{&quot;origPos&quot;:null,&quot;origRot&quot;:0,&quot;index&quot;:null}"/><path fill="#fff" stroke="#000" stroke-linecap="butt" stroke-width="2" d="M247.07558,325.93888l17.96642,-21.77191l4.69717,6.36038l-16.80619,22.92518z" data-paper-data="{&quot;origPos&quot;:null,&quot;origRot&quot;:0,&quot;index&quot;:null}"/><g data-paper-data="{&quot;origPos&quot;:null,&quot;origRot&quot;:0}"><path id="ID0.7719937418587506" fill="#ffd499" stroke="#806c4d" stroke-linecap="butt" stroke-width="2.5" d="M102.60792,46.72987c14.74722,1.04469 27.69084,7.89096 36.68935,18.10782c8.9985,10.21804 8.71783,25.12352 6.324,41.73131c-1.64937,11.44282 -5.48222,22.67602 -15.34873,31.10547c-10.35535,8.84586 -25.51877,14.9997 -35.15999,14.36067c-9.64102,-0.63896 -23.9646,-6.28441 -32.96317,-16.50125c-8.9986,-10.21823 -14.25796,-21.20101 -13.22407,-35.72688c1.03392,-14.52597 4.44106,-31.47603 14.79669,-40.3231c10.35539,-8.84589 24.13877,-13.79882 38.8859,-12.75412z" data-paper-data="{&quot;origPos&quot;:null,&quot;origRot&quot;:0}"/><path id="ID0.479907026514411" fill="url(#color-4)" stroke="#666" stroke-linecap="round" stroke-width="2.5" d="M105.71325,49.82928c5.53041,0.59512 2.77476,10.9239 2.68858,16.48531c-0.19641,12.59617 2.35274,27.2535 -3.61024,38.76445c-5.05167,8.9188 -15.28579,14.85388 -25.22539,17.07591c-10.74573,1.98132 -21.80232,1.95042 -25.74591,-4.11631c-6.20463,-17.95965 -0.02947,-42.91684 12.48746,-57.64323c10.91563,-11.98252 23.32264,-12.28959 39.40546,-10.5661z" data-paper-data="{&quot;origPos&quot;:null,&quot;origRot&quot;:0}"/><path id="ID0.21129454905167222" fill="none" stroke="#000" stroke-linecap="round" stroke-width="2.5" d="M124.48016,96.50291c-0.27294,5.10946 -1.46865,16.14104 -1.46865,16.14104" data-paper-data="{&quot;origPos&quot;:null,&quot;origRot&quot;:0}"/><path fill="none" stroke="#000" stroke-linecap="round" stroke-width="2" d="M107.10744,134.90135l-16.87632,-1.84807" data-paper-data="{&quot;origPos&quot;:null,&quot;index&quot;:null,&quot;origRot&quot;:0}"/><path fill="url(#color-5)" stroke="none" stroke-linecap="butt" stroke-width="0" d="M69.21281,98.65673c0.72148,-9.08048 8.66755,-15.85684 17.74805,-15.13542c9.0805,0.72149 15.85684,8.66755 15.13542,17.74805c-0.72148,9.08048 -8.66755,15.85684 -17.74805,15.13542c-9.0805,-0.72149 -15.85684,-8.66755 -15.13542,-17.74805z" data-paper-data="{&quot;origPos&quot;:null,&quot;origRot&quot;:0}"/><path fill="url(#color-6)" stroke="#666" stroke-linecap="butt" stroke-width="2" d="M74.73467,99.25933c0.47143,-5.93379 5.6639,-10.36192 11.59772,-9.89045c5.93379,0.47143 10.36192,5.6639 9.89045,11.59772c-0.47143,5.93379 -5.6639,10.36192 -11.59772,9.89045c-5.93379,-0.47143 -10.36192,-5.6639 -9.89045,-11.59772z" data-paper-data="{&quot;origPos&quot;:null,&quot;origRot&quot;:0}"/><path fill="#7a7a7a" stroke="none" stroke-linecap="butt" stroke-width="0" d="M52.48489,119.59497c0,0 5.21205,-21.96672 10.44559,-36.15537c3.46093,-9.38297 11.79845,-23.80991 11.79845,-23.80991l31.99775,9.57631l0.11217,4.7575c0,0 -8.93765,-1.60679 -13.8645,-2.50955c-4.55288,-0.83418 -8.92271,-4.2864 -12.99049,-2.07781c-7.44897,4.04442 -8.09374,12.62486 -11.08286,20.55638c-4.0386,10.71613 -7.8939,30.93011 -7.8939,30.93011z" data-paper-data="{&quot;origRot&quot;:0,&quot;origPos&quot;:null}"/><path fill="#b0936a" stroke="none" stroke-linecap="butt" stroke-width="0" d="M109.74807,74.18281l0.10168,-4.57882l32.74339,2.73838c0,0 -7.02602,2.68104 -13.96405,2.56006c-6.98975,-0.12195 -18.62007,-0.69311 -18.62007,-0.69311z" data-paper-data="{&quot;origPos&quot;:null,&quot;origRot&quot;:0}"/><path fill="#b0936a" stroke="none" stroke-linecap="butt" stroke-width="0" d="M54.52982,122.10093l5.30268,1.52007l-1.10553,5.89337z" data-paper-data="{&quot;origPos&quot;:null,&quot;origRot&quot;:0}"/><path id="ID0.5302143599838018" fill="url(#color-7)" stroke="#a96300" stroke-linecap="round" stroke-width="3.5" d="M111.72165,28.89231c13.84033,1.20826 21.5269,3.00094 35.2932,4.87286c7.971,1.08388 23.7169,2.49459 23.7169,2.49459c0,0 -10.46398,4.82596 -12.377,5.17427c-3.5482,0.64605 -9.91654,2.32266 -9.91654,2.32266c0,0 4.78937,1.63901 8.13239,3.23062c3.59407,1.71118 9.18544,3.49041 9.18544,3.49041c0,0 -5.92448,1.98112 -9.62019,2.61591c-4.61678,0.79297 -10.94659,3.01054 -10.94659,3.01054c0,0 6.84285,4.27427 12.16464,5.90287c5.35177,1.63777 12.29046,4.74986 12.29046,4.74986c0,0 -10.49156,4.70062 -17.08457,5.15512c-16.63005,1.14838 -33.26384,-2.94676 -49.88961,-4.10867c-10.13555,-0.70965 -24.46975,-8.8874 -30.29128,-0.26446c-15.22575,21.25776 -19.07057,77.89966 -22.8588,75.72412c-3.78842,-2.17571 -10.39225,-62.48033 -3.49586,-92.61382c2.66697,-11.64533 14.04184,-17.61031 28.04151,-22.13489c13.99966,-4.52447 25.33243,-0.46072 37.65598,0.37796z" data-paper-data="{&quot;origPos&quot;:null,&quot;origRot&quot;:0}"/></g><path fill="#ff2e2e" stroke="#000" stroke-linecap="butt" stroke-width="2" d="M248.51265,328.47641l-3.0073,-23.79395l5.06349,5.02099l5.78113,24.6188z" data-paper-data="{&quot;origPos&quot;:null,&quot;origRot&quot;:0,&quot;index&quot;:null}"/><path fill="#fff" stroke="#000" stroke-linecap="butt" stroke-width="2" d="M231.19311,328.12584l14.62456,-24.14395l5.56863,5.61323l-13.30958,25.11706z" data-paper-data="{&quot;origPos&quot;:null,&quot;origRot&quot;:0,&quot;index&quot;:null}"/><path fill="#fff" stroke="#000" stroke-linecap="butt" stroke-width="2" d="M288.74748,327.67759l-4.84362,-6.09895l20.2171,2.95855l6.6673,6.70271z" data-paper-data="{&quot;origPos&quot;:null,&quot;origRot&quot;:0}"/><path fill="#fff" stroke="#000" stroke-linecap="butt" stroke-width="2" d="M310.87982,328.96147l-5.15739,-5.83602l20.34463,1.89218l7.01028,6.34313z" data-paper-data="{&quot;origPos&quot;:null,&quot;origRot&quot;:0}"/><path fill="#fff" stroke="#000" stroke-linecap="butt" stroke-width="2" d="M268.88971,325.46299l-5.09228,-5.89291l20.32236,2.11792l6.93944,6.42054z" data-paper-data="{&quot;origPos&quot;:null,&quot;origRot&quot;:0}"/><path fill="#fff" stroke="#000" stroke-linecap="butt" stroke-width="2" d="M245.15019,308.84392l-5.45612,-5.55773l20.41582,0.82346l7.33306,5.96703z" data-paper-data="{&quot;origPos&quot;:null,&quot;origRot&quot;:0}"/><path fill="#ff2e2e" stroke="#000" stroke-linecap="butt" stroke-width="2" d="M323.83372,327.21639l-13.03134,-19.79323l6.67791,2.24763l15.85078,19.31657z" data-paper-data="{&quot;origPos&quot;:null,&quot;origRot&quot;:0,&quot;index&quot;:null}"/><path fill="#fff" stroke="#000" stroke-linecap="butt" stroke-width="2" d="M299.63917,314.90415l27.45168,-4.93584l-0.52203,7.79527l-27.31374,6.54637z" data-paper-data="{&quot;origPos&quot;:null,&quot;origRot&quot;:0,&quot;index&quot;:null}"/><path fill="#ff2e2e" stroke="#000" stroke-linecap="butt" stroke-width="2" d="M295.98715,321.03826l11.85376,-20.52014l0.98362,6.97701l-10.16406,22.82693z" data-paper-data="{&quot;origPos&quot;:null,&quot;origRot&quot;:0,&quot;index&quot;:null}"/><path fill="#fff" stroke="#000" stroke-linecap="butt" stroke-width="2" d="M283.25158,324.91554l17.75262,-21.51283l4.64127,6.28469l-16.60619,22.65237z" data-paper-data="{&quot;origPos&quot;:null,&quot;origRot&quot;:0,&quot;index&quot;:null}"/><path fill="#ff2e2e" stroke="#000" stroke-linecap="butt" stroke-width="2" d="M283.60535,325.31325l-8.17845,-22.24187l5.99009,3.71012l11.03233,22.42018z" data-paper-data="{&quot;origPos&quot;:null,&quot;origRot&quot;:0,&quot;index&quot;:null}"/><path fill="#fff" stroke="#000" stroke-linecap="butt" stroke-width="2" d="M263.426,329.32846l17.75262,-21.51283l4.64127,6.28469l-16.60619,22.65237z" data-paper-data="{&quot;origPos&quot;:null,&quot;origRot&quot;:0,&quot;index&quot;:null}"/><path fill="#ff2e2e" stroke="#000" stroke-linecap="butt" stroke-width="2" d="M273.37577,317.14218l7.78359,-22.3831l2.27806,6.66758l-5.69024,24.33101z" data-paper-data="{&quot;origPos&quot;:null,&quot;origRot&quot;:0,&quot;index&quot;:null}"/><path fill="#fff" stroke="#000" stroke-linecap="butt" stroke-width="2" d="M257.30294,311.50674l28.15949,-10.20484l0.68155,7.78295l-27.43534,10.32374z" data-paper-data="{&quot;origPos&quot;:null,&quot;origRot&quot;:0,&quot;index&quot;:null}"/><path fill="#fff" stroke="#000" stroke-linecap="butt" stroke-width="2" d="M304.10795,315.7309l-4.78598,-6.02637l19.97651,2.92334l6.58797,6.62296z" data-paper-data="{&quot;origPos&quot;:null,&quot;origRot&quot;:0}"/><path fill="#fff" stroke="#000" stroke-linecap="butt" stroke-width="2" d="M284.4865,313.54267l-5.03169,-5.82279l20.08052,2.09272l6.85686,6.34414z" data-paper-data="{&quot;origPos&quot;:null,&quot;origRot&quot;:0}"/><path fill="#fff" stroke="#000" stroke-linecap="butt" stroke-width="2" d="M261.63358,310.38877l-4.85947,-5.96726l20.01083,2.67831l6.66865,6.5417z" data-paper-data="{&quot;origPos&quot;:null,&quot;origRot&quot;:0}"/><path fill="#ffd499" stroke="#806c4d" stroke-linecap="butt" stroke-width="2" d="M33.98853,260.82234l17.3374,-8.0118l9.30316,21.13443c0,0 -4.83413,6.84971 -9.54701,8.42488c-4.71289,1.57517 -13.10457,-0.85417 -13.10457,-0.85417z" data-paper-data="{&quot;origRot&quot;:0,&quot;origPos&quot;:null,&quot;index&quot;:null}"/><path id="ID0.5423141438513994" fill="#000" stroke="#000" stroke-linecap="round" stroke-width="2.543" d="M64.55816,173.83345c0,0 -23.77671,16.31037 -25.18171,28.70803c0.5753,8.11104 17.68162,59.64085 17.68162,59.64085c0,0 -6.07003,5.40133 -10.33892,7.28183c-4.2689,1.88051 -12.24448,2.66645 -12.24448,2.66645c0,0 -15.41684,-53.15305 -19.45232,-64.86057c-2.84759,-8.26125 27.31372,-49.0305 41.9074,-60.57411c2.50978,-2.12506 10.11132,0.52467 10.11132,0.52467z" data-paper-data="{&quot;origPos&quot;:null,&quot;index&quot;:null,&quot;origRot&quot;:0}"/><path fill="#ff2e2e" stroke="#000" stroke-linecap="butt" stroke-width="2" d="M254.04556,324.57773l4.46055,-23.27425l3.21949,6.26746l-2.10722,24.89852z" data-paper-data="{&quot;origPos&quot;:null,&quot;origRot&quot;:0,&quot;index&quot;:null}"/><path fill="#fff" stroke="#000" stroke-linecap="butt" stroke-width="2" d="M352.77911,338.59974l-20.60173,-18.80229l6.50811,-4.32242l21.79697,17.71404z" data-paper-data="{&quot;origPos&quot;:null,&quot;origRot&quot;:0,&quot;index&quot;:null}"/><path fill="#fff" stroke="#000" stroke-linecap="butt" stroke-width="2" d="M261.85858,306.06932l-3.42401,-6.89194l18.92766,7.02499l5.06198,7.85119z" data-paper-data="{&quot;origPos&quot;:null,&quot;origRot&quot;:0}"/><path fill="#fff" stroke="#000" stroke-linecap="butt" stroke-width="2" d="M329.61797,327.90119l-7.09235,-2.98685l18.92537,-7.03116l8.95942,2.64455z" data-paper-data="{&quot;origPos&quot;:null,&quot;origRot&quot;:0}"/><path fill="#ff2e2e" stroke="#000" stroke-linecap="butt" stroke-width="2" d="M361.81108,314.17565l-21.07894,-11.44005l7.03208,-1.18287l23.36721,9.66853z" data-paper-data="{&quot;origPos&quot;:null,&quot;origRot&quot;:0,&quot;index&quot;:null}"/><path fill="#fff" stroke="#000" stroke-linecap="butt" stroke-width="2" d="M345.70621,334.50789l0.09877,-28.22761l7.6644,1.9429l1.52959,28.38436z" data-paper-data="{&quot;origPos&quot;:null,&quot;origRot&quot;:0,&quot;index&quot;:null}"/><path fill="#ff2e2e" stroke="#000" stroke-linecap="butt" stroke-width="2" d="M307.38066,329.71647l2.17216,-23.88469l3.8672,5.99115l0.35985,25.28591z" data-paper-data="{&quot;origPos&quot;:null,&quot;origRot&quot;:0,&quot;index&quot;:null}"/><path fill="#fff" stroke="#000" stroke-linecap="butt" stroke-width="2" d="M295.55978,325.41845l19.46789,-20.4404l4.2334,6.67803l-18.39253,21.67318z" data-paper-data="{&quot;origPos&quot;:null,&quot;origRot&quot;:0,&quot;index&quot;:null}"/><path fill="#ff2e2e" stroke="#000" stroke-linecap="butt" stroke-width="2" d="M294.14301,329.20422l2.17216,-23.88469l3.8672,5.99115l0.35985,25.28591z" data-paper-data="{&quot;origPos&quot;:null,&quot;origRot&quot;:0,&quot;index&quot;:null}"/><path fill="#fff" stroke="#000" stroke-linecap="butt" stroke-width="2" d="M277.30278,325.14278l19.46789,-20.4404l4.2334,6.67803l-18.39253,21.67318z" data-paper-data="{&quot;origPos&quot;:null,&quot;origRot&quot;:0,&quot;index&quot;:null}"/><path fill="#ff2e2e" stroke="#000" stroke-linecap="butt" stroke-width="2" d="M284.14426,322.71051l5.30091,-23.39011l3.04392,6.44855l-2.97564,25.11279z" data-paper-data="{&quot;origPos&quot;:null,&quot;origRot&quot;:0,&quot;index&quot;:null}"/><path fill="#fff" stroke="#000" stroke-linecap="butt" stroke-width="2" d="M264.39771,317.65557l23.7833,-15.20405l2.51745,7.49535l-23.0332,16.65783z" data-paper-data="{&quot;origPos&quot;:null,&quot;origRot&quot;:0,&quot;index&quot;:null}"/><path fill="#ff2e2e" stroke="#000" stroke-linecap="butt" stroke-width="2" d="M274.26517,304.08186l4.51426,-23.55456l3.25827,6.34295l-2.1326,25.19839z" data-paper-data="{&quot;origPos&quot;:null,&quot;origRot&quot;:0,&quot;index&quot;:null}"/><path fill="#fff" stroke="#000" stroke-linecap="butt" stroke-width="2" d="M257.90688,298.38139l21.38661,-18.42338l3.55501,7.06257l-20.43792,19.75608z" data-paper-data="{&quot;origPos&quot;:null,&quot;origRot&quot;:0,&quot;index&quot;:null}"/><path fill="#fff" stroke="#000" stroke-linecap="butt" stroke-width="2" d="M309.37019,311.32867l-4.72971,-6.1877l20.15878,3.33286l6.54189,6.82517z" data-paper-data="{&quot;origPos&quot;:null,&quot;origRot&quot;:0}"/><path fill="#fff" stroke="#000" stroke-linecap="butt" stroke-width="2" d="M337.8735,328.12223l-6.70554,3.9615l5.70303,-19.62038l7.5537,-5.68516z" data-paper-data="{&quot;origPos&quot;:null,&quot;origRot&quot;:0}"/><path fill="#fff" stroke="#000" stroke-linecap="butt" stroke-width="2" d="M314.58199,311.01772l-3.40964,-7.00228l19.09845,7.26177l5.05956,7.98624z" data-paper-data="{&quot;origPos&quot;:null,&quot;origRot&quot;:0}"/><path fill="#fff" stroke="#000" stroke-linecap="butt" stroke-width="2" d="M269.2129,312.77372l-6.52357,-4.25449l20.11532,-3.58581l8.44461,4.25062z" data-paper-data="{&quot;origPos&quot;:null,&quot;origRot&quot;:0}"/><path fill="#ff2e2e" stroke="#000" stroke-linecap="butt" stroke-width="2" d="M331.33541,333.97233l0.41155,-23.69428l4.24461,5.62401l2.18504,24.89182z" data-paper-data="{&quot;origPos&quot;:null,&quot;origRot&quot;:0,&quot;index&quot;:null}"/><path fill="#fff" stroke="#000" stroke-linecap="butt" stroke-width="2" d="M323.25845,327.99724l19.63631,-19.8084l4.0502,6.68091l-18.59833,21.04751z" data-paper-data="{&quot;origPos&quot;:null,&quot;origRot&quot;:0,&quot;index&quot;:null}"/><path fill="#ff2e2e" stroke="#000" stroke-linecap="butt" stroke-width="2" d="M354.74043,327.738l6.52831,-22.7809l2.64489,6.53076l-4.33,24.60951z" data-paper-data="{&quot;origPos&quot;:null,&quot;origRot&quot;:0,&quot;index&quot;:null}"/><path fill="#fff" stroke="#000" stroke-linecap="butt" stroke-width="2" d="M339.14659,320.67952l22.67845,-16.23716l2.87321,7.26522l-21.86282,17.63272z" data-paper-data="{&quot;origPos&quot;:null,&quot;origRot&quot;:0,&quot;index&quot;:null}"/><path fill="#ff2e2e" stroke="#000" stroke-linecap="butt" stroke-width="2" d="M332.76571,318.6368l14.86008,-18.45986l-0.09785,7.04533l-13.54407,20.99846z" data-paper-data="{&quot;origPos&quot;:null,&quot;origRot&quot;:0,&quot;index&quot;:null}"/><path fill="#fff" stroke="#000" stroke-linecap="butt" stroke-width="2" d="M321.13506,311.57824l27.20323,-6.15969l-0.17257,7.81082l-26.99334,7.76243z" data-paper-data="{&quot;origPos&quot;:null,&quot;origRot&quot;:0,&quot;index&quot;:null}"/><path fill="#ff2e2e" stroke="#000" stroke-linecap="butt" stroke-width="2" d="M303.38374,321.01772l-15.95472,-17.5224l6.94645,1.18027l18.66553,16.6125z" data-paper-data="{&quot;origPos&quot;:null,&quot;origRot&quot;:0,&quot;index&quot;:null}"/><path fill="#fff" stroke="#000" stroke-linecap="butt" stroke-width="2" d="M265.07669,315.05504l24.07891,-17.81295l2.87319,7.26523l-23.35094,17.72037z" data-paper-data="{&quot;origPos&quot;:null,&quot;origRot&quot;:0,&quot;index&quot;:null}"/><path fill="#fff" stroke="#000" stroke-linecap="butt" stroke-width="2" d="M313.72577,322.16039l-7.57089,-1.37996l16.95346,-10.96301l9.31952,0.64145z" data-paper-data="{&quot;origPos&quot;:null,&quot;origRot&quot;:0}"/><path fill="#fff" stroke="#000" stroke-linecap="butt" stroke-width="2" d="M347.45197,306.47259l-0.41883,-7.68422l14.60558,13.93858l1.54381,9.2131z" data-paper-data="{&quot;origPos&quot;:null,&quot;origRot&quot;:0}"/><path fill="#fff" stroke="#000" stroke-linecap="butt" stroke-width="2" d="M310.63044,310.84182l-5.38974,-5.49302l20.17265,0.819l7.24424,5.89794z" data-paper-data="{&quot;origPos&quot;:null,&quot;origRot&quot;:0}"/><path fill="#fff" stroke="#000" stroke-linecap="butt" stroke-width="2" d="M376.15507,321.92689l25.35391,-11.62485l1.43815,7.67922l-24.81874,13.15012z" data-paper-data="{&quot;origPos&quot;:null,&quot;origRot&quot;:0,&quot;index&quot;:null}"/><path fill="#fff" stroke="#000" stroke-linecap="butt" stroke-width="2" d="M290.29706,310.07869l-3.16555,-7.01441l18.65355,7.72346l4.76675,8.03385z" data-paper-data="{&quot;origPos&quot;:null,&quot;origRot&quot;:0}"/><path fill="#fff" stroke="#000" stroke-linecap="butt" stroke-width="2" d="M408.2063,304.79025l7.49969,1.72554l-17.43815,10.17436l-9.28032,-1.06794z" data-paper-data="{&quot;origPos&quot;:null,&quot;origRot&quot;:0}"/><path fill="#ff2e2e" stroke="#000" stroke-linecap="butt" stroke-width="2" d="M238.40069,334.0397l-3.37866,-26.73221l5.68877,5.64102l6.49503,27.65891z" data-paper-data="{&quot;origPos&quot;:null,&quot;origRot&quot;:0,&quot;index&quot;:null}"/><path fill="#fff" stroke="#000" stroke-linecap="butt" stroke-width="2" d="M218.94241,333.64583l16.43052,-27.12542l6.25628,6.30638l-14.95314,28.2187z" data-paper-data="{&quot;origPos&quot;:null,&quot;origRot&quot;:0,&quot;index&quot;:null}"/><path fill="#ff2e2e" stroke="#000" stroke-linecap="butt" stroke-width="2" d="M216.67994,333.29071l-3.37866,-26.7322l5.68877,5.64102l6.49503,27.65891z" data-paper-data="{&quot;origPos&quot;:null,&quot;origRot&quot;:0,&quot;index&quot;:null}"/><path fill="#fff" stroke="#000" stroke-linecap="butt" stroke-width="2" d="M197.22165,332.89685l16.43051,-27.12542l6.25628,6.30639l-14.95314,28.2187z" data-paper-data="{&quot;origPos&quot;:null,&quot;origRot&quot;:0,&quot;index&quot;:null}"/><path fill="#fff" stroke="#000" stroke-linecap="butt" stroke-width="2" d="M213.80772,312.63311l-6.4495,-5.91333l22.95384,-0.28132l8.57947,6.26173z" data-paper-data="{&quot;origPos&quot;:null,&quot;origRot&quot;:0}"/><path fill="#fff" stroke="#000" stroke-linecap="butt" stroke-width="2" d="M245.45151,311.37576l23.74167,-20.45212l3.94648,7.84027l-22.68849,21.93159z" data-paper-data="{&quot;origPos&quot;:null,&quot;origRot&quot;:0,&quot;index&quot;:null}"/><path fill="#ff2e2e" stroke="#000" stroke-linecap="butt" stroke-width="2" d="M243.43474,310.34935l5.01137,-26.14832l3.61706,7.04141l-2.36744,27.97317z" data-paper-data="{&quot;origPos&quot;:null,&quot;origRot&quot;:0,&quot;index&quot;:null}"/><path fill="#fff" stroke="#000" stroke-linecap="butt" stroke-width="2" d="M223.86668,305.9254l25.15009,-22.35639l3.94648,7.84028l-24.34484,22.17949z" data-paper-data="{&quot;origPos&quot;:null,&quot;origRot&quot;:0,&quot;index&quot;:null}"/><path fill="#fff" stroke="#000" stroke-linecap="butt" stroke-width="2" d="M248.56182,303.06294l-4.24836,-7.53019l21.65031,6.76425l6.14268,8.5097z" data-paper-data="{&quot;origPos&quot;:null,&quot;origRot&quot;:0}"/><path fill="#ff2e2e" stroke="#000" stroke-linecap="butt" stroke-width="2" d="M220.64689,302.92197l5.01137,-26.14832l3.61706,7.04141l-2.36744,27.97317z" data-paper-data="{&quot;origPos&quot;:null,&quot;origRot&quot;:0,&quot;index&quot;:null}"/><path fill="#fff" stroke="#000" stroke-linecap="butt" stroke-width="2" d="M229.80669,296.55608l-4.24836,-7.53019l21.65031,6.76425l6.14268,8.5097z" data-paper-data="{&quot;origPos&quot;:null,&quot;origRot&quot;:0}"/><path fill="#ff2e2e" stroke="#000" stroke-linecap="butt" stroke-width="2" d="M270.38535,299.95585l-18.87488,-19.22929l7.94299,1.04498l21.91615,18.07991z" data-paper-data="{&quot;origPos&quot;:null,&quot;origRot&quot;:0,&quot;index&quot;:null}"/><path fill="#fff" stroke="#000" stroke-linecap="butt" stroke-width="2" d="M253.23244,293.07263l28.22999,-14.45053l2.01084,8.65264l-27.54717,16.15688z" data-paper-data="{&quot;origPos&quot;:null,&quot;origRot&quot;:0,&quot;index&quot;:null}"/><path fill="#ff2e2e" stroke="#000" stroke-linecap="butt" stroke-width="2" d="M249.86834,299.96244l-2.53797,-26.82507l5.50891,5.81678l5.6237,27.84914z" data-paper-data="{&quot;origPos&quot;:null,&quot;origRot&quot;:0,&quot;index&quot;:null}"/><path fill="#fff" stroke="#000" stroke-linecap="butt" stroke-width="2" d="M230.43201,298.95801l17.27378,-26.59636l6.05527,6.49965l-15.83147,27.73547z" data-paper-data="{&quot;origPos&quot;:null,&quot;origRot&quot;:0,&quot;index&quot;:null}"/><path fill="#ff2e2e" stroke="#000" stroke-linecap="butt" stroke-width="2" d="M217.1296,287.84877l11.20294,-24.1525l1.80149,7.70838l-9.08047,26.56404z" data-paper-data="{&quot;origPos&quot;:null,&quot;origRot&quot;:0,&quot;index&quot;:null}"/><path fill="#ff2e2e" stroke="#000" stroke-linecap="butt" stroke-width="2" d="M393.2639,332.13844l-25.35025,9.13187l4.26335,-6.78283l25.57442,-12.37536z" data-paper-data="{&quot;origPos&quot;:null,&quot;origRot&quot;:0,&quot;index&quot;:null}"/><path fill="#fff" stroke="#000" stroke-linecap="butt" stroke-width="2" d="M354.1561,332.93397l20.11806,-24.51558l5.29673,7.13135l-18.81101,25.8077z" data-paper-data="{&quot;origPos&quot;:null,&quot;origRot&quot;:0,&quot;index&quot;:null}"/><path fill="#ff2e2e" stroke="#000" stroke-linecap="butt" stroke-width="2" d="M353.01926,338.56863l-20.20091,-17.83113l7.99736,0.47462l23.15227,16.46733z" data-paper-data="{&quot;origPos&quot;:null,&quot;origRot&quot;:0,&quot;index&quot;:null}"/><path fill="#fff" stroke="#000" stroke-linecap="butt" stroke-width="2" d="M327.03352,323.07611l30.16993,-9.7737l0.60817,8.86238l-29.76738,11.56696z" data-paper-data="{&quot;origPos&quot;:null,&quot;origRot&quot;:0,&quot;index&quot;:null}"/><path fill="#fff" stroke="#000" stroke-linecap="butt" stroke-width="2" d="M347.35105,325.13705l-4.32715,-7.60521l21.93577,6.76615l6.24788,8.58956z" data-paper-data="{&quot;origPos&quot;:null,&quot;origRot&quot;:0}"/><path fill="#fff" stroke="#000" stroke-linecap="butt" stroke-width="2" d="M375.762,320.99176l29.79242,-9.71432l0.61768,8.75574l-29.39125,11.48551z" data-paper-data="{&quot;origPos&quot;:null,&quot;origRot&quot;:0,&quot;index&quot;:null}"/><path fill="#ff2e2e" stroke="#000" stroke-linecap="butt" stroke-width="2" d="M362.71312,328.94005l6.53278,-25.8103l3.19885,7.24098l-4.00012,27.78673z" data-paper-data="{&quot;origPos&quot;:null,&quot;origRot&quot;:0,&quot;index&quot;:null}"/><path fill="#fff" stroke="#000" stroke-linecap="butt" stroke-width="2" d="M345.62622,316.13328l33.10925,-6.00935l-0.70829,8.74889l-32.32951,6.27719z" data-paper-data="{&quot;origPos&quot;:null,&quot;origRot&quot;:0,&quot;index&quot;:null}"/><path fill="#fff" stroke="#000" stroke-linecap="butt" stroke-width="2" d="M373.18759,309.65292l0.28914,-8.6411l14.97109,17.03988l0.8191,10.46312z" data-paper-data="{&quot;origPos&quot;:null,&quot;origRot&quot;:0}"/><path fill="#ff2e2e" stroke="#000" stroke-linecap="butt" stroke-width="2" d="M363.20076,326.22526l-24.34827,-10.77082l7.67506,-1.93854l26.72162,8.60573z" data-paper-data="{&quot;origPos&quot;:null,&quot;origRot&quot;:0,&quot;index&quot;:null}"/><path fill="#fff" stroke="#000" stroke-linecap="butt" stroke-width="2" d="M358.71724,315.76635l1.76851,-8.46314l11.82307,19.35734l-0.98955,10.44837z" data-paper-data="{&quot;origPos&quot;:null,&quot;origRot&quot;:0}"/><path fill="#ff2e2e" stroke="#000" stroke-linecap="butt" stroke-width="2" d="M409.76297,326.26551l26.23732,-6.13427l-5.02027,6.24341l-26.83565,9.32997z" data-paper-data="{&quot;origPos&quot;:null,&quot;origRot&quot;:0,&quot;index&quot;:null}"/><path fill="#fff" stroke="#000" stroke-linecap="butt" stroke-width="2" d="M375.86562,306.08836l23.8664,20.88411l-7.29547,5.0683l-25.19922,-19.61862z" data-paper-data="{&quot;origPos&quot;:null,&quot;origRot&quot;:0,&quot;index&quot;:null}"/><path fill="#ff2e2e" stroke="#000" stroke-linecap="butt" stroke-width="2" d="M363.56765,312.11606l26.30006,-5.85941l-5.08533,6.19053l-26.93181,9.04867z" data-paper-data="{&quot;origPos&quot;:null,&quot;origRot&quot;:0,&quot;index&quot;:null}"/><path fill="#fff" stroke="#000" stroke-linecap="butt" stroke-width="2" d="M350.51912,315.61696l30.89397,7.16328l-4.04376,7.90947l-31.47263,-5.41889z" data-paper-data="{&quot;origPos&quot;:null,&quot;origRot&quot;:0,&quot;index&quot;:null}"/><path fill="#fff" stroke="#000" stroke-linecap="butt" stroke-width="2" d="M389.30228,314.02343l1.81426,-8.5599l11.90947,19.62454l-1.03166,10.5713z" data-paper-data="{&quot;origPos&quot;:null,&quot;origRot&quot;:0}"/><path fill="#fff" stroke="#000" stroke-linecap="butt" stroke-width="2" d="M407.24569,309.0833l26.35313,16.95491l-6.39647,6.01082l-27.47255,-15.52489z" data-paper-data="{&quot;origPos&quot;:null,&quot;origRot&quot;:0,&quot;index&quot;:null}"/><path fill="#ff2e2e" stroke="#000" stroke-linecap="butt" stroke-width="2" d="M409.76131,330.78565l-4.48956,-26.24295l5.85928,5.32293l7.60593,27.0232z" data-paper-data="{&quot;origPos&quot;:null,&quot;origRot&quot;:0,&quot;index&quot;:null}"/><path fill="#fff" stroke="#000" stroke-linecap="butt" stroke-width="2" d="M380.83425,314.9422l33.59278,1.96487l-2.7507,8.33536l-32.89814,-1.52077z" data-paper-data="{&quot;origPos&quot;:null,&quot;origRot&quot;:0,&quot;index&quot;:null}"/><path fill="#fff" stroke="#000" stroke-linecap="butt" stroke-width="2" d="M409.79045,311.90189l4.88413,-7.13424l3.47914,22.41399l-4.92764,9.26638z" data-paper-data="{&quot;origPos&quot;:null,&quot;origRot&quot;:0}"/><path fill="#ff2e2e" stroke="#000" stroke-linecap="butt" stroke-width="2" d="M395.2377,311.04934l25.98709,-5.78967l-5.02481,6.11684l-26.61131,8.94099z" data-paper-data="{&quot;origPos&quot;:null,&quot;origRot&quot;:0,&quot;index&quot;:null}"/><path fill="#fff" stroke="#000" stroke-linecap="butt" stroke-width="2" d="M403.07028,316.32106l-1.02787,-8.58462l17.38756,14.56584l2.40022,10.21698z" data-paper-data="{&quot;origPos&quot;:null,&quot;origRot&quot;:0}"/><path fill="#fff" stroke="#000" stroke-linecap="butt" stroke-width="2" d="M438.18508,307.34339l26.77381,20.38377l-6.93547,5.37994l-26.44543,-19.62753z" data-paper-data="{&quot;origPos&quot;:null,&quot;origRot&quot;:0,&quot;index&quot;:null}"/><path fill="#ff2e2e" stroke="#000" stroke-linecap="butt" stroke-width="2" d="M429.10189,309.36917l15.4752,21.66488l-7.59309,-2.23819l-18.62016,-21.00935z" data-paper-data="{&quot;origPos&quot;:null,&quot;origRot&quot;:0,&quot;index&quot;:null}"/><path fill="#fff" stroke="#000" stroke-linecap="butt" stroke-width="2" d="M424.52049,309.32843l23.9606,20.1952l-7.11465,5.14067l-25.25417,-18.92058z" data-paper-data="{&quot;origPos&quot;:null,&quot;origRot&quot;:0,&quot;index&quot;:null}"/><path fill="#ff2e2e" stroke="#000" stroke-linecap="butt" stroke-width="2" d="M417.32763,327.4633l15.67996,-21.51715l0.27026,7.91146l-14.0662,24.29496z" data-paper-data="{&quot;origPos&quot;:null,&quot;origRot&quot;:0,&quot;index&quot;:null}"/><path fill="#fff" stroke="#000" stroke-linecap="butt" stroke-width="2" d="M408.24267,304.15669l33.59278,1.96487l-2.7507,8.33536l-32.89814,-1.52077z" data-paper-data="{&quot;origPos&quot;:null,&quot;origRot&quot;:0,&quot;index&quot;:null}"/><path fill="#ff2e2e" stroke="#000" stroke-linecap="butt" stroke-width="2" d="M415.48404,301.83325l26.08489,-5.33172l-5.13161,6.02753l-26.76444,8.47158z" data-paper-data="{&quot;origPos&quot;:null,&quot;origRot&quot;:0,&quot;index&quot;:null}"/><path fill="#fff" stroke="#000" stroke-linecap="butt" stroke-width="2" d="M434.38497,314.14435l2.80979,-8.17663l9.31765,20.68024l-2.28439,10.2435z" data-paper-data="{&quot;origPos&quot;:null,&quot;origRot&quot;:0}"/><path fill="#fff" stroke="#000" stroke-linecap="butt" stroke-width="2" d="M423.24649,311.22557l-0.53526,-8.62936l16.52613,15.53636l1.81202,10.33751z" data-paper-data="{&quot;origPos&quot;:null,&quot;origRot&quot;:0}"/><path fill="#fff" stroke="#000" stroke-linecap="butt" stroke-width="2" d="M431.88311,322.64817l0.9668,-8.59171l13.58684,18.16285l-0.00503,10.49514z" data-paper-data="{&quot;origPos&quot;:null,&quot;origRot&quot;:0}"/><path fill="#ff2e2e" stroke="#000" stroke-linecap="butt" stroke-width="2" d="M363.57371,312.77333l22.57425,-8.00441l-3.81985,6.01022l-22.78795,10.88652z" data-paper-data="{&quot;origPos&quot;:null,&quot;origRot&quot;:0,&quot;index&quot;:null}"/><path fill="#fff" stroke="#000" stroke-linecap="butt" stroke-width="2" d="M351.92271,305.86591l30.13926,2.83134l-2.73725,7.4067l-29.52884,-2.41007z" data-paper-data="{&quot;origPos&quot;:null,&quot;origRot&quot;:0,&quot;index&quot;:null}"/><path fill="#ff2e2e" stroke="#000" stroke-linecap="butt" stroke-width="2" d="M329.88579,303.5582l23.90223,1.53309l-5.87819,4.02009l-25.23375,1.03193z" data-paper-data="{&quot;origPos&quot;:null,&quot;origRot&quot;:0,&quot;index&quot;:null}"/><path fill="#fff" stroke="#000" stroke-linecap="butt" stroke-width="2" d="M309.38539,334.44869l19.79788,-22.90057l4.44299,6.52776l-19.10053,22.64798z" data-paper-data="{&quot;origPos&quot;:null,&quot;origRot&quot;:0,&quot;index&quot;:null}"/><path fill="#ff2e2e" stroke="#000" stroke-linecap="butt" stroke-width="2" d="M243.89875,272.11154l-19.10271,-14.02406l7.04271,-0.21569l21.58025,12.59642z" data-paper-data="{&quot;origPos&quot;:null,&quot;origRot&quot;:0,&quot;index&quot;:null}"/><path fill="#fff" stroke="#000" stroke-linecap="butt" stroke-width="2" d="M224.10248,286.22524l-8.67836,-1.11787l18.59993,-13.45367l10.62006,0.17558z" data-paper-data="{&quot;origPos&quot;:null,&quot;origRot&quot;:0}"/><path fill="#fff" stroke="#000" stroke-linecap="butt" stroke-width="2" d="M235.622,274.79203l-8.27323,-30.22433l8.7753,-0.19672l10.06163,29.90863z" data-paper-data="{&quot;origPos&quot;:null,&quot;origRot&quot;:0,&quot;index&quot;:null}"/><path fill="#ff2e2e" stroke="#000" stroke-linecap="butt" stroke-width="2" d="M230.3289,273.17247l-21.46165,-15.75586l7.91239,-0.24233l24.24513,14.15192z" data-paper-data="{&quot;origPos&quot;:null,&quot;origRot&quot;:0,&quot;index&quot;:null}"/><path fill="#fff" stroke="#000" stroke-linecap="butt" stroke-width="2" d="M217.92966,288.94394l-9.38803,-32.31408l8.7753,-0.19672l9.57413,31.51091z" data-paper-data="{&quot;origPos&quot;:null,&quot;origRot&quot;:0,&quot;index&quot;:null}"/><path fill="#fff" stroke="#000" stroke-linecap="butt" stroke-width="2" d="M217.06649,264.18433l-8.62492,0.60253l15.40702,-16.64676l10.32306,-1.89257z" data-paper-data="{&quot;origPos&quot;:null,&quot;origRot&quot;:0}"/><path fill="#fff" stroke="#000" stroke-linecap="butt" stroke-width="2" d="M200.13535,279.82706l-8.62492,0.60253l15.40702,-16.64676l10.32307,-1.89256z" data-paper-data="{&quot;origPos&quot;:null,&quot;origRot&quot;:0}"/><path fill="#fff" stroke="#000" stroke-linecap="butt" stroke-width="2" d="M216.00315,244.25735l-10.98626,-31.80624l8.7546,-0.63367l11.13211,30.9948z" data-paper-data="{&quot;origPos&quot;:null,&quot;origRot&quot;:0,&quot;index&quot;:null}"/><path fill="#ff2e2e" stroke="#000" stroke-linecap="butt" stroke-width="2" d="M219.89938,245.76876l-25.07504,-8.94937l7.51155,-2.49824l27.28259,6.61544z" data-paper-data="{&quot;origPos&quot;:null,&quot;origRot&quot;:0,&quot;index&quot;:null}"/><path fill="#fff" stroke="#000" stroke-linecap="butt" stroke-width="2" d="M210.77813,264.89241l-8.2431,-30.23256l8.77549,-0.18798l10.03181,29.91864z" data-paper-data="{&quot;origPos&quot;:null,&quot;origRot&quot;:0,&quot;index&quot;:null}"/><path fill="#ff2e2e" stroke="#000" stroke-linecap="butt" stroke-width="2" d="M210.90712,267.9164l-25.07504,-8.94937l7.51155,-2.49824l27.28259,6.61544z" data-paper-data="{&quot;origPos&quot;:null,&quot;origRot&quot;:0,&quot;index&quot;:null}"/><path fill="#fff" stroke="#000" stroke-linecap="butt" stroke-width="2" d="M203.5441,286.5783l-18.24936,-28.27182l8.35138,-2.70168l18.19763,27.449z" data-paper-data="{&quot;origPos&quot;:null,&quot;origRot&quot;:0,&quot;index&quot;:null}"/><path fill="#ff2e2e" stroke="#000" stroke-linecap="butt" stroke-width="2" d="M197.6882,291.36583l-20.86532,-16.53745l7.91593,0.04995l23.70614,15.03737z" data-paper-data="{&quot;origPos&quot;:null,&quot;origRot&quot;:0,&quot;index&quot;:null}"/><path fill="#fff" stroke="#000" stroke-linecap="butt" stroke-width="2" d="M191.64477,259.66694l-8.09109,3.04741l9.9941,-20.36195l9.34864,-4.76974z" data-paper-data="{&quot;origPos&quot;:null,&quot;origRot&quot;:0}"/><path fill="#fff" stroke="#000" stroke-linecap="butt" stroke-width="2" d="M182.34757,277.20706l-8.09107,3.04741l9.9941,-20.36195l9.34864,-4.76975z" data-paper-data="{&quot;origPos&quot;:null,&quot;origRot&quot;:0}"/><path fill="#fff" stroke="#000" stroke-linecap="butt" stroke-width="2" d="M198.2514,235.81751l-8.09109,3.04741l9.9941,-20.36195l9.34864,-4.76974z" data-paper-data="{&quot;origPos&quot;:null,&quot;origRot&quot;:0}"/><path fill="#ff2e2e" stroke="#000" stroke-linecap="butt" stroke-width="2" d="M193.10882,237.29522l-22.55771,-8.05092l6.75747,-2.24744l24.54362,5.95129z" data-paper-data="{&quot;origPos&quot;:null,&quot;origRot&quot;:0,&quot;index&quot;:null}"/><path fill="#fff" stroke="#000" stroke-linecap="butt" stroke-width="2" d="M183.00679,254.72417l-9.86606,-28.6191l7.87604,-0.5653l9.99771,27.88919z" data-paper-data="{&quot;origPos&quot;:null,&quot;origRot&quot;:0,&quot;index&quot;:null}"/><path fill="#ff2e2e" stroke="#000" stroke-linecap="butt" stroke-width="2" d="M201.10878,215.52526l-23.9247,-1.12967l5.80955,-4.11868l25.21275,-1.45746z" data-paper-data="{&quot;origPos&quot;:null,&quot;origRot&quot;:0,&quot;index&quot;:null}"/><path fill="#fff" stroke="#000" stroke-linecap="butt" stroke-width="2" d="M193.14553,234.50839l-16.41727,-25.43354l7.51296,-2.43045l16.37074,24.69332z" data-paper-data="{&quot;origPos&quot;:null,&quot;origRot&quot;:0,&quot;index&quot;:null}"/><path fill="#ff2e2e" stroke="#000" stroke-linecap="butt" stroke-width="2" d="M181.87324,263.87522l-22.55771,-8.05092l6.75747,-2.24744l24.54362,5.95129z" data-paper-data="{&quot;origPos&quot;:null,&quot;origRot&quot;:0,&quot;index&quot;:null}"/><path fill="#fff" stroke="#000" stroke-linecap="butt" stroke-width="2" d="M171.97023,281.29054l-10.25358,-28.48256l7.86764,-0.67214l10.37529,27.75093z" data-paper-data="{&quot;origPos&quot;:null,&quot;origRot&quot;:0,&quot;index&quot;:null}"/><path fill="#ff2e2e" stroke="#000" stroke-linecap="butt" stroke-width="2" d="M447.09006,315.88857l19.81704,-13.45185l-2.17617,6.78075l-19.2951,16.29435z" data-paper-data="{&quot;origPos&quot;:null,&quot;origRot&quot;:0,&quot;index&quot;:null}"/><path fill="#fff" stroke="#000" stroke-linecap="butt" stroke-width="2" d="M436.66642,315.85223l29.1752,-8.07462l0.07641,7.89595l-28.45486,8.25122z" data-paper-data="{&quot;origPos&quot;:null,&quot;origRot&quot;:0,&quot;index&quot;:null}"/><path fill="#ff2e2e" stroke="#000" stroke-linecap="butt" stroke-width="2" d="M462.57225,330.50211l-22.18157,-9.03576l6.84981,-1.94792l24.25795,7.02556z" data-paper-data="{&quot;origPos&quot;:null,&quot;origRot&quot;:0,&quot;index&quot;:null}"/><path fill="#fff" stroke="#000" stroke-linecap="butt" stroke-width="2" d="M453.2925,312.68292l25.57127,16.20191l-5.80067,5.35759l-25.21854,-15.54948z" data-paper-data="{&quot;origPos&quot;:null,&quot;origRot&quot;:0,&quot;index&quot;:null}"/><path fill="#ff2e2e" stroke="#000" stroke-linecap="butt" stroke-width="2" d="M436.69628,305.84019l23.88541,-1.77588l-5.26802,4.79189l-24.8507,4.49994z" data-paper-data="{&quot;origPos&quot;:null,&quot;origRot&quot;:0,&quot;index&quot;:null}"/><path fill="#fff" stroke="#000" stroke-linecap="butt" stroke-width="2" d="M416.03798,312.47863l30.24061,-1.3775l-1.68317,7.71483l-29.57764,1.71002z" data-paper-data="{&quot;origPos&quot;:null,&quot;origRot&quot;:0,&quot;index&quot;:null}"/></g></g></svg>