<svg version="1.1" xmlns="http://www.w3.org/2000/svg" xmlns:xlink="http://www.w3.org/1999/xlink" width="171.92232" height="272.00816" viewBox="0,0,171.92232,272.00816"><defs><radialGradient cx="128.72551" cy="139.21548" r="62.607" gradientUnits="userSpaceOnUse" id="color-1"><stop offset="0" stop-color="#00ffff"/><stop offset="1" stop-color="#003fff"/></radialGradient><linearGradient x1="142.00326" y1="164.89797" x2="155.78277" y2="160.25361" gradientUnits="userSpaceOnUse" id="color-2"><stop offset="0" stop-color="#3b3b3b"/><stop offset="1" stop-color="#000000"/></linearGradient><linearGradient x1="120.89726" y1="172.25422" x2="134.6642" y2="167.61409" gradientUnits="userSpaceOnUse" id="color-3"><stop offset="0" stop-color="#000000"/><stop offset="1" stop-color="#3b3b3b"/></linearGradient><radialGradient cx="107.1649" cy="91.50559" r="33.46134" gradientUnits="userSpaceOnUse" id="color-4"><stop offset="0" stop-color="#b6b6b6"/><stop offset="1" stop-color="#666666"/></radialGradient><radialGradient cx="112.80069" cy="93.12432" r="10.11556" gradientUnits="userSpaceOnUse" id="color-5"><stop offset="0" stop-color="#ff0000"/><stop offset="1" stop-color="#ff0000" stop-opacity="0"/></radialGradient><radialGradient cx="113.34797" cy="94.30662" r="6.61016" gradientUnits="userSpaceOnUse" id="color-6"><stop offset="0" stop-color="#ff0000"/><stop offset="1" stop-color="#d20000"/></radialGradient><linearGradient x1="83.60728" y1="51.0986" x2="160.60299" y2="48.75585" gradientUnits="userSpaceOnUse" id="color-7"><stop offset="0" stop-color="#cc7700"/><stop offset="1" stop-color="#946f48"/></linearGradient></defs><g transform="translate(-83.37927,-48.05105)"><g data-paper-data="{&quot;isPaintingLayer&quot;:true}" fill-rule="nonzero" stroke-linejoin="miter" stroke-miterlimit="10" stroke-dasharray="" stroke-dashoffset="0" style="mix-blend-mode: normal"><path d="" data-paper-data="{&quot;origPos&quot;:null,&quot;index&quot;:null}" id="ID0.012659578118473291" fill="#ffd499" stroke="none" stroke-width="0.84775" stroke-linecap="butt"/><path d="M134.9053,298.15956c0,0 9.55905,-24.03688 17.9175,-43.26202c8.22799,-18.92506 -18.41679,-45.49311 -18.41679,-45.49311l31.30526,-9.71325c0,0 24.88613,26.6876 25.35025,44.72966c0.46411,18.04206 -16.39631,53.16525 -16.39631,53.16525l-12.57995,0.01252c0,0 9.81616,-28.95435 14.71233,-47.8859c2.67458,-10.34154 -7.01712,-35.70436 -17.6873,-36.20231c-6.40179,-0.62296 9.62526,23.02574 7.57082,34.38089c-2.05444,11.35515 -19.54285,49.84444 -19.54285,49.84444z" data-paper-data="{&quot;origPos&quot;:null,&quot;index&quot;:null}" fill="#333333" stroke="#000000" stroke-width="2.5" stroke-linecap="butt"/><path d="M107.40837,126.23801l31.32253,-10.12144l27.89246,83.87827l-30.81636,9.95082z" data-paper-data="{&quot;origPos&quot;:null,&quot;index&quot;:null,&quot;origRot&quot;:0}" id="ID0.9171315478160977" fill="url(#color-1)" stroke="#000000" stroke-width="2.54325" stroke-linecap="butt"/><g data-paper-data="{&quot;origPos&quot;:null,&quot;index&quot;:null,&quot;origRot&quot;:0}" stroke="#000000" stroke-width="0" stroke-linecap="butt"><path d="M136.43477,168.16303l-2.76106,0.98067l-0.21414,-13.91422l-3.0003,1.37744l-0.42553,-11.41281l9.80869,-3.6562l-0.84134,9.0383l2.08635,-0.83317l-0.01023,13.36078l1.91183,-0.45601l-5.33101,22.69954z" data-paper-data="{&quot;index&quot;:null,&quot;origPos&quot;:null}" fill="#ffde00"/><path d="M134.96098,166.55864l-2.76106,0.98067l-0.21413,-13.91422l-3.0003,1.37744l-0.42552,-11.41281l9.80869,-3.6562l-0.84134,9.0383l2.08635,-0.83317l-0.01022,13.36078l1.91183,-0.45601l-4.44014,22.57439z" data-paper-data="{&quot;index&quot;:null,&quot;origPos&quot;:null}" fill="#ff0000"/><path d="M133.23227,166.96622l-2.76107,0.98067l-0.21413,-13.91422l-3.0003,1.37744l-0.42552,-11.41281l9.80869,-3.6562l-0.84134,9.0383l2.08635,-0.83318l-0.01022,13.36078l1.91182,-0.45601l-3.08239,21.06619z" data-paper-data="{&quot;index&quot;:null,&quot;origPos&quot;:null}" fill="#000000"/></g><path d="M128.61213,125.16736c0,0 3.26173,-3.24152 5.32211,-5.39726c2.06342,-2.15893 5.62848,-4.51961 5.62848,-4.51961c0,0 4.70783,12.67264 5.24688,14.26197c6.16464,18.17532 26.11061,75.65287 26.11061,75.65287l-12.22332,4.78753z" data-paper-data="{&quot;origPos&quot;:null,&quot;index&quot;:null,&quot;origRot&quot;:0}" id="ID0.5423141438513994" fill="url(#color-2)" stroke="#000000" stroke-width="2.54325" stroke-linecap="round"/><path d="M141.60485,116.97274c0,0 4.09041,-2.76484 5.9121,-1.89919c5.46507,2.59695 17.24654,23.71661 23.98255,38.75366c8.97575,18.36791 -13.29804,40.62062 -13.29804,40.62062c0,0 -0.45265,-6.37681 -2.61176,-5.9042c-2.40891,0.52729 -1.021,-4.48132 -1.021,-4.48132c0,0 14.40698,-9.31065 6.96348,-27.61895c-7.44351,-18.3083 -14.27533,-24.08316 -14.27533,-24.08316z" data-paper-data="{&quot;origPos&quot;:null,&quot;index&quot;:null,&quot;origRot&quot;:0}" id="ID0.5423141438513994" fill="#000000" stroke="#000000" stroke-width="2.54325" stroke-linecap="round"/><path d="M149.1249,213.2102l-13.11783,3.87382c0,0 -18.57847,-57.63586 -24.67433,-75.83437c-0.53305,-1.59137 -4.52852,-14.71548 -4.52852,-14.71548c0,0 4.54515,-0.22899 7.63172,0.15092c2.61931,0.32239 6.66899,0.69955 6.66899,0.69955z" data-paper-data="{&quot;origPos&quot;:null,&quot;index&quot;:null,&quot;origRot&quot;:0}" id="ID0.5423141438513994" fill="url(#color-3)" stroke="#000000" stroke-width="2.54325" stroke-linecap="round"/><path d="M131.45596,302.86744l8.61807,-14.23404c0,0 8.42221,5.12894 12.85984,9.45164c4.12036,4.01364 8.23901,13.27998 8.23901,13.27998l-4.20658,6.9478z" data-paper-data="{&quot;origPos&quot;:null,&quot;index&quot;:null,&quot;origRot&quot;:0}" fill="#666666" stroke="#000000" stroke-width="2.54325" stroke-linecap="butt"/><path d="M159.6044,303.14915l8.1394,-14.51305c0,0 8.5883,4.8457 13.16738,9.01826c4.25169,3.87423 8.48061,13.34773 8.48061,13.34773l-3.77697,6.73457z" data-paper-data="{&quot;origPos&quot;:null,&quot;index&quot;:null,&quot;origRot&quot;:0}" fill="#666666" stroke="#000000" stroke-width="2.54325" stroke-linecap="butt"/><path d="M112.12203,141.97007c0,0 -3.72241,10.12172 1.90946,29.06589c5.63189,18.94417 24.69602,15.86428 24.69602,15.86428c0,0 4.21378,3.04245 2.00376,4.13637c-1.98085,0.98049 -1.40903,8.17905 -1.40903,8.17905c0,0 -31.35763,-2.88801 -35.83065,-22.83635c-4.13967,-15.94835 -5.01975,-42.2983 -2.37661,-47.74118c0.88105,-1.8143 5.80216,-2.21244 5.80216,-2.21244z" data-paper-data="{&quot;origPos&quot;:null,&quot;index&quot;:null,&quot;origRot&quot;:0}" id="ID0.5423141438513994" fill="#000000" stroke="#000000" stroke-width="2.54325" stroke-linecap="round"/><path d="M136.38264,202.94099l-1.69869,-18.19102c0,0 1.41348,0.28261 2.22951,0.20046c0.69514,-0.06999 1.64271,-0.59028 1.64271,-0.59028l5.42228,16.93599c0,0 -2.14837,1.12666 -3.65643,1.45323c-1.45631,0.31535 -3.93936,0.19163 -3.93936,0.19163z" data-paper-data="{&quot;origPos&quot;:null,&quot;origRot&quot;:0}" fill="#1f1f1f" stroke="#000000" stroke-width="0" stroke-linecap="butt"/><path d="M135.82752,202.40846c0,0 -0.58528,-5.59191 -0.83151,-9.19896c-0.21088,-3.0892 -0.33978,-7.95937 -0.33978,-7.95937" data-paper-data="{&quot;origPos&quot;:null,&quot;origRot&quot;:0}" fill="none" stroke="#000000" stroke-width="2.54325" stroke-linecap="round"/><path d="M158.99843,196.22568c-1.39806,0.65293 -3.79011,1.05661 -3.79011,1.05661l-5.93587,-16.76289c0,0 1.06919,-0.15944 1.66486,-0.52452c0.69927,-0.42858 1.65329,-1.50915 1.65329,-1.50915l9.65947,15.50785c0,0 -1.90156,1.60156 -3.25163,2.23208z" data-paper-data="{&quot;origPos&quot;:null,&quot;index&quot;:null,&quot;origRot&quot;:0}" fill="#1f1f1f" stroke="#000000" stroke-width="0" stroke-linecap="butt"/><path d="M152.3427,179.28894c0,0 3.15575,4.02669 4.85788,6.61326c1.98747,3.02018 4.59627,7.75334 4.59627,7.75334" data-paper-data="{&quot;origPos&quot;:null,&quot;origRot&quot;:0,&quot;index&quot;:null}" fill="none" stroke="#000000" stroke-width="2.54325" stroke-linecap="round"/><path d="M94.40882,115.14228l3.35886,-0.40465l0.77969,3.59386z" data-paper-data="{&quot;origPos&quot;:null,&quot;origRot&quot;:0}" fill="#b0936a" stroke="none" stroke-width="0" stroke-linecap="butt"/><path d="M119.8449,61.30948c9.06296,-0.2773 17.38527,3.09718 23.50954,8.77295c6.12431,5.67651 6.87759,14.78862 6.44709,25.0705c-0.29661,7.08425 -1.9385,14.17604 -7.43579,19.93134c-5.76975,6.0397 -14.64014,10.73505 -20.56246,10.94316c-5.9222,0.20812 -15.01203,-2.34804 -21.13631,-8.02379c-6.1244,-5.6766 -10.01466,-12.05163 -10.2848,-20.97886c-0.27013,-8.9273 0.75739,-19.48086 6.52722,-25.52131c5.76976,-6.03971 13.87262,-9.91672 22.93549,-10.19402z" data-paper-data="{&quot;origPos&quot;:null,&quot;origRot&quot;:0}" id="ID0.7719937418587506" fill="#ffd499" stroke="#806c4d" stroke-width="2.5" stroke-linecap="butt"/><path d="M121.93191,63.008c3.41135,0.02007 2.37061,6.49321 2.66298,9.8919c0.66146,7.69786 3.12599,16.48306 0.2016,23.87642c-2.52913,5.75522 -8.40544,10.01136 -14.33234,11.98368c-6.43373,1.87542 -13.18192,2.54239 -15.96443,-0.91467c-4.8998,-10.5734 -2.67998,-26.18431 4.04393,-35.94612c5.91706,-7.98831 13.46826,-8.94523 23.38824,-8.89119z" data-paper-data="{&quot;origPos&quot;:null,&quot;origRot&quot;:0}" id="ID0.479907026514411" fill="url(#color-4)" stroke="#666666" stroke-width="2.5" stroke-linecap="round"/><path d="M136.14445,88.17559c0.1504,3.13451 0.23651,10.36895 0.23651,10.36895" data-paper-data="{&quot;origPos&quot;:null,&quot;origRot&quot;:0}" id="ID0.21129454905167222" fill="none" stroke="#000000" stroke-width="2.5" stroke-linecap="round"/><path d="M127.74793,114.5272l-9.18183,0.20224" data-paper-data="{&quot;origPos&quot;:null,&quot;index&quot;:null,&quot;origRot&quot;:0}" fill="none" stroke="#000000" stroke-width="2" stroke-linecap="round"/><path d="M102.68759,93.34707c-0.12302,-5.58531 4.30503,-10.21284 9.89035,-10.33586c5.58532,-0.12302 10.21284,4.30504 10.33586,9.89035c0.12302,5.58531 -4.30503,10.21284 -9.89035,10.33586c-5.58532,0.12302 -10.21284,-4.30504 -10.33586,-9.89035z" data-paper-data="{&quot;origPos&quot;:null,&quot;origRot&quot;:0}" fill="url(#color-5)" stroke="none" stroke-width="0" stroke-linecap="butt"/><path d="M106.0942,93.37221c-0.08039,-3.6498 2.81319,-6.67373 6.46299,-6.75412c3.6498,-0.08039 6.67373,2.81319 6.75412,6.46299c0.08039,3.6498 -2.81319,6.67373 -6.46299,6.75412c-3.6498,0.08039 -6.67373,-2.81319 -6.75412,-6.46299z" data-paper-data="{&quot;origPos&quot;:null,&quot;origRot&quot;:0}" fill="url(#color-6)" stroke="#666666" stroke-width="2" stroke-linecap="butt"/><path d="M93.78143,108.87779c0,0 1.81766,-13.7265 4.13088,-22.70845c1.52973,-5.93979 5.7221,-15.25966 5.7221,-15.25966l20.11772,3.85837l0.36353,2.89586c0,0 -5.55306,-0.42602 -8.61522,-0.67124c-2.82973,-0.22659 -5.71015,-2.06194 -8.05515,-0.46204c-4.2942,2.92976 -4.15539,8.20521 -5.48727,13.2301c-1.79949,6.78905 -2.89805,19.36193 -2.89805,19.36193z" data-paper-data="{&quot;origRot&quot;:0,&quot;origPos&quot;:null}" fill="#7a7a7a" stroke="none" stroke-width="0" stroke-linecap="butt"/><path d="M126.06523,77.61729l-0.22196,-2.8001l19.98766,-0.36012c0,0 -4.12069,2.07167 -8.3615,2.42817c-4.27245,0.35915 -11.4042,0.73205 -11.4042,0.73205z" data-paper-data="{&quot;origPos&quot;:null,&quot;origRot&quot;:0}" fill="#b0936a" stroke="none" stroke-width="0" stroke-linecap="butt"/><path d="M124.29933,49.86046c8.51977,-0.12123 13.32098,0.49582 21.83673,0.78409c4.93082,0.16692 14.62584,0.05102 14.62584,0.05102c0,0 -6.08535,3.59365 -7.231,3.92484c-2.12489,0.61427 -5.90661,2.03228 -5.90661,2.03228c0,0 3.02394,0.70298 5.16244,1.46678c2.2991,0.82117 5.82108,1.55997 5.82108,1.55997c0,0 -3.492,1.57629 -5.7076,2.19282c-2.76778,0.7702 -6.49245,2.51589 -6.49245,2.51589c0,0 4.44036,2.18355 7.7885,2.84716c3.36703,0.66735 7.79376,2.13582 7.79376,2.13582c0,0 -6.10995,3.51889 -10.10456,4.20514c-10.07577,1.73221 -20.47904,0.26525 -30.69548,0.58755c-6.22833,0.19567 -15.48172,-3.90496 -18.49893,1.71751c-7.97156,13.91502 -6.80423,48.71413 -9.2506,47.62166c-2.44648,-1.09255 -10.2164,-37.47838 -7.87757,-56.29238c0.90496,-7.27093 7.47546,-11.61608 15.73684,-15.24512c8.26139,-3.62901 15.42824,-1.8524 22.99961,-2.10507z" data-paper-data="{&quot;origPos&quot;:null,&quot;origRot&quot;:0}" id="ID0.5302143599838018" fill="url(#color-7)" stroke="#a96300" stroke-width="3.5" stroke-linecap="round"/><path d="M116.12339,112.36722c0,0 1.42603,0.67974 1.46185,2.30587c0.03375,1.53208 -1.49897,2.49611 -1.49897,2.49611" data-paper-data="{&quot;origPos&quot;:null,&quot;origRot&quot;:0}" fill="none" stroke="#000000" stroke-width="2" stroke-linecap="round"/><path d="M249.24493,178.05596c-3.443,1.08613 -5.43525,-1.797 -5.43525,-1.797l-3.51989,-14.88679l10.48457,-2.61113l3.51989,14.88679c0,0 -0.21256,3.38631 -5.04931,4.40812z" data-paper-data="{&quot;origRot&quot;:0,&quot;origPos&quot;:null,&quot;index&quot;:null}" fill="#ffd499" stroke="#806c4d" stroke-width="2" stroke-linecap="butt"/><path d="M210.28884,88.25503c0,0 4.15807,-2.66197 5.95763,-1.75118c5.39861,2.73243 15.15927,20.87564 21.5182,36.07599c6.35895,15.20034 15.80308,44.72958 15.80308,44.72958c0,0 -3.43137,1.17851 -5.68221,1.77083c-2.24082,0.58968 -5.82712,1.2579 -5.82712,1.2579c0,0 -5.84289,-23.63036 -12.82753,-42.11858c-6.98465,-18.48823 -13.67552,-24.44092 -13.67552,-24.44092z" data-paper-data="{&quot;origPos&quot;:null,&quot;index&quot;:null,&quot;origRot&quot;:0}" id="ID0.5423141438513994" fill="#000000" stroke="#000000" stroke-width="2.54325" stroke-linecap="round"/></g></g></svg>