<svg version="1.1" xmlns="http://www.w3.org/2000/svg" xmlns:xlink="http://www.w3.org/1999/xlink" width="18.77759" height="6.76195" viewBox="0,0,18.77759,6.76195"><g transform="translate(-229.48507,-176.04291)"><g data-paper-data="{&quot;isPaintingLayer&quot;:true}" fill="none" fill-rule="nonzero" stroke="none" stroke-width="none" stroke-linecap="butt" stroke-linejoin="miter" stroke-miterlimit="10" stroke-dasharray="" stroke-dashoffset="0" font-family="none" font-weight="none" font-size="none" text-anchor="none" style="mix-blend-mode: normal"><path d="M247.3875,179.36169c0,0.58779 -0.21244,1.67791 -0.70466,2.08526c-1.47667,1.22203 -3.96728,0.71269 -6.73284,0.71269c-3.33265,0 -6.59325,0.63962 -7.46388,-0.56456c-0.29021,-0.40139 -0.07411,-1.37801 -0.22362,-2.341c-0.14951,-0.96299 -0.18467,-2.13409 -0.18467,-2.13409c0,0 1.97764,-1.0725 3.26141,-0.7407c1.74599,0.45126 2.78779,0.39968 4.61076,0.39968c0,0 5.11202,-0.65815 6.68565,0.50432c0.52454,0.38749 0.75185,0.2954 0.75185,2.0784z" data-paper-data="{&quot;origPos&quot;:null}" fill="#000000" stroke-width="0"/><path d="M233.5125,181.72918l0.5,-4.95021l11.375,0.32284v4.62737z" data-paper-data="{&quot;origPos&quot;:null}" fill="#ffffff" stroke-width="0"/><path d="M248.26215,181.70948c0.02289,0.64538 -0.72676,0.66509 -0.72676,0.66509l-0.14789,0.0003c-2.52891,0 -5.03406,0.10761 -7.5625,0.10761c-2.6703,0 -5.91135,-0.4389 -8.45033,0.28971c0,0 -0.71151,0.20418 -0.94868,-0.40836c-0.23717,-0.61255 0.47434,-0.81673 0.47434,-0.81673c2.71542,-0.77924 6.07494,-0.35597 8.92467,-0.35597c2.5282,0 5.03354,-0.10761 7.5625,-0.10761l0.10211,0.0003c0,0 0.74965,-0.01971 0.77254,0.62567z" data-paper-data="{&quot;origPos&quot;:null}" fill="#000000" stroke-width="0.5"/><path d="M247.6123,177.18306c-0.00564,0.74998 -0.75562,0.74434 -0.75562,0.74434l-0.61936,0.00002c-2.61192,0 -5.1889,-0.375 -7.8125,-0.375c-2.69323,0 -5.42515,-0.08946 -8.09447,0.24421c0,0 -0.74421,0.09303 -0.83723,-0.65118c-0.09303,-0.74421 0.65118,-0.83723 0.65118,-0.83723c2.73006,-0.34126 5.52649,-0.25579 8.28053,-0.25579c2.62328,0 5.20271,0.375 7.8125,0.375l0.63064,0.00002c0,0 0.74998,0.00564 0.74434,0.75562z" data-paper-data="{&quot;origPos&quot;:null}" fill="#000000" stroke-width="0.5"/></g></g></svg>