<svg xmlns="http://www.w3.org/2000/svg" xmlns:xlink="http://www.w3.org/1999/xlink" width="423.903" height="294.362" version="1.1" viewBox="0 0 423.903 294.362"><defs><radialGradient id="color-1" cx="246.98" cy="236.752" r="102.081" gradientUnits="userSpaceOnUse"><stop offset="0" stop-color="#0ff"/><stop offset="1" stop-color="#003fff"/></radialGradient><linearGradient id="color-2" x1="255.242" x2="278.945" y1="283.164" y2="282.592" gradientUnits="userSpaceOnUse"><stop offset="0" stop-color="#3b3b3b"/><stop offset="1" stop-color="#000"/></linearGradient><linearGradient id="color-3" x1="207.537" x2="258.102" y1="282.113" y2="289.752" gradientUnits="userSpaceOnUse"><stop offset="0" stop-color="#000"/><stop offset="1" stop-color="#3b3b3b"/></linearGradient><radialGradient id="color-4" cx="229.293" cy="153.697" r="54.559" gradientUnits="userSpaceOnUse"><stop offset="0" stop-color="#b6b6b6"/><stop offset="1" stop-color="#666"/></radialGradient><radialGradient id="color-5" cx="238.115" cy="159.718" r="16.494" gradientUnits="userSpaceOnUse"><stop offset="0" stop-color="red"/><stop offset="1" stop-color="red" stop-opacity="0"/></radialGradient><radialGradient id="color-6" cx="238.881" cy="161.699" r="10.778" gradientUnits="userSpaceOnUse"><stop offset="0" stop-color="red"/><stop offset="1" stop-color="#d20000"/></radialGradient><linearGradient id="color-7" x1="195.211" x2="320.738" y1="85.472" y2="89.757" gradientUnits="userSpaceOnUse"><stop offset="0" stop-color="#c70"/><stop offset="1" stop-color="#946f48"/></linearGradient></defs><g><g fill-rule="nonzero" stroke-dashoffset="0" stroke-linejoin="miter" stroke-miterlimit="10" data-paper-data="{&quot;isPaintingLayer&quot;:true}" transform="translate(-124.41079,-84.35262)" style="mix-blend-mode:normal"><g stroke="#000" data-paper-data="{&quot;origPos&quot;:null,&quot;origRot&quot;:0}"><path id="ID0.9171315478160977" fill="url(#color-1)" stroke-linecap="butt" stroke-width="2.543" d="M220.05803,206.2392l53.66837,-0.62045l2.88914,144.09904l-52.79766,0.59942z" data-paper-data="{&quot;origPos&quot;:null,&quot;index&quot;:null,&quot;origRot&quot;:0}"/><g stroke-linecap="butt" stroke-width="0" data-paper-data="{&quot;origPos&quot;:null,&quot;index&quot;:null,&quot;origRot&quot;:0}"><path fill="#ffde00" d="M249.31838,284.9399l-4.7736,0.19246l6.39242,-21.7709l-5.33793,0.69469l4.85412,-17.97786l17.04156,-0.95212l-5.67911,13.66785l3.65164,-0.28894l-6.47431,20.80065l3.19755,0.21406l-19.27409,32.77111z" data-paper-data="{&quot;index&quot;:null,&quot;origPos&quot;:null}"/><path fill="red" d="M247.79891,281.72914l-4.7736,0.19246l6.39244,-21.7709l-5.33793,0.69469l4.85413,-17.97786l17.04156,-0.95212l-5.67911,13.66785l3.65164,-0.28894l-6.4743,20.80065l3.19755,0.21406l-17.82632,33.00684z" data-paper-data="{&quot;index&quot;:null,&quot;origPos&quot;:null}"/><path fill="#000" d="M244.90991,281.52819l-4.77362,0.19246l6.39244,-21.7709l-5.33793,0.69469l4.85413,-17.97786l17.04156,-0.95212l-5.67911,13.66785l3.65164,-0.28895l-6.4743,20.80065l3.19754,0.21406l-14.98296,31.31457z" data-paper-data="{&quot;index&quot;:null,&quot;origPos&quot;:null}"/></g><path id="ID0.5423141438513994" fill="url(#color-2)" stroke-linecap="round" stroke-width="2.543" d="M253.59434,214.8215c0,0 6.6461,-3.47106 10.89658,-5.83205c4.25679,-2.36449 10.94943,-4.31727 10.94943,-4.31727c0,0 1.20535,22.00968 1.27649,24.74515c0.81402,31.28272 4.09044,130.42902 4.09044,130.42902l-21.34852,1.54666z" data-paper-data="{&quot;origPos&quot;:null,&quot;index&quot;:null,&quot;origRot&quot;:0}"/><path id="ID0.5423141438513994" fill="url(#color-3)" stroke-linecap="round" stroke-width="2.543" d="M247.11702,362.46363l-26.43818,-0.93377c0,0 -1.07041,-98.73179 -1.76612,-130.01738c-0.06084,-2.73578 0.06135,-25.10415 0.06135,-25.10415c0,0 7.18847,1.84046 11.81127,3.92407c3.92297,1.76818 14.59909,5.00075 14.59909,5.00075z" data-paper-data="{&quot;origPos&quot;:null,&quot;index&quot;:null,&quot;origRot&quot;:0}"/><path fill="#1f1f1f" stroke-linecap="butt" stroke-width="0" d="M266.09139,339.14532c-2.15155,0.30734 -5.54057,-0.12835 -5.54057,-0.12835l-1.13403,-25.02197c0,0 1.50623,0.22304 2.45849,-0.025c1.1179,-0.29116 2.84619,-1.3567 2.84619,-1.3567l6.66622,24.85566c0,0 -3.21861,1.37955 -5.29631,1.67634z" data-paper-data="{&quot;origPos&quot;:null,&quot;index&quot;:null,&quot;origRot&quot;:0}"/><path fill="none" stroke-linecap="round" stroke-width="2.543" d="M264.05844,313.5942c0,0 2.60371,6.71914 3.83823,10.90212c1.44148,4.88419 3.01873,12.33141 3.01873,12.33141" data-paper-data="{&quot;origPos&quot;:null,&quot;origRot&quot;:0,&quot;index&quot;:null}"/><path fill="#1f1f1f" stroke-linecap="butt" stroke-width="0" d="M234.19855,338.86917l5.16121,-25.21119c0,0 1.78915,0.95979 2.92254,1.18331c0.96547,0.19039 2.45559,-0.12269 2.45559,-0.12269l0.37098,25.04488c0,0 -3.35672,0.63846 -5.52285,0.46088c-2.09178,-0.17147 -5.38744,-1.35518 -5.38744,-1.35518z" data-paper-data="{&quot;origPos&quot;:null,&quot;origRot&quot;:0}"/><path fill="none" stroke-linecap="round" stroke-width="2.543" d="M233.66857,337.92413c0,0 1.50152,-7.77575 2.647,-12.7377c0.98103,-4.2496 2.80199,-10.86575 2.80199,-10.86575" data-paper-data="{&quot;origPos&quot;:null,&quot;origRot&quot;:0}"/></g><path fill="#90704e" stroke="#000" stroke-linecap="butt" stroke-width="2" d="M178.24475,348.53382l-51.05406,-41.96306l358.97388,-1.23422l59.03126,41.96308z" data-paper-data="{&quot;origPos&quot;:null}"/><path fill="#ff2e2e" stroke="#000" stroke-linecap="butt" stroke-width="2" d="M154.58147,326.84422l21.14864,-1.84989l3.02389,3.37388l-20.69411,2.58978z" data-paper-data="{&quot;origPos&quot;:null,&quot;origRot&quot;:0}"/><path fill="#fff" stroke="#000" stroke-linecap="butt" stroke-width="2" d="M194.63942,332.10664l-20.76251,-1.96756l2.92128,-3.4631l21.19464,1.21435z" data-paper-data="{&quot;origPos&quot;:null,&quot;origRot&quot;:0,&quot;index&quot;:null}"/><path fill="#fff" stroke="#000" stroke-linecap="butt" stroke-width="2" d="M213.98863,333.74978l-17.42198,-3.21845l2.03935,-6.4957l17.85783,2.73284z" data-paper-data="{&quot;origPos&quot;:null,&quot;origRot&quot;:0,&quot;index&quot;:null}"/><path fill="#ff2e2e" stroke="#000" stroke-linecap="butt" stroke-width="2" d="M204.45016,331.21621l-19.9668,-6.49795l-1.8966,-3.80612l19.743,5.74179z" data-paper-data="{&quot;origPos&quot;:null,&quot;origRot&quot;:0}"/><path fill="#fff" stroke="#000" stroke-linecap="butt" stroke-width="2" d="M180.14048,322.64848l20.5335,3.66705l-3.33696,4.28494l-21.05599,-2.72394z" data-paper-data="{&quot;origPos&quot;:null,&quot;origRot&quot;:0,&quot;index&quot;:null}"/><path fill="#ff2e2e" stroke="#000" stroke-linecap="butt" stroke-width="2" d="M184.09579,321.18633l20.90811,1.93585l2.68908,3.2943l-20.52311,-1.24764z" data-paper-data="{&quot;origPos&quot;:null,&quot;origRot&quot;:0}"/><path fill="#ff2e2e" stroke="#000" stroke-linecap="butt" stroke-width="2" d="M220.66864,331.44933l-21.25813,-2.08526l-2.12059,-4.28725l20.99815,1.18565z" data-paper-data="{&quot;origPos&quot;:null,&quot;origRot&quot;:0}"/><g stroke="#000" data-paper-data="{&quot;origRot&quot;:0,&quot;origPos&quot;:null}"><path fill="#fff" stroke-linecap="butt" stroke-width="1" d="M147.79143,319.35127l-0.06289,-8.75343l34.94199,-0.25115l0.06289,8.75343z" data-paper-data="{&quot;origPos&quot;:null}"/><path fill="#fff" stroke-linecap="butt" stroke-width="1" d="M142.3918,316.82732l-0.10125,-9.09647l5.83576,3.30122l-0.26386,8.21102z" data-paper-data="{&quot;origPos&quot;:null}"/><path fill="#fff" stroke-linecap="butt" stroke-width="1" d="M148.33818,310.56335l-5.36703,-2.98092l34.15521,0.09408l4.79002,2.56788z" data-paper-data="{&quot;origPos&quot;:null}"/><path fill="#ff2e2e" stroke-linecap="butt" stroke-width="0" d="M149.66148,317.47226l-0.0382,-5.30946l31.1393,-0.22385l0.0382,5.30946z" data-paper-data="{&quot;origPos&quot;:null}"/><path fill="#ff2e2e" stroke-linecap="butt" stroke-width="0" d="M148.59893,309.40754l-0.72212,-0.64059l28.12685,-0.05866l1.29512,0.49295z" data-paper-data="{&quot;origPos&quot;:null}"/><path fill="none" stroke-linecap="round" stroke-width=".5" d="M142.83707,313.02108l4.60639,1.97598" data-paper-data="{&quot;origPos&quot;:null}"/></g><path fill="#90704e" stroke="#000" stroke-linecap="butt" stroke-width="2" d="M176.64931,377.71466v-31.06592h368.54652v31.06592z" data-paper-data="{&quot;origPos&quot;:null}"/><path fill="#ffd499" stroke="#806c4d" stroke-linecap="butt" stroke-width="2" d="M272.10426,318.5666c0,0 -8.77539,-3.56463 -11.7306,-8.06924c-2.95522,-4.50461 -2.47311,-13.58139 -2.47311,-13.58139l22.10727,-11.74908l9.38309,18.45901z" data-paper-data="{&quot;origRot&quot;:0,&quot;origPos&quot;:null,&quot;index&quot;:null}"/><path id="ID0.5423141438513994" fill="#000" stroke="#000" stroke-linecap="round" stroke-width="2.543" d="M277.81132,203.42684c0,0 7.77088,-2.10194 10.12301,0.19639c13.73498,12.55311 39.44093,57.26236 36.01253,65.29997c-4.8586,11.39057 -45.662,46.17627 -45.662,46.17627c0,0 -5.73984,-4.17407 -8.40766,-8.75354c-2.66781,-4.57947 -4.21282,-12.91032 -4.21282,-12.91032c0,0 34.27091,-24.16921 35.42213,-32.21871c-0.51896,-12.46621 -22.6929,-31.068 -22.6929,-31.068z" data-paper-data="{&quot;origPos&quot;:null,&quot;index&quot;:null,&quot;origRot&quot;:0}"/><path fill="#ff2e2e" stroke="#000" stroke-linecap="butt" stroke-width="2" d="M327.69414,329.66348l-3.0073,-23.79396l5.06349,5.02099l5.78113,24.6188z" data-paper-data="{&quot;origPos&quot;:null,&quot;origRot&quot;:0,&quot;index&quot;:null}"/><path fill="#fff" stroke="#000" stroke-linecap="butt" stroke-width="2" d="M310.3746,329.31291l14.62456,-24.14395l5.56863,5.61322l-13.30958,25.11706z" data-paper-data="{&quot;origPos&quot;:null,&quot;origRot&quot;:0,&quot;index&quot;:null}"/><path fill="#ff2e2e" stroke="#000" stroke-linecap="butt" stroke-width="2" d="M307.38885,329.47739l-3.0073,-23.79396l5.06349,5.02099l5.78113,24.6188z" data-paper-data="{&quot;origPos&quot;:null,&quot;origRot&quot;:0,&quot;index&quot;:null}"/><path fill="#fff" stroke="#000" stroke-linecap="butt" stroke-width="2" d="M290.06931,329.12681l14.62457,-24.14395l5.56863,5.61322l-13.30958,25.11706z" data-paper-data="{&quot;origPos&quot;:null,&quot;origRot&quot;:0,&quot;index&quot;:null}"/><path fill="#ff2e2e" stroke="#000" stroke-linecap="butt" stroke-width="2" d="M288.15126,329.32917l-3.0073,-23.79396l5.06349,5.02099l5.78113,24.6188z" data-paper-data="{&quot;origPos&quot;:null,&quot;origRot&quot;:0,&quot;index&quot;:null}"/><path fill="#fff" stroke="#000" stroke-linecap="butt" stroke-width="2" d="M270.83173,328.9786l14.62457,-24.14395l5.56863,5.61322l-13.30958,25.11706z" data-paper-data="{&quot;origPos&quot;:null,&quot;origRot&quot;:0,&quot;index&quot;:null}"/><path fill="#ff2e2e" stroke="#000" stroke-linecap="butt" stroke-width="2" d="M267.84596,329.14306l-3.0073,-23.79396l5.06349,5.02099l5.78113,24.6188z" data-paper-data="{&quot;origPos&quot;:null,&quot;origRot&quot;:0,&quot;index&quot;:null}"/><path fill="#fff" stroke="#000" stroke-linecap="butt" stroke-width="2" d="M250.52644,328.79249l14.62457,-24.14395l5.56863,5.61322l-13.30958,25.11706z" data-paper-data="{&quot;origPos&quot;:null,&quot;origRot&quot;:0,&quot;index&quot;:null}"/><g data-paper-data="{&quot;origPos&quot;:null,&quot;origRot&quot;:0}"><path id="ID0.7719937418587506" fill="#ffd499" stroke="#806c4d" stroke-linecap="butt" stroke-width="2.5" d="M253.09974,105.89743c14.77566,0.50183 27.96221,6.86766 37.33024,16.74682c9.36806,9.88035 9.63554,24.78605 7.85385,41.47061c-1.22759,11.49572 -4.64489,22.86223 -14.19485,31.6487c-10.02316,9.22057 -24.9501,15.92768 -34.6083,15.64351c-9.65802,-0.28412 -24.17944,-5.39916 -33.54752,-15.27829c-9.36818,-9.88053 -15.02772,-20.66253 -14.52853,-35.21658c0.49922,-14.55415 3.28094,-31.61803 13.30432,-40.8398c10.02321,-9.2206 23.6152,-14.67689 38.39073,-14.17504z" data-paper-data="{&quot;origPos&quot;:null,&quot;origRot&quot;:0}"/><path id="ID0.479907026514411" fill="url(#color-4)" stroke="#666" stroke-linecap="round" stroke-width="2.5" d="M256.31693,108.88058c5.54857,0.3914 3.17447,10.81452 3.2928,16.37534c0.26679,12.59489 3.35304,27.1486 -2.18274,38.87095c-4.72039,9.09847 -14.7294,15.40578 -24.58059,17.99169c-10.66563,2.37502 -21.71589,2.75059 -25.87984,-3.16706c-6.86068,-17.71942 -1.60716,-42.88675 10.35994,-58.06332c10.46776,-12.37571 22.85508,-13.13867 38.99039,-12.00759z" data-paper-data="{&quot;origPos&quot;:null,&quot;origRot&quot;:0}"/><path id="ID0.21129454905167222" fill="none" stroke="#000" stroke-linecap="round" stroke-width="2.5" d="M276.78695,154.83275c-0.08493,5.11603 -0.87427,16.18411 -0.87427,16.18411" data-paper-data="{&quot;origPos&quot;:null,&quot;origRot&quot;:0}"/><path fill="none" stroke="#000" stroke-linecap="round" stroke-width="2" d="M245.4015,192.68353l14.96117,0.63645" data-paper-data="{&quot;origPos&quot;:null,&quot;index&quot;:null,&quot;origRot&quot;:0}"/><path fill="url(#color-5)" stroke="none" stroke-linecap="butt" stroke-width="0" d="M221.63614,159.01686c0.38719,-9.10086 8.07876,-16.16479 17.17963,-15.77764c9.10088,0.38719 16.16479,8.07876 15.77764,17.17963c-0.38719,9.10086 -8.07876,16.16479 -17.17963,15.77764c-9.10088,-0.38719 -16.16479,-8.07876 -15.77764,-17.17963z" data-paper-data="{&quot;origPos&quot;:null,&quot;origRot&quot;:0}"/><path fill="url(#color-6)" stroke="#666" stroke-linecap="butt" stroke-width="2" d="M227.17642,159.41604c0.25298,-5.9471 5.27917,-10.56313 11.22628,-10.31012c5.9471,0.25298 10.56313,5.27917 10.31012,11.22628c-0.25298,5.9471 -5.27917,10.56313 -11.22628,10.31012c-5.9471,-0.25298 -10.56313,-5.27917 -10.31012,-11.22628z" data-paper-data="{&quot;origPos&quot;:null,&quot;origRot&quot;:0}"/><path fill="#7a7a7a" stroke="none" stroke-linecap="butt" stroke-width="0" d="M205.68927,180.55589c0,0 4.40098,-22.14348 9.10937,-36.51492c3.11365,-9.50386 10.91518,-24.22756 10.91518,-24.22756l32.32817,8.39353l0.28699,4.75017c0,0 -8.99069,-1.27715 -13.94737,-1.99815c-4.58045,-0.66625 -9.07426,-3.95549 -13.0581,-1.59885c-7.29527,4.31552 -7.62414,12.91386 -10.31966,20.94991c-3.64191,10.85736 -6.75151,31.19939 -6.75151,31.19939z" data-paper-data="{&quot;origRot&quot;:0,&quot;origPos&quot;:null}"/><path fill="#b0936a" stroke="none" stroke-linecap="butt" stroke-width="0" d="M261.24429,133.06933l-0.0667,-4.57945l32.82192,1.53281c0,0 -6.92271,2.93752 -13.86049,3.07168c-6.98951,0.13509 -18.63296,-0.00812 -18.63296,-0.00812z" data-paper-data="{&quot;origPos&quot;:null,&quot;origRot&quot;:0}"/><path fill="#b0936a" stroke="none" stroke-linecap="butt" stroke-width="0" d="M207.82494,182.98497l5.35498,1.32412l-0.88815,5.93002z" data-paper-data="{&quot;origPos&quot;:null,&quot;origRot&quot;:0}"/><path id="ID0.5302143599838018" fill="url(#color-7)" stroke="#a96300" stroke-linecap="round" stroke-width="3.5" d="M261.55156,87.73687c13.87539,0.69864 21.62266,2.20754 35.44849,3.57212c8.00546,0.79013 23.79259,1.62102 23.79259,1.62102c0,0 -10.27948,5.20737 -12.17842,5.62578c-3.52205,0.77606 -9.82445,2.68565 -9.82445,2.68565c0,0 4.84638,1.46183 8.24565,2.92949c3.65455,1.5779 9.30755,3.15037 9.30755,3.15037c0,0 -5.84765,2.19758 -9.51753,2.9678c-4.58451,0.96215 -10.82853,3.41092 -10.82853,3.41092c0,0 6.99538,4.0198 12.37341,5.45169c5.40836,1.43991 12.45677,4.29481 12.45677,4.29481c0,0 -10.31166,5.08315 -16.88351,5.7797c-16.5766,1.75895 -33.34969,-1.72191 -50.00695,-2.27184c-10.15478,-0.33657 -24.77992,-7.98183 -30.28052,0.84929c-14.43397,21.80312 -16.19391,78.54808 -20.05957,76.51328c-3.86583,-2.03496 -12.68216,-62.05606 -6.89818,-92.42271c2.23706,-11.73549 13.38497,-18.11462 27.20884,-23.15078c13.82386,-5.03607 25.29837,-1.3917 37.64442,-1.00662z" data-paper-data="{&quot;origPos&quot;:null,&quot;origRot&quot;:0}"/></g><path fill="#ff2e2e" stroke="#000" stroke-linecap="butt" stroke-width="2" d="M248.51264,328.4764l-3.0073,-23.79395l5.06349,5.02099l5.78113,24.6188z" data-paper-data="{&quot;origPos&quot;:null,&quot;origRot&quot;:0,&quot;index&quot;:null}"/><path fill="#fff" stroke="#000" stroke-linecap="butt" stroke-width="2" d="M231.1931,328.12583l14.62456,-24.14395l5.56863,5.61323l-13.30958,25.11706z" data-paper-data="{&quot;origPos&quot;:null,&quot;origRot&quot;:0,&quot;index&quot;:null}"/><path fill="#fff" stroke="#000" stroke-linecap="butt" stroke-width="2" d="M287.27186,309.21466l-5.67568,-5.33333h20.43243l7.56757,5.66667z" data-paper-data="{&quot;origPos&quot;:null}"/><path fill="#fff" stroke="#000" stroke-linecap="butt" stroke-width="2" d="M308.93853,309.548l-5.67568,-5.33333h20.43243l7.56757,5.66667z" data-paper-data="{&quot;origPos&quot;:null}"/><path fill="#ffd499" stroke="#806c4d" stroke-linecap="butt" stroke-width="2" d="M178.5706,304.63402l17.63535,-7.56425l8.75559,21.48479c0,0 -5.0456,6.74491 -9.82271,8.1958c-4.77709,1.45089 -13.1376,-1.2224 -13.1376,-1.2224z" data-paper-data="{&quot;origRot&quot;:0,&quot;origPos&quot;:null,&quot;index&quot;:null}"/><path id="ID0.5423141438513994" fill="#000" stroke="#000" stroke-linecap="round" stroke-width="2.543" d="M220.78047,233.27065c0,0 -30.4183,14.65524 -32.39784,24.1837c-0.27644,8.1267 12.86162,54.21266 12.86162,54.21266l-20.41005,5.41592c0,0 -19.30374,-50.50458 -15.82127,-64.36513c3.50236,-13.93968 35.29886,-37.28043 51.0202,-47.23383c2.71833,-1.85082 10.00093,1.57969 10.00093,1.57969z" data-paper-data="{&quot;origPos&quot;:null,&quot;index&quot;:null,&quot;origRot&quot;:0}"/><path fill="#fff" stroke="#000" stroke-linecap="butt" stroke-width="2" d="M265.3027,309.89874l-5.89189,-5.09346l20.41486,-0.84701l7.79598,5.34807z" data-paper-data="{&quot;origPos&quot;:null,&quot;origRot&quot;:0}"/></g></g></svg>