<svg version="1.1" xmlns="http://www.w3.org/2000/svg" xmlns:xlink="http://www.w3.org/1999/xlink" width="522.87436" height="441.31374" viewBox="0,0,522.87436,441.31374"><defs><radialGradient cx="92.24042" cy="179.63722" r="102.08147" gradientUnits="userSpaceOnUse" id="color-1"><stop offset="0" stop-color="#00ffff"/><stop offset="1" stop-color="#003fff"/></radialGradient><linearGradient x1="97.32772" y1="226.50287" x2="121.01437" y2="227.54418" gradientUnits="userSpaceOnUse" id="color-2"><stop offset="0" stop-color="#3b3b3b"/><stop offset="1" stop-color="#000000"/></linearGradient><linearGradient x1="49.80469" y1="222.21094" x2="99.73306" y2="233.27002" gradientUnits="userSpaceOnUse" id="color-3"><stop offset="0" stop-color="#000000"/><stop offset="1" stop-color="#3b3b3b"/></linearGradient><radialGradient cx="76.63371" cy="94.0996" r="54.55912" gradientUnits="userSpaceOnUse" id="color-4"><stop offset="0" stop-color="#b6b6b6"/><stop offset="1" stop-color="#666666"/></radialGradient><radialGradient cx="85.32926" cy="100.30232" r="16.49355" gradientUnits="userSpaceOnUse" id="color-5"><stop offset="0" stop-color="#ff0000"/><stop offset="1" stop-color="#ff0000" stop-opacity="0"/></radialGradient><radialGradient cx="86.05417" cy="102.29907" r="10.77795" gradientUnits="userSpaceOnUse" id="color-6"><stop offset="0" stop-color="#ff0000"/><stop offset="1" stop-color="#d20000"/></radialGradient><linearGradient x1="43.97247" y1="25.18395" x2="169.38418" y2="32.06827" gradientUnits="userSpaceOnUse" id="color-7"><stop offset="0" stop-color="#cc7700"/><stop offset="1" stop-color="#946f48"/></linearGradient></defs><g transform="translate(-25.43943,-24.97079)"><g data-paper-data="{&quot;isPaintingLayer&quot;:true}" fill-rule="nonzero" stroke-linejoin="miter" stroke-miterlimit="10" stroke-dasharray="" stroke-dashoffset="0" style="mix-blend-mode: normal"><path d="M151.04186,295.4312c0,0 -7.76533,4.00272 -12.69358,3.36641c-4.92824,-0.63631 -10.99307,-6.42467 -10.99307,-6.42467l5.05088,-22.53224l18.5574,4.51634z" data-paper-data="{&quot;origRot&quot;:0,&quot;origPos&quot;:null,&quot;index&quot;:null}" fill="#ffd499" stroke="#806c4d" stroke-width="2" stroke-linecap="butt"/><path d="M117.51337,149.38461c0,0 7.83526,-1.84748 10.11124,0.5263c13.31845,12.99421 29.09113,56.17035 25.40252,64.09191c-0.43603,6.22589 -0.67937,69.08046 -0.67937,69.08046c0,0 -7.99361,1.73526 -12.98153,1.60679c-4.98793,-0.12847 -12.58291,-2.2652 -12.58291,-2.2652c0,0 3.59808,-56.64198 4.01107,-68.14969c-0.11229,-12.47651 -13.57018,-38.16371 -13.57018,-38.16371z" data-paper-data="{&quot;origPos&quot;:null,&quot;index&quot;:null,&quot;origRot&quot;:0}" id="ID0.5423141438513994" fill="#000000" stroke="#000000" stroke-width="2.54325" stroke-linecap="round"/><g data-paper-data="{&quot;origRot&quot;:0,&quot;origPos&quot;:null}" stroke="#000000" stroke-linecap="butt"><path d="M54.14624,440.76589l8.08648,-151.10603l53.26019,2.74906l-0.44487,150.11807l-19.25799,-0.81581c0,0 6.47612,-131.14147 -6.49407,-132.31149c-12.33706,-1.27709 -16.39562,131.52933 -16.39562,131.52933z" data-paper-data="{&quot;origPos&quot;:null,&quot;index&quot;:null}" fill="#333333" stroke-width="2.5"/><path d="M26.76495,460.48765l0.53908,-12.43302c0,0 13.12438,-8.31625 21.78823,-9.93335c9.331,-1.74162 24.42768,-1.12598 24.42768,-1.12598l-1.10441,25.47171z" data-paper-data="{&quot;origPos&quot;:null,&quot;index&quot;:null}" fill="#666666" stroke-width="2.54325"/><path d="M94.38197,462.97966l1.10441,-25.47169c0,0 15.09332,0.69335 24.23855,3.23608c8.49135,2.36093 20.8201,12.39519 20.8201,12.39519l-0.51249,11.81978z" data-paper-data="{&quot;origPos&quot;:null,&quot;index&quot;:null}" fill="#666666" stroke-width="2.54325"/></g><g data-paper-data="{&quot;origPos&quot;:null,&quot;origRot&quot;:0}" stroke="#000000"><path d="M67.45499,147.36445l53.58637,3.02975l-6.91446,143.96204l-52.71626,-2.99153z" data-paper-data="{&quot;origPos&quot;:null,&quot;index&quot;:null,&quot;origRot&quot;:0}" id="ID0.9171315478160977" fill="url(#color-1)" stroke-width="2.54325" stroke-linecap="butt"/><g data-paper-data="{&quot;origPos&quot;:null,&quot;index&quot;:null,&quot;origRot&quot;:0}" stroke-width="0" stroke-linecap="butt"><path d="M91.29699,227.8724l-4.77564,-0.13252l7.85778,-21.28592l-5.37282,0.33017l6.06516,-17.60623l17.06686,0.2087l-6.59521,13.25013l3.66283,-0.04001l-7.87352,20.31235l3.17559,0.43096l-21.45753,31.38488z" data-paper-data="{&quot;index&quot;:null,&quot;origPos&quot;:null}" fill="#ffde00"/><path d="M89.99933,224.56576l-4.77564,-0.13252l7.8578,-21.28592l-5.37282,0.33017l6.06517,-17.60623l17.06686,0.2087l-6.59521,13.25013l3.66283,-0.04001l-7.87351,20.31235l3.17559,0.43096l-20.02912,31.71851z" data-paper-data="{&quot;index&quot;:null,&quot;origPos&quot;:null}" fill="#ff0000"/><path d="M87.13066,224.16887l-4.77566,-0.13252l7.8578,-21.28592l-5.37282,0.33017l6.06517,-17.60623l17.06686,0.2087l-6.59521,13.25013l3.66283,-0.04002l-7.87351,20.31235l3.17558,0.43096l-17.07729,30.22347z" data-paper-data="{&quot;index&quot;:null,&quot;origPos&quot;:null}" fill="#000000"/></g><path d="M100.33022,158.20694c0,0 6.86671,-3.01117 11.26788,-5.07773c4.40768,-2.06961 11.21763,-3.56284 11.21763,-3.56284c0,0 -0.29382,22.04072 -0.40881,24.77469c-1.3147,31.2657 -4.78656,130.40534 -4.78656,130.40534l-21.40428,0.09165z" data-paper-data="{&quot;origPos&quot;:null,&quot;index&quot;:null,&quot;origRot&quot;:0}" id="ID0.5423141438513994" fill="url(#color-2)" stroke-width="2.54325" stroke-linecap="round"/><path d="M83.83008,305.06707l-26.31352,-2.72908c0,0 5.64459,-98.57612 7.07751,-129.83662c0.12529,-2.73358 1.76798,-25.04189 1.76798,-25.04189c0,0 7.0467,2.32493 11.51716,4.71802c3.79368,2.03079 14.22532,5.98173 14.22532,5.98173z" data-paper-data="{&quot;origPos&quot;:null,&quot;index&quot;:null,&quot;origRot&quot;:0}" id="ID0.5423141438513994" fill="url(#color-3)" stroke-width="2.54325" stroke-linecap="round"/><path d="M104.34589,283.09276c-2.16746,0.16035 -5.51901,-0.50474 -5.51901,-0.50474l0.56978,-25.04117c0,0 1.48758,0.32494 2.45451,0.1422c1.1351,-0.21449 2.93185,-1.16005 2.93185,-1.16005l4.96091,25.25136c0,0 -3.30495,1.15754 -5.39802,1.31236z" data-paper-data="{&quot;origPos&quot;:null,&quot;index&quot;:null,&quot;origRot&quot;:0}" fill="#1f1f1f" stroke-width="0" stroke-linecap="butt"/><path d="M104.05481,257.46252c0,0 2.14086,6.88061 3.08814,11.13785c1.1061,4.97091 2.17336,12.50812 2.17336,12.50812" data-paper-data="{&quot;origPos&quot;:null,&quot;origRot&quot;:0,&quot;index&quot;:null}" fill="none" stroke-width="2.54325" stroke-linecap="round"/><path d="M72.54563,280.64892l6.86332,-24.80195c0,0 1.71975,1.07919 2.83534,1.37927c0.9503,0.25558 2.45825,0.04455 2.45825,0.04455l-1.33261,25.01215c0,0 -3.39236,0.40877 -5.5414,0.08434c-2.07527,-0.31327 -5.28284,-1.71834 -5.28284,-1.71834z" data-paper-data="{&quot;origPos&quot;:null,&quot;origRot&quot;:0}" fill="#1f1f1f" stroke-width="0" stroke-linecap="butt"/><path d="M72.08112,279.67001c0,0 2.0267,-7.65566 3.50688,-12.52827c1.26767,-4.17306 3.53425,-10.6501 3.53425,-10.6501" data-paper-data="{&quot;origPos&quot;:null,&quot;origRot&quot;:0}" fill="none" stroke-width="2.54325" stroke-linecap="round"/></g><path d="M178.24476,349.2005l-51.05406,-41.96306l358.97388,-1.23422l59.03126,41.96308z" data-paper-data="{&quot;origPos&quot;:null}" fill="#90704e" stroke="#000000" stroke-width="2" stroke-linecap="butt"/><path d="M154.58148,326.84423l21.14864,-1.84989l3.02389,3.37388l-20.69411,2.58978z" data-paper-data="{&quot;origPos&quot;:null,&quot;origRot&quot;:0}" fill="#ff2e2e" stroke="#000000" stroke-width="2" stroke-linecap="butt"/><path d="M194.63943,332.10665l-20.76251,-1.96756l2.92128,-3.4631l21.19464,1.21435z" data-paper-data="{&quot;origPos&quot;:null,&quot;origRot&quot;:0,&quot;index&quot;:null}" fill="#ffffff" stroke="#000000" stroke-width="2" stroke-linecap="butt"/><path d="M209.98864,336.24979l-17.42198,-3.21845l2.03935,-6.4957l17.85783,2.73284z" data-paper-data="{&quot;origPos&quot;:null,&quot;origRot&quot;:0,&quot;index&quot;:null}" fill="#ffffff" stroke="#000000" stroke-width="2" stroke-linecap="butt"/><path d="M200.60311,327.48035l-20.81285,2.77881l-3.35643,-2.61113l20.28397,-3.36374z" data-paper-data="{&quot;origPos&quot;:null,&quot;origRot&quot;:0}" fill="#ff2e2e" stroke="#000000" stroke-width="2" stroke-linecap="butt"/><path d="M171.0958,329.18631l20.90811,1.93585l2.68908,3.2943l-20.52311,-1.24764z" data-paper-data="{&quot;origPos&quot;:null,&quot;origRot&quot;:0}" fill="#ff2e2e" stroke="#000000" stroke-width="2" stroke-linecap="butt"/><g data-paper-data="{&quot;origRot&quot;:0,&quot;origPos&quot;:null}" stroke="#000000"><path d="M149.09033,315.35125l-0.05487,-7.63776l30.48845,-0.21914l0.05487,7.63776z" data-paper-data="{&quot;origPos&quot;:null}" fill="#ffffff" stroke-width="1" stroke-linecap="butt"/><path d="M144.37891,313.14902l-0.08835,-7.93708l5.09196,2.88046l-0.23023,7.16448z" data-paper-data="{&quot;origPos&quot;:null}" fill="#ffffff" stroke-width="1" stroke-linecap="butt"/><path d="M149.56739,307.68343l-4.68297,-2.60099l29.80195,0.08209l4.17951,2.24059z" data-paper-data="{&quot;origPos&quot;:null}" fill="#ffffff" stroke-width="1" stroke-linecap="butt"/><path d="M150.72203,313.71173l-0.03333,-4.63274l27.17043,-0.19532l0.03333,4.63274z" data-paper-data="{&quot;origPos&quot;:null}" fill="#ff2e2e" stroke-width="0" stroke-linecap="butt"/><path d="M149.79491,306.67492l-0.63008,-0.55894l24.54194,-0.05118l1.13005,0.43012z" data-paper-data="{&quot;origPos&quot;:null}" fill="#ff2e2e" stroke-width="0" stroke-linecap="butt"/><path d="M148.78671,311.55204l-4.01928,-1.72413" data-paper-data="{&quot;origPos&quot;:null}" fill="none" stroke-width="0.5" stroke-linecap="round"/></g><path d="M176.64932,378.04801v-31.06592h368.54652v31.06592z" data-paper-data="{&quot;origPos&quot;:null}" fill="#90704e" stroke="#000000" stroke-width="2" stroke-linecap="butt"/><path d="M330.37974,342.66485l-19.19197,-14.38278l7.12933,-0.14804l21.71346,12.96273z" data-paper-data="{&quot;origPos&quot;:null,&quot;origRot&quot;:0,&quot;index&quot;:null}" fill="#ff2e2e" stroke="#000000" stroke-width="2" stroke-linecap="butt"/><path d="M310.20027,328.10772l26.07006,-10.82405l1.17192,7.81949l-25.58496,12.38636z" data-paper-data="{&quot;origPos&quot;:null,&quot;origRot&quot;:0,&quot;index&quot;:null}" fill="#ffffff" stroke="#000000" stroke-width="2" stroke-linecap="butt"/><path d="M317.01709,328.68717l-23.49015,-4.83825l6.38722,-3.1706l25.16662,2.47945z" data-paper-data="{&quot;origPos&quot;:null,&quot;origRot&quot;:0,&quot;index&quot;:null}" fill="#ff2e2e" stroke="#000000" stroke-width="2" stroke-linecap="butt"/><path d="M290.41614,327.84879l27.14103,-7.75708l0.26576,7.90236l-26.83864,9.36478z" data-paper-data="{&quot;origPos&quot;:null,&quot;origRot&quot;:0,&quot;index&quot;:null}" fill="#ffffff" stroke="#000000" stroke-width="2" stroke-linecap="butt"/><path d="M280.37916,326.00282l23.45659,-4.99849l-4.57717,5.46797l-24.04513,7.83188z" data-paper-data="{&quot;origPos&quot;:null,&quot;origRot&quot;:0,&quot;index&quot;:null}" fill="#ff2e2e" stroke="#000000" stroke-width="2" stroke-linecap="butt"/><path d="M269.85377,327.61335l27.48891,-6.41629l-0.12224,7.90588l-27.26573,8.03689z" data-paper-data="{&quot;origPos&quot;:null,&quot;origRot&quot;:0,&quot;index&quot;:null}" fill="#ffffff" stroke="#000000" stroke-width="2" stroke-linecap="butt"/><path d="M261.91371,330.70427l12.46462,-20.48975l0.83499,7.08181l-10.80796,22.86251z" data-paper-data="{&quot;origPos&quot;:null,&quot;origRot&quot;:0,&quot;index&quot;:null}" fill="#ff2e2e" stroke="#000000" stroke-width="2" stroke-linecap="butt"/><path d="M247.07558,325.93888l17.96642,-21.77191l4.69717,6.36038l-16.80619,22.92518z" data-paper-data="{&quot;origPos&quot;:null,&quot;origRot&quot;:0,&quot;index&quot;:null}" fill="#ffffff" stroke="#000000" stroke-width="2" stroke-linecap="butt"/><path d="M101.42602,46.80382c14.76209,0.80784 27.81393,7.44547 36.97528,17.51658c9.16135,10.07229 9.11997,24.98035 6.99303,41.62443c-1.46549,11.46782 -5.11753,22.7611 -14.84747,31.34783c-10.21203,9.01094 -25.27472,15.40738 -34.92495,14.92318c-9.65003,-0.48413 -24.06239,-5.89894 -33.22379,-15.97002c-9.16146,-10.07247 -14.59643,-20.96942 -13.79583,-35.51001c0.80063,-14.54069 3.93526,-31.54326 14.14755,-40.55541c10.21207,-9.01097 23.91417,-14.1845 38.67617,-13.37665z" data-paper-data="{&quot;origPos&quot;:null,&quot;origRot&quot;:0}" id="ID0.7719937418587506" fill="#ffd499" stroke="#806c4d" stroke-width="2.5" stroke-linecap="butt"/><path d="M104.5807,49.85298c5.53925,0.50627 2.94975,10.87795 2.95284,16.44003c0.0058,12.5977 2.78989,27.21222 -2.98755,38.81741c-4.90786,8.99874 -15.0454,15.09732 -24.94805,17.47861c-10.71254,2.15355 -21.7682,2.30012 -25.80867,-3.70252c-6.49211,-17.85774 -0.71834,-42.91084 11.5606,-57.83624c10.72189,-12.15619 23.12237,-12.66237 39.23078,-11.19725z" data-paper-data="{&quot;origPos&quot;:null,&quot;origRot&quot;:0}" id="ID0.479907026514411" fill="url(#color-4)" stroke="#666666" stroke-width="2.5" stroke-linecap="round"/><path d="M124.09436,96.21937c-0.19089,5.11318 -1.20938,16.16253 -1.20938,16.16253" data-paper-data="{&quot;origPos&quot;:null,&quot;origRot&quot;:0}" id="ID0.21129454905167222" fill="none" stroke="#000000" stroke-width="2.5" stroke-linecap="round"/><path d="M68.8687,99.26002c0.57563,-9.09089 8.41191,-15.99392 17.50282,-15.41835c9.09091,0.57564 15.99392,8.41191 15.41835,17.50282c-0.57563,9.09089 -8.41191,15.99392 -17.50282,15.41835c-9.09091,-0.57564 -15.99392,-8.41191 -15.41835,-17.50282z" data-paper-data="{&quot;origPos&quot;:null,&quot;origRot&quot;:0}" fill="url(#color-5)" stroke="none" stroke-width="0" stroke-linecap="butt"/><path d="M74.39952,99.77391c0.37612,-5.94059 5.49685,-10.4515 11.43747,-10.07533c5.94059,0.37612 10.4515,5.49685 10.07533,11.43747c-0.37612,5.94059 -5.49685,10.4515 -11.43747,10.07533c-5.94059,-0.37612 -10.4515,-5.49685 -10.07533,-11.43747z" data-paper-data="{&quot;origPos&quot;:null,&quot;origRot&quot;:0}" fill="url(#color-6)" stroke="#666666" stroke-width="2" stroke-linecap="butt"/><path d="M52.47902,120.46407c0,0 4.85878,-22.04755 9.8639,-36.31838c3.30988,-9.43731 11.41475,-23.99622 11.41475,-23.99622l32.14734,9.06147l0.18852,4.75509c0,0 -8.96229,-1.46312 -13.903,-2.28668c-4.56568,-0.76099 -8.99036,-4.14263 -13.02217,-1.86903c-7.38309,4.16346 -7.89005,12.75315 -10.75148,20.73163c-3.86607,10.77957 -7.39641,31.05283 -7.39641,31.05283z" data-paper-data="{&quot;origRot&quot;:0,&quot;origPos&quot;:null}" fill="#7a7a7a" stroke="none" stroke-width="0" stroke-linecap="butt"/><path d="M109.0059,74.13861l0.02817,-4.57986l32.78313,2.21245c0,0 -6.98208,2.79347 -13.92116,2.78387c-6.99081,-0.00974 -18.6288,-0.39414 -18.6288,-0.39414z" data-paper-data="{&quot;origPos&quot;:null,&quot;origRot&quot;:0}" fill="#b0936a" stroke="none" stroke-width="0" stroke-linecap="butt"/><path d="M54.56391,122.93688l5.3264,1.43476l-1.01079,5.91036z" data-paper-data="{&quot;origPos&quot;:null,&quot;origRot&quot;:0}" fill="#b0936a" stroke="none" stroke-width="0" stroke-linecap="butt"/><path d="M110.25226,28.82227c13.85794,0.98595 21.5723,2.65502 35.36687,4.30573c7.98737,0.9558 23.75389,2.11358 23.75389,2.11358c0,0 -10.38517,4.9933 -12.29235,5.37227c-3.53737,0.70292 -9.87798,2.48153 -9.87798,2.48153c0,0 4.81506,1.56192 8.1832,3.09967c3.62107,1.65327 9.24028,3.34252 9.24028,3.34252c0,0 -5.89192,2.07596 -9.57696,2.76999c-4.60346,0.86697 -10.89686,3.18586 -10.89686,3.18586c0,0 6.91058,4.16388 12.25782,5.70685c5.37737,1.55166 12.36512,4.55197 12.36512,4.55197c0,0 -10.41476,4.86842 -16.99962,5.42869c-16.60947,1.41517 -33.30685,-2.41245 -49.94913,-3.30735c-10.14564,-0.54687 -24.60925,-8.49348 -30.29162,0.22179c-14.88257,21.49941 -17.81772,78.19573 -21.64038,76.08128c-3.82285,-2.11462 -11.3938,-62.30547 -4.98198,-92.54578c2.4797,-11.68664 13.75736,-17.83343 27.6826,-22.58214c13.92523,-4.7486 25.32177,-0.86728 37.6572,-0.22652z" data-paper-data="{&quot;origPos&quot;:null,&quot;origRot&quot;:0}" id="ID0.5302143599838018" fill="url(#color-7)" stroke="#a96300" stroke-width="3.5" stroke-linecap="round"/><path d="M248.51265,328.47641l-3.0073,-23.79395l5.06349,5.02099l5.78113,24.6188z" data-paper-data="{&quot;origPos&quot;:null,&quot;origRot&quot;:0,&quot;index&quot;:null}" fill="#ff2e2e" stroke="#000000" stroke-width="2" stroke-linecap="butt"/><path d="M231.19311,328.12584l14.62456,-24.14395l5.56863,5.61323l-13.30958,25.11706z" data-paper-data="{&quot;origPos&quot;:null,&quot;origRot&quot;:0,&quot;index&quot;:null}" fill="#ffffff" stroke="#000000" stroke-width="2" stroke-linecap="butt"/><path d="M288.74748,327.67759l-4.84362,-6.09895l20.2171,2.95855l6.6673,6.70271z" data-paper-data="{&quot;origPos&quot;:null,&quot;origRot&quot;:0}" fill="#ffffff" stroke="#000000" stroke-width="2" stroke-linecap="butt"/><path d="M310.87982,328.96147l-5.15739,-5.83602l20.34463,1.89218l7.01028,6.34313z" data-paper-data="{&quot;origPos&quot;:null,&quot;origRot&quot;:0}" fill="#ffffff" stroke="#000000" stroke-width="2" stroke-linecap="butt"/><path d="M268.88971,325.46299l-5.09228,-5.89291l20.32236,2.11792l6.93944,6.42054z" data-paper-data="{&quot;origPos&quot;:null,&quot;origRot&quot;:0}" fill="#ffffff" stroke="#000000" stroke-width="2" stroke-linecap="butt"/><path d="M245.15019,308.84392l-5.45612,-5.55773l20.41582,0.82346l7.33306,5.96703z" data-paper-data="{&quot;origPos&quot;:null,&quot;origRot&quot;:0}" fill="#ffffff" stroke="#000000" stroke-width="2" stroke-linecap="butt"/><path d="M323.83372,327.21639l-13.03134,-19.79323l6.67791,2.24763l15.85078,19.31657z" data-paper-data="{&quot;origPos&quot;:null,&quot;origRot&quot;:0,&quot;index&quot;:null}" fill="#ff2e2e" stroke="#000000" stroke-width="2" stroke-linecap="butt"/><path d="M299.63917,314.90415l27.45168,-4.93584l-0.52203,7.79527l-27.31374,6.54637z" data-paper-data="{&quot;origPos&quot;:null,&quot;origRot&quot;:0,&quot;index&quot;:null}" fill="#ffffff" stroke="#000000" stroke-width="2" stroke-linecap="butt"/><path d="M295.98715,321.03826l11.85376,-20.52014l0.98362,6.97701l-10.16406,22.82693z" data-paper-data="{&quot;origPos&quot;:null,&quot;origRot&quot;:0,&quot;index&quot;:null}" fill="#ff2e2e" stroke="#000000" stroke-width="2" stroke-linecap="butt"/><path d="M283.25158,324.91554l17.75262,-21.51283l4.64127,6.28469l-16.60619,22.65237z" data-paper-data="{&quot;origPos&quot;:null,&quot;origRot&quot;:0,&quot;index&quot;:null}" fill="#ffffff" stroke="#000000" stroke-width="2" stroke-linecap="butt"/><path d="M283.60535,325.31325l-8.17845,-22.24187l5.99009,3.71012l11.03233,22.42018z" data-paper-data="{&quot;origPos&quot;:null,&quot;origRot&quot;:0,&quot;index&quot;:null}" fill="#ff2e2e" stroke="#000000" stroke-width="2" stroke-linecap="butt"/><path d="M263.426,329.32846l17.75262,-21.51283l4.64127,6.28469l-16.60619,22.65237z" data-paper-data="{&quot;origPos&quot;:null,&quot;origRot&quot;:0,&quot;index&quot;:null}" fill="#ffffff" stroke="#000000" stroke-width="2" stroke-linecap="butt"/><path d="M275.37577,330.14218l7.78359,-22.3831l2.27806,6.66758l-5.69024,24.33101z" data-paper-data="{&quot;origPos&quot;:null,&quot;origRot&quot;:0,&quot;index&quot;:null}" fill="#ff2e2e" stroke="#000000" stroke-width="2" stroke-linecap="butt"/><path d="M257.30294,317.00674l28.15949,-10.20484l0.68155,7.78295l-27.43534,10.32374z" data-paper-data="{&quot;origPos&quot;:null,&quot;origRot&quot;:0,&quot;index&quot;:null}" fill="#ffffff" stroke="#000000" stroke-width="2" stroke-linecap="butt"/><path d="M304.10795,315.7309l-4.78598,-6.02637l19.97651,2.92334l6.58797,6.62296z" data-paper-data="{&quot;origPos&quot;:null,&quot;origRot&quot;:0}" fill="#ffffff" stroke="#000000" stroke-width="2" stroke-linecap="butt"/><path d="M284.4865,313.54267l-5.03169,-5.82279l20.08052,2.09272l6.85686,6.34414z" data-paper-data="{&quot;origPos&quot;:null,&quot;origRot&quot;:0}" fill="#ffffff" stroke="#000000" stroke-width="2" stroke-linecap="butt"/><path d="M261.63358,310.38877l-4.85947,-5.96726l20.01083,2.67831l6.66865,6.5417z" data-paper-data="{&quot;origPos&quot;:null,&quot;origRot&quot;:0}" fill="#ffffff" stroke="#000000" stroke-width="2" stroke-linecap="butt"/><path d="M34.33252,271.85705l18.5574,-4.51634l5.05088,22.53224c0,0 -6.06483,5.78836 -10.99307,6.42467c-4.92825,0.63631 -12.69357,-3.36641 -12.69357,-3.36641z" data-paper-data="{&quot;origRot&quot;:0,&quot;origPos&quot;:null,&quot;index&quot;:null}" fill="#ffd499" stroke="#806c4d" stroke-width="2" stroke-linecap="butt"/><path d="M68.0718,173.61148c0,0 -13.45789,25.6872 -13.57018,38.16371c0.41299,11.50771 4.01107,68.14969 4.01107,68.14969c0,0 -7.59498,2.13674 -12.58291,2.2652c-4.98793,0.12846 -12.98153,-1.60679 -12.98153,-1.60679c0,0 -0.24334,-62.85457 -0.67937,-69.08046c-3.68861,-7.92156 12.08407,-51.0977 25.40252,-64.09191c2.27598,-2.37378 10.11124,-0.5263 10.11124,-0.5263z" data-paper-data="{&quot;origPos&quot;:null,&quot;index&quot;:null,&quot;origRot&quot;:0}" id="ID0.5423141438513994" fill="#000000" stroke="#000000" stroke-width="2.54325" stroke-linecap="round"/><path d="M254.04556,330.07773l4.46055,-23.27425l3.21949,6.26746l-2.10722,24.89852z" data-paper-data="{&quot;origPos&quot;:null,&quot;origRot&quot;:0,&quot;index&quot;:null}" fill="#ff2e2e" stroke="#000000" stroke-width="2" stroke-linecap="butt"/><path d="M352.77911,338.59974l-20.60173,-18.80229l6.50811,-4.32242l21.79697,17.71404z" data-paper-data="{&quot;origPos&quot;:null,&quot;origRot&quot;:0,&quot;index&quot;:null}" fill="#ffffff" stroke="#000000" stroke-width="2" stroke-linecap="butt"/><path d="M261.85858,311.56932l-3.42401,-6.89194l18.92766,7.02499l5.06198,7.85119z" data-paper-data="{&quot;origPos&quot;:null,&quot;origRot&quot;:0}" fill="#ffffff" stroke="#000000" stroke-width="2" stroke-linecap="butt"/><path d="M329.61797,327.90119l-7.09235,-2.98685l18.92537,-7.03116l8.95942,2.64455z" data-paper-data="{&quot;origPos&quot;:null,&quot;origRot&quot;:0}" fill="#ffffff" stroke="#000000" stroke-width="2" stroke-linecap="butt"/><path d="M361.81108,314.17565l-21.07894,-11.44005l7.03208,-1.18287l23.36721,9.66853z" data-paper-data="{&quot;origPos&quot;:null,&quot;origRot&quot;:0,&quot;index&quot;:null}" fill="#ff2e2e" stroke="#000000" stroke-width="2" stroke-linecap="butt"/><path d="M345.70621,334.50789l0.09877,-28.22761l7.6644,1.9429l1.52959,28.38436z" data-paper-data="{&quot;origPos&quot;:null,&quot;origRot&quot;:0,&quot;index&quot;:null}" fill="#ffffff" stroke="#000000" stroke-width="2" stroke-linecap="butt"/><path d="M307.38066,329.71647l2.17216,-23.88469l3.8672,5.99115l0.35985,25.28591z" data-paper-data="{&quot;origPos&quot;:null,&quot;origRot&quot;:0,&quot;index&quot;:null}" fill="#ff2e2e" stroke="#000000" stroke-width="2" stroke-linecap="butt"/><path d="M295.55978,325.41845l19.46789,-20.4404l4.2334,6.67803l-18.39253,21.67318z" data-paper-data="{&quot;origPos&quot;:null,&quot;origRot&quot;:0,&quot;index&quot;:null}" fill="#ffffff" stroke="#000000" stroke-width="2" stroke-linecap="butt"/><path d="M294.14301,329.20422l2.17216,-23.88469l3.8672,5.99115l0.35985,25.28591z" data-paper-data="{&quot;origPos&quot;:null,&quot;origRot&quot;:0,&quot;index&quot;:null}" fill="#ff2e2e" stroke="#000000" stroke-width="2" stroke-linecap="butt"/><path d="M277.30278,325.14278l19.46789,-20.4404l4.2334,6.67803l-18.39253,21.67318z" data-paper-data="{&quot;origPos&quot;:null,&quot;origRot&quot;:0,&quot;index&quot;:null}" fill="#ffffff" stroke="#000000" stroke-width="2" stroke-linecap="butt"/><path d="M284.14426,328.21051l5.30091,-23.39011l3.04392,6.44855l-2.97564,25.11279z" data-paper-data="{&quot;origPos&quot;:null,&quot;origRot&quot;:0,&quot;index&quot;:null}" fill="#ff2e2e" stroke="#000000" stroke-width="2" stroke-linecap="butt"/><path d="M264.39771,323.15557l23.7833,-15.20405l2.51745,7.49535l-23.0332,16.65783z" data-paper-data="{&quot;origPos&quot;:null,&quot;origRot&quot;:0,&quot;index&quot;:null}" fill="#ffffff" stroke="#000000" stroke-width="2" stroke-linecap="butt"/><path d="M276.26517,317.58186l4.51426,-23.55456l3.25827,6.34295l-2.1326,25.19839z" data-paper-data="{&quot;origPos&quot;:null,&quot;origRot&quot;:0,&quot;index&quot;:null}" fill="#ff2e2e" stroke="#000000" stroke-width="2" stroke-linecap="butt"/><path d="M259.90688,315.88139l21.38661,-18.42338l3.55501,7.06257l-20.43792,19.75608z" data-paper-data="{&quot;origPos&quot;:null,&quot;origRot&quot;:0,&quot;index&quot;:null}" fill="#ffffff" stroke="#000000" stroke-width="2" stroke-linecap="butt"/><path d="M309.37019,311.32867l-4.72971,-6.1877l20.15878,3.33286l6.54189,6.82517z" data-paper-data="{&quot;origPos&quot;:null,&quot;origRot&quot;:0}" fill="#ffffff" stroke="#000000" stroke-width="2" stroke-linecap="butt"/><path d="M337.8735,328.12223l-6.70554,3.9615l5.70303,-19.62038l7.5537,-5.68516z" data-paper-data="{&quot;origPos&quot;:null,&quot;origRot&quot;:0}" fill="#ffffff" stroke="#000000" stroke-width="2" stroke-linecap="butt"/><path d="M314.58199,311.01772l-3.40964,-7.00228l19.09845,7.26177l5.05956,7.98624z" data-paper-data="{&quot;origPos&quot;:null,&quot;origRot&quot;:0}" fill="#ffffff" stroke="#000000" stroke-width="2" stroke-linecap="butt"/><path d="M269.2129,312.77372l-6.52357,-4.25449l20.11532,-3.58581l8.44461,4.25062z" data-paper-data="{&quot;origPos&quot;:null,&quot;origRot&quot;:0}" fill="#ffffff" stroke="#000000" stroke-width="2" stroke-linecap="butt"/><path d="M331.33541,333.97233l0.41155,-23.69428l4.24461,5.62401l2.18504,24.89182z" data-paper-data="{&quot;origPos&quot;:null,&quot;origRot&quot;:0,&quot;index&quot;:null}" fill="#ff2e2e" stroke="#000000" stroke-width="2" stroke-linecap="butt"/><path d="M323.25845,327.99724l19.63631,-19.8084l4.0502,6.68091l-18.59833,21.04751z" data-paper-data="{&quot;origPos&quot;:null,&quot;origRot&quot;:0,&quot;index&quot;:null}" fill="#ffffff" stroke="#000000" stroke-width="2" stroke-linecap="butt"/><path d="M354.74043,327.738l6.52831,-22.7809l2.64489,6.53076l-4.33,24.60951z" data-paper-data="{&quot;origPos&quot;:null,&quot;origRot&quot;:0,&quot;index&quot;:null}" fill="#ff2e2e" stroke="#000000" stroke-width="2" stroke-linecap="butt"/><path d="M339.14659,320.67952l22.67845,-16.23716l2.87321,7.26522l-21.86282,17.63272z" data-paper-data="{&quot;origPos&quot;:null,&quot;origRot&quot;:0,&quot;index&quot;:null}" fill="#ffffff" stroke="#000000" stroke-width="2" stroke-linecap="butt"/><path d="M332.76571,318.6368l14.86008,-18.45986l-0.09785,7.04533l-13.54407,20.99846z" data-paper-data="{&quot;origPos&quot;:null,&quot;origRot&quot;:0,&quot;index&quot;:null}" fill="#ff2e2e" stroke="#000000" stroke-width="2" stroke-linecap="butt"/><path d="M321.13506,311.57824l27.20323,-6.15969l-0.17257,7.81082l-26.99334,7.76243z" data-paper-data="{&quot;origPos&quot;:null,&quot;origRot&quot;:0,&quot;index&quot;:null}" fill="#ffffff" stroke="#000000" stroke-width="2" stroke-linecap="butt"/><path d="M303.38374,321.01772l-15.95472,-17.5224l6.94645,1.18027l18.66553,16.6125z" data-paper-data="{&quot;origPos&quot;:null,&quot;origRot&quot;:0,&quot;index&quot;:null}" fill="#ff2e2e" stroke="#000000" stroke-width="2" stroke-linecap="butt"/><path d="M265.07669,320.55504l24.07891,-17.81295l2.87319,7.26523l-23.35094,17.72037z" data-paper-data="{&quot;origPos&quot;:null,&quot;origRot&quot;:0,&quot;index&quot;:null}" fill="#ffffff" stroke="#000000" stroke-width="2" stroke-linecap="butt"/><path d="M313.72577,322.16039l-7.57089,-1.37996l16.95346,-10.96301l9.31952,0.64145z" data-paper-data="{&quot;origPos&quot;:null,&quot;origRot&quot;:0}" fill="#ffffff" stroke="#000000" stroke-width="2" stroke-linecap="butt"/><path d="M347.45197,306.47259l-0.41883,-7.68422l14.60558,13.93858l1.54381,9.2131z" data-paper-data="{&quot;origPos&quot;:null,&quot;origRot&quot;:0}" fill="#ffffff" stroke="#000000" stroke-width="2" stroke-linecap="butt"/><path d="M310.63044,310.84182l-5.38974,-5.49302l20.17265,0.819l7.24424,5.89794z" data-paper-data="{&quot;origPos&quot;:null,&quot;origRot&quot;:0}" fill="#ffffff" stroke="#000000" stroke-width="2" stroke-linecap="butt"/><path d="M376.15507,321.92689l25.35391,-11.62485l1.43815,7.67922l-24.81874,13.15012z" data-paper-data="{&quot;origPos&quot;:null,&quot;origRot&quot;:0,&quot;index&quot;:null}" fill="#ffffff" stroke="#000000" stroke-width="2" stroke-linecap="butt"/><path d="M290.29706,310.07869l-3.16555,-7.01441l18.65355,7.72346l4.76675,8.03385z" data-paper-data="{&quot;origPos&quot;:null,&quot;origRot&quot;:0}" fill="#ffffff" stroke="#000000" stroke-width="2" stroke-linecap="butt"/><path d="M408.2063,304.79025l7.49969,1.72554l-17.43815,10.17436l-9.28032,-1.06794z" data-paper-data="{&quot;origPos&quot;:null,&quot;origRot&quot;:0}" fill="#ffffff" stroke="#000000" stroke-width="2" stroke-linecap="butt"/><path d="M238.40069,334.0397l-3.37866,-26.73221l5.68877,5.64102l6.49503,27.65891z" data-paper-data="{&quot;origPos&quot;:null,&quot;origRot&quot;:0,&quot;index&quot;:null}" fill="#ff2e2e" stroke="#000000" stroke-width="2" stroke-linecap="butt"/><path d="M218.94241,333.64583l16.43052,-27.12542l6.25628,6.30638l-14.95314,28.2187z" data-paper-data="{&quot;origPos&quot;:null,&quot;origRot&quot;:0,&quot;index&quot;:null}" fill="#ffffff" stroke="#000000" stroke-width="2" stroke-linecap="butt"/><path d="M216.67994,333.29071l-3.37866,-26.7322l5.68877,5.64102l6.49503,27.65891z" data-paper-data="{&quot;origPos&quot;:null,&quot;origRot&quot;:0,&quot;index&quot;:null}" fill="#ff2e2e" stroke="#000000" stroke-width="2" stroke-linecap="butt"/><path d="M197.22165,332.89685l16.43051,-27.12542l6.25628,6.30639l-14.95314,28.2187z" data-paper-data="{&quot;origPos&quot;:null,&quot;origRot&quot;:0,&quot;index&quot;:null}" fill="#ffffff" stroke="#000000" stroke-width="2" stroke-linecap="butt"/><path d="M213.80772,312.63311l-6.4495,-5.91333l22.95384,-0.28132l8.57947,6.26173z" data-paper-data="{&quot;origPos&quot;:null,&quot;origRot&quot;:0}" fill="#ffffff" stroke="#000000" stroke-width="2" stroke-linecap="butt"/><path d="M247.45151,324.37576l23.74167,-20.45212l3.94648,7.84027l-22.68849,21.93159z" data-paper-data="{&quot;origPos&quot;:null,&quot;origRot&quot;:0,&quot;index&quot;:null}" fill="#ffffff" stroke="#000000" stroke-width="2" stroke-linecap="butt"/><path d="M245.43474,331.34935l5.01137,-26.14832l3.61706,7.04141l-2.36744,27.97317z" data-paper-data="{&quot;origPos&quot;:null,&quot;origRot&quot;:0,&quot;index&quot;:null}" fill="#ff2e2e" stroke="#000000" stroke-width="2" stroke-linecap="butt"/><path d="M225.86668,326.9254l25.15009,-22.35639l3.94648,7.84028l-24.34484,22.17949z" data-paper-data="{&quot;origPos&quot;:null,&quot;origRot&quot;:0,&quot;index&quot;:null}" fill="#ffffff" stroke="#000000" stroke-width="2" stroke-linecap="butt"/><path d="M248.56182,311.06294l-4.24836,-7.53019l21.65031,6.76425l6.14268,8.5097z" data-paper-data="{&quot;origPos&quot;:null,&quot;origRot&quot;:0}" fill="#ffffff" stroke="#000000" stroke-width="2" stroke-linecap="butt"/><path d="M221.14689,330.92197l5.01137,-26.14832l3.61706,7.04141l-2.36744,27.97317z" data-paper-data="{&quot;origPos&quot;:null,&quot;origRot&quot;:0,&quot;index&quot;:null}" fill="#ff2e2e" stroke="#000000" stroke-width="2" stroke-linecap="butt"/><path d="M231.80669,312.05608l-4.24836,-7.53019l21.65031,6.76425l6.14268,8.5097z" data-paper-data="{&quot;origPos&quot;:null,&quot;origRot&quot;:0}" fill="#ffffff" stroke="#000000" stroke-width="2" stroke-linecap="butt"/><path d="M272.38535,320.95585l-18.87488,-19.22929l7.94299,1.04498l21.91615,18.07991z" data-paper-data="{&quot;origPos&quot;:null,&quot;origRot&quot;:0,&quot;index&quot;:null}" fill="#ff2e2e" stroke="#000000" stroke-width="2" stroke-linecap="butt"/><path d="M255.23244,314.07263l28.22999,-14.45053l2.01084,8.65264l-27.54717,16.15688z" data-paper-data="{&quot;origPos&quot;:null,&quot;origRot&quot;:0,&quot;index&quot;:null}" fill="#ffffff" stroke="#000000" stroke-width="2" stroke-linecap="butt"/><path d="M249.86834,322.96244l-2.53797,-26.82507l5.50891,5.81678l5.6237,27.84914z" data-paper-data="{&quot;origPos&quot;:null,&quot;origRot&quot;:0,&quot;index&quot;:null}" fill="#ff2e2e" stroke="#000000" stroke-width="2" stroke-linecap="butt"/><path d="M246.43201,325.45801l17.27378,-26.59636l6.05527,6.49965l-15.83147,27.73547z" data-paper-data="{&quot;origPos&quot;:null,&quot;origRot&quot;:0,&quot;index&quot;:null}" fill="#ffffff" stroke="#000000" stroke-width="2" stroke-linecap="butt"/><path d="M217.6296,323.34877l11.20294,-24.1525l1.80149,7.70838l-9.08047,26.56404z" data-paper-data="{&quot;origPos&quot;:null,&quot;origRot&quot;:0,&quot;index&quot;:null}" fill="#ff2e2e" stroke="#000000" stroke-width="2" stroke-linecap="butt"/><path d="M393.2639,332.13844l-25.35025,9.13187l4.26335,-6.78283l25.57442,-12.37536z" data-paper-data="{&quot;origPos&quot;:null,&quot;origRot&quot;:0,&quot;index&quot;:null}" fill="#ff2e2e" stroke="#000000" stroke-width="2" stroke-linecap="butt"/><path d="M354.1561,332.93397l20.11806,-24.51558l5.29673,7.13135l-18.81101,25.8077z" data-paper-data="{&quot;origPos&quot;:null,&quot;origRot&quot;:0,&quot;index&quot;:null}" fill="#ffffff" stroke="#000000" stroke-width="2" stroke-linecap="butt"/><path d="M353.01926,338.56863l-20.20091,-17.83113l7.99736,0.47462l23.15227,16.46733z" data-paper-data="{&quot;origPos&quot;:null,&quot;origRot&quot;:0,&quot;index&quot;:null}" fill="#ff2e2e" stroke="#000000" stroke-width="2" stroke-linecap="butt"/><path d="M327.03352,323.07611l30.16993,-9.7737l0.60817,8.86238l-29.76738,11.56696z" data-paper-data="{&quot;origPos&quot;:null,&quot;origRot&quot;:0,&quot;index&quot;:null}" fill="#ffffff" stroke="#000000" stroke-width="2" stroke-linecap="butt"/><path d="M347.35105,325.13705l-4.32715,-7.60521l21.93577,6.76615l6.24788,8.58956z" data-paper-data="{&quot;origPos&quot;:null,&quot;origRot&quot;:0}" fill="#ffffff" stroke="#000000" stroke-width="2" stroke-linecap="butt"/><path d="M375.762,320.99176l29.79242,-9.71432l0.61768,8.75574l-29.39125,11.48551z" data-paper-data="{&quot;origPos&quot;:null,&quot;origRot&quot;:0,&quot;index&quot;:null}" fill="#ffffff" stroke="#000000" stroke-width="2" stroke-linecap="butt"/><path d="M362.71312,328.94005l6.53278,-25.8103l3.19885,7.24098l-4.00012,27.78673z" data-paper-data="{&quot;origPos&quot;:null,&quot;origRot&quot;:0,&quot;index&quot;:null}" fill="#ff2e2e" stroke="#000000" stroke-width="2" stroke-linecap="butt"/><path d="M345.62622,316.13328l33.10925,-6.00935l-0.70829,8.74889l-32.32951,6.27719z" data-paper-data="{&quot;origPos&quot;:null,&quot;origRot&quot;:0,&quot;index&quot;:null}" fill="#ffffff" stroke="#000000" stroke-width="2" stroke-linecap="butt"/><path d="M373.18759,309.65292l0.28914,-8.6411l14.97109,17.03988l0.8191,10.46312z" data-paper-data="{&quot;origPos&quot;:null,&quot;origRot&quot;:0}" fill="#ffffff" stroke="#000000" stroke-width="2" stroke-linecap="butt"/><path d="M363.20076,326.22526l-24.34827,-10.77082l7.67506,-1.93854l26.72162,8.60573z" data-paper-data="{&quot;origPos&quot;:null,&quot;origRot&quot;:0,&quot;index&quot;:null}" fill="#ff2e2e" stroke="#000000" stroke-width="2" stroke-linecap="butt"/><path d="M358.71724,315.76635l1.76851,-8.46314l11.82307,19.35734l-0.98955,10.44837z" data-paper-data="{&quot;origPos&quot;:null,&quot;origRot&quot;:0}" fill="#ffffff" stroke="#000000" stroke-width="2" stroke-linecap="butt"/><path d="M409.76297,326.26551l26.23732,-6.13427l-5.02027,6.24341l-26.83565,9.32997z" data-paper-data="{&quot;origPos&quot;:null,&quot;origRot&quot;:0,&quot;index&quot;:null}" fill="#ff2e2e" stroke="#000000" stroke-width="2" stroke-linecap="butt"/><path d="M375.86562,306.08836l23.8664,20.88411l-7.29547,5.0683l-25.19922,-19.61862z" data-paper-data="{&quot;origPos&quot;:null,&quot;origRot&quot;:0,&quot;index&quot;:null}" fill="#ffffff" stroke="#000000" stroke-width="2" stroke-linecap="butt"/><path d="M363.56765,312.11606l26.30006,-5.85941l-5.08533,6.19053l-26.93181,9.04867z" data-paper-data="{&quot;origPos&quot;:null,&quot;origRot&quot;:0,&quot;index&quot;:null}" fill="#ff2e2e" stroke="#000000" stroke-width="2" stroke-linecap="butt"/><path d="M350.51912,315.61696l30.89397,7.16328l-4.04376,7.90947l-31.47263,-5.41889z" data-paper-data="{&quot;origPos&quot;:null,&quot;origRot&quot;:0,&quot;index&quot;:null}" fill="#ffffff" stroke="#000000" stroke-width="2" stroke-linecap="butt"/><path d="M389.30228,314.02343l1.81426,-8.5599l11.90947,19.62454l-1.03166,10.5713z" data-paper-data="{&quot;origPos&quot;:null,&quot;origRot&quot;:0}" fill="#ffffff" stroke="#000000" stroke-width="2" stroke-linecap="butt"/><path d="M407.24569,309.0833l26.35313,16.95491l-6.39647,6.01082l-27.47255,-15.52489z" data-paper-data="{&quot;origPos&quot;:null,&quot;origRot&quot;:0,&quot;index&quot;:null}" fill="#ffffff" stroke="#000000" stroke-width="2" stroke-linecap="butt"/><path d="M409.76131,330.78565l-4.48956,-26.24295l5.85928,5.32293l7.60593,27.0232z" data-paper-data="{&quot;origPos&quot;:null,&quot;origRot&quot;:0,&quot;index&quot;:null}" fill="#ff2e2e" stroke="#000000" stroke-width="2" stroke-linecap="butt"/><path d="M380.83425,314.9422l33.59278,1.96487l-2.7507,8.33536l-32.89814,-1.52077z" data-paper-data="{&quot;origPos&quot;:null,&quot;origRot&quot;:0,&quot;index&quot;:null}" fill="#ffffff" stroke="#000000" stroke-width="2" stroke-linecap="butt"/><path d="M409.79045,311.90189l4.88413,-7.13424l3.47914,22.41399l-4.92764,9.26638z" data-paper-data="{&quot;origPos&quot;:null,&quot;origRot&quot;:0}" fill="#ffffff" stroke="#000000" stroke-width="2" stroke-linecap="butt"/><path d="M395.2377,311.04934l25.98709,-5.78967l-5.02481,6.11684l-26.61131,8.94099z" data-paper-data="{&quot;origPos&quot;:null,&quot;origRot&quot;:0,&quot;index&quot;:null}" fill="#ff2e2e" stroke="#000000" stroke-width="2" stroke-linecap="butt"/><path d="M403.07028,316.32106l-1.02787,-8.58462l17.38756,14.56584l2.40022,10.21698z" data-paper-data="{&quot;origPos&quot;:null,&quot;origRot&quot;:0}" fill="#ffffff" stroke="#000000" stroke-width="2" stroke-linecap="butt"/><path d="M438.18508,307.34339l26.77381,20.38377l-6.93547,5.37994l-26.44543,-19.62753z" data-paper-data="{&quot;origPos&quot;:null,&quot;origRot&quot;:0,&quot;index&quot;:null}" fill="#ffffff" stroke="#000000" stroke-width="2" stroke-linecap="butt"/><path d="M429.10189,309.36917l15.4752,21.66488l-7.59309,-2.23819l-18.62016,-21.00935z" data-paper-data="{&quot;origPos&quot;:null,&quot;origRot&quot;:0,&quot;index&quot;:null}" fill="#ff2e2e" stroke="#000000" stroke-width="2" stroke-linecap="butt"/><path d="M424.52049,309.32843l23.9606,20.1952l-7.11465,5.14067l-25.25417,-18.92058z" data-paper-data="{&quot;origPos&quot;:null,&quot;origRot&quot;:0,&quot;index&quot;:null}" fill="#ffffff" stroke="#000000" stroke-width="2" stroke-linecap="butt"/><path d="M417.32763,327.4633l15.67996,-21.51715l0.27026,7.91146l-14.0662,24.29496z" data-paper-data="{&quot;origPos&quot;:null,&quot;origRot&quot;:0,&quot;index&quot;:null}" fill="#ff2e2e" stroke="#000000" stroke-width="2" stroke-linecap="butt"/><path d="M408.24267,304.15669l33.59278,1.96487l-2.7507,8.33536l-32.89814,-1.52077z" data-paper-data="{&quot;origPos&quot;:null,&quot;origRot&quot;:0,&quot;index&quot;:null}" fill="#ffffff" stroke="#000000" stroke-width="2" stroke-linecap="butt"/><path d="M415.48404,301.83325l26.08489,-5.33172l-5.13161,6.02753l-26.76444,8.47158z" data-paper-data="{&quot;origPos&quot;:null,&quot;origRot&quot;:0,&quot;index&quot;:null}" fill="#ff2e2e" stroke="#000000" stroke-width="2" stroke-linecap="butt"/><path d="M434.38497,314.14435l2.80979,-8.17663l9.31765,20.68024l-2.28439,10.2435z" data-paper-data="{&quot;origPos&quot;:null,&quot;origRot&quot;:0}" fill="#ffffff" stroke="#000000" stroke-width="2" stroke-linecap="butt"/><path d="M423.24649,311.22557l-0.53526,-8.62936l16.52613,15.53636l1.81202,10.33751z" data-paper-data="{&quot;origPos&quot;:null,&quot;origRot&quot;:0}" fill="#ffffff" stroke="#000000" stroke-width="2" stroke-linecap="butt"/><path d="M431.88311,322.64817l0.9668,-8.59171l13.58684,18.16285l-0.00503,10.49514z" data-paper-data="{&quot;origPos&quot;:null,&quot;origRot&quot;:0}" fill="#ffffff" stroke="#000000" stroke-width="2" stroke-linecap="butt"/><path d="M363.57371,312.77333l22.57425,-8.00441l-3.81985,6.01022l-22.78795,10.88652z" data-paper-data="{&quot;origPos&quot;:null,&quot;origRot&quot;:0,&quot;index&quot;:null}" fill="#ff2e2e" stroke="#000000" stroke-width="2" stroke-linecap="butt"/><path d="M351.92271,305.86591l30.13926,2.83134l-2.73725,7.4067l-29.52884,-2.41007z" data-paper-data="{&quot;origPos&quot;:null,&quot;origRot&quot;:0,&quot;index&quot;:null}" fill="#ffffff" stroke="#000000" stroke-width="2" stroke-linecap="butt"/><path d="M329.88579,303.5582l23.90223,1.53309l-5.87819,4.02009l-25.23375,1.03193z" data-paper-data="{&quot;origPos&quot;:null,&quot;origRot&quot;:0,&quot;index&quot;:null}" fill="#ff2e2e" stroke="#000000" stroke-width="2" stroke-linecap="butt"/><path d="M309.38539,334.44869l19.79788,-22.90057l4.44299,6.52776l-19.10053,22.64798z" data-paper-data="{&quot;origPos&quot;:null,&quot;origRot&quot;:0,&quot;index&quot;:null}" fill="#ffffff" stroke="#000000" stroke-width="2" stroke-linecap="butt"/><path d="M244.89875,311.11154l-19.10271,-14.02406l7.04271,-0.21569l21.58025,12.59642z" data-paper-data="{&quot;origPos&quot;:null,&quot;origRot&quot;:0,&quot;index&quot;:null}" fill="#ff2e2e" stroke="#000000" stroke-width="2" stroke-linecap="butt"/><path d="M227.94765,318.33302l-8.3664,2.56262l11.39143,-19.92972l9.74628,-4.22214z" data-paper-data="{&quot;origPos&quot;:null,&quot;origRot&quot;:0}" fill="#ffffff" stroke="#000000" stroke-width="2" stroke-linecap="butt"/><path d="M238.122,330.29203l-8.27323,-30.22433l8.7753,-0.19672l10.06163,29.90863z" data-paper-data="{&quot;origPos&quot;:null,&quot;origRot&quot;:0,&quot;index&quot;:null}" fill="#ffffff" stroke="#000000" stroke-width="2" stroke-linecap="butt"/><path d="M243.6778,317.56074l-26.6013,-1.10463l6.43174,-4.61491l28.01673,-1.77929z" data-paper-data="{&quot;origPos&quot;:null,&quot;origRot&quot;:0,&quot;index&quot;:null}" fill="#ff2e2e" stroke="#000000" stroke-width="2" stroke-linecap="butt"/><path d="M235.34121,330.45804l-25.81747,-21.58223l7.17335,-5.05842l25.5239,20.81183z" data-paper-data="{&quot;origPos&quot;:null,&quot;origRot&quot;:0,&quot;index&quot;:null}" fill="#ffffff" stroke="#000000" stroke-width="2" stroke-linecap="butt"/><path d="M224.00708,322.34966l-6.82218,5.31133l3.50101,-22.41058l7.51192,-7.32928z" data-paper-data="{&quot;origPos&quot;:null,&quot;origRot&quot;:0}" fill="#ffffff" stroke="#000000" stroke-width="2" stroke-linecap="butt"/><path d="M211.98705,324.8177l-6.82218,5.31133l3.50101,-22.41058l7.51193,-7.32928z" data-paper-data="{&quot;origPos&quot;:null,&quot;origRot&quot;:0}" fill="#ffffff" stroke="#000000" stroke-width="2" stroke-linecap="butt"/><path d="M217.57175,318.45888l-26.86064,-20.26921l6.91242,-5.40952l26.52905,19.51439z" data-paper-data="{&quot;origPos&quot;:null,&quot;origRot&quot;:0,&quot;index&quot;:null}" fill="#ffffff" stroke="#000000" stroke-width="2" stroke-linecap="butt"/><path d="M219.58544,309.48532l-25.80336,6.56012l4.84064,-6.26361l26.33359,-9.72861z" data-paper-data="{&quot;origPos&quot;:null,&quot;origRot&quot;:0,&quot;index&quot;:null}" fill="#ff2e2e" stroke="#000000" stroke-width="2" stroke-linecap="butt"/><path d="M218.68302,334.44519l-23.7061,-20.49335l7.17839,-5.05127l25.01553,19.23501z" data-paper-data="{&quot;origPos&quot;:null,&quot;origRot&quot;:0,&quot;index&quot;:null}" fill="#ffffff" stroke="#000000" stroke-width="2" stroke-linecap="butt"/><path d="M218.28297,307.92356l-25.80336,6.56012l4.84064,-6.26361l26.33359,-9.72861z" data-paper-data="{&quot;origPos&quot;:null,&quot;origRot&quot;:0,&quot;index&quot;:null}" fill="#ff2e2e" stroke="#000000" stroke-width="2" stroke-linecap="butt"/><path d="M218.58223,323.01941l-30.91707,-13.28421l5.42417,-6.90094l30.41513,12.63017z" data-paper-data="{&quot;origPos&quot;:null,&quot;origRot&quot;:0,&quot;index&quot;:null}" fill="#ffffff" stroke="#000000" stroke-width="2" stroke-linecap="butt"/><path d="M216.39274,330.25944l-26.54237,-2.08596l6.59772,-4.37431l28.06333,-0.74374z" data-paper-data="{&quot;origPos&quot;:null,&quot;origRot&quot;:0,&quot;index&quot;:null}" fill="#ff2e2e" stroke="#000000" stroke-width="2" stroke-linecap="butt"/><path d="M203.88829,330.78151l-5.01528,7.04269l-3.06392,-22.47451l5.09822,-9.17364z" data-paper-data="{&quot;origPos&quot;:null,&quot;origRot&quot;:0}" fill="#ffffff" stroke="#000000" stroke-width="2" stroke-linecap="butt"/><path d="M195.76251,332.56583l-5.01527,7.04267l-3.06392,-22.47451l5.09822,-9.17365z" data-paper-data="{&quot;origPos&quot;:null,&quot;origRot&quot;:0}" fill="#ffffff" stroke="#000000" stroke-width="2" stroke-linecap="butt"/><path d="M198.13061,320.85671l-5.01528,7.04269l-3.06392,-22.47451l5.09822,-9.17364z" data-paper-data="{&quot;origPos&quot;:null,&quot;origRot&quot;:0}" fill="#ffffff" stroke="#000000" stroke-width="2" stroke-linecap="butt"/><path d="M192.62371,311.39732l-23.21292,5.90153l4.35468,-5.63481l23.68988,-8.75193z" data-paper-data="{&quot;origPos&quot;:null,&quot;origRot&quot;:0,&quot;index&quot;:null}" fill="#ff2e2e" stroke="#000000" stroke-width="2" stroke-linecap="butt"/><path d="M190.46193,323.49778l-24.15304,-18.24891l6.2214,-4.86268l23.85513,17.56968z" data-paper-data="{&quot;origPos&quot;:null,&quot;origRot&quot;:0,&quot;index&quot;:null}" fill="#ffffff" stroke="#000000" stroke-width="2" stroke-linecap="butt"/><path d="M189.18243,302.42114l-20.48655,12.4084l2.52412,-6.65907l20.11239,-15.27411z" data-paper-data="{&quot;origPos&quot;:null,&quot;origRot&quot;:0,&quot;index&quot;:null}" fill="#ff2e2e" stroke="#000000" stroke-width="2" stroke-linecap="butt"/><path d="M193.16271,319.61842l-27.81323,-11.95057l4.87962,-6.20813l27.3617,11.36218z" data-paper-data="{&quot;origPos&quot;:null,&quot;origRot&quot;:0,&quot;index&quot;:null}" fill="#ffffff" stroke="#000000" stroke-width="2" stroke-linecap="butt"/><path d="M187.9319,317.26562l-23.21292,5.90153l4.35468,-5.63481l23.68988,-8.75193z" data-paper-data="{&quot;origPos&quot;:null,&quot;origRot&quot;:0,&quot;index&quot;:null}" fill="#ff2e2e" stroke="#000000" stroke-width="2" stroke-linecap="butt"/><path d="M190.25765,335.68591l-24.39849,-17.91942l6.15484,-4.94667l24.09139,17.24431z" data-paper-data="{&quot;origPos&quot;:null,&quot;origRot&quot;:0,&quot;index&quot;:null}" fill="#ffffff" stroke="#000000" stroke-width="2" stroke-linecap="butt"/><path d="M447.09006,315.88857l19.81704,-13.45185l-2.17617,6.78075l-19.2951,16.29435z" data-paper-data="{&quot;origPos&quot;:null,&quot;origRot&quot;:0,&quot;index&quot;:null}" fill="#ff2e2e" stroke="#000000" stroke-width="2" stroke-linecap="butt"/><path d="M436.66642,315.85223l29.1752,-8.07462l0.07641,7.89595l-28.45486,8.25122z" data-paper-data="{&quot;origPos&quot;:null,&quot;origRot&quot;:0,&quot;index&quot;:null}" fill="#ffffff" stroke="#000000" stroke-width="2" stroke-linecap="butt"/><path d="M462.57225,330.50211l-22.18157,-9.03576l6.84981,-1.94792l24.25795,7.02556z" data-paper-data="{&quot;origPos&quot;:null,&quot;origRot&quot;:0,&quot;index&quot;:null}" fill="#ff2e2e" stroke="#000000" stroke-width="2" stroke-linecap="butt"/><path d="M453.2925,312.68292l25.57127,16.20191l-5.80067,5.35759l-25.21854,-15.54948z" data-paper-data="{&quot;origPos&quot;:null,&quot;origRot&quot;:0,&quot;index&quot;:null}" fill="#ffffff" stroke="#000000" stroke-width="2" stroke-linecap="butt"/><path d="M436.69628,305.84019l23.88541,-1.77588l-5.26802,4.79189l-24.8507,4.49994z" data-paper-data="{&quot;origPos&quot;:null,&quot;origRot&quot;:0,&quot;index&quot;:null}" fill="#ff2e2e" stroke="#000000" stroke-width="2" stroke-linecap="butt"/><path d="M416.03798,312.47863l30.24061,-1.3775l-1.68317,7.71483l-29.57764,1.71002z" data-paper-data="{&quot;origPos&quot;:null,&quot;origRot&quot;:0,&quot;index&quot;:null}" fill="#ffffff" stroke="#000000" stroke-width="2" stroke-linecap="butt"/><path d="M107.57842,134.11276c0.14385,0.65793 -3.73228,0.78828 -8.65754,0.29128c-4.92526,-0.49705 -9.03457,-1.43325 -9.17841,-2.09117c-0.14385,-0.65793 3.73228,-0.78828 8.65754,-0.29128c4.92526,0.49705 9.03457,1.43325 9.17841,2.09117z" data-paper-data="{&quot;origRot&quot;:0,&quot;origPos&quot;:null}" fill="#000000" stroke="#000000" stroke-width="2" stroke-linecap="butt"/></g></g></svg>