<svg xmlns="http://www.w3.org/2000/svg" xmlns:xlink="http://www.w3.org/1999/xlink" width="130.632" height="307.648" version="1.1" viewBox="0 0 130.632 307.648"><defs><radialGradient id="color-1" cx="229.691" cy="144.663" r="97.283" gradientUnits="userSpaceOnUse"><stop offset="0" stop-color="#0ff"/><stop offset="1" stop-color="#003fff"/></radialGradient><linearGradient id="color-2" x1="238.851" x2="261.414" y1="188.644" y2="187.441" gradientUnits="userSpaceOnUse"><stop offset="0" stop-color="#3b3b3b"/><stop offset="1" stop-color="#000"/></linearGradient><linearGradient id="color-3" x1="193.378" x2="241.758" y1="188.969" y2="194.841" gradientUnits="userSpaceOnUse"><stop offset="0" stop-color="#000"/><stop offset="1" stop-color="#3b3b3b"/></linearGradient><radialGradient id="color-4" cx="211.562" cy="64.672" r="51.995" gradientUnits="userSpaceOnUse"><stop offset="0" stop-color="#b6b6b6"/><stop offset="1" stop-color="#666"/></radialGradient><radialGradient id="color-5" cx="219.693" cy="70.796" r="15.718" gradientUnits="userSpaceOnUse"><stop offset="0" stop-color="red"/><stop offset="1" stop-color="red" stop-opacity="0"/></radialGradient><radialGradient id="color-6" cx="220.334" cy="72.716" r="10.271" gradientUnits="userSpaceOnUse"><stop offset="0" stop-color="red"/><stop offset="1" stop-color="#d20000"/></radialGradient><linearGradient id="color-7" x1="182.147" x2="301.454" y1="-1.788" y2="7.865" gradientUnits="userSpaceOnUse"><stop offset="0" stop-color="#c70"/><stop offset="1" stop-color="#946f48"/></linearGradient></defs><g><g fill-rule="nonzero" stroke-dashoffset="0" stroke-linejoin="miter" stroke-miterlimit="10" data-paper-data="{&quot;isPaintingLayer&quot;:true}" transform="translate(-177.43315,1.02605)" style="mix-blend-mode:normal"><path fill="#333" stroke="#000" stroke-linecap="butt" stroke-width="2.5" d="M253.49583,252.1683c0,0 12.01633,16.33213 19.70641,27.10625c6.50463,9.11326 8.27077,16.04239 13.66147,25.85576c0.00903,0.01644 -20.64116,-0.23499 -20.64116,-0.23499c0,0 -8.4037,-33.72999 -24.98379,-34.50375c-4.14908,-0.40375 -2.66758,11.16246 -0.97379,14.97151c3.42702,7.70677 9.21535,19.67344 9.21535,19.67344l-21.37171,0.32228c0,0 -4.60033,-11.19467 -9.25158,-18.35983c-4.62027,-7.11743 -10.75553,-31.48753 -10.75553,-31.48753z" data-paper-data="{&quot;origPos&quot;:null,&quot;index&quot;:null}"/><path id="ID0.9171315478160977" fill="url(#color-1)" stroke="#000" stroke-linecap="butt" stroke-width="2.543" d="M203.19702,116.34485l51.10673,-2.08259l6.75696,137.18708l-50.2779,2.03837z" data-paper-data="{&quot;origPos&quot;:null,&quot;index&quot;:null,&quot;origRot&quot;:0}"/><g stroke="#000" stroke-linecap="butt" stroke-width="0" data-paper-data="{&quot;origPos&quot;:null,&quot;index&quot;:null,&quot;origRot&quot;:0}"><path fill="#ffde00" d="M233.2574,190.50121l-4.54193,0.316l5.48431,-20.91642l-5.06556,0.81009l4.12435,-17.26044l16.20716,-1.3806l-5.03002,13.17772l3.47048,-0.37672l-5.58928,19.99442l3.05191,0.11505l-17.44954,31.7531z" data-paper-data="{&quot;index&quot;:null,&quot;origPos&quot;:null}"/><path fill="red" d="M231.72073,187.48489l-4.54193,0.316l5.48433,-20.91642l-5.06556,0.81009l4.12436,-17.26044l16.20716,-1.3806l-5.03002,13.17772l3.47048,-0.37672l-5.58927,19.99442l3.05191,0.11505l-16.06386,31.93744z" data-paper-data="{&quot;index&quot;:null,&quot;origPos&quot;:null}"/><path fill="#000" d="M228.96313,187.37376l-4.54195,0.316l5.48433,-20.91642l-5.06556,0.81009l4.12436,-17.26044l16.20716,-1.3806l-5.03002,13.17772l3.47048,-0.37673l-5.58927,19.99442l3.0519,0.11505l-13.40233,30.24637z" data-paper-data="{&quot;index&quot;:null,&quot;origPos&quot;:null}"/></g><path id="ID0.5423141438513994" fill="url(#color-2)" stroke="#000" stroke-linecap="round" stroke-width="2.543" d="M235.3819,123.58822c0,0 6.23455,-3.49121 10.21791,-5.8584c3.98925,-2.37069 10.31035,-4.4169 10.31035,-4.4169c0,0 1.7599,20.93272 1.90369,23.53653c1.64483,29.77701 7.5214,124.13177 7.5214,124.13177l-20.29341,2.06665z" data-paper-data="{&quot;origPos&quot;:null,&quot;index&quot;:null,&quot;origRot&quot;:0}"/><path id="ID0.5423141438513994" fill="url(#color-3)" stroke="#000" stroke-linecap="round" stroke-width="2.543" d="M233.31494,264.41076l-25.2107,-0.15473c0,0 -3.76361,-94.02123 -5.29582,-123.80424c-0.13398,-2.60437 -0.63925,-23.91568 -0.63925,-23.91568c0,0 6.89881,1.55342 11.36036,3.40978c3.78613,1.57532 14.04593,4.35793 14.04593,4.35793z" data-paper-data="{&quot;origPos&quot;:null,&quot;index&quot;:null,&quot;origRot&quot;:0}"/><path fill="#1f1f1f" stroke="#000" stroke-linecap="butt" stroke-width="0" d="M250.74168,241.67065c-2.041,0.35257 -5.28146,0.03172 -5.28146,0.03172l-1.77567,-23.80417c0,0 1.44102,0.17061 2.34125,-0.09215c1.05681,-0.30843 2.67356,-1.37148 2.67356,-1.37148l7.04096,23.492c0,0 -3.02769,1.4036 -4.99862,1.74406z" data-paper-data="{&quot;origPos&quot;:null,&quot;index&quot;:null,&quot;origRot&quot;:0}"/><path fill="none" stroke="#000" stroke-linecap="round" stroke-width="2.543" d="M248.095,217.38739c0,0 2.66701,6.32822 3.95925,10.27859c1.50889,4.61258 3.21831,11.66289 3.21831,11.66289" data-paper-data="{&quot;origPos&quot;:null,&quot;origRot&quot;:0,&quot;index&quot;:null}"/><path fill="#1f1f1f" stroke="#000" stroke-linecap="butt" stroke-width="0" d="M220.35319,242.29394l4.21585,-24.15939c0,0 1.73101,0.86455 2.81688,1.04598c0.925,0.15453 2.33577,-0.18512 2.33577,-0.18512l1.04945,23.84721c0,0 -3.17984,0.70148 -5.24821,0.59254c-1.99737,-0.1052 -5.16968,-1.14121 -5.16968,-1.14121z" data-paper-data="{&quot;origPos&quot;:null,&quot;origRot&quot;:0}"/><path fill="none" stroke="#000" stroke-linecap="round" stroke-width="2.543" d="M219.82207,241.40841c0,0 1.21422,-7.44884 2.1675,-12.20738c0.81642,-4.07539 2.36718,-10.42848 2.36718,-10.42848" data-paper-data="{&quot;origPos&quot;:null,&quot;origRot&quot;:0}"/><path fill="#ffd499" stroke="#806c4d" stroke-linecap="butt" stroke-width="2" d="M267.37642,241.44497l4.96386,-15.63251l14.77107,5.56336l-3.99524,15.46225c0,0 -4.55213,2.6537 -9.88861,0.76253c-4.7711,-1.69078 -5.85107,-6.15565 -5.85107,-6.15565z" data-paper-data="{&quot;origRot&quot;:0,&quot;origPos&quot;:null,&quot;index&quot;:null}"/><path id="ID0.5423141438513994" fill="#000" stroke="#000" stroke-linecap="round" stroke-width="2.543" d="M256.19242,116.72602c0,0 7.19857,-2.6526 9.62572,-0.66996c7.28146,5.94798 20.21447,37.18951 24.7936,62.3796c2.22156,24.04761 -2.75739,59.23243 -2.75739,59.23243c0,0 -6.31913,0.52173 -10.15695,-0.66361c-3.83782,-1.18534 -10.69777,-4.1598 -10.69777,-4.1598c0,0 11.03321,-19.77467 6.60145,-50.16329c-4.43181,-30.38863 -14.59526,-40.63914 -14.59526,-40.63914z" data-paper-data="{&quot;origPos&quot;:null,&quot;index&quot;:null,&quot;origRot&quot;:0}"/><g stroke="#000" data-paper-data="{&quot;origRot&quot;:0,&quot;origPos&quot;:null}"><path fill="#fff" stroke-linecap="butt" stroke-width="1" d="M242.71933,184.80366l5.70638,-6.33349l25.28207,22.77874l-5.70638,6.33349z" data-paper-data="{&quot;origPos&quot;:null}"/><path fill="#fff" stroke-linecap="butt" stroke-width="1" d="M240.49638,179.44146l5.90421,-6.60527l2.02574,6.20746l-5.58486,5.72888z" data-paper-data="{&quot;origPos&quot;:null}"/><path fill="#fff" stroke-linecap="butt" stroke-width="1" d="M248.88663,178.84596l-1.89927,-5.66925l24.48968,22.50992l1.75589,4.99323z" data-paper-data="{&quot;origPos&quot;:null}"/><path fill="#ff2e2e" stroke-linecap="butt" stroke-width="0" d="M245.2982,184.68173l3.46124,-3.84164l22.53066,20.29975l-3.46124,3.84164z" data-paper-data="{&quot;origPos&quot;:null}"/><path fill="#ff2e2e" stroke-linecap="butt" stroke-width="0" d="M249.8335,178.1865l-0.09817,-0.93495l20.25671,18.43909l0.60706,1.20532z" data-paper-data="{&quot;origPos&quot;:null}"/><path fill="none" stroke-linecap="round" stroke-width=".5" d="M245.33021,181.44514l-2.01282,-4.44711" data-paper-data="{&quot;origPos&quot;:null}"/></g><path fill="#ffd499" stroke="#806c4d" stroke-linecap="butt" stroke-width="2" d="M224.60218,197.60229l-4.5742,-21.31934l25.87225,-5.05997c0,0 6.41628,7.10225 6.98841,12.74635c0.57213,5.6441 -4.23857,14.38102 -4.23857,14.38102z" data-paper-data="{&quot;origRot&quot;:0,&quot;origPos&quot;:null,&quot;index&quot;:null}"/><path id="ID0.5423141438513994" fill="#000" stroke="#000" stroke-linecap="round" stroke-width="2.543" d="M210.25775,140.76411c0,0 -13.49553,24.05579 -9.75608,35.34301c3.73947,6.78723 35.66469,-9.13729 35.66469,-9.13729c0,0 4.87567,9.48276 6.03603,17.61144c1.16036,8.12868 0.47706,16.00962 0.47706,16.00962c0,0 -51.78733,-1.39302 -59.95773,-9.90879c-5.76534,-6.00904 2.07847,-54.52738 10.09041,-70.34684c1.32198,-2.84157 8.95741,-3.58727 8.95741,-3.58727z" data-paper-data="{&quot;origPos&quot;:null,&quot;index&quot;:null,&quot;origRot&quot;:0}"/><g data-paper-data="{&quot;origPos&quot;:null,&quot;origRot&quot;:0}"><path id="ID0.7719937418587506" fill="#ffd499" stroke="#806c4d" stroke-linecap="butt" stroke-width="2.5" d="M236.34821,20.22649c14.04357,1.13388 26.31394,7.77948 34.79323,17.60006c8.47926,9.82173 8.07195,24.02323 5.63494,39.82717c-1.67911,10.88895 -5.43701,21.55768 -14.91839,29.49795c-9.95112,8.33251 -24.45883,14.05454 -33.64044,13.35513c-9.18143,-0.69935 -22.7781,-6.21354 -31.25744,-16.03411c-8.47937,-9.82189 -13.38822,-20.33727 -12.26668,-34.16998c1.12157,-13.83281 4.52742,-29.95341 14.4788,-38.28706c9.95116,-8.33254 23.13251,-12.92312 37.17594,-11.78923z" data-paper-data="{&quot;origPos&quot;:null,&quot;origRot&quot;:0}"/><path id="ID0.479907026514411" fill="url(#color-4)" stroke="#666" stroke-linecap="round" stroke-width="2.5" d="M239.27836,23.20919c5.26463,0.619 2.54172,10.43596 2.40741,15.73489c-0.30533,12.00169 1.98635,25.99328 -3.80407,36.90669c-4.89769,8.45176 -14.70594,14.01159 -24.19873,16.03581c-10.25873,1.78728 -20.79481,1.65411 -24.49594,-4.16418c-5.74421,-17.17287 0.37456,-40.89787 12.44072,-54.81394c10.51448,-11.31633 22.3406,-11.49255 37.65054,-9.69927z" data-paper-data="{&quot;origPos&quot;:null,&quot;origRot&quot;:0}"/><path id="ID0.21129454905167222" fill="none" stroke="#000" stroke-linecap="round" stroke-width="2.5" d="M256.72438,67.8629c-0.30802,4.8665 -1.55098,15.36782 -1.55098,15.36782" data-paper-data="{&quot;origPos&quot;:null,&quot;origRot&quot;:0}"/><path fill="none" stroke="#000" stroke-linecap="round" stroke-width="2" d="M239.38,103.77184l-14.21419,-1.27027" data-paper-data="{&quot;origPos&quot;:null,&quot;index&quot;:null,&quot;origRot&quot;:0}"/><path fill="url(#color-5)" stroke="none" stroke-linecap="butt" stroke-width="0" d="M204.03717,69.39689c0.77273,-8.64648 8.4085,-15.02947 17.05498,-14.25677c8.6465,0.77273 15.02947,8.4085 14.25677,17.05498c-0.77273,8.64648 -8.4085,15.02947 -17.05498,14.25677c-8.6465,-0.77273 -15.02947,-8.4085 -14.25677,-17.05498z" data-paper-data="{&quot;origPos&quot;:null,&quot;origRot&quot;:0}"/><path fill="url(#color-6)" stroke="#666" stroke-linecap="butt" stroke-width="2" d="M209.29358,70.02289c0.50493,-5.65019 5.49466,-9.82124 11.14483,-9.3163c5.65019,0.50493 9.82124,5.49466 9.3163,11.14483c-0.50493,5.65019 -5.49466,9.82124 -11.14483,9.3163c-5.65019,-0.50493 -9.82124,-5.49466 -9.3163,-11.14483z" data-paper-data="{&quot;origPos&quot;:null,&quot;origRot&quot;:0}"/><path fill="#7a7a7a" stroke="none" stroke-linecap="butt" stroke-width="0" d="M187.89987,89.19302c0,0 5.1729,-20.88429 10.29332,-34.35623c3.38612,-8.90903 11.46672,-22.57895 11.46672,-22.57895l30.40241,9.42594l0.06226,4.53469c0,0 -8.50206,-1.61505 -13.18863,-2.52152c-4.33083,-0.83766 -8.46268,-4.16843 -12.35979,-2.10191c-7.13646,3.78423 -7.83136,11.95492 -10.75425,19.48522c-3.9491,10.17405 -7.81267,29.40078 -7.81267,29.40078z" data-paper-data="{&quot;origRot&quot;:0,&quot;origPos&quot;:null}"/><path fill="#b0936a" stroke="none" stroke-linecap="butt" stroke-width="0" d="M242.89485,46.45477l0.13987,-4.36242l31.17711,2.91671c0,0 -6.7206,2.48898 -13.33105,2.30859c-6.65976,-0.18179 -17.73748,-0.83518 -17.73748,-0.83518z" data-paper-data="{&quot;origPos&quot;:null,&quot;origRot&quot;:0}"/><path fill="#b0936a" stroke="none" stroke-linecap="butt" stroke-width="0" d="M189.82509,91.60026l5.03893,1.49832l-1.10881,5.60569z" data-paper-data="{&quot;origPos&quot;:null,&quot;origRot&quot;:0}"/><path id="ID0.5302143599838018" fill="url(#color-7)" stroke="#a96300" stroke-linecap="round" stroke-width="3.5" d="M245.20047,3.31372c13.17781,1.28127 20.48589,3.06172 33.58693,4.97469c7.5858,1.10767 22.57762,2.59972 22.57762,2.59972c0,0 -10.01691,4.50073 -11.8432,4.8147c-3.38731,0.58236 -9.47176,2.12034 -9.47176,2.12034c0,0 4.54865,1.60681 7.71945,3.15493c3.40892,1.66439 8.72052,3.41237 8.72052,3.41237c0,0 -5.66432,1.83234 -9.19211,2.40256c-4.407,0.71234 -10.45981,2.76619 -10.45981,2.76619c0,0 6.48081,4.13736 11.5369,5.73926c5.08461,1.61091 11.66763,4.64167 11.66763,4.64167c0,0 -10.04202,4.38103 -16.3291,4.75229c-15.85839,0.93834 -31.67113,-3.12018 -47.50376,-4.3834c-9.652,-0.77135 -23.23505,-8.69882 -28.86359,-0.53621c-14.70878,20.11473 -18.90412,74.05555 -22.49371,71.94683c-3.58976,-2.10888 -9.31714,-59.63811 -2.46251,-88.28912c2.65075,-11.07238 13.54638,-16.65002 26.92981,-20.83034c13.38341,-4.18027 24.14485,-0.20137 35.88072,0.71344z" data-paper-data="{&quot;origPos&quot;:null,&quot;origRot&quot;:0}"/></g></g></g></svg>