<svg xmlns="http://www.w3.org/2000/svg" xmlns:xlink="http://www.w3.org/1999/xlink" width="132.108" height="334.133" version="1.1" viewBox="0 0 132.108 334.133"><defs><radialGradient id="color-1" cx="220.293" cy="149.485" r="97.283" gradientUnits="userSpaceOnUse"><stop offset="0" stop-color="#0ff"/><stop offset="1" stop-color="#003fff"/></radialGradient><linearGradient id="color-2" x1="231.83" x2="254.294" y1="192.903" y2="190.476" gradientUnits="userSpaceOnUse"><stop offset="0" stop-color="#3b3b3b"/><stop offset="1" stop-color="#000"/></linearGradient><linearGradient id="color-3" x1="186.442" x2="235.069" y1="195.699" y2="198.932" gradientUnits="userSpaceOnUse"><stop offset="0" stop-color="#000"/><stop offset="1" stop-color="#3b3b3b"/></linearGradient><radialGradient id="color-4" cx="198.439" cy="71.838" r="51.995" gradientUnits="userSpaceOnUse"><stop offset="0" stop-color="#b6b6b6"/><stop offset="1" stop-color="#666"/></radialGradient><radialGradient id="color-5" cx="207.17" cy="76.114" r="15.718" gradientUnits="userSpaceOnUse"><stop offset="0" stop-color="red"/><stop offset="1" stop-color="red" stop-opacity="0"/></radialGradient><radialGradient id="color-6" cx="208.001" cy="77.96" r="10.271" gradientUnits="userSpaceOnUse"><stop offset="0" stop-color="red"/><stop offset="1" stop-color="#d20000"/></radialGradient><linearGradient id="color-7" x1="162.512" x2="282.186" y1="8.659" y2="6.31" gradientUnits="userSpaceOnUse"><stop offset="0" stop-color="#c70"/><stop offset="1" stop-color="#946f48"/></linearGradient></defs><g><g fill-rule="nonzero" stroke-dashoffset="0" stroke-linejoin="miter" stroke-miterlimit="10" data-paper-data="{&quot;isPaintingLayer&quot;:true}" transform="translate(-162.71479,-5.14718)" style="mix-blend-mode:normal"><path fill="#333" stroke="#000" stroke-linecap="butt" stroke-width="2.5" d="M250.49583,254.16824c0,0 14.01633,14.33213 21.70641,25.10625c6.50463,9.11326 8.27077,16.04239 13.66147,25.85576c0.00903,0.01644 -20.64116,-0.23499 -20.64116,-0.23499c0,0 -8.4037,-32.22999 -24.98379,-33.00375c-4.14908,-0.40375 -2.66758,9.66246 -0.97379,13.47151c3.42702,7.70677 9.21535,19.67344 9.21535,19.67344l-21.37171,0.32228c0,0 -4.60033,-11.19467 -9.25158,-18.35983c-4.62027,-7.11743 -12.25553,-26.48753 -12.25553,-26.48753z" data-paper-data="{&quot;origPos&quot;:null,&quot;index&quot;:null}"/><path id="ID0.9171315478160977" fill="url(#color-1)" stroke="#000" stroke-linecap="butt" stroke-width="2.543" d="M192.29915,122.64843l50.91802,-4.85705l14.20278,136.6171l-50.09281,4.76784z" data-paper-data="{&quot;origPos&quot;:null,&quot;index&quot;:null,&quot;origRot&quot;:0}"/><g stroke="#000" stroke-linecap="butt" stroke-width="0" data-paper-data="{&quot;origPos&quot;:null,&quot;index&quot;:null,&quot;origRot&quot;:0}"><path fill="#ffde00" d="M226.34534,195.06149l-4.51804,0.56238l4.33945,-21.18357l-5.01404,1.0842l3.18019,-17.45908l16.10817,-2.25939l-4.3064,13.43161l3.44488,-0.56477l-4.49436,20.26863l3.05365,-0.05099l-15.69805,32.65451z" data-paper-data="{&quot;index&quot;:null,&quot;origPos&quot;:null}"/><path fill="red" d="M224.64701,192.13312l-4.51804,0.56238l4.33947,-21.18357l-5.01404,1.0842l3.1802,-17.45908l16.10817,-2.25939l-4.3064,13.43161l3.44488,-0.56477l-4.49435,20.26863l3.05365,-0.05099l-14.30439,32.76327z" data-paper-data="{&quot;index&quot;:null,&quot;origPos&quot;:null}"/><path fill="#000" d="M221.88745,192.17204l-4.51806,0.56238l4.33947,-21.18357l-5.01404,1.0842l3.1802,-17.45908l16.10817,-2.25939l-4.3064,13.43161l3.44488,-0.56478l-4.49435,20.26863l3.05364,-0.05099l-11.73871,30.93005z" data-paper-data="{&quot;index&quot;:null,&quot;origPos&quot;:null}"/></g><path id="ID0.5423141438513994" fill="url(#color-2)" stroke="#000" stroke-linecap="round" stroke-width="2.543" d="M224.83013,128.13193c0,0 6.03559,-3.82489 9.88442,-6.40507c3.85451,-2.58399 10.05506,-4.97072 10.05506,-4.97072c0,0 2.89494,20.80613 3.18004,23.39829c3.26071,29.6436 14.25656,123.53954 14.25656,123.53954l-20.1511,3.1665z" data-paper-data="{&quot;origPos&quot;:null,&quot;index&quot;:null,&quot;origRot&quot;:0}"/><path id="ID0.5423141438513994" fill="url(#color-3)" stroke="#000" stroke-linecap="round" stroke-width="2.543" d="M230.41961,268.85867l-25.18184,1.21564c0,0 -8.86789,-93.67773 -12.01647,-123.33345c-0.27532,-2.59324 -1.93807,-23.84559 -1.93807,-23.84559c0,0 6.97304,1.17619 11.52889,2.78732c3.86615,1.36722 14.26202,3.58812 14.26202,3.58812z" data-paper-data="{&quot;origPos&quot;:null,&quot;index&quot;:null,&quot;origRot&quot;:0}"/><path fill="#fff" stroke="#000" stroke-linecap="butt" stroke-width="1" d="M250.63538,338.65312v-10.81353h43.16551v10.81353z" data-paper-data="{&quot;origPos&quot;:null}"/><path fill="#fff" stroke="#000" stroke-linecap="butt" stroke-width="1" d="M243.98771,335.48747l-0.04432,-11.23762l7.17948,4.12973l-0.39886,10.14058z" data-paper-data="{&quot;origPos&quot;:null}"/><path fill="#fff" stroke="#000" stroke-linecap="butt" stroke-width="1" d="M251.38878,327.80247l-6.60333,-3.7299l42.19052,0.41947l5.89425,3.21459z" data-paper-data="{&quot;origPos&quot;:null}"/><path fill="#ff2e2e" stroke="#000" stroke-linecap="butt" stroke-width="0" d="M252.96206,336.3486v-6.55902h38.46782v6.55902z" data-paper-data="{&quot;origPos&quot;:null}"/><path fill="#ff2e2e" stroke="#000" stroke-linecap="butt" stroke-width="0" d="M251.72116,326.37709l-0.88635,-0.79772l34.74513,0.17727l1.59544,0.62045z" data-paper-data="{&quot;origPos&quot;:null}"/><path fill="none" stroke="#000" stroke-linecap="round" stroke-width=".5" d="M244.57151,330.78958l5.67266,2.4818" data-paper-data="{&quot;origPos&quot;:null}"/><path id="ID0.7719937418587506" fill="#ffd499" stroke="#806c4d" stroke-linecap="butt" stroke-width="2.5" d="M218.64671,25.13217c14.08651,-0.27898 26.961,5.10369 36.38164,14.02524c9.42072,8.92268 10.43844,23.09353 9.59722,39.06211c-0.57959,11.0024 -3.24958,21.99397 -11.88764,30.84431c-9.06613,9.28767 -22.92749,16.43456 -32.13296,16.65867c-9.20529,0.22413 -23.28606,-3.89993 -32.70674,-12.82145c-9.42084,-8.92283 -15.35861,-18.89343 -15.62874,-32.76892c-0.2701,-13.87558 1.50332,-30.25631 10.5696,-39.54513c9.06616,-9.2877 21.72121,-15.17593 35.80758,-15.45489z" data-paper-data="{&quot;origPos&quot;:null,&quot;origRot&quot;:0}"/><path id="ID0.479907026514411" fill="url(#color-4)" stroke="#666" stroke-linecap="round" stroke-width="2.5" d="M221.86098,27.80627c5.30016,0.08836 3.5746,10.12876 3.97191,15.41447c0.89876,11.97189 4.58086,25.66344 -0.08691,37.10212c-4.02617,8.89996 -13.22799,15.4146 -22.47017,18.3798c-10.02803,2.80619 -20.52442,3.7294 -24.78991,-1.68875c-7.43602,-16.51088 -3.72526,-40.72958 6.88581,-55.78463c9.32768,-12.31292 21.07662,-13.67321 36.48921,-13.423z" data-paper-data="{&quot;origPos&quot;:null,&quot;origRot&quot;:0}"/><path id="ID0.21129454905167222" fill="none" stroke="#000" stroke-linecap="round" stroke-width="2.5" d="M243.72139,69.4852c0.18115,4.87287 -0.00334,15.44588 -0.00334,15.44588" data-paper-data="{&quot;origPos&quot;:null,&quot;origRot&quot;:0}"/><path fill="none" stroke="#000" stroke-linecap="round" stroke-width="2" d="M230.0344,107.95329l-14.26993,0.16037" data-paper-data="{&quot;origPos&quot;:null,&quot;index&quot;:null,&quot;origRot&quot;:0}"/><path fill="url(#color-5)" stroke="none" stroke-linecap="butt" stroke-width="0" d="M191.45304,76.29068c-0.09753,-8.68041 6.86024,-15.79636 15.54064,-15.89392c8.68043,-0.09753 15.79636,6.86024 15.89392,15.54064c0.09753,8.68041 -6.86024,15.79636 -15.54064,15.89392c-8.68043,0.09753 -15.79636,-6.86024 -15.89392,-15.54064z" data-paper-data="{&quot;origPos&quot;:null,&quot;origRot&quot;:0}"/><path fill="url(#color-6)" stroke="#666" stroke-linecap="butt" stroke-width="2" d="M196.74573,76.38684c-0.06376,-5.67234 4.48292,-10.32237 10.15527,-10.38612c5.67234,-0.06376 10.32237,4.48292 10.38612,10.15527c0.06376,5.67234 -4.48292,10.32237 -10.15527,10.38612c-5.67234,0.06376 -10.32237,-4.48292 -10.38612,-10.15527z" data-paper-data="{&quot;origPos&quot;:null,&quot;origRot&quot;:0}"/><path fill="#7a7a7a" stroke="none" stroke-linecap="butt" stroke-width="0" d="M177.35257,98.60611c0,0 3.05428,-21.29751 6.79906,-35.21472c2.4764,-9.20348 9.14663,-23.61427 9.14663,-23.61427l31.19388,6.33221l0.51632,4.50563c0,0 -8.6211,-0.75501 -13.37492,-1.18734c-4.39297,-0.39951 -8.83777,-3.29951 -12.5082,-0.8529c-6.72136,4.48025 -6.59407,12.67946 -8.74773,20.46472c-2.9098,10.51854 -4.82742,30.03564 -4.82742,30.03564z" data-paper-data="{&quot;origRot&quot;:0,&quot;origPos&quot;:null}"/><path fill="#b0936a" stroke="none" stroke-linecap="butt" stroke-width="0" d="M227.78844,50.57249l-0.29795,-4.35447l31.31246,-0.22188c0,0 -6.43738,3.14986 -13.03264,3.63272c-6.64446,0.48643 -17.7319,0.94631 -17.7319,0.94631z" data-paper-data="{&quot;origPos&quot;:null,&quot;origRot&quot;:0}"/><path fill="#b0936a" stroke="none" stroke-linecap="butt" stroke-width="0" d="M180.03574,101.28042l5.1637,0.9859l-0.54153,5.68859z" data-paper-data="{&quot;origPos&quot;:null,&quot;origRot&quot;:0}"/><path id="ID0.5302143599838018" fill="url(#color-7)" stroke="#a96300" stroke-linecap="round" stroke-width="3.5" d="M225.75977,7.41754c13.23988,-0.04558 20.68958,0.99365 33.91636,1.58427c7.65861,0.34199 22.72449,0.32438 22.72449,0.32438c0,0 -9.51552,5.48176 -11.30117,5.97715c-3.31191,0.91883 -9.21163,3.05872 -9.21163,3.05872c0,0 4.68675,1.14295 7.99672,2.36557c3.55853,1.31444 9.01856,2.52141 9.01856,2.52141c0,0 -5.45222,2.39068 -8.90511,3.31151c-4.31344,1.15034 -10.13,3.80033 -10.13,3.80033c0,0 6.86275,3.46717 12.05391,4.55439c5.22043,1.09334 12.074,3.44922 12.074,3.44922c0,0 -9.55251,5.36519 -15.77074,6.36453c-15.68456,2.52262 -31.82439,0.06893 -47.7039,0.39849c-9.68072,0.19965 -23.98974,-6.32691 -28.77206,2.3586c-12.61927,21.4873 -11.38869,75.57704 -15.1715,73.83861c-3.783,-1.73857 -15.24595,-58.4044 -11.29661,-87.59806c1.52796,-11.28226 11.8099,-17.92356 24.7071,-23.42385c12.8972,-5.50024 24.00316,-2.61965 35.77163,-2.88536z" data-paper-data="{&quot;origPos&quot;:null,&quot;origRot&quot;:0}"/><path fill="#ffd499" stroke="#806c4d" stroke-linecap="butt" stroke-width="2" d="M247.09431,236.86091c-2.50274,-3.88944 0.38935,-7.32344 0.38935,-7.32344l13.46353,-9.36741l6.01064,12.07873l-12.71353,9.36741c0,0 -4.25704,0.87848 -7.14997,-4.75528z" data-paper-data="{&quot;origRot&quot;:0,&quot;origPos&quot;:null,&quot;index&quot;:null}"/><path id="ID0.5423141438513994" fill="#000" stroke="#000" stroke-linecap="round" stroke-width="2.543" d="M247.29075,120.05385c0,0 7.13314,-2.82383 9.60697,-0.89974c7.42149,5.77233 18.21749,41.7662 23.39714,66.8397c7.46139,30.87816 -21.43797,56.33317 -21.43797,56.33317l-7.88633,-18.63362c0,0 18.48057,-6.79732 13.32407,-37.0714c-5.15654,-30.27408 -13.58646,-41.32634 -13.58646,-41.32634z" data-paper-data="{&quot;origPos&quot;:null,&quot;index&quot;:null,&quot;origRot&quot;:0}"/><path fill="#1f1f1f" stroke="#000" stroke-linecap="butt" stroke-width="0" d="M246.58473,245.20502c-2.01882,0.46297 -5.27193,0.31871 -5.27193,0.31871l-3.06675,-23.67249c0,0 1.44816,0.09204 2.33278,-0.21925c1.03849,-0.36542 2.59506,-1.51476 2.59506,-1.51476l8.3073,23.07462c0,0 -2.94693,1.56607 -4.89645,2.01315z" data-paper-data="{&quot;origPos&quot;:null,&quot;index&quot;:null,&quot;origRot&quot;:0}"/><path fill="none" stroke="#000" stroke-linecap="round" stroke-width="2.543" d="M242.62222,221.10153c0,0 3.00699,6.17393 4.51202,10.04822c1.75734,4.52376 3.84741,11.47075 3.84741,11.47075" data-paper-data="{&quot;origPos&quot;:null,&quot;origRot&quot;:0,&quot;index&quot;:null}"/><path fill="#1f1f1f" stroke="#000" stroke-linecap="butt" stroke-width="0" d="M216.27502,247.47893l2.89661,-24.35281c0,0 1.77544,0.7692 2.86956,0.89134c0.93204,0.10403 2.32225,-0.31179 2.32225,-0.31179l2.34393,23.75493c0,0 -3.13702,0.87326 -5.20825,0.8769c-2.00014,0.00351 -5.22406,-0.85856 -5.22406,-0.85856z" data-paper-data="{&quot;origPos&quot;:null,&quot;origRot&quot;:0}"/><path fill="none" stroke="#000" stroke-linecap="round" stroke-width="2.543" d="M215.69656,246.62361c0,0 0.8076,-7.50382 1.50086,-12.30714c0.59373,-4.11373 1.79692,-10.54172 1.79692,-10.54172" data-paper-data="{&quot;origPos&quot;:null,&quot;origRot&quot;:0}"/><path fill="#ffd499" stroke="#806c4d" stroke-linecap="butt" stroke-width="2" d="M220.83107,250.04534c-2.50371,3.88882 -6.82712,2.67859 -6.82712,2.67859l-15.65524,-11.78845l8.19429,-11.15597l15.65524,11.78845c0,0 2.56264,3.51098 -1.36717,8.47736z" data-paper-data="{&quot;origRot&quot;:0,&quot;origPos&quot;:null,&quot;index&quot;:null}"/><path id="ID0.5423141438513994" fill="#000" stroke="#000" stroke-linecap="round" stroke-width="2.543" d="M194.17737,148.09852c0,0 -9.04097,14.10965 -6.84636,44.74122c2.19464,30.63157 29.65273,43.84926 29.65273,43.84926c0,0 -1.81511,5.44832 -3.84634,8.44774c-2.03123,2.99942 -4.8797,4.43758 -4.8797,4.43758c0,0 -38.6102,-20.39372 -38.70991,-52.16042c-0.93479,-25.58585 6.56298,-65.86114 12.39795,-73.23348c1.94499,-2.45746 9.54517,-1.41187 9.54517,-1.41187z" data-paper-data="{&quot;origPos&quot;:null,&quot;index&quot;:null,&quot;origRot&quot;:0}"/></g></g></svg>