<svg version="1.1" xmlns="http://www.w3.org/2000/svg" xmlns:xlink="http://www.w3.org/1999/xlink" width="494.83612" height="372.5116"><g transform="translate(14.47933,7.82767)"><g data-paper-data="{&quot;isPaintingLayer&quot;:true}" fill-rule="nonzero" stroke-linejoin="miter" stroke-miterlimit="10" stroke-dasharray="" stroke-dashoffset="0" style="mix-blend-mode: normal"><path d="M-0.87369,363.93393v-367.86787h480.48048v367.86787z" data-paper-data="{&quot;origPos&quot;:null}" fill="#00e7e7" stroke="none" stroke-width="NaN" stroke-linecap="butt"/><g data-paper-data="{&quot;origPos&quot;:null,&quot;origRot&quot;:0}"><path d="M309.62549,45.9624c2.01376,0.88139 1.77214,3.00147 1.77214,3.00147l-4.35023,8.23579l-5.85327,-3.00324l4.35023,-8.23579c0,0 1.45415,-1.46747 4.08115,0.00179z" data-paper-data="{&quot;origRot&quot;:0,&quot;origPos&quot;:null,&quot;index&quot;:null}" fill="#ffd499" stroke="#806c4d" stroke-width="2" stroke-linecap="butt"/><path d="M291.50979,102.74329c0,0 -2.97295,-0.44533 -3.43315,-1.58391c-1.38058,-3.41568 1.41291,-15.64479 4.58707,-25.16177c3.17417,-9.51697 10.67438,-26.83979 10.67438,-26.83979c0,0 2.04543,0.83437 3.31477,1.46455c1.26367,0.62737 3.1757,1.75778 3.1757,1.75778c0,0 -6.7881,13.1754 -10.9926,24.45055c-4.20451,11.27515 -3.52157,16.68504 -3.52157,16.68504z" data-paper-data="{&quot;origPos&quot;:null,&quot;index&quot;:null,&quot;origRot&quot;:0}" id="ID0.5423141438513994" fill="#7e7e7e" stroke="#000000" stroke-width="2.54325" stroke-linecap="round"/><path d="M346.48864,4.36073c0,0 -4.88949,19.08813 -10.84299,30.36712c-3.76615,7.135 -16.09242,14.95756 -12.39298,16.90245c5.09963,2.56209 16.4356,-4.30029 21.36522,-11.597c6.71855,-9.94464 9.64529,-30.94084 9.64529,-30.94084l6.57543,3.92858c0,0 -3.77772,20.516 -10.34982,30.59268c-6.14597,9.42334 -22.23866,19.37371 -22.23866,19.37371l-18.29258,-10.70122c0,0 12.36643,-12.49489 17.86401,-21.93341c6.31387,-10.83994 12.40136,-30.0276 12.40136,-30.0276z" data-paper-data="{&quot;origPos&quot;:null,&quot;index&quot;:null}" fill="#4232a1" stroke="#000000" stroke-width="2.5" stroke-linecap="butt"/><path d="M338.26721,58.52772c2.89593,0.82069 2.88504,2.88658 2.88504,2.88658l-2.75378,8.89773l-6.26108,-2.01971l2.75378,-8.89773c0,0 1.32944,-1.66904 3.37606,-0.86688z" data-paper-data="{&quot;origRot&quot;:0,&quot;origPos&quot;:null,&quot;index&quot;:null}" fill="#ffd499" stroke="#806c4d" stroke-width="2" stroke-linecap="butt"/><path d="M314.73057,102.25596c0,0 3.76864,-6.08433 8.77605,-17.02657c5.00741,-10.94224 10.07587,-22.31048 10.07587,-22.31048c0,0 2.15093,0.55421 3.48779,1.00508c1.34284,0.45288 3.37857,1.31067 3.37857,1.31067c0,0 -7.50002,14.80271 -11.99138,23.77355c-4.49138,8.97083 -10.62886,22.3336 -14.02133,23.77025c-1.13083,0.47889 -3.54667,-1.31012 -3.54667,-1.31012z" data-paper-data="{&quot;origPos&quot;:null,&quot;index&quot;:null,&quot;origRot&quot;:0}" id="ID0.5423141438513994" fill="#7e7e7e" stroke="#000000" stroke-width="2.54325" stroke-linecap="round"/><path d="M331.5811,60.53302l-20.92734,50.47273l-20.0539,-8.31489l20.92734,-50.47273z" data-paper-data="{&quot;origPos&quot;:null,&quot;origRot&quot;:0}" fill="#7e7e7e" stroke="#000000" stroke-width="2.54325" stroke-linecap="butt"/><path d="M358.10368,-1.12401l-1.39577,4.74423c0,0 -5.85694,1.95393 -9.3533,1.74996c-3.76561,-0.21966 -9.52998,-1.89943 -9.52998,-1.89943l2.85951,-9.71959z" data-paper-data="{&quot;origPos&quot;:null,&quot;index&quot;:null,&quot;origRot&quot;:0}" fill="#666666" stroke="#000000" stroke-width="2.54325" stroke-linecap="butt"/><path d="M373.35693,7.02824l-0.68361,4.65141c0,0 -5.56189,2.99454 -9.05245,3.28119c-3.75933,0.30871 -9.70189,-0.54904 -9.70189,-0.54904l1.47318,-10.0238z" data-paper-data="{&quot;origPos&quot;:null,&quot;index&quot;:null,&quot;origRot&quot;:0}" fill="#666666" stroke="#000000" stroke-width="2.54325" stroke-linecap="butt"/><path d="M311.07558,95.80971l-5.10943,12.09006" data-paper-data="{&quot;origPos&quot;:null,&quot;origRot&quot;:0}" fill="none" stroke="#3b3b3b" stroke-width="5" stroke-linecap="round"/><path d="M296.36856,103.88373l6.86747,-16.09732" data-paper-data="{&quot;origPos&quot;:null,&quot;origRot&quot;:0}" fill="none" stroke="#3b3b3b" stroke-width="5" stroke-linecap="round"/><path d="M291.31615,144.06698c-5.34313,-1.38898 -9.63006,-4.78544 -12.23961,-9.15067c-2.6095,-4.36568 -1.79379,-10.77015 -0.42736,-16.03379c1.36641,-5.26359 4.53729,-8.52287 8.94022,-11.0657c4.40276,-2.54232 10.14471,-2.83191 13.63259,-1.90827c3.48796,0.92363 8.11999,4.90963 10.72953,9.27485c2.48623,4.15957 2.50293,8.59178 1.72198,12.83775c-1.13345,6.1625 -2.81169,11.47058 -7.21456,14.01336c-4.40275,2.54232 -9.79956,3.42146 -15.14278,2.03246z" data-paper-data="{&quot;origPos&quot;:null,&quot;origRot&quot;:0}" id="ID0.7719937418587506" fill="#ffd499" stroke="#806c4d" stroke-width="2.5" stroke-linecap="butt"/><path d="M296.04583,93.75039l-3.70236,8.52991l-2.77786,-0.89036l3.79225,-9.14621z" data-paper-data="{&quot;origPos&quot;:null,&quot;origRot&quot;:0}" fill="#7e7e7e" stroke="none" stroke-width="0" stroke-linecap="butt"/><path d="M316.14957,102.0899l-3.71157,8.95159l-2.59486,-1.33177l3.3439,-8.46437z" data-paper-data="{&quot;origPos&quot;:null,&quot;index&quot;:null,&quot;origRot&quot;:0}" fill="#7e7e7e" stroke="none" stroke-width="0" stroke-linecap="butt"/><path d="M321.11726,72.95418c0,0 -0.44428,-0.41466 0.9545,-3.20567c1.07555,-2.14609 1.37929,-2.15963 1.37929,-2.15963" data-paper-data="{&quot;origPos&quot;:null,&quot;origRot&quot;:0}" fill="none" stroke="#616161" stroke-width="5" stroke-linecap="round"/><path d="M313.00508,63.03936c0,0 0.20505,0.22448 -0.55354,2.50199c-0.98655,2.96191 -1.59388,2.94055 -1.59388,2.94055" data-paper-data="{&quot;origPos&quot;:null,&quot;index&quot;:null,&quot;origRot&quot;:0}" fill="none" stroke="#616161" stroke-width="5" stroke-linecap="round"/><path d="M289.88678,114.19429c0,0 -0.6828,2.90543 -1.19557,4.74605c-0.28164,1.01102 -0.62697,2.51379 -0.62697,2.51379" data-paper-data="{&quot;origPos&quot;:null,&quot;origRot&quot;:0}" id="ID0.21129454905167222" fill="none" stroke="#000000" stroke-width="2.5" stroke-linecap="round"/><path d="M274.00865,125.899l6.68986,-3.74314l2.05862,7.20516l7.81909,-4.21298l2.85978,6.12811l7.99276,-3.23165l1.07179,5.8572l12.61843,-1.79686l-5.09314,7.54406l3.39104,0.85058l-9.51617,5.60635l0.62102,2.01468l-10.75083,0.64938l0.16068,1.15565l-10.50192,-3.93547l-0.68711,0.943l-6.19703,-5.82991l-1.61519,0.15254l-2.48412,-8.05875l-1.90747,-0.47846z" data-paper-data="{&quot;origPos&quot;:null,&quot;index&quot;:null,&quot;origRot&quot;:0}" fill="#2400ea" stroke="#000000" stroke-width="3" stroke-linecap="round"/><path d="M308.93532,120.55812c0,0 -0.6828,2.90543 -1.19557,4.74605c-0.28164,1.01102 -0.62697,2.51379 -0.62697,2.51379" data-paper-data="{&quot;origPos&quot;:null,&quot;origRot&quot;:0}" id="ID0.21129454905167222" fill="none" stroke="#000000" stroke-width="2.5" stroke-linecap="round"/><path d="M301.01107,120.74648l-4.01692,-1.00757" data-paper-data="{&quot;origPos&quot;:null,&quot;origRot&quot;:0}" fill="none" stroke="#000000" stroke-width="2" stroke-linecap="round"/></g><path d="M-2.37519,363.93393v-91.59159h481.98198v91.59159z" data-paper-data="{&quot;origPos&quot;:null}" fill="#31c700" stroke="#000000" stroke-width="1.5" stroke-linecap="butt"/><path d="M-3.75938,291.84963v-294.29429h79.57958v294.29429z" fill="#dde983" stroke="#000000" stroke-width="1.5" stroke-linecap="butt"/><path d="M-12.76839,186.74452v-131.33133h61.56156v131.33133z" data-paper-data="{&quot;origPos&quot;:null}" fill="#91b8c7" stroke="#000000" stroke-width="3" stroke-linecap="butt"/><path d="M-12.72933,119.75h60.5" data-paper-data="{&quot;origPos&quot;:null}" fill="none" stroke="#000000" stroke-width="3.5" stroke-linecap="round"/><path d="M16.27067,55l-0.5,130" data-paper-data="{&quot;origPos&quot;:null}" fill="none" stroke="#000000" stroke-width="3.5" stroke-linecap="round"/><path d="M302.57122,169.59285l-17.97009,11.36755l-5.91206,11.2647l-3.35986,-11.28064z" data-paper-data="{&quot;origPos&quot;:null,&quot;origRot&quot;:0}" fill="#91b8c7" stroke="#000000" stroke-width="1.5" stroke-linecap="butt"/><path d="M238.94843,204.74538l-0.8741,7.56545l4.87559,5.85052l-11.02025,3.28693l-0.89955,-6.51466z" data-paper-data="{&quot;origPos&quot;:null,&quot;origRot&quot;:0}" fill="#91b8c7" stroke="#000000" stroke-width="1.5" stroke-linecap="butt"/><path d="M264.9776,113.68751l8.37235,-2.85548l9.37898,0.53374l-0.89944,6.90586l-6.48482,-2.12008z" data-paper-data="{&quot;origPos&quot;:null,&quot;origRot&quot;:0}" fill="#91b8c7" stroke="#000000" stroke-width="1.5" stroke-linecap="butt"/><path d="M234.72254,108.3896l-4.08932,-9.98887l5.62587,-5.88214l3.90377,4.58373l-2.48358,3.49848z" data-paper-data="{&quot;origPos&quot;:null,&quot;origRot&quot;:0}" fill="#91b8c7" stroke="#000000" stroke-width="1.5" stroke-linecap="butt"/><path d="M266.97473,65.65906l0.96616,-4.44183l-1.77618,-5.14169l4.13399,-1.7059l4.05884,2.29912l-1.04772,4.57916z" data-paper-data="{&quot;origPos&quot;:null,&quot;origRot&quot;:0}" fill="#91b8c7" stroke="#000000" stroke-width="1.5" stroke-linecap="butt"/></g></g></svg>