<svg version="1.1" xmlns="http://www.w3.org/2000/svg" xmlns:xlink="http://www.w3.org/1999/xlink" width="423.90299" height="294.37786" viewBox="0,0,423.90299,294.37786"><defs><radialGradient cx="247.43709" cy="236.76139" r="102.08147" gradientUnits="userSpaceOnUse" id="color-1"><stop offset="0" stop-color="#00ffff"/><stop offset="1" stop-color="#003fff"/></radialGradient><linearGradient x1="255.53831" y1="283.20104" x2="279.2428" y2="282.71152" gradientUnits="userSpaceOnUse" id="color-2"><stop offset="0" stop-color="#3b3b3b"/><stop offset="1" stop-color="#000000"/></linearGradient><linearGradient x1="207.83736" y1="281.98502" x2="258.37536" y2="289.79886" gradientUnits="userSpaceOnUse" id="color-3"><stop offset="0" stop-color="#000000"/><stop offset="1" stop-color="#3b3b3b"/></linearGradient><radialGradient cx="230.03678" cy="153.64519" r="54.55912" gradientUnits="userSpaceOnUse" id="color-4"><stop offset="0" stop-color="#b6b6b6"/><stop offset="1" stop-color="#666666"/></radialGradient><radialGradient cx="238.8381" cy="159.6969" r="16.49355" gradientUnits="userSpaceOnUse" id="color-5"><stop offset="0" stop-color="#ff0000"/><stop offset="1" stop-color="#ff0000" stop-opacity="0"/></radialGradient><radialGradient cx="239.59737" cy="161.68085" r="10.77795" gradientUnits="userSpaceOnUse" id="color-6"><stop offset="0" stop-color="#ff0000"/><stop offset="1" stop-color="#d20000"/></radialGradient><linearGradient x1="196.19099" y1="85.30351" x2="321.70284" y2="90.02234" gradientUnits="userSpaceOnUse" id="color-7"><stop offset="0" stop-color="#cc7700"/><stop offset="1" stop-color="#946f48"/></linearGradient></defs><g transform="translate(-124.41079,-84.33679)"><g data-paper-data="{&quot;isPaintingLayer&quot;:true}" fill-rule="nonzero" stroke-linejoin="miter" stroke-miterlimit="10" stroke-dasharray="" stroke-dashoffset="0" style="mix-blend-mode: normal"><g data-paper-data="{&quot;origPos&quot;:null,&quot;origRot&quot;:0}" stroke="#000000"><path d="M220.62057,206.15547l53.67019,-0.43483l2.39073,144.10817l-52.79942,0.41681z" data-paper-data="{&quot;origPos&quot;:null,&quot;index&quot;:null,&quot;origRot&quot;:0}" id="ID0.9171315478160977" fill="url(#color-1)" stroke-width="2.54325" stroke-linecap="butt"/><g data-paper-data="{&quot;origPos&quot;:null,&quot;index&quot;:null,&quot;origRot&quot;:0}" stroke-width="0" stroke-linecap="butt"><path d="M249.60854,284.95691l-4.77424,0.17595l6.46768,-21.74866l-5.3403,0.67622l4.91627,-17.96096l17.04475,-0.89317l-5.72635,13.64813l3.65262,-0.27631l-6.54621,20.77813l3.19679,0.22512l-19.38732,32.70425z" data-paper-data="{&quot;index&quot;:null,&quot;origPos&quot;:null}" fill="#ffde00"/><path d="M248.10018,281.74091l-4.77424,0.17595l6.4677,-21.74866l-5.3403,0.67622l4.91628,-17.96096l17.04475,-0.89317l-5.72635,13.64813l3.65262,-0.27631l-6.5462,20.77813l3.19679,0.22512l-17.94037,32.94499z" data-paper-data="{&quot;index&quot;:null,&quot;origPos&quot;:null}" fill="#ff0000"/><path d="M245.2119,281.52997l-4.77426,0.17595l6.4677,-21.74866l-5.3403,0.67622l4.91628,-17.96096l17.04475,-0.89317l-5.72635,13.64813l3.65262,-0.27632l-6.5462,20.77813l3.19678,0.22512l-15.09118,31.26256z" data-paper-data="{&quot;index&quot;:null,&quot;origPos&quot;:null}" fill="#000000"/></g><path d="M254.12699,214.85371c0,0 6.65807,-3.44805 10.91669,-5.79433c4.26494,-2.34975 10.9643,-4.27937 10.9643,-4.27937c0,0 1.12922,22.01372 1.1909,24.74942c0.70582,31.28535 3.6393,130.44239 3.6393,130.44239l-21.35374,1.47281z" data-paper-data="{&quot;origPos&quot;:null,&quot;index&quot;:null,&quot;origRot&quot;:0}" id="ID0.5423141438513994" fill="url(#color-2)" stroke-width="2.54325" stroke-linecap="round"/><path d="M247.13906,362.47255l-26.43479,-1.02521c0,0 -0.72892,-98.7349 -1.31642,-130.02271c-0.05138,-2.73597 0.14818,-25.10379 0.14818,-25.10379c0,0 7.18206,1.86531 11.79763,3.9649c3.91683,1.78174 14.58171,5.05121 14.58171,5.05121z" data-paper-data="{&quot;origPos&quot;:null,&quot;index&quot;:null,&quot;origRot&quot;:0}" id="ID0.5423141438513994" fill="url(#color-3)" stroke-width="2.54325" stroke-linecap="round"/><path d="M266.19397,339.22001c-2.1526,0.2999 -5.54009,-0.14751 -5.54009,-0.14751l-1.04748,-25.02574c0,0 1.50545,0.22825 2.45856,-0.0165c1.1189,-0.28729 2.85087,-1.34685 2.85087,-1.34685l6.58021,24.87857c0,0 -3.22336,1.36841 -5.30208,1.65801z" data-paper-data="{&quot;origPos&quot;:null,&quot;index&quot;:null,&quot;origRot&quot;:0}" fill="#1f1f1f" stroke-width="0" stroke-linecap="butt"/><path d="M264.24941,313.66201c0,0 2.58046,6.72811 3.8005,10.91533c1.42458,4.88915 2.97606,12.34178 2.97606,12.34178" data-paper-data="{&quot;origPos&quot;:null,&quot;origRot&quot;:0,&quot;index&quot;:null}" fill="none" stroke-width="2.54325" stroke-linecap="round"/><path d="M234.30228,338.83355l5.24838,-25.19319c0,0 1.78582,0.96597 2.91843,1.19341c0.96481,0.19373 2.456,-0.1142 2.456,-0.1142l0.28436,25.04601c0,0 -3.35891,0.62685 -5.52441,0.44178c-2.09117,-0.1787 -5.38272,-1.37381 -5.38272,-1.37381z" data-paper-data="{&quot;origPos&quot;:null,&quot;origRot&quot;:0}" fill="#1f1f1f" stroke-width="0" stroke-linecap="butt"/><path d="M233.77557,337.88668c0,0 1.5284,-7.77051 2.69104,-12.72847c0.99572,-4.24618 2.83955,-10.85599 2.83955,-10.85599" data-paper-data="{&quot;origPos&quot;:null,&quot;origRot&quot;:0}" fill="none" stroke-width="2.54325" stroke-linecap="round"/></g><path d="M178.24474,348.53381l-51.05406,-41.96306l358.97388,-1.23422l59.03126,41.96308z" data-paper-data="{&quot;origPos&quot;:null}" fill="#90704e" stroke="#000000" stroke-width="2" stroke-linecap="butt"/><path d="M154.58146,326.84421l21.14864,-1.84989l3.02389,3.37388l-20.69411,2.58978z" data-paper-data="{&quot;origPos&quot;:null,&quot;origRot&quot;:0}" fill="#ff2e2e" stroke="#000000" stroke-width="2" stroke-linecap="butt"/><path d="M194.63941,332.10663l-20.76251,-1.96756l2.92128,-3.4631l21.19464,1.21435z" data-paper-data="{&quot;origPos&quot;:null,&quot;origRot&quot;:0,&quot;index&quot;:null}" fill="#ffffff" stroke="#000000" stroke-width="2" stroke-linecap="butt"/><path d="M213.98862,333.74977l-17.42198,-3.21845l2.03935,-6.4957l17.85783,2.73284z" data-paper-data="{&quot;origPos&quot;:null,&quot;origRot&quot;:0,&quot;index&quot;:null}" fill="#ffffff" stroke="#000000" stroke-width="2" stroke-linecap="butt"/><path d="M204.45015,331.21621l-19.9668,-6.49795l-1.8966,-3.80612l19.743,5.74179z" data-paper-data="{&quot;origPos&quot;:null,&quot;origRot&quot;:0}" fill="#ff2e2e" stroke="#000000" stroke-width="2" stroke-linecap="butt"/><path d="M169.82365,321.77424l20.81422,-1.35647l-2.21383,4.95933l-21.09568,2.39726z" data-paper-data="{&quot;origPos&quot;:null,&quot;origRot&quot;:0,&quot;index&quot;:null}" fill="#ffffff" stroke="#000000" stroke-width="2" stroke-linecap="butt"/><path d="M184.09578,321.18632l20.90811,1.93585l2.68908,3.2943l-20.52311,-1.24764z" data-paper-data="{&quot;origPos&quot;:null,&quot;origRot&quot;:0}" fill="#ff2e2e" stroke="#000000" stroke-width="2" stroke-linecap="butt"/><path d="M220.66863,331.44932l-21.25813,-2.08526l-2.12059,-4.28725l20.99815,1.18565z" data-paper-data="{&quot;origPos&quot;:null,&quot;origRot&quot;:0}" fill="#ff2e2e" stroke="#000000" stroke-width="2" stroke-linecap="butt"/><g data-paper-data="{&quot;origRot&quot;:0,&quot;origPos&quot;:null}" stroke="#000000"><path d="M147.79142,319.35126l-0.06289,-8.75343l34.94199,-0.25115l0.06289,8.75343z" data-paper-data="{&quot;origPos&quot;:null}" fill="#ffffff" stroke-width="1" stroke-linecap="butt"/><path d="M142.39179,316.82731l-0.10125,-9.09647l5.83576,3.30122l-0.26386,8.21102z" data-paper-data="{&quot;origPos&quot;:null}" fill="#ffffff" stroke-width="1" stroke-linecap="butt"/><path d="M148.33817,310.56334l-5.36703,-2.98092l34.15521,0.09408l4.79002,2.56788z" data-paper-data="{&quot;origPos&quot;:null}" fill="#ffffff" stroke-width="1" stroke-linecap="butt"/><path d="M149.66147,317.47225l-0.0382,-5.30946l31.1393,-0.22385l0.0382,5.30946z" data-paper-data="{&quot;origPos&quot;:null}" fill="#ff2e2e" stroke-width="0" stroke-linecap="butt"/><path d="M148.59892,309.40753l-0.72212,-0.64059l28.12685,-0.05866l1.29512,0.49295z" data-paper-data="{&quot;origPos&quot;:null}" fill="#ff2e2e" stroke-width="0" stroke-linecap="butt"/><path d="M142.83706,313.02107l4.60639,1.97598" data-paper-data="{&quot;origPos&quot;:null}" fill="none" stroke-width="0.5" stroke-linecap="round"/></g><path d="M176.6493,377.71465v-31.06592h368.54652v31.06592z" data-paper-data="{&quot;origPos&quot;:null}" fill="#90704e" stroke="#000000" stroke-width="2" stroke-linecap="butt"/><path d="M272.27799,318.66221c0,0 -8.76301,-3.59496 -11.70262,-8.10976c-2.93962,-4.5148 -2.42612,-13.58986 -2.42612,-13.58986l22.14777,-11.67255l9.31919,18.49135z" data-paper-data="{&quot;origRot&quot;:0,&quot;origPos&quot;:null,&quot;index&quot;:null}" fill="#ffd499" stroke="#806c4d" stroke-width="2" stroke-linecap="butt"/><path d="M278.38324,203.54287c0,0 7.7781,-2.07505 10.12227,0.2314c13.69148,12.60054 39.24264,57.39843 35.78646,65.42413c-4.89797,11.3737 -45.82144,46.01806 -45.82144,46.01806c0,0 -5.72537,-4.1939 -8.37733,-8.78257c-2.65196,-4.58867 -4.16814,-12.92481 -4.16814,-12.92481c0,0 34.3543,-24.05053 35.53335,-32.096c-0.47584,-12.46793 -22.58531,-31.1463 -22.58531,-31.1463z" data-paper-data="{&quot;origPos&quot;:null,&quot;index&quot;:null,&quot;origRot&quot;:0}" id="ID0.5423141438513994" fill="#000000" stroke="#000000" stroke-width="2.54325" stroke-linecap="round"/><path d="M327.69413,329.66348l-3.0073,-23.79396l5.06349,5.02099l5.78113,24.6188z" data-paper-data="{&quot;origPos&quot;:null,&quot;origRot&quot;:0,&quot;index&quot;:null}" fill="#ff2e2e" stroke="#000000" stroke-width="2" stroke-linecap="butt"/><path d="M310.37459,329.31291l14.62456,-24.14395l5.56863,5.61322l-13.30958,25.11706z" data-paper-data="{&quot;origPos&quot;:null,&quot;origRot&quot;:0,&quot;index&quot;:null}" fill="#ffffff" stroke="#000000" stroke-width="2" stroke-linecap="butt"/><path d="M307.38884,329.47738l-3.0073,-23.79396l5.06349,5.02099l5.78113,24.6188z" data-paper-data="{&quot;origPos&quot;:null,&quot;origRot&quot;:0,&quot;index&quot;:null}" fill="#ff2e2e" stroke="#000000" stroke-width="2" stroke-linecap="butt"/><path d="M290.0693,329.1268l14.62457,-24.14395l5.56863,5.61322l-13.30958,25.11706z" data-paper-data="{&quot;origPos&quot;:null,&quot;origRot&quot;:0,&quot;index&quot;:null}" fill="#ffffff" stroke="#000000" stroke-width="2" stroke-linecap="butt"/><path d="M288.15125,329.32916l-3.0073,-23.79396l5.06349,5.02099l5.78113,24.6188z" data-paper-data="{&quot;origPos&quot;:null,&quot;origRot&quot;:0,&quot;index&quot;:null}" fill="#ff2e2e" stroke="#000000" stroke-width="2" stroke-linecap="butt"/><path d="M270.83172,328.97859l14.62457,-24.14395l5.56863,5.61322l-13.30958,25.11706z" data-paper-data="{&quot;origPos&quot;:null,&quot;origRot&quot;:0,&quot;index&quot;:null}" fill="#ffffff" stroke="#000000" stroke-width="2" stroke-linecap="butt"/><path d="M267.84596,329.14306l-3.0073,-23.79396l5.06349,5.02099l5.78113,24.6188z" data-paper-data="{&quot;origPos&quot;:null,&quot;origRot&quot;:0,&quot;index&quot;:null}" fill="#ff2e2e" stroke="#000000" stroke-width="2" stroke-linecap="butt"/><path d="M250.52643,328.79249l14.62457,-24.14395l5.56863,5.61322l-13.30958,25.11706z" data-paper-data="{&quot;origPos&quot;:null,&quot;origRot&quot;:0,&quot;index&quot;:null}" fill="#ffffff" stroke="#000000" stroke-width="2" stroke-linecap="butt"/><g data-paper-data="{&quot;origPos&quot;:null,&quot;origRot&quot;:0}"><path d="M254.00913,105.92858c14.77384,0.55293 27.93829,6.96433 37.27209,16.87583c9.33383,9.91269 9.54976,24.81923 7.71037,41.49753c-1.26734,11.49141 -4.72394,22.84603 -14.30423,31.59942c-10.05499,9.18585 -25.00504,15.84129 -34.6622,15.52372c-9.65698,-0.31752 -24.16062,-5.48276 -33.49448,-15.39423c-9.33395,-9.91287 -14.95617,-20.71438 -14.40664,-35.26662c0.54956,-14.55234 3.39028,-31.60649 13.44549,-40.79354c10.05504,-9.18588 23.66582,-14.59512 38.43953,-14.04217z" data-paper-data="{&quot;origPos&quot;:null,&quot;origRot&quot;:0}" id="ID0.7719937418587506" fill="#ffd499" stroke="#806c4d" stroke-width="2.5" stroke-linecap="butt"/><path d="M257.21598,108.92284c5.54718,0.41059 3.13705,10.82543 3.23614,16.38663c0.22323,12.59574 3.25912,27.16003 -2.31717,38.86317c-4.75183,9.08209 -14.7826,15.35474 -24.64267,17.90657c-10.67378,2.33812 -21.72527,2.67547 -25.86873,-3.25655c-6.79935,-17.74304 -1.45882,-42.89205 10.5607,-58.02714c10.5105,-12.33943 22.90039,-13.05954 39.03169,-11.87266z" data-paper-data="{&quot;origPos&quot;:null,&quot;origRot&quot;:0}" id="ID0.479907026514411" fill="url(#color-4)" stroke="#666666" stroke-width="2.5" stroke-linecap="round"/><path d="M277.52694,154.94553c-0.10262,5.11571 -0.93024,16.18099 -0.93024,16.18099" data-paper-data="{&quot;origPos&quot;:null,&quot;origRot&quot;:0}" id="ID0.21129454905167222" fill="none" stroke="#000000" stroke-width="2.5" stroke-linecap="round"/><path d="M246.01077,192.68753l14.95888,0.68819" data-paper-data="{&quot;origPos&quot;:null,&quot;index&quot;:null,&quot;origRot&quot;:0}" fill="none" stroke="#000000" stroke-width="2" stroke-linecap="round"/><path d="M222.36199,158.93887c0.41866,-9.09947 8.13462,-16.13675 17.2341,-15.71813c9.09949,0.41866 16.13675,8.13462 15.71813,17.2341c-0.41866,9.09947 -8.13462,16.13675 -17.2341,15.71813c-9.09949,-0.41866 -16.13675,-8.13462 -15.71813,-17.2341z" data-paper-data="{&quot;origPos&quot;:null,&quot;origRot&quot;:0}" fill="url(#color-5)" stroke="none" stroke-width="0" stroke-linecap="butt"/><path d="M227.90086,159.35721c0.27355,-5.94619 5.31567,-10.54481 11.26187,-10.27123c5.94619,0.27355 10.54481,5.31567 10.27123,11.26187c-0.27355,5.94619 -5.31567,10.54481 -11.26187,10.27123c-5.94619,-0.27355 -10.54481,-5.31567 -10.27123,-11.26187z" data-paper-data="{&quot;origPos&quot;:null,&quot;origRot&quot;:0}" fill="url(#color-6)" stroke="#666666" stroke-width="2" stroke-linecap="butt"/><path d="M206.34072,180.42261c0,0 4.47754,-22.12813 9.23561,-36.4832c3.1465,-9.49303 10.99891,-24.18966 10.99891,-24.18966l32.29895,8.50529l0.27056,4.75113c0,0 -8.98622,-1.30824 -13.94038,-2.04638c-4.57812,-0.68209 -9.06052,-3.98685 -13.05249,-1.644c-7.31015,4.29026 -7.66876,12.88741 -10.39206,20.91409c-3.67944,10.8447 -6.85938,31.17585 -6.85938,31.17585z" data-paper-data="{&quot;origRot&quot;:0,&quot;origPos&quot;:null}" fill="#7a7a7a" stroke="none" stroke-width="0" stroke-linecap="butt"/><path d="M262.05965,133.12848l-0.05086,-4.57965l32.81642,1.64632c0,0 -6.93283,2.91356 -13.87103,3.02372c-6.98994,0.11091 -18.63282,-0.07257 -18.63282,-0.07257z" data-paper-data="{&quot;origPos&quot;:null,&quot;origRot&quot;:0}" fill="#b0936a" stroke="none" stroke-width="0" stroke-linecap="butt"/><path d="M208.46798,182.85907l5.35037,1.34263l-0.90865,5.92691z" data-paper-data="{&quot;origPos&quot;:null,&quot;origRot&quot;:0}" fill="#b0936a" stroke="none" stroke-width="0" stroke-linecap="butt"/><path d="M262.52371,87.79736c13.87289,0.74663 21.6149,2.28231 35.43592,3.6947c8.00268,0.81781 23.78684,1.7033 23.78684,1.7033c0,0 -10.29743,5.17179 -12.1978,5.58363c-3.52471,0.76387 -9.83368,2.65165 -9.83368,2.65165c0,0 4.8413,1.47858 8.23547,2.95799c3.64907,1.59053 9.2966,3.18254 9.2966,3.18254c0,0 -5.85522,2.17734 -9.52774,2.93486c-4.58781,0.94629 -10.84026,3.37345 -10.84026,3.37345c0,0 6.98143,4.04397 12.35448,5.49445c5.40335,1.45861 12.44184,4.33787 12.44184,4.33787c0,0 -10.32918,5.04745 -16.9034,5.72127c-16.58258,1.70161 -33.34353,-1.83725 -49.99879,-2.44478c-10.15356,-0.37169 -24.75217,-8.06749 -30.28328,0.74455c-14.50929,21.75307 -16.46549,78.4916 -20.32408,76.44344c-3.85877,-2.04832 -12.46745,-62.09955 -6.57848,-92.44602c2.27764,-11.72768 13.44754,-18.06822 27.28875,-23.05654c13.8412,-4.98823 25.30303,-1.30419 37.64768,-0.87641z" data-paper-data="{&quot;origPos&quot;:null,&quot;origRot&quot;:0}" id="ID0.5302143599838018" fill="url(#color-7)" stroke="#a96300" stroke-width="3.5" stroke-linecap="round"/></g><path d="M248.51263,328.47639l-3.0073,-23.79395l5.06349,5.02099l5.78113,24.6188z" data-paper-data="{&quot;origPos&quot;:null,&quot;origRot&quot;:0,&quot;index&quot;:null}" fill="#ff2e2e" stroke="#000000" stroke-width="2" stroke-linecap="butt"/><path d="M231.19309,328.12582l14.62456,-24.14395l5.56863,5.61323l-13.30958,25.11706z" data-paper-data="{&quot;origPos&quot;:null,&quot;origRot&quot;:0,&quot;index&quot;:null}" fill="#ffffff" stroke="#000000" stroke-width="2" stroke-linecap="butt"/><path d="M287.27185,309.21465l-5.67568,-5.33333h20.43243l7.56757,5.66667z" data-paper-data="{&quot;origPos&quot;:null}" fill="#ffffff" stroke="#000000" stroke-width="2" stroke-linecap="butt"/><path d="M308.93852,309.54799l-5.67568,-5.33333h20.43243l7.56757,5.66667z" data-paper-data="{&quot;origPos&quot;:null}" fill="#ffffff" stroke="#000000" stroke-width="2" stroke-linecap="butt"/><path d="M195.63237,332.19097l-7.56664,-1.84492l17.78066,-10.06642l9.37722,1.20292z" data-paper-data="{&quot;origPos&quot;:null,&quot;origRot&quot;:0}" fill="#ffffff" stroke="#000000" stroke-width="2" stroke-linecap="butt"/><path d="M180.75923,305.04911l17.50434,-7.86268l9.11924,21.33298c0,0 -4.93032,6.82963 -9.6821,8.36145c-4.75175,1.53182 -13.15646,-0.99909 -13.15646,-0.99909z" data-paper-data="{&quot;origRot&quot;:0,&quot;origPos&quot;:null,&quot;index&quot;:null}" fill="#ffd499" stroke="#806c4d" stroke-width="2" stroke-linecap="butt"/><path d="M221.75095,232.97912c0,0 -30.16501,15.16977 -31.98242,24.73047c-0.13838,8.13023 13.78054,53.98639 13.78054,53.98639l-20.31512,5.76179c0,0 -20.15875,-50.16943 -16.91219,-64.08713c3.2651,-13.99716 34.66059,-37.87459 50.2106,-48.09357c2.68651,-1.89673 10.02632,1.4096 10.02632,1.4096z" data-paper-data="{&quot;origPos&quot;:null,&quot;index&quot;:null,&quot;origRot&quot;:0}" id="ID0.5423141438513994" fill="#000000" stroke="#000000" stroke-width="2.54325" stroke-linecap="round"/></g></g></svg>