<svg version="1.1" xmlns="http://www.w3.org/2000/svg" xmlns:xlink="http://www.w3.org/1999/xlink" width="1064.50412" height="649.99772" viewBox="0,0,1064.50412,649.99772"><defs><radialGradient cx="227.28724" cy="260.36524" r="257.5027" gradientUnits="userSpaceOnUse" id="color-1"><stop offset="0" stop-color="#00ffff"/><stop offset="1" stop-color="#003fff"/></radialGradient><linearGradient x1="245.229" y1="377.91801" x2="305.03679" y2="377.95404" gradientUnits="userSpaceOnUse" id="color-2"><stop offset="0" stop-color="#3b3b3b"/><stop offset="1" stop-color="#000000"/></linearGradient><linearGradient x1="124.99468" y1="372.29453" x2="252.03027" y2="394.70946" gradientUnits="userSpaceOnUse" id="color-3"><stop offset="0" stop-color="#000000"/><stop offset="1" stop-color="#3b3b3b"/></linearGradient></defs><g transform="translate(91.15251,71.26166)"><g data-paper-data="{&quot;isPaintingLayer&quot;:true}" fill-rule="nonzero" stroke-linejoin="miter" stroke-miterlimit="10" stroke-dasharray="" stroke-dashoffset="0" style="mix-blend-mode: normal"><path d="M-71.15968,430.26165v-500.52331h667.36441v500.52331z" data-paper-data="{&quot;origPos&quot;:null}" fill="#70674b" stroke="#000000" stroke-width="2" stroke-linecap="butt"/><path d="M281.9375,212.21686c0,0 7.893,41.54232 16.91706,66.67272c9.02406,25.1304 6.98933,45.75271 20.58748,72.89439c0.02278,0.04547 -50.80651,-0.64993 -50.80651,-0.64993c0,0 -9.84717,-101.58728 -36.53566,-103.72735c-10.46614,-1.11669 -10.37104,27.62086 -10.02397,46.93956c0.34707,19.3187 6.84953,57.1783 6.84953,57.1783l-52.64934,0.89136c0,0 -3.83827,-36.96485 -6.94091,-60.45959c-3.10266,-23.49474 -6.95089,-82.9391 -6.95089,-82.9391z" data-paper-data="{&quot;origPos&quot;:null,&quot;index&quot;:null}" fill="#333333" stroke="#000000" stroke-width="2.5" stroke-linecap="butt"/><g data-paper-data="{&quot;origPos&quot;:null}" stroke="#000000"><path d="M161.29772,181.74121l135.37695,1.78007l-1.69481,363.56201l-133.17996,-1.77883z" data-paper-data="{&quot;origPos&quot;:null,&quot;index&quot;:null,&quot;origRot&quot;:0}" id="ID0.9171315478160977" fill="url(#color-1)" stroke-width="2.54325" stroke-linecap="butt"/><g data-paper-data="{&quot;origPos&quot;:null,&quot;index&quot;:null,&quot;origRot&quot;:0}" stroke-width="0" stroke-linecap="butt"><path d="M230.18031,382.02841l-12.04983,0.18786l17.47691,-54.5024l-13.50424,1.41915l13.36129,-45.03316l43.03392,-1.33895l-15.17312,34.11301l9.22653,-0.50105l-17.62294,52.05057l8.05008,0.7391l-50.64684,81.43938z" data-paper-data="{&quot;index&quot;:null,&quot;origPos&quot;:null}" fill="#ffde00"/><path d="M226.54865,373.83695l-12.04983,0.18786l17.47696,-54.5024l-13.50424,1.41915l13.36132,-45.03316l43.03392,-1.33895l-15.17312,34.11301l9.22653,-0.50105l-17.62291,52.05057l8.05008,0.7391l-47.01059,82.12409z" data-paper-data="{&quot;index&quot;:null,&quot;origPos&quot;:null}" fill="#ff0000"/><path d="M219.27586,373.15017l-12.04988,0.18786l17.47696,-54.5024l-13.50424,1.41915l13.36132,-45.03316l43.03392,-1.33895l-15.17312,34.11301l9.22653,-0.50108l-17.62291,52.05057l8.05005,0.7391l-39.73488,78.03379z" data-paper-data="{&quot;index&quot;:null,&quot;origPos&quot;:null}" fill="#000000"/></g><path d="M245.33308,205.47368c0,0 16.97613,-8.33895 27.84195,-14.02789c10.8819,-5.69737 27.88083,-10.20469 27.88083,-10.20469c0,0 1.66792,55.57809 1.67684,62.48069c0.10317,78.938 2.1865,329.16451 2.1865,329.16451l-53.93207,2.56983z" data-paper-data="{&quot;origPos&quot;:null,&quot;index&quot;:null,&quot;origRot&quot;:0}" id="ID0.5423141438513994" fill="url(#color-2)" stroke-width="2.54325" stroke-linecap="round"/><path d="M219.79757,577.38678l-66.61233,-4.0024c0,0 3.45384,-249.04375 3.64921,-327.98157c0.01708,-6.90273 1.71925,-63.30261 1.71925,-63.30261c0,0 18.01282,5.08919 29.54054,10.63165c9.78257,4.70339 36.50361,13.52049 36.50361,13.52049z" data-paper-data="{&quot;origPos&quot;:null,&quot;index&quot;:null,&quot;origRot&quot;:0}" id="ID0.5423141438513994" fill="url(#color-3)" stroke-width="2.54325" stroke-linecap="round"/><path d="M269.09945,519.76632c-5.44483,0.64095 -13.96393,-0.66895 -13.96393,-0.66895l-1.30034,-63.16986c0,0 3.78444,0.65634 6.20127,0.09016c2.83721,-0.66456 7.26196,-3.24388 7.26196,-3.24388l15.26149,63.09525c0,0 -8.20251,3.27829 -13.46045,3.89722z" data-paper-data="{&quot;origPos&quot;:null,&quot;index&quot;:null,&quot;origRot&quot;:0}" fill="#1f1f1f" stroke-width="0" stroke-linecap="butt"/><path d="M265.56526,455.20603c0,0 6.14716,17.10628 8.99962,27.73164c3.33069,12.40657 6.84395,31.2849 6.84395,31.2849" data-paper-data="{&quot;origPos&quot;:null,&quot;origRot&quot;:0,&quot;index&quot;:null}" fill="none" stroke-width="2.54325" stroke-linecap="round"/><path d="M188.69087,517.0823l14.58651,-63.2547c0,0 4.45197,2.53182 7.29619,3.16614c2.42283,0.54027 6.20003,-0.15637 6.20003,-0.15637l-0.62531,63.18009c0,0 -8.50461,1.40086 -13.95598,0.81805c-5.26425,-0.56275 -13.50132,-3.75321 -13.50132,-3.75321z" data-paper-data="{&quot;origPos&quot;:null,&quot;origRot&quot;:0}" fill="#1f1f1f" stroke-width="0" stroke-linecap="butt"/><path d="M187.41329,514.6661c0,0 4.27103,-19.51493 7.46891,-31.95636c2.73875,-10.65528 7.7431,-27.22607 7.7431,-27.22607" data-paper-data="{&quot;origPos&quot;:null,&quot;origRot&quot;:0}" fill="none" stroke-width="2.54325" stroke-linecap="round"/></g><path d="M42.6851,415.92951v-78.36445h929.66651v78.36445z" data-paper-data="{&quot;origPos&quot;:null}" fill="#90704e" stroke="#000000" stroke-width="2" stroke-linecap="butt"/><path d="M-90.12443,306.39684l4.02453,-68.4579l128.78497,106.10971v71.88082z" data-paper-data="{&quot;origPos&quot;:null}" fill="#90704e" stroke="#000000" stroke-width="2" stroke-linecap="butt"/><path d="M42.20511,343.16105l-128.78497,-105.85273l905.51933,-3.11335l148.90762,105.85277z" data-paper-data="{&quot;origPos&quot;:null}" fill="#90704e" stroke="#000000" stroke-width="2" stroke-linecap="butt"/><g data-paper-data="{&quot;origRot&quot;:0,&quot;origPos&quot;:null,&quot;index&quot;:null}" stroke="#000000"><path d="M-22.88261,277.82791l0.0788,-17.14149l68.42549,0.31432l-0.0788,17.14149z" data-paper-data="{&quot;origPos&quot;:null}" fill="#ffffff" stroke-width="1" stroke-linecap="butt"/><path d="M-33.3973,272.76122l0.0116,-17.81408l11.35081,6.59872l-0.70609,16.07186z" data-paper-data="{&quot;origPos&quot;:null}" fill="#ffffff" stroke-width="1" stroke-linecap="butt"/><path d="M-21.60921,260.63296l-10.44039,-5.96074l66.87692,0.97216l9.32008,5.13865z" data-paper-data="{&quot;origPos&quot;:null}" fill="#ffffff" stroke-width="1" stroke-linecap="butt"/><path d="M-19.17747,274.1918l0.0477,-10.39731l60.97883,0.28004l-0.0477,10.39731z" data-paper-data="{&quot;origPos&quot;:null}" fill="#ff2e2e" stroke-width="0" stroke-linecap="butt"/><path d="M-21.07196,258.37579l-1.39919,-1.271l55.07636,0.53401l2.52459,0.99513z" data-paper-data="{&quot;origPos&quot;:null}" fill="#ff2e2e" stroke-width="0" stroke-linecap="butt"/><path d="M-32.43763,265.31852l8.97417,3.97542" data-paper-data="{&quot;origPos&quot;:null}" fill="none" stroke-width="0.5" stroke-linecap="round"/></g><path d="M-84.75961,243.92436l-3.003,-75.32732l224.3145,10.51051c0,0 23.31001,-3.6771 25.61368,3.003c2.30366,6.68011 -3.003,40.79279 -3.003,40.79279z" data-paper-data="{&quot;origPos&quot;:null}" fill="#080808" stroke="#080808" stroke-width="2.54325" stroke-linecap="butt"/><path d="M303.70291,221.89734c0,0 -5.30667,-34.11268 -3.003,-40.79279c2.30366,-6.6801 25.61368,-3.00301 25.61368,-3.00301h231.822v55.8078z" data-paper-data="{&quot;origPos&quot;:null,&quot;index&quot;:null}" fill="#080808" stroke="#080808" stroke-width="2.54325" stroke-linecap="butt"/></g></g></svg>