<svg xmlns="http://www.w3.org/2000/svg" xmlns:xlink="http://www.w3.org/1999/xlink" width="130.918" height="305.193" version="1.1" viewBox="0 0 130.918 305.193"><defs><radialGradient id="color-1" cx="234.591" cy="146.592" r="97.283" gradientUnits="userSpaceOnUse"><stop offset="0" stop-color="#0ff"/><stop offset="1" stop-color="#003fff"/></radialGradient><linearGradient id="color-2" x1="241.466" x2="264.061" y1="190.988" y2="190.953" gradientUnits="userSpaceOnUse"><stop offset="0" stop-color="#3b3b3b"/><stop offset="1" stop-color="#000"/></linearGradient><linearGradient id="color-3" x1="196.037" x2="244.049" y1="188.962" y2="197.326" gradientUnits="userSpaceOnUse"><stop offset="0" stop-color="#000"/><stop offset="1" stop-color="#3b3b3b"/></linearGradient><radialGradient id="color-4" cx="221.081" cy="67.067" r="51.995" gradientUnits="userSpaceOnUse"><stop offset="0" stop-color="#b6b6b6"/><stop offset="1" stop-color="#666"/></radialGradient><radialGradient id="color-5" cx="229.048" cy="75.734" r="15.718" gradientUnits="userSpaceOnUse"><stop offset="0" stop-color="red"/><stop offset="1" stop-color="red" stop-opacity="0"/></radialGradient><radialGradient id="color-6" cx="229.678" cy="77.658" r="10.271" gradientUnits="userSpaceOnUse"><stop offset="0" stop-color="red"/><stop offset="1" stop-color="#d20000"/></radialGradient><linearGradient id="color-7" x1="192.047" x2="311.297" y1=".44" y2="10.775" gradientUnits="userSpaceOnUse"><stop offset="0" stop-color="#c70"/><stop offset="1" stop-color="#946f48"/></linearGradient></defs><g><g fill-rule="nonzero" stroke-dashoffset="0" stroke-linejoin="miter" stroke-miterlimit="10" data-paper-data="{&quot;isPaintingLayer&quot;:true}" transform="translate(-186.97858,-1.42857)" style="mix-blend-mode:normal"><path fill="#333" stroke="#000" stroke-linecap="butt" stroke-width="2.5" d="M253.49583,252.1683c0,0 12.01633,16.33213 19.70641,27.10625c6.50463,9.11326 8.27077,16.04239 13.66147,25.85576c0.00903,0.01644 -20.64116,-0.23499 -20.64116,-0.23499c0,0 -8.4037,-33.72999 -24.98379,-34.50375c-4.14908,-0.40375 -2.66758,11.16246 -0.97379,14.97151c3.42702,7.70677 9.21535,19.67344 9.21535,19.67344l-21.37171,0.32228c0,0 -4.60033,-11.19467 -9.25158,-18.35983c-4.62027,-7.11743 -10.75553,-31.48753 -10.75553,-31.48753z" data-paper-data="{&quot;origPos&quot;:null,&quot;index&quot;:null}"/><path id="ID0.9171315478160977" fill="url(#color-1)" stroke="#000" stroke-linecap="butt" stroke-width="2.543" d="M209.59633,116.94239l51.14606,0.56168l-0.34267,137.35295l-50.31605,-0.563z" data-paper-data="{&quot;origPos&quot;:null,&quot;index&quot;:null,&quot;origRot&quot;:0}"/><g stroke="#000" stroke-linecap="butt" stroke-width="0" data-paper-data="{&quot;origPos&quot;:null,&quot;index&quot;:null,&quot;origRot&quot;:0}"><path fill="#ffde00" d="M235.78371,192.55331l-4.5522,0.08082l6.55806,-20.605l-5.10066,0.54719l5.01096,-17.0242l16.25686,-0.54107l-5.70439,12.90013l3.48532,-0.19684l-6.61524,19.67881l3.04188,0.27263l-19.0674,30.80877z" data-paper-data="{&quot;index&quot;:null,&quot;origPos&quot;:null}"/><path fill="red" d="M234.40499,189.46161l-4.5522,0.08082l6.55808,-20.605l-5.10066,0.54719l5.01097,-17.0242l16.25686,-0.54107l-5.70439,12.90013l3.48532,-0.19684l-6.61523,19.67881l3.04188,0.27263l-17.6931,31.06448z" data-paper-data="{&quot;index&quot;:null,&quot;origPos&quot;:null}"/><path fill="#000" d="M231.65682,189.2081l-4.55222,0.08082l6.55808,-20.605l-5.10066,0.54719l5.01097,-17.0242l16.25686,-0.54107l-5.70439,12.90013l3.48532,-0.19685l-6.61523,19.67881l3.04187,0.27263l-14.94772,29.51323z" data-paper-data="{&quot;index&quot;:null,&quot;origPos&quot;:null}"/></g><path id="ID0.5423141438513994" fill="url(#color-2)" stroke="#000" stroke-linecap="round" stroke-width="2.543" d="M241.36381,125.83957c0,0 6.40666,-3.1643 10.50705,-5.32245c4.10645,-2.16133 10.52486,-3.8781 10.52486,-3.8781c0,0 0.67562,20.9957 0.68464,23.60347c0.10359,29.82222 1.09552,124.35461 1.09552,124.35461l-20.37311,1.01501z" data-paper-data="{&quot;origPos&quot;:null,&quot;index&quot;:null,&quot;origRot&quot;:0}"/><path id="ID0.5423141438513994" fill="url(#color-3)" stroke="#000" stroke-linecap="round" stroke-width="2.543" d="M232.0211,266.36705l-25.16901,-1.45756c0,0 1.10097,-94.09008 1.11016,-123.91248c0.00081,-2.60781 0.5977,-23.91675 0.5977,-23.91675c0,0 6.8093,1.90792 11.16894,3.99239c3.69965,1.7689 13.80192,5.07808 13.80192,5.07808z" data-paper-data="{&quot;origPos&quot;:null,&quot;index&quot;:null,&quot;origRot&quot;:0}"/><path id="ID0.7719937418587506" fill="#ffd499" stroke="#806c4d" stroke-linecap="butt" stroke-width="2.5" d="M246.12121,22.76411c14.03686,1.21413 26.26903,7.92975 34.69206,17.79864c8.42299,9.87003 7.93451,24.06897 5.40721,39.85872c-1.74132,10.87918 -5.56014,21.52626 -15.08674,29.4122c-9.99859,8.2755 -24.53876,13.91451 -33.71622,13.16264c-9.17728,-0.75182 -22.74221,-6.34364 -31.16528,-16.2125c-8.42309,-9.8702 -13.27175,-20.41346 -12.07117,-34.23954c1.20062,-13.82617 4.69854,-29.92704 14.6974,-38.20367c9.99862,-8.27553 23.206,-12.79069 37.24272,-11.57655z" data-paper-data="{&quot;origPos&quot;:null,&quot;origRot&quot;:0}"/><path id="ID0.479907026514411" fill="url(#color-4)" stroke="#666" stroke-linecap="round" stroke-width="2.5" d="M249.03427,25.76351c5.261,0.64908 2.48203,10.45032 2.31744,15.74838c-0.37393,11.99975 1.83775,26.00421 -4.01496,36.88434c-4.94591,8.42363 -14.78579,13.9273 -24.28998,15.89723c-10.26878,1.72861 -20.80392,1.53522 -24.47174,-4.30412c-5.64597,-17.20542 0.60831,-40.89506 12.75382,-54.74194c10.57899,-11.25605 22.40591,-11.36466 37.70537,-9.48391z" data-paper-data="{&quot;origPos&quot;:null,&quot;origRot&quot;:0}"/><path id="ID0.21129454905167222" fill="none" stroke="#000" stroke-linecap="round" stroke-width="2.5" d="M266.09555,73.01286c-0.33583,4.86465 -1.63879,15.35869 -1.63879,15.35869" data-paper-data="{&quot;origPos&quot;:null,&quot;origRot&quot;:0}"/><path fill="none" stroke="#000" stroke-linecap="round" stroke-width="2" d="M234.46874,104.97393l14.20669,1.35149" data-paper-data="{&quot;origPos&quot;:null,&quot;index&quot;:null,&quot;origRot&quot;:0}"/><path fill="url(#color-5)" stroke="none" stroke-linecap="butt" stroke-width="0" d="M213.40044,74.24568c0.82214,-8.64193 8.49427,-14.98118 17.13619,-14.15906c8.64195,0.82214 14.98118,8.49427 14.15906,17.13619c-0.82214,8.64193 -8.49427,14.98118 -17.13619,14.15906c-8.64195,-0.82214 -14.98118,-8.49427 -14.15906,-17.13619z" data-paper-data="{&quot;origPos&quot;:null,&quot;origRot&quot;:0}"/><path fill="url(#color-6)" stroke="#666" stroke-linecap="butt" stroke-width="2" d="M218.65318,74.90172c0.53722,-5.64722 5.55071,-9.78968 11.1979,-9.25245c5.64722,0.53722 9.78968,5.55071 9.25245,11.1979c-0.53722,5.64722 -5.55071,9.78968 -11.1979,9.25245c-5.64722,-0.53722 -9.78968,-5.55071 -9.25245,-11.1979z" data-paper-data="{&quot;origPos&quot;:null,&quot;origRot&quot;:0}"/><path fill="#7a7a7a" stroke="none" stroke-linecap="butt" stroke-width="0" d="M197.27947,91.4526c0,0 5.29218,-20.85439 10.48952,-34.29684c3.43698,-8.88953 11.59559,-22.51303 11.59559,-22.51303l30.34804,9.59956l0.03634,4.53498c0,0 -8.4927,-1.66361 -13.174,-2.59686c-4.32597,-0.8624 -8.43872,-4.21674 -12.34757,-2.17253c-7.15796,3.74337 -7.89956,11.90997 -10.86546,19.42344c-4.00718,10.15131 -7.98059,29.35565 -7.98059,29.35565z" data-paper-data="{&quot;origRot&quot;:0,&quot;origPos&quot;:null}"/><path fill="#b0936a" stroke="none" stroke-linecap="butt" stroke-width="0" d="M252.51783,49.02938l0.1648,-4.36155l31.15993,3.09486c0,0 -6.73471,2.45053 -13.34402,2.23235c-6.65862,-0.21985 -17.73242,-0.93654 -17.73242,-0.93654z" data-paper-data="{&quot;origPos&quot;:null,&quot;origRot&quot;:0}"/><path fill="#b0936a" stroke="none" stroke-linecap="butt" stroke-width="0" d="M199.66438,94.39598l5.03028,1.5271l-1.14083,5.59926z" data-paper-data="{&quot;origPos&quot;:null,&quot;origRot&quot;:0}"/><path id="ID0.5302143599838018" fill="url(#color-7)" stroke="#a96300" stroke-linecap="round" stroke-width="3.5" d="M255.06999,5.90222c13.17027,1.35657 20.46806,3.17877 33.55795,5.16658c7.57935,1.151 22.56239,2.72873 22.56239,2.72873c0,0 -10.04247,4.44339 -11.87052,4.74693c-3.39058,0.56299 -9.48372,2.06616 -9.48372,2.06616c0,0 4.53939,1.63277 7.70129,3.199c3.39936,1.68384 8.70088,3.46215 8.70088,3.46215c0,0 -5.6747,1.79993 -9.20568,2.34999c-4.411,0.68715 -10.47545,2.70635 -10.47545,2.70635c0,0 6.45706,4.17433 11.5039,5.80511c5.07532,1.63995 11.64091,4.70828 11.64091,4.70828c0,0 -10.0669,4.32357 -16.35599,4.65888c-15.86348,0.84769 -31.65278,-3.30115 -47.47793,-4.65485c-9.64743,-0.82651 -23.18496,-8.83148 -28.86005,-0.70118c-14.8235,20.03033 -19.3271,73.9463 -22.90457,71.81709c-3.57765,-2.12936 -8.97613,-59.69039 -1.95783,-88.30175c2.71399,-11.05706 13.64133,-16.57232 27.04842,-20.67608c13.40708,-4.10371 24.14561,-0.06336 35.87605,0.91852z" data-paper-data="{&quot;origPos&quot;:null,&quot;origRot&quot;:0}"/><path fill="#1f1f1f" stroke="#000" stroke-linecap="butt" stroke-width="0" d="M250.59989,244.55805c-2.0565,0.24661 -5.27605,-0.2413 -5.27605,-0.2413l-0.54296,-23.86413c0,0 1.43028,0.24486 2.34289,0.02899c1.07134,-0.2534 2.74087,-1.23147 2.74087,-1.23147l5.81735,23.82452c0,0 -3.09618,1.24524 -5.08208,1.48337z" data-paper-data="{&quot;origPos&quot;:null,&quot;index&quot;:null,&quot;origRot&quot;:0}"/><path fill="none" stroke="#000" stroke-linecap="round" stroke-width="2.543" d="M249.21184,220.17045c0,0 2.33636,6.45761 3.4227,10.46949c1.26847,4.6844 2.61121,11.81364 2.61121,11.81364" data-paper-data="{&quot;origPos&quot;:null,&quot;origRot&quot;:0,&quot;index&quot;:null}"/><path fill="#1f1f1f" stroke="#000" stroke-linecap="butt" stroke-width="0" d="M220.21981,243.60986l5.45891,-23.9092c0,0 1.68401,0.95286 2.75905,1.19017c0.91578,0.20214 2.34222,-0.06415 2.34222,-0.06415l-0.18452,23.86958c0,0 -3.21185,0.53619 -5.27183,0.32049c-1.98926,-0.2083 -5.10379,-1.40688 -5.10379,-1.40688z" data-paper-data="{&quot;origPos&quot;:null,&quot;origRot&quot;:0}"/><path fill="none" stroke="#000" stroke-linecap="round" stroke-width="2.543" d="M219.73516,242.69807c0,0 1.5976,-7.37613 2.79555,-12.07904c1.02597,-4.02775 2.90302,-10.29219 2.90302,-10.29219" data-paper-data="{&quot;origPos&quot;:null,&quot;origRot&quot;:0}"/><path fill="#ffd499" stroke="#806c4d" stroke-linecap="butt" stroke-width="2" d="M260.96514,248.35409l7.97372,-14.333l13.36954,8.38993l-6.9906,14.35879c0,0 -4.98896,1.69535 -9.84273,-1.21936c-4.33953,-2.60589 -4.50994,-7.19636 -4.50994,-7.19636z" data-paper-data="{&quot;origRot&quot;:0,&quot;origPos&quot;:null,&quot;index&quot;:null}"/><path id="ID0.5423141438513994" fill="#000" stroke="#000" stroke-linecap="round" stroke-width="2.543" d="M262.50118,120.06215c0,0 7.32605,-2.27699 9.64748,-0.17155c6.9643,6.31638 13.01118,42.98719 16.28223,68.38029c1.1085,31.28217 -8.43868,61.31049 -8.43868,61.31049c0,0 -5.44685,-2.8688 -8.90367,-5.13066c-2.91401,-1.90671 -7.4208,-5.55077 -7.4208,-5.55077c0,0 8.61685,-20.68764 8.76119,-51.21118c-2.85523,-30.57708 -8.4266,-42.1988 -8.4266,-42.1988z" data-paper-data="{&quot;origPos&quot;:null,&quot;index&quot;:null,&quot;origRot&quot;:0}"/><g stroke="#000" data-paper-data="{&quot;origPos&quot;:null,&quot;origRot&quot;:0}"><path fill="#fff" stroke-linecap="butt" stroke-width="1" d="M239.61357,280.36721l-1.31168,-9.1404l36.4867,-5.23597l1.31168,9.1404z" data-paper-data="{&quot;origPos&quot;:null}"/><path fill="#fff" stroke-linecap="butt" stroke-width="1" d="M233.61046,278.49764l-1.40059,-9.4935l6.56957,2.61989l0.8929,8.61996z" data-paper-data="{&quot;origPos&quot;:null}"/><path fill="#fff" stroke-linecap="butt" stroke-width="1" d="M238.93422,271.10396l-6.03407,-2.35181l35.71345,-4.76314l5.37219,2.00224z" data-paper-data="{&quot;origPos&quot;:null}"/><path fill="#ff2e2e" stroke-linecap="butt" stroke-width="0" d="M241.30071,278.13703l-0.79561,-5.54417l32.51586,-4.66613l0.79561,5.54417z" data-paper-data="{&quot;origPos&quot;:null}"/><path fill="#ff2e2e" stroke-linecap="butt" stroke-width="0" d="M239.04226,269.85881l-0.84597,-0.56678l29.39068,-4.06473l1.42384,0.33092z" data-paper-data="{&quot;origPos&quot;:null}"/><path fill="none" stroke-linecap="round" stroke-width=".5" d="M233.53409,274.45588l5.09599,1.40972" data-paper-data="{&quot;origPos&quot;:null}"/></g><path fill="#ffd499" stroke="#806c4d" stroke-linecap="butt" stroke-width="2" d="M241.78528,279.60846l-12.07998,-25.85997l18.16271,-8.74914l17.07605,21.59204c0,0 -3.13411,9.36969 -7.78747,11.8328c-7.19589,3.80897 -15.37132,1.18423 -15.37132,1.18423z" data-paper-data="{&quot;origRot&quot;:0,&quot;origPos&quot;:null,&quot;index&quot;:null}"/><path id="ID0.5423141438513994" fill="#000" stroke="#000" stroke-linecap="round" stroke-width="2.543" d="M218.78537,141.22222c0,0 -5.582,15.80072 3.54594,45.12287c12.12796,27.32217 38.2239,68.16699 38.2239,68.16699c0,0 -7.26262,10.08619 -10.07701,11.58607c-0.93674,0.49922 -15.72646,5.09736 -15.72646,5.09736c0,0 -21.53913,-44.95483 -28.69028,-76.3382c-6.74975,-24.69716 -8.64219,-65.62069 -4.64386,-74.1302c1.33279,-2.83652 8.97099,-3.55317 8.97099,-3.55317z" data-paper-data="{&quot;origPos&quot;:null,&quot;index&quot;:null,&quot;origRot&quot;:0}"/></g></g></svg>