<svg xmlns="http://www.w3.org/2000/svg" xmlns:xlink="http://www.w3.org/1999/xlink" width="541.412" height="439.331" version="1.1" viewBox="0 0 541.412 439.331"><defs><radialGradient id="color-1" cx="85.107" cy="179.613" r="102.081" gradientUnits="userSpaceOnUse"><stop offset="0" stop-color="#0ff"/><stop offset="1" stop-color="#003fff"/></radialGradient><linearGradient id="color-2" x1="93.137" x2="116.843" y1="226.065" y2="225.612" gradientUnits="userSpaceOnUse"><stop offset="0" stop-color="#3b3b3b"/><stop offset="1" stop-color="#000"/></linearGradient><linearGradient id="color-3" x1="45.438" x2="95.964" y1="224.776" y2="232.668" gradientUnits="userSpaceOnUse"><stop offset="0" stop-color="#000"/><stop offset="1" stop-color="#3b3b3b"/></linearGradient><radialGradient id="color-4" cx="64.16" cy="95.346" r="54.559" gradientUnits="userSpaceOnUse"><stop offset="0" stop-color="#b6b6b6"/><stop offset="1" stop-color="#666"/></radialGradient><radialGradient id="color-5" cx="73.266" cy="100.927" r="16.494" gradientUnits="userSpaceOnUse"><stop offset="0" stop-color="red"/><stop offset="1" stop-color="red" stop-opacity="0"/></radialGradient><radialGradient id="color-6" cx="74.129" cy="102.869" r="10.778" gradientUnits="userSpaceOnUse"><stop offset="0" stop-color="red"/><stop offset="1" stop-color="#d20000"/></radialGradient><linearGradient id="color-7" x1="26.775" x2="152.361" y1="28.874" y2="27.001" gradientUnits="userSpaceOnUse"><stop offset="0" stop-color="#c70"/><stop offset="1" stop-color="#946f48"/></linearGradient></defs><g><g fill-rule="nonzero" stroke-dashoffset="0" stroke-linejoin="miter" stroke-miterlimit="10" data-paper-data="{&quot;isPaintingLayer&quot;:true}" transform="translate(-6.90138,-25.99648)" style="mix-blend-mode:normal"><path fill="#ffd499" stroke="#806c4d" stroke-linecap="butt" stroke-width="2" d="M129.27816,284.32322c0,0 -8.67632,1.02165 -13.06744,-1.30438c-4.39114,-2.32601 -8.03771,-9.87518 -8.03771,-9.87518l12.64006,-19.32466l15.7905,10.74405z" data-paper-data="{&quot;origRot&quot;:0,&quot;origPos&quot;:null,&quot;index&quot;:null}"/><path id="ID0.5423141438513994" fill="#000" stroke="#000" stroke-linecap="round" stroke-width="2.543" d="M114.52717,148.42538c0,0 7.70347,-2.3369 10.12432,-0.11106c14.10981,12.13031 42.57997,54.09797 39.39717,62.23597c-4.51051,11.53285 -27.98003,62.13645 -27.98003,62.13645c0,0 -7.83037,-2.25547 -11.96775,-5.6596c-4.08675,-3.36247 -9.50222,-8.16573 -9.50222,-8.16573c0,0 24.40322,-45.95015 25.30948,-54.0309c-0.89723,-12.4447 -23.98759,-29.71304 -23.98759,-29.71304z" data-paper-data="{&quot;origPos&quot;:null,&quot;index&quot;:null,&quot;origRot&quot;:0}"/><g stroke="#000" stroke-linecap="butt" data-paper-data="{&quot;origRot&quot;:0}"><path fill="#333" stroke-width="2.5" d="M63.54234,442.62359l-1.45077,-151.3153l53.32757,-0.61232l9.01493,149.8478l-19.27112,0.39926c0,0 -1.79996,-131.28894 -14.81809,-131.63938c-12.39301,-0.4972 -8.07539,132.30105 -8.07539,132.30105z" data-paper-data="{&quot;origPos&quot;:null,&quot;index&quot;:null}"/><path fill="#666" stroke-width="2.543" d="M37.45813,464.03145l-0.2454,-12.44229c0,0 12.5743,-9.12669 21.11904,-11.28648c9.20272,-2.32611 24.30819,-2.66293 24.30819,-2.66293l0.50275,25.49068z" data-paper-data="{&quot;origPos&quot;:null,&quot;index&quot;:null}"/><path fill="#666" stroke-width="2.543" d="M105.0978,462.25797l-0.50275,-25.49066c0,0 15.10702,-0.25906 24.39429,1.70238c8.62324,1.8212 21.55975,11.05868 21.55975,11.05868l0.23329,11.82858z" data-paper-data="{&quot;origPos&quot;:null,&quot;index&quot;:null}"/></g><g stroke="#000" data-paper-data="{&quot;origPos&quot;:null,&quot;origRot&quot;:0}"><path id="ID0.9171315478160977" fill="url(#color-1)" stroke-linecap="butt" stroke-width="2.543" d="M58.33746,148.96658l53.67079,-0.35274l2.17031,144.11165l-52.8,0.33605z" data-paper-data="{&quot;origPos&quot;:null,&quot;index&quot;:null,&quot;origRot&quot;:0}"/><g stroke-linecap="butt" stroke-width="0" data-paper-data="{&quot;origPos&quot;:null,&quot;index&quot;:null,&quot;origRot&quot;:0}"><path fill="#ffde00" d="M87.20487,227.81227l-4.7745,0.16865l6.50095,-21.73874l-5.34134,0.66805l4.94374,-17.95342l17.0461,-0.8671l-5.74722,13.63936l3.65303,-0.27072l-6.57799,20.76809l3.19644,0.23001l-19.43733,32.67455z" data-paper-data="{&quot;index&quot;:null,&quot;origPos&quot;:null}"/><path fill="red" d="M85.70143,224.59396l-4.7745,0.16865l6.50097,-21.73874l-5.34134,0.66805l4.94375,-17.95342l17.0461,-0.8671l-5.74722,13.63936l3.65303,-0.27072l-6.57798,20.76809l3.19644,0.23001l-17.99074,32.91751z" data-paper-data="{&quot;index&quot;:null,&quot;origPos&quot;:null}"/><path fill="#000" d="M82.81346,224.37861l-4.77452,0.16865l6.50097,-21.73874l-5.34134,0.66805l4.94375,-17.95342l17.0461,-0.8671l-5.74722,13.63936l3.65303,-0.27073l-6.57798,20.76809l3.19643,0.23001l-15.13898,31.23944z" data-paper-data="{&quot;index&quot;:null,&quot;origPos&quot;:null}"/></g><path id="ID0.5423141438513994" fill="url(#color-2)" stroke-linecap="round" stroke-width="2.543" d="M91.83054,157.71606c0,0 6.66333,-3.43786 10.92554,-5.77763c4.26852,-2.34323 10.97084,-4.26259 10.97084,-4.26259c0,0 1.09555,22.01543 1.15305,24.75122c0.65797,31.2864 3.43977,130.44781 3.43977,130.44781l-21.35597,1.44015z" data-paper-data="{&quot;origPos&quot;:null,&quot;index&quot;:null,&quot;origRot&quot;:0}"/><path id="ID0.5423141438513994" fill="url(#color-3)" stroke-linecap="round" stroke-width="2.543" d="M84.61682,305.32403l-26.43319,-1.06564c0,0 -0.5779,-98.7359 -1.11754,-130.02457c-0.04719,-2.73604 0.18658,-25.10353 0.18658,-25.10353c0,0 7.17919,1.8763 11.79155,3.98295c3.9141,1.78772 14.57396,5.07351 14.57396,5.07351z" data-paper-data="{&quot;origPos&quot;:null,&quot;index&quot;:null,&quot;origRot&quot;:0}"/><path fill="#1f1f1f" stroke-linecap="butt" stroke-width="0" d="M103.70727,282.10069c-2.15306,0.2966 -5.53985,-0.15598 -5.53985,-0.15598l-1.0092,-25.02732c0,0 1.5051,0.23056 2.45859,-0.01274c1.11934,-0.28558 2.85293,-1.34249 2.85293,-1.34249l6.54214,24.8886c0,0 -3.22545,1.36348 -5.30461,1.64989z" data-paper-data="{&quot;origPos&quot;:null,&quot;index&quot;:null,&quot;origRot&quot;:0}"/><path fill="none" stroke-linecap="round" stroke-width="2.543" d="M101.80181,256.53972c0,0 2.57016,6.73205 3.7838,10.92113c1.41711,4.89133 2.95717,12.34632 2.95717,12.34632" data-paper-data="{&quot;origPos&quot;:null,&quot;origRot&quot;:0,&quot;index&quot;:null}"/><path fill="#1f1f1f" stroke-linecap="butt" stroke-width="0" d="M71.81622,281.66544l5.28691,-25.18513c0,0 1.78434,0.96869 2.91661,1.19787c0.96452,0.1952 2.45617,-0.11044 2.45617,-0.11044l0.24605,25.04642c0,0 -3.35986,0.62171 -5.52508,0.43333c-2.09089,-0.18189 -5.38061,-1.38205 -5.38061,-1.38205z" data-paper-data="{&quot;origPos&quot;:null,&quot;origRot&quot;:0}"/><path fill="none" stroke-linecap="round" stroke-width="2.543" d="M71.29094,280.71774c0,0 1.54028,-7.76816 2.7105,-12.72434c1.00221,-4.24465 2.85616,-10.85163 2.85616,-10.85163" data-paper-data="{&quot;origPos&quot;:null,&quot;origRot&quot;:0}"/></g><path fill="#90704e" stroke="#000" stroke-linecap="butt" stroke-width="2" d="M178.24476,349.2005l-51.05406,-41.96306l358.97388,-1.23422l59.03126,41.96308z" data-paper-data="{&quot;origPos&quot;:null}"/><path fill="#ff2e2e" stroke="#000" stroke-linecap="butt" stroke-width="2" d="M154.58148,326.84423l21.14864,-1.84989l3.02389,3.37388l-20.69411,2.58978z" data-paper-data="{&quot;origPos&quot;:null,&quot;origRot&quot;:0}"/><path fill="#fff" stroke="#000" stroke-linecap="butt" stroke-width="2" d="M194.63943,332.10665l-20.76251,-1.96756l2.92128,-3.4631l21.19464,1.21435z" data-paper-data="{&quot;origPos&quot;:null,&quot;origRot&quot;:0,&quot;index&quot;:null}"/><path fill="#fff" stroke="#000" stroke-linecap="butt" stroke-width="2" d="M209.98864,336.24979l-17.42198,-3.21845l2.03935,-6.4957l17.85783,2.73284z" data-paper-data="{&quot;origPos&quot;:null,&quot;origRot&quot;:0,&quot;index&quot;:null}"/><path fill="#ff2e2e" stroke="#000" stroke-linecap="butt" stroke-width="2" d="M200.60311,327.48035l-20.81285,2.77881l-3.35643,-2.61113l20.28397,-3.36374z" data-paper-data="{&quot;origPos&quot;:null,&quot;origRot&quot;:0}"/><path fill="#ff2e2e" stroke="#000" stroke-linecap="butt" stroke-width="2" d="M171.0958,329.18631l20.90811,1.93585l2.68908,3.2943l-20.52311,-1.24764z" data-paper-data="{&quot;origPos&quot;:null,&quot;origRot&quot;:0}"/><g stroke="#000" data-paper-data="{&quot;origRot&quot;:0,&quot;origPos&quot;:null}"><path fill="#fff" stroke-linecap="butt" stroke-width="1" d="M149.09033,315.35125l-0.05487,-7.63776l30.48845,-0.21914l0.05487,7.63776z" data-paper-data="{&quot;origPos&quot;:null}"/><path fill="#fff" stroke-linecap="butt" stroke-width="1" d="M144.37891,313.14902l-0.08835,-7.93708l5.09196,2.88046l-0.23023,7.16448z" data-paper-data="{&quot;origPos&quot;:null}"/><path fill="#fff" stroke-linecap="butt" stroke-width="1" d="M149.56739,307.68343l-4.68297,-2.60099l29.80195,0.08209l4.17951,2.24059z" data-paper-data="{&quot;origPos&quot;:null}"/><path fill="#ff2e2e" stroke-linecap="butt" stroke-width="0" d="M150.72203,313.71173l-0.03333,-4.63274l27.17043,-0.19532l0.03333,4.63274z" data-paper-data="{&quot;origPos&quot;:null}"/><path fill="#ff2e2e" stroke-linecap="butt" stroke-width="0" d="M149.79491,306.67492l-0.63008,-0.55894l24.54194,-0.05118l1.13005,0.43012z" data-paper-data="{&quot;origPos&quot;:null}"/><path fill="none" stroke-linecap="round" stroke-width=".5" d="M148.78671,311.55204l-4.01928,-1.72413" data-paper-data="{&quot;origPos&quot;:null}"/></g><path fill="#90704e" stroke="#000" stroke-linecap="butt" stroke-width="2" d="M176.64932,378.04801v-31.06592h368.54652v31.06592z" data-paper-data="{&quot;origPos&quot;:null}"/><path fill="#ff2e2e" stroke="#000" stroke-linecap="butt" stroke-width="2" d="M329.92452,329.98091l-8.64443,-22.37119l6.1229,3.65504l11.53523,22.50434z" data-paper-data="{&quot;origPos&quot;:null,&quot;origRot&quot;:0,&quot;index&quot;:null}"/><path fill="#fff" stroke="#000" stroke-linecap="butt" stroke-width="2" d="M307.20027,321.60772l26.07006,-10.82405l1.17192,7.81949l-25.58496,12.38636z" data-paper-data="{&quot;origPos&quot;:null,&quot;origRot&quot;:0,&quot;index&quot;:null}"/><path fill="#ff2e2e" stroke="#000" stroke-linecap="butt" stroke-width="2" d="M311.91679,329.55329l-13.89545,-19.5477l6.83527,2.03182l16.72978,18.96368z" data-paper-data="{&quot;origPos&quot;:null,&quot;origRot&quot;:0,&quot;index&quot;:null}"/><path fill="#fff" stroke="#000" stroke-linecap="butt" stroke-width="2" d="M290.06932,329.12682l14.62457,-24.14395l5.56863,5.61322l-13.30958,25.11706z" data-paper-data="{&quot;origPos&quot;:null,&quot;origRot&quot;:0,&quot;index&quot;:null}"/><path fill="#ff2e2e" stroke="#000" stroke-linecap="butt" stroke-width="2" d="M288.15127,329.32918l-3.0073,-23.79396l5.06349,5.02099l5.78113,24.6188z" data-paper-data="{&quot;origPos&quot;:null,&quot;origRot&quot;:0,&quot;index&quot;:null}"/><path fill="#fff" stroke="#000" stroke-linecap="butt" stroke-width="2" d="M270.83173,328.97861l14.62457,-24.14395l5.56863,5.61322l-13.30958,25.11706z" data-paper-data="{&quot;origPos&quot;:null,&quot;origRot&quot;:0,&quot;index&quot;:null}"/><path fill="#ff2e2e" stroke="#000" stroke-linecap="butt" stroke-width="2" d="M267.84596,329.14306l-3.0073,-23.79396l5.06349,5.02099l5.78113,24.6188z" data-paper-data="{&quot;origPos&quot;:null,&quot;origRot&quot;:0,&quot;index&quot;:null}"/><path fill="#fff" stroke="#000" stroke-linecap="butt" stroke-width="2" d="M250.52645,328.79249l14.62457,-24.14395l5.56863,5.61322l-13.30958,25.11706z" data-paper-data="{&quot;origPos&quot;:null,&quot;origRot&quot;:0,&quot;index&quot;:null}"/><g data-paper-data="{&quot;origPos&quot;:null,&quot;origRot&quot;:0}"><path id="ID0.7719937418587506" fill="#ffd499" stroke="#806c4d" stroke-linecap="butt" stroke-width="2.5" d="M85.59543,46.43707c14.78249,-0.22299 28.26522,5.48883 38.1062,14.89694c9.84108,9.40929 10.83884,24.28397 9.87709,41.03581c-0.66265,11.54207 -3.51872,23.06243 -12.62653,32.30642c-9.55916,9.70076 -24.13942,17.13147 -33.79994,17.32104c-9.66032,0.18962 -24.41501,-4.20752 -34.25605,-13.6156c-9.8412,-9.40946 -16.02242,-19.90111 -16.23719,-34.46214c-0.21475,-14.56114 1.72723,-31.74083 11.28657,-41.44282c9.5592,-9.7008 22.86742,-15.81674 37.64981,-16.03971z" data-paper-data="{&quot;origPos&quot;:null,&quot;origRot&quot;:0}"/><path id="ID0.479907026514411" fill="url(#color-4)" stroke="#666" stroke-linecap="round" stroke-width="2.5" d="M88.95496,49.25896c5.56107,0.11898 3.70073,10.64591 4.09148,16.19426c0.8838,12.56667 4.6797,26.95161 -0.27486,38.93123c-4.26875,9.31891 -13.95658,16.10921 -23.66918,19.17489c-10.5364,2.89494 -21.55496,3.8117 -26.00396,-1.89474c-7.72094,-17.36184 -3.70732,-42.75642 7.50152,-58.50133c9.84858,-12.8739 22.18362,-14.24311 38.35498,-13.90427z" data-paper-data="{&quot;origPos&quot;:null,&quot;origRot&quot;:0}"/><path id="ID0.21129454905167222" fill="none" stroke="#000" stroke-linecap="round" stroke-width="2.5" d="M111.65273,94.15255c0.16594,5.11405 -0.07996,16.20751 -0.07996,16.20751" data-paper-data="{&quot;origPos&quot;:null,&quot;origRot&quot;:0}"/><path fill="none" stroke="#000" stroke-linecap="round" stroke-width="2" d="M97.63466,133.89856l-16.97261,-0.39497" data-paper-data="{&quot;origPos&quot;:null,&quot;index&quot;:null,&quot;origRot&quot;:0}"/><path fill="url(#color-5)" stroke="none" stroke-linecap="butt" stroke-width="0" d="M56.7733,101.03485c-0.05937,-9.1089 7.27673,-16.54132 16.38565,-16.60073c9.10892,-0.05936 16.54132,7.27673 16.60073,16.38565c0.05937,9.1089 -7.27673,16.54132 -16.38565,16.60073c-9.10892,0.05936 -16.54132,-7.27673 -16.60073,-16.38565z" data-paper-data="{&quot;origPos&quot;:null,&quot;origRot&quot;:0}"/><path fill="url(#color-6)" stroke="#666" stroke-linecap="butt" stroke-width="2" d="M62.32649,101.162c-0.03882,-5.95237 4.75506,-10.80919 10.70743,-10.84799c5.95237,-0.03882 10.80919,4.75506 10.84799,10.70743c0.03882,5.95237 -4.75506,10.80919 -10.70743,10.84799c-5.95237,0.03882 -10.80919,-4.75506 -10.84799,-10.70743z" data-paper-data="{&quot;origPos&quot;:null,&quot;origRot&quot;:0}"/><path fill="#7a7a7a" stroke="none" stroke-linecap="butt" stroke-width="0" d="M41.90133,123.32963c0,0 3.31034,-22.33258 7.30866,-36.91754c2.64408,-9.64504 9.71455,-24.73344 9.71455,-24.73344l32.70072,6.79888l0.51948,4.73039c0,0 -9.04248,-0.83493 -14.02855,-1.31213c-4.60761,-0.44093 -9.25722,-3.50595 -13.12077,-0.95688c-7.07497,4.66791 -6.98201,13.27204 -9.28041,21.43055c-3.10536,11.02281 -5.21415,31.49283 -5.21415,31.49283z" data-paper-data="{&quot;origRot&quot;:0,&quot;origPos&quot;:null}"/><path fill="#b0936a" stroke="none" stroke-linecap="butt" stroke-width="0" d="M95.06202,73.17711l-0.29109,-4.57068l32.8576,-0.0778c0,0 -6.7704,3.2733 -13.69328,3.74735c-6.97448,0.47751 -18.61096,0.90517 -18.61096,0.90517z" data-paper-data="{&quot;origPos&quot;:null,&quot;origRot&quot;:0}"/><path fill="#b0936a" stroke="none" stroke-linecap="butt" stroke-width="0" d="M44.15349,125.65112l5.41344,1.06004l-0.59641,5.96643z" data-paper-data="{&quot;origPos&quot;:null,&quot;origRot&quot;:0}"/><path id="ID0.5302143599838018" fill="url(#color-7)" stroke="#a96300" stroke-linecap="round" stroke-width="3.5" d="M93.14695,27.88408c13.89297,0.0177 21.70488,1.14505 35.58096,1.83032c8.03457,0.39679 23.84344,0.45288 23.84344,0.45288c0,0 -10.0119,5.70497 -11.88803,6.21594c-3.47978,0.94776 -9.68101,3.16396 -9.68101,3.16396c0,0 4.91221,1.22253 8.37933,2.5218c3.72749,1.39687 9.45078,2.69038 9.45078,2.69038c0,0 -5.73291,2.48156 -9.36062,3.43073c-4.53184,1.1857 -10.64831,3.93758 -10.64831,3.93758c0,0 7.18399,3.67211 12.62576,4.83865c5.47244,1.17309 12.65231,3.67909 12.65231,3.67909c0,0 -10.05012,5.58245 -16.57992,6.6003c-16.47045,2.56935 -33.394,-0.08521 -50.05819,0.18198c-10.15908,0.16157 -25.14137,-6.75765 -30.2025,2.33247c-13.34794,22.4844 -12.32442,79.24741 -16.28517,77.40453c-3.96094,-1.84304 -15.70858,-61.35985 -11.41998,-91.97351c1.65916,-11.83104 12.48099,-18.7489 26.04139,-24.4566c13.5604,-5.70759 25.19975,-2.63001 37.54984,-2.85054z" data-paper-data="{&quot;origPos&quot;:null,&quot;origRot&quot;:0}"/></g><path fill="#ff2e2e" stroke="#000" stroke-linecap="butt" stroke-width="2" d="M248.51265,328.47641l-3.0073,-23.79395l5.06349,5.02099l5.78113,24.6188z" data-paper-data="{&quot;origPos&quot;:null,&quot;origRot&quot;:0,&quot;index&quot;:null}"/><path fill="#fff" stroke="#000" stroke-linecap="butt" stroke-width="2" d="M231.19311,328.12584l14.62456,-24.14395l5.56863,5.61323l-13.30958,25.11706z" data-paper-data="{&quot;origPos&quot;:null,&quot;origRot&quot;:0,&quot;index&quot;:null}"/><path fill="#fff" stroke="#000" stroke-linecap="butt" stroke-width="2" d="M289.27187,309.21467l-5.67568,-5.33333h20.43243l7.56757,5.66667z" data-paper-data="{&quot;origPos&quot;:null}"/><path fill="#fff" stroke="#000" stroke-linecap="butt" stroke-width="2" d="M310.60519,309.54801l-5.67568,-5.33333h20.43243l7.56757,5.66667z" data-paper-data="{&quot;origPos&quot;:null}"/><path fill="#fff" stroke="#000" stroke-linecap="butt" stroke-width="2" d="M269.30271,309.89874l-5.89189,-5.09346l20.41486,-0.84701l7.79598,5.34807z" data-paper-data="{&quot;origPos&quot;:null,&quot;origRot&quot;:0}"/><path fill="#fff" stroke="#000" stroke-linecap="butt" stroke-width="2" d="M245.95613,310.08938l-5.74061,-5.26337l20.43089,-0.2504l7.63646,5.57348z" data-paper-data="{&quot;origPos&quot;:null,&quot;origRot&quot;:0}"/><path fill="#ff2e2e" stroke="#000" stroke-linecap="butt" stroke-width="2" d="M323.92157,303.67795l-15.76001,-17.69774l6.93298,1.257l18.48071,16.81786z" data-paper-data="{&quot;origPos&quot;:null,&quot;origRot&quot;:0,&quot;index&quot;:null}"/><path fill="#fff" stroke="#000" stroke-linecap="butt" stroke-width="2" d="M301.36869,303.53853l14.45054,-23.85664l5.50236,5.54642l-13.15119,24.81817z" data-paper-data="{&quot;origPos&quot;:null,&quot;origRot&quot;:0,&quot;index&quot;:null}"/><path fill="#ff2e2e" stroke="#000" stroke-linecap="butt" stroke-width="2" d="M299.47346,303.73848l-2.97151,-23.51081l5.00323,4.96124l5.71233,24.32583z" data-paper-data="{&quot;origPos&quot;:null,&quot;origRot&quot;:0,&quot;index&quot;:null}"/><path fill="#fff" stroke="#000" stroke-linecap="butt" stroke-width="2" d="M282.36004,303.39207l14.45054,-23.85664l5.50236,5.54642l-13.15119,24.81817z" data-paper-data="{&quot;origPos&quot;:null,&quot;origRot&quot;:0,&quot;index&quot;:null}"/><path fill="#ff2e2e" stroke="#000" stroke-linecap="butt" stroke-width="2" d="M279.40979,303.55458l-2.97151,-23.51081l5.00323,4.96124l5.71233,24.32583z" data-paper-data="{&quot;origPos&quot;:null,&quot;origRot&quot;:0,&quot;index&quot;:null}"/><path fill="#fff" stroke="#000" stroke-linecap="butt" stroke-width="2" d="M262.29639,303.2082l14.45054,-23.85664l5.50236,5.54642l-13.15119,24.81817z" data-paper-data="{&quot;origPos&quot;:null,&quot;origRot&quot;:0,&quot;index&quot;:null}"/><path fill="#ff2e2e" stroke="#000" stroke-linecap="butt" stroke-width="2" d="M260.30655,302.89583l-2.97151,-23.5108l5.00323,4.96124l5.71233,24.32583z" data-paper-data="{&quot;origPos&quot;:null,&quot;origRot&quot;:0,&quot;index&quot;:null}"/><path fill="#fff" stroke="#000" stroke-linecap="butt" stroke-width="2" d="M242.52645,304.54946l15.11719,-25.85664l5.50236,5.54643l-14.48453,25.48483z" data-paper-data="{&quot;origPos&quot;:null,&quot;origRot&quot;:0,&quot;index&quot;:null}"/><path fill="#fff" stroke="#000" stroke-linecap="butt" stroke-width="2" d="M300.58072,283.86332l-5.60814,-5.26986h20.18928l7.47752,5.59924z" data-paper-data="{&quot;origPos&quot;:null}"/><path fill="#fff" stroke="#000" stroke-linecap="butt" stroke-width="2" d="M280.84921,284.53927l-5.82178,-5.03285l20.17192,-0.83693l7.70321,5.28443z" data-paper-data="{&quot;origPos&quot;:null,&quot;origRot&quot;:0}"/><path fill="#fff" stroke="#000" stroke-linecap="butt" stroke-width="2" d="M257.78045,284.72764l-5.6723,-5.20074l20.18776,-0.24742l7.54559,5.50716z" data-paper-data="{&quot;origPos&quot;:null,&quot;origRot&quot;:0}"/><path fill="#ffd499" stroke="#806c4d" stroke-linecap="butt" stroke-width="2" d="M35.86433,265.56307l15.7905,-10.74404l12.64006,19.32466c0,0 -3.64657,7.54917 -8.03771,9.87518c-4.39112,2.32603 -13.06744,1.30438 -13.06744,1.30438z" data-paper-data="{&quot;origRot&quot;:0,&quot;origPos&quot;:null,&quot;index&quot;:null}"/><path id="ID0.5423141438513994" fill="#000" stroke="#000" stroke-linecap="round" stroke-width="2.543" d="M56.54734,176.11746c0,0 -23.09036,17.26834 -23.98759,29.71304c0.90626,8.08075 25.30948,54.0309 25.30948,54.0309c0,0 -5.41547,4.80327 -9.50222,8.16573c-4.13739,3.40413 -11.96776,5.6596 -11.96776,5.6596c0,0 -23.46952,-50.6036 -27.98003,-62.13645c-3.18279,-8.138 25.28737,-50.10566 39.39717,-62.23597c2.42085,-2.22584 10.12432,0.11106 10.12432,0.11106z" data-paper-data="{&quot;origPos&quot;:null,&quot;index&quot;:null,&quot;origRot&quot;:0}"/><path fill="#ff2e2e" stroke="#000" stroke-linecap="butt" stroke-width="2" d="M238.97321,302.89583l-2.97151,-23.5108l5.00323,4.96124l5.71233,24.32583z" data-paper-data="{&quot;origPos&quot;:null,&quot;origRot&quot;:0,&quot;index&quot;:null}"/><path fill="#fff" stroke="#000" stroke-linecap="butt" stroke-width="2" d="M335.45895,308.70403l-10.72871,-25.74591l7.72493,-1.16802l12.27181,25.26456z" data-paper-data="{&quot;origPos&quot;:null,&quot;origRot&quot;:0,&quot;index&quot;:null}"/><path fill="#fff" stroke="#000" stroke-linecap="butt" stroke-width="2" d="M240.11378,284.3943l-5.6723,-5.20074l20.18776,-0.24742l7.54559,5.50716z" data-paper-data="{&quot;origPos&quot;:null,&quot;origRot&quot;:0}"/><path fill="#fff" stroke="#000" stroke-linecap="butt" stroke-width="2" d="M321.44712,284.06095l-5.6723,-5.20074l20.18776,-0.24742l7.54559,5.50716z" data-paper-data="{&quot;origPos&quot;:null,&quot;origRot&quot;:0}"/><path fill="#ff2e2e" stroke="#000" stroke-linecap="butt" stroke-width="2" d="M353.20589,289.66236l-14.40642,-19.17424l6.88651,1.85075l17.22435,18.51563z" data-paper-data="{&quot;origPos&quot;:null,&quot;origRot&quot;:0,&quot;index&quot;:null}"/><path fill="#fff" stroke="#000" stroke-linecap="butt" stroke-width="2" d="M332.784,294.60902l13.34117,-24.87612l5.85472,5.31415l-11.97707,25.77909z" data-paper-data="{&quot;origPos&quot;:null,&quot;origRot&quot;:0,&quot;index&quot;:null}"/><path fill="#ff2e2e" stroke="#000" stroke-linecap="butt" stroke-width="2" d="M310.72219,278.14405l-3.0073,-23.79396l5.06349,5.02099l5.78113,24.6188z" data-paper-data="{&quot;origPos&quot;:null,&quot;origRot&quot;:0,&quot;index&quot;:null}"/><path fill="#fff" stroke="#000" stroke-linecap="butt" stroke-width="2" d="M293.40265,277.79348l14.62457,-24.14395l5.56863,5.61322l-13.30958,25.11706z" data-paper-data="{&quot;origPos&quot;:null,&quot;origRot&quot;:0,&quot;index&quot;:null}"/><path fill="#ff2e2e" stroke="#000" stroke-linecap="butt" stroke-width="2" d="M291.4846,277.99584l-3.0073,-23.79396l5.06349,5.02099l5.78113,24.6188z" data-paper-data="{&quot;origPos&quot;:null,&quot;origRot&quot;:0,&quot;index&quot;:null}"/><path fill="#fff" stroke="#000" stroke-linecap="butt" stroke-width="2" d="M274.16507,277.64527l14.62457,-24.14395l5.56863,5.61322l-13.30958,25.11706z" data-paper-data="{&quot;origPos&quot;:null,&quot;origRot&quot;:0,&quot;index&quot;:null}"/><path fill="#ff2e2e" stroke="#000" stroke-linecap="butt" stroke-width="2" d="M271.17931,277.80974l-3.0073,-23.79396l5.06349,5.02099l5.78113,24.6188z" data-paper-data="{&quot;origPos&quot;:null,&quot;origRot&quot;:0,&quot;index&quot;:null}"/><path fill="#fff" stroke="#000" stroke-linecap="butt" stroke-width="2" d="M253.85978,277.45917l14.62457,-24.14395l5.56863,5.61322l-13.30958,25.11706z" data-paper-data="{&quot;origPos&quot;:null,&quot;origRot&quot;:0,&quot;index&quot;:null}"/><path fill="#ff2e2e" stroke="#000" stroke-linecap="butt" stroke-width="2" d="M251.84598,277.14306l-3.0073,-23.79395l5.06349,5.02099l5.78113,24.6188z" data-paper-data="{&quot;origPos&quot;:null,&quot;origRot&quot;:0,&quot;index&quot;:null}"/><path fill="#fff" stroke="#000" stroke-linecap="butt" stroke-width="2" d="M234.52644,276.79249l14.62456,-24.14395l5.56863,5.61323l-13.30958,25.11706z" data-paper-data="{&quot;origPos&quot;:null,&quot;origRot&quot;:0,&quot;index&quot;:null}"/><path fill="#fff" stroke="#000" stroke-linecap="butt" stroke-width="2" d="M292.60519,257.88131l-5.67568,-5.33333h20.43243l7.56757,5.66667z" data-paper-data="{&quot;origPos&quot;:null}"/><path fill="#fff" stroke="#000" stroke-linecap="butt" stroke-width="2" d="M330.78135,282.27557l-7.75139,0.75747l13.45861,-15.37368l9.24837,-1.96139z" data-paper-data="{&quot;origPos&quot;:null,&quot;origRot&quot;:0}"/><path fill="#fff" stroke="#000" stroke-linecap="butt" stroke-width="2" d="M272.63604,258.5654l-5.89189,-5.09346l20.41486,-0.84701l7.79598,5.34807z" data-paper-data="{&quot;origPos&quot;:null,&quot;origRot&quot;:0}"/><path fill="#fff" stroke="#000" stroke-linecap="butt" stroke-width="2" d="M249.28946,258.75604l-5.74061,-5.26337l20.43089,-0.2504l7.63646,5.57348z" data-paper-data="{&quot;origPos&quot;:null,&quot;origRot&quot;:0}"/><path fill="#ff2e2e" stroke="#000" stroke-linecap="butt" stroke-width="2" d="M329.14378,270.31372l10.38382,-21.30174l1.47102,6.89074l-8.53633,23.4842z" data-paper-data="{&quot;origPos&quot;:null,&quot;origRot&quot;:0,&quot;index&quot;:null}"/><path fill="#fff" stroke="#000" stroke-linecap="butt" stroke-width="2" d="M318.82848,271.01312l25.15989,-12.03899l1.56387,7.65461l-24.59979,13.55528z" data-paper-data="{&quot;origPos&quot;:null,&quot;origRot&quot;:0,&quot;index&quot;:null}"/><path fill="#ff2e2e" stroke="#000" stroke-linecap="butt" stroke-width="2" d="M302.8068,252.40514l-2.97151,-23.51081l5.00323,4.96124l5.71233,24.32583z" data-paper-data="{&quot;origPos&quot;:null,&quot;origRot&quot;:0,&quot;index&quot;:null}"/><path fill="#fff" stroke="#000" stroke-linecap="butt" stroke-width="2" d="M285.69336,252.05874l14.45054,-23.85664l5.50236,5.54642l-13.15119,24.81817z" data-paper-data="{&quot;origPos&quot;:null,&quot;origRot&quot;:0,&quot;index&quot;:null}"/><path fill="#ff2e2e" stroke="#000" stroke-linecap="butt" stroke-width="2" d="M282.74314,252.22126l-2.97151,-23.51081l5.00323,4.96124l5.71233,24.32583z" data-paper-data="{&quot;origPos&quot;:null,&quot;origRot&quot;:0,&quot;index&quot;:null}"/><path fill="#fff" stroke="#000" stroke-linecap="butt" stroke-width="2" d="M265.62971,251.87486l14.45054,-23.85664l5.50236,5.54642l-13.15119,24.81817z" data-paper-data="{&quot;origPos&quot;:null,&quot;origRot&quot;:0,&quot;index&quot;:null}"/><path fill="#ff2e2e" stroke="#000" stroke-linecap="butt" stroke-width="2" d="M263.63988,251.56252l-2.97151,-23.5108l5.00323,4.96124l5.71233,24.32583z" data-paper-data="{&quot;origPos&quot;:null,&quot;origRot&quot;:0,&quot;index&quot;:null}"/><path fill="#fff" stroke="#000" stroke-linecap="butt" stroke-width="2" d="M245.85978,253.21612l15.11719,-25.85664l5.50236,5.54643l-14.48453,25.48483z" data-paper-data="{&quot;origPos&quot;:null,&quot;origRot&quot;:0,&quot;index&quot;:null}"/><path fill="#fff" stroke="#000" stroke-linecap="butt" stroke-width="2" d="M311.81811,262.30706l-6.66401,-3.84884l19.65506,-4.61367l8.5592,3.74231z" data-paper-data="{&quot;origPos&quot;:null,&quot;origRot&quot;:0}"/><path fill="#fff" stroke="#000" stroke-linecap="butt" stroke-width="2" d="M284.18253,233.20593l-5.82178,-5.03285l20.17192,-0.83693l7.70321,5.28443z" data-paper-data="{&quot;origPos&quot;:null,&quot;origRot&quot;:0}"/><path fill="#fff" stroke="#000" stroke-linecap="butt" stroke-width="2" d="M261.11377,233.3943l-5.6723,-5.20074l20.18776,-0.24742l7.54559,5.50716z" data-paper-data="{&quot;origPos&quot;:null,&quot;origRot&quot;:0}"/><path fill="#ff2e2e" stroke="#000" stroke-linecap="butt" stroke-width="2" d="M242.30655,251.56252l-2.97151,-23.5108l5.00323,4.96124l5.71233,24.32583z" data-paper-data="{&quot;origPos&quot;:null,&quot;origRot&quot;:0,&quot;index&quot;:null}"/><path fill="#fff" stroke="#000" stroke-linecap="butt" stroke-width="2" d="M377.73314,264.60243l27.87287,-1.02997l-1.61208,7.6446l-27.96257,2.64391z" data-paper-data="{&quot;origPos&quot;:null,&quot;origRot&quot;:0,&quot;index&quot;:null}"/><path fill="#fff" stroke="#000" stroke-linecap="butt" stroke-width="2" d="M243.44712,233.06097l-5.6723,-5.20074l20.18776,-0.24742l7.54559,5.50716z" data-paper-data="{&quot;origPos&quot;:null,&quot;origRot&quot;:0}"/><path fill="#fff" stroke="#000" stroke-linecap="butt" stroke-width="2" d="M406.99639,242.59021l7.69526,0.07572l-14.84814,13.6799l-9.29326,0.94872z" data-paper-data="{&quot;origPos&quot;:null,&quot;origRot&quot;:0}"/><path fill="#ff2e2e" stroke="#000" stroke-linecap="butt" stroke-width="2" d="M238.40069,334.0397l-3.37866,-26.73221l5.68877,5.64102l6.49503,27.65891z" data-paper-data="{&quot;origPos&quot;:null,&quot;origRot&quot;:0,&quot;index&quot;:null}"/><path fill="#fff" stroke="#000" stroke-linecap="butt" stroke-width="2" d="M218.94241,333.64583l16.43052,-27.12542l6.25628,6.30638l-14.95314,28.2187z" data-paper-data="{&quot;origPos&quot;:null,&quot;origRot&quot;:0,&quot;index&quot;:null}"/><path fill="#ff2e2e" stroke="#000" stroke-linecap="butt" stroke-width="2" d="M216.67994,333.29071l-3.37866,-26.7322l5.68877,5.64102l6.49503,27.65891z" data-paper-data="{&quot;origPos&quot;:null,&quot;origRot&quot;:0,&quot;index&quot;:null}"/><path fill="#fff" stroke="#000" stroke-linecap="butt" stroke-width="2" d="M197.22165,332.89685l16.43051,-27.12542l6.25628,6.30639l-14.95314,28.2187z" data-paper-data="{&quot;origPos&quot;:null,&quot;origRot&quot;:0,&quot;index&quot;:null}"/><path fill="#fff" stroke="#000" stroke-linecap="butt" stroke-width="2" d="M213.80772,312.63311l-6.4495,-5.91333l22.95384,-0.28132l8.57947,6.26173z" data-paper-data="{&quot;origPos&quot;:null,&quot;origRot&quot;:0}"/><path fill="#fff" stroke="#000" stroke-linecap="butt" stroke-width="2" d="M232.16579,304.90218l16.235,-26.80263l6.18183,6.23133l-14.77519,27.8829z" data-paper-data="{&quot;origPos&quot;:null,&quot;origRot&quot;:0,&quot;index&quot;:null}"/><path fill="#ff2e2e" stroke="#000" stroke-linecap="butt" stroke-width="2" d="M229.93023,304.55127l-3.33845,-26.41408l5.62107,5.57389l6.41773,27.32976z" data-paper-data="{&quot;origPos&quot;:null,&quot;origRot&quot;:0,&quot;index&quot;:null}"/><path fill="#fff" stroke="#000" stroke-linecap="butt" stroke-width="2" d="M209.95452,306.40907l16.98397,-29.04961l6.18183,6.23134l-16.27318,28.63188z" data-paper-data="{&quot;origPos&quot;:null,&quot;origRot&quot;:0,&quot;index&quot;:null}"/><path fill="#fff" stroke="#000" stroke-linecap="butt" stroke-width="2" d="M227.09219,284.13952l-6.37276,-5.84297l22.68069,-0.27797l8.47737,6.18722z" data-paper-data="{&quot;origPos&quot;:null,&quot;origRot&quot;:0}"/><path fill="#ff2e2e" stroke="#000" stroke-linecap="butt" stroke-width="2" d="M205.9625,304.55127l-3.33845,-26.41408l5.62107,5.57389l6.41773,27.32976z" data-paper-data="{&quot;origPos&quot;:null,&quot;origRot&quot;:0,&quot;index&quot;:null}"/><path fill="#fff" stroke="#000" stroke-linecap="butt" stroke-width="2" d="M207.24392,283.76502l-6.37276,-5.84297l22.68069,-0.27797l8.47737,6.18722z" data-paper-data="{&quot;origPos&quot;:null,&quot;origRot&quot;:0}"/><path fill="#ff2e2e" stroke="#000" stroke-linecap="butt" stroke-width="2" d="M240.90069,276.53971l-3.37867,-26.73221l5.68877,5.64101l6.49502,27.65891z" data-paper-data="{&quot;origPos&quot;:null,&quot;origRot&quot;:0,&quot;index&quot;:null}"/><path fill="#fff" stroke="#000" stroke-linecap="butt" stroke-width="2" d="M221.44242,276.14583l16.43051,-27.12542l6.25629,6.30638l-14.95314,28.2187z" data-paper-data="{&quot;origPos&quot;:null,&quot;origRot&quot;:0,&quot;index&quot;:null}"/><path fill="#ff2e2e" stroke="#000" stroke-linecap="butt" stroke-width="2" d="M219.17994,275.79071l-3.37866,-26.7322l5.68877,5.64101l6.49502,27.65891z" data-paper-data="{&quot;origPos&quot;:null,&quot;origRot&quot;:0,&quot;index&quot;:null}"/><path fill="#fff" stroke="#000" stroke-linecap="butt" stroke-width="2" d="M199.72166,275.39682l16.43051,-27.12542l6.25628,6.3064l-14.95315,28.21869z" data-paper-data="{&quot;origPos&quot;:null,&quot;origRot&quot;:0,&quot;index&quot;:null}"/><path fill="#fff" stroke="#000" stroke-linecap="butt" stroke-width="2" d="M216.30772,255.13312l-6.4495,-5.91333l22.95385,-0.28132l8.57946,6.26173z" data-paper-data="{&quot;origPos&quot;:null,&quot;origRot&quot;:0}"/><path fill="#fff" stroke="#000" stroke-linecap="butt" stroke-width="2" d="M234.66579,247.4022l16.235,-26.80263l6.18183,6.23134l-14.77519,27.8829z" data-paper-data="{&quot;origPos&quot;:null,&quot;origRot&quot;:0,&quot;index&quot;:null}"/><path fill="#ff2e2e" stroke="#000" stroke-linecap="butt" stroke-width="2" d="M232.43023,247.05128l-3.33845,-26.41408l5.62107,5.57389l6.41773,27.32976z" data-paper-data="{&quot;origPos&quot;:null,&quot;origRot&quot;:0,&quot;index&quot;:null}"/><path fill="#fff" stroke="#000" stroke-linecap="butt" stroke-width="2" d="M212.45452,248.90909l16.98397,-29.0496l6.18183,6.23134l-16.27318,28.63188z" data-paper-data="{&quot;origPos&quot;:null,&quot;origRot&quot;:0,&quot;index&quot;:null}"/><path fill="#fff" stroke="#000" stroke-linecap="butt" stroke-width="2" d="M229.59219,226.63953l-6.37276,-5.84296l22.68069,-0.27797l8.47737,6.18722z" data-paper-data="{&quot;origPos&quot;:null,&quot;origRot&quot;:0}"/><path fill="#ff2e2e" stroke="#000" stroke-linecap="butt" stroke-width="2" d="M208.4625,247.05128l-3.33845,-26.41408l5.62106,5.57389l6.41773,27.32976z" data-paper-data="{&quot;origPos&quot;:null,&quot;origRot&quot;:0,&quot;index&quot;:null}"/><path fill="#fff" stroke="#000" stroke-linecap="butt" stroke-width="2" d="M209.74392,226.26502l-6.37276,-5.84296l22.68069,-0.27797l8.47737,6.18723z" data-paper-data="{&quot;origPos&quot;:null,&quot;origRot&quot;:0}"/><path fill="#ff2e2e" stroke="#000" stroke-linecap="butt" stroke-width="2" d="M391.99318,337.61196l-26.17561,-6.39246l7.30082,-3.29864l28.15429,3.81267z" data-paper-data="{&quot;origPos&quot;:null,&quot;origRot&quot;:0,&quot;index&quot;:null}"/><path fill="#fff" stroke="#000" stroke-linecap="butt" stroke-width="2" d="M354.1561,332.93397l20.11806,-24.51558l5.29673,7.13135l-18.81101,25.8077z" data-paper-data="{&quot;origPos&quot;:null,&quot;origRot&quot;:0,&quot;index&quot;:null}"/><path fill="#ff2e2e" stroke="#000" stroke-linecap="butt" stroke-width="2" d="M353.01926,338.56863l-20.20091,-17.83113l7.99736,0.47462l23.15227,16.46733z" data-paper-data="{&quot;origPos&quot;:null,&quot;origRot&quot;:0,&quot;index&quot;:null}"/><path fill="#fff" stroke="#000" stroke-linecap="butt" stroke-width="2" d="M327.03352,323.07611l30.16993,-9.7737l0.60817,8.86238l-29.76738,11.56696z" data-paper-data="{&quot;origPos&quot;:null,&quot;origRot&quot;:0,&quot;index&quot;:null}"/><path fill="#fff" stroke="#000" stroke-linecap="butt" stroke-width="2" d="M346.85105,309.63705l-4.32715,-7.60521l21.93577,6.76615l6.24788,8.58956z" data-paper-data="{&quot;origPos&quot;:null,&quot;origRot&quot;:0}"/><path fill="#fff" stroke="#000" stroke-linecap="butt" stroke-width="2" d="M375.762,320.99176l29.79242,-9.71432l0.61768,8.75574l-29.39125,11.48551z" data-paper-data="{&quot;origPos&quot;:null,&quot;origRot&quot;:0,&quot;index&quot;:null}"/><path fill="#ff2e2e" stroke="#000" stroke-linecap="butt" stroke-width="2" d="M363.61569,323.67879l4.98452,-26.15346l3.62428,7.03769l-2.33869,27.97559z" data-paper-data="{&quot;origPos&quot;:null,&quot;origRot&quot;:0,&quot;index&quot;:null}"/><path fill="#fff" stroke="#000" stroke-linecap="butt" stroke-width="2" d="M344.99983,306.95068l32.69274,-7.96992l-0.18615,8.77554l-31.89844,8.19086z" data-paper-data="{&quot;origPos&quot;:null,&quot;origRot&quot;:0,&quot;index&quot;:null}"/><path fill="#fff" stroke="#000" stroke-linecap="butt" stroke-width="2" d="M372.92329,303.80226l-0.22584,-8.64299l15.95904,16.11832l1.44059,10.39579z" data-paper-data="{&quot;origPos&quot;:null,&quot;origRot&quot;:0}"/><path fill="#ff2e2e" stroke="#000" stroke-linecap="butt" stroke-width="2" d="M347.16091,305.89882l-16.44005,-20.94215l7.68662,1.89218l19.5521,20.14494z" data-paper-data="{&quot;origPos&quot;:null,&quot;origRot&quot;:0,&quot;index&quot;:null}"/><path fill="#fff" stroke="#000" stroke-linecap="butt" stroke-width="2" d="M358.21724,289.26635l1.76851,-8.46314l11.82307,19.35734l-0.98955,10.44837z" data-paper-data="{&quot;origPos&quot;:null,&quot;origRot&quot;:0}"/><path fill="#ff2e2e" stroke="#000" stroke-linecap="butt" stroke-width="2" d="M409.9511,330.48193l21.66512,-16.02027l-2.13837,7.72079l-20.94941,19.19174z" data-paper-data="{&quot;origPos&quot;:null,&quot;origRot&quot;:0,&quot;index&quot;:null}"/><path fill="#fff" stroke="#000" stroke-linecap="butt" stroke-width="2" d="M375.86562,284.58836l23.8664,20.88411l-7.29547,5.0683l-25.19922,-19.61862z" data-paper-data="{&quot;origPos&quot;:null,&quot;origRot&quot;:0,&quot;index&quot;:null}"/><path fill="#ff2e2e" stroke="#000" stroke-linecap="butt" stroke-width="2" d="M363.46706,285.33377l25.90455,-7.41484l-4.70774,6.48231l-26.3453,10.63606z" data-paper-data="{&quot;origPos&quot;:null,&quot;origRot&quot;:0,&quot;index&quot;:null}"/><path fill="#fff" stroke="#000" stroke-linecap="butt" stroke-width="2" d="M350.01912,289.11696l30.89397,7.16328l-4.04376,7.90947l-31.47263,-5.41889z" data-paper-data="{&quot;origPos&quot;:null,&quot;origRot&quot;:0,&quot;index&quot;:null}"/><path fill="#fff" stroke="#000" stroke-linecap="butt" stroke-width="2" d="M389.30228,292.52343l1.81426,-8.5599l11.90947,19.62454l-1.03166,10.5713z" data-paper-data="{&quot;origPos&quot;:null,&quot;origRot&quot;:0}"/><path fill="#fff" stroke="#000" stroke-linecap="butt" stroke-width="2" d="M406.88706,301.20593l27.31583,15.35585l-6.02726,6.38098l-28.34812,-13.86172z" data-paper-data="{&quot;origPos&quot;:null,&quot;origRot&quot;:0,&quot;index&quot;:null}"/><path fill="#ff2e2e" stroke="#000" stroke-linecap="butt" stroke-width="2" d="M409.76131,309.28565l-4.48956,-26.24295l5.85928,5.32293l7.60593,27.0232z" data-paper-data="{&quot;origPos&quot;:null,&quot;origRot&quot;:0,&quot;index&quot;:null}"/><path fill="#fff" stroke="#000" stroke-linecap="butt" stroke-width="2" d="M380.83425,293.4422l33.59278,1.96487l-2.7507,8.33536l-32.89814,-1.52077z" data-paper-data="{&quot;origPos&quot;:null,&quot;origRot&quot;:0,&quot;index&quot;:null}"/><path fill="#fff" stroke="#000" stroke-linecap="butt" stroke-width="2" d="M409.79045,311.90189l4.88413,-7.13424l3.47914,22.41399l-4.92764,9.26638z" data-paper-data="{&quot;origPos&quot;:null,&quot;origRot&quot;:0}"/><path fill="#ff2e2e" stroke="#000" stroke-linecap="butt" stroke-width="2" d="M393.51742,275.3834l25.59629,-7.32659l-4.65172,6.40515l-26.03178,10.50949z" data-paper-data="{&quot;origPos&quot;:null,&quot;origRot&quot;:0,&quot;index&quot;:null}"/><path fill="#fff" stroke="#000" stroke-linecap="butt" stroke-width="2" d="M403.14997,287.17944l-1.53715,-8.5082l18.22392,13.5048l3.00425,10.05595z" data-paper-data="{&quot;origPos&quot;:null,&quot;origRot&quot;:0}"/><path fill="#fff" stroke="#000" stroke-linecap="butt" stroke-width="2" d="M248.45452,220.90909l16.98397,-29.0496l6.18183,6.23134l-16.27318,28.63188z" data-paper-data="{&quot;origPos&quot;:null,&quot;origRot&quot;:0,&quot;index&quot;:null}"/><path fill="#ff2e2e" stroke="#000" stroke-linecap="butt" stroke-width="2" d="M244.4625,219.05129l-3.33845,-26.41408l5.62106,5.57389l6.41773,27.32976z" data-paper-data="{&quot;origPos&quot;:null,&quot;origRot&quot;:0,&quot;index&quot;:null}"/><path fill="#fff" stroke="#000" stroke-linecap="butt" stroke-width="2" d="M226.66579,218.9022l16.235,-26.80263l6.18183,6.23134l-14.77519,27.88289z" data-paper-data="{&quot;origPos&quot;:null,&quot;origRot&quot;:0,&quot;index&quot;:null}"/><path fill="#ff2e2e" stroke="#000" stroke-linecap="butt" stroke-width="2" d="M224.43023,218.55129l-3.33845,-26.41408l5.62107,5.57389l6.41773,27.32976z" data-paper-data="{&quot;origPos&quot;:null,&quot;origRot&quot;:0,&quot;index&quot;:null}"/><path fill="#fff" stroke="#000" stroke-linecap="butt" stroke-width="2" d="M204.45452,220.40909l16.98397,-29.0496l6.18183,6.23134l-16.27318,28.63188z" data-paper-data="{&quot;origPos&quot;:null,&quot;origRot&quot;:0,&quot;index&quot;:null}"/><path fill="#ff2e2e" stroke="#000" stroke-linecap="butt" stroke-width="2" d="M200.4625,218.55129l-3.33845,-26.41408l5.62106,5.57389l6.41773,27.32976z" data-paper-data="{&quot;origPos&quot;:null,&quot;origRot&quot;:0,&quot;index&quot;:null}"/><path fill="#fff" stroke="#000" stroke-linecap="butt" stroke-width="2" d="M223.09219,197.63953l-6.37276,-5.84297l22.68069,-0.27797l8.47737,6.18723z" data-paper-data="{&quot;origPos&quot;:null,&quot;origRot&quot;:0}"/><path fill="#fff" stroke="#000" stroke-linecap="butt" stroke-width="2" d="M203.24392,197.26503l-6.37276,-5.84296l22.68069,-0.27797l8.47737,6.18722z" data-paper-data="{&quot;origPos&quot;:null,&quot;origRot&quot;:0}"/><path fill="#fff" stroke="#000" stroke-linecap="butt" stroke-width="2" d="M245.59219,198.13953l-6.37276,-5.84297l22.68069,-0.27797l8.47737,6.18723z" data-paper-data="{&quot;origPos&quot;:null,&quot;origRot&quot;:0}"/><path fill="#fff" stroke="#000" stroke-linecap="butt" stroke-width="2" d="M438.18508,307.34339l26.77381,20.38377l-6.93547,5.37994l-26.44543,-19.62753z" data-paper-data="{&quot;origPos&quot;:null,&quot;origRot&quot;:0,&quot;index&quot;:null}"/><path fill="#ff2e2e" stroke="#000" stroke-linecap="butt" stroke-width="2" d="M429.10189,309.36917l15.4752,21.66488l-7.59309,-2.23819l-18.62016,-21.00935z" data-paper-data="{&quot;origPos&quot;:null,&quot;origRot&quot;:0,&quot;index&quot;:null}"/><path fill="#fff" stroke="#000" stroke-linecap="butt" stroke-width="2" d="M424.52049,309.32843l23.9606,20.1952l-7.11465,5.14067l-25.25417,-18.92058z" data-paper-data="{&quot;origPos&quot;:null,&quot;origRot&quot;:0,&quot;index&quot;:null}"/><path fill="#ff2e2e" stroke="#000" stroke-linecap="butt" stroke-width="2" d="M418.0454,297.45308l14.37108,-22.41252l0.74081,7.88134l-12.5948,25.08932z" data-paper-data="{&quot;origPos&quot;:null,&quot;origRot&quot;:0,&quot;index&quot;:null}"/><path fill="#fff" stroke="#000" stroke-linecap="butt" stroke-width="2" d="M407.24267,272.15669l33.59278,1.96487l-2.7507,8.33536l-32.89814,-1.52077z" data-paper-data="{&quot;origPos&quot;:null,&quot;origRot&quot;:0,&quot;index&quot;:null}"/><path fill="#ff2e2e" stroke="#000" stroke-linecap="butt" stroke-width="2" d="M417.17737,250.91872l25.72118,-6.87528l-4.76365,6.32236l-26.21259,10.05003z" data-paper-data="{&quot;origPos&quot;:null,&quot;origRot&quot;:0,&quot;index&quot;:null}"/><path fill="#fff" stroke="#000" stroke-linecap="butt" stroke-width="2" d="M434.27951,283.14221l2.31799,-8.32941l10.53236,20.08881l-1.67047,10.36133z" data-paper-data="{&quot;origPos&quot;:null,&quot;origRot&quot;:0}"/><path fill="#fff" stroke="#000" stroke-linecap="butt" stroke-width="2" d="M423.48702,268.39176l-1.04808,-8.58218l17.4218,14.52488l2.42427,10.21129z" data-paper-data="{&quot;origPos&quot;:null,&quot;origRot&quot;:0}"/><path fill="#fff" stroke="#000" stroke-linecap="butt" stroke-width="2" d="M435.84391,319.47742l5.18169,-6.92115l2.52745,22.54115l-5.31538,9.04957z" data-paper-data="{&quot;origPos&quot;:null,&quot;origRot&quot;:0}"/><path fill="#ff2e2e" stroke="#000" stroke-linecap="butt" stroke-width="2" d="M299.9093,225.97556l9.90933,-21.80533l1.6744,6.92173l-7.98316,23.95989z" data-paper-data="{&quot;origPos&quot;:null,&quot;origRot&quot;:0,&quot;index&quot;:null}"/><path fill="#fff" stroke="#000" stroke-linecap="butt" stroke-width="2" d="M281.45095,224.36035l22.96038,-19.72848l3.43111,7.11191l-22.2334,19.58155z" data-paper-data="{&quot;origPos&quot;:null,&quot;origRot&quot;:0,&quot;index&quot;:null}"/><path fill="#ff2e2e" stroke="#000" stroke-linecap="butt" stroke-width="2" d="M328.96233,249.00936l19.14219,-14.39596l-1.84517,6.8782l-18.48318,17.20985z" data-paper-data="{&quot;origPos&quot;:null,&quot;origRot&quot;:0,&quot;index&quot;:null}"/><path fill="#fff" stroke="#000" stroke-linecap="butt" stroke-width="2" d="M308.98114,257.35054l26.3533,-14.89616l1.98529,7.64267l-25.61162,14.89315z" data-paper-data="{&quot;origPos&quot;:null,&quot;origRot&quot;:0,&quot;index&quot;:null}"/><path fill="#ff2e2e" stroke="#000" stroke-linecap="butt" stroke-width="2" d="M239.92482,191.32144l-3.00329,-23.76231l5.05676,5.01432l5.77344,24.58606z" data-paper-data="{&quot;origPos&quot;:null,&quot;origRot&quot;:0,&quot;index&quot;:null}"/><path fill="#fff" stroke="#000" stroke-linecap="butt" stroke-width="2" d="M221.95452,192.99273l15.27891,-26.13325l5.56122,5.60576l-14.63948,25.75746z" data-paper-data="{&quot;origPos&quot;:null,&quot;origRot&quot;:0,&quot;index&quot;:null}"/><path fill="#ff2e2e" stroke="#000" stroke-linecap="butt" stroke-width="2" d="M262.42482,191.32144l-3.00329,-23.76231l5.05676,5.01432l5.77344,24.58606z" data-paper-data="{&quot;origPos&quot;:null,&quot;origRot&quot;:0,&quot;index&quot;:null}"/><path fill="#fff" stroke="#000" stroke-linecap="butt" stroke-width="2" d="M244.45452,192.99273l15.27891,-26.13325l5.56122,5.60576l-14.63947,25.75746z" data-paper-data="{&quot;origPos&quot;:null,&quot;origRot&quot;:0,&quot;index&quot;:null}"/><path fill="#ff2e2e" stroke="#000" stroke-linecap="butt" stroke-width="2" d="M214.92482,190.82144l-3.0033,-23.76231l5.05676,5.01432l5.77344,24.58606z" data-paper-data="{&quot;origPos&quot;:null,&quot;origRot&quot;:0,&quot;index&quot;:null}"/><path fill="#fff" stroke="#000" stroke-linecap="butt" stroke-width="2" d="M196.95452,192.49273l15.27891,-26.13325l5.56122,5.60576l-14.63948,25.75746z" data-paper-data="{&quot;origPos&quot;:null,&quot;origRot&quot;:0,&quot;index&quot;:null}"/><path fill="#ff2e2e" stroke="#000" stroke-linecap="butt" stroke-width="2" d="M447.09006,294.38857l19.81704,-13.45185l-2.17617,6.78075l-19.2951,16.29435z" data-paper-data="{&quot;origPos&quot;:null,&quot;origRot&quot;:0,&quot;index&quot;:null}"/><path fill="#fff" stroke="#000" stroke-linecap="butt" stroke-width="2" d="M436.6586,284.71123l28.64271,-9.7973l0.54638,7.87739l-27.91313,9.9307z" data-paper-data="{&quot;origPos&quot;:null,&quot;origRot&quot;:0,&quot;index&quot;:null}"/><path fill="#ff2e2e" stroke="#000" stroke-linecap="butt" stroke-width="2" d="M453.74146,333.02088l-3.55414,-23.68618l5.17182,4.89557l6.34266,24.44539z" data-paper-data="{&quot;origPos&quot;:null,&quot;origRot&quot;:0,&quot;index&quot;:null}"/><path fill="#fff" stroke="#000" stroke-linecap="butt" stroke-width="2" d="M453.0665,302.05768l26.49052,14.65073l-5.47141,5.69344l-26.09957,-14.02046z" data-paper-data="{&quot;origPos&quot;:null,&quot;origRot&quot;:0,&quot;index&quot;:null}"/><path fill="#ff2e2e" stroke="#000" stroke-linecap="butt" stroke-width="2" d="M436.09232,267.71517l23.73731,-3.1948l-4.97338,5.09703l-24.5387,5.97149z" data-paper-data="{&quot;origPos&quot;:null,&quot;origRot&quot;:0,&quot;index&quot;:null}"/><path fill="#fff" stroke="#000" stroke-linecap="butt" stroke-width="2" d="M417.3659,254.57177l30.10495,-3.17549l-1.22087,7.80136l-29.42336,3.46795z" data-paper-data="{&quot;origPos&quot;:null,&quot;origRot&quot;:0,&quot;index&quot;:null}"/></g></g></svg>