<svg version="1.1" xmlns="http://www.w3.org/2000/svg" xmlns:xlink="http://www.w3.org/1999/xlink" width="27.48286" height="15.21843" viewBox="0,0,27.48286,15.21843"><g transform="translate(-227.26714,-172.11626)"><g data-paper-data="{&quot;isPaintingLayer&quot;:true}" fill="none" fill-rule="nonzero" stroke="#000000" stroke-width="none" stroke-linecap="butt" stroke-linejoin="miter" stroke-miterlimit="10" stroke-dasharray="" stroke-dashoffset="0" font-family="none" font-weight="none" font-size="none" text-anchor="none" style="mix-blend-mode: normal"><path d="M253.75,180.36189c0,4.36917 -5.12067,5.97281 -12.3625,5.97281c-7.24183,0 -12.9875,-4.54999 -12.7375,-9.03132c0.40263,-7.2172 7.31504,-2.9143 12.7375,-2.9143c7.24183,0 12.3625,2.52119 12.3625,5.97281z" data-paper-data="{&quot;origPos&quot;:null}" fill="#000000" stroke-width="2"/><path d="M228.5125,174.32133l2.875,-2.14096l19.75,2.90559l2,2.14096l-18.90858,-0.91211z" data-paper-data="{&quot;origPos&quot;:null}" fill="#ffffff" stroke-width="0"/><path d="M253.5125,183.80272l-2.875,2.75266l-15.375,-0.15293l-5.75,-4.74069c0,0 3.1641,1.48337 5.02928,1.64975c5.59552,0.49916 18.97072,0.49121 18.97072,0.49121z" data-paper-data="{&quot;origPos&quot;:null,&quot;index&quot;:null}" fill="#ffffff" stroke-width="0"/><path d="M253.375,180.36189c0,4.36917 -5.12067,5.97281 -12.3625,5.97281c-7.24183,0 -12.9875,-4.54999 -12.7375,-9.03132c0.40263,-7.2172 7.31504,-2.9143 12.7375,-2.9143c7.24183,0 12.3625,2.52119 12.3625,5.97281z" data-paper-data="{&quot;origPos&quot;:null}" fill="none" stroke-width="2"/></g></g></svg>