<svg xmlns="http://www.w3.org/2000/svg" xmlns:xlink="http://www.w3.org/1999/xlink" width="1064.504" height="704.731" version="1.1" viewBox="0 0 1064.504 704.731"><defs><radialGradient id="color-1" cx="227.287" cy="260.365" r="257.503" gradientUnits="userSpaceOnUse"><stop offset="0" stop-color="#0ff"/><stop offset="1" stop-color="#003fff"/></radialGradient><linearGradient id="color-2" x1="245.229" x2="305.037" y1="377.918" y2="377.954" gradientUnits="userSpaceOnUse"><stop offset="0" stop-color="#3b3b3b"/><stop offset="1" stop-color="#000"/></linearGradient><linearGradient id="color-3" x1="124.995" x2="252.03" y1="372.295" y2="394.709" gradientUnits="userSpaceOnUse"><stop offset="0" stop-color="#000"/><stop offset="1" stop-color="#3b3b3b"/></linearGradient><radialGradient id="color-4" cx="183.998" cy="46.406" r="137.627" gradientUnits="userSpaceOnUse"><stop offset="0" stop-color="#b6b6b6"/><stop offset="1" stop-color="#666"/></radialGradient><radialGradient id="color-5" cx="185.371" cy="73.503" r="26.606" gradientUnits="userSpaceOnUse"><stop offset="0" stop-color="red"/><stop offset="1" stop-color="red" stop-opacity="0"/></radialGradient><radialGradient id="color-6" cx="186.563" cy="76.715" r="17.386" gradientUnits="userSpaceOnUse"><stop offset="0" stop-color="red"/><stop offset="1" stop-color="#d20000"/></radialGradient><linearGradient id="color-7" x1="100.389" x2="416.857" y1="-126.852" y2="-111.711" gradientUnits="userSpaceOnUse"><stop offset="0" stop-color="#c70"/><stop offset="1" stop-color="#946f48"/></linearGradient></defs><g><g fill-rule="nonzero" stroke-dashoffset="0" stroke-linejoin="miter" stroke-miterlimit="10" data-paper-data="{&quot;isPaintingLayer&quot;:true}" transform="translate(91.15251,125.99447)" style="mix-blend-mode:normal"><path fill="#70674b" stroke="#000" stroke-linecap="butt" stroke-width="2" d="M-71.15968,430.26165v-500.52331h667.36441v500.52331z" data-paper-data="{&quot;origPos&quot;:null}"/><path fill="#333" stroke="#000" stroke-linecap="butt" stroke-width="2.5" d="M281.9375,212.21686c0,0 7.893,41.54232 16.91706,66.67272c9.02406,25.1304 6.98933,45.75271 20.58748,72.89439c0.02278,0.04547 -50.80651,-0.64993 -50.80651,-0.64993c0,0 -9.84717,-101.58728 -36.53566,-103.72735c-10.46614,-1.11669 -10.37104,27.62086 -10.02397,46.93956c0.34707,19.3187 6.84953,57.1783 6.84953,57.1783l-52.64934,0.89136c0,0 -3.83827,-36.96485 -6.94091,-60.45959c-3.10266,-23.49474 -6.95089,-82.9391 -6.95089,-82.9391z" data-paper-data="{&quot;origPos&quot;:null,&quot;index&quot;:null}"/><g stroke="#000" data-paper-data="{&quot;origPos&quot;:null}"><path id="ID0.9171315478160977" fill="url(#color-1)" stroke-linecap="butt" stroke-width="2.543" d="M161.29772,181.74121l135.37695,1.78007l-1.69481,363.56201l-133.17996,-1.77883z" data-paper-data="{&quot;origPos&quot;:null,&quot;index&quot;:null,&quot;origRot&quot;:0}"/><g stroke-linecap="butt" stroke-width="0" data-paper-data="{&quot;origPos&quot;:null,&quot;index&quot;:null,&quot;origRot&quot;:0}"><path fill="#ffde00" d="M230.18031,382.02841l-12.04983,0.18786l17.47691,-54.5024l-13.50424,1.41915l13.36129,-45.03316l43.03392,-1.33895l-15.17312,34.11301l9.22653,-0.50105l-17.62294,52.05057l8.05008,0.7391l-50.64684,81.43938z" data-paper-data="{&quot;index&quot;:null,&quot;origPos&quot;:null}"/><path fill="red" d="M226.54865,373.83695l-12.04983,0.18786l17.47696,-54.5024l-13.50424,1.41915l13.36132,-45.03316l43.03392,-1.33895l-15.17312,34.11301l9.22653,-0.50105l-17.62291,52.05057l8.05008,0.7391l-47.01059,82.12409z" data-paper-data="{&quot;index&quot;:null,&quot;origPos&quot;:null}"/><path fill="#000" d="M219.27586,373.15017l-12.04988,0.18786l17.47696,-54.5024l-13.50424,1.41915l13.36132,-45.03316l43.03392,-1.33895l-15.17312,34.11301l9.22653,-0.50108l-17.62291,52.05057l8.05005,0.7391l-39.73488,78.03379z" data-paper-data="{&quot;index&quot;:null,&quot;origPos&quot;:null}"/></g><path id="ID0.5423141438513994" fill="url(#color-2)" stroke-linecap="round" stroke-width="2.543" d="M245.33308,205.47368c0,0 16.97613,-8.33895 27.84195,-14.02789c10.8819,-5.69737 27.88083,-10.20469 27.88083,-10.20469c0,0 1.66792,55.57809 1.67684,62.48069c0.10317,78.938 2.1865,329.16451 2.1865,329.16451l-53.93207,2.56983z" data-paper-data="{&quot;origPos&quot;:null,&quot;index&quot;:null,&quot;origRot&quot;:0}"/><path id="ID0.5423141438513994" fill="url(#color-3)" stroke-linecap="round" stroke-width="2.543" d="M219.79757,577.38677l-66.61233,-4.0024c0,0 3.45384,-249.04375 3.64921,-327.98157c0.01708,-6.90273 1.71925,-63.30261 1.71925,-63.30261c0,0 18.01282,5.08919 29.54054,10.63165c9.78257,4.70339 36.50361,13.52049 36.50361,13.52049z" data-paper-data="{&quot;origPos&quot;:null,&quot;index&quot;:null,&quot;origRot&quot;:0}"/><path fill="#1f1f1f" stroke-linecap="butt" stroke-width="0" d="M269.09945,519.76632c-5.44483,0.64095 -13.96393,-0.66895 -13.96393,-0.66895l-1.30034,-63.16986c0,0 3.78444,0.65634 6.20127,0.09016c2.83721,-0.66456 7.26196,-3.24388 7.26196,-3.24388l15.26149,63.09525c0,0 -8.20251,3.27829 -13.46045,3.89722z" data-paper-data="{&quot;origPos&quot;:null,&quot;index&quot;:null,&quot;origRot&quot;:0}"/><path fill="none" stroke-linecap="round" stroke-width="2.543" d="M265.56526,455.20603c0,0 6.14716,17.10628 8.99962,27.73164c3.33069,12.40657 6.84395,31.2849 6.84395,31.2849" data-paper-data="{&quot;origPos&quot;:null,&quot;origRot&quot;:0,&quot;index&quot;:null}"/><path fill="#1f1f1f" stroke-linecap="butt" stroke-width="0" d="M188.69087,517.0823l14.58651,-63.2547c0,0 4.45197,2.53182 7.29619,3.16614c2.42283,0.54027 6.20003,-0.15637 6.20003,-0.15637l-0.62531,63.18009c0,0 -8.50461,1.40086 -13.95598,0.81805c-5.26425,-0.56275 -13.50132,-3.75321 -13.50132,-3.75321z" data-paper-data="{&quot;origPos&quot;:null,&quot;origRot&quot;:0}"/><path fill="none" stroke-linecap="round" stroke-width="2.543" d="M187.41329,514.6661c0,0 4.27103,-19.51493 7.46891,-31.95636c2.73875,-10.65528 7.7431,-27.22607 7.7431,-27.22607" data-paper-data="{&quot;origPos&quot;:null,&quot;origRot&quot;:0}"/></g><path fill="#90704e" stroke="#000" stroke-linecap="butt" stroke-width="2" d="M42.6851,415.92951v-78.36445h929.66651v78.36445z" data-paper-data="{&quot;origPos&quot;:null}"/><path fill="#90704e" stroke="#000" stroke-linecap="butt" stroke-width="2" d="M-90.12443,306.39684l4.02453,-68.4579l128.78497,106.10971v71.88082z" data-paper-data="{&quot;origPos&quot;:null}"/><path fill="#90704e" stroke="#000" stroke-linecap="butt" stroke-width="2" d="M42.20511,343.16105l-128.78497,-105.85273l905.51933,-3.11335l148.90762,105.85277z" data-paper-data="{&quot;origPos&quot;:null}"/><path fill="#080808" stroke="#080808" stroke-linecap="butt" stroke-width="2.543" d="M-6.68154,255.93637l0.5015,-67.83782l142.73192,-8.991c0,0 23.31001,-3.6771 25.61368,3.003c2.30366,6.68011 -3.003,40.79279 -3.003,40.79279z" data-paper-data="{&quot;origPos&quot;:null}"/><path fill="#080808" stroke="#080808" stroke-linecap="butt" stroke-width="2.543" d="M303.70291,221.89734c0,0 -5.30667,-34.11268 -3.003,-40.79279c2.30366,-6.6801 25.61368,-3.00301 25.61368,-3.00301l156.74692,13.4985l3.003,63.33032z" data-paper-data="{&quot;origPos&quot;:null,&quot;index&quot;:null}"/><path fill="#ffd499" stroke="#806c4d" stroke-linecap="butt" stroke-width="2" d="M279.46622,294.67393c0,0 -12.87677,-21.04972 -12.10046,-35.06371c0.77633,-14.01401 15.83162,-32.29218 15.83162,-32.29218l64.51481,9.58243l-8.89624,53.2074z" data-paper-data="{&quot;origRot&quot;:0,&quot;origPos&quot;:null,&quot;index&quot;:null}"/><path id="ID0.5423141438513994" fill="#000" stroke="#000" stroke-linecap="round" stroke-width="2.543" d="M475.32057,222.59155c32.98724,-17.37873 40.79476,61.44646 14.42377,63.15317c-37.37191,2.41869 -184.52326,7.12349 -184.52326,7.12349c0,0 -6.67079,-20.98748 -5.63478,-33.99835c0.96019,-12.05868 5.62355,-29.08004 5.62355,-29.08004c0,0 146.79533,0.27171 170.11072,-7.19827z" data-paper-data="{&quot;origPos&quot;:null,&quot;index&quot;:null,&quot;origRot&quot;:0}"/><path fill="#ff2e2e" stroke="#000" stroke-linecap="butt" stroke-width="2" d="M247.56863,286.20151l-9.37987,-64.17627l12.76472,13.11661l16.20608,66.14433z" data-paper-data="{&quot;origPos&quot;:null,&quot;origRot&quot;:0,&quot;index&quot;:null}"/><path fill="#fff" stroke="#000" stroke-linecap="butt" stroke-width="2" d="M205.36121,286.91703l33.52758,-66.81987l14.04604,14.67257l-30.24117,69.3299z" data-paper-data="{&quot;origPos&quot;:null,&quot;origRot&quot;:0,&quot;index&quot;:null}"/><path fill="#ffd499" stroke="#806c4d" stroke-linecap="butt" stroke-width="2" d="M137.60084,290.83982l-8.63412,-53.25056l64.56122,-9.26461c0,0 14.9651,18.35209 15.67241,32.36976c0.70729,14.01764 -12.27299,35.00369 -12.27299,35.00369z" data-paper-data="{&quot;origRot&quot;:0,&quot;origPos&quot;:null,&quot;index&quot;:null}"/><path id="ID0.5423141438513994" fill="#000" stroke="#000" stroke-linecap="round" stroke-width="2.543" d="M171.50358,231.688c0,0 4.57947,17.04412 5.48027,29.10738c0.97193,13.0158 -5.80213,33.97018 -5.80213,33.97018c0,0 -147.1264,-5.42938 -184.48595,-8.03208c-26.36226,-1.83654 -18.15682,-79.62231 14.74444,-62.08135z" data-paper-data="{&quot;origPos&quot;:null,&quot;index&quot;:null,&quot;origRot&quot;:0}"/><g data-paper-data="{&quot;origPos&quot;:null}"><path id="ID0.7719937418587506" fill="#ffd499" stroke="#806c4d" stroke-linecap="butt" stroke-width="4" d="M245.69691,-73.33588c37.25111,1.77588 70.29156,18.28752 93.57935,43.52899c23.2878,25.24448 23.44787,62.85011 18.37796,104.87186c-3.49316,28.9531 -12.50502,57.50474 -36.89609,79.33701c-25.59957,22.91089 -63.48114,39.3128 -87.83206,38.26263c-24.35047,-1.05003 -60.80102,-14.45297 -84.08895,-39.69437c-23.28812,-25.24493 -37.19088,-52.63558 -35.42928,-89.32784c1.76165,-36.69251 9.36702,-79.63639 34.96719,-102.55029c25.59969,-22.91096 60.07097,-36.20402 97.32172,-34.42811z" data-paper-data="{&quot;origPos&quot;:null,&quot;origRot&quot;:0}"/><path id="ID0.479907026514411" fill="url(#color-4)" stroke="#666" stroke-linecap="round" stroke-width="4" d="M253.70855,-65.70043c13.98154,1.17879 7.63358,27.38688 7.74004,41.41695c0.2381,31.77712 7.52007,68.59222 -6.84743,97.96828c-12.2203,22.78597 -37.68358,38.34925 -62.62037,44.5316c-26.98374,5.62227 -54.8686,6.18809 -65.16699,-8.88167c-16.69283,-44.93028 -2.57313,-108.2281 28.13523,-146.09462c26.82991,-30.85368 58.10061,-32.35046 98.75942,-28.9405z" data-paper-data="{&quot;origPos&quot;:null,&quot;origRot&quot;:0}"/><path fill="none" stroke="#000" stroke-linecap="round" stroke-width="3.5" d="M260.99803,147.41947c0,0 -12.46003,0.299 -20.43508,-0.14968c-6.74347,-0.37939 -17.2793,-1.97214 -17.2793,-1.97214" data-paper-data="{&quot;origPos&quot;:null,&quot;index&quot;:null,&quot;origRot&quot;:0}"/><path fill="url(#color-5)" stroke="none" stroke-linecap="butt" stroke-width="0" d="M158.8067,72.00814c0.82543,-14.67093 13.38771,-25.89505 28.05867,-25.06968c14.67095,0.82543 25.89505,13.38771 25.06968,28.05867c-0.82543,14.67093 -13.38771,25.89505 -28.05867,25.06968c-14.67095,-0.82543 -25.89505,-13.38771 -25.06968,-28.05867z" data-paper-data="{&quot;origPos&quot;:null,&quot;origRot&quot;:0}"/><path fill="url(#color-6)" stroke="#666" stroke-linecap="butt" stroke-width="2" d="M167.73422,72.77431c0.53935,-9.58696 8.74838,-16.92152 18.33534,-16.38215c9.58696,0.53935 16.92152,8.74838 16.38215,18.33534c-0.53935,9.58696 -8.74838,16.92152 -18.33534,16.38215c-9.58696,-0.53935 -16.92152,-8.74838 -16.38215,-18.33534z" data-paper-data="{&quot;origPos&quot;:null,&quot;origRot&quot;:0}"/><path fill="#7a7a7a" stroke="none" stroke-linecap="butt" stroke-width="0" d="M123.5367,113.3373c0,0 11.865,-55.70024 24.23704,-91.78656c8.18161,-23.86396 28.36761,-60.73198 28.36761,-60.73198l81.2511,22.28694l0.55989,11.99115c0,0 -22.63299,-3.53174 -35.11028,-5.52141c-11.53022,-1.8386 -22.75131,-10.29014 -32.88105,-4.48353c-18.54974,10.63309 -19.67609,32.30924 -26.7524,52.4854c-9.56075,27.25962 -18.52877,79.86252 -18.52877,79.86252z" data-paper-data="{&quot;origRot&quot;:0,&quot;origPos&quot;:null}"/><path fill="#b0936a" stroke="none" stroke-linecap="butt" stroke-width="0" d="M265.3017,-4.51943l-0.01013,-11.55298l82.73332,4.99926c0,0 -17.56245,7.17025 -35.06616,7.26914c-17.63423,0.09941 -46.99736,-0.66375 -46.99736,-0.66375z" data-paper-data="{&quot;origPos&quot;:null,&quot;origRot&quot;:0}"/><path fill="#b0936a" stroke="none" stroke-linecap="butt" stroke-width="0" d="M129.22172,116.74771l13.03863,4.92648l-2.37762,17.2405c0,0 -5.46834,-7.10545 -7.47011,-11.10392c-2.14835,-4.29126 -3.19091,-11.06306 -3.19091,-11.06306z" data-paper-data="{&quot;origPos&quot;:null,&quot;origRot&quot;:0}"/><path id="ID0.5302143599838018" fill="url(#color-7)" stroke="#a96300" stroke-linecap="round" stroke-width="4.5" d="M267.64173,-118.85018c34.9736,2.24122 54.4623,6.31453 89.28788,10.23367c20.1648,2.26931 59.95572,4.91007 59.95572,4.91007c0,0 -26.10756,12.77961 -30.91167,13.76939c-8.91041,1.83582 -24.8728,6.43479 -24.8728,6.43479c0,0 12.1735,3.85444 20.69675,7.67368c9.16336,4.10608 23.36756,8.26746 23.36756,8.26746c0,0 -14.82531,5.34106 -24.10839,7.15703c-11.59666,2.26855 -27.43039,8.22949 -27.43039,8.22949c0,0 17.50555,10.38061 31.02106,14.17787c13.59175,3.81858 31.27126,11.26279 31.27126,11.26279c0,0 -26.18443,12.46516 -42.78457,13.99518c-41.87162,3.86433 -84.05799,-5.49449 -126.05335,-7.4566c-25.60165,-1.19948 -62.22648,-20.98794 -76.40543,1.09675c-37.15928,54.49539 -43.55737,197.56161 -53.23743,192.29581c-9.68048,-5.26621 -29.84566,-156.96091 -14.20849,-233.3546c6.04766,-29.52304 34.38607,-45.22816 69.42768,-57.45354c35.04159,-12.22518 63.85775,-2.63686 94.98473,-1.23939z" data-paper-data="{&quot;origPos&quot;:null,&quot;origRot&quot;:0}"/><path fill="#000" stroke="none" stroke-linecap="butt" stroke-width=".5" d="M328.82415,92.50223c-0.04011,-1.38013 1.0462,-2.53146 2.42633,-2.57156c1.38013,-0.04011 2.53146,1.0462 2.57156,2.42633c0.04011,1.38013 -1.0462,2.53146 -2.42633,2.57156c-1.38013,0.04011 -2.53146,-1.0462 -2.57156,-2.42633z" data-paper-data="{&quot;origPos&quot;:null,&quot;origRot&quot;:0}"/></g></g></g></svg>