<svg version="1.1" xmlns="http://www.w3.org/2000/svg" xmlns:xlink="http://www.w3.org/1999/xlink" width="258.80751" height="92.73886" viewBox="0,0,258.80751,92.73886"><g transform="translate(15.19097,-213.59315)"><g data-paper-data="{&quot;isPaintingLayer&quot;:true}" fill-rule="nonzero" stroke-linejoin="miter" stroke-miterlimit="10" stroke-dasharray="" stroke-dashoffset="0" style="mix-blend-mode: normal"><path d="M205.34297,287.92042l23.29956,-72.44347l13.85989,14.15995l-20.14537,74.79369z" data-paper-data="{&quot;origPos&quot;:null,&quot;origRot&quot;:0,&quot;index&quot;:null}" fill="#ffffff" stroke="#000000" stroke-width="2" stroke-linecap="butt"/><path d="M154.53648,289.95031l-11.79752,-52.64018l63.89303,-13.10208c0,0 16.03395,17.42601 17.57678,31.37646c1.54281,13.95042 -10.16155,35.67391 -10.16155,35.67391z" data-paper-data="{&quot;origRot&quot;:0,&quot;origPos&quot;:null,&quot;index&quot;:null}" fill="#ffd499" stroke="#806c4d" stroke-width="2" stroke-linecap="butt"/><path d="M14.42881,228.01593c23.68958,6.18157 170.35917,-0.134 170.35917,-0.134c0,0 5.58876,16.74035 7.20807,28.72833c1.74717,12.93457 -3.76393,34.25596 -3.76393,34.25596c0,0 -147.18813,3.36304 -184.63642,2.99517c-26.42488,-0.25957 -23.0566,-81.39109 10.8331,-65.84546z" data-paper-data="{&quot;origPos&quot;:null,&quot;index&quot;:null,&quot;origRot&quot;:0}" id="ID0.5423141438513994" fill="#000000" stroke="#000000" stroke-width="2.54325" stroke-linecap="round"/></g></g></svg>