<svg version="1.1" xmlns="http://www.w3.org/2000/svg" xmlns:xlink="http://www.w3.org/1999/xlink" width="128.21185" height="336.49621" viewBox="0,0,128.21185,336.49621"><defs><radialGradient cx="226.38832" cy="146.30203" r="97.28323" gradientUnits="userSpaceOnUse" id="color-1"><stop offset="0" stop-color="#00ffff"/><stop offset="1" stop-color="#003fff"/></radialGradient><linearGradient x1="236.31116" y1="190.11763" x2="258.84988" y2="188.52262" gradientUnits="userSpaceOnUse" id="color-2"><stop offset="0" stop-color="#3b3b3b"/><stop offset="1" stop-color="#000000"/></linearGradient><linearGradient x1="190.85124" y1="191.23233" x2="239.32575" y2="196.26233" gradientUnits="userSpaceOnUse" id="color-3"><stop offset="0" stop-color="#000000"/><stop offset="1" stop-color="#3b3b3b"/></linearGradient><radialGradient cx="207.42115" cy="67.89974" r="51.99462" gradientUnits="userSpaceOnUse" id="color-4"><stop offset="0" stop-color="#b6b6b6"/><stop offset="1" stop-color="#666666"/></radialGradient><radialGradient cx="215.96707" cy="75.99592" r="15.71829" gradientUnits="userSpaceOnUse" id="color-5"><stop offset="0" stop-color="#ff0000"/><stop offset="1" stop-color="#ff0000" stop-opacity="0"/></radialGradient><radialGradient cx="216.72873" cy="77.87158" r="10.27134" gradientUnits="userSpaceOnUse" id="color-6"><stop offset="0" stop-color="#ff0000"/><stop offset="1" stop-color="#d20000"/></radialGradient><linearGradient x1="173.8564" y1="3.4357" x2="293.53515" y2="5.51411" gradientUnits="userSpaceOnUse" id="color-7"><stop offset="0" stop-color="#cc7700"/><stop offset="1" stop-color="#946f48"/></linearGradient></defs><g transform="translate(-172.04331,-2.78412)"><g data-paper-data="{&quot;isPaintingLayer&quot;:true}" fill-rule="nonzero" stroke-linejoin="miter" stroke-miterlimit="10" stroke-dasharray="" stroke-dashoffset="0" style="mix-blend-mode: normal"><path d="M253.49583,252.1683c0,0 12.01633,16.33213 19.70641,27.10625c6.50463,9.11326 8.27077,16.04239 13.66147,25.85576c0.00903,0.01644 -20.64116,-0.23499 -20.64116,-0.23499c0,0 -8.4037,-33.72999 -24.98379,-34.50375c-4.14908,-0.40375 -2.66758,11.16246 -0.97379,14.97151c3.42702,7.70677 9.21535,19.67344 9.21535,19.67344l-21.37171,0.32228c0,0 -4.60033,-11.19467 -9.25158,-18.35983c-4.62027,-7.11743 -10.75553,-31.48753 -10.75553,-31.48753z" data-paper-data="{&quot;origPos&quot;:null,&quot;index&quot;:null}" fill="#333333" stroke="#000000" stroke-width="2.5" stroke-linecap="butt"/><path d="M199.40638,118.4485l51.06283,-2.97034l9.13978,137.04895l-50.23489,2.91172z" data-paper-data="{&quot;origPos&quot;:null,&quot;index&quot;:null,&quot;origRot&quot;:0}" id="ID0.9171315478160977" fill="url(#color-1)" stroke="#000000" stroke-width="2.54325" stroke-linecap="butt"/><g data-paper-data="{&quot;origPos&quot;:null,&quot;index&quot;:null,&quot;origRot&quot;:0}" stroke="#000000" stroke-width="0" stroke-linecap="butt"><path d="M230.75081,192.07132l-4.53575,0.39488l5.12003,-21.00856l-5.05072,0.89799l3.8238,-17.3295l16.18072,-1.66202l-4.80028,13.26313l3.46341,-0.43697l-5.241,20.08852l3.05345,0.062l-16.89515,32.05152z" data-paper-data="{&quot;index&quot;:null,&quot;origPos&quot;:null}" fill="#ffde00"/><path d="M229.16196,189.08216l-4.53575,0.39488l5.12005,-21.00856l-5.05072,0.89799l3.82381,-17.3295l16.18072,-1.66202l-4.80028,13.26313l3.46341,-0.43697l-5.24099,20.08852l3.05345,0.062l-15.50647,32.21175z" data-paper-data="{&quot;index&quot;:null,&quot;origPos&quot;:null}" fill="#ff0000"/><path d="M226.40284,189.01896l-4.53577,0.39488l5.12005,-21.00856l-5.05072,0.89799l3.82381,-17.3295l16.18072,-1.66202l-4.80028,13.26313l3.46341,-0.43698l-5.24099,20.08852l3.05344,0.062l-12.87473,30.47469z" data-paper-data="{&quot;index&quot;:null,&quot;origPos&quot;:null}" fill="#000000"/></g><path d="M231.71227,125.13152c0,0 6.17294,-3.59902 10.11457,-6.03507c3.94745,-2.43965 10.23204,-4.59539 10.23204,-4.59539c0,0 2.12337,20.89898 2.31239,23.4999c2.162,29.74393 9.67725,123.98233 9.67725,123.98233l-20.25443,2.41897z" data-paper-data="{&quot;origPos&quot;:null,&quot;index&quot;:null,&quot;origRot&quot;:0}" id="ID0.5423141438513994" fill="url(#color-2)" stroke="#000000" stroke-width="2.54325" stroke-linecap="round"/><path d="M232.09263,265.96871l-25.20958,0.28337c0,0 -5.39681,-93.94164 -7.44631,-123.69352c-0.17921,-2.60165 -1.05473,-23.90096 -1.05473,-23.90096c0,0 6.92476,1.43331 11.4179,3.21186c3.81293,1.50929 14.11954,4.1132 14.11954,4.1132z" data-paper-data="{&quot;origPos&quot;:null,&quot;index&quot;:null,&quot;origRot&quot;:0}" id="ID0.5423141438513994" fill="url(#color-3)" stroke="#000000" stroke-width="2.54325" stroke-linecap="round"/><path d="M251.63538,338.65324v-10.81353h43.16551v10.81353z" data-paper-data="{&quot;origPos&quot;:null}" fill="#ffffff" stroke="#000000" stroke-width="1" stroke-linecap="butt"/><path d="M244.98771,335.48749l-0.04432,-11.23762l7.17948,4.12973l-0.39886,10.14058z" data-paper-data="{&quot;origPos&quot;:null}" fill="#ffffff" stroke="#000000" stroke-width="1" stroke-linecap="butt"/><path d="M252.38878,327.80251l-6.60333,-3.7299l42.19052,0.41947l5.89425,3.21459z" data-paper-data="{&quot;origPos&quot;:null}" fill="#ffffff" stroke="#000000" stroke-width="1" stroke-linecap="butt"/><path d="M253.96206,336.34872v-6.55902h38.46782v6.55902z" data-paper-data="{&quot;origPos&quot;:null}" fill="#ff2e2e" stroke="#000000" stroke-width="0" stroke-linecap="butt"/><path d="M252.72116,326.37712l-0.88635,-0.79772l34.74513,0.17727l1.59544,0.62045z" data-paper-data="{&quot;origPos&quot;:null}" fill="#ff2e2e" stroke="#000000" stroke-width="0" stroke-linecap="butt"/><path d="M245.57151,330.78966l5.67266,2.4818" data-paper-data="{&quot;origPos&quot;:null}" fill="none" stroke="#000000" stroke-width="0.5" stroke-linecap="round"/><path d="M229.3429,21.97353c14.08719,0.24225 26.75377,6.09745 35.83797,15.36135c9.08424,9.26504 9.5771,23.46383 8.1458,39.39037c-0.98616,10.97343 -4.06089,21.85872 -13.02039,30.38349c-9.40347,8.94597 -23.51969,15.57526 -32.72716,15.45871c-9.20728,-0.11651 -23.12587,-4.75858 -32.21011,-14.02246c-9.08435,-9.26519 -14.64926,-19.4486 -14.40597,-33.32458c0.24332,-13.87607 2.62144,-30.18 12.02509,-39.12711c9.4035,-8.946 22.26769,-14.36211 36.35473,-14.11984z" data-paper-data="{&quot;origPos&quot;:null,&quot;origRot&quot;:0}" id="ID0.7719937418587506" fill="#ffd499" stroke="#806c4d" stroke-width="2.5" stroke-linecap="butt"/><path d="M232.45606,24.76469c5.29326,0.28435 3.1975,10.25405 3.39903,15.55084c0.45532,11.99694 3.62847,25.81532 -1.45921,37.07351c-4.35262,8.74495 -13.7891,14.91476 -23.13464,17.53608c-10.12496,2.43335 -20.64832,2.96768 -24.71048,-2.60454c-6.82021,-16.77463 -2.21618,-40.8395 8.94449,-55.49176c9.77674,-11.95947 21.56795,-12.88426 36.96074,-12.06413z" data-paper-data="{&quot;origPos&quot;:null,&quot;origRot&quot;:0}" id="ID0.479907026514411" fill="url(#color-4)" stroke="#666666" stroke-width="2.5" stroke-linecap="round"/><path d="M252.73832,70.72356c0.00078,4.87623 -0.57466,15.43519 -0.57466,15.43519" data-paper-data="{&quot;origPos&quot;:null,&quot;origRot&quot;:0}" id="ID0.21129454905167222" fill="none" stroke="#000000" stroke-width="2.5" stroke-linecap="round"/><path d="M237.65936,105.15919l-14.2661,-0.36756" data-paper-data="{&quot;origPos&quot;:null,&quot;index&quot;:null,&quot;origRot&quot;:0}" fill="none" stroke="#000000" stroke-width="2" stroke-linecap="round"/><path d="M200.25401,75.59104c0.22362,-8.67807 7.43983,-15.5318 16.1179,-15.30822c8.67809,0.22362 15.5318,7.43983 15.30822,16.1179c-0.22362,8.67807 -7.43983,15.5318 -16.1179,15.30822c-8.67809,-0.22362 -15.5318,-7.43983 -15.30822,-16.1179z" data-paper-data="{&quot;origPos&quot;:null,&quot;origRot&quot;:0}" fill="url(#color-5)" stroke="none" stroke-width="0" stroke-linecap="butt"/><path d="M205.53952,75.88292c0.1461,-5.67082 4.86167,-10.14949 10.53249,-10.00338c5.67082,0.1461 10.14949,4.86167 10.00338,10.53249c-0.1461,5.67082 -4.86167,10.14949 -10.53249,10.00338c-5.67082,-0.1461 -10.14949,-4.86167 -10.00338,-10.53249z" data-paper-data="{&quot;origPos&quot;:null,&quot;origRot&quot;:0}" fill="url(#color-6)" stroke="#666666" stroke-width="2" stroke-linecap="butt"/><path d="M185.35932,93.86977c0,0 3.83996,-21.16996 8.09695,-34.93913c2.81513,-9.10558 10.01383,-23.25979 10.01383,-23.25979l30.93831,7.4817l0.34931,4.52165c0,0 -8.58728,-1.07338 -13.32185,-1.68125c-4.37518,-0.56172 -8.70967,-3.62414 -12.46809,-1.31498c-6.88248,4.22857 -7.05856,12.42687 -9.49871,20.12715c-3.29687,10.40371 -5.9351,29.83653 -5.9351,29.83653z" data-paper-data="{&quot;origRot&quot;:0,&quot;origPos&quot;:null}" fill="#7a7a7a" stroke="none" stroke-width="0" stroke-linecap="butt"/><path d="M237.53738,47.73458l-0.13668,-4.36252l31.29924,0.93647c0,0 -6.54948,2.90959 -13.15809,3.14818c-6.65791,0.24033 -17.75477,0.28978 -17.75477,0.28978z" data-paper-data="{&quot;origPos&quot;:null,&quot;origRot&quot;:0}" fill="#b0936a" stroke="none" stroke-width="0" stroke-linecap="butt"/><path d="M187.94173,96.6415l5.1237,1.17622l-0.75158,5.66466z" data-paper-data="{&quot;origPos&quot;:null,&quot;origRot&quot;:0}" fill="#b0936a" stroke="none" stroke-width="0" stroke-linecap="butt"/><path d="M237.10634,4.53412c13.2325,0.44417 20.63867,1.75825 33.83455,2.83771c7.64072,0.62504 22.69694,1.16471 22.69694,1.16471c0,0 -9.71177,5.12604 -11.51452,5.55504c-3.34363,0.7957 -9.31847,2.7159 -9.31847,2.7159c0,0 4.64127,1.31552 7.90375,2.65974c3.50748,1.44517 8.91912,2.85327 8.91912,2.85327c0,0 -5.53691,2.18737 -9.0215,2.97986c-4.35304,0.99 -10.26364,3.42303 -10.26364,3.42303c0,0 6.72981,3.71864 11.8772,4.99713c5.17642,1.28569 11.93816,3.89346 11.93816,3.89346c0,0 -9.74443,5.00818 -15.99536,5.77684c-15.76713,1.94074 -31.80516,-1.10825 -47.686,-1.36629c-9.68148,-0.15856 -23.7393,-7.20993 -28.83961,1.29274c-13.40542,21.00583 -14.17639,75.10407 -17.89231,73.2269c-3.7161,-1.87731 -13.07521,-58.92836 -8.04874,-87.95596c1.94423,-11.21803 12.46479,-17.47446 25.55661,-22.49394c13.09182,-5.01943 24.08363,-1.73001 35.85388,-1.56024z" data-paper-data="{&quot;origPos&quot;:null,&quot;origRot&quot;:0}" id="ID0.5302143599838018" fill="url(#color-7)" stroke="#a96300" stroke-width="3.5" stroke-linecap="round"/><path d="M249.1216,242.92922c-2.03457,0.38798 -5.28011,0.12349 -5.28011,0.12349l-2.18904,-23.76972c0,0 1.44377,0.14554 2.3393,-0.13282c1.05129,-0.32675 2.64932,-1.41773 2.64932,-1.41773l7.44811,23.36611c0,0 -3.00284,1.456 -4.96756,1.83066z" data-paper-data="{&quot;origPos&quot;:null,&quot;index&quot;:null,&quot;origRot&quot;:0}" fill="#1f1f1f" stroke="#000000" stroke-width="0" stroke-linecap="butt"/><path d="M246.05336,218.69561c0,0 2.77657,6.28092 4.13726,10.20824c1.58881,4.58566 3.42049,11.60521 3.42049,11.60521" data-paper-data="{&quot;origPos&quot;:null,&quot;origRot&quot;:0,&quot;index&quot;:null}" fill="none" stroke="#000000" stroke-width="2.54325" stroke-linecap="round"/><path d="M218.74853,244.08046l3.79541,-24.229c0,0 1.74577,0.83434 2.83463,0.99687c0.92755,0.13843 2.3322,-0.22568 2.3322,-0.22568l1.46367,23.82537c0,0 -3.16717,0.75663 -5.23712,0.68365c-1.9989,-0.07048 -5.18873,-1.05121 -5.18873,-1.05121z" data-paper-data="{&quot;origPos&quot;:null,&quot;origRot&quot;:0}" fill="#1f1f1f" stroke="#000000" stroke-width="0" stroke-linecap="butt"/><path d="M218.2021,243.20429c0,0 1.0846,-7.46881 1.95505,-12.2432c0.74548,-4.08896 2.18561,-10.46804 2.18561,-10.46804" data-paper-data="{&quot;origPos&quot;:null,&quot;origRot&quot;:0}" fill="none" stroke="#000000" stroke-width="2.54325" stroke-linecap="round"/><path d="M191.44316,258.70788l-5.94716,-20.01756l14.0879,-4.36857l10.02346,17.46905c0,0 -3.28019,6.44133 -6.91349,7.72091c-5.6185,1.97872 -11.25071,-0.80384 -11.25071,-0.80384z" data-paper-data="{&quot;origRot&quot;:0,&quot;origPos&quot;:null,&quot;index&quot;:null}" fill="#ffd499" stroke="#806c4d" stroke-width="2" stroke-linecap="butt"/><path d="M201.30996,143.88817c0,0 -9.99833,13.44823 -9.9347,44.15824c0.06364,30.71002 17.2601,56.22451 17.2601,56.22451c0,0 -6.87259,3.86031 -10.00436,4.46238c-3.13177,0.60208 -11.47212,0.51112 -11.47212,0.51112c0,0 -9.95201,-25.91263 -13.8414,-57.86895c0.84302,-25.58903 11.11765,-65.24691 17.45016,-72.19656c2.11085,-2.31656 9.62013,-0.74607 9.62013,-0.74607z" data-paper-data="{&quot;origPos&quot;:null,&quot;index&quot;:null,&quot;origRot&quot;:0}" id="ID0.5423141438513994" fill="#000000" stroke="#000000" stroke-width="2.54325" stroke-linecap="round"/><path d="M259.72417,246.00068l6.96528,-14.84924l13.91681,7.447l-5.98272,14.8071c0,0 -4.86003,2.0357 -9.90342,-0.537c-4.50906,-2.30012 -4.99595,-6.86786 -4.99595,-6.86786z" data-paper-data="{&quot;origRot&quot;:0,&quot;origPos&quot;:null,&quot;index&quot;:null}" fill="#ffd499" stroke="#806c4d" stroke-width="2" stroke-linecap="butt"/><path d="M252.4004,117.90874c0,0 7.15139,-2.77729 9.61263,-0.83712c7.38372,5.82056 17.94498,41.88401 22.96114,66.99073c7.26005,30.92612 -6.1836,61.84922 -6.1836,61.84922c0,0 -5.6319,-2.48595 -9.23661,-4.50379c-3.03869,-1.701 -7.78627,-5.02526 -7.78627,-5.02526c0,0 12.16164,-21.48924 7.2025,-51.79627c-4.95919,-30.30703 -13.3169,-41.41399 -13.3169,-41.41399z" data-paper-data="{&quot;origPos&quot;:null,&quot;index&quot;:null,&quot;origRot&quot;:0}" id="ID0.5423141438513994" fill="#000000" stroke="#000000" stroke-width="2.54325" stroke-linecap="round"/></g></g></svg>