<svg xmlns="http://www.w3.org/2000/svg" xmlns:xlink="http://www.w3.org/1999/xlink" width="536.054" height="441.622" version="1.1" viewBox="0 0 536.054 441.622"><defs><radialGradient id="color-1" cx="92.24" cy="179.637" r="102.081" gradientUnits="userSpaceOnUse"><stop offset="0" stop-color="#0ff"/><stop offset="1" stop-color="#003fff"/></radialGradient><linearGradient id="color-2" x1="97.328" x2="121.014" y1="226.503" y2="227.544" gradientUnits="userSpaceOnUse"><stop offset="0" stop-color="#3b3b3b"/><stop offset="1" stop-color="#000"/></linearGradient><linearGradient id="color-3" x1="49.805" x2="99.733" y1="222.211" y2="233.27" gradientUnits="userSpaceOnUse"><stop offset="0" stop-color="#000"/><stop offset="1" stop-color="#3b3b3b"/></linearGradient><radialGradient id="color-4" cx="77.06" cy="93.622" r="54.559" gradientUnits="userSpaceOnUse"><stop offset="0" stop-color="#b6b6b6"/><stop offset="1" stop-color="#666"/></radialGradient><radialGradient id="color-5" cx="85.655" cy="99.963" r="16.494" gradientUnits="userSpaceOnUse"><stop offset="0" stop-color="red"/><stop offset="1" stop-color="red" stop-opacity="0"/></radialGradient><radialGradient id="color-6" cx="86.347" cy="101.971" r="10.778" gradientUnits="userSpaceOnUse"><stop offset="0" stop-color="red"/><stop offset="1" stop-color="#d20000"/></radialGradient><linearGradient id="color-7" x1="45.509" x2="170.794" y1="24.191" y2="33.087" gradientUnits="userSpaceOnUse"><stop offset="0" stop-color="#c70"/><stop offset="1" stop-color="#946f48"/></linearGradient></defs><g><g fill-rule="nonzero" stroke-dashoffset="0" stroke-linejoin="miter" stroke-miterlimit="10" data-paper-data="{&quot;isPaintingLayer&quot;:true}" transform="translate(-12.2599,-24.66302)" style="mix-blend-mode:normal"><path fill="#ffd499" stroke="#806c4d" stroke-linecap="butt" stroke-width="2" d="M129.72592,286.92209c0,0 -8.72345,0.47293 -12.95929,-2.12516c-4.23585,-2.59807 -7.3995,-10.36201 -7.3995,-10.36201l13.83259,-18.48982l15.08214,11.71766z" data-paper-data="{&quot;origRot&quot;:0,&quot;origPos&quot;:null,&quot;index&quot;:null}"/><path id="ID0.5423141438513994" fill="#000" stroke="#000" stroke-linecap="round" stroke-width="2.543" d="M123.56716,150.36484c0,0 7.83541,-1.84686 10.1112,0.5271c13.31744,12.99526 39.08665,56.67344 35.39741,64.59471c-5.22823,11.22573 -31.83963,60.24997 -31.83963,60.24997c0,0 -7.67269,-2.74439 -11.58736,-6.40244c-3.86676,-3.6133 -8.96881,-8.74824 -8.96881,-8.74824c0,0 27.25004,-44.32119 28.66366,-52.32879c-0.11131,-12.4765 -22.0677,-31.16545 -22.0677,-31.16545z" data-paper-data="{&quot;origPos&quot;:null,&quot;index&quot;:null,&quot;origRot&quot;:0}"/><g stroke="#000" stroke-linecap="butt" data-paper-data="{&quot;origRot&quot;:0,&quot;origPos&quot;:null}"><path fill="#333" stroke-width="2.5" d="M54.14624,440.76589l8.08648,-151.10603l53.26019,2.74906l-0.44487,150.11807l-19.25799,-0.81581c0,0 6.47612,-131.14147 -6.49407,-132.31149c-12.33706,-1.27709 -16.39562,131.52933 -16.39562,131.52933z" data-paper-data="{&quot;origPos&quot;:null,&quot;index&quot;:null}"/><path fill="#666" stroke-width="2.543" d="M26.76495,460.48765l0.53908,-12.43302c0,0 13.12438,-8.31625 21.78823,-9.93335c9.331,-1.74162 24.42768,-1.12598 24.42768,-1.12598l-1.10441,25.47171z" data-paper-data="{&quot;origPos&quot;:null,&quot;index&quot;:null}"/><path fill="#666" stroke-width="2.543" d="M94.38197,462.97966l1.10441,-25.47169c0,0 15.09332,0.69335 24.23855,3.23608c8.49135,2.36093 20.8201,12.39519 20.8201,12.39519l-0.51249,11.81978z" data-paper-data="{&quot;origPos&quot;:null,&quot;index&quot;:null}"/></g><g stroke="#000" data-paper-data="{&quot;origPos&quot;:null,&quot;origRot&quot;:0}"><path id="ID0.9171315478160977" fill="url(#color-1)" stroke-linecap="butt" stroke-width="2.543" d="M67.45499,147.36445l53.58637,3.02975l-6.91446,143.96204l-52.71626,-2.99153z" data-paper-data="{&quot;origPos&quot;:null,&quot;index&quot;:null,&quot;origRot&quot;:0}"/><g stroke-linecap="butt" stroke-width="0" data-paper-data="{&quot;origPos&quot;:null,&quot;index&quot;:null,&quot;origRot&quot;:0}"><path fill="#ffde00" d="M91.29699,227.8724l-4.77564,-0.13252l7.85778,-21.28592l-5.37282,0.33017l6.06516,-17.60623l17.06686,0.2087l-6.59521,13.25013l3.66283,-0.04001l-7.87352,20.31235l3.17559,0.43096l-21.45753,31.38488z" data-paper-data="{&quot;index&quot;:null,&quot;origPos&quot;:null}"/><path fill="red" d="M89.99933,224.56576l-4.77564,-0.13252l7.8578,-21.28592l-5.37282,0.33017l6.06517,-17.60623l17.06686,0.2087l-6.59521,13.25013l3.66283,-0.04001l-7.87351,20.31235l3.17559,0.43096l-20.02912,31.71851z" data-paper-data="{&quot;index&quot;:null,&quot;origPos&quot;:null}"/><path fill="#000" d="M87.13066,224.16887l-4.77566,-0.13252l7.8578,-21.28592l-5.37282,0.33017l6.06517,-17.60623l17.06686,0.2087l-6.59521,13.25013l3.66283,-0.04002l-7.87351,20.31235l3.17558,0.43096l-17.07729,30.22347z" data-paper-data="{&quot;index&quot;:null,&quot;origPos&quot;:null}"/></g><path id="ID0.5423141438513994" fill="url(#color-2)" stroke-linecap="round" stroke-width="2.543" d="M100.33022,158.20694c0,0 6.86671,-3.01117 11.26788,-5.07773c4.40768,-2.06961 11.21763,-3.56284 11.21763,-3.56284c0,0 -0.29382,22.04072 -0.40881,24.77469c-1.3147,31.2657 -4.78656,130.40534 -4.78656,130.40534l-21.40428,0.09165z" data-paper-data="{&quot;origPos&quot;:null,&quot;index&quot;:null,&quot;origRot&quot;:0}"/><path id="ID0.5423141438513994" fill="url(#color-3)" stroke-linecap="round" stroke-width="2.543" d="M83.83008,305.06707l-26.31352,-2.72908c0,0 5.64459,-98.57612 7.07751,-129.83662c0.12529,-2.73358 1.76798,-25.04189 1.76798,-25.04189c0,0 7.0467,2.32493 11.51716,4.71802c3.79368,2.03079 14.22532,5.98173 14.22532,5.98173z" data-paper-data="{&quot;origPos&quot;:null,&quot;index&quot;:null,&quot;origRot&quot;:0}"/><path fill="#1f1f1f" stroke-linecap="butt" stroke-width="0" d="M104.34589,283.09276c-2.16746,0.16035 -5.51901,-0.50474 -5.51901,-0.50474l0.56978,-25.04117c0,0 1.48758,0.32494 2.45451,0.1422c1.1351,-0.21449 2.93185,-1.16005 2.93185,-1.16005l4.96091,25.25136c0,0 -3.30495,1.15754 -5.39802,1.31236z" data-paper-data="{&quot;origPos&quot;:null,&quot;index&quot;:null,&quot;origRot&quot;:0}"/><path fill="none" stroke-linecap="round" stroke-width="2.543" d="M104.05481,257.46252c0,0 2.14086,6.88061 3.08814,11.13785c1.1061,4.97091 2.17336,12.50812 2.17336,12.50812" data-paper-data="{&quot;origPos&quot;:null,&quot;origRot&quot;:0,&quot;index&quot;:null}"/><path fill="#1f1f1f" stroke-linecap="butt" stroke-width="0" d="M72.54563,280.64892l6.86332,-24.80195c0,0 1.71975,1.07919 2.83534,1.37927c0.9503,0.25558 2.45825,0.04455 2.45825,0.04455l-1.33261,25.01215c0,0 -3.39236,0.40877 -5.5414,0.08434c-2.07527,-0.31327 -5.28284,-1.71834 -5.28284,-1.71834z" data-paper-data="{&quot;origPos&quot;:null,&quot;origRot&quot;:0}"/><path fill="none" stroke-linecap="round" stroke-width="2.543" d="M72.08112,279.67001c0,0 2.0267,-7.65566 3.50688,-12.52827c1.26767,-4.17306 3.53425,-10.6501 3.53425,-10.6501" data-paper-data="{&quot;origPos&quot;:null,&quot;origRot&quot;:0}"/></g><path fill="#90704e" stroke="#000" stroke-linecap="butt" stroke-width="2" d="M178.24476,349.2005l-51.05406,-41.96306l358.97388,-1.23422l59.03126,41.96308z" data-paper-data="{&quot;origPos&quot;:null}"/><path fill="#ff2e2e" stroke="#000" stroke-linecap="butt" stroke-width="2" d="M154.58148,326.84423l21.14864,-1.84989l3.02389,3.37388l-20.69411,2.58978z" data-paper-data="{&quot;origPos&quot;:null,&quot;origRot&quot;:0}"/><path fill="#fff" stroke="#000" stroke-linecap="butt" stroke-width="2" d="M194.63943,332.10665l-20.76251,-1.96756l2.92128,-3.4631l21.19464,1.21435z" data-paper-data="{&quot;origPos&quot;:null,&quot;origRot&quot;:0,&quot;index&quot;:null}"/><path fill="#fff" stroke="#000" stroke-linecap="butt" stroke-width="2" d="M209.98864,336.24979l-17.42198,-3.21845l2.03935,-6.4957l17.85783,2.73284z" data-paper-data="{&quot;origPos&quot;:null,&quot;origRot&quot;:0,&quot;index&quot;:null}"/><path fill="#ff2e2e" stroke="#000" stroke-linecap="butt" stroke-width="2" d="M200.60311,327.48035l-20.81285,2.77881l-3.35643,-2.61113l20.28397,-3.36374z" data-paper-data="{&quot;origPos&quot;:null,&quot;origRot&quot;:0}"/><path fill="#ff2e2e" stroke="#000" stroke-linecap="butt" stroke-width="2" d="M171.0958,329.18631l20.90811,1.93585l2.68908,3.2943l-20.52311,-1.24764z" data-paper-data="{&quot;origPos&quot;:null,&quot;origRot&quot;:0}"/><g stroke="#000" data-paper-data="{&quot;origRot&quot;:0,&quot;origPos&quot;:null}"><path fill="#fff" stroke-linecap="butt" stroke-width="1" d="M149.09033,315.35125l-0.05487,-7.63776l30.48845,-0.21914l0.05487,7.63776z" data-paper-data="{&quot;origPos&quot;:null}"/><path fill="#fff" stroke-linecap="butt" stroke-width="1" d="M144.37891,313.14902l-0.08835,-7.93708l5.09196,2.88046l-0.23023,7.16448z" data-paper-data="{&quot;origPos&quot;:null}"/><path fill="#fff" stroke-linecap="butt" stroke-width="1" d="M149.56739,307.68343l-4.68297,-2.60099l29.80195,0.08209l4.17951,2.24059z" data-paper-data="{&quot;origPos&quot;:null}"/><path fill="#ff2e2e" stroke-linecap="butt" stroke-width="0" d="M150.72203,313.71173l-0.03333,-4.63274l27.17043,-0.19532l0.03333,4.63274z" data-paper-data="{&quot;origPos&quot;:null}"/><path fill="#ff2e2e" stroke-linecap="butt" stroke-width="0" d="M149.79491,306.67492l-0.63008,-0.55894l24.54194,-0.05118l1.13005,0.43012z" data-paper-data="{&quot;origPos&quot;:null}"/><path fill="none" stroke-linecap="round" stroke-width=".5" d="M148.78671,311.55204l-4.01928,-1.72413" data-paper-data="{&quot;origPos&quot;:null}"/></g><path fill="#90704e" stroke="#000" stroke-linecap="butt" stroke-width="2" d="M176.64932,378.04801v-31.06592h368.54652v31.06592z" data-paper-data="{&quot;origPos&quot;:null}"/><path fill="#ff2e2e" stroke="#000" stroke-linecap="butt" stroke-width="2" d="M330.37974,342.66485l-19.19197,-14.38278l7.12933,-0.14804l21.71346,12.96273z" data-paper-data="{&quot;origPos&quot;:null,&quot;origRot&quot;:0,&quot;index&quot;:null}"/><path fill="#fff" stroke="#000" stroke-linecap="butt" stroke-width="2" d="M310.20027,328.10772l26.07006,-10.82405l1.17192,7.81949l-25.58496,12.38636z" data-paper-data="{&quot;origPos&quot;:null,&quot;origRot&quot;:0,&quot;index&quot;:null}"/><path fill="#ff2e2e" stroke="#000" stroke-linecap="butt" stroke-width="2" d="M317.01709,328.68717l-23.49015,-4.83825l6.38722,-3.1706l25.16662,2.47945z" data-paper-data="{&quot;origPos&quot;:null,&quot;origRot&quot;:0,&quot;index&quot;:null}"/><path fill="#fff" stroke="#000" stroke-linecap="butt" stroke-width="2" d="M290.41614,327.84879l27.14103,-7.75708l0.26576,7.90236l-26.83864,9.36478z" data-paper-data="{&quot;origPos&quot;:null,&quot;origRot&quot;:0,&quot;index&quot;:null}"/><path fill="#ff2e2e" stroke="#000" stroke-linecap="butt" stroke-width="2" d="M280.37916,326.00282l23.45659,-4.99849l-4.57717,5.46797l-24.04513,7.83188z" data-paper-data="{&quot;origPos&quot;:null,&quot;origRot&quot;:0,&quot;index&quot;:null}"/><path fill="#fff" stroke="#000" stroke-linecap="butt" stroke-width="2" d="M269.85377,327.61335l27.48891,-6.41629l-0.12224,7.90588l-27.26573,8.03689z" data-paper-data="{&quot;origPos&quot;:null,&quot;origRot&quot;:0,&quot;index&quot;:null}"/><path fill="#ff2e2e" stroke="#000" stroke-linecap="butt" stroke-width="2" d="M261.91371,330.70427l12.46462,-20.48975l0.83499,7.08181l-10.80796,22.86251z" data-paper-data="{&quot;origPos&quot;:null,&quot;origRot&quot;:0,&quot;index&quot;:null}"/><path fill="#fff" stroke="#000" stroke-linecap="butt" stroke-width="2" d="M247.07558,325.93888l17.96642,-21.77191l4.69717,6.36038l-16.80619,22.92518z" data-paper-data="{&quot;origPos&quot;:null,&quot;origRot&quot;:0,&quot;index&quot;:null}"/><g data-paper-data="{&quot;origPos&quot;:null,&quot;origRot&quot;:0}"><path id="ID0.7719937418587506" fill="#ffd499" stroke="#806c4d" stroke-linecap="butt" stroke-width="2.5" d="M102.60792,46.72987c14.74722,1.04469 27.69084,7.89096 36.68935,18.10782c8.9985,10.21804 8.71783,25.12352 6.324,41.73131c-1.64937,11.44282 -5.48222,22.67602 -15.34873,31.10547c-10.35535,8.84586 -25.51877,14.9997 -35.15999,14.36067c-9.64102,-0.63896 -23.9646,-6.28441 -32.96317,-16.50125c-8.9986,-10.21823 -14.25796,-21.20101 -13.22407,-35.72688c1.03392,-14.52597 4.44106,-31.47603 14.79669,-40.3231c10.35539,-8.84589 24.13877,-13.79882 38.8859,-12.75412z" data-paper-data="{&quot;origPos&quot;:null,&quot;origRot&quot;:0}"/><path id="ID0.479907026514411" fill="url(#color-4)" stroke="#666" stroke-linecap="round" stroke-width="2.5" d="M105.71325,49.82928c5.53041,0.59512 2.77476,10.9239 2.68858,16.48531c-0.19641,12.59617 2.35274,27.2535 -3.61024,38.76445c-5.05167,8.9188 -15.28579,14.85388 -25.22539,17.07591c-10.74573,1.98132 -21.80232,1.95042 -25.74591,-4.11631c-6.20463,-17.95965 -0.02947,-42.91684 12.48746,-57.64323c10.91563,-11.98252 23.32264,-12.28959 39.40546,-10.5661z" data-paper-data="{&quot;origPos&quot;:null,&quot;origRot&quot;:0}"/><path id="ID0.21129454905167222" fill="none" stroke="#000" stroke-linecap="round" stroke-width="2.5" d="M124.48016,96.50291c-0.27294,5.10946 -1.46865,16.14104 -1.46865,16.14104" data-paper-data="{&quot;origPos&quot;:null,&quot;origRot&quot;:0}"/><path fill="none" stroke="#000" stroke-linecap="round" stroke-width="2" d="M90.23112,133.05328l16.87632,1.84807" data-paper-data="{&quot;origPos&quot;:null,&quot;index&quot;:null,&quot;origRot&quot;:0}"/><path fill="url(#color-5)" stroke="none" stroke-linecap="butt" stroke-width="0" d="M69.21281,98.65673c0.72148,-9.08048 8.66755,-15.85684 17.74805,-15.13542c9.0805,0.72149 15.85684,8.66755 15.13542,17.74805c-0.72148,9.08048 -8.66755,15.85684 -17.74805,15.13542c-9.0805,-0.72149 -15.85684,-8.66755 -15.13542,-17.74805z" data-paper-data="{&quot;origPos&quot;:null,&quot;origRot&quot;:0}"/><path fill="url(#color-6)" stroke="#666" stroke-linecap="butt" stroke-width="2" d="M74.73467,99.25933c0.47143,-5.93379 5.6639,-10.36192 11.59772,-9.89045c5.93379,0.47143 10.36192,5.6639 9.89045,11.59772c-0.47143,5.93379 -5.6639,10.36192 -11.59772,9.89045c-5.93379,-0.47143 -10.36192,-5.6639 -9.89045,-11.59772z" data-paper-data="{&quot;origPos&quot;:null,&quot;origRot&quot;:0}"/><path fill="#7a7a7a" stroke="none" stroke-linecap="butt" stroke-width="0" d="M52.48489,119.59497c0,0 5.21205,-21.96672 10.44559,-36.15537c3.46093,-9.38297 11.79845,-23.80991 11.79845,-23.80991l31.99775,9.57631l0.11217,4.7575c0,0 -8.93765,-1.60679 -13.8645,-2.50955c-4.55288,-0.83418 -8.92271,-4.2864 -12.99049,-2.07781c-7.44897,4.04442 -8.09374,12.62486 -11.08286,20.55638c-4.0386,10.71613 -7.8939,30.93011 -7.8939,30.93011z" data-paper-data="{&quot;origRot&quot;:0,&quot;origPos&quot;:null}"/><path fill="#b0936a" stroke="none" stroke-linecap="butt" stroke-width="0" d="M109.74807,74.18281l0.10168,-4.57882l32.74339,2.73838c0,0 -7.02602,2.68104 -13.96405,2.56006c-6.98975,-0.12195 -18.62007,-0.69311 -18.62007,-0.69311z" data-paper-data="{&quot;origPos&quot;:null,&quot;origRot&quot;:0}"/><path fill="#b0936a" stroke="none" stroke-linecap="butt" stroke-width="0" d="M54.52982,122.10093l5.30268,1.52007l-1.10553,5.89337z" data-paper-data="{&quot;origPos&quot;:null,&quot;origRot&quot;:0}"/><path id="ID0.5302143599838018" fill="url(#color-7)" stroke="#a96300" stroke-linecap="round" stroke-width="3.5" d="M111.72165,28.89231c13.84033,1.20826 21.5269,3.00094 35.2932,4.87286c7.971,1.08388 23.7169,2.49459 23.7169,2.49459c0,0 -10.46398,4.82596 -12.377,5.17427c-3.5482,0.64605 -9.91654,2.32266 -9.91654,2.32266c0,0 4.78937,1.63901 8.13239,3.23062c3.59407,1.71118 9.18544,3.49041 9.18544,3.49041c0,0 -5.92448,1.98112 -9.62019,2.61591c-4.61678,0.79297 -10.94659,3.01054 -10.94659,3.01054c0,0 6.84285,4.27427 12.16464,5.90287c5.35177,1.63777 12.29046,4.74986 12.29046,4.74986c0,0 -10.49156,4.70062 -17.08457,5.15512c-16.63005,1.14838 -33.26384,-2.94676 -49.88961,-4.10867c-10.13555,-0.70965 -24.46975,-8.8874 -30.29128,-0.26446c-15.22575,21.25776 -19.07057,77.89966 -22.8588,75.72412c-3.78842,-2.17571 -10.39225,-62.48033 -3.49586,-92.61382c2.66697,-11.64533 14.04184,-17.61031 28.04151,-22.13489c13.99966,-4.52447 25.33243,-0.46072 37.65598,0.37796z" data-paper-data="{&quot;origPos&quot;:null,&quot;origRot&quot;:0}"/></g><path fill="#ff2e2e" stroke="#000" stroke-linecap="butt" stroke-width="2" d="M248.51265,328.47641l-3.0073,-23.79395l5.06349,5.02099l5.78113,24.6188z" data-paper-data="{&quot;origPos&quot;:null,&quot;origRot&quot;:0,&quot;index&quot;:null}"/><path fill="#fff" stroke="#000" stroke-linecap="butt" stroke-width="2" d="M231.19311,328.12584l14.62456,-24.14395l5.56863,5.61323l-13.30958,25.11706z" data-paper-data="{&quot;origPos&quot;:null,&quot;origRot&quot;:0,&quot;index&quot;:null}"/><path fill="#fff" stroke="#000" stroke-linecap="butt" stroke-width="2" d="M288.74748,327.67759l-4.84362,-6.09895l20.2171,2.95855l6.6673,6.70271z" data-paper-data="{&quot;origPos&quot;:null,&quot;origRot&quot;:0}"/><path fill="#fff" stroke="#000" stroke-linecap="butt" stroke-width="2" d="M310.87982,328.96147l-5.15739,-5.83602l20.34463,1.89218l7.01028,6.34313z" data-paper-data="{&quot;origPos&quot;:null,&quot;origRot&quot;:0}"/><path fill="#fff" stroke="#000" stroke-linecap="butt" stroke-width="2" d="M268.88971,325.46299l-5.09228,-5.89291l20.32236,2.11792l6.93944,6.42054z" data-paper-data="{&quot;origPos&quot;:null,&quot;origRot&quot;:0}"/><path fill="#fff" stroke="#000" stroke-linecap="butt" stroke-width="2" d="M245.15019,308.84392l-5.45612,-5.55773l20.41582,0.82346l7.33306,5.96703z" data-paper-data="{&quot;origPos&quot;:null,&quot;origRot&quot;:0}"/><path fill="#ff2e2e" stroke="#000" stroke-linecap="butt" stroke-width="2" d="M323.83372,327.21639l-13.03134,-19.79323l6.67791,2.24763l15.85078,19.31657z" data-paper-data="{&quot;origPos&quot;:null,&quot;origRot&quot;:0,&quot;index&quot;:null}"/><path fill="#fff" stroke="#000" stroke-linecap="butt" stroke-width="2" d="M299.63917,314.90415l27.45168,-4.93584l-0.52203,7.79527l-27.31374,6.54637z" data-paper-data="{&quot;origPos&quot;:null,&quot;origRot&quot;:0,&quot;index&quot;:null}"/><path fill="#ff2e2e" stroke="#000" stroke-linecap="butt" stroke-width="2" d="M295.98715,321.03826l11.85376,-20.52014l0.98362,6.97701l-10.16406,22.82693z" data-paper-data="{&quot;origPos&quot;:null,&quot;origRot&quot;:0,&quot;index&quot;:null}"/><path fill="#fff" stroke="#000" stroke-linecap="butt" stroke-width="2" d="M282.75158,320.91554l17.75262,-21.51283l4.64127,6.28469l-16.60619,22.65237z" data-paper-data="{&quot;origPos&quot;:null,&quot;origRot&quot;:0,&quot;index&quot;:null}"/><path fill="#ff2e2e" stroke="#000" stroke-linecap="butt" stroke-width="2" d="M283.10535,321.31325l-8.17845,-22.24187l5.99009,3.71012l11.03233,22.42018z" data-paper-data="{&quot;origPos&quot;:null,&quot;origRot&quot;:0,&quot;index&quot;:null}"/><path fill="#fff" stroke="#000" stroke-linecap="butt" stroke-width="2" d="M263.426,329.32846l17.75262,-21.51283l4.64127,6.28469l-16.60619,22.65237z" data-paper-data="{&quot;origPos&quot;:null,&quot;origRot&quot;:0,&quot;index&quot;:null}"/><path fill="#ff2e2e" stroke="#000" stroke-linecap="butt" stroke-width="2" d="M262.19723,307.68175l4.48133,-23.27026l3.2139,6.27033l-2.12945,24.89663z" data-paper-data="{&quot;origPos&quot;:null,&quot;origRot&quot;:0,&quot;index&quot;:null}"/><path fill="#fff" stroke="#000" stroke-linecap="butt" stroke-width="2" d="M245.4807,304.41807l26.39774,-14.15114l1.79453,7.60385l-25.66402,14.16459z" data-paper-data="{&quot;origPos&quot;:null,&quot;origRot&quot;:0,&quot;index&quot;:null}"/><path fill="#fff" stroke="#000" stroke-linecap="butt" stroke-width="2" d="M304.10795,315.7309l-4.78598,-6.02637l19.97651,2.92334l6.58797,6.62296z" data-paper-data="{&quot;origPos&quot;:null,&quot;origRot&quot;:0}"/><path fill="#fff" stroke="#000" stroke-linecap="butt" stroke-width="2" d="M284.4865,313.54267l-5.03169,-5.82279l20.08052,2.09272l6.85686,6.34414z" data-paper-data="{&quot;origPos&quot;:null,&quot;origRot&quot;:0}"/><path fill="#fff" stroke="#000" stroke-linecap="butt" stroke-width="2" d="M261.63358,310.38877l-4.85947,-5.96726l20.01083,2.67831l6.66865,6.5417z" data-paper-data="{&quot;origPos&quot;:null,&quot;origRot&quot;:0}"/><path fill="#ffd499" stroke="#806c4d" stroke-linecap="butt" stroke-width="2" d="M37.67979,262.31323l16.4361,-9.72774l11.39729,20.0827c0,0 -4.115,7.30439 -8.64396,9.34911c-4.52897,2.04472 -13.12366,0.47841 -13.12366,0.47841z" data-paper-data="{&quot;origRot&quot;:0,&quot;origPos&quot;:null,&quot;index&quot;:null}"/><path id="ID0.5423141438513994" fill="#000" stroke="#000" stroke-linecap="round" stroke-width="2.543" d="M63.95766,174.34859c0,0 -24.13255,15.7791 -25.81213,28.14255c0.39529,8.1218 21.8547,55.51828 21.8547,55.51828c0,0 -5.70736,4.4525 -9.99786,7.55077c-4.34367,3.13666 -12.3006,4.89427 -12.3006,4.89427c0,0 -20.23435,-51.98186 -24.00922,-63.77599c-2.66369,-8.32237 28.39428,-48.41275 43.24036,-59.62989c2.55629,-2.06888 10.0972,0.74877 10.0972,0.74877z" data-paper-data="{&quot;origPos&quot;:null,&quot;index&quot;:null,&quot;origRot&quot;:0}"/><path fill="#ff2e2e" stroke="#000" stroke-linecap="butt" stroke-width="2" d="M240.78306,305.17298l1.06464,-23.67391l4.08795,5.73889l1.49795,24.94259z" data-paper-data="{&quot;origPos&quot;:null,&quot;origRot&quot;:0,&quot;index&quot;:null}"/><path fill="#fff" stroke="#000" stroke-linecap="butt" stroke-width="2" d="M352.77911,338.59974l-20.60173,-18.80229l6.50811,-4.32242l21.79697,17.71404z" data-paper-data="{&quot;origPos&quot;:null,&quot;origRot&quot;:0,&quot;index&quot;:null}"/><path fill="#fff" stroke="#000" stroke-linecap="butt" stroke-width="2" d="M245.85114,285.73283l-4.38021,-6.32744l19.74162,4.22792l6.13918,7.04097z" data-paper-data="{&quot;origPos&quot;:null,&quot;origRot&quot;:0}"/><path fill="#fff" stroke="#000" stroke-linecap="butt" stroke-width="2" d="M329.61797,327.90119l-7.09235,-2.98685l18.92537,-7.03116l8.95942,2.64455z" data-paper-data="{&quot;origPos&quot;:null,&quot;origRot&quot;:0}"/><path fill="#ff2e2e" stroke="#000" stroke-linecap="butt" stroke-width="2" d="M361.81108,314.17565l-21.07894,-11.44005l7.03208,-1.18287l23.36721,9.66853z" data-paper-data="{&quot;origPos&quot;:null,&quot;origRot&quot;:0,&quot;index&quot;:null}"/><path fill="#fff" stroke="#000" stroke-linecap="butt" stroke-width="2" d="M345.70621,334.50789l0.09877,-28.22761l7.6644,1.9429l1.52959,28.38436z" data-paper-data="{&quot;origPos&quot;:null,&quot;origRot&quot;:0,&quot;index&quot;:null}"/><path fill="#ff2e2e" stroke="#000" stroke-linecap="butt" stroke-width="2" d="M307.38066,329.71647l2.17216,-23.88469l3.8672,5.99115l0.35985,25.28591z" data-paper-data="{&quot;origPos&quot;:null,&quot;origRot&quot;:0,&quot;index&quot;:null}"/><path fill="#fff" stroke="#000" stroke-linecap="butt" stroke-width="2" d="M295.55978,325.41845l19.46789,-20.4404l4.2334,6.67803l-18.39253,21.67318z" data-paper-data="{&quot;origPos&quot;:null,&quot;origRot&quot;:0,&quot;index&quot;:null}"/><path fill="#ff2e2e" stroke="#000" stroke-linecap="butt" stroke-width="2" d="M293.64301,325.20422l2.17216,-23.88469l3.8672,5.99115l0.35985,25.28591z" data-paper-data="{&quot;origPos&quot;:null,&quot;origRot&quot;:0,&quot;index&quot;:null}"/><path fill="#fff" stroke="#000" stroke-linecap="butt" stroke-width="2" d="M276.80278,321.14278l19.46789,-20.4404l4.2334,6.67803l-18.39253,21.67318z" data-paper-data="{&quot;origPos&quot;:null,&quot;origRot&quot;:0,&quot;index&quot;:null}"/><path fill="#ff2e2e" stroke="#000" stroke-linecap="butt" stroke-width="2" d="M283.64426,318.71051l5.30091,-23.39011l3.04392,6.44855l-2.97564,25.11279z" data-paper-data="{&quot;origPos&quot;:null,&quot;origRot&quot;:0,&quot;index&quot;:null}"/><path fill="#fff" stroke="#000" stroke-linecap="butt" stroke-width="2" d="M264.39771,317.65557l23.7833,-15.20405l2.51745,7.49535l-23.0332,16.65783z" data-paper-data="{&quot;origPos&quot;:null,&quot;origRot&quot;:0,&quot;index&quot;:null}"/><path fill="#ff2e2e" stroke="#000" stroke-linecap="butt" stroke-width="2" d="M257.84256,281.98059l1.07745,-23.95903l4.13719,5.80801l1.51599,25.24299z" data-paper-data="{&quot;origPos&quot;:null,&quot;origRot&quot;:0,&quot;index&quot;:null}"/><path fill="#fff" stroke="#000" stroke-linecap="butt" stroke-width="2" d="M240.83418,278.69364l18.51261,-21.30942l4.5344,6.47744l-17.382,22.49172z" data-paper-data="{&quot;origPos&quot;:null,&quot;origRot&quot;:0,&quot;index&quot;:null}"/><path fill="#fff" stroke="#000" stroke-linecap="butt" stroke-width="2" d="M309.37019,311.32867l-4.72971,-6.1877l20.15878,3.33286l6.54189,6.82517z" data-paper-data="{&quot;origPos&quot;:null,&quot;origRot&quot;:0}"/><path fill="#fff" stroke="#000" stroke-linecap="butt" stroke-width="2" d="M337.8735,328.12223l-6.70554,3.9615l5.70303,-19.62038l7.5537,-5.68516z" data-paper-data="{&quot;origPos&quot;:null,&quot;origRot&quot;:0}"/><path fill="#fff" stroke="#000" stroke-linecap="butt" stroke-width="2" d="M314.58199,311.01772l-3.40964,-7.00228l19.09845,7.26177l5.05956,7.98624z" data-paper-data="{&quot;origPos&quot;:null,&quot;origRot&quot;:0}"/><path fill="#fff" stroke="#000" stroke-linecap="butt" stroke-width="2" d="M268.7129,308.77372l-6.52357,-4.25449l20.11532,-3.58581l8.44461,4.25062z" data-paper-data="{&quot;origPos&quot;:null,&quot;origRot&quot;:0}"/><path fill="#ff2e2e" stroke="#000" stroke-linecap="butt" stroke-width="2" d="M331.33541,333.97233l0.41155,-23.69428l4.24461,5.62401l2.18504,24.89182z" data-paper-data="{&quot;origPos&quot;:null,&quot;origRot&quot;:0,&quot;index&quot;:null}"/><path fill="#fff" stroke="#000" stroke-linecap="butt" stroke-width="2" d="M323.25845,327.99724l19.63631,-19.8084l4.0502,6.68091l-18.59833,21.04751z" data-paper-data="{&quot;origPos&quot;:null,&quot;origRot&quot;:0,&quot;index&quot;:null}"/><path fill="#ff2e2e" stroke="#000" stroke-linecap="butt" stroke-width="2" d="M354.74043,327.738l6.52831,-22.7809l2.64489,6.53076l-4.33,24.60951z" data-paper-data="{&quot;origPos&quot;:null,&quot;origRot&quot;:0,&quot;index&quot;:null}"/><path fill="#fff" stroke="#000" stroke-linecap="butt" stroke-width="2" d="M339.14659,320.67952l22.67845,-16.23716l2.87321,7.26522l-21.86282,17.63272z" data-paper-data="{&quot;origPos&quot;:null,&quot;origRot&quot;:0,&quot;index&quot;:null}"/><path fill="#ff2e2e" stroke="#000" stroke-linecap="butt" stroke-width="2" d="M332.76571,318.6368l14.86008,-18.45986l-0.09785,7.04533l-13.54407,20.99846z" data-paper-data="{&quot;origPos&quot;:null,&quot;origRot&quot;:0,&quot;index&quot;:null}"/><path fill="#fff" stroke="#000" stroke-linecap="butt" stroke-width="2" d="M321.13506,306.07824l27.20323,-6.15969l-0.17257,7.81082l-26.99334,7.76243z" data-paper-data="{&quot;origPos&quot;:null,&quot;origRot&quot;:0,&quot;index&quot;:null}"/><path fill="#ff2e2e" stroke="#000" stroke-linecap="butt" stroke-width="2" d="M303.38374,321.01772l-15.95472,-17.5224l6.94645,1.18027l18.66553,16.6125z" data-paper-data="{&quot;origPos&quot;:null,&quot;origRot&quot;:0,&quot;index&quot;:null}"/><path fill="#fff" stroke="#000" stroke-linecap="butt" stroke-width="2" d="M264.57669,311.05504l24.07891,-17.81295l2.87319,7.26523l-23.35094,17.72037z" data-paper-data="{&quot;origPos&quot;:null,&quot;origRot&quot;:0,&quot;index&quot;:null}"/><path fill="#fff" stroke="#000" stroke-linecap="butt" stroke-width="2" d="M313.72577,322.16039l-7.57089,-1.37996l16.95346,-10.96301l9.31952,0.64145z" data-paper-data="{&quot;origPos&quot;:null,&quot;origRot&quot;:0}"/><path fill="#fff" stroke="#000" stroke-linecap="butt" stroke-width="2" d="M347.45197,306.47259l-0.41883,-7.68422l14.60558,13.93858l1.54381,9.2131z" data-paper-data="{&quot;origPos&quot;:null,&quot;origRot&quot;:0}"/><path fill="#fff" stroke="#000" stroke-linecap="butt" stroke-width="2" d="M310.63044,310.84182l-5.38974,-5.49302l20.17265,0.819l7.24424,5.89794z" data-paper-data="{&quot;origPos&quot;:null,&quot;origRot&quot;:0}"/><path fill="#ff2e2e" stroke="#000" stroke-linecap="butt" stroke-width="2" d="M239.79958,250.85472l-13.52245,-19.46102l6.73205,2.07986l16.32906,18.91398z" data-paper-data="{&quot;origPos&quot;:null,&quot;origRot&quot;:0,&quot;index&quot;:null}"/><path fill="#fff" stroke="#000" stroke-linecap="butt" stroke-width="2" d="M376.15507,321.92689l25.35391,-11.62485l1.43815,7.67922l-24.81874,13.15012z" data-paper-data="{&quot;origPos&quot;:null,&quot;origRot&quot;:0,&quot;index&quot;:null}"/><path fill="#fff" stroke="#000" stroke-linecap="butt" stroke-width="2" d="M289.79706,306.07869l-3.16555,-7.01441l18.65355,7.72346l4.76675,8.03385z" data-paper-data="{&quot;origPos&quot;:null,&quot;origRot&quot;:0}"/><path fill="#fff" stroke="#000" stroke-linecap="butt" stroke-width="2" d="M408.2063,304.79025l7.49969,1.72554l-17.43815,10.17436l-9.28032,-1.06794z" data-paper-data="{&quot;origPos&quot;:null,&quot;origRot&quot;:0}"/><path fill="#ff2e2e" stroke="#000" stroke-linecap="butt" stroke-width="2" d="M238.40069,334.0397l-3.37866,-26.73221l5.68877,5.64102l6.49503,27.65891z" data-paper-data="{&quot;origPos&quot;:null,&quot;origRot&quot;:0,&quot;index&quot;:null}"/><path fill="#fff" stroke="#000" stroke-linecap="butt" stroke-width="2" d="M218.94241,333.64583l16.43052,-27.12542l6.25628,6.30638l-14.95314,28.2187z" data-paper-data="{&quot;origPos&quot;:null,&quot;origRot&quot;:0,&quot;index&quot;:null}"/><path fill="#ff2e2e" stroke="#000" stroke-linecap="butt" stroke-width="2" d="M216.67994,333.29071l-3.37866,-26.7322l5.68877,5.64102l6.49503,27.65891z" data-paper-data="{&quot;origPos&quot;:null,&quot;origRot&quot;:0,&quot;index&quot;:null}"/><path fill="#fff" stroke="#000" stroke-linecap="butt" stroke-width="2" d="M197.22165,332.89685l16.43051,-27.12542l6.25628,6.30639l-14.95314,28.2187z" data-paper-data="{&quot;origPos&quot;:null,&quot;origRot&quot;:0,&quot;index&quot;:null}"/><path fill="#fff" stroke="#000" stroke-linecap="butt" stroke-width="2" d="M213.80772,312.63311l-6.4495,-5.91333l22.95384,-0.28132l8.57947,6.26173z" data-paper-data="{&quot;origPos&quot;:null,&quot;origRot&quot;:0}"/><path fill="#fff" stroke="#000" stroke-linecap="butt" stroke-width="2" d="M233.73379,305.99404l20.55119,-23.65597l5.03372,7.1907l-19.29606,24.96847z" data-paper-data="{&quot;origPos&quot;:null,&quot;origRot&quot;:0,&quot;index&quot;:null}"/><path fill="#ff2e2e" stroke="#000" stroke-linecap="butt" stroke-width="2" d="M231.5903,305.26855l1.19611,-26.59733l4.59276,6.44757l1.68292,28.02268z" data-paper-data="{&quot;origPos&quot;:null,&quot;origRot&quot;:0,&quot;index&quot;:null}"/><path fill="#fff" stroke="#000" stroke-linecap="butt" stroke-width="2" d="M211.58927,303.70676l21.6709,-25.7431l5.03372,7.19071l-20.89949,25.45216z" data-paper-data="{&quot;origPos&quot;:null,&quot;origRot&quot;:0,&quot;index&quot;:null}"/><path fill="#fff" stroke="#000" stroke-linecap="butt" stroke-width="2" d="M232.26014,284.67133l-5.28783,-6.84041l22.3984,3.57806l7.3034,7.5371z" data-paper-data="{&quot;origPos&quot;:null,&quot;origRot&quot;:0}"/><path fill="#ff2e2e" stroke="#000" stroke-linecap="butt" stroke-width="2" d="M207.97077,301.19797l1.19611,-26.59733l4.59276,6.44757l1.68292,28.02268z" data-paper-data="{&quot;origPos&quot;:null,&quot;origRot&quot;:0,&quot;index&quot;:null}"/><path fill="#fff" stroke="#000" stroke-linecap="butt" stroke-width="2" d="M212.76382,280.93132l-5.28783,-6.84041l22.3984,3.57806l7.3034,7.5371z" data-paper-data="{&quot;origPos&quot;:null,&quot;origRot&quot;:0}"/><path fill="#ff2e2e" stroke="#000" stroke-linecap="butt" stroke-width="2" d="M253.40934,278.45589l-21.44575,-16.31277l8.01069,-0.109l24.28995,14.73767z" data-paper-data="{&quot;origPos&quot;:null,&quot;origRot&quot;:0,&quot;index&quot;:null}"/><path fill="#fff" stroke="#000" stroke-linecap="butt" stroke-width="2" d="M235.4444,274.11285l25.8565,-18.36278l3.23514,8.27318l-24.93522,19.9531z" data-paper-data="{&quot;origPos&quot;:null,&quot;origRot&quot;:0,&quot;index&quot;:null}"/><path fill="#ff2e2e" stroke="#000" stroke-linecap="butt" stroke-width="2" d="M233.10685,281.41508l-6.37204,-26.18058l6.28868,4.96342l9.57303,26.74991z" data-paper-data="{&quot;origPos&quot;:null,&quot;origRot&quot;:0,&quot;index&quot;:null}"/><path fill="#fff" stroke="#000" stroke-linecap="butt" stroke-width="2" d="M213.7283,283.21826l13.26639,-28.80543l6.92762,5.56056l-11.67516,29.72511z" data-paper-data="{&quot;origPos&quot;:null,&quot;origRot&quot;:0,&quot;index&quot;:null}"/><path fill="#fff" stroke="#000" stroke-linecap="butt" stroke-width="2" d="M218.83417,261.75879l-7.84684,-3.87178l21.95765,-6.69478l9.98918,3.61009z" data-paper-data="{&quot;origPos&quot;:null,&quot;origRot&quot;:0}"/><path fill="#fff" stroke="#000" stroke-linecap="butt" stroke-width="2" d="M231.10087,250.70626l1.9754,-31.27386l8.36485,2.65967l-0.18127,31.55518z" data-paper-data="{&quot;origPos&quot;:null,&quot;origRot&quot;:0,&quot;index&quot;:null}"/><path fill="#ff2e2e" stroke="#000" stroke-linecap="butt" stroke-width="2" d="M228.957,251.43061l-15.19229,-21.86421l7.56337,2.33669l18.34549,21.24961z" data-paper-data="{&quot;origPos&quot;:null,&quot;origRot&quot;:0,&quot;index&quot;:null}"/><path fill="#fff" stroke="#000" stroke-linecap="butt" stroke-width="2" d="M212.11329,262.32876l1.59853,-33.61219l8.36485,2.65967l-1.16203,32.91278z" data-paper-data="{&quot;origPos&quot;:null,&quot;origRot&quot;:0,&quot;index&quot;:null}"/><path fill="#fff" stroke="#000" stroke-linecap="butt" stroke-width="2" d="M216.98815,234.65443l-8.3542,-2.22703l19.97279,-10.75074l10.37892,1.5574z" data-paper-data="{&quot;origPos&quot;:null,&quot;origRot&quot;:0}"/><path fill="#ff2e2e" stroke="#000" stroke-linecap="butt" stroke-width="2" d="M203.6659,262.61652l-5.60597,-26.02734l6.0812,5.06789l8.75279,26.6738z" data-paper-data="{&quot;origPos&quot;:null,&quot;origRot&quot;:0,&quot;index&quot;:null}"/><path fill="#fff" stroke="#000" stroke-linecap="butt" stroke-width="2" d="M199.22351,243.51508l-8.3542,-2.22703l19.97279,-10.75074l10.37892,1.55741z" data-paper-data="{&quot;origPos&quot;:null,&quot;origRot&quot;:0}"/><path fill="#ff2e2e" stroke="#000" stroke-linecap="butt" stroke-width="2" d="M393.2639,332.13844l-25.35025,9.13187l4.26335,-6.78283l25.57442,-12.37536z" data-paper-data="{&quot;origPos&quot;:null,&quot;origRot&quot;:0,&quot;index&quot;:null}"/><path fill="#fff" stroke="#000" stroke-linecap="butt" stroke-width="2" d="M354.1561,332.93397l20.11806,-24.51558l5.29673,7.13135l-18.81101,25.8077z" data-paper-data="{&quot;origPos&quot;:null,&quot;origRot&quot;:0,&quot;index&quot;:null}"/><path fill="#ff2e2e" stroke="#000" stroke-linecap="butt" stroke-width="2" d="M353.01926,338.56863l-20.20091,-17.83113l7.99736,0.47462l23.15227,16.46733z" data-paper-data="{&quot;origPos&quot;:null,&quot;origRot&quot;:0,&quot;index&quot;:null}"/><path fill="#fff" stroke="#000" stroke-linecap="butt" stroke-width="2" d="M327.03352,323.07611l30.16993,-9.7737l0.60817,8.86238l-29.76738,11.56696z" data-paper-data="{&quot;origPos&quot;:null,&quot;origRot&quot;:0,&quot;index&quot;:null}"/><path fill="#fff" stroke="#000" stroke-linecap="butt" stroke-width="2" d="M347.35105,325.13705l-4.32715,-7.60521l21.93577,6.76615l6.24788,8.58956z" data-paper-data="{&quot;origPos&quot;:null,&quot;origRot&quot;:0}"/><path fill="#fff" stroke="#000" stroke-linecap="butt" stroke-width="2" d="M375.762,320.99176l29.79242,-9.71432l0.61768,8.75574l-29.39125,11.48551z" data-paper-data="{&quot;origPos&quot;:null,&quot;origRot&quot;:0,&quot;index&quot;:null}"/><path fill="#ff2e2e" stroke="#000" stroke-linecap="butt" stroke-width="2" d="M362.71312,328.94005l6.53278,-25.8103l3.19885,7.24098l-4.00012,27.78673z" data-paper-data="{&quot;origPos&quot;:null,&quot;origRot&quot;:0,&quot;index&quot;:null}"/><path fill="#fff" stroke="#000" stroke-linecap="butt" stroke-width="2" d="M345.62622,316.13328l33.10925,-6.00935l-0.70829,8.74889l-32.32951,6.27719z" data-paper-data="{&quot;origPos&quot;:null,&quot;origRot&quot;:0,&quot;index&quot;:null}"/><path fill="#fff" stroke="#000" stroke-linecap="butt" stroke-width="2" d="M373.18759,309.65292l0.28914,-8.6411l14.97109,17.03988l0.8191,10.46312z" data-paper-data="{&quot;origPos&quot;:null,&quot;origRot&quot;:0}"/><path fill="#ff2e2e" stroke="#000" stroke-linecap="butt" stroke-width="2" d="M363.20076,326.22526l-24.34827,-10.77082l7.67506,-1.93854l26.72162,8.60573z" data-paper-data="{&quot;origPos&quot;:null,&quot;origRot&quot;:0,&quot;index&quot;:null}"/><path fill="#fff" stroke="#000" stroke-linecap="butt" stroke-width="2" d="M358.71724,315.76635l1.76851,-8.46314l11.82307,19.35734l-0.98955,10.44837z" data-paper-data="{&quot;origPos&quot;:null,&quot;origRot&quot;:0}"/><path fill="#ff2e2e" stroke="#000" stroke-linecap="butt" stroke-width="2" d="M409.76297,326.26551l26.23732,-6.13427l-5.02027,6.24341l-26.83565,9.32997z" data-paper-data="{&quot;origPos&quot;:null,&quot;origRot&quot;:0,&quot;index&quot;:null}"/><path fill="#fff" stroke="#000" stroke-linecap="butt" stroke-width="2" d="M375.86562,306.08836l23.8664,20.88411l-7.29547,5.0683l-25.19922,-19.61862z" data-paper-data="{&quot;origPos&quot;:null,&quot;origRot&quot;:0,&quot;index&quot;:null}"/><path fill="#ff2e2e" stroke="#000" stroke-linecap="butt" stroke-width="2" d="M363.56765,312.11606l26.30006,-5.85941l-5.08533,6.19053l-26.93181,9.04867z" data-paper-data="{&quot;origPos&quot;:null,&quot;origRot&quot;:0,&quot;index&quot;:null}"/><path fill="#fff" stroke="#000" stroke-linecap="butt" stroke-width="2" d="M350.51912,315.61696l30.89397,7.16328l-4.04376,7.90947l-31.47263,-5.41889z" data-paper-data="{&quot;origPos&quot;:null,&quot;origRot&quot;:0,&quot;index&quot;:null}"/><path fill="#fff" stroke="#000" stroke-linecap="butt" stroke-width="2" d="M389.30228,314.02343l1.81426,-8.5599l11.90947,19.62454l-1.03166,10.5713z" data-paper-data="{&quot;origPos&quot;:null,&quot;origRot&quot;:0}"/><path fill="#fff" stroke="#000" stroke-linecap="butt" stroke-width="2" d="M407.24569,309.0833l26.35313,16.95491l-6.39647,6.01082l-27.47255,-15.52489z" data-paper-data="{&quot;origPos&quot;:null,&quot;origRot&quot;:0,&quot;index&quot;:null}"/><path fill="#ff2e2e" stroke="#000" stroke-linecap="butt" stroke-width="2" d="M409.76131,330.78565l-4.48956,-26.24295l5.85928,5.32293l7.60593,27.0232z" data-paper-data="{&quot;origPos&quot;:null,&quot;origRot&quot;:0,&quot;index&quot;:null}"/><path fill="#fff" stroke="#000" stroke-linecap="butt" stroke-width="2" d="M380.83425,314.9422l33.59278,1.96487l-2.7507,8.33536l-32.89814,-1.52077z" data-paper-data="{&quot;origPos&quot;:null,&quot;origRot&quot;:0,&quot;index&quot;:null}"/><path fill="#fff" stroke="#000" stroke-linecap="butt" stroke-width="2" d="M409.79045,311.90189l4.88413,-7.13424l3.47914,22.41399l-4.92764,9.26638z" data-paper-data="{&quot;origPos&quot;:null,&quot;origRot&quot;:0}"/><path fill="#ff2e2e" stroke="#000" stroke-linecap="butt" stroke-width="2" d="M395.2377,311.04934l25.98709,-5.78967l-5.02481,6.11684l-26.61131,8.94099z" data-paper-data="{&quot;origPos&quot;:null,&quot;origRot&quot;:0,&quot;index&quot;:null}"/><path fill="#fff" stroke="#000" stroke-linecap="butt" stroke-width="2" d="M403.07028,316.32106l-1.02787,-8.58462l17.38756,14.56584l2.40022,10.21698z" data-paper-data="{&quot;origPos&quot;:null,&quot;origRot&quot;:0}"/><path fill="#fff" stroke="#000" stroke-linecap="butt" stroke-width="2" d="M228.25541,220.09447l-0.07801,-33.65009l8.48697,2.23963l0.47912,32.9298z" data-paper-data="{&quot;origPos&quot;:null,&quot;origRot&quot;:0,&quot;index&quot;:null}"/><path fill="#ff2e2e" stroke="#000" stroke-linecap="butt" stroke-width="2" d="M227.97794,222.12567l-20.8177,-16.59736l7.91576,0.07271l23.66282,15.10545z" data-paper-data="{&quot;origPos&quot;:null,&quot;origRot&quot;:0,&quot;index&quot;:null}"/><path fill="#fff" stroke="#000" stroke-linecap="butt" stroke-width="2" d="M210.81001,233.28497l2.00657,-31.27187l8.3622,2.668l-0.21272,31.55498z" data-paper-data="{&quot;origPos&quot;:null,&quot;origRot&quot;:0,&quot;index&quot;:null}"/><path fill="#ff2e2e" stroke="#000" stroke-linecap="butt" stroke-width="2" d="M213.27568,235.74131l-20.8177,-16.59736l7.91576,0.07271l23.66282,15.10545z" data-paper-data="{&quot;origPos&quot;:null,&quot;origRot&quot;:0,&quot;index&quot;:null}"/><path fill="#fff" stroke="#000" stroke-linecap="butt" stroke-width="2" d="M200.25867,251.00689l-8.09478,-32.66205l8.77618,0.15261l8.31268,31.86692z" data-paper-data="{&quot;origPos&quot;:null,&quot;origRot&quot;:0,&quot;index&quot;:null}"/><path fill="#ff2e2e" stroke="#000" stroke-linecap="butt" stroke-width="2" d="M193.16668,253.63667l-14.37473,-22.41018l7.47193,2.61433l17.54849,21.91242z" data-paper-data="{&quot;origPos&quot;:null,&quot;origRot&quot;:0,&quot;index&quot;:null}"/><path fill="#fff" stroke="#000" stroke-linecap="butt" stroke-width="2" d="M197.72956,221.69104l-8.64207,0.25884l16.05721,-16.02052l10.3902,-1.48028z" data-paper-data="{&quot;origPos&quot;:null,&quot;origRot&quot;:0}"/><path fill="#fff" stroke="#000" stroke-linecap="butt" stroke-width="2" d="M183.24668,235.26823l-8.64206,0.25885l16.05721,-16.02052l10.3902,-1.48029z" data-paper-data="{&quot;origPos&quot;:null,&quot;origRot&quot;:0}"/><path fill="#fff" stroke="#000" stroke-linecap="butt" stroke-width="2" d="M214.19999,206.35399l-8.64207,0.25884l16.05721,-16.02052l10.3902,-1.48028z" data-paper-data="{&quot;origPos&quot;:null,&quot;origRot&quot;:0}"/><path fill="#fff" stroke="#000" stroke-linecap="butt" stroke-width="2" d="M438.18508,307.34339l26.77381,20.38377l-6.93547,5.37994l-26.44543,-19.62753z" data-paper-data="{&quot;origPos&quot;:null,&quot;origRot&quot;:0,&quot;index&quot;:null}"/><path fill="#ff2e2e" stroke="#000" stroke-linecap="butt" stroke-width="2" d="M429.10189,309.36917l15.4752,21.66488l-7.59309,-2.23819l-18.62016,-21.00935z" data-paper-data="{&quot;origPos&quot;:null,&quot;origRot&quot;:0,&quot;index&quot;:null}"/><path fill="#fff" stroke="#000" stroke-linecap="butt" stroke-width="2" d="M424.52049,309.32843l23.9606,20.1952l-7.11465,5.14067l-25.25417,-18.92058z" data-paper-data="{&quot;origPos&quot;:null,&quot;origRot&quot;:0,&quot;index&quot;:null}"/><path fill="#ff2e2e" stroke="#000" stroke-linecap="butt" stroke-width="2" d="M417.32763,327.4633l15.67996,-21.51715l0.27026,7.91146l-14.0662,24.29496z" data-paper-data="{&quot;origPos&quot;:null,&quot;origRot&quot;:0,&quot;index&quot;:null}"/><path fill="#fff" stroke="#000" stroke-linecap="butt" stroke-width="2" d="M408.24267,304.15669l33.59278,1.96487l-2.7507,8.33536l-32.89814,-1.52077z" data-paper-data="{&quot;origPos&quot;:null,&quot;origRot&quot;:0,&quot;index&quot;:null}"/><path fill="#ff2e2e" stroke="#000" stroke-linecap="butt" stroke-width="2" d="M416.48404,301.83325l26.08489,-5.33172l-5.13161,6.02753l-26.76444,8.47158z" data-paper-data="{&quot;origPos&quot;:null,&quot;origRot&quot;:0,&quot;index&quot;:null}"/><path fill="#fff" stroke="#000" stroke-linecap="butt" stroke-width="2" d="M434.38497,314.14435l2.80979,-8.17663l9.31765,20.68024l-2.28439,10.2435z" data-paper-data="{&quot;origPos&quot;:null,&quot;origRot&quot;:0}"/><path fill="#fff" stroke="#000" stroke-linecap="butt" stroke-width="2" d="M423.24649,311.22557l-0.53526,-8.62936l16.52613,15.53636l1.81202,10.33751z" data-paper-data="{&quot;origPos&quot;:null,&quot;origRot&quot;:0}"/><path fill="#fff" stroke="#000" stroke-linecap="butt" stroke-width="2" d="M431.88311,322.64817l0.9668,-8.59171l13.58684,18.16285l-0.00503,10.49514z" data-paper-data="{&quot;origPos&quot;:null,&quot;origRot&quot;:0}"/><path fill="#ff2e2e" stroke="#000" stroke-linecap="butt" stroke-width="2" d="M363.57371,312.77333l22.57425,-8.00441l-3.81985,6.01022l-22.78795,10.88652z" data-paper-data="{&quot;origPos&quot;:null,&quot;origRot&quot;:0,&quot;index&quot;:null}"/><path fill="#fff" stroke="#000" stroke-linecap="butt" stroke-width="2" d="M351.92271,298.36591l30.13926,2.83134l-2.73725,7.4067l-29.52884,-2.41007z" data-paper-data="{&quot;origPos&quot;:null,&quot;origRot&quot;:0,&quot;index&quot;:null}"/><path fill="#ff2e2e" stroke="#000" stroke-linecap="butt" stroke-width="2" d="M329.88579,303.5582l23.90223,1.53309l-5.87819,4.02009l-25.23375,1.03193z" data-paper-data="{&quot;origPos&quot;:null,&quot;origRot&quot;:0,&quot;index&quot;:null}"/><path fill="#fff" stroke="#000" stroke-linecap="butt" stroke-width="2" d="M309.38539,334.44869l19.79788,-22.90057l4.44299,6.52776l-19.10053,22.64798z" data-paper-data="{&quot;origPos&quot;:null,&quot;origRot&quot;:0,&quot;index&quot;:null}"/><path fill="#ff2e2e" stroke="#000" stroke-linecap="butt" stroke-width="2" d="M205.38313,205.42209l-18.72777,-14.93111l7.1211,0.06541l21.28725,13.58897z" data-paper-data="{&quot;origPos&quot;:null,&quot;origRot&quot;:0,&quot;index&quot;:null}"/><path fill="#fff" stroke="#000" stroke-linecap="butt" stroke-width="2" d="M190.17497,218.63312l-0.05192,-30.27192l7.63372,2.01939l0.41315,29.62415z" data-paper-data="{&quot;origPos&quot;:null,&quot;origRot&quot;:0,&quot;index&quot;:null}"/><path fill="#ff2e2e" stroke="#000" stroke-linecap="butt" stroke-width="2" d="M223.48357,188.08502l-22.26539,-8.82721l6.83124,-2.0121l24.32282,6.79761z" data-paper-data="{&quot;origPos&quot;:null,&quot;origRot&quot;:0,&quot;index&quot;:null}"/><path fill="#fff" stroke="#000" stroke-linecap="butt" stroke-width="2" d="M209.79459,203.45982l-7.28213,-29.38303l7.89511,0.13729l7.47816,28.66772z" data-paper-data="{&quot;origPos&quot;:null,&quot;origRot&quot;:0,&quot;index&quot;:null}"/><path fill="#ff2e2e" stroke="#000" stroke-linecap="butt" stroke-width="2" d="M187.1214,222.50306l-18.72777,-14.93111l7.1211,0.06541l21.28725,13.58897z" data-paper-data="{&quot;origPos&quot;:null,&quot;origRot&quot;:0,&quot;index&quot;:null}"/><path fill="#fff" stroke="#000" stroke-linecap="butt" stroke-width="2" d="M172.10592,235.76574l-0.46277,-30.26843l7.66042,1.9156l0.81517,29.61581z" data-paper-data="{&quot;origPos&quot;:null,&quot;origRot&quot;:0,&quot;index&quot;:null}"/><path fill="#ff2e2e" stroke="#000" stroke-linecap="butt" stroke-width="2" d="M447.09006,315.88857l19.81704,-13.45185l-2.17617,6.78075l-19.2951,16.29435z" data-paper-data="{&quot;origPos&quot;:null,&quot;origRot&quot;:0,&quot;index&quot;:null}"/><path fill="#fff" stroke="#000" stroke-linecap="butt" stroke-width="2" d="M436.66642,315.85223l29.1752,-8.07462l0.07641,7.89595l-28.45486,8.25122z" data-paper-data="{&quot;origPos&quot;:null,&quot;origRot&quot;:0,&quot;index&quot;:null}"/><path fill="#ff2e2e" stroke="#000" stroke-linecap="butt" stroke-width="2" d="M462.57225,330.50211l-22.18157,-9.03576l6.84981,-1.94792l24.25795,7.02556z" data-paper-data="{&quot;origPos&quot;:null,&quot;origRot&quot;:0,&quot;index&quot;:null}"/><path fill="#fff" stroke="#000" stroke-linecap="butt" stroke-width="2" d="M453.2925,312.68292l25.57127,16.20191l-5.80067,5.35759l-25.21854,-15.54948z" data-paper-data="{&quot;origPos&quot;:null,&quot;origRot&quot;:0,&quot;index&quot;:null}"/><path fill="#ff2e2e" stroke="#000" stroke-linecap="butt" stroke-width="2" d="M436.69628,305.84019l23.88541,-1.77588l-5.26802,4.79189l-24.8507,4.49994z" data-paper-data="{&quot;origPos&quot;:null,&quot;origRot&quot;:0,&quot;index&quot;:null}"/><path fill="#fff" stroke="#000" stroke-linecap="butt" stroke-width="2" d="M416.03798,312.47863l30.24061,-1.3775l-1.68317,7.71483l-29.57764,1.71002z" data-paper-data="{&quot;origPos&quot;:null,&quot;origRot&quot;:0,&quot;index&quot;:null}"/></g></g></svg>