<svg version="1.1" xmlns="http://www.w3.org/2000/svg" xmlns:xlink="http://www.w3.org/1999/xlink" width="539.13475" height="439.38687" viewBox="0,0,539.13475,439.38687"><defs><radialGradient cx="88.02021" cy="179.60447" r="102.08147" gradientUnits="userSpaceOnUse" id="color-1"><stop offset="0" stop-color="#00ffff"/><stop offset="1" stop-color="#003fff"/></radialGradient><linearGradient x1="95.05273" y1="226.21792" x2="118.7622" y2="226.27295" gradientUnits="userSpaceOnUse" id="color-2"><stop offset="0" stop-color="#3b3b3b"/><stop offset="1" stop-color="#000000"/></linearGradient><linearGradient x1="47.3923" y1="223.90668" x2="97.73751" y2="232.87915" gradientUnits="userSpaceOnUse" id="color-3"><stop offset="0" stop-color="#000000"/><stop offset="1" stop-color="#3b3b3b"/></linearGradient><radialGradient cx="69.27429" cy="94.29484" r="54.55912" gradientUnits="userSpaceOnUse" id="color-4"><stop offset="0" stop-color="#b6b6b6"/><stop offset="1" stop-color="#666666"/></radialGradient><radialGradient cx="78.12553" cy="100.2733" r="16.49355" gradientUnits="userSpaceOnUse" id="color-5"><stop offset="0" stop-color="#ff0000"/><stop offset="1" stop-color="#ff0000" stop-opacity="0"/></radialGradient><radialGradient cx="78.90123" cy="102.25087" r="10.77795" gradientUnits="userSpaceOnUse" id="color-6"><stop offset="0" stop-color="#ff0000"/><stop offset="1" stop-color="#d20000"/></radialGradient><linearGradient x1="34.86239" y1="26.23645" x2="160.40908" y2="29.9133" gradientUnits="userSpaceOnUse" id="color-7"><stop offset="0" stop-color="#cc7700"/><stop offset="1" stop-color="#946f48"/></linearGradient></defs><g transform="translate(-9.17904,-24.90107)"><g data-paper-data="{&quot;isPaintingLayer&quot;:true}" fill-rule="nonzero" stroke-linejoin="miter" stroke-miterlimit="10" stroke-dasharray="" stroke-dashoffset="0" style="mix-blend-mode: normal"><path d="M129.93636,285.23705c0,0 -8.69623,0.83542 -13.03647,-1.58421c-4.34027,-2.41961 -7.82416,-10.04522 -7.82416,-10.04522l13.05143,-19.04925l15.55654,11.08009z" data-paper-data="{&quot;origRot&quot;:0,&quot;origPos&quot;:null,&quot;index&quot;:null}" fill="#ffd499" stroke="#806c4d" stroke-width="2" stroke-linecap="butt"/><path d="M118.10208,149.05422c0,0 7.7518,-2.17122 10.12437,0.10601c13.84652,12.43 41.41046,54.99835 38.05393,63.06625c-4.75671,11.43351 -29.30565,61.52235 -29.30565,61.52235c0,0 -7.78022,-2.42282 -11.84367,-5.91486c-4.01373,-3.44931 -9.32498,-8.36756 -9.32498,-8.36756c0,0 25.38267,-45.41644 26.46195,-53.47591c-0.63024,-12.46107 -23.3451,-30.22045 -23.3451,-30.22045z" data-paper-data="{&quot;origPos&quot;:null,&quot;index&quot;:null,&quot;origRot&quot;:0}" id="ID0.5423141438513994" fill="#000000" stroke="#000000" stroke-width="2.54325" stroke-linecap="round"/><g data-paper-data="{&quot;origRot&quot;:0,&quot;origPos&quot;:null}" stroke="#000000" stroke-linecap="butt"><path d="M60.82207,442.09183l1.7934,-151.31163l53.32844,0.53103l5.80049,150.00662l-19.27525,-0.01396c0,0 1.01497,-131.29736 -11.99266,-131.92679c-12.3795,-0.76276 -10.90975,132.09753 -10.90975,132.09753z" data-paper-data="{&quot;origPos&quot;:null,&quot;index&quot;:null}" fill="#333333" stroke-width="2.5"/><path d="M34.28492,462.93558l0.02139,-12.44469c0,0 12.76706,-8.85503 21.35614,-10.83115c9.25047,-2.12829 24.35969,-2.14121 24.35969,-2.14121l-0.04382,25.4956z" data-paper-data="{&quot;origPos&quot;:null,&quot;index&quot;:null}" fill="#666666" stroke-width="2.54325"/><path d="M101.94707,462.61254l0.04382,-25.49558c0,0 15.1091,0.06486 24.35219,2.22494c8.58222,2.00564 21.31772,11.51833 21.31772,11.51833l-0.02034,11.83086z" data-paper-data="{&quot;origPos&quot;:null,&quot;index&quot;:null}" fill="#666666" stroke-width="2.54325"/></g><g data-paper-data="{&quot;origPos&quot;:null,&quot;origRot&quot;:0}" stroke="#000000"><path d="M61.91368,148.39072l53.66602,0.79791l-0.91959,144.12506l-52.79507,-0.79593z" data-paper-data="{&quot;origPos&quot;:null,&quot;index&quot;:null,&quot;origRot&quot;:0}" id="ID0.9171315478160977" fill="url(#color-1)" stroke-width="2.54325" stroke-linecap="butt"/><g data-paper-data="{&quot;origPos&quot;:null,&quot;index&quot;:null,&quot;origRot&quot;:0}" stroke-width="0" stroke-linecap="butt"><path d="M89.0842,227.83714l-4.77702,0.06626l6.96548,-21.59438l-5.35443,0.55339l5.32748,-17.84331l17.06077,-0.50147l-6.03829,13.51302l3.65799,-0.19235l-7.0217,20.6223l3.19077,0.29848l-20.13333,32.25035z" data-paper-data="{&quot;index&quot;:null,&quot;origPos&quot;:null}" fill="#ffde00"/><path d="M87.6501,224.58734l-4.77702,0.06626l6.9655,-21.59438l-5.35443,0.55339l5.32749,-17.84331l17.06077,-0.50147l-6.03829,13.51302l3.65799,-0.19235l-7.02169,20.6223l3.19077,0.29848l-18.69228,32.52427z" data-paper-data="{&quot;index&quot;:null,&quot;origPos&quot;:null}" fill="#ff0000"/><path d="M84.76741,224.31013l-4.77704,0.06626l6.9655,-21.59438l-5.35443,0.55339l5.32749,-17.84331l17.06077,-0.50147l-6.03829,13.51302l3.65799,-0.19236l-7.02169,20.6223l3.19076,0.29848l-15.8052,30.90772z" data-paper-data="{&quot;index&quot;:null,&quot;origPos&quot;:null}" fill="#000000"/></g><path d="M95.2115,157.8562c0,0 6.7355,-3.29422 11.04689,-5.54209c4.31777,-2.25118 11.0597,-4.02642 11.0597,-4.02642c0,0 0.62334,22.03386 0.62218,24.77025c-0.01289,31.29332 0.6425,130.49157 0.6425,130.49157l-21.38194,0.982z" data-paper-data="{&quot;origPos&quot;:null,&quot;index&quot;:null,&quot;origRot&quot;:0}" id="ID0.5423141438513994" fill="url(#color-2)" stroke-width="2.54325" stroke-linecap="round"/><path d="M84.83508,305.27561l-26.40427,-1.63206c0,0 1.53889,-98.7256 1.67013,-130.01865c0.01147,-2.73642 0.7247,-25.09376 0.7247,-25.09376c0,0 7.13732,2.02977 11.70346,4.23482c3.87488,1.87122 14.46185,5.38477 14.46185,5.38477z" data-paper-data="{&quot;origPos&quot;:null,&quot;index&quot;:null,&quot;origRot&quot;:0}" id="ID0.5423141438513994" fill="url(#color-3)" stroke-width="2.54325" stroke-linecap="round"/><path d="M104.41899,282.46686c-2.15892,0.25038 -5.53523,-0.27471 -5.53523,-0.27471l-0.47244,-25.0432c0,0 1.49981,0.26277 2.4583,0.03997c1.1252,-0.26152 2.88105,-1.28102 2.88105,-1.28102l6.00709,25.02313c0,0 -3.25394,1.29402 -5.33876,1.53579z" data-paper-data="{&quot;origPos&quot;:null,&quot;index&quot;:null,&quot;origRot&quot;:0}" fill="#1f1f1f" stroke-width="0" stroke-linecap="butt"/><path d="M103.06194,256.87091c0,0 2.42525,6.7856 3.54881,10.99974c1.31193,4.92059 2.69182,12.40688 2.69182,12.40688" data-paper-data="{&quot;origPos&quot;:null,&quot;origRot&quot;:0,&quot;index&quot;:null}" fill="none" stroke-width="2.54325" stroke-linecap="round"/><path d="M72.5446,281.34804l5.8256,-25.066c0,0 1.76316,1.00672 2.89026,1.26012c0.96011,0.21583 2.45797,-0.05776 2.45797,-0.05776l-0.29094,25.04594c0,0 -3.37242,0.54954 -5.5331,0.31479c-2.08651,-0.22667 -5.34975,-1.49708 -5.34975,-1.49708z" data-paper-data="{&quot;origPos&quot;:null,&quot;origRot&quot;:0}" fill="#1f1f1f" stroke-width="0" stroke-linecap="butt"/><path d="M72.03976,280.3893c0,0 1.70646,-7.73335 2.98266,-12.66331c1.09297,-4.22219 3.08814,-10.78791 3.08814,-10.78791" data-paper-data="{&quot;origPos&quot;:null,&quot;origRot&quot;:0}" fill="none" stroke-width="2.54325" stroke-linecap="round"/></g><path d="M178.24476,349.2005l-51.05406,-41.96306l358.97388,-1.23422l59.03126,41.96308z" data-paper-data="{&quot;origPos&quot;:null}" fill="#90704e" stroke="#000000" stroke-width="2" stroke-linecap="butt"/><path d="M154.58148,326.84423l21.14864,-1.84989l3.02389,3.37388l-20.69411,2.58978z" data-paper-data="{&quot;origPos&quot;:null,&quot;origRot&quot;:0}" fill="#ff2e2e" stroke="#000000" stroke-width="2" stroke-linecap="butt"/><path d="M194.63943,332.10665l-20.76251,-1.96756l2.92128,-3.4631l21.19464,1.21435z" data-paper-data="{&quot;origPos&quot;:null,&quot;origRot&quot;:0,&quot;index&quot;:null}" fill="#ffffff" stroke="#000000" stroke-width="2" stroke-linecap="butt"/><path d="M209.98864,336.24979l-17.42198,-3.21845l2.03935,-6.4957l17.85783,2.73284z" data-paper-data="{&quot;origPos&quot;:null,&quot;origRot&quot;:0,&quot;index&quot;:null}" fill="#ffffff" stroke="#000000" stroke-width="2" stroke-linecap="butt"/><path d="M200.60311,327.48035l-20.81285,2.77881l-3.35643,-2.61113l20.28397,-3.36374z" data-paper-data="{&quot;origPos&quot;:null,&quot;origRot&quot;:0}" fill="#ff2e2e" stroke="#000000" stroke-width="2" stroke-linecap="butt"/><path d="M171.0958,329.18631l20.90811,1.93585l2.68908,3.2943l-20.52311,-1.24764z" data-paper-data="{&quot;origPos&quot;:null,&quot;origRot&quot;:0}" fill="#ff2e2e" stroke="#000000" stroke-width="2" stroke-linecap="butt"/><g data-paper-data="{&quot;origRot&quot;:0,&quot;origPos&quot;:null}" stroke="#000000"><path d="M149.09033,315.35125l-0.05487,-7.63776l30.48845,-0.21914l0.05487,7.63776z" data-paper-data="{&quot;origPos&quot;:null}" fill="#ffffff" stroke-width="1" stroke-linecap="butt"/><path d="M144.37891,313.14902l-0.08835,-7.93708l5.09196,2.88046l-0.23023,7.16448z" data-paper-data="{&quot;origPos&quot;:null}" fill="#ffffff" stroke-width="1" stroke-linecap="butt"/><path d="M149.56739,307.68343l-4.68297,-2.60099l29.80195,0.08209l4.17951,2.24059z" data-paper-data="{&quot;origPos&quot;:null}" fill="#ffffff" stroke-width="1" stroke-linecap="butt"/><path d="M150.72203,313.71173l-0.03333,-4.63274l27.17043,-0.19532l0.03333,4.63274z" data-paper-data="{&quot;origPos&quot;:null}" fill="#ff2e2e" stroke-width="0" stroke-linecap="butt"/><path d="M149.79491,306.67492l-0.63008,-0.55894l24.54194,-0.05118l1.13005,0.43012z" data-paper-data="{&quot;origPos&quot;:null}" fill="#ff2e2e" stroke-width="0" stroke-linecap="butt"/><path d="M144.76743,309.82791l4.01928,1.72413" data-paper-data="{&quot;origPos&quot;:null}" fill="none" stroke-width="0.5" stroke-linecap="round"/></g><path d="M176.64932,378.04801v-31.06592h368.54652v31.06592z" data-paper-data="{&quot;origPos&quot;:null}" fill="#90704e" stroke="#000000" stroke-width="2" stroke-linecap="butt"/><path d="M330.42452,334.98091l-8.64443,-22.37119l6.1229,3.65504l11.53523,22.50434z" data-paper-data="{&quot;origPos&quot;:null,&quot;origRot&quot;:0,&quot;index&quot;:null}" fill="#ff2e2e" stroke="#000000" stroke-width="2" stroke-linecap="butt"/><path d="M310.20027,328.10772l26.07006,-10.82405l1.17192,7.81949l-25.58496,12.38636z" data-paper-data="{&quot;origPos&quot;:null,&quot;origRot&quot;:0,&quot;index&quot;:null}" fill="#ffffff" stroke="#000000" stroke-width="2" stroke-linecap="butt"/><path d="M317.01709,328.68717l-23.49015,-4.83825l6.38722,-3.1706l25.16662,2.47945z" data-paper-data="{&quot;origPos&quot;:null,&quot;origRot&quot;:0,&quot;index&quot;:null}" fill="#ff2e2e" stroke="#000000" stroke-width="2" stroke-linecap="butt"/><path d="M290.41614,327.84879l27.14103,-7.75708l0.26576,7.90236l-26.83864,9.36478z" data-paper-data="{&quot;origPos&quot;:null,&quot;origRot&quot;:0,&quot;index&quot;:null}" fill="#ffffff" stroke="#000000" stroke-width="2" stroke-linecap="butt"/><path d="M280.37916,326.00282l23.45659,-4.99849l-4.57717,5.46797l-24.04513,7.83188z" data-paper-data="{&quot;origPos&quot;:null,&quot;origRot&quot;:0,&quot;index&quot;:null}" fill="#ff2e2e" stroke="#000000" stroke-width="2" stroke-linecap="butt"/><path d="M269.97038,331.3743l24.66648,-13.72493l2.05553,7.63496l-24.00645,15.22177z" data-paper-data="{&quot;origPos&quot;:null,&quot;origRot&quot;:0,&quot;index&quot;:null}" fill="#ffffff" stroke="#000000" stroke-width="2" stroke-linecap="butt"/><path d="M261.91371,330.70427l12.46462,-20.48975l0.83499,7.08181l-10.80796,22.86251z" data-paper-data="{&quot;origPos&quot;:null,&quot;origRot&quot;:0,&quot;index&quot;:null}" fill="#ff2e2e" stroke="#000000" stroke-width="2" stroke-linecap="butt"/><path d="M247.07558,325.93888l17.96642,-21.77191l4.69717,6.36038l-16.80619,22.92518z" data-paper-data="{&quot;origPos&quot;:null,&quot;origRot&quot;:0,&quot;index&quot;:null}" fill="#ffffff" stroke="#000000" stroke-width="2" stroke-linecap="butt"/><g data-paper-data="{&quot;origPos&quot;:null,&quot;origRot&quot;:0}"><path d="M92.84973,46.38088c14.77791,0.43029 27.99514,6.73218 37.41088,16.56586c9.41579,9.83486 9.75544,24.7391 8.05456,41.4321c-1.17191,11.50153 -4.53414,22.88446 -14.04144,31.71706c-9.97839,9.26899 -24.87269,16.04831 -34.53215,15.81091c-9.65926,-0.23734 -24.20529,-5.28203 -33.62109,-15.11568c-9.41589,-9.83504 -15.12759,-20.58952 -14.69887,-35.14582c0.42874,-14.55641 3.1278,-31.63354 13.10642,-40.90374c9.97843,-9.26902 23.54384,-14.79106 38.32166,-14.36075z" data-paper-data="{&quot;origPos&quot;:null,&quot;origRot&quot;:0}" id="ID0.7719937418587506" fill="#ffd499" stroke="#806c4d" stroke-width="2.5" stroke-linecap="butt"/><path d="M96.08131,49.34843c5.55038,0.36454 3.2268,10.79901 3.37205,16.3592c0.32776,12.59344 3.48446,27.13203 -1.9945,38.88108c-4.67627,9.12123 -14.65463,15.47691 -24.49318,18.11051c-10.65401,2.42663 -21.70231,2.85572 -25.89486,-3.0417c-6.94639,-17.68599 -1.8148,-42.87846 10.07867,-58.11281c10.40771,-12.42624 22.7912,-13.24918 38.93179,-12.19624z" data-paper-data="{&quot;origPos&quot;:null,&quot;origRot&quot;:0}" id="ID0.479907026514411" fill="url(#color-4)" stroke="#666666" stroke-width="2.5" stroke-linecap="round"/><path d="M116.77361,95.20093c-0.06015,5.11639 -0.7959,16.18816 -0.7959,16.18816" data-paper-data="{&quot;origPos&quot;:null,&quot;origRot&quot;:0}" id="ID0.21129454905167222" fill="none" stroke="#000000" stroke-width="2.5" stroke-linecap="round"/><path d="M101.01332,134.28885l-16.93859,-1.14441" data-paper-data="{&quot;origPos&quot;:null,&quot;index&quot;:null,&quot;origRot&quot;:0}" fill="none" stroke="#000000" stroke-width="2" stroke-linecap="round"/><path d="M61.64371,99.65204c0.34311,-9.10263 8.00039,-16.20369 17.10304,-15.86064c9.10265,0.34312 16.20369,8.00039 15.86064,17.10304c-0.34311,9.10263 -8.00039,16.20369 -17.10304,15.86064c-9.10265,-0.34312 -16.20369,-8.00039 -15.86064,-17.10304z" data-paper-data="{&quot;origPos&quot;:null,&quot;origRot&quot;:0}" fill="url(#color-5)" stroke="none" stroke-width="0" stroke-linecap="butt"/><path d="M67.18586,100.0244c0.22418,-5.94827 5.22794,-10.58857 11.17623,-10.36436c5.94827,0.22418 10.58857,5.22794 10.36436,11.17623c-0.22418,5.94827 -5.22794,10.58857 -11.17623,10.36436c-5.94827,-0.22418 -10.58857,-5.22794 -10.36436,-11.17623z" data-paper-data="{&quot;origPos&quot;:null,&quot;origRot&quot;:0}" fill="url(#color-6)" stroke="#666666" stroke-width="2" stroke-linecap="butt"/><path d="M45.80131,121.26804c0,0 4.29372,-22.16453 8.93247,-36.55861c3.0676,-9.51882 10.79774,-24.28012 10.79774,-24.28012l32.36843,8.2369l0.30999,4.74872c0,0 -8.99676,-1.23359 -13.95689,-1.93061c-4.58364,-0.64406 -9.0933,-3.9115 -13.06568,-1.5356c-7.27428,4.3508 -7.56153,12.95063 -10.21811,20.99963c-3.5893,10.87486 -6.60036,31.23173 -6.60036,31.23173z" data-paper-data="{&quot;origRot&quot;:0,&quot;origPos&quot;:null}" fill="#7a7a7a" stroke="none" stroke-width="0" stroke-linecap="butt"/><path d="M101.12575,73.51303l-0.08889,-4.57908l32.82896,1.37387c0,0 -6.9084,2.971 -13.84546,3.13875c-6.98877,0.16893 -18.63278,0.08209 -18.63278,0.08209z" data-paper-data="{&quot;origPos&quot;:null,&quot;origRot&quot;:0}" fill="#b0936a" stroke="none" stroke-width="0" stroke-linecap="butt"/><path d="M47.94872,123.68676l5.36132,1.29816l-0.85941,5.93426z" data-paper-data="{&quot;origPos&quot;:null,&quot;origRot&quot;:0}" fill="#b0936a" stroke="none" stroke-width="0" stroke-linecap="butt"/><path d="M101.21352,28.17962c13.87862,0.63145 21.6331,2.10281 35.46536,3.40043c8.00919,0.75135 23.80015,1.50579 23.80015,1.50579c0,0 -10.25416,5.25709 -12.15103,5.68468c-3.51825,0.7931 -9.81134,2.73318 -9.81134,2.73318c0,0 4.8534,1.43835 8.25974,2.88952c3.66214,1.56018 9.32269,3.10527 9.32269,3.10527c0,0 -5.83694,2.22587 -9.50304,3.01385c-4.57979,0.98434 -10.81187,3.46332 -10.81187,3.46332c0,0 7.01474,3.98591 12.39967,5.39171c5.41527,1.41371 12.47742,4.23446 12.47742,4.23446c0,0 -10.28693,5.133 -16.85532,5.86139c-16.56788,1.83921 -33.35763,-1.56042 -50.01735,-2.02968c-10.1563,-0.28739 -24.81829,-7.86175 -30.27606,0.9959c-14.32823,21.87276 -15.8134,78.62557 -19.68886,76.6095c-3.87565,-2.01623 -12.98247,-61.99392 -7.34561,-92.38822c2.18021,-11.74619 13.29709,-18.17921 27.09641,-23.28226c13.79932,-5.10294 25.29133,-1.51416 37.63911,-1.18887z" data-paper-data="{&quot;origPos&quot;:null,&quot;origRot&quot;:0}" id="ID0.5302143599838018" fill="url(#color-7)" stroke="#a96300" stroke-width="3.5" stroke-linecap="round"/></g><path d="M248.51265,328.47641l-3.0073,-23.79395l5.06349,5.02099l5.78113,24.6188z" data-paper-data="{&quot;origPos&quot;:null,&quot;origRot&quot;:0,&quot;index&quot;:null}" fill="#ff2e2e" stroke="#000000" stroke-width="2" stroke-linecap="butt"/><path d="M231.19311,328.12584l14.62456,-24.14395l5.56863,5.61323l-13.30958,25.11706z" data-paper-data="{&quot;origPos&quot;:null,&quot;origRot&quot;:0,&quot;index&quot;:null}" fill="#ffffff" stroke="#000000" stroke-width="2" stroke-linecap="butt"/><path d="M288.74748,317.17759l-4.84362,-6.09895l20.2171,2.95855l6.6673,6.70271z" data-paper-data="{&quot;origPos&quot;:null,&quot;origRot&quot;:0}" fill="#ffffff" stroke="#000000" stroke-width="2" stroke-linecap="butt"/><path d="M310.87982,318.46147l-5.15739,-5.83602l20.34463,1.89218l7.01028,6.34313z" data-paper-data="{&quot;origPos&quot;:null,&quot;origRot&quot;:0}" fill="#ffffff" stroke="#000000" stroke-width="2" stroke-linecap="butt"/><path d="M268.88971,314.96299l-5.09228,-5.89291l20.32236,2.11792l6.93944,6.42054z" data-paper-data="{&quot;origPos&quot;:null,&quot;origRot&quot;:0}" fill="#ffffff" stroke="#000000" stroke-width="2" stroke-linecap="butt"/><path d="M245.15019,308.84392l-5.45612,-5.55773l20.41582,0.82346l7.33306,5.96703z" data-paper-data="{&quot;origPos&quot;:null,&quot;origRot&quot;:0}" fill="#ffffff" stroke="#000000" stroke-width="2" stroke-linecap="butt"/><path d="M323.83372,316.71639l-13.03134,-19.79323l6.67791,2.24763l15.85078,19.31657z" data-paper-data="{&quot;origPos&quot;:null,&quot;origRot&quot;:0,&quot;index&quot;:null}" fill="#ff2e2e" stroke="#000000" stroke-width="2" stroke-linecap="butt"/><path d="M299.63917,304.40415l27.45168,-4.93584l-0.52203,7.79527l-27.31374,6.54637z" data-paper-data="{&quot;origPos&quot;:null,&quot;origRot&quot;:0,&quot;index&quot;:null}" fill="#ffffff" stroke="#000000" stroke-width="2" stroke-linecap="butt"/><path d="M295.98715,310.53826l11.85376,-20.52014l0.98362,6.97701l-10.16406,22.82693z" data-paper-data="{&quot;origPos&quot;:null,&quot;origRot&quot;:0,&quot;index&quot;:null}" fill="#ff2e2e" stroke="#000000" stroke-width="2" stroke-linecap="butt"/><path d="M282.75158,310.41554l17.75262,-21.51283l4.64127,6.28469l-16.60619,22.65237z" data-paper-data="{&quot;origPos&quot;:null,&quot;origRot&quot;:0,&quot;index&quot;:null}" fill="#ffffff" stroke="#000000" stroke-width="2" stroke-linecap="butt"/><path d="M283.10535,310.81325l-8.17845,-22.24187l5.99009,3.71012l11.03233,22.42018z" data-paper-data="{&quot;origPos&quot;:null,&quot;origRot&quot;:0,&quot;index&quot;:null}" fill="#ff2e2e" stroke="#000000" stroke-width="2" stroke-linecap="butt"/><path d="M262.926,307.32846l17.75262,-21.51283l4.64127,6.28469l-16.60619,22.65237z" data-paper-data="{&quot;origPos&quot;:null,&quot;origRot&quot;:0,&quot;index&quot;:null}" fill="#ffffff" stroke="#000000" stroke-width="2" stroke-linecap="butt"/><path d="M260.50236,301.73126l0.4641,-23.69329l4.23214,5.6334l2.12983,24.8966z" data-paper-data="{&quot;origPos&quot;:null,&quot;origRot&quot;:0,&quot;index&quot;:null}" fill="#ff2e2e" stroke="#000000" stroke-width="2" stroke-linecap="butt"/><path d="M242.67019,300.79296l18.70184,-23.39522l4.64127,6.2847l-18.022,23.11894z" data-paper-data="{&quot;origPos&quot;:null,&quot;origRot&quot;:0,&quot;index&quot;:null}" fill="#ffffff" stroke="#000000" stroke-width="2" stroke-linecap="butt"/><path d="M303.60795,293.7309l-4.78598,-6.02637l19.97651,2.92334l6.58797,6.62296z" data-paper-data="{&quot;origPos&quot;:null,&quot;origRot&quot;:0}" fill="#ffffff" stroke="#000000" stroke-width="2" stroke-linecap="butt"/><path d="M283.9865,291.54267l-5.03169,-5.82279l20.08052,2.09272l6.85686,6.34414z" data-paper-data="{&quot;origPos&quot;:null,&quot;origRot&quot;:0}" fill="#ffffff" stroke="#000000" stroke-width="2" stroke-linecap="butt"/><path d="M261.13358,288.38877l-4.85947,-5.96726l20.01083,2.67831l6.66865,6.5417z" data-paper-data="{&quot;origPos&quot;:null,&quot;origRot&quot;:0}" fill="#ffffff" stroke="#000000" stroke-width="2" stroke-linecap="butt"/><path d="M36.94617,264.47865l16.0172,-10.40306l12.22288,19.59119c0,0 -3.80757,7.46926 -8.24756,9.7006c-4.43998,2.23136 -13.0924,1.02395 -13.0924,1.02395z" data-paper-data="{&quot;origRot&quot;:0,&quot;origPos&quot;:null,&quot;index&quot;:null}" fill="#ffd499" stroke="#806c4d" stroke-width="2" stroke-linecap="butt"/><path d="M59.54192,175.49699c0,0 -23.45524,16.76937 -24.61905,29.19198c0.73282,8.09832 24.14537,54.56106 24.14537,54.56106c0,0 -5.5172,4.68607 -9.67509,7.96015c-4.20942,3.31465 -12.08634,5.40174 -12.08634,5.40174c0,0 -22.37931,-51.0951 -26.64155,-62.72199c-3.0076,-8.20436 26.3557,-49.55205 40.7223,-61.37709c2.46801,-2.17343 10.11961,0.32808 10.11961,0.32808z" data-paper-data="{&quot;origPos&quot;:null,&quot;index&quot;:null,&quot;origRot&quot;:0}" id="ID0.5423141438513994" fill="#000000" stroke="#000000" stroke-width="2.54325" stroke-linecap="round"/><path d="M238.97321,302.89583l-2.97151,-23.5108l5.00323,4.96124l5.71233,24.32583z" data-paper-data="{&quot;origPos&quot;:null,&quot;origRot&quot;:0,&quot;index&quot;:null}" fill="#ff2e2e" stroke="#000000" stroke-width="2" stroke-linecap="butt"/><path d="M352.77911,328.09974l-20.60173,-18.80229l6.50811,-4.32242l21.79697,17.71404z" data-paper-data="{&quot;origPos&quot;:null,&quot;origRot&quot;:0,&quot;index&quot;:null}" fill="#ffffff" stroke="#000000" stroke-width="2" stroke-linecap="butt"/><path d="M240.66603,282.87736l-5.3912,-5.4916l20.17287,0.81366l7.2458,5.89603z" data-paper-data="{&quot;origPos&quot;:null,&quot;origRot&quot;:0}" fill="#ffffff" stroke="#000000" stroke-width="2" stroke-linecap="butt"/><path d="M329.61797,317.40119l-7.09235,-2.98685l18.92537,-7.03116l8.95942,2.64455z" data-paper-data="{&quot;origPos&quot;:null,&quot;origRot&quot;:0}" fill="#ffffff" stroke="#000000" stroke-width="2" stroke-linecap="butt"/><path d="M361.81108,303.67565l-21.07894,-11.44005l7.03208,-1.18287l23.36721,9.66853z" data-paper-data="{&quot;origPos&quot;:null,&quot;origRot&quot;:0,&quot;index&quot;:null}" fill="#ff2e2e" stroke="#000000" stroke-width="2" stroke-linecap="butt"/><path d="M345.20621,312.50789l0.09877,-28.22761l7.6644,1.9429l1.52959,28.38436z" data-paper-data="{&quot;origPos&quot;:null,&quot;origRot&quot;:0,&quot;index&quot;:null}" fill="#ffffff" stroke="#000000" stroke-width="2" stroke-linecap="butt"/><path d="M306.88066,291.71647l2.17216,-23.88469l3.8672,5.99115l0.35985,25.28591z" data-paper-data="{&quot;origPos&quot;:null,&quot;origRot&quot;:0,&quot;index&quot;:null}" fill="#ff2e2e" stroke="#000000" stroke-width="2" stroke-linecap="butt"/><path d="M295.05978,287.41845l19.46789,-20.4404l4.2334,6.67803l-18.39253,21.67318z" data-paper-data="{&quot;origPos&quot;:null,&quot;origRot&quot;:0,&quot;index&quot;:null}" fill="#ffffff" stroke="#000000" stroke-width="2" stroke-linecap="butt"/><path d="M293.14301,287.20422l2.17216,-23.88469l3.8672,5.99115l0.35985,25.28591z" data-paper-data="{&quot;origPos&quot;:null,&quot;origRot&quot;:0,&quot;index&quot;:null}" fill="#ff2e2e" stroke="#000000" stroke-width="2" stroke-linecap="butt"/><path d="M276.30278,283.14278l19.46789,-20.4404l4.2334,6.67803l-18.39253,21.67318z" data-paper-data="{&quot;origPos&quot;:null,&quot;origRot&quot;:0,&quot;index&quot;:null}" fill="#ffffff" stroke="#000000" stroke-width="2" stroke-linecap="butt"/><path d="M283.14426,280.71051l5.30091,-23.39011l3.04392,6.44855l-2.97564,25.11279z" data-paper-data="{&quot;origPos&quot;:null,&quot;origRot&quot;:0,&quot;index&quot;:null}" fill="#ff2e2e" stroke="#000000" stroke-width="2" stroke-linecap="butt"/><path d="M263.89771,279.65557l23.7833,-15.20405l2.51745,7.49535l-23.0332,16.65783z" data-paper-data="{&quot;origPos&quot;:null,&quot;origRot&quot;:0,&quot;index&quot;:null}" fill="#ffffff" stroke="#000000" stroke-width="2" stroke-linecap="butt"/><path d="M251.84598,277.14306l-3.0073,-23.79395l5.06349,5.02099l5.78113,24.6188z" data-paper-data="{&quot;origPos&quot;:null,&quot;origRot&quot;:0,&quot;index&quot;:null}" fill="#ff2e2e" stroke="#000000" stroke-width="2" stroke-linecap="butt"/><path d="M234.52644,276.79249l14.62456,-24.14395l5.56863,5.61323l-13.30958,25.11706z" data-paper-data="{&quot;origPos&quot;:null,&quot;origRot&quot;:0,&quot;index&quot;:null}" fill="#ffffff" stroke="#000000" stroke-width="2" stroke-linecap="butt"/><path d="M296.87019,266.32867l-4.72971,-6.1877l20.15878,3.33286l6.54189,6.82517z" data-paper-data="{&quot;origPos&quot;:null,&quot;origRot&quot;:0}" fill="#ffffff" stroke="#000000" stroke-width="2" stroke-linecap="butt"/><path d="M337.3735,306.12223l-6.70554,3.9615l5.70303,-19.62038l7.5537,-5.68516z" data-paper-data="{&quot;origPos&quot;:null,&quot;origRot&quot;:0}" fill="#ffffff" stroke="#000000" stroke-width="2" stroke-linecap="butt"/><path d="M302.08199,266.01772l-3.40964,-7.00228l19.09845,7.26177l5.05956,7.98624z" data-paper-data="{&quot;origPos&quot;:null,&quot;origRot&quot;:0}" fill="#ffffff" stroke="#000000" stroke-width="2" stroke-linecap="butt"/><path d="M268.2129,270.77372l-6.52357,-4.25449l20.11532,-3.58581l8.44461,4.25062z" data-paper-data="{&quot;origPos&quot;:null,&quot;origRot&quot;:0}" fill="#ffffff" stroke="#000000" stroke-width="2" stroke-linecap="butt"/><path d="M330.83541,295.97233l0.41155,-23.69428l4.24461,5.62401l2.18504,24.89182z" data-paper-data="{&quot;origPos&quot;:null,&quot;origRot&quot;:0,&quot;index&quot;:null}" fill="#ff2e2e" stroke="#000000" stroke-width="2" stroke-linecap="butt"/><path d="M322.75845,305.99724l19.63631,-19.8084l4.0502,6.68091l-18.59833,21.04751z" data-paper-data="{&quot;origPos&quot;:null,&quot;origRot&quot;:0,&quot;index&quot;:null}" fill="#ffffff" stroke="#000000" stroke-width="2" stroke-linecap="butt"/><path d="M332.24043,272.238l6.52831,-22.7809l2.64489,6.53076l-4.33,24.60951z" data-paper-data="{&quot;origPos&quot;:null,&quot;origRot&quot;:0,&quot;index&quot;:null}" fill="#ff2e2e" stroke="#000000" stroke-width="2" stroke-linecap="butt"/><path d="M316.64659,265.17952l22.67845,-16.23716l2.87321,7.26522l-21.86282,17.63272z" data-paper-data="{&quot;origPos&quot;:null,&quot;origRot&quot;:0,&quot;index&quot;:null}" fill="#ffffff" stroke="#000000" stroke-width="2" stroke-linecap="butt"/><path d="M313.87082,264.16697l6.52831,-22.7809l2.64489,6.53076l-4.33,24.60951z" data-paper-data="{&quot;origPos&quot;:null,&quot;origRot&quot;:0,&quot;index&quot;:null}" fill="#ff2e2e" stroke="#000000" stroke-width="2" stroke-linecap="butt"/><path d="M298.27699,257.1085l22.67845,-16.23716l2.87321,7.26522l-21.86282,17.63272z" data-paper-data="{&quot;origPos&quot;:null,&quot;origRot&quot;:0,&quot;index&quot;:null}" fill="#ffffff" stroke="#000000" stroke-width="2" stroke-linecap="butt"/><path d="M290.88374,265.51772l-15.95472,-17.5224l6.94645,1.18027l18.66553,16.6125z" data-paper-data="{&quot;origPos&quot;:null,&quot;origRot&quot;:0,&quot;index&quot;:null}" fill="#ff2e2e" stroke="#000000" stroke-width="2" stroke-linecap="butt"/><path d="M264.07669,262.55504l24.07891,-17.81295l2.87319,7.26523l-23.35094,17.72037z" data-paper-data="{&quot;origPos&quot;:null,&quot;origRot&quot;:0,&quot;index&quot;:null}" fill="#ffffff" stroke="#000000" stroke-width="2" stroke-linecap="butt"/><path d="M313.22577,300.16039l-7.57089,-1.37996l16.95346,-10.96301l9.31952,0.64145z" data-paper-data="{&quot;origPos&quot;:null,&quot;origRot&quot;:0}" fill="#ffffff" stroke="#000000" stroke-width="2" stroke-linecap="butt"/><path d="M322.68298,247.25543l-3.36907,-6.91896l18.87117,7.17535l4.99935,7.8912z" data-paper-data="{&quot;origPos&quot;:null,&quot;origRot&quot;:0}" fill="#ffffff" stroke="#000000" stroke-width="2" stroke-linecap="butt"/><path d="M301.40454,238.34302l-3.16555,-7.01441l18.65355,7.72346l4.76675,8.03385z" data-paper-data="{&quot;origPos&quot;:null,&quot;origRot&quot;:0}" fill="#ffffff" stroke="#000000" stroke-width="2" stroke-linecap="butt"/><path d="M242.30655,251.56252l-2.97151,-23.5108l5.00323,4.96124l5.71233,24.32583z" data-paper-data="{&quot;origPos&quot;:null,&quot;origRot&quot;:0,&quot;index&quot;:null}" fill="#ff2e2e" stroke="#000000" stroke-width="2" stroke-linecap="butt"/><path d="M376.15507,321.92689l25.35391,-11.62485l1.43815,7.67922l-24.81874,13.15012z" data-paper-data="{&quot;origPos&quot;:null,&quot;origRot&quot;:0,&quot;index&quot;:null}" fill="#ffffff" stroke="#000000" stroke-width="2" stroke-linecap="butt"/><path d="M277.29706,250.57869l-3.16555,-7.01441l18.65355,7.72346l4.76675,8.03385z" data-paper-data="{&quot;origPos&quot;:null,&quot;origRot&quot;:0}" fill="#ffffff" stroke="#000000" stroke-width="2" stroke-linecap="butt"/><path d="M408.2063,304.79025l7.49969,1.72554l-17.43815,10.17436l-9.28032,-1.06794z" data-paper-data="{&quot;origPos&quot;:null,&quot;origRot&quot;:0}" fill="#ffffff" stroke="#000000" stroke-width="2" stroke-linecap="butt"/><path d="M238.40069,334.0397l-3.37866,-26.73221l5.68877,5.64102l6.49503,27.65891z" data-paper-data="{&quot;origPos&quot;:null,&quot;origRot&quot;:0,&quot;index&quot;:null}" fill="#ff2e2e" stroke="#000000" stroke-width="2" stroke-linecap="butt"/><path d="M218.94241,333.64583l16.43052,-27.12542l6.25628,6.30638l-14.95314,28.2187z" data-paper-data="{&quot;origPos&quot;:null,&quot;origRot&quot;:0,&quot;index&quot;:null}" fill="#ffffff" stroke="#000000" stroke-width="2" stroke-linecap="butt"/><path d="M216.67994,333.29071l-3.37866,-26.7322l5.68877,5.64102l6.49503,27.65891z" data-paper-data="{&quot;origPos&quot;:null,&quot;origRot&quot;:0,&quot;index&quot;:null}" fill="#ff2e2e" stroke="#000000" stroke-width="2" stroke-linecap="butt"/><path d="M197.22165,332.89685l16.43051,-27.12542l6.25628,6.30639l-14.95314,28.2187z" data-paper-data="{&quot;origPos&quot;:null,&quot;origRot&quot;:0,&quot;index&quot;:null}" fill="#ffffff" stroke="#000000" stroke-width="2" stroke-linecap="butt"/><path d="M213.80772,312.63311l-6.4495,-5.91333l22.95384,-0.28132l8.57947,6.26173z" data-paper-data="{&quot;origPos&quot;:null,&quot;origRot&quot;:0}" fill="#ffffff" stroke="#000000" stroke-width="2" stroke-linecap="butt"/><path d="M232.16579,304.90218l16.235,-26.80263l6.18183,6.23133l-14.77519,27.8829z" data-paper-data="{&quot;origPos&quot;:null,&quot;origRot&quot;:0,&quot;index&quot;:null}" fill="#ffffff" stroke="#000000" stroke-width="2" stroke-linecap="butt"/><path d="M229.93023,304.55127l-3.33845,-26.41408l5.62107,5.57389l6.41773,27.32976z" data-paper-data="{&quot;origPos&quot;:null,&quot;origRot&quot;:0,&quot;index&quot;:null}" fill="#ff2e2e" stroke="#000000" stroke-width="2" stroke-linecap="butt"/><path d="M209.95452,306.40907l16.98397,-29.04961l6.18183,6.23134l-16.27318,28.63188z" data-paper-data="{&quot;origPos&quot;:null,&quot;origRot&quot;:0,&quot;index&quot;:null}" fill="#ffffff" stroke="#000000" stroke-width="2" stroke-linecap="butt"/><path d="M227.09219,284.13952l-6.37276,-5.84297l22.68069,-0.27797l8.47737,6.18722z" data-paper-data="{&quot;origPos&quot;:null,&quot;origRot&quot;:0}" fill="#ffffff" stroke="#000000" stroke-width="2" stroke-linecap="butt"/><path d="M205.9625,304.55127l-3.33845,-26.41408l5.62107,5.57389l6.41773,27.32976z" data-paper-data="{&quot;origPos&quot;:null,&quot;origRot&quot;:0,&quot;index&quot;:null}" fill="#ff2e2e" stroke="#000000" stroke-width="2" stroke-linecap="butt"/><path d="M207.24392,283.76502l-6.37276,-5.84297l22.68069,-0.27797l8.47737,6.18722z" data-paper-data="{&quot;origPos&quot;:null,&quot;origRot&quot;:0}" fill="#ffffff" stroke="#000000" stroke-width="2" stroke-linecap="butt"/><path d="M240.90069,276.53971l-3.37867,-26.73221l5.68877,5.64101l6.49502,27.65891z" data-paper-data="{&quot;origPos&quot;:null,&quot;origRot&quot;:0,&quot;index&quot;:null}" fill="#ff2e2e" stroke="#000000" stroke-width="2" stroke-linecap="butt"/><path d="M221.44242,276.14583l16.43051,-27.12542l6.25629,6.30638l-14.95314,28.2187z" data-paper-data="{&quot;origPos&quot;:null,&quot;origRot&quot;:0,&quot;index&quot;:null}" fill="#ffffff" stroke="#000000" stroke-width="2" stroke-linecap="butt"/><path d="M219.17994,275.79071l-3.37866,-26.7322l5.68877,5.64101l6.49502,27.65891z" data-paper-data="{&quot;origPos&quot;:null,&quot;origRot&quot;:0,&quot;index&quot;:null}" fill="#ff2e2e" stroke="#000000" stroke-width="2" stroke-linecap="butt"/><path d="M199.72166,275.39682l16.43051,-27.12542l6.25628,6.3064l-14.95315,28.21869z" data-paper-data="{&quot;origPos&quot;:null,&quot;origRot&quot;:0,&quot;index&quot;:null}" fill="#ffffff" stroke="#000000" stroke-width="2" stroke-linecap="butt"/><path d="M216.30772,255.13312l-6.4495,-5.91333l22.95385,-0.28132l8.57946,6.26173z" data-paper-data="{&quot;origPos&quot;:null,&quot;origRot&quot;:0}" fill="#ffffff" stroke="#000000" stroke-width="2" stroke-linecap="butt"/><path d="M234.66579,247.4022l16.235,-26.80263l6.18183,6.23134l-14.77519,27.8829z" data-paper-data="{&quot;origPos&quot;:null,&quot;origRot&quot;:0,&quot;index&quot;:null}" fill="#ffffff" stroke="#000000" stroke-width="2" stroke-linecap="butt"/><path d="M232.43023,247.05128l-3.33845,-26.41408l5.62107,5.57389l6.41773,27.32976z" data-paper-data="{&quot;origPos&quot;:null,&quot;origRot&quot;:0,&quot;index&quot;:null}" fill="#ff2e2e" stroke="#000000" stroke-width="2" stroke-linecap="butt"/><path d="M212.45452,248.90909l16.98397,-29.0496l6.18183,6.23134l-16.27318,28.63188z" data-paper-data="{&quot;origPos&quot;:null,&quot;origRot&quot;:0,&quot;index&quot;:null}" fill="#ffffff" stroke="#000000" stroke-width="2" stroke-linecap="butt"/><path d="M229.59219,226.63953l-6.37276,-5.84296l22.68069,-0.27797l8.47737,6.18722z" data-paper-data="{&quot;origPos&quot;:null,&quot;origRot&quot;:0}" fill="#ffffff" stroke="#000000" stroke-width="2" stroke-linecap="butt"/><path d="M208.4625,247.05128l-3.33845,-26.41408l5.62106,5.57389l6.41773,27.32976z" data-paper-data="{&quot;origPos&quot;:null,&quot;origRot&quot;:0,&quot;index&quot;:null}" fill="#ff2e2e" stroke="#000000" stroke-width="2" stroke-linecap="butt"/><path d="M209.74392,226.26502l-6.37276,-5.84296l22.68069,-0.27797l8.47737,6.18723z" data-paper-data="{&quot;origPos&quot;:null,&quot;origRot&quot;:0}" fill="#ffffff" stroke="#000000" stroke-width="2" stroke-linecap="butt"/><path d="M393.2639,332.13844l-25.35025,9.13187l4.26335,-6.78283l25.57442,-12.37536z" data-paper-data="{&quot;origPos&quot;:null,&quot;origRot&quot;:0,&quot;index&quot;:null}" fill="#ff2e2e" stroke="#000000" stroke-width="2" stroke-linecap="butt"/><path d="M354.1561,332.93397l20.11806,-24.51558l5.29673,7.13135l-18.81101,25.8077z" data-paper-data="{&quot;origPos&quot;:null,&quot;origRot&quot;:0,&quot;index&quot;:null}" fill="#ffffff" stroke="#000000" stroke-width="2" stroke-linecap="butt"/><path d="M353.01926,338.56863l-20.20091,-17.83113l7.99736,0.47462l23.15227,16.46733z" data-paper-data="{&quot;origPos&quot;:null,&quot;origRot&quot;:0,&quot;index&quot;:null}" fill="#ff2e2e" stroke="#000000" stroke-width="2" stroke-linecap="butt"/><path d="M327.03352,323.07611l30.16993,-9.7737l0.60817,8.86238l-29.76738,11.56696z" data-paper-data="{&quot;origPos&quot;:null,&quot;origRot&quot;:0,&quot;index&quot;:null}" fill="#ffffff" stroke="#000000" stroke-width="2" stroke-linecap="butt"/><path d="M347.35105,314.63705l-4.32715,-7.60521l21.93577,6.76615l6.24788,8.58956z" data-paper-data="{&quot;origPos&quot;:null,&quot;origRot&quot;:0}" fill="#ffffff" stroke="#000000" stroke-width="2" stroke-linecap="butt"/><path d="M375.762,320.99176l29.79242,-9.71432l0.61768,8.75574l-29.39125,11.48551z" data-paper-data="{&quot;origPos&quot;:null,&quot;origRot&quot;:0,&quot;index&quot;:null}" fill="#ffffff" stroke="#000000" stroke-width="2" stroke-linecap="butt"/><path d="M362.71312,328.94005l6.53278,-25.8103l3.19885,7.24098l-4.00012,27.78673z" data-paper-data="{&quot;origPos&quot;:null,&quot;origRot&quot;:0,&quot;index&quot;:null}" fill="#ff2e2e" stroke="#000000" stroke-width="2" stroke-linecap="butt"/><path d="M345.62622,316.13328l33.10925,-6.00935l-0.70829,8.74889l-32.32951,6.27719z" data-paper-data="{&quot;origPos&quot;:null,&quot;origRot&quot;:0,&quot;index&quot;:null}" fill="#ffffff" stroke="#000000" stroke-width="2" stroke-linecap="butt"/><path d="M373.18759,309.65292l0.28914,-8.6411l14.97109,17.03988l0.8191,10.46312z" data-paper-data="{&quot;origPos&quot;:null,&quot;origRot&quot;:0}" fill="#ffffff" stroke="#000000" stroke-width="2" stroke-linecap="butt"/><path d="M363.20076,315.72526l-24.34827,-10.77082l7.67506,-1.93854l26.72162,8.60573z" data-paper-data="{&quot;origPos&quot;:null,&quot;origRot&quot;:0,&quot;index&quot;:null}" fill="#ff2e2e" stroke="#000000" stroke-width="2" stroke-linecap="butt"/><path d="M358.71724,315.76635l1.76851,-8.46314l11.82307,19.35734l-0.98955,10.44837z" data-paper-data="{&quot;origPos&quot;:null,&quot;origRot&quot;:0}" fill="#ffffff" stroke="#000000" stroke-width="2" stroke-linecap="butt"/><path d="M409.76297,326.26551l26.23732,-6.13427l-5.02027,6.24341l-26.83565,9.32997z" data-paper-data="{&quot;origPos&quot;:null,&quot;origRot&quot;:0,&quot;index&quot;:null}" fill="#ff2e2e" stroke="#000000" stroke-width="2" stroke-linecap="butt"/><path d="M375.86562,306.08836l23.8664,20.88411l-7.29547,5.0683l-25.19922,-19.61862z" data-paper-data="{&quot;origPos&quot;:null,&quot;origRot&quot;:0,&quot;index&quot;:null}" fill="#ffffff" stroke="#000000" stroke-width="2" stroke-linecap="butt"/><path d="M363.56765,312.11606l26.30006,-5.85941l-5.08533,6.19053l-26.93181,9.04867z" data-paper-data="{&quot;origPos&quot;:null,&quot;origRot&quot;:0,&quot;index&quot;:null}" fill="#ff2e2e" stroke="#000000" stroke-width="2" stroke-linecap="butt"/><path d="M350.51912,315.61696l30.89397,7.16328l-4.04376,7.90947l-31.47263,-5.41889z" data-paper-data="{&quot;origPos&quot;:null,&quot;origRot&quot;:0,&quot;index&quot;:null}" fill="#ffffff" stroke="#000000" stroke-width="2" stroke-linecap="butt"/><path d="M389.30228,314.02343l1.81426,-8.5599l11.90947,19.62454l-1.03166,10.5713z" data-paper-data="{&quot;origPos&quot;:null,&quot;origRot&quot;:0}" fill="#ffffff" stroke="#000000" stroke-width="2" stroke-linecap="butt"/><path d="M407.24569,309.0833l26.35313,16.95491l-6.39647,6.01082l-27.47255,-15.52489z" data-paper-data="{&quot;origPos&quot;:null,&quot;origRot&quot;:0,&quot;index&quot;:null}" fill="#ffffff" stroke="#000000" stroke-width="2" stroke-linecap="butt"/><path d="M409.76131,330.78565l-4.48956,-26.24295l5.85928,5.32293l7.60593,27.0232z" data-paper-data="{&quot;origPos&quot;:null,&quot;origRot&quot;:0,&quot;index&quot;:null}" fill="#ff2e2e" stroke="#000000" stroke-width="2" stroke-linecap="butt"/><path d="M380.83425,314.9422l33.59278,1.96487l-2.7507,8.33536l-32.89814,-1.52077z" data-paper-data="{&quot;origPos&quot;:null,&quot;origRot&quot;:0,&quot;index&quot;:null}" fill="#ffffff" stroke="#000000" stroke-width="2" stroke-linecap="butt"/><path d="M409.79045,311.90189l4.88413,-7.13424l3.47914,22.41399l-4.92764,9.26638z" data-paper-data="{&quot;origPos&quot;:null,&quot;origRot&quot;:0}" fill="#ffffff" stroke="#000000" stroke-width="2" stroke-linecap="butt"/><path d="M395.2377,311.04934l25.98709,-5.78967l-5.02481,6.11684l-26.61131,8.94099z" data-paper-data="{&quot;origPos&quot;:null,&quot;origRot&quot;:0,&quot;index&quot;:null}" fill="#ff2e2e" stroke="#000000" stroke-width="2" stroke-linecap="butt"/><path d="M403.07028,316.32106l-1.02787,-8.58462l17.38756,14.56584l2.40022,10.21698z" data-paper-data="{&quot;origPos&quot;:null,&quot;origRot&quot;:0}" fill="#ffffff" stroke="#000000" stroke-width="2" stroke-linecap="butt"/><path d="M248.45452,220.90909l16.98397,-29.0496l6.18183,6.23134l-16.27318,28.63188z" data-paper-data="{&quot;origPos&quot;:null,&quot;origRot&quot;:0,&quot;index&quot;:null}" fill="#ffffff" stroke="#000000" stroke-width="2" stroke-linecap="butt"/><path d="M244.4625,219.05129l-3.33845,-26.41408l5.62106,5.57389l6.41773,27.32976z" data-paper-data="{&quot;origPos&quot;:null,&quot;origRot&quot;:0,&quot;index&quot;:null}" fill="#ff2e2e" stroke="#000000" stroke-width="2" stroke-linecap="butt"/><path d="M226.66579,218.9022l16.235,-26.80263l6.18183,6.23134l-14.77519,27.88289z" data-paper-data="{&quot;origPos&quot;:null,&quot;origRot&quot;:0,&quot;index&quot;:null}" fill="#ffffff" stroke="#000000" stroke-width="2" stroke-linecap="butt"/><path d="M224.43023,218.55129l-3.33845,-26.41408l5.62107,5.57389l6.41773,27.32976z" data-paper-data="{&quot;origPos&quot;:null,&quot;origRot&quot;:0,&quot;index&quot;:null}" fill="#ff2e2e" stroke="#000000" stroke-width="2" stroke-linecap="butt"/><path d="M204.45452,220.40909l16.98397,-29.0496l6.18183,6.23134l-16.27318,28.63188z" data-paper-data="{&quot;origPos&quot;:null,&quot;origRot&quot;:0,&quot;index&quot;:null}" fill="#ffffff" stroke="#000000" stroke-width="2" stroke-linecap="butt"/><path d="M200.4625,218.55129l-3.33845,-26.41408l5.62106,5.57389l6.41773,27.32976z" data-paper-data="{&quot;origPos&quot;:null,&quot;origRot&quot;:0,&quot;index&quot;:null}" fill="#ff2e2e" stroke="#000000" stroke-width="2" stroke-linecap="butt"/><path d="M223.09219,197.63953l-6.37276,-5.84297l22.68069,-0.27797l8.47737,6.18723z" data-paper-data="{&quot;origPos&quot;:null,&quot;origRot&quot;:0}" fill="#ffffff" stroke="#000000" stroke-width="2" stroke-linecap="butt"/><path d="M203.24392,197.26503l-6.37276,-5.84296l22.68069,-0.27797l8.47737,6.18722z" data-paper-data="{&quot;origPos&quot;:null,&quot;origRot&quot;:0}" fill="#ffffff" stroke="#000000" stroke-width="2" stroke-linecap="butt"/><path d="M245.59219,198.13953l-6.37276,-5.84297l22.68069,-0.27797l8.47737,6.18723z" data-paper-data="{&quot;origPos&quot;:null,&quot;origRot&quot;:0}" fill="#ffffff" stroke="#000000" stroke-width="2" stroke-linecap="butt"/><path d="M438.18508,307.34339l26.77381,20.38377l-6.93547,5.37994l-26.44543,-19.62753z" data-paper-data="{&quot;origPos&quot;:null,&quot;origRot&quot;:0,&quot;index&quot;:null}" fill="#ffffff" stroke="#000000" stroke-width="2" stroke-linecap="butt"/><path d="M429.10189,309.36917l15.4752,21.66488l-7.59309,-2.23819l-18.62016,-21.00935z" data-paper-data="{&quot;origPos&quot;:null,&quot;origRot&quot;:0,&quot;index&quot;:null}" fill="#ff2e2e" stroke="#000000" stroke-width="2" stroke-linecap="butt"/><path d="M424.52049,309.32843l23.9606,20.1952l-7.11465,5.14067l-25.25417,-18.92058z" data-paper-data="{&quot;origPos&quot;:null,&quot;origRot&quot;:0,&quot;index&quot;:null}" fill="#ffffff" stroke="#000000" stroke-width="2" stroke-linecap="butt"/><path d="M417.32763,327.4633l15.67996,-21.51715l0.27026,7.91146l-14.0662,24.29496z" data-paper-data="{&quot;origPos&quot;:null,&quot;origRot&quot;:0,&quot;index&quot;:null}" fill="#ff2e2e" stroke="#000000" stroke-width="2" stroke-linecap="butt"/><path d="M408.24267,304.15669l33.59278,1.96487l-2.7507,8.33536l-32.89814,-1.52077z" data-paper-data="{&quot;origPos&quot;:null,&quot;origRot&quot;:0,&quot;index&quot;:null}" fill="#ffffff" stroke="#000000" stroke-width="2" stroke-linecap="butt"/><path d="M416.48404,301.83325l26.08489,-5.33172l-5.13161,6.02753l-26.76444,8.47158z" data-paper-data="{&quot;origPos&quot;:null,&quot;origRot&quot;:0,&quot;index&quot;:null}" fill="#ff2e2e" stroke="#000000" stroke-width="2" stroke-linecap="butt"/><path d="M434.38497,314.14435l2.80979,-8.17663l9.31765,20.68024l-2.28439,10.2435z" data-paper-data="{&quot;origPos&quot;:null,&quot;origRot&quot;:0}" fill="#ffffff" stroke="#000000" stroke-width="2" stroke-linecap="butt"/><path d="M423.24649,311.22557l-0.53526,-8.62936l16.52613,15.53636l1.81202,10.33751z" data-paper-data="{&quot;origPos&quot;:null,&quot;origRot&quot;:0}" fill="#ffffff" stroke="#000000" stroke-width="2" stroke-linecap="butt"/><path d="M431.88311,322.64817l0.9668,-8.59171l13.58684,18.16285l-0.00503,10.49514z" data-paper-data="{&quot;origPos&quot;:null,&quot;origRot&quot;:0}" fill="#ffffff" stroke="#000000" stroke-width="2" stroke-linecap="butt"/><path d="M339.98631,246.80338l17.69638,-16.14019l-1.18703,7.02175l-16.77445,18.87922z" data-paper-data="{&quot;origPos&quot;:null,&quot;origRot&quot;:0,&quot;index&quot;:null}" fill="#ff2e2e" stroke="#000000" stroke-width="2" stroke-linecap="butt"/><path d="M323.65598,238.04896l28.87462,-9.09109l0.35279,7.88843l-28.14853,9.24235z" data-paper-data="{&quot;origPos&quot;:null,&quot;origRot&quot;:0,&quot;index&quot;:null}" fill="#ffffff" stroke="#000000" stroke-width="2" stroke-linecap="butt"/><path d="M327.3631,284.88898l22.62276,-7.86624l-3.85653,5.98677l-22.85408,10.747z" data-paper-data="{&quot;origPos&quot;:null,&quot;origRot&quot;:0,&quot;index&quot;:null}" fill="#ff2e2e" stroke="#000000" stroke-width="2" stroke-linecap="butt"/><path d="M308.88539,296.44869l19.79788,-22.90057l4.44299,6.52776l-19.10053,22.64798z" data-paper-data="{&quot;origPos&quot;:null,&quot;origRot&quot;:0,&quot;index&quot;:null}" fill="#ffffff" stroke="#000000" stroke-width="2" stroke-linecap="butt"/><path d="M239.92482,191.32144l-3.00329,-23.76231l5.05676,5.01432l5.77344,24.58606z" data-paper-data="{&quot;origPos&quot;:null,&quot;origRot&quot;:0,&quot;index&quot;:null}" fill="#ff2e2e" stroke="#000000" stroke-width="2" stroke-linecap="butt"/><path d="M221.95452,192.99273l15.27891,-26.13325l5.56122,5.60576l-14.63948,25.75746z" data-paper-data="{&quot;origPos&quot;:null,&quot;origRot&quot;:0,&quot;index&quot;:null}" fill="#ffffff" stroke="#000000" stroke-width="2" stroke-linecap="butt"/><path d="M262.42482,191.32144l-3.00329,-23.76231l5.05676,5.01432l5.77344,24.58606z" data-paper-data="{&quot;origPos&quot;:null,&quot;origRot&quot;:0,&quot;index&quot;:null}" fill="#ff2e2e" stroke="#000000" stroke-width="2" stroke-linecap="butt"/><path d="M244.45452,192.99273l15.27891,-26.13325l5.56122,5.60576l-14.63947,25.75746z" data-paper-data="{&quot;origPos&quot;:null,&quot;origRot&quot;:0,&quot;index&quot;:null}" fill="#ffffff" stroke="#000000" stroke-width="2" stroke-linecap="butt"/><path d="M214.92482,190.82144l-3.0033,-23.76231l5.05676,5.01432l5.77344,24.58606z" data-paper-data="{&quot;origPos&quot;:null,&quot;origRot&quot;:0,&quot;index&quot;:null}" fill="#ff2e2e" stroke="#000000" stroke-width="2" stroke-linecap="butt"/><path d="M196.95452,192.49273l15.27891,-26.13325l5.56122,5.60576l-14.63948,25.75746z" data-paper-data="{&quot;origPos&quot;:null,&quot;origRot&quot;:0,&quot;index&quot;:null}" fill="#ffffff" stroke="#000000" stroke-width="2" stroke-linecap="butt"/><path d="M447.09006,315.88857l19.81704,-13.45185l-2.17617,6.78075l-19.2951,16.29435z" data-paper-data="{&quot;origPos&quot;:null,&quot;origRot&quot;:0,&quot;index&quot;:null}" fill="#ff2e2e" stroke="#000000" stroke-width="2" stroke-linecap="butt"/><path d="M436.66642,315.85223l29.1752,-8.07462l0.07641,7.89595l-28.45486,8.25122z" data-paper-data="{&quot;origPos&quot;:null,&quot;origRot&quot;:0,&quot;index&quot;:null}" fill="#ffffff" stroke="#000000" stroke-width="2" stroke-linecap="butt"/><path d="M462.57225,330.50211l-22.18157,-9.03576l6.84981,-1.94792l24.25795,7.02556z" data-paper-data="{&quot;origPos&quot;:null,&quot;origRot&quot;:0,&quot;index&quot;:null}" fill="#ff2e2e" stroke="#000000" stroke-width="2" stroke-linecap="butt"/><path d="M453.2925,312.68292l25.57127,16.20191l-5.80067,5.35759l-25.21854,-15.54948z" data-paper-data="{&quot;origPos&quot;:null,&quot;origRot&quot;:0,&quot;index&quot;:null}" fill="#ffffff" stroke="#000000" stroke-width="2" stroke-linecap="butt"/><path d="M436.69628,305.84019l23.88541,-1.77588l-5.26802,4.79189l-24.8507,4.49994z" data-paper-data="{&quot;origPos&quot;:null,&quot;origRot&quot;:0,&quot;index&quot;:null}" fill="#ff2e2e" stroke="#000000" stroke-width="2" stroke-linecap="butt"/><path d="M416.03798,312.47863l30.24061,-1.3775l-1.68317,7.71483l-29.57764,1.71002z" data-paper-data="{&quot;origPos&quot;:null,&quot;origRot&quot;:0,&quot;index&quot;:null}" fill="#ffffff" stroke="#000000" stroke-width="2" stroke-linecap="butt"/></g></g></svg>