<svg version="1.1" xmlns="http://www.w3.org/2000/svg" xmlns:xlink="http://www.w3.org/1999/xlink" width="494.83612" height="368.61787"><g transform="translate(14.47933,3.93394)"><g data-paper-data="{&quot;isPaintingLayer&quot;:true}" fill-rule="nonzero" stroke-linejoin="miter" stroke-miterlimit="10" stroke-dasharray="" stroke-dashoffset="0" style="mix-blend-mode: normal"><path d="M-0.87369,363.93393v-367.86787h480.48048v367.86787z" data-paper-data="{&quot;origPos&quot;:null}" fill="#00e7e7" stroke="none" stroke-width="NaN" stroke-linecap="butt"/><g data-paper-data="{&quot;origPos&quot;:null,&quot;origRot&quot;:0}"><path d="M147.96046,116.28348c1.32943,-1.75062 3.33357,-1.01813 3.33357,-1.01813l6.98464,6.16179l-4.29321,4.98484l-6.98464,-6.16179c0,0 -1.08516,-1.75796 0.95966,-3.96672z" data-paper-data="{&quot;origRot&quot;:0,&quot;origPos&quot;:null,&quot;index&quot;:null}" fill="#ffd499" stroke="#806c4d" stroke-width="2" stroke-linecap="butt"/><path d="M198.90301,147.2206c0,0 -1.1307,2.78537 -2.34548,2.96547c-3.6443,0.54029 -14.87609,-5.04555 -23.38217,-10.36485c-8.50607,-5.3193 -23.58451,-16.67596 -23.58451,-16.67596c0,0 1.29116,-1.79245 2.20167,-2.87841c0.90645,-1.08111 2.45407,-2.67439 2.45407,-2.67439c0,0 11.21403,9.69097 21.18732,16.42449c9.97329,6.73353 15.39235,7.33947 15.39235,7.33947z" data-paper-data="{&quot;origPos&quot;:null,&quot;index&quot;:null,&quot;origRot&quot;:0}" id="ID0.5423141438513994" fill="#7e7e7e" stroke="#000000" stroke-width="2.54325" stroke-linecap="round"/><path d="M116.17345,70.68549c0,0 17.40722,9.23323 26.97372,17.66779c6.05169,5.33564 10.76252,19.15366 13.5214,16.01408c3.68749,-4.3558 -0.32242,-16.98581 -6.25821,-23.49038c-8.08986,-8.86505 -27.81253,-16.63821 -27.81253,-16.63821l5.3622,-5.46962c0,0 19.05615,8.48766 27.30874,17.24134c7.71751,8.18611 13.61266,26.16475 13.61266,26.16475l-14.69586,15.26978c0,0 -9.2432,-14.95373 -17.12765,-22.51312c-9.05513,-8.68181 -26.2779,-19.10293 -26.2779,-19.10293z" data-paper-data="{&quot;origPos&quot;:null,&quot;index&quot;:null}" fill="#4232a1" stroke="#000000" stroke-width="2.5" stroke-linecap="butt"/><path d="M166.89749,91.39123c1.47749,-2.6224 3.48311,-2.12691 3.48311,-2.12691l8.0028,4.76531l-3.43287,5.61211l-8.0028,-4.76531c0,0 -1.31037,-1.68405 -0.05024,-3.48521z" data-paper-data="{&quot;origRot&quot;:0,&quot;origPos&quot;:null,&quot;index&quot;:null}" fill="#ffd499" stroke="#806c4d" stroke-width="2" stroke-linecap="butt"/><path d="M203.87963,124.53414c0,0 -5.02979,-5.09146 -14.49101,-12.52732c-9.46122,-7.43586 -19.32221,-15.03106 -19.32221,-15.03106c0,0 1.04359,-1.96076 1.79565,-3.15444c0.75542,-1.19902 2.06707,-2.97654 2.06707,-2.97654c0,0 12.62879,10.76496 20.2948,17.23647c7.66601,6.47152 19.21489,15.57403 19.81513,19.20893c0.20008,1.21165 -2.10599,3.14008 -2.10599,3.14008z" data-paper-data="{&quot;origPos&quot;:null,&quot;index&quot;:null,&quot;origRot&quot;:0}" id="ID0.5423141438513994" fill="#7e7e7e" stroke="#000000" stroke-width="2.54325" stroke-linecap="round"/><path d="M167.27742,98.36123l44.15067,32.18957l-12.78961,17.54201l-44.15067,-32.18957z" data-paper-data="{&quot;origPos&quot;:null,&quot;origRot&quot;:0}" fill="#7e7e7e" stroke="#000000" stroke-width="2.54325" stroke-linecap="butt"/><path d="M113.56819,58.10757l4.28409,2.47033c0,0 0.52462,6.15194 -0.49432,9.50275c-1.09738,3.60885 -4.08323,8.81791 -4.08323,8.81791l-8.77688,-5.06099z" data-paper-data="{&quot;origPos&quot;:null,&quot;index&quot;:null,&quot;origRot&quot;:0}" fill="#666666" stroke="#000000" stroke-width="2.54325" stroke-linecap="butt"/><path d="M125.07291,45.19392l4.36101,1.75628c0,0 1.60541,6.10938 1.06475,9.56971c-0.5823,3.72677 -2.81091,9.30199 -2.81091,9.30199l-9.39799,-3.78479z" data-paper-data="{&quot;origPos&quot;:null,&quot;index&quot;:null,&quot;origRot&quot;:0}" fill="#666666" stroke="#000000" stroke-width="2.54325" stroke-linecap="butt"/><path d="M207.30861,134.37842l-10.55303,-7.80444" data-paper-data="{&quot;origPos&quot;:null,&quot;origRot&quot;:0}" fill="none" stroke="#3b3b3b" stroke-width="5" stroke-linecap="round"/><path d="M201.15203,142.76524l-14.03569,-10.45395" data-paper-data="{&quot;origPos&quot;:null,&quot;origRot&quot;:0}" fill="none" stroke="#3b3b3b" stroke-width="5" stroke-linecap="round"/><path d="M239.0268,157.10825c-2.60431,4.86785 -6.9121,8.23779 -11.76789,9.74985c-4.85622,1.51189 -10.8903,-0.78427 -15.68617,-3.34799c-4.79582,-2.5637 -7.21979,-6.41101 -8.65813,-11.28778c-1.43789,-4.87649 -0.37165,-10.52601 1.34485,-13.69965c1.71652,-3.17372 6.67838,-6.74076 11.53416,-8.25281c4.62693,-1.44045 8.93924,-0.41636 12.88329,1.33938c5.7243,2.54824 10.49018,5.4255 11.92848,10.3022c1.4379,4.87648 1.02574,10.32887 -1.57861,15.1968z" data-paper-data="{&quot;origPos&quot;:null,&quot;origRot&quot;:0}" id="ID0.7719937418587506" fill="#ffd499" stroke="#806c4d" stroke-width="2.5" stroke-linecap="butt"/><path d="M191.22603,140.70049l7.4226,5.60106l-1.5175,2.49128l-8.00058,-5.83309z" data-paper-data="{&quot;origPos&quot;:null,&quot;origRot&quot;:0}" fill="#7e7e7e" stroke="none" stroke-width="0" stroke-linecap="butt"/><path d="M204.05128,123.11581l7.83034,5.70898l-1.90362,2.20977l-7.44303,-5.23723z" data-paper-data="{&quot;origPos&quot;:null,&quot;index&quot;:null,&quot;origRot&quot;:0}" fill="#7e7e7e" stroke="none" stroke-width="0" stroke-linecap="butt"/><path d="M176.89551,111.44821c0,0 -0.50735,0.33454 -2.89207,-1.68026c-1.83368,-1.54923 -1.77555,-1.84766 -1.77555,-1.84766" data-paper-data="{&quot;origPos&quot;:null,&quot;origRot&quot;:0}" fill="none" stroke="#616161" stroke-width="5" stroke-linecap="round"/><path d="M165.3536,117.00658c0,0 0.26634,-0.14663 2.30217,1.12534c2.64761,1.65421 2.48429,2.23956 2.48429,2.23956" data-paper-data="{&quot;origPos&quot;:null,&quot;index&quot;:null,&quot;origRot&quot;:0}" fill="none" stroke="#616161" stroke-width="5" stroke-linecap="round"/><path d="M209.65315,151.48603c0,0 2.66399,1.34569 4.33284,2.27615c0.91667,0.51108 2.29641,1.19948 2.29641,1.19948" data-paper-data="{&quot;origPos&quot;:null,&quot;origRot&quot;:0}" id="ID0.21129454905167222" fill="none" stroke="#000000" stroke-width="2.5" stroke-linecap="round"/><path d="M217.304,169.66788l-2.06834,-7.38155l7.48707,-0.30993l-2.26001,-8.58951l6.62816,-1.34151l-1.26532,-8.52799l5.94514,0.33294l1.21511,-12.68767l6.13785,6.72158l1.62276,-3.09666l3.21611,10.56624l2.10416,-0.13079l-1.89218,10.60291l1.16108,0.11506l-6.29052,9.28481l0.75538,0.88925l-7.1216,4.65552l-0.23084,1.60587l-8.41668,0.52318l-0.91281,1.74188z" data-paper-data="{&quot;origPos&quot;:null,&quot;index&quot;:null,&quot;origRot&quot;:0}" fill="#2400ea" stroke="#000000" stroke-width="3" stroke-linecap="round"/><path d="M220.31025,134.46334c0,0 2.66399,1.34569 4.33284,2.27615c0.91667,0.51108 2.29641,1.19948 2.29641,1.19948" data-paper-data="{&quot;origPos&quot;:null,&quot;origRot&quot;:0}" id="ID0.21129454905167222" fill="none" stroke="#000000" stroke-width="2.5" stroke-linecap="round"/><path d="M218.63338,142.21043l-1.92227,3.66821" data-paper-data="{&quot;origPos&quot;:null,&quot;origRot&quot;:0}" fill="none" stroke="#000000" stroke-width="2" stroke-linecap="round"/></g><path d="M-2.37519,363.93393v-91.59159h481.98198v91.59159z" data-paper-data="{&quot;origPos&quot;:null}" fill="#31c700" stroke="#000000" stroke-width="1.5" stroke-linecap="butt"/><path d="M-3.75938,291.84963v-294.29429h79.57958v294.29429z" fill="#dde983" stroke="#000000" stroke-width="1.5" stroke-linecap="butt"/><path d="M-12.76839,186.74452v-131.33133h61.56156v131.33133z" data-paper-data="{&quot;origPos&quot;:null}" fill="#91b8c7" stroke="#000000" stroke-width="3" stroke-linecap="butt"/><path d="M-12.72933,119.75h60.5" data-paper-data="{&quot;origPos&quot;:null}" fill="none" stroke="#000000" stroke-width="3.5" stroke-linecap="round"/><path d="M16.27067,55l-0.5,130" data-paper-data="{&quot;origPos&quot;:null}" fill="none" stroke="#000000" stroke-width="3.5" stroke-linecap="round"/><path d="M170.90215,144.41227l8.0244,19.69148l10.04717,7.80388l-11.69609,1.32026z" data-paper-data="{&quot;origPos&quot;:null,&quot;origRot&quot;:0}" fill="#91b8c7" stroke="#000000" stroke-width="1.5" stroke-linecap="butt"/><path d="M117.0083,173.29562l6.88967,3.24538l7.1016,-2.75087l-0.40621,11.49282l-6.46062,-1.22897z" data-paper-data="{&quot;origPos&quot;:null,&quot;origRot&quot;:0}" fill="#91b8c7" stroke="#000000" stroke-width="1.5" stroke-linecap="butt"/><path d="M169.98828,133.57623l4.37337,-7.68919l7.37428,-5.8198l3.90611,5.76561l-6.25987,2.71324z" data-paper-data="{&quot;origPos&quot;:null,&quot;origRot&quot;:0}" fill="#91b8c7" stroke="#000000" stroke-width="1.5" stroke-linecap="butt"/><path d="M164.4338,90.37163l-8.082,-7.15411l2.44795,-7.76257l5.52733,2.38718l-0.68223,4.23581z" data-paper-data="{&quot;origPos&quot;:null,&quot;origRot&quot;:0}" fill="#91b8c7" stroke="#000000" stroke-width="1.5" stroke-linecap="butt"/><path d="M180.03344,66.03247l3.02446,-3.39351l0.98015,-5.35081l4.43867,0.54609l2.40486,3.9971l-3.16299,3.47302z" data-paper-data="{&quot;origPos&quot;:null,&quot;origRot&quot;:0}" fill="#91b8c7" stroke="#000000" stroke-width="1.5" stroke-linecap="butt"/></g></g></svg>