<svg xmlns="http://www.w3.org/2000/svg" xmlns:xlink="http://www.w3.org/1999/xlink" width="330.22" height="320.707" version="1.1" viewBox="0 0 330.22 320.707"><defs><radialGradient id="color-1" cx="183.998" cy="50.91" r="137.627" gradientUnits="userSpaceOnUse"><stop offset="0" stop-color="#b6b6b6"/><stop offset="1" stop-color="#666"/></radialGradient><radialGradient id="color-2" cx="185.371" cy="78.007" r="26.606" gradientUnits="userSpaceOnUse"><stop offset="0" stop-color="red"/><stop offset="1" stop-color="red" stop-opacity="0"/></radialGradient><radialGradient id="color-3" cx="186.563" cy="81.22" r="17.386" gradientUnits="userSpaceOnUse"><stop offset="0" stop-color="red"/><stop offset="1" stop-color="#d20000"/></radialGradient><linearGradient id="color-4" x1="100.389" x2="416.857" y1="-122.347" y2="-107.207" gradientUnits="userSpaceOnUse"><stop offset="0" stop-color="#c70"/><stop offset="1" stop-color="#946f48"/></linearGradient></defs><g><g fill-rule="nonzero" stroke-dashoffset="0" stroke-linejoin="miter" stroke-miterlimit="10" data-paper-data="{&quot;isPaintingLayer&quot;:true}" transform="translate(-95.22893,121.48996)" style="mix-blend-mode:normal"><path id="ID0.7719937418587506" fill="#ffd499" stroke="#806c4d" stroke-linecap="butt" stroke-width="4" d="M245.69691,-68.83139c37.25111,1.77588 70.29156,18.28752 93.57935,43.52899c23.2878,25.24448 23.44787,62.85011 18.37796,104.87186c-3.49316,28.9531 -12.50502,57.50474 -36.89609,79.33701c-25.59957,22.91089 -63.48114,39.3128 -87.83206,38.26263c-24.35047,-1.05003 -60.80102,-14.45297 -84.08895,-39.69437c-23.28812,-25.24493 -37.19088,-52.63558 -35.42928,-89.32784c1.76165,-36.69251 9.36702,-79.63639 34.96719,-102.55029c25.59969,-22.91096 60.07097,-36.20402 97.32172,-34.42811z" data-paper-data="{&quot;origPos&quot;:null,&quot;origRot&quot;:0}"/><path id="ID0.479907026514411" fill="url(#color-1)" stroke="#666" stroke-linecap="round" stroke-width="4" d="M253.70855,-61.19594c13.98154,1.17879 7.63358,27.38688 7.74004,41.41695c0.2381,31.77712 7.52007,68.59222 -6.84743,97.96828c-12.2203,22.78597 -37.68358,38.34925 -62.62037,44.5316c-26.98374,5.62227 -54.8686,6.18809 -65.16699,-8.88167c-16.69283,-44.93028 -2.57313,-108.2281 28.13523,-146.09462c26.82991,-30.85368 58.10061,-32.35046 98.75942,-28.9405z" data-paper-data="{&quot;origPos&quot;:null,&quot;origRot&quot;:0}"/><path fill="none" stroke="#000" stroke-linecap="round" stroke-width="3.5" d="M223.28365,149.80214l37.71438,2.12182" data-paper-data="{&quot;origPos&quot;:null,&quot;index&quot;:null,&quot;origRot&quot;:0}"/><path fill="url(#color-2)" stroke="none" stroke-linecap="butt" stroke-width="0" d="M158.8067,76.51263c0.82543,-14.67093 13.38771,-25.89505 28.05867,-25.06968c14.67095,0.82543 25.89505,13.38771 25.06968,28.05867c-0.82543,14.67093 -13.38771,25.89505 -28.05867,25.06968c-14.67095,-0.82543 -25.89505,-13.38771 -25.06968,-28.05867z" data-paper-data="{&quot;origPos&quot;:null,&quot;origRot&quot;:0}"/><path fill="url(#color-3)" stroke="#666" stroke-linecap="butt" stroke-width="2" d="M167.73422,77.27881c0.53935,-9.58696 8.74838,-16.92152 18.33534,-16.38215c9.58696,0.53935 16.92152,8.74838 16.38215,18.33534c-0.53935,9.58696 -8.74838,16.92152 -18.33534,16.38215c-9.58696,-0.53935 -16.92152,-8.74838 -16.38215,-18.33534z" data-paper-data="{&quot;origPos&quot;:null,&quot;origRot&quot;:0}"/><path fill="#7a7a7a" stroke="none" stroke-linecap="butt" stroke-width="0" d="M123.5367,117.84179c0,0 11.865,-55.70024 24.23704,-91.78656c8.18161,-23.86396 28.36761,-60.73198 28.36761,-60.73198l81.2511,22.28694l0.55989,11.99115c0,0 -22.63299,-3.53174 -35.11028,-5.52141c-11.53022,-1.8386 -22.75131,-10.29014 -32.88105,-4.48353c-18.54974,10.63309 -19.67609,32.30924 -26.7524,52.4854c-9.56075,27.25962 -18.52877,79.86252 -18.52877,79.86252z" data-paper-data="{&quot;origRot&quot;:0,&quot;origPos&quot;:null}"/><path fill="#b0936a" stroke="none" stroke-linecap="butt" stroke-width="0" d="M265.3017,-0.01494l-0.01013,-11.55298l82.73332,4.99926c0,0 -17.56245,7.17025 -35.06616,7.26914c-17.63423,0.09941 -46.99736,-0.66375 -46.99736,-0.66375z" data-paper-data="{&quot;origPos&quot;:null,&quot;origRot&quot;:0}"/><path fill="#b0936a" stroke="none" stroke-linecap="butt" stroke-width="0" d="M129.22172,121.2522l13.03863,4.92648l-2.37762,17.2405c0,0 -5.46834,-7.10545 -7.47011,-11.10392c-2.14835,-4.29126 -3.19091,-11.06306 -3.19091,-11.06306z" data-paper-data="{&quot;origPos&quot;:null,&quot;origRot&quot;:0}"/><path id="ID0.5302143599838018" fill="url(#color-4)" stroke="#a96300" stroke-linecap="round" stroke-width="4.5" d="M267.64173,-114.34569c34.9736,2.24122 54.4623,6.31453 89.28788,10.23367c20.1648,2.26931 59.95572,4.91007 59.95572,4.91007c0,0 -26.10756,12.77961 -30.91167,13.76939c-8.91041,1.83582 -24.8728,6.43479 -24.8728,6.43479c0,0 12.1735,3.85444 20.69675,7.67368c9.16336,4.10608 23.36756,8.26746 23.36756,8.26746c0,0 -14.82531,5.34106 -24.10839,7.15703c-11.59666,2.26855 -27.43039,8.22949 -27.43039,8.22949c0,0 17.50555,10.38061 31.02106,14.17787c13.59175,3.81858 31.27126,11.26279 31.27126,11.26279c0,0 -26.18443,12.46516 -42.78457,13.99518c-41.87162,3.86433 -84.05799,-5.49449 -126.05335,-7.4566c-25.60165,-1.19948 -62.22648,-20.98794 -76.40543,1.09675c-37.15928,54.49539 -43.55737,197.56161 -53.23743,192.29581c-9.68048,-5.26621 -29.84566,-156.96091 -14.20849,-233.3546c6.04766,-29.52304 34.38607,-45.22816 69.42768,-57.45354c35.04159,-12.22518 63.85775,-2.63686 94.98473,-1.23939z" data-paper-data="{&quot;origPos&quot;:null,&quot;origRot&quot;:0}"/><path fill="#000" stroke="none" stroke-linecap="butt" stroke-width=".5" d="M328.82415,97.00672c-0.04011,-1.38013 1.0462,-2.53146 2.42633,-2.57156c1.38013,-0.04011 2.53146,1.0462 2.57156,2.42633c0.04011,1.38013 -1.0462,2.53146 -2.42633,2.57156c-1.38013,0.04011 -2.53146,-1.0462 -2.57156,-2.42633z" data-paper-data="{&quot;origPos&quot;:null,&quot;origRot&quot;:0}"/></g></g></svg>