<svg version="1.1" xmlns="http://www.w3.org/2000/svg" xmlns:xlink="http://www.w3.org/1999/xlink" width="538.42127" height="440.33" viewBox="0,0,538.42127,440.33"><defs><radialGradient cx="89.27663" cy="179.60722" r="102.08147" gradientUnits="userSpaceOnUse" id="color-1"><stop offset="0" stop-color="#00ffff"/><stop offset="1" stop-color="#003fff"/></radialGradient><linearGradient x1="95.41004" y1="226.34747" x2="119.11406" y2="226.85914" gradientUnits="userSpaceOnUse" id="color-2"><stop offset="0" stop-color="#3b3b3b"/><stop offset="1" stop-color="#000000"/></linearGradient><linearGradient x1="47.80297" y1="223.11869" x2="97.96603" y2="233.05917" gradientUnits="userSpaceOnUse" id="color-3"><stop offset="0" stop-color="#000000"/><stop offset="1" stop-color="#3b3b3b"/></linearGradient><radialGradient cx="72.17729" cy="93.95235" r="54.55912" gradientUnits="userSpaceOnUse" id="color-4"><stop offset="0" stop-color="#b6b6b6"/><stop offset="1" stop-color="#666666"/></radialGradient><radialGradient cx="80.91174" cy="100.10019" r="16.49355" gradientUnits="userSpaceOnUse" id="color-5"><stop offset="0" stop-color="#ff0000"/><stop offset="1" stop-color="#ff0000" stop-opacity="0"/></radialGradient><radialGradient cx="81.64921" cy="102.09233" r="10.77795" gradientUnits="userSpaceOnUse" id="color-6"><stop offset="0" stop-color="#ff0000"/><stop offset="1" stop-color="#d20000"/></radialGradient><linearGradient x1="39.08261" y1="25.2438" x2="164.5352" y2="31.33806" gradientUnits="userSpaceOnUse" id="color-7"><stop offset="0" stop-color="#cc7700"/><stop offset="1" stop-color="#946f48"/></linearGradient></defs><g transform="translate(-9.89253,-24.75766)"><g data-paper-data="{&quot;isPaintingLayer&quot;:true}" fill-rule="nonzero" stroke-linejoin="miter" stroke-miterlimit="10" stroke-dasharray="" stroke-dashoffset="0" style="mix-blend-mode: normal"><path d="M129.15046,286.02753c0,0 -8.71071,0.66777 -13.00354,-1.83501c-4.29286,-2.50276 -7.62923,-10.19405 -7.62923,-10.19405l13.41591,-18.79434l15.34025,11.37766z" data-paper-data="{&quot;origRot&quot;:0,&quot;origPos&quot;:null,&quot;index&quot;:null}" fill="#ffd499" stroke="#806c4d" stroke-width="2" stroke-linecap="butt"/><path d="M119.94133,149.64202c0,0 7.79218,-2.02151 10.12045,0.30099c13.60454,12.69439 40.34348,55.78573 36.83218,63.78749c-4.97604,11.33977 -30.48517,60.9465 -30.48517,60.9465c0,0 -7.73211,-2.57222 -11.72755,-6.14188c-3.94655,-3.52598 -9.16209,-8.54561 -9.16209,-8.54561c0,0 26.25271,-44.91913 27.48701,-52.95632c-0.39012,-12.4709 -22.75871,-30.66448 -22.75871,-30.66448z" data-paper-data="{&quot;origPos&quot;:null,&quot;index&quot;:null,&quot;origRot&quot;:0}" id="ID0.5423141438513994" fill="#000000" stroke="#000000" stroke-width="2.54325" stroke-linecap="round"/><g data-paper-data="{&quot;origRot&quot;:0,&quot;origPos&quot;:null}" stroke="#000000" stroke-linecap="butt"><path d="M57.02789,441.52203l4.70741,-151.24902l53.30832,1.55806l2.91021,150.09051l-19.27141,-0.38521c0,0 3.54364,-131.25346 -9.44946,-132.1333c-12.36251,-1.00105 -13.45199,131.8629 -13.45199,131.8629z" data-paper-data="{&quot;origPos&quot;:null,&quot;index&quot;:null}" fill="#333333" stroke-width="2.5"/><path d="M30.0942,461.8508l0.26108,-12.44197c0,0 12.93524,-8.60749 21.56079,-10.41781c9.28975,-1.94973 24.39641,-1.67163 24.39641,-1.67163l-0.53487,25.49003z" data-paper-data="{&quot;origPos&quot;:null,&quot;index&quot;:null}" fill="#666666" stroke-width="2.54325"/><path d="M97.75002,462.83103l0.53487,-25.49001c0,0 15.10505,0.35586 24.30482,2.69356c8.542,2.17057 21.09192,11.92678 21.09192,11.92678l-0.2482,11.82827z" data-paper-data="{&quot;origPos&quot;:null,&quot;index&quot;:null}" fill="#666666" stroke-width="2.54325"/></g><g data-paper-data="{&quot;origPos&quot;:null,&quot;origRot&quot;:0}" stroke="#000000"><path d="M63.77613,147.89643l53.6407,1.8314l-3.69534,144.08061l-52.76995,-1.81264z" data-paper-data="{&quot;origPos&quot;:null,&quot;index&quot;:null,&quot;origRot&quot;:0}" id="ID0.9171315478160977" fill="url(#color-1)" stroke-width="2.54325" stroke-linecap="butt"/><g data-paper-data="{&quot;origPos&quot;:null,&quot;index&quot;:null,&quot;origRot&quot;:0}" stroke-width="0" stroke-linecap="butt"><path d="M89.41143,227.85143l-4.77741,-0.02576l7.38011,-21.45622l-5.3641,0.45016l5.67016,-17.73739l17.06726,-0.17278l-6.29744,13.39421l3.66102,-0.12186l-7.41759,20.48323l3.18443,0.35988l-20.75075,31.85659z" data-paper-data="{&quot;index&quot;:null,&quot;origPos&quot;:null}" fill="#ffde00"/><path d="M88.04019,224.57461l-4.77741,-0.02576l7.38013,-21.45622l-5.3641,0.45016l5.67017,-17.73739l17.06726,-0.17278l-6.29744,13.39421l3.66102,-0.12186l-7.41758,20.48323l3.18443,0.35988l-19.31525,32.15821z" data-paper-data="{&quot;index&quot;:null,&quot;origPos&quot;:null}" fill="#ff0000"/><path d="M85.16338,224.24193l-4.77743,-0.02576l7.38013,-21.45622l-5.3641,0.45016l5.67017,-17.73739l17.06726,-0.17278l-6.29744,13.39421l3.66102,-0.12187l-7.41758,20.48323l3.18442,0.35988l-16.39757,30.59757z" data-paper-data="{&quot;index&quot;:null,&quot;origPos&quot;:null}" fill="#000000"/></g><path d="M96.88547,158.00149c0,0 6.7977,-3.16388 11.15158,-5.32829c4.36033,-2.1676 11.1352,-3.81266 11.1352,-3.81266c0,0 0.19884,22.04178 0.14498,24.77764c-0.61561,31.28727 -1.87095,130.47974 -1.87095,130.47974l-21.39689,0.56999z" data-paper-data="{&quot;origPos&quot;:null,&quot;index&quot;:null,&quot;origRot&quot;:0}" id="ID0.5423141438513994" fill="url(#color-2)" stroke-width="2.54325" stroke-linecap="round"/><path d="M83.6716,305.1937l-26.36794,-2.14032c0,0 3.44011,-98.67765 4.17405,-129.96236c0.06417,-2.73569 1.20788,-25.07515 1.20788,-25.07515c0,0 7.0969,2.16686 11.61972,4.45945c3.83812,1.94551 14.35545,5.66231 14.35545,5.66231z" data-paper-data="{&quot;origPos&quot;:null,&quot;index&quot;:null,&quot;origRot&quot;:0}" id="ID0.5423141438513994" fill="url(#color-3)" stroke-width="2.54325" stroke-linecap="round"/><path d="M103.69118,282.76637c-2.16334,0.20875 -5.52891,-0.38127 -5.52891,-0.38127l0.00999,-25.04765c0,0 1.49447,0.29161 2.45707,0.08731c1.13003,-0.2398 2.90519,-1.22529 2.90519,-1.22529l5.52402,25.13419c0,0 -3.27826,1.23111 -5.36735,1.43268z" data-paper-data="{&quot;origPos&quot;:null,&quot;index&quot;:null,&quot;origRot&quot;:0}" fill="#1f1f1f" stroke-width="0" stroke-linecap="butt"/><path d="M102.82738,257.14903c0,0 2.29411,6.83105 3.33629,11.06605c1.21691,4.94495 2.45236,12.45642 2.45236,12.45642" data-paper-data="{&quot;origPos&quot;:null,&quot;origRot&quot;:0,&quot;index&quot;:null}" fill="none" stroke-width="2.54325" stroke-linecap="round"/><path d="M71.84425,281.03384l6.3073,-24.94915c0,0 1.74344,1.04049 2.86545,1.31555c0.95577,0.23428 2.45863,-0.01041 2.45863,-0.01041l-0.77328,25.03569c0,0 -3.38238,0.48448 -5.53814,0.20816c-2.08176,-0.26682 -5.31992,-1.59984 -5.31992,-1.59984z" data-paper-data="{&quot;origPos&quot;:null,&quot;origRot&quot;:0}" fill="#1f1f1f" stroke-width="0" stroke-linecap="butt"/><path d="M71.35797,280.06556c0,0 1.85509,-7.69905 3.22601,-12.60351c1.17409,-4.20036 3.29535,-10.72643 3.29535,-10.72643" data-paper-data="{&quot;origPos&quot;:null,&quot;origRot&quot;:0}" fill="none" stroke-width="2.54325" stroke-linecap="round"/></g><path d="M178.24476,349.2005l-51.05406,-41.96306l358.97388,-1.23422l59.03126,41.96308z" data-paper-data="{&quot;origPos&quot;:null}" fill="#90704e" stroke="#000000" stroke-width="2" stroke-linecap="butt"/><path d="M154.58148,326.84423l21.14864,-1.84989l3.02389,3.37388l-20.69411,2.58978z" data-paper-data="{&quot;origPos&quot;:null,&quot;origRot&quot;:0}" fill="#ff2e2e" stroke="#000000" stroke-width="2" stroke-linecap="butt"/><path d="M194.63943,332.10665l-20.76251,-1.96756l2.92128,-3.4631l21.19464,1.21435z" data-paper-data="{&quot;origPos&quot;:null,&quot;origRot&quot;:0,&quot;index&quot;:null}" fill="#ffffff" stroke="#000000" stroke-width="2" stroke-linecap="butt"/><path d="M209.98864,336.24979l-17.42198,-3.21845l2.03935,-6.4957l17.85783,2.73284z" data-paper-data="{&quot;origPos&quot;:null,&quot;origRot&quot;:0,&quot;index&quot;:null}" fill="#ffffff" stroke="#000000" stroke-width="2" stroke-linecap="butt"/><path d="M200.60311,327.48035l-20.81285,2.77881l-3.35643,-2.61113l20.28397,-3.36374z" data-paper-data="{&quot;origPos&quot;:null,&quot;origRot&quot;:0}" fill="#ff2e2e" stroke="#000000" stroke-width="2" stroke-linecap="butt"/><path d="M171.0958,329.18631l20.90811,1.93585l2.68908,3.2943l-20.52311,-1.24764z" data-paper-data="{&quot;origPos&quot;:null,&quot;origRot&quot;:0}" fill="#ff2e2e" stroke="#000000" stroke-width="2" stroke-linecap="butt"/><g data-paper-data="{&quot;origRot&quot;:0,&quot;origPos&quot;:null}" stroke="#000000"><path d="M149.09033,315.35125l-0.05487,-7.63776l30.48845,-0.21914l0.05487,7.63776z" data-paper-data="{&quot;origPos&quot;:null}" fill="#ffffff" stroke-width="1" stroke-linecap="butt"/><path d="M144.37891,313.14902l-0.08835,-7.93708l5.09196,2.88046l-0.23023,7.16448z" data-paper-data="{&quot;origPos&quot;:null}" fill="#ffffff" stroke-width="1" stroke-linecap="butt"/><path d="M149.56739,307.68343l-4.68297,-2.60099l29.80195,0.08209l4.17951,2.24059z" data-paper-data="{&quot;origPos&quot;:null}" fill="#ffffff" stroke-width="1" stroke-linecap="butt"/><path d="M150.72203,313.71173l-0.03333,-4.63274l27.17043,-0.19532l0.03333,4.63274z" data-paper-data="{&quot;origPos&quot;:null}" fill="#ff2e2e" stroke-width="0" stroke-linecap="butt"/><path d="M149.79491,306.67492l-0.63008,-0.55894l24.54194,-0.05118l1.13005,0.43012z" data-paper-data="{&quot;origPos&quot;:null}" fill="#ff2e2e" stroke-width="0" stroke-linecap="butt"/><path d="M148.78671,311.55204l-4.01928,-1.72413" data-paper-data="{&quot;origPos&quot;:null}" fill="none" stroke-width="0.5" stroke-linecap="round"/></g><path d="M176.64932,378.04801v-31.06592h368.54652v31.06592z" data-paper-data="{&quot;origPos&quot;:null}" fill="#90704e" stroke="#000000" stroke-width="2" stroke-linecap="butt"/><path d="M330.42452,345.48091l-8.64443,-22.37119l6.1229,3.65504l11.53523,22.50434z" data-paper-data="{&quot;origPos&quot;:null,&quot;origRot&quot;:0,&quot;index&quot;:null}" fill="#ff2e2e" stroke="#000000" stroke-width="2" stroke-linecap="butt"/><path d="M310.20027,328.10772l26.07006,-10.82405l1.17192,7.81949l-25.58496,12.38636z" data-paper-data="{&quot;origPos&quot;:null,&quot;origRot&quot;:0,&quot;index&quot;:null}" fill="#ffffff" stroke="#000000" stroke-width="2" stroke-linecap="butt"/><path d="M317.01709,328.68717l-23.49015,-4.83825l6.38722,-3.1706l25.16662,2.47945z" data-paper-data="{&quot;origPos&quot;:null,&quot;origRot&quot;:0,&quot;index&quot;:null}" fill="#ff2e2e" stroke="#000000" stroke-width="2" stroke-linecap="butt"/><path d="M290.41614,327.84879l27.14103,-7.75708l0.26576,7.90236l-26.83864,9.36478z" data-paper-data="{&quot;origPos&quot;:null,&quot;origRot&quot;:0,&quot;index&quot;:null}" fill="#ffffff" stroke="#000000" stroke-width="2" stroke-linecap="butt"/><path d="M280.37916,326.00282l23.45659,-4.99849l-4.57717,5.46797l-24.04513,7.83188z" data-paper-data="{&quot;origPos&quot;:null,&quot;origRot&quot;:0,&quot;index&quot;:null}" fill="#ff2e2e" stroke="#000000" stroke-width="2" stroke-linecap="butt"/><path d="M269.85377,327.61335l27.48891,-6.41629l-0.12224,7.90588l-27.26573,8.03689z" data-paper-data="{&quot;origPos&quot;:null,&quot;origRot&quot;:0,&quot;index&quot;:null}" fill="#ffffff" stroke="#000000" stroke-width="2" stroke-linecap="butt"/><path d="M261.91371,330.70427l12.46462,-20.48975l0.83499,7.08181l-10.80796,22.86251z" data-paper-data="{&quot;origPos&quot;:null,&quot;origRot&quot;:0,&quot;index&quot;:null}" fill="#ff2e2e" stroke="#000000" stroke-width="2" stroke-linecap="butt"/><path d="M247.07558,325.93888l17.96642,-21.77191l4.69717,6.36038l-16.80619,22.92518z" data-paper-data="{&quot;origPos&quot;:null,&quot;origRot&quot;:0,&quot;index&quot;:null}" fill="#ffffff" stroke="#000000" stroke-width="2" stroke-linecap="butt"/><g data-paper-data="{&quot;origPos&quot;:null,&quot;origRot&quot;:0}"><path d="M96.6712,46.50136c14.76688,0.71484 27.86028,7.27013 37.08487,17.28334c9.22462,10.01439 9.27714,24.92241 7.25506,41.57955c-1.39322,11.47682 -4.97407,22.79289 -14.64972,31.44073c-10.15506,9.07508 -25.17717,15.56627 -34.83027,15.14287c-9.6529,-0.42334 -24.09907,-5.74726 -33.32372,-15.76044c-9.22472,-10.01457 -14.72822,-20.87707 -14.01922,-35.42241c0.70902,-14.54545 3.7365,-31.56743 13.89182,-40.64372c10.15511,-9.07511 23.82436,-14.33485 38.59115,-13.61999z" data-paper-data="{&quot;origPos&quot;:null,&quot;origRot&quot;:0}" id="ID0.7719937418587506" fill="#ffd499" stroke="#806c4d" stroke-width="2.5" stroke-linecap="butt"/><path d="M99.84503,49.5306c5.54233,0.47138 3.01821,10.85916 3.05634,16.42111c0.08514,12.59742 2.96124,27.19411 -2.743,38.83545c-4.85108,9.02947 -14.95,15.19178 -24.83745,17.6354c-10.69877,2.22098 -21.75329,2.43719 -25.83147,-3.53988c-6.60446,-17.8165 -0.9886,-42.90546 11.19608,-57.90791c10.64512,-12.22348 23.04216,-12.80775 39.15947,-11.44413z" data-paper-data="{&quot;origPos&quot;:null,&quot;origRot&quot;:0}" id="ID0.479907026514411" fill="url(#color-4)" stroke="#666666" stroke-width="2.5" stroke-linecap="round"/><path d="M119.65035,95.77314c-0.15868,5.11428 -1.10754,16.16983 -1.10754,16.16983" data-paper-data="{&quot;origPos&quot;:null,&quot;origRot&quot;:0}" id="ID0.21129454905167222" fill="none" stroke="#000000" stroke-width="2.5" stroke-linecap="round"/><path d="M86.22672,133.07981l16.91341,1.47044" data-paper-data="{&quot;origPos&quot;:null,&quot;index&quot;:null,&quot;origRot&quot;:0}" fill="none" stroke="#000000" stroke-width="2" stroke-linecap="round"/><path d="M64.44494,99.16159c0.51837,-9.09433 8.311,-16.04659 17.40535,-15.52828c9.09435,0.51838 16.04659,8.311 15.52828,17.40535c-0.51837,9.09433 -8.311,16.04659 -17.40535,15.52828c-9.09435,-0.51838 -16.04659,-8.311 -15.52828,-17.40535z" data-paper-data="{&quot;origPos&quot;:null,&quot;origRot&quot;:0}" fill="url(#color-5)" stroke="none" stroke-width="0" stroke-linecap="butt"/><path d="M69.97889,99.64063c0.33871,-5.94285 5.43091,-10.48591 11.37378,-10.14718c5.94285,0.33871 10.48591,5.43091 10.14718,11.37378c-0.33871,5.94285 -5.43091,10.48591 -11.37378,10.14718c-5.94285,-0.33871 -10.48591,-5.43091 -10.14718,-11.37378z" data-paper-data="{&quot;origPos&quot;:null,&quot;origRot&quot;:0}" fill="url(#color-6)" stroke="#666666" stroke-width="2" stroke-linecap="butt"/><path d="M48.18915,120.46845c0,0 4.71982,-22.07772 9.63495,-36.37978c3.25037,-9.45797 11.26338,-24.06765 11.26338,-24.06765l32.20378,8.8588l0.21847,4.75381c0,0 -8.97133,-1.40664 -13.91712,-2.19907c-4.57038,-0.73222 -9.01628,-4.08592 -13.03368,-1.78697c-7.35673,4.20989 -7.80956,12.80259 -10.62068,20.79893c-3.79809,10.80371 -7.20067,31.09881 -7.20067,31.09881z" data-paper-data="{&quot;origRot&quot;:0,&quot;origPos&quot;:null}" fill="#7a7a7a" stroke="none" stroke-width="0" stroke-linecap="butt"/><path d="M104.42311,73.78788l-0.00068,-4.57994l32.79641,2.00592c0,0 -6.96434,2.83739 -13.90335,2.8715c-6.99073,0.03429 -18.6309,-0.2768 -18.6309,-0.2768z" data-paper-data="{&quot;origPos&quot;:null,&quot;origRot&quot;:0}" fill="#b0936a" stroke="none" stroke-width="0" stroke-linecap="butt"/><path d="M50.28957,122.92808l5.33532,1.40118l-0.97355,5.91661z" data-paper-data="{&quot;origPos&quot;:null,&quot;origRot&quot;:0}" fill="#b0936a" stroke="none" stroke-width="0" stroke-linecap="butt"/><path d="M105.38401,28.46456c13.86388,0.89864 21.58859,2.51908 35.39329,4.08288c7.99323,0.90547 23.76673,1.96391 23.76673,1.96391c0,0 -10.35351,5.05861 -12.25827,5.44959c-3.53287,0.72519 -9.86216,2.5437 -9.86216,2.5437c0,0 4.8248,1.53156 8.20255,3.04807c3.63141,1.63043 9.26115,3.28425 9.26115,3.28425c0,0 -5.87873,2.11303 -9.55933,2.83026c-4.5979,0.89595 -10.87657,3.25444 -10.87657,3.25444c0,0 6.93667,4.12028 12.29352,5.62953c5.38704,1.51775 12.39355,4.474 12.39355,4.474c0,0 -10.38389,4.93392 -16.96509,5.53566c-16.60023,1.51976 -33.32139,-2.20262 -49.96898,-2.99266c-10.14888,-0.48295 -24.66226,-8.3383 -30.28963,0.41258c-14.74685,21.59273 -17.32484,78.30641 -21.16075,76.21607c-3.8361,-2.0905 -11.78603,-62.23247 -5.5648,-92.51256c2.40604,-11.70202 13.64476,-17.91973 27.53981,-22.75605c13.89505,-4.83621 25.3158,-1.02676 37.65503,-0.4637z" data-paper-data="{&quot;origPos&quot;:null,&quot;origRot&quot;:0}" id="ID0.5302143599838018" fill="url(#color-7)" stroke="#a96300" stroke-width="3.5" stroke-linecap="round"/></g><path d="M248.51265,328.47641l-3.0073,-23.79395l5.06349,5.02099l5.78113,24.6188z" data-paper-data="{&quot;origPos&quot;:null,&quot;origRot&quot;:0,&quot;index&quot;:null}" fill="#ff2e2e" stroke="#000000" stroke-width="2" stroke-linecap="butt"/><path d="M231.19311,328.12584l14.62456,-24.14395l5.56863,5.61323l-13.30958,25.11706z" data-paper-data="{&quot;origPos&quot;:null,&quot;origRot&quot;:0,&quot;index&quot;:null}" fill="#ffffff" stroke="#000000" stroke-width="2" stroke-linecap="butt"/><path d="M288.74748,327.67759l-4.84362,-6.09895l20.2171,2.95855l6.6673,6.70271z" data-paper-data="{&quot;origPos&quot;:null,&quot;origRot&quot;:0}" fill="#ffffff" stroke="#000000" stroke-width="2" stroke-linecap="butt"/><path d="M310.87982,328.96147l-5.15739,-5.83602l20.34463,1.89218l7.01028,6.34313z" data-paper-data="{&quot;origPos&quot;:null,&quot;origRot&quot;:0}" fill="#ffffff" stroke="#000000" stroke-width="2" stroke-linecap="butt"/><path d="M268.88971,325.46299l-5.09228,-5.89291l20.32236,2.11792l6.93944,6.42054z" data-paper-data="{&quot;origPos&quot;:null,&quot;origRot&quot;:0}" fill="#ffffff" stroke="#000000" stroke-width="2" stroke-linecap="butt"/><path d="M245.15019,308.84392l-5.45612,-5.55773l20.41582,0.82346l7.33306,5.96703z" data-paper-data="{&quot;origPos&quot;:null,&quot;origRot&quot;:0}" fill="#ffffff" stroke="#000000" stroke-width="2" stroke-linecap="butt"/><path d="M323.83372,327.21639l-13.03134,-19.79323l6.67791,2.24763l15.85078,19.31657z" data-paper-data="{&quot;origPos&quot;:null,&quot;origRot&quot;:0,&quot;index&quot;:null}" fill="#ff2e2e" stroke="#000000" stroke-width="2" stroke-linecap="butt"/><path d="M299.63917,314.90415l27.45168,-4.93584l-0.52203,7.79527l-27.31374,6.54637z" data-paper-data="{&quot;origPos&quot;:null,&quot;origRot&quot;:0,&quot;index&quot;:null}" fill="#ffffff" stroke="#000000" stroke-width="2" stroke-linecap="butt"/><path d="M295.98715,321.03826l11.85376,-20.52014l0.98362,6.97701l-10.16406,22.82693z" data-paper-data="{&quot;origPos&quot;:null,&quot;origRot&quot;:0,&quot;index&quot;:null}" fill="#ff2e2e" stroke="#000000" stroke-width="2" stroke-linecap="butt"/><path d="M282.75158,320.91554l17.75262,-21.51283l4.64127,6.28469l-16.60619,22.65237z" data-paper-data="{&quot;origPos&quot;:null,&quot;origRot&quot;:0,&quot;index&quot;:null}" fill="#ffffff" stroke="#000000" stroke-width="2" stroke-linecap="butt"/><path d="M283.10535,321.31325l-8.17845,-22.24187l5.99009,3.71012l11.03233,22.42018z" data-paper-data="{&quot;origPos&quot;:null,&quot;origRot&quot;:0,&quot;index&quot;:null}" fill="#ff2e2e" stroke="#000000" stroke-width="2" stroke-linecap="butt"/><path d="M263.426,329.32846l17.75262,-21.51283l4.64127,6.28469l-16.60619,22.65237z" data-paper-data="{&quot;origPos&quot;:null,&quot;origRot&quot;:0,&quot;index&quot;:null}" fill="#ffffff" stroke="#000000" stroke-width="2" stroke-linecap="butt"/><path d="M260.50236,301.73126l0.4641,-23.69329l4.23214,5.6334l2.12983,24.8966z" data-paper-data="{&quot;origPos&quot;:null,&quot;origRot&quot;:0,&quot;index&quot;:null}" fill="#ff2e2e" stroke="#000000" stroke-width="2" stroke-linecap="butt"/><path d="M242.67019,300.79296l18.70184,-23.39522l4.64127,6.2847l-18.022,23.11894z" data-paper-data="{&quot;origPos&quot;:null,&quot;origRot&quot;:0,&quot;index&quot;:null}" fill="#ffffff" stroke="#000000" stroke-width="2" stroke-linecap="butt"/><path d="M304.10795,315.7309l-4.78598,-6.02637l19.97651,2.92334l6.58797,6.62296z" data-paper-data="{&quot;origPos&quot;:null,&quot;origRot&quot;:0}" fill="#ffffff" stroke="#000000" stroke-width="2" stroke-linecap="butt"/><path d="M284.4865,313.54267l-5.03169,-5.82279l20.08052,2.09272l6.85686,6.34414z" data-paper-data="{&quot;origPos&quot;:null,&quot;origRot&quot;:0}" fill="#ffffff" stroke="#000000" stroke-width="2" stroke-linecap="butt"/><path d="M261.63358,310.38877l-4.85947,-5.96726l20.01083,2.67831l6.66865,6.5417z" data-paper-data="{&quot;origPos&quot;:null,&quot;origRot&quot;:0}" fill="#ffffff" stroke="#000000" stroke-width="2" stroke-linecap="butt"/><path d="M36.57734,263.48194l16.2146,-10.09263l11.84328,19.82297c0,0 -3.95073,7.39454 -8.43287,9.53995c-4.48213,2.14543 -13.10969,0.77159 -13.10969,0.77159z" data-paper-data="{&quot;origRot&quot;:0,&quot;origPos&quot;:null,&quot;index&quot;:null}" fill="#ffd499" stroke="#806c4d" stroke-width="2" stroke-linecap="butt"/><path d="M60.88273,174.95199c0,0 -23.77388,16.3145 -25.17674,28.71239c0.57671,8.11093 23.09002,55.01599 23.09002,55.01599c0,0 -5.60643,4.57894 -9.82661,7.77233c-4.27248,3.23296 -12.18814,5.16795 -12.18814,5.16795c0,0 -21.39104,-51.51666 -25.42855,-63.22348c-2.84902,-8.26077 27.30521,-49.03523 41.8969,-60.58137c2.50941,-2.12549 10.11141,0.52293 10.11141,0.52293z" data-paper-data="{&quot;origPos&quot;:null,&quot;index&quot;:null,&quot;origRot&quot;:0}" id="ID0.5423141438513994" fill="#000000" stroke="#000000" stroke-width="2.54325" stroke-linecap="round"/><path d="M238.97321,302.89583l-2.97151,-23.5108l5.00323,4.96124l5.71233,24.32583z" data-paper-data="{&quot;origPos&quot;:null,&quot;origRot&quot;:0,&quot;index&quot;:null}" fill="#ff2e2e" stroke="#000000" stroke-width="2" stroke-linecap="butt"/><path d="M352.77911,338.59974l-20.60173,-18.80229l6.50811,-4.32242l21.79697,17.71404z" data-paper-data="{&quot;origPos&quot;:null,&quot;origRot&quot;:0,&quot;index&quot;:null}" fill="#ffffff" stroke="#000000" stroke-width="2" stroke-linecap="butt"/><path d="M240.66603,282.87736l-5.3912,-5.4916l20.17287,0.81366l7.2458,5.89603z" data-paper-data="{&quot;origPos&quot;:null,&quot;origRot&quot;:0}" fill="#ffffff" stroke="#000000" stroke-width="2" stroke-linecap="butt"/><path d="M329.61797,327.90119l-7.09235,-2.98685l18.92537,-7.03116l8.95942,2.64455z" data-paper-data="{&quot;origPos&quot;:null,&quot;origRot&quot;:0}" fill="#ffffff" stroke="#000000" stroke-width="2" stroke-linecap="butt"/><path d="M361.81108,314.17565l-21.07894,-11.44005l7.03208,-1.18287l23.36721,9.66853z" data-paper-data="{&quot;origPos&quot;:null,&quot;origRot&quot;:0,&quot;index&quot;:null}" fill="#ff2e2e" stroke="#000000" stroke-width="2" stroke-linecap="butt"/><path d="M345.70621,334.50789l0.09877,-28.22761l7.6644,1.9429l1.52959,28.38436z" data-paper-data="{&quot;origPos&quot;:null,&quot;origRot&quot;:0,&quot;index&quot;:null}" fill="#ffffff" stroke="#000000" stroke-width="2" stroke-linecap="butt"/><path d="M307.38066,313.71647l2.17216,-23.88469l3.8672,5.99115l0.35985,25.28591z" data-paper-data="{&quot;origPos&quot;:null,&quot;origRot&quot;:0,&quot;index&quot;:null}" fill="#ff2e2e" stroke="#000000" stroke-width="2" stroke-linecap="butt"/><path d="M295.55978,309.41845l19.46789,-20.4404l4.2334,6.67803l-18.39253,21.67318z" data-paper-data="{&quot;origPos&quot;:null,&quot;origRot&quot;:0,&quot;index&quot;:null}" fill="#ffffff" stroke="#000000" stroke-width="2" stroke-linecap="butt"/><path d="M293.64301,309.20422l2.17216,-23.88469l3.8672,5.99115l0.35985,25.28591z" data-paper-data="{&quot;origPos&quot;:null,&quot;origRot&quot;:0,&quot;index&quot;:null}" fill="#ff2e2e" stroke="#000000" stroke-width="2" stroke-linecap="butt"/><path d="M276.80278,305.14278l19.46789,-20.4404l4.2334,6.67803l-18.39253,21.67318z" data-paper-data="{&quot;origPos&quot;:null,&quot;origRot&quot;:0,&quot;index&quot;:null}" fill="#ffffff" stroke="#000000" stroke-width="2" stroke-linecap="butt"/><path d="M283.64426,302.71051l5.30091,-23.39011l3.04392,6.44855l-2.97564,25.11279z" data-paper-data="{&quot;origPos&quot;:null,&quot;origRot&quot;:0,&quot;index&quot;:null}" fill="#ff2e2e" stroke="#000000" stroke-width="2" stroke-linecap="butt"/><path d="M264.39771,301.65557l23.7833,-15.20405l2.51745,7.49535l-23.0332,16.65783z" data-paper-data="{&quot;origPos&quot;:null,&quot;origRot&quot;:0,&quot;index&quot;:null}" fill="#ffffff" stroke="#000000" stroke-width="2" stroke-linecap="butt"/><path d="M251.84598,277.14306l-3.0073,-23.79395l5.06349,5.02099l5.78113,24.6188z" data-paper-data="{&quot;origPos&quot;:null,&quot;origRot&quot;:0,&quot;index&quot;:null}" fill="#ff2e2e" stroke="#000000" stroke-width="2" stroke-linecap="butt"/><path d="M234.52644,276.79249l14.62456,-24.14395l5.56863,5.61323l-13.30958,25.11706z" data-paper-data="{&quot;origPos&quot;:null,&quot;origRot&quot;:0,&quot;index&quot;:null}" fill="#ffffff" stroke="#000000" stroke-width="2" stroke-linecap="butt"/><path d="M309.37019,295.32867l-4.72971,-6.1877l20.15878,3.33286l6.54189,6.82517z" data-paper-data="{&quot;origPos&quot;:null,&quot;origRot&quot;:0}" fill="#ffffff" stroke="#000000" stroke-width="2" stroke-linecap="butt"/><path d="M337.8735,328.12223l-6.70554,3.9615l5.70303,-19.62038l7.5537,-5.68516z" data-paper-data="{&quot;origPos&quot;:null,&quot;origRot&quot;:0}" fill="#ffffff" stroke="#000000" stroke-width="2" stroke-linecap="butt"/><path d="M314.58199,295.01772l-3.40964,-7.00228l19.09845,7.26177l5.05956,7.98624z" data-paper-data="{&quot;origPos&quot;:null,&quot;origRot&quot;:0}" fill="#ffffff" stroke="#000000" stroke-width="2" stroke-linecap="butt"/><path d="M268.7129,292.77372l-6.52357,-4.25449l20.11532,-3.58581l8.44461,4.25062z" data-paper-data="{&quot;origPos&quot;:null,&quot;origRot&quot;:0}" fill="#ffffff" stroke="#000000" stroke-width="2" stroke-linecap="butt"/><path d="M331.33541,317.97233l0.41155,-23.69428l4.24461,5.62401l2.18504,24.89182z" data-paper-data="{&quot;origPos&quot;:null,&quot;origRot&quot;:0,&quot;index&quot;:null}" fill="#ff2e2e" stroke="#000000" stroke-width="2" stroke-linecap="butt"/><path d="M323.25845,327.99724l19.63631,-19.8084l4.0502,6.68091l-18.59833,21.04751z" data-paper-data="{&quot;origPos&quot;:null,&quot;origRot&quot;:0,&quot;index&quot;:null}" fill="#ffffff" stroke="#000000" stroke-width="2" stroke-linecap="butt"/><path d="M354.74043,311.738l6.52831,-22.7809l2.64489,6.53076l-4.33,24.60951z" data-paper-data="{&quot;origPos&quot;:null,&quot;origRot&quot;:0,&quot;index&quot;:null}" fill="#ff2e2e" stroke="#000000" stroke-width="2" stroke-linecap="butt"/><path d="M339.14659,304.67952l22.67845,-16.23716l2.87321,7.26522l-21.86282,17.63272z" data-paper-data="{&quot;origPos&quot;:null,&quot;origRot&quot;:0,&quot;index&quot;:null}" fill="#ffffff" stroke="#000000" stroke-width="2" stroke-linecap="butt"/><path d="M336.37082,303.66697l6.52831,-22.7809l2.64489,6.53076l-4.33,24.60951z" data-paper-data="{&quot;origPos&quot;:null,&quot;origRot&quot;:0,&quot;index&quot;:null}" fill="#ff2e2e" stroke="#000000" stroke-width="2" stroke-linecap="butt"/><path d="M320.77699,296.6085l22.67845,-16.23716l2.87321,7.26522l-21.86282,17.63272z" data-paper-data="{&quot;origPos&quot;:null,&quot;origRot&quot;:0,&quot;index&quot;:null}" fill="#ffffff" stroke="#000000" stroke-width="2" stroke-linecap="butt"/><path d="M303.38374,294.51772l-15.95472,-17.5224l6.94645,1.18027l18.66553,16.6125z" data-paper-data="{&quot;origPos&quot;:null,&quot;origRot&quot;:0,&quot;index&quot;:null}" fill="#ff2e2e" stroke="#000000" stroke-width="2" stroke-linecap="butt"/><path d="M264.57669,284.55504l24.07891,-17.81295l2.87319,7.26523l-23.35094,17.72037z" data-paper-data="{&quot;origPos&quot;:null,&quot;origRot&quot;:0,&quot;index&quot;:null}" fill="#ffffff" stroke="#000000" stroke-width="2" stroke-linecap="butt"/><path d="M313.72577,322.16039l-7.57089,-1.37996l16.95346,-10.96301l9.31952,0.64145z" data-paper-data="{&quot;origPos&quot;:null,&quot;origRot&quot;:0}" fill="#ffffff" stroke="#000000" stroke-width="2" stroke-linecap="butt"/><path d="M345.18298,286.75543l-3.36907,-6.91896l18.87117,7.17535l4.99935,7.8912z" data-paper-data="{&quot;origPos&quot;:null,&quot;origRot&quot;:0}" fill="#ffffff" stroke="#000000" stroke-width="2" stroke-linecap="butt"/><path d="M323.90454,277.84302l-3.16555,-7.01441l18.65355,7.72346l4.76675,8.03385z" data-paper-data="{&quot;origPos&quot;:null,&quot;origRot&quot;:0}" fill="#ffffff" stroke="#000000" stroke-width="2" stroke-linecap="butt"/><path d="M239.48716,250.53304l-7.53488,-22.46805l5.88082,3.88101l10.38243,22.72844z" data-paper-data="{&quot;origPos&quot;:null,&quot;origRot&quot;:0,&quot;index&quot;:null}" fill="#ff2e2e" stroke="#000000" stroke-width="2" stroke-linecap="butt"/><path d="M376.15507,321.92689l25.35391,-11.62485l1.43815,7.67922l-24.81874,13.15012z" data-paper-data="{&quot;origPos&quot;:null,&quot;origRot&quot;:0,&quot;index&quot;:null}" fill="#ffffff" stroke="#000000" stroke-width="2" stroke-linecap="butt"/><path d="M289.79706,279.57869l-3.16555,-7.01441l18.65355,7.72346l4.76675,8.03385z" data-paper-data="{&quot;origPos&quot;:null,&quot;origRot&quot;:0}" fill="#ffffff" stroke="#000000" stroke-width="2" stroke-linecap="butt"/><path d="M408.2063,304.79025l7.49969,1.72554l-17.43815,10.17436l-9.28032,-1.06794z" data-paper-data="{&quot;origPos&quot;:null,&quot;origRot&quot;:0}" fill="#ffffff" stroke="#000000" stroke-width="2" stroke-linecap="butt"/><path d="M238.40069,334.0397l-3.37866,-26.73221l5.68877,5.64102l6.49503,27.65891z" data-paper-data="{&quot;origPos&quot;:null,&quot;origRot&quot;:0,&quot;index&quot;:null}" fill="#ff2e2e" stroke="#000000" stroke-width="2" stroke-linecap="butt"/><path d="M218.94241,333.64583l16.43052,-27.12542l6.25628,6.30638l-14.95314,28.2187z" data-paper-data="{&quot;origPos&quot;:null,&quot;origRot&quot;:0,&quot;index&quot;:null}" fill="#ffffff" stroke="#000000" stroke-width="2" stroke-linecap="butt"/><path d="M216.67994,333.29071l-3.37866,-26.7322l5.68877,5.64102l6.49503,27.65891z" data-paper-data="{&quot;origPos&quot;:null,&quot;origRot&quot;:0,&quot;index&quot;:null}" fill="#ff2e2e" stroke="#000000" stroke-width="2" stroke-linecap="butt"/><path d="M197.22165,332.89685l16.43051,-27.12542l6.25628,6.30639l-14.95314,28.2187z" data-paper-data="{&quot;origPos&quot;:null,&quot;origRot&quot;:0,&quot;index&quot;:null}" fill="#ffffff" stroke="#000000" stroke-width="2" stroke-linecap="butt"/><path d="M213.80772,312.63311l-6.4495,-5.91333l22.95384,-0.28132l8.57947,6.26173z" data-paper-data="{&quot;origPos&quot;:null,&quot;origRot&quot;:0}" fill="#ffffff" stroke="#000000" stroke-width="2" stroke-linecap="butt"/><path d="M232.16579,304.90218l16.235,-26.80263l6.18183,6.23133l-14.77519,27.8829z" data-paper-data="{&quot;origPos&quot;:null,&quot;origRot&quot;:0,&quot;index&quot;:null}" fill="#ffffff" stroke="#000000" stroke-width="2" stroke-linecap="butt"/><path d="M229.93023,304.55127l-3.33845,-26.41408l5.62107,5.57389l6.41773,27.32976z" data-paper-data="{&quot;origPos&quot;:null,&quot;origRot&quot;:0,&quot;index&quot;:null}" fill="#ff2e2e" stroke="#000000" stroke-width="2" stroke-linecap="butt"/><path d="M209.95452,306.40907l16.98397,-29.04961l6.18183,6.23134l-16.27318,28.63188z" data-paper-data="{&quot;origPos&quot;:null,&quot;origRot&quot;:0,&quot;index&quot;:null}" fill="#ffffff" stroke="#000000" stroke-width="2" stroke-linecap="butt"/><path d="M227.09219,284.13952l-6.37276,-5.84297l22.68069,-0.27797l8.47737,6.18722z" data-paper-data="{&quot;origPos&quot;:null,&quot;origRot&quot;:0}" fill="#ffffff" stroke="#000000" stroke-width="2" stroke-linecap="butt"/><path d="M205.9625,304.55127l-3.33845,-26.41408l5.62107,5.57389l6.41773,27.32976z" data-paper-data="{&quot;origPos&quot;:null,&quot;origRot&quot;:0,&quot;index&quot;:null}" fill="#ff2e2e" stroke="#000000" stroke-width="2" stroke-linecap="butt"/><path d="M207.24392,283.76502l-6.37276,-5.84297l22.68069,-0.27797l8.47737,6.18722z" data-paper-data="{&quot;origPos&quot;:null,&quot;origRot&quot;:0}" fill="#ffffff" stroke="#000000" stroke-width="2" stroke-linecap="butt"/><path d="M253.40934,278.45589l-21.44575,-16.31277l8.01069,-0.109l24.28995,14.73767z" data-paper-data="{&quot;origPos&quot;:null,&quot;origRot&quot;:0,&quot;index&quot;:null}" fill="#ff2e2e" stroke="#000000" stroke-width="2" stroke-linecap="butt"/><path d="M221.44242,276.14583l16.43051,-27.12542l6.25629,6.30638l-14.95314,28.2187z" data-paper-data="{&quot;origPos&quot;:null,&quot;origRot&quot;:0,&quot;index&quot;:null}" fill="#ffffff" stroke="#000000" stroke-width="2" stroke-linecap="butt"/><path d="M219.17994,275.79071l-3.37866,-26.7322l5.68877,5.64101l6.49502,27.65891z" data-paper-data="{&quot;origPos&quot;:null,&quot;origRot&quot;:0,&quot;index&quot;:null}" fill="#ff2e2e" stroke="#000000" stroke-width="2" stroke-linecap="butt"/><path d="M199.72166,275.39682l16.43051,-27.12542l6.25628,6.3064l-14.95315,28.21869z" data-paper-data="{&quot;origPos&quot;:null,&quot;origRot&quot;:0,&quot;index&quot;:null}" fill="#ffffff" stroke="#000000" stroke-width="2" stroke-linecap="butt"/><path d="M216.30772,255.13312l-6.4495,-5.91333l22.95385,-0.28132l8.57946,6.26173z" data-paper-data="{&quot;origPos&quot;:null,&quot;origRot&quot;:0}" fill="#ffffff" stroke="#000000" stroke-width="2" stroke-linecap="butt"/><path d="M231.17769,247.95577l10.64989,-29.47094l7.28607,4.89466l-9.00622,30.24319z" data-paper-data="{&quot;origPos&quot;:null,&quot;origRot&quot;:0,&quot;index&quot;:null}" fill="#ffffff" stroke="#000000" stroke-width="2" stroke-linecap="butt"/><path d="M228.91677,248.05111l-8.46534,-25.24257l6.60703,4.36026l11.66453,25.53511z" data-paper-data="{&quot;origPos&quot;:null,&quot;origRot&quot;:0,&quot;index&quot;:null}" fill="#ff2e2e" stroke="#000000" stroke-width="2" stroke-linecap="butt"/><path d="M209.69594,253.79916l10.94258,-31.82129l7.28607,4.89466l-10.32776,31.27201z" data-paper-data="{&quot;origPos&quot;:null,&quot;origRot&quot;:0,&quot;index&quot;:null}" fill="#ffffff" stroke="#000000" stroke-width="2" stroke-linecap="butt"/><path d="M222.12191,228.59543l-7.39695,-4.47633l22.18358,-4.73071l9.52816,4.40018z" data-paper-data="{&quot;origPos&quot;:null,&quot;origRot&quot;:0}" fill="#ffffff" stroke="#000000" stroke-width="2" stroke-linecap="butt"/><path d="M201.50565,251.71102l1.90307,-26.55612l4.41965,6.56744l0.93703,28.05753z" data-paper-data="{&quot;origPos&quot;:null,&quot;origRot&quot;:0,&quot;index&quot;:null}" fill="#ff2e2e" stroke="#000000" stroke-width="2" stroke-linecap="butt"/><path d="M202.58725,232.12965l-7.39695,-4.47633l22.18358,-4.73071l9.52816,4.40019z" data-paper-data="{&quot;origPos&quot;:null,&quot;origRot&quot;:0}" fill="#ffffff" stroke="#000000" stroke-width="2" stroke-linecap="butt"/><path d="M393.2639,332.13844l-25.35025,9.13187l4.26335,-6.78283l25.57442,-12.37536z" data-paper-data="{&quot;origPos&quot;:null,&quot;origRot&quot;:0,&quot;index&quot;:null}" fill="#ff2e2e" stroke="#000000" stroke-width="2" stroke-linecap="butt"/><path d="M354.1561,332.93397l20.11806,-24.51558l5.29673,7.13135l-18.81101,25.8077z" data-paper-data="{&quot;origPos&quot;:null,&quot;origRot&quot;:0,&quot;index&quot;:null}" fill="#ffffff" stroke="#000000" stroke-width="2" stroke-linecap="butt"/><path d="M353.01926,338.56863l-20.20091,-17.83113l7.99736,0.47462l23.15227,16.46733z" data-paper-data="{&quot;origPos&quot;:null,&quot;origRot&quot;:0,&quot;index&quot;:null}" fill="#ff2e2e" stroke="#000000" stroke-width="2" stroke-linecap="butt"/><path d="M327.03352,323.07611l30.16993,-9.7737l0.60817,8.86238l-29.76738,11.56696z" data-paper-data="{&quot;origPos&quot;:null,&quot;origRot&quot;:0,&quot;index&quot;:null}" fill="#ffffff" stroke="#000000" stroke-width="2" stroke-linecap="butt"/><path d="M347.35105,325.13705l-4.32715,-7.60521l21.93577,6.76615l6.24788,8.58956z" data-paper-data="{&quot;origPos&quot;:null,&quot;origRot&quot;:0}" fill="#ffffff" stroke="#000000" stroke-width="2" stroke-linecap="butt"/><path d="M375.762,320.99176l29.79242,-9.71432l0.61768,8.75574l-29.39125,11.48551z" data-paper-data="{&quot;origPos&quot;:null,&quot;origRot&quot;:0,&quot;index&quot;:null}" fill="#ffffff" stroke="#000000" stroke-width="2" stroke-linecap="butt"/><path d="M362.71312,328.94005l6.53278,-25.8103l3.19885,7.24098l-4.00012,27.78673z" data-paper-data="{&quot;origPos&quot;:null,&quot;origRot&quot;:0,&quot;index&quot;:null}" fill="#ff2e2e" stroke="#000000" stroke-width="2" stroke-linecap="butt"/><path d="M345.62622,316.13328l33.10925,-6.00935l-0.70829,8.74889l-32.32951,6.27719z" data-paper-data="{&quot;origPos&quot;:null,&quot;origRot&quot;:0,&quot;index&quot;:null}" fill="#ffffff" stroke="#000000" stroke-width="2" stroke-linecap="butt"/><path d="M373.18759,309.65292l0.28914,-8.6411l14.97109,17.03988l0.8191,10.46312z" data-paper-data="{&quot;origPos&quot;:null,&quot;origRot&quot;:0}" fill="#ffffff" stroke="#000000" stroke-width="2" stroke-linecap="butt"/><path d="M363.20076,326.22526l-24.34827,-10.77082l7.67506,-1.93854l26.72162,8.60573z" data-paper-data="{&quot;origPos&quot;:null,&quot;origRot&quot;:0,&quot;index&quot;:null}" fill="#ff2e2e" stroke="#000000" stroke-width="2" stroke-linecap="butt"/><path d="M358.71724,315.76635l1.76851,-8.46314l11.82307,19.35734l-0.98955,10.44837z" data-paper-data="{&quot;origPos&quot;:null,&quot;origRot&quot;:0}" fill="#ffffff" stroke="#000000" stroke-width="2" stroke-linecap="butt"/><path d="M409.76297,326.26551l26.23732,-6.13427l-5.02027,6.24341l-26.83565,9.32997z" data-paper-data="{&quot;origPos&quot;:null,&quot;origRot&quot;:0,&quot;index&quot;:null}" fill="#ff2e2e" stroke="#000000" stroke-width="2" stroke-linecap="butt"/><path d="M375.86562,306.08836l23.8664,20.88411l-7.29547,5.0683l-25.19922,-19.61862z" data-paper-data="{&quot;origPos&quot;:null,&quot;origRot&quot;:0,&quot;index&quot;:null}" fill="#ffffff" stroke="#000000" stroke-width="2" stroke-linecap="butt"/><path d="M363.56765,312.11606l26.30006,-5.85941l-5.08533,6.19053l-26.93181,9.04867z" data-paper-data="{&quot;origPos&quot;:null,&quot;origRot&quot;:0,&quot;index&quot;:null}" fill="#ff2e2e" stroke="#000000" stroke-width="2" stroke-linecap="butt"/><path d="M350.51912,315.61696l30.89397,7.16328l-4.04376,7.90947l-31.47263,-5.41889z" data-paper-data="{&quot;origPos&quot;:null,&quot;origRot&quot;:0,&quot;index&quot;:null}" fill="#ffffff" stroke="#000000" stroke-width="2" stroke-linecap="butt"/><path d="M389.30228,314.02343l1.81426,-8.5599l11.90947,19.62454l-1.03166,10.5713z" data-paper-data="{&quot;origPos&quot;:null,&quot;origRot&quot;:0}" fill="#ffffff" stroke="#000000" stroke-width="2" stroke-linecap="butt"/><path d="M407.24569,309.0833l26.35313,16.95491l-6.39647,6.01082l-27.47255,-15.52489z" data-paper-data="{&quot;origPos&quot;:null,&quot;origRot&quot;:0,&quot;index&quot;:null}" fill="#ffffff" stroke="#000000" stroke-width="2" stroke-linecap="butt"/><path d="M409.76131,330.78565l-4.48956,-26.24295l5.85928,5.32293l7.60593,27.0232z" data-paper-data="{&quot;origPos&quot;:null,&quot;origRot&quot;:0,&quot;index&quot;:null}" fill="#ff2e2e" stroke="#000000" stroke-width="2" stroke-linecap="butt"/><path d="M380.83425,314.9422l33.59278,1.96487l-2.7507,8.33536l-32.89814,-1.52077z" data-paper-data="{&quot;origPos&quot;:null,&quot;origRot&quot;:0,&quot;index&quot;:null}" fill="#ffffff" stroke="#000000" stroke-width="2" stroke-linecap="butt"/><path d="M409.79045,311.90189l4.88413,-7.13424l3.47914,22.41399l-4.92764,9.26638z" data-paper-data="{&quot;origPos&quot;:null,&quot;origRot&quot;:0}" fill="#ffffff" stroke="#000000" stroke-width="2" stroke-linecap="butt"/><path d="M395.2377,311.04934l25.98709,-5.78967l-5.02481,6.11684l-26.61131,8.94099z" data-paper-data="{&quot;origPos&quot;:null,&quot;origRot&quot;:0,&quot;index&quot;:null}" fill="#ff2e2e" stroke="#000000" stroke-width="2" stroke-linecap="butt"/><path d="M403.07028,316.32106l-1.02787,-8.58462l17.38756,14.56584l2.40022,10.21698z" data-paper-data="{&quot;origPos&quot;:null,&quot;origRot&quot;:0}" fill="#ffffff" stroke="#000000" stroke-width="2" stroke-linecap="butt"/><path d="M240.57621,219.41132l1.37077,-33.62225l8.38268,2.60293l-0.93902,32.9199z" data-paper-data="{&quot;origPos&quot;:null,&quot;origRot&quot;:0,&quot;index&quot;:null}" fill="#ffffff" stroke="#000000" stroke-width="2" stroke-linecap="butt"/><path d="M236.1792,219.64345l-15.34007,-21.76077l7.57902,2.2854l18.48905,21.12483z" data-paper-data="{&quot;origPos&quot;:null,&quot;origRot&quot;:0,&quot;index&quot;:null}" fill="#ff2e2e" stroke="#000000" stroke-width="2" stroke-linecap="butt"/><path d="M220.39251,227.86087l1.76347,-31.28652l8.38268,2.60293l0.03252,31.55568z" data-paper-data="{&quot;origPos&quot;:null,&quot;origRot&quot;:0,&quot;index&quot;:null}" fill="#ffffff" stroke="#000000" stroke-width="2" stroke-linecap="butt"/><path d="M218.25361,228.59975l-15.34007,-21.76077l7.57902,2.2854l18.48905,21.12483z" data-paper-data="{&quot;origPos&quot;:null,&quot;origRot&quot;:0,&quot;index&quot;:null}" fill="#ff2e2e" stroke="#000000" stroke-width="2" stroke-linecap="butt"/><path d="M201.48411,239.61175l1.37077,-33.62225l8.38268,2.60293l-0.93902,32.9199z" data-paper-data="{&quot;origPos&quot;:null,&quot;origRot&quot;:0,&quot;index&quot;:null}" fill="#ffffff" stroke="#000000" stroke-width="2" stroke-linecap="butt"/><path d="M197.08709,239.84388l-15.34007,-21.76077l7.57902,2.2854l18.48905,21.12483z" data-paper-data="{&quot;origPos&quot;:null,&quot;origRot&quot;:0,&quot;index&quot;:null}" fill="#ff2e2e" stroke="#000000" stroke-width="2" stroke-linecap="butt"/><path d="M207.26149,210.75976l-8.3691,-2.17039l19.8995,-10.88582l10.38923,1.48707z" data-paper-data="{&quot;origPos&quot;:null,&quot;origRot&quot;:0}" fill="#ffffff" stroke="#000000" stroke-width="2" stroke-linecap="butt"/><path d="M189.55728,219.74056l-8.36909,-2.17038l19.8995,-10.88582l10.38923,1.48706z" data-paper-data="{&quot;origPos&quot;:null,&quot;origRot&quot;:0}" fill="#ffffff" stroke="#000000" stroke-width="2" stroke-linecap="butt"/><path d="M227.36639,200.64575l-8.3691,-2.17039l19.8995,-10.88582l10.38923,1.48707z" data-paper-data="{&quot;origPos&quot;:null,&quot;origRot&quot;:0}" fill="#ffffff" stroke="#000000" stroke-width="2" stroke-linecap="butt"/><path d="M438.18508,307.34339l26.77381,20.38377l-6.93547,5.37994l-26.44543,-19.62753z" data-paper-data="{&quot;origPos&quot;:null,&quot;origRot&quot;:0,&quot;index&quot;:null}" fill="#ffffff" stroke="#000000" stroke-width="2" stroke-linecap="butt"/><path d="M429.10189,309.36917l15.4752,21.66488l-7.59309,-2.23819l-18.62016,-21.00935z" data-paper-data="{&quot;origPos&quot;:null,&quot;origRot&quot;:0,&quot;index&quot;:null}" fill="#ff2e2e" stroke="#000000" stroke-width="2" stroke-linecap="butt"/><path d="M424.52049,309.32843l23.9606,20.1952l-7.11465,5.14067l-25.25417,-18.92058z" data-paper-data="{&quot;origPos&quot;:null,&quot;origRot&quot;:0,&quot;index&quot;:null}" fill="#ffffff" stroke="#000000" stroke-width="2" stroke-linecap="butt"/><path d="M417.32763,327.4633l15.67996,-21.51715l0.27026,7.91146l-14.0662,24.29496z" data-paper-data="{&quot;origPos&quot;:null,&quot;origRot&quot;:0,&quot;index&quot;:null}" fill="#ff2e2e" stroke="#000000" stroke-width="2" stroke-linecap="butt"/><path d="M408.24267,304.15669l33.59278,1.96487l-2.7507,8.33536l-32.89814,-1.52077z" data-paper-data="{&quot;origPos&quot;:null,&quot;origRot&quot;:0,&quot;index&quot;:null}" fill="#ffffff" stroke="#000000" stroke-width="2" stroke-linecap="butt"/><path d="M416.48404,301.83325l26.08489,-5.33172l-5.13161,6.02753l-26.76444,8.47158z" data-paper-data="{&quot;origPos&quot;:null,&quot;origRot&quot;:0,&quot;index&quot;:null}" fill="#ff2e2e" stroke="#000000" stroke-width="2" stroke-linecap="butt"/><path d="M434.38497,314.14435l2.80979,-8.17663l9.31765,20.68024l-2.28439,10.2435z" data-paper-data="{&quot;origPos&quot;:null,&quot;origRot&quot;:0}" fill="#ffffff" stroke="#000000" stroke-width="2" stroke-linecap="butt"/><path d="M423.24649,311.22557l-0.53526,-8.62936l16.52613,15.53636l1.81202,10.33751z" data-paper-data="{&quot;origPos&quot;:null,&quot;origRot&quot;:0}" fill="#ffffff" stroke="#000000" stroke-width="2" stroke-linecap="butt"/><path d="M431.88311,322.64817l0.9668,-8.59171l13.58684,18.16285l-0.00503,10.49514z" data-paper-data="{&quot;origPos&quot;:null,&quot;origRot&quot;:0}" fill="#ffffff" stroke="#000000" stroke-width="2" stroke-linecap="butt"/><path d="M362.48631,286.30338l17.69638,-16.14019l-1.18703,7.02175l-16.77445,18.87922z" data-paper-data="{&quot;origPos&quot;:null,&quot;origRot&quot;:0,&quot;index&quot;:null}" fill="#ff2e2e" stroke="#000000" stroke-width="2" stroke-linecap="butt"/><path d="M346.15598,277.54896l28.87462,-9.09109l0.35279,7.88843l-28.14853,9.24235z" data-paper-data="{&quot;origPos&quot;:null,&quot;origRot&quot;:0,&quot;index&quot;:null}" fill="#ffffff" stroke="#000000" stroke-width="2" stroke-linecap="butt"/><path d="M327.8631,306.88898l22.62276,-7.86624l-3.85653,5.98677l-22.85408,10.747z" data-paper-data="{&quot;origPos&quot;:null,&quot;origRot&quot;:0,&quot;index&quot;:null}" fill="#ff2e2e" stroke="#000000" stroke-width="2" stroke-linecap="butt"/><path d="M309.38539,318.44869l19.79788,-22.90057l4.44299,6.52776l-19.10053,22.64798z" data-paper-data="{&quot;origPos&quot;:null,&quot;origRot&quot;:0,&quot;index&quot;:null}" fill="#ffffff" stroke="#000000" stroke-width="2" stroke-linecap="butt"/><path d="M219.16278,197.28329l-13.80005,-19.57616l6.81816,2.05597l16.63289,19.00405z" data-paper-data="{&quot;origPos&quot;:null,&quot;origRot&quot;:0,&quot;index&quot;:null}" fill="#ff2e2e" stroke="#000000" stroke-width="2" stroke-linecap="butt"/><path d="M204.0768,207.18977l1.23315,-30.24684l7.54112,2.34162l-0.84475,29.61499z" data-paper-data="{&quot;origPos&quot;:null,&quot;origRot&quot;:0,&quot;index&quot;:null}" fill="#ffffff" stroke="#000000" stroke-width="2" stroke-linecap="butt"/><path d="M239.03311,186.72773l-13.80005,-19.57616l6.81816,2.05597l16.63289,19.00405z" data-paper-data="{&quot;origPos&quot;:null,&quot;origRot&quot;:0,&quot;index&quot;:null}" fill="#ff2e2e" stroke="#000000" stroke-width="2" stroke-linecap="butt"/><path d="M223.94714,196.63421l1.23315,-30.24684l7.54112,2.34162l-0.84474,29.61499z" data-paper-data="{&quot;origPos&quot;:null,&quot;origRot&quot;:0,&quot;index&quot;:null}" fill="#ffffff" stroke="#000000" stroke-width="2" stroke-linecap="butt"/><path d="M196.85006,208.57014l-13.80005,-19.57616l6.81816,2.05597l16.63289,19.00405z" data-paper-data="{&quot;origPos&quot;:null,&quot;origRot&quot;:0,&quot;index&quot;:null}" fill="#ff2e2e" stroke="#000000" stroke-width="2" stroke-linecap="butt"/><path d="M181.76409,218.47661l1.23315,-30.24684l7.54112,2.34162l-0.84475,29.61499z" data-paper-data="{&quot;origPos&quot;:null,&quot;origRot&quot;:0,&quot;index&quot;:null}" fill="#ffffff" stroke="#000000" stroke-width="2" stroke-linecap="butt"/><path d="M447.09006,315.88857l19.81704,-13.45185l-2.17617,6.78075l-19.2951,16.29435z" data-paper-data="{&quot;origPos&quot;:null,&quot;origRot&quot;:0,&quot;index&quot;:null}" fill="#ff2e2e" stroke="#000000" stroke-width="2" stroke-linecap="butt"/><path d="M436.66642,315.85223l29.1752,-8.07462l0.07641,7.89595l-28.45486,8.25122z" data-paper-data="{&quot;origPos&quot;:null,&quot;origRot&quot;:0,&quot;index&quot;:null}" fill="#ffffff" stroke="#000000" stroke-width="2" stroke-linecap="butt"/><path d="M462.57225,330.50211l-22.18157,-9.03576l6.84981,-1.94792l24.25795,7.02556z" data-paper-data="{&quot;origPos&quot;:null,&quot;origRot&quot;:0,&quot;index&quot;:null}" fill="#ff2e2e" stroke="#000000" stroke-width="2" stroke-linecap="butt"/><path d="M453.2925,312.68292l25.57127,16.20191l-5.80067,5.35759l-25.21854,-15.54948z" data-paper-data="{&quot;origPos&quot;:null,&quot;origRot&quot;:0,&quot;index&quot;:null}" fill="#ffffff" stroke="#000000" stroke-width="2" stroke-linecap="butt"/><path d="M436.69628,305.84019l23.88541,-1.77588l-5.26802,4.79189l-24.8507,4.49994z" data-paper-data="{&quot;origPos&quot;:null,&quot;origRot&quot;:0,&quot;index&quot;:null}" fill="#ff2e2e" stroke="#000000" stroke-width="2" stroke-linecap="butt"/><path d="M416.03798,312.47863l30.24061,-1.3775l-1.68317,7.71483l-29.57764,1.71002z" data-paper-data="{&quot;origPos&quot;:null,&quot;origRot&quot;:0,&quot;index&quot;:null}" fill="#ffffff" stroke="#000000" stroke-width="2" stroke-linecap="butt"/></g></g></svg>