<svg version="1.1" xmlns="http://www.w3.org/2000/svg" xmlns:xlink="http://www.w3.org/1999/xlink" width="131.95027" height="336.20093" viewBox="0,0,131.95027,336.20093"><defs><radialGradient cx="237.49554" cy="148.28484" r="97.28323" gradientUnits="userSpaceOnUse" id="color-1"><stop offset="0" stop-color="#00ffff"/><stop offset="1" stop-color="#003fff"/></radialGradient><linearGradient x1="243.49274" y1="192.8079" x2="266.08409" y2="193.2184" gradientUnits="userSpaceOnUse" id="color-2"><stop offset="0" stop-color="#3b3b3b"/><stop offset="1" stop-color="#000000"/></linearGradient><linearGradient x1="198.11314" y1="189.88581" x2="245.95039" y2="199.19576" gradientUnits="userSpaceOnUse" id="color-3"><stop offset="0" stop-color="#000000"/><stop offset="1" stop-color="#3b3b3b"/></linearGradient><radialGradient cx="225.55758" cy="68.50917" r="51.99462" gradientUnits="userSpaceOnUse" id="color-4"><stop offset="0" stop-color="#b6b6b6"/><stop offset="1" stop-color="#666666"/></radialGradient><radialGradient cx="233.35167" cy="77.33146" r="15.71829" gradientUnits="userSpaceOnUse" id="color-5"><stop offset="0" stop-color="#ff0000"/><stop offset="1" stop-color="#ff0000" stop-opacity="0"/></radialGradient><radialGradient cx="233.94395" cy="79.26729" r="10.27134" gradientUnits="userSpaceOnUse" id="color-6"><stop offset="0" stop-color="#ff0000"/><stop offset="1" stop-color="#d20000"/></radialGradient><linearGradient x1="197.84323" y1="1.32197" x2="316.86588" y2="14.00792" gradientUnits="userSpaceOnUse" id="color-7"><stop offset="0" stop-color="#cc7700"/><stop offset="1" stop-color="#946f48"/></linearGradient></defs><g transform="translate(-191.47532,-3.0794)"><g data-paper-data="{&quot;isPaintingLayer&quot;:true}" fill-rule="nonzero" stroke-linejoin="miter" stroke-miterlimit="10" stroke-dasharray="" stroke-dashoffset="0" style="mix-blend-mode: normal"><path d="M253.49583,252.1683c0,0 12.01633,16.33213 19.70641,27.10625c6.50463,9.11326 8.27077,16.04239 13.66147,25.85576c0.00903,0.01644 -20.64116,-0.23499 -20.64116,-0.23499c0,0 -8.4037,-33.72999 -24.98379,-34.50375c-4.14908,-0.40375 -2.66758,11.16246 -0.97379,14.97151c3.42702,7.70677 9.21535,19.67344 9.21535,19.67344l-21.37171,0.32228c0,0 -3.60033,-11.19467 -8.25158,-18.35983c-4.62027,-7.11743 -11.75553,-31.48753 -11.75553,-31.48753z" data-paper-data="{&quot;origPos&quot;:null,&quot;index&quot;:null}" fill="#333333" stroke="#000000" stroke-width="2.5" stroke-linecap="butt"/><path d="M213.09063,118.14774l51.12502,1.57075l-3.05278,137.31945l-50.29514,-1.5557z" data-paper-data="{&quot;origPos&quot;:null,&quot;index&quot;:null,&quot;origRot&quot;:0}" id="ID0.9171315478160977" fill="url(#color-1)" stroke="#000000" stroke-width="2.54325" stroke-linecap="butt"/><g data-paper-data="{&quot;origPos&quot;:null,&quot;index&quot;:null,&quot;origRot&quot;:0}" stroke="#000000" stroke-width="0" stroke-linecap="butt"><path d="M237.78101,194.26067l-4.5529,-0.00902l6.96335,-20.47159l-5.11046,0.44644l5.3459,-16.92202l16.26437,-0.2202l-5.95782,12.78506l3.48852,-0.12803l-7.00224,19.54445l3.03591,0.3326l-19.67159,30.42654z" data-paper-data="{&quot;index&quot;:null,&quot;origPos&quot;:null}" fill="#ffde00"/><path d="M236.46356,191.14236l-4.5529,-0.00902l6.96337,-20.47159l-5.11046,0.44644l5.34591,-16.92202l16.26437,-0.2202l-5.95782,12.78506l3.48852,-0.12803l-7.00223,19.54445l3.03591,0.3326l-18.3026,30.70932z" data-paper-data="{&quot;index&quot;:null,&quot;origPos&quot;:null}" fill="#ff0000"/><path d="M233.72093,190.83467l-4.55292,-0.00902l6.96337,-20.47159l-5.11046,0.44644l5.34591,-16.92202l16.26437,-0.2202l-5.95782,12.78506l3.48852,-0.12804l-7.00223,19.54445l3.0359,0.3326l-15.52715,29.21255z" data-paper-data="{&quot;index&quot;:null,&quot;origPos&quot;:null}" fill="#000000"/></g><path d="M244.67638,127.67001c0,0 6.46785,-3.03727 10.61002,-5.11409c4.14829,-2.07989 10.59934,-3.66968 10.59934,-3.66968c0,0 0.26122,21.00495 0.21878,23.61238c-0.48487,29.81846 -1.35838,124.35202 -1.35838,124.35202l-20.38918,0.61283z" data-paper-data="{&quot;origPos&quot;:null,&quot;index&quot;:null,&quot;origRot&quot;:0}" id="ID0.5423141438513994" fill="url(#color-2)" stroke="#000000" stroke-width="2.54325" stroke-linecap="round"/><path d="M232.56268,267.98579l-25.13534,-1.95389c0,0 2.95729,-94.05004 3.55491,-123.86645c0.05227,-2.60729 1.06949,-23.9003 1.06949,-23.9003c0,0 6.77033,2.0419 11.088,4.21199c3.66402,1.84156 13.69904,5.34943 13.69904,5.34943z" data-paper-data="{&quot;origPos&quot;:null,&quot;index&quot;:null,&quot;origRot&quot;:0}" id="ID0.5423141438513994" fill="url(#color-3)" stroke="#000000" stroke-width="2.54325" stroke-linecap="round"/><path d="M251.63538,338.65325v-10.81353h43.16551v10.81353z" data-paper-data="{&quot;origPos&quot;:null}" fill="#ffffff" stroke="#000000" stroke-width="1" stroke-linecap="butt"/><path d="M244.98771,335.48749l-0.04432,-11.23762l7.17948,4.12973l-0.39886,10.14058z" data-paper-data="{&quot;origPos&quot;:null}" fill="#ffffff" stroke="#000000" stroke-width="1" stroke-linecap="butt"/><path d="M252.38878,327.80251l-6.60333,-3.7299l42.19052,0.41947l5.89425,3.21459z" data-paper-data="{&quot;origPos&quot;:null}" fill="#ffffff" stroke="#000000" stroke-width="1" stroke-linecap="butt"/><path d="M253.96206,336.34873v-6.55902h38.46782v6.55902z" data-paper-data="{&quot;origPos&quot;:null}" fill="#ff2e2e" stroke="#000000" stroke-width="0" stroke-linecap="butt"/><path d="M252.72116,326.37712l-0.88635,-0.79772l34.74513,0.17727l1.59544,0.62045z" data-paper-data="{&quot;origPos&quot;:null}" fill="#ff2e2e" stroke="#000000" stroke-width="0" stroke-linecap="butt"/><path d="M245.57151,330.78967l5.67266,2.4818" data-paper-data="{&quot;origPos&quot;:null}" fill="none" stroke="#000000" stroke-width="0.5" stroke-linecap="round"/><path d="M251.46667,24.7085c14.01017,1.49086 26.10745,8.44653 34.33411,18.47969c8.2266,10.0343 7.45805,24.22084 4.61969,39.95765c-1.95565,10.8427 -5.9838,21.41236 -15.66415,29.10879c-10.15994,8.07661 -24.80853,13.42762 -33.96937,12.49481c-9.16066,-0.93276 -22.61261,-6.79114 -30.83932,-16.82429c-8.2267,-10.03448 -12.86639,-20.67135 -11.39322,-34.47106c1.4732,-13.79979 5.28813,-29.82851 15.44835,-37.90623c10.15997,-8.07664 23.45386,-12.33031 37.4639,-10.83944z" data-paper-data="{&quot;origPos&quot;:null,&quot;origRot&quot;:0}" id="ID0.7719937418587506" fill="#ffd499" stroke="#806c4d" stroke-width="2.5" stroke-linecap="butt"/><path d="M254.31999,27.76479c5.24717,0.75276 2.27535,10.49727 2.00625,15.79105c-0.61062,11.99003 1.3243,26.03541 -4.74196,36.79793c-5.11116,8.32439 -15.05772,13.63284 -24.59893,15.41486c-10.30089,1.52566 -20.83016,1.12443 -24.38204,-4.78614c-5.30538,-17.31347 1.4151,-40.8751 13.83147,-54.47963c10.79903,-11.04512 22.62579,-10.92035 37.88516,-8.73808z" data-paper-data="{&quot;origPos&quot;:null,&quot;origRot&quot;:0}" id="ID0.479907026514411" fill="url(#color-4)" stroke="#666666" stroke-width="2.5" stroke-linecap="round"/><path d="M270.44565,75.34158c-0.43175,4.85707 -1.94152,15.32336 -1.94152,15.32336" data-paper-data="{&quot;origPos&quot;:null,&quot;origRot&quot;:0}" id="ID0.21129454905167222" fill="none" stroke="#000000" stroke-width="2.5" stroke-linecap="round"/><path d="M252.37161,108.30393l-14.17726,-1.63154" data-paper-data="{&quot;origPos&quot;:null,&quot;index&quot;:null,&quot;origRot&quot;:0}" fill="none" stroke="#000000" stroke-width="2" stroke-linecap="round"/><path d="M217.73647,75.53441c0.99249,-8.62403 8.78822,-14.81067 17.41223,-13.81818c8.62405,0.99249 14.81067,8.78822 13.81818,17.41223c-0.99249,8.62403 -8.78822,14.81067 -17.41223,13.81818c-8.62405,-0.99249 -14.81067,-8.78822 -13.81818,-17.41223z" data-paper-data="{&quot;origPos&quot;:null,&quot;origRot&quot;:0}" fill="url(#color-5)" stroke="none" stroke-width="0" stroke-linecap="butt"/><path d="M222.97524,76.29397c0.64854,-5.63552 5.7428,-9.67826 11.37828,-9.0297c5.63552,0.64854 9.67826,5.7428 9.0297,11.37828c-0.64854,5.63552 -5.7428,9.67826 -11.37828,9.0297c-5.63552,-0.64854 -9.67826,-5.7428 -9.0297,-11.37828z" data-paper-data="{&quot;origPos&quot;:null,&quot;origRot&quot;:0}" fill="url(#color-6)" stroke="#666666" stroke-width="2" stroke-linecap="butt"/><path d="M201.27912,92.41989c0,0 5.70264,-20.74591 11.16419,-34.08319c3.61171,-8.81998 12.03755,-22.27985 12.03755,-22.27985l30.15271,10.1965l-0.05315,4.53481c0,0 -8.45822,-1.83085 -13.1202,-2.8563c-4.30811,-0.94758 -8.35387,-4.38242 -12.3023,-2.41575c-7.23043,3.6014 -8.13302,11.75178 -11.2466,19.20527c-4.2067,10.07026 -8.55827,29.19247 -8.55827,29.19247z" data-paper-data="{&quot;origRot&quot;:0,&quot;origPos&quot;:null}" fill="#7a7a7a" stroke="none" stroke-width="0" stroke-linecap="butt"/><path d="M257.3438,51.09486l0.25082,-4.35745l31.0928,3.70909c0,0 -6.78176,2.31717 -13.38547,1.96862c-6.65299,-0.35119 -17.71049,-1.28624 -17.71049,-1.28624z" data-paper-data="{&quot;origPos&quot;:null,&quot;origRot&quot;:0}" fill="#b0936a" stroke="none" stroke-width="0" stroke-linecap="butt"/><path d="M203.60549,95.40976l4.99917,1.62605l-1.25109,5.57566z" data-paper-data="{&quot;origPos&quot;:null,&quot;origRot&quot;:0}" fill="#b0936a" stroke="none" stroke-width="0" stroke-linecap="butt"/><path d="M260.74641,8.02646c13.14093,1.61618 20.40134,3.58201 33.44947,5.82772c7.55516,1.30033 22.50416,3.17339 22.50416,3.17339c0,0 -10.12819,4.24437 -11.96187,4.51179c-3.40103,0.49597 -9.52265,1.87863 -9.52265,1.87863c0,0 4.50629,1.72201 7.63668,3.35033c3.36547,1.75058 8.63087,3.63316 8.63087,3.63316c0,0 -5.70911,1.6876 -9.25025,2.1679c-4.4237,0.59998 -10.52681,2.49913 -10.52681,2.49913c0,0 6.37344,4.30092 11.38712,6.03096c5.04197,1.73978 11.54574,4.93706 11.54574,4.93706c0,0 -10.15025,4.12409 -16.44473,4.33525c-15.87712,0.53452 -31.58148,-3.92506 -47.37685,-5.59075c-9.62924,-1.01671 -23.00619,-9.28723 -28.8406,-1.27049c-15.21585,19.73395 -20.7824,73.55055 -24.31716,71.35117c-3.53494,-2.19954 -7.79661,-59.85588 -0.21512,-88.32319c2.93163,-11.00136 13.96567,-16.29994 27.45112,-20.13835c13.48544,-3.83837 24.14216,0.41308 35.85094,1.62623z" data-paper-data="{&quot;origPos&quot;:null,&quot;origRot&quot;:0}" id="ID0.5302143599838018" fill="url(#color-7)" stroke="#a96300" stroke-width="3.5" stroke-linecap="round"/><path d="M251.56818,246.54763c-2.06097,0.20599 -5.27027,-0.34536 -5.27027,-0.34536l-0.07197,-23.87021c0,0 1.42517,0.27304 2.34186,0.07521c1.07614,-0.23221 2.76464,-1.17715 2.76464,-1.17715l5.34613,23.93467c0,0 -3.12015,1.1839 -5.11036,1.38281z" data-paper-data="{&quot;origPos&quot;:null,&quot;index&quot;:null,&quot;origRot&quot;:0}" fill="#1f1f1f" stroke="#000000" stroke-width="0" stroke-linecap="butt"/><path d="M250.6616,222.13739c0,0 2.20849,6.50246 3.21546,10.53499c1.1758,4.70852 2.3776,11.86287 2.3776,11.86287" data-paper-data="{&quot;origPos&quot;:null,&quot;origRot&quot;:0,&quot;index&quot;:null}" fill="none" stroke="#000000" stroke-width="2.54325" stroke-linecap="round"/><path d="M221.21271,245.00018l5.92961,-23.79684c0,0 1.66487,0.9859 2.73502,1.24438c0.91162,0.22017 2.34303,-0.01792 2.34303,-0.01792l-0.65547,23.86129c0,0 -3.22181,0.47271 -5.27713,0.2164c-1.98476,-0.24752 -5.07503,-1.50731 -5.07503,-1.50731z" data-paper-data="{&quot;origPos&quot;:null,&quot;origRot&quot;:0}" fill="#1f1f1f" stroke="#000000" stroke-width="0" stroke-linecap="butt"/><path d="M220.74615,244.079c0,0 1.74284,-7.34318 3.03334,-12.02153c1.10525,-4.00671 3.10553,-10.23291 3.10553,-10.23291" data-paper-data="{&quot;origPos&quot;:null,&quot;origRot&quot;:0}" fill="none" stroke="#000000" stroke-width="2.54325" stroke-linecap="round"/><path d="M246.5503,309.15612l-13.61579,-39.29825l27.64091,-9.9468l21.49921,33.86452c0,0 -5.95268,13.10819 -13.06774,15.9777c-11.00264,4.43743 -22.45661,-0.59723 -22.45661,-0.59723z" data-paper-data="{&quot;origRot&quot;:0,&quot;origPos&quot;:null,&quot;index&quot;:null}" fill="#ffd499" stroke="#806c4d" stroke-width="2" stroke-linecap="butt"/><path d="M221.79882,142.60417c0,0 0.10731,17.68751 8.65491,47.18406c11.5865,27.55615 46.87143,84.90793 46.87143,84.90793c0,0 -18.46022,12.94092 -21.30367,14.38498c-0.94642,0.48063 -20.82398,4.78606 -20.82398,4.78606c0,0 -20.64792,-66.37108 -27.17843,-97.88944c-6.26112,-24.82554 -7.34572,-65.77843 -3.18026,-74.2074c1.3885,-2.80966 9.03936,-3.37547 9.03936,-3.37547z" data-paper-data="{&quot;origPos&quot;:null,&quot;index&quot;:null,&quot;origRot&quot;:0}" id="ID0.5423141438513994" fill="#000000" stroke="#000000" stroke-width="2.54325" stroke-linecap="round"/><path d="M261.8565,250.54744l8.25498,-14.17288l13.20139,8.6521l-7.27255,14.21805c0,0 -5.02143,1.59658 -9.81675,-1.41334c-4.28727,-2.691 -4.36707,-7.28394 -4.36707,-7.28394z" data-paper-data="{&quot;origRot&quot;:0,&quot;origPos&quot;:null,&quot;index&quot;:null}" fill="#ffd499" stroke="#806c4d" stroke-width="2" stroke-linecap="butt"/><path d="M265.92362,122.3108c0,0 7.36955,-2.13199 9.64898,0.01884c6.83831,6.45257 12.16045,43.23555 14.92981,68.68825c0.49105,31.29795 -9.64678,61.13205 -9.64678,61.13205c0,0 -5.38919,-2.97571 -8.8007,-5.30534c-2.87583,-1.96384 -7.30983,-5.69611 -7.30983,-5.69611c0,0 9.02337,-20.51359 9.76995,-51.02833c-2.25134,-30.62747 -7.59232,-42.35686 -7.59232,-42.35686z" data-paper-data="{&quot;origPos&quot;:null,&quot;index&quot;:null,&quot;origRot&quot;:0}" id="ID0.5423141438513994" fill="#000000" stroke="#000000" stroke-width="2.54325" stroke-linecap="round"/></g></g></svg>