<svg version="1.1" xmlns="http://www.w3.org/2000/svg" xmlns:xlink="http://www.w3.org/1999/xlink" width="24" height="10.56371"><g transform="translate(-229.11232,-174.39858)"><g data-paper-data="{&quot;isPaintingLayer&quot;:true}" fill="none" fill-rule="nonzero" stroke="none" stroke-width="none" stroke-linecap="butt" stroke-linejoin="miter" stroke-miterlimit="10" stroke-dasharray="" stroke-dashoffset="0" font-family="none" font-weight="none" font-size="none" text-anchor="none" style="mix-blend-mode: normal"><path d="M252.11232,179.63536c0,2.33991 -4.92487,4.23678 -11,4.23678c-6.07513,0 -11,-1.5363 -11,-4.23678c0,-3.06106 4.92487,-4.23678 11,-4.23678c6.07513,0 11,1.89687 11,4.23678z" data-paper-data="{&quot;origPos&quot;:null}" fill="#000000" stroke="#000000" stroke-width="2"/><path d="M237.23732,184.05243l-7.125,-2.53846h21.5l-5.75,2.4638z" data-paper-data="{&quot;origPos&quot;:null}" fill="#ffffff" stroke="none" stroke-width="0"/><path d="M245.48732,174.7668l5.75,2.94909h-21.5l7.125,-3.03846z" data-paper-data="{&quot;origPos&quot;:null,&quot;index&quot;:null}" fill="#ffffff" stroke="none" stroke-width="0"/><path d="M252.11232,179.72551c0,2.33991 -4.92487,4.23678 -11,4.23678c-6.07513,0 -11,-1.5363 -11,-4.23678c0,-3.06106 4.92487,-4.23678 11,-4.23678c6.07513,0 11,1.89687 11,4.23678z" data-paper-data="{&quot;origPos&quot;:null}" fill="none" stroke="#000000" stroke-width="2"/></g></g></svg>