<svg version="1.1" xmlns="http://www.w3.org/2000/svg" xmlns:xlink="http://www.w3.org/1999/xlink" width="423.90299" height="294.42688" viewBox="0,0,423.90299,294.42688"><defs><radialGradient cx="247.95245" cy="237.12455" r="102.08147" gradientUnits="userSpaceOnUse" id="color-1"><stop offset="0" stop-color="#00ffff"/><stop offset="1" stop-color="#003fff"/></radialGradient><linearGradient x1="255.49152" y1="283.65877" x2="279.20019" y2="283.45593" gradientUnits="userSpaceOnUse" id="color-2"><stop offset="0" stop-color="#3b3b3b"/><stop offset="1" stop-color="#000000"/></linearGradient><linearGradient x1="207.80876" y1="281.86603" x2="258.24858" y2="290.29041" gradientUnits="userSpaceOnUse" id="color-3"><stop offset="0" stop-color="#000000"/><stop offset="1" stop-color="#3b3b3b"/></linearGradient><radialGradient cx="231.55847" cy="153.80402" r="54.55912" gradientUnits="userSpaceOnUse" id="color-4"><stop offset="0" stop-color="#b6b6b6"/><stop offset="1" stop-color="#666666"/></radialGradient><radialGradient cx="240.28597" cy="159.96172" r="16.49355" gradientUnits="userSpaceOnUse" id="color-5"><stop offset="0" stop-color="#ff0000"/><stop offset="1" stop-color="#ff0000" stop-opacity="0"/></radialGradient><radialGradient cx="241.02119" cy="161.9547" r="10.77795" gradientUnits="userSpaceOnUse" id="color-6"><stop offset="0" stop-color="#ff0000"/><stop offset="1" stop-color="#d20000"/></radialGradient><linearGradient x1="198.54156" y1="85.05807" x2="323.98717" y2="91.29427" gradientUnits="userSpaceOnUse" id="color-7"><stop offset="0" stop-color="#cc7700"/><stop offset="1" stop-color="#946f48"/></linearGradient></defs><g transform="translate(-124.41079,-84.62111)"><g data-paper-data="{&quot;isPaintingLayer&quot;:true}" fill-rule="nonzero" stroke-linejoin="miter" stroke-miterlimit="10" stroke-dasharray="" stroke-dashoffset="0" style="mix-blend-mode: normal"><g data-paper-data="{&quot;origPos&quot;:null,&quot;origRot&quot;:0}" stroke="#000000"><path d="M221.50798,206.1966l53.67152,0.21419l0.64797,144.12654l-52.8006,-0.22168z" data-paper-data="{&quot;origPos&quot;:null,&quot;index&quot;:null,&quot;origRot&quot;:0}" id="ID0.9171315478160977" fill="url(#color-1)" stroke-width="2.54325" stroke-linecap="butt"/><g data-paper-data="{&quot;origPos&quot;:null,&quot;index&quot;:null,&quot;origRot&quot;:0}" stroke-width="0" stroke-linecap="butt"><path d="M249.54095,285.34281l-4.77602,0.11821l6.7302,-21.66886l-5.34809,0.61159l5.1331,-17.9002l17.0543,-0.687l-5.89097,13.57789l3.65569,-0.23212l-6.79699,20.69745l3.19383,0.26376l-19.78137,32.46742z" data-paper-data="{&quot;index&quot;:null,&quot;origPos&quot;:null}" fill="#ffde00"/><path d="M248.07159,282.1088l-4.77602,0.11821l6.73022,-21.66886l-5.34809,0.61159l5.13311,-17.9002l17.0543,-0.687l-5.89097,13.57789l3.65569,-0.23212l-6.79698,20.69745l3.19383,0.26376l-18.33744,32.72564z" data-paper-data="{&quot;index&quot;:null,&quot;origPos&quot;:null}" fill="#ff0000"/><path d="M245.18607,281.86295l-4.77604,0.11821l6.73022,-21.66886l-5.34809,0.61159l5.13311,-17.9002l17.0543,-0.687l-5.89097,13.57789l3.65569,-0.23213l-6.79698,20.69745l3.19382,0.26376l-15.46811,31.07779z" data-paper-data="{&quot;index&quot;:null,&quot;origPos&quot;:null}" fill="#000000"/></g><path d="M254.90677,215.29937c0,0 6.69928,-3.36729 10.98596,-5.6619c4.29304,-2.29801 11.01525,-4.14647 11.01525,-4.14647c0,0 0.86294,22.02577 0.89154,24.76201c0.32746,31.2916 2.0617,130.47686 2.0617,130.47686l-21.36999,1.21449z" data-paper-data="{&quot;origPos&quot;:null,&quot;index&quot;:null,&quot;origRot&quot;:0}" id="ID0.5423141438513994" fill="url(#color-2)" stroke-width="2.54325" stroke-linecap="round"/><path d="M246.13431,362.82292l-26.42046,-1.34479c0,0 0.46506,-98.7365 0.25594,-130.02912c-0.01829,-2.73639 0.45173,-25.10016 0.45173,-25.10016c0,0 7.15898,1.95202 11.74882,4.10727c3.895,1.82897 14.51956,5.22717 14.51956,5.22717z" data-paper-data="{&quot;origPos&quot;:null,&quot;index&quot;:null,&quot;origRot&quot;:0}" id="ID0.5423141438513994" fill="url(#color-3)" stroke-width="2.54325" stroke-linecap="round"/><path d="M265.469,339.8025c-2.15607,0.27385 -5.5379,-0.21449 -5.5379,-0.21449l-0.74479,-25.03658c0,0 1.50258,0.24644 2.45858,0.01323c1.12229,-0.27374 2.86695,-1.31228 2.86695,-1.31228l6.27889,24.95632c0,0 -3.23967,1.32933 -5.32174,1.59377z" data-paper-data="{&quot;origPos&quot;:null,&quot;index&quot;:null,&quot;origRot&quot;:0}" fill="#1f1f1f" stroke-width="0" stroke-linecap="butt"/><path d="M263.83364,314.22285c0,0 2.49891,6.75882 3.66823,10.96049c1.36536,4.90602 2.8266,12.37686 2.8266,12.37686" data-paper-data="{&quot;origPos&quot;:null,&quot;origRot&quot;:0,&quot;index&quot;:null}" fill="none" stroke-width="2.54325" stroke-linecap="round"/><path d="M233.58432,339.03042l5.55264,-25.12788c0,0 1.77401,0.98749 2.90379,1.22861c0.9624,0.20538 2.4572,-0.08449 2.4572,-0.08449l-0.01852,25.04762c0,0 -3.36624,0.58619 -5.52935,0.37495c-2.08886,-0.20397 -5.36571,-1.4388 -5.36571,-1.4388z" data-paper-data="{&quot;origPos&quot;:null,&quot;origRot&quot;:0}" fill="#1f1f1f" stroke-width="0" stroke-linecap="butt"/><path d="M233.0691,338.07725c0,0 1.62225,-7.75146 2.84476,-12.695c1.04699,-4.23383 2.97062,-10.82086 2.97062,-10.82086" data-paper-data="{&quot;origPos&quot;:null,&quot;origRot&quot;:0}" fill="none" stroke-width="2.54325" stroke-linecap="round"/></g><path d="M178.24474,349.20048l-51.05406,-41.96306l358.97388,-1.23422l59.03126,41.96308z" data-paper-data="{&quot;origPos&quot;:null}" fill="#90704e" stroke="#000000" stroke-width="2" stroke-linecap="butt"/><path d="M154.58146,326.84421l21.14864,-1.84989l3.02389,3.37388l-20.69411,2.58978z" data-paper-data="{&quot;origPos&quot;:null,&quot;origRot&quot;:0}" fill="#ff2e2e" stroke="#000000" stroke-width="2" stroke-linecap="butt"/><path d="M194.63941,332.10663l-20.76251,-1.96756l2.92128,-3.4631l21.19464,1.21435z" data-paper-data="{&quot;origPos&quot;:null,&quot;origRot&quot;:0,&quot;index&quot;:null}" fill="#ffffff" stroke="#000000" stroke-width="2" stroke-linecap="butt"/><path d="M213.98862,333.74977l-17.42198,-3.21845l2.03935,-6.4957l17.85783,2.73284z" data-paper-data="{&quot;origPos&quot;:null,&quot;origRot&quot;:0,&quot;index&quot;:null}" fill="#ffffff" stroke="#000000" stroke-width="2" stroke-linecap="butt"/><path d="M204.45015,331.21621l-19.9668,-6.49795l-1.8966,-3.80612l19.743,5.74179z" data-paper-data="{&quot;origPos&quot;:null,&quot;origRot&quot;:0}" fill="#ff2e2e" stroke="#000000" stroke-width="2" stroke-linecap="butt"/><path d="M169.82365,321.77424l20.81422,-1.35647l-2.21383,4.95933l-21.09568,2.39726z" data-paper-data="{&quot;origPos&quot;:null,&quot;origRot&quot;:0,&quot;index&quot;:null}" fill="#ffffff" stroke="#000000" stroke-width="2" stroke-linecap="butt"/><path d="M184.09578,321.18632l20.90811,1.93585l2.68908,3.2943l-20.52311,-1.24764z" data-paper-data="{&quot;origPos&quot;:null,&quot;origRot&quot;:0}" fill="#ff2e2e" stroke="#000000" stroke-width="2" stroke-linecap="butt"/><path d="M220.66863,331.44932l-21.25813,-2.08526l-2.12059,-4.28725l20.99815,1.18565z" data-paper-data="{&quot;origPos&quot;:null,&quot;origRot&quot;:0}" fill="#ff2e2e" stroke="#000000" stroke-width="2" stroke-linecap="butt"/><g data-paper-data="{&quot;origRot&quot;:0,&quot;origPos&quot;:null}" stroke="#000000"><path d="M147.79142,319.35126l-0.06289,-8.75343l34.94199,-0.25115l0.06289,8.75343z" data-paper-data="{&quot;origPos&quot;:null}" fill="#ffffff" stroke-width="1" stroke-linecap="butt"/><path d="M142.39179,316.82731l-0.10125,-9.09647l5.83576,3.30122l-0.26386,8.21102z" data-paper-data="{&quot;origPos&quot;:null}" fill="#ffffff" stroke-width="1" stroke-linecap="butt"/><path d="M148.33817,310.56334l-5.36703,-2.98092l34.15521,0.09408l4.79002,2.56788z" data-paper-data="{&quot;origPos&quot;:null}" fill="#ffffff" stroke-width="1" stroke-linecap="butt"/><path d="M149.66147,317.47225l-0.0382,-5.30946l31.1393,-0.22385l0.0382,5.30946z" data-paper-data="{&quot;origPos&quot;:null}" fill="#ff2e2e" stroke-width="0" stroke-linecap="butt"/><path d="M148.59892,309.40753l-0.72212,-0.64059l28.12685,-0.05866l1.29512,0.49295z" data-paper-data="{&quot;origPos&quot;:null}" fill="#ff2e2e" stroke-width="0" stroke-linecap="butt"/><path d="M147.44345,314.99705l-4.60639,-1.97598" data-paper-data="{&quot;origPos&quot;:null}" fill="none" stroke-width="0.5" stroke-linecap="round"/></g><path d="M176.6493,378.04799v-31.06592h368.54652v31.06592z" data-paper-data="{&quot;origPos&quot;:null}" fill="#90704e" stroke="#000000" stroke-width="2" stroke-linecap="butt"/><path d="M271.80117,319.31977c0,0 -8.7189,-3.70066 -11.6037,-8.25068c-2.88481,-4.55002 -2.26161,-13.6182 -2.26161,-13.6182l22.2873,-11.40388l9.09491,18.60269z" data-paper-data="{&quot;origRot&quot;:0,&quot;origPos&quot;:null,&quot;index&quot;:null}" fill="#ffd499" stroke="#806c4d" stroke-width="2" stroke-linecap="butt"/><path d="M279.29802,204.28267c0,0 7.80262,-1.98084 10.11873,0.35378c13.53811,12.76518 38.5457,57.86876 34.99272,65.85208c-5.03515,11.31364 -46.37455,45.46061 -46.37455,45.46061c0,0 -5.67424,-4.26283 -8.27052,-8.88323c-2.59628,-4.6204 -4.01155,-12.97427 -4.01155,-12.97427c0,0 34.64261,-23.63335 35.91886,-31.66398c-0.32504,-12.47277 -22.20703,-31.41713 -22.20703,-31.41713z" data-paper-data="{&quot;origPos&quot;:null,&quot;index&quot;:null,&quot;origRot&quot;:0}" id="ID0.5423141438513994" fill="#000000" stroke="#000000" stroke-width="2.54325" stroke-linecap="round"/><path d="M327.69413,329.66348l-3.0073,-23.79396l5.06349,5.02099l5.78113,24.6188z" data-paper-data="{&quot;origPos&quot;:null,&quot;origRot&quot;:0,&quot;index&quot;:null}" fill="#ff2e2e" stroke="#000000" stroke-width="2" stroke-linecap="butt"/><path d="M310.37459,329.31291l14.62456,-24.14395l5.56863,5.61322l-13.30958,25.11706z" data-paper-data="{&quot;origPos&quot;:null,&quot;origRot&quot;:0,&quot;index&quot;:null}" fill="#ffffff" stroke="#000000" stroke-width="2" stroke-linecap="butt"/><path d="M307.38884,329.47738l-3.0073,-23.79396l5.06349,5.02099l5.78113,24.6188z" data-paper-data="{&quot;origPos&quot;:null,&quot;origRot&quot;:0,&quot;index&quot;:null}" fill="#ff2e2e" stroke="#000000" stroke-width="2" stroke-linecap="butt"/><path d="M290.0693,329.1268l14.62457,-24.14395l5.56863,5.61322l-13.30958,25.11706z" data-paper-data="{&quot;origPos&quot;:null,&quot;origRot&quot;:0,&quot;index&quot;:null}" fill="#ffffff" stroke="#000000" stroke-width="2" stroke-linecap="butt"/><path d="M288.15125,329.32916l-3.0073,-23.79396l5.06349,5.02099l5.78113,24.6188z" data-paper-data="{&quot;origPos&quot;:null,&quot;origRot&quot;:0,&quot;index&quot;:null}" fill="#ff2e2e" stroke="#000000" stroke-width="2" stroke-linecap="butt"/><path d="M270.83172,328.97859l14.62457,-24.14395l5.56863,5.61322l-13.30958,25.11706z" data-paper-data="{&quot;origPos&quot;:null,&quot;origRot&quot;:0,&quot;index&quot;:null}" fill="#ffffff" stroke="#000000" stroke-width="2" stroke-linecap="butt"/><path d="M267.84596,329.14306l-3.0073,-23.79396l5.06349,5.02099l5.78113,24.6188z" data-paper-data="{&quot;origPos&quot;:null,&quot;origRot&quot;:0,&quot;index&quot;:null}" fill="#ff2e2e" stroke="#000000" stroke-width="2" stroke-linecap="butt"/><path d="M250.52643,328.79249l14.62457,-24.14395l5.56863,5.61322l-13.30958,25.11706z" data-paper-data="{&quot;origPos&quot;:null,&quot;origRot&quot;:0,&quot;index&quot;:null}" fill="#ffffff" stroke="#000000" stroke-width="2" stroke-linecap="butt"/><g data-paper-data="{&quot;origPos&quot;:null,&quot;origRot&quot;:0}"><path d="M256.10607,106.38078c14.76607,0.73154 27.85203,7.30166 37.0653,17.3253c9.21328,10.02483 9.24894,24.93289 7.20801,41.58773c-1.4062,11.47524 -4.99985,22.78724 -14.68529,31.42414c-10.16533,9.06359 -25.19477,15.53777 -34.84738,15.10344c-9.65243,-0.43427 -24.09255,-5.77451 -33.30588,-15.79813c-9.2134,-10.02501 -14.70459,-20.89372 -13.97913,-35.43825c0.72549,-14.54463 3.77222,-31.56318 13.93779,-40.62797c10.16538,-9.06362 23.84058,-14.30788 38.60652,-13.57632z" data-paper-data="{&quot;origPos&quot;:null,&quot;origRot&quot;:0}" id="ID0.7719937418587506" fill="#ffd499" stroke="#806c4d" stroke-width="2.5" stroke-linecap="butt"/><path d="M259.27647,109.4136c5.54181,0.47764 3.00592,10.86257 3.03775,16.42456c0.0709,12.59752 2.93046,27.19745 -2.78694,38.83231c-4.86131,9.02397 -14.96719,15.17486 -24.8574,17.60728c-10.70127,2.20888 -21.75603,2.41257 -25.82746,-3.56912c-6.5843,-17.82396 -0.94005,-42.90655 11.26161,-57.8952c10.65894,-12.21143 23.05663,-12.78167 39.1724,-11.39981z" data-paper-data="{&quot;origPos&quot;:null,&quot;origRot&quot;:0}" id="ID0.479907026514411" fill="url(#color-4)" stroke="#666666" stroke-width="2.5" stroke-linecap="round"/><path d="M279.02943,155.67853c-0.16447,5.1141 -1.12584,16.16856 -1.12584,16.16856" data-paper-data="{&quot;origPos&quot;:null,&quot;origRot&quot;:0}" id="ID0.21129454905167222" fill="none" stroke="#000000" stroke-width="2.5" stroke-linecap="round"/><path d="M247.05919,193.03667l14.94946,0.86903" data-paper-data="{&quot;origPos&quot;:null,&quot;index&quot;:null,&quot;origRot&quot;:0}" fill="none" stroke="#000000" stroke-width="2" stroke-linecap="round"/><path d="M223.82023,159.00451c0.52866,-9.09374 8.32915,-16.0372 17.42291,-15.50858c9.09376,0.52866 16.0372,8.32915 15.50858,17.42291c-0.52866,9.09374 -8.32915,16.0372 -17.42291,15.50858c-9.09376,-0.52866 -16.0372,-8.32915 -15.50858,-17.42291z" data-paper-data="{&quot;origPos&quot;:null,&quot;origRot&quot;:0}" fill="url(#color-5)" stroke="none" stroke-width="0" stroke-linecap="butt"/><path d="M229.35363,159.4898c0.34543,-5.94245 5.44279,-10.47976 11.38525,-10.1343c5.94245,0.34543 10.47976,5.44279 10.1343,11.38525c-0.34543,5.94245 -5.44279,10.47976 -11.38525,10.1343c-5.94245,-0.34543 -10.47976,-5.44279 -10.1343,-11.38525z" data-paper-data="{&quot;origPos&quot;:null,&quot;origRot&quot;:0}" fill="url(#color-6)" stroke="#666666" stroke-width="2" stroke-linecap="butt"/><path d="M207.54034,180.29295c0,0 4.74479,-22.07237 9.6761,-36.36885c3.26106,-9.45429 11.29061,-24.05489 11.29061,-24.05489l32.19374,8.89523l0.21309,4.75405c0,0 -8.96974,-1.41681 -13.91462,-2.2148c-4.56954,-0.7374 -9.01165,-4.09612 -13.03166,-1.80171c-7.36149,4.20155 -7.82404,12.79374 -10.6442,20.7869c-3.81031,10.79941 -7.23586,31.09063 -7.23586,31.09063z" data-paper-data="{&quot;origRot&quot;:0,&quot;origPos&quot;:null}" fill="#7a7a7a" stroke="none" stroke-width="0" stroke-linecap="butt"/><path d="M263.82709,133.67604l0.00452,-4.57993l32.79411,2.04302c0,0 -6.96755,2.82951 -13.90658,2.85577c-6.99077,0.02638 -18.63058,-0.29788 -18.63058,-0.29788z" data-paper-data="{&quot;origPos&quot;:null,&quot;origRot&quot;:0}" fill="#b0936a" stroke="none" stroke-width="0" stroke-linecap="butt"/><path d="M209.63798,182.75495l5.33374,1.40723l-0.98025,5.91549z" data-paper-data="{&quot;origPos&quot;:null,&quot;origRot&quot;:0}" fill="#b0936a" stroke="none" stroke-width="0" stroke-linecap="butt"/><path d="M264.83927,88.35385c13.86285,0.91433 21.58572,2.54352 35.38865,4.12293c7.99221,0.91452 23.7645,1.99081 23.7645,1.99081c0,0 -10.35922,5.04689 -12.26443,5.43572c-3.53369,0.72119 -9.86503,2.53254 -9.86503,2.53254c0,0 4.82307,1.53701 8.1991,3.05736c3.62957,1.63454 9.25744,3.29472 9.25744,3.29472c0,0 -5.88112,2.10638 -9.56253,2.81943c-4.59892,0.89074 -10.88026,3.24212 -10.88026,3.24212c0,0 6.93202,4.1281 12.28714,5.64344c5.38532,1.52384 12.38848,4.488 12.38848,4.488c0,0 -10.38946,4.92218 -16.97135,5.51645c-16.60194,1.50097 -33.31888,-2.24031 -49.96557,-3.0492c-10.14832,-0.49444 -24.65281,-8.36621 -30.29007,0.3783c-14.77127,21.57603 -17.41342,78.28676 -21.24697,76.19209c-3.83372,-2.09483 -11.71562,-62.24577 -5.46012,-92.51881c2.41929,-11.69928 13.66504,-17.90429 27.56556,-22.72487c13.90051,-4.82049 25.31695,-0.99812 37.65553,-0.4211z" data-paper-data="{&quot;origPos&quot;:null,&quot;origRot&quot;:0}" id="ID0.5302143599838018" fill="url(#color-7)" stroke="#a96300" stroke-width="3.5" stroke-linecap="round"/></g><path d="M248.51263,328.47639l-3.0073,-23.79395l5.06349,5.02099l5.78113,24.6188z" data-paper-data="{&quot;origPos&quot;:null,&quot;origRot&quot;:0,&quot;index&quot;:null}" fill="#ff2e2e" stroke="#000000" stroke-width="2" stroke-linecap="butt"/><path d="M231.19309,328.12582l14.62456,-24.14395l5.56863,5.61323l-13.30958,25.11706z" data-paper-data="{&quot;origPos&quot;:null,&quot;origRot&quot;:0,&quot;index&quot;:null}" fill="#ffffff" stroke="#000000" stroke-width="2" stroke-linecap="butt"/><path d="M287.27185,309.21465l-5.67568,-5.33333h20.43243l7.56757,5.66667z" data-paper-data="{&quot;origPos&quot;:null}" fill="#ffffff" stroke="#000000" stroke-width="2" stroke-linecap="butt"/><path d="M308.93852,309.54799l-5.67568,-5.33333h20.43243l7.56757,5.66667z" data-paper-data="{&quot;origPos&quot;:null}" fill="#ffffff" stroke="#000000" stroke-width="2" stroke-linecap="butt"/><path d="M192.77186,329.21465l-5.67568,-5.33333h20.43243l7.56757,5.66666z" data-paper-data="{&quot;origPos&quot;:null}" fill="#ffffff" stroke="#000000" stroke-width="2" stroke-linecap="butt"/><path d="M186.8118,306.22565l16.10909,-10.42694l12.24972,19.70281c0,0 -3.83727,7.49849 -8.30171,9.73338c-4.46441,2.23489 -13.15577,1.00818 -13.15577,1.00818z" data-paper-data="{&quot;origRot&quot;:0,&quot;origPos&quot;:null,&quot;index&quot;:null}" fill="#ffd499" stroke="#806c4d" stroke-width="2" stroke-linecap="butt"/><path d="M221.90573,233.11472c0,0 -28.67417,16.479 -30.39322,26.05788c-0.05481,8.13122 19.33469,49.50857 19.33469,49.50857c0,0 -5.23409,4.33581 -9.16381,6.03955c-3.92972,1.70373 -10.75768,2.59741 -10.75768,2.59741c0,0 -26.67333,-47.95959 -23.56999,-61.90992c3.12106,-14.02998 33.60281,-39.56216 49.04697,-49.94043c2.66687,-1.92424 10.04028,1.30647 10.04028,1.30647z" data-paper-data="{&quot;origPos&quot;:null,&quot;index&quot;:null,&quot;origRot&quot;:0}" id="ID0.5423141438513994" fill="#000000" stroke="#000000" stroke-width="2.54325" stroke-linecap="round"/></g></g></svg>