<svg version="1.1" xmlns="http://www.w3.org/2000/svg" xmlns:xlink="http://www.w3.org/1999/xlink" width="494.83612" height="368.61787"><g transform="translate(14.47933,3.93394)"><g data-paper-data="{&quot;isPaintingLayer&quot;:true}" fill-rule="nonzero" stroke-linejoin="miter" stroke-miterlimit="10" stroke-dasharray="" stroke-dashoffset="0" style="mix-blend-mode: normal"><path d="M-0.87369,363.93393v-367.86787h480.48048v367.86787z" data-paper-data="{&quot;origPos&quot;:null}" fill="#00e7e7" stroke="none" stroke-width="NaN" stroke-linecap="butt"/><g data-paper-data="{&quot;origPos&quot;:null,&quot;origRot&quot;:0}"><path d="M112.60889,133.19348c0.1319,-2.19423 2.20502,-2.69947 2.20502,-2.69947l9.23133,1.23913l-0.79759,6.53025l-9.23133,-1.23913c0,0 -1.8793,-0.85804 -1.40742,-3.83079z" data-paper-data="{&quot;origRot&quot;:0,&quot;origPos&quot;:null,&quot;index&quot;:null}" fill="#ffd499" stroke="#806c4d" stroke-width="2" stroke-linecap="butt"/><path d="M172.15276,130.59037c0,0 0.60852,2.94389 -0.30114,3.7689c-2.72895,2.47501 -15.17052,4.07566 -25.19819,4.38263c-10.02766,0.30696 -28.87478,-0.75096 -28.87478,-0.75096c0,0 0.07683,-2.20773 0.22999,-3.61658c0.15248,-1.40257 0.55321,-3.58731 0.55321,-3.58731c0,0 14.70888,1.82158 26.74234,1.87454c12.03346,0.05297 16.87486,-2.45585 16.87486,-2.45585z" data-paper-data="{&quot;origPos&quot;:null,&quot;index&quot;:null,&quot;origRot&quot;:0}" id="ID0.5423141438513994" fill="#7e7e7e" stroke="#000000" stroke-width="2.54325" stroke-linecap="round"/><path d="M60.83784,112.96112c0,0 19.60247,-2.00176 32.2434,-0.30868c7.99655,1.07103 19.59396,9.93838 20.14194,5.79494c0.64378,-5.67064 -9.71057,-13.94011 -18.2606,-16.04723c-11.6528,-2.87179 -32.36831,1.63082 -32.36831,1.63082l1.41668,-7.52748c0,0 20.55866,-3.53816 32.28482,-0.84941c10.96586,2.51442 25.86064,14.18189 25.86064,14.18189l-3.72724,20.86246c0,0 -15.99626,-7.29182 -26.75248,-9.19248c-12.35331,-2.18287 -32.46282,-1.27108 -32.46282,-1.27108z" data-paper-data="{&quot;origPos&quot;:null,&quot;index&quot;:null}" fill="#4232a1" stroke="#000000" stroke-width="2.5" stroke-linecap="butt"/><path d="M114.51236,101.97471c-0.22966,-3.0012 1.71294,-3.70427 1.71294,-3.70427l9.30135,-0.48769l0.26627,6.57339l-9.30135,0.48769c0,0 -2.02541,-0.67141 -1.97922,-2.86913z" data-paper-data="{&quot;origRot&quot;:0,&quot;origPos&quot;:null,&quot;index&quot;:null}" fill="#ffd499" stroke="#806c4d" stroke-width="2" stroke-linecap="butt"/><path d="M163.67795,108.96585c0,0 -7.01136,-1.43614 -19.0096,-2.35758c-11.99824,-0.92144 -24.41736,-1.75309 -24.41736,-1.75309c0,0 -0.22253,-2.21001 -0.26096,-3.62032c-0.03861,-1.41662 0.06356,-3.62333 0.06356,-3.62333c0,0 16.48193,1.92785 26.45182,3.04565c9.9699,1.11781 24.62999,2.26409 27.14961,4.9519c0.83988,0.89595 -0.00499,3.78091 -0.00499,3.78091z" data-paper-data="{&quot;origPos&quot;:null,&quot;index&quot;:null,&quot;origRot&quot;:0}" id="ID0.5423141438513994" fill="#7e7e7e" stroke="#000000" stroke-width="2.54325" stroke-linecap="round"/><path d="M118.70286,107.55727l54.59441,2.21364l-0.87953,21.69153l-54.59441,-2.21364z" data-paper-data="{&quot;origPos&quot;:null,&quot;origRot&quot;:0}" fill="#7e7e7e" stroke="#000000" stroke-width="2.54325" stroke-linecap="butt"/><path d="M51.68006,103.95409l4.9344,-0.32812c0,0 3.856,4.82212 4.87176,8.17389c1.094,3.60988 1.50779,9.59973 1.50779,9.59973l-10.10917,0.67223z" data-paper-data="{&quot;origPos&quot;:null,&quot;index&quot;:null,&quot;origRot&quot;:0}" fill="#666666" stroke="#000000" stroke-width="2.54325" stroke-linecap="butt"/><path d="M54.06447,86.82413l4.60139,-0.96443c0,0 4.73074,4.18592 6.20495,7.36285c1.58771,3.42156 2.8345,9.29483 2.8345,9.29483l-9.91602,2.07834z" data-paper-data="{&quot;origPos&quot;:null,&quot;index&quot;:null,&quot;origRot&quot;:0}" fill="#666666" stroke="#000000" stroke-width="2.54325" stroke-linecap="butt"/><path d="M172.00079,115.24265l-13.11069,-0.62087" data-paper-data="{&quot;origPos&quot;:null,&quot;origRot&quot;:0}" fill="none" stroke="#3b3b3b" stroke-width="5" stroke-linecap="round"/><path d="M171.54547,125.63663l-17.47851,-0.88722" data-paper-data="{&quot;origPos&quot;:null,&quot;origRot&quot;:0}" fill="none" stroke="#3b3b3b" stroke-width="5" stroke-linecap="round"/><path d="M211.00203,116.50426c0.54126,5.49413 -1.16618,10.6901 -4.36196,14.64637c-3.19623,3.95636 -9.48847,5.40209 -14.9002,5.93708c-5.41168,0.53498 -9.56534,-1.31557 -13.47199,-4.56977c-3.90612,-3.25421 -6.16043,-8.54307 -6.49786,-12.13536c-0.33745,-3.59236 1.80411,-9.31578 4.99989,-13.27203c3.04535,-3.76951 7.19923,-5.3155 11.45372,-6.04858c6.17487,-1.06398 11.73597,-1.32167 15.64255,1.93249c3.90612,3.2542 6.59455,8.01559 7.13582,13.50981z" data-paper-data="{&quot;origPos&quot;:null,&quot;origRot&quot;:0}" id="ID0.7719937418587506" fill="#ffd499" stroke="#806c4d" stroke-width="2.5" stroke-linecap="butt"/><path d="M162.14674,129.43827l9.28366,0.52956l0.12351,2.91445l-9.8931,-0.40113z" data-paper-data="{&quot;origPos&quot;:null,&quot;origRot&quot;:0}" fill="#7e7e7e" stroke="none" stroke-width="0" stroke-linecap="butt"/><path d="M163.03217,107.69145l9.68259,0.3926l-0.35394,2.89509l-9.09839,-0.21577z" data-paper-data="{&quot;origPos&quot;:null,&quot;index&quot;:null,&quot;origRot&quot;:0}" fill="#7e7e7e" stroke="none" stroke-width="0" stroke-linecap="butt"/><path d="M133.97299,113.08896c0,0 -0.23576,0.56012 -3.33809,0.21102c-2.38547,-0.26843 -2.50304,-0.54881 -2.50304,-0.54881" data-paper-data="{&quot;origPos&quot;:null,&quot;origRot&quot;:0}" fill="none" stroke="#616161" stroke-width="5" stroke-linecap="round"/><path d="M127.4688,124.12557c0,0 0.13988,-0.26995 2.53925,-0.34437c3.1204,-0.09678 3.31004,0.48058 3.31004,0.48058" data-paper-data="{&quot;origPos&quot;:null,&quot;index&quot;:null,&quot;origRot&quot;:0}" fill="none" stroke="#616161" stroke-width="5" stroke-linecap="round"/><path d="M183.45993,128.15989c0,0 2.9625,-0.36234 4.86698,-0.51663c1.04609,-0.08475 2.57568,-0.27953 2.57568,-0.27953" data-paper-data="{&quot;origPos&quot;:null,&quot;origRot&quot;:0}" id="ID0.21129454905167222" fill="none" stroke="#000000" stroke-width="2.5" stroke-linecap="round"/><path d="M199.9271,139.02026l-5.82276,-4.98606l6.05129,-4.41975l-6.6536,-5.88361l4.76386,-4.79977l-5.79257,-6.38544l5.12694,-3.0282l-6.04313,-11.22203l8.83863,2.17519l-0.37255,-3.47619l8.54723,6.99526l1.67636,-1.27844l4.32139,9.86548l1.0291,-0.54981l-0.06745,11.21489l1.12224,0.31926l-3.33174,7.82883l0.70083,1.4632l-6.70547,5.11379l0.20956,1.95537z" data-paper-data="{&quot;origPos&quot;:null,&quot;index&quot;:null,&quot;origRot&quot;:0}" fill="#2400ea" stroke="#000000" stroke-width="3" stroke-linecap="round"/><path d="M182.85552,108.08552c0,0 2.9625,-0.36234 4.86698,-0.51663c1.04609,-0.08475 2.57568,-0.27953 2.57568,-0.27953" data-paper-data="{&quot;origPos&quot;:null,&quot;origRot&quot;:0}" id="ID0.21129454905167222" fill="none" stroke="#000000" stroke-width="2.5" stroke-linecap="round"/><path d="M185.7683,115.45742l0.44131,4.11778" data-paper-data="{&quot;origPos&quot;:null,&quot;origRot&quot;:0}" fill="none" stroke="#000000" stroke-width="2" stroke-linecap="round"/></g><path d="M-2.37519,363.93393v-91.59159h481.98198v91.59159z" data-paper-data="{&quot;origPos&quot;:null}" fill="#31c700" stroke="#000000" stroke-width="1.5" stroke-linecap="butt"/><path d="M-3.75938,291.84963v-294.29429h79.57958v294.29429z" fill="#dde983" stroke="#000000" stroke-width="1.5" stroke-linecap="butt"/><path d="M-12.76839,186.74452v-131.33133h61.56156v131.33133z" data-paper-data="{&quot;origPos&quot;:null}" fill="#91b8c7" stroke="#000000" stroke-width="3" stroke-linecap="butt"/><path d="M-12.72933,119.75h60.5" data-paper-data="{&quot;origPos&quot;:null}" fill="none" stroke="#000000" stroke-width="3.5" stroke-linecap="round"/><path d="M16.27067,55l-0.5,130" data-paper-data="{&quot;origPos&quot;:null}" fill="none" stroke="#000000" stroke-width="3.5" stroke-linecap="round"/><path d="M121.76329,157.44354l21.08747,-2.73207l10.11002,-7.72229l-1.70905,11.64563z" data-paper-data="{&quot;origPos&quot;:null,&quot;origRot&quot;:0}" fill="#91b8c7" stroke="#000000" stroke-width="1.5" stroke-linecap="butt"/><path d="M95.34115,180.18636l6.49038,-3.98434l1.59092,-7.44775l9.39064,6.63821l-4.56861,4.73052z" data-paper-data="{&quot;origPos&quot;:null,&quot;origRot&quot;:0}" fill="#91b8c7" stroke="#000000" stroke-width="1.5" stroke-linecap="butt"/><path d="M132.46713,135.14974l8.02591,-3.71951l9.38313,-0.45485l-0.16873,6.96215l-6.67171,-1.42685z" data-paper-data="{&quot;origPos&quot;:null,&quot;origRot&quot;:0}" fill="#91b8c7" stroke="#000000" stroke-width="1.5" stroke-linecap="butt"/><path d="M118.69406,110.84958l-3.88845,-10.06876l5.74254,-5.76829l3.81119,4.66099l-2.55315,3.44804z" data-paper-data="{&quot;origPos&quot;:null,&quot;origRot&quot;:0}" fill="#91b8c7" stroke="#000000" stroke-width="1.5" stroke-linecap="butt"/><path d="M134.82786,87.84059l-1.54237,-4.27602l-4.23728,-3.41135l2.5951,-3.64218l4.66006,-0.20971l1.54627,4.4357z" data-paper-data="{&quot;origPos&quot;:null,&quot;origRot&quot;:0}" fill="#91b8c7" stroke="#000000" stroke-width="1.5" stroke-linecap="butt"/></g></g></svg>