<svg version="1.1" xmlns="http://www.w3.org/2000/svg" xmlns:xlink="http://www.w3.org/1999/xlink" width="24" height="11.50001"><g transform="translate(-229.0625,-174.775)"><g data-paper-data="{&quot;isPaintingLayer&quot;:true}" fill="none" fill-rule="nonzero" stroke="none" stroke-width="none" stroke-linecap="butt" stroke-linejoin="miter" stroke-miterlimit="10" stroke-dasharray="" stroke-dashoffset="0" font-family="none" font-weight="none" font-size="none" text-anchor="none" style="mix-blend-mode: normal"><path d="M252.0625,180.475c0,2.59574 -4.92487,4.7 -11,4.7c-6.07513,0 -11,-1.70426 -11,-4.7c0,-3.39574 4.92487,-4.7 11,-4.7c6.07513,0 11,2.10426 11,4.7z" data-paper-data="{&quot;origPos&quot;:null}" fill="#000000" stroke="#000000" stroke-width="2"/><path d="M237.1875,185.375l-7.125,-2.4h21.5l-5.75,2.32941z" data-paper-data="{&quot;origPos&quot;:null}" fill="#ffffff" stroke="none" stroke-width="0"/><path d="M245.4375,175.44559l5.75,2.32941h-21.5l7.125,-2.4z" data-paper-data="{&quot;origPos&quot;:null,&quot;index&quot;:null}" fill="#ffffff" stroke="none" stroke-width="0"/><path d="M252.0625,180.57501c0,2.59574 -4.92487,4.7 -11,4.7c-6.07513,0 -11,-1.70426 -11,-4.7c0,-3.39574 4.92487,-4.7 11,-4.7c6.07513,0 11,2.10426 11,4.7z" data-paper-data="{&quot;origPos&quot;:null}" fill="none" stroke="#000000" stroke-width="2"/></g></g></svg>