<svg version="1.1" xmlns="http://www.w3.org/2000/svg" xmlns:xlink="http://www.w3.org/1999/xlink" width="541.41242" height="439.51168" viewBox="0,0,541.41242,439.51168"><defs><radialGradient cx="85.10714" cy="179.61349" r="102.08147" gradientUnits="userSpaceOnUse" id="color-1"><stop offset="0" stop-color="#00ffff"/><stop offset="1" stop-color="#003fff"/></radialGradient><linearGradient x1="93.13732" y1="226.06547" x2="116.84252" y2="225.61222" gradientUnits="userSpaceOnUse" id="color-2"><stop offset="0" stop-color="#3b3b3b"/><stop offset="1" stop-color="#000000"/></linearGradient><linearGradient x1="45.43829" y1="224.77649" x2="95.96428" y2="232.66762" gradientUnits="userSpaceOnUse" id="color-3"><stop offset="0" stop-color="#000000"/><stop offset="1" stop-color="#3b3b3b"/></linearGradient><radialGradient cx="63.30089" cy="95.99115" r="54.55912" gradientUnits="userSpaceOnUse" id="color-4"><stop offset="0" stop-color="#b6b6b6"/><stop offset="1" stop-color="#666666"/></radialGradient><radialGradient cx="72.5407" cy="101.34952" r="16.49355" gradientUnits="userSpaceOnUse" id="color-5"><stop offset="0" stop-color="#ff0000"/><stop offset="1" stop-color="#ff0000" stop-opacity="0"/></radialGradient><radialGradient cx="73.44999" cy="103.26934" r="10.77795" gradientUnits="userSpaceOnUse" id="color-6"><stop offset="0" stop-color="#ff0000"/><stop offset="1" stop-color="#d20000"/></radialGradient><linearGradient x1="24.30968" y1="30.44873" x2="149.81348" y2="25.52057" gradientUnits="userSpaceOnUse" id="color-7"><stop offset="0" stop-color="#cc7700"/><stop offset="1" stop-color="#946f48"/></linearGradient></defs><g transform="translate(-6.90137,-25.81622)"><g data-paper-data="{&quot;isPaintingLayer&quot;:true}" fill-rule="nonzero" stroke-linejoin="miter" stroke-miterlimit="10" stroke-dasharray="" stroke-dashoffset="0" style="mix-blend-mode: normal"><path d="M129.27816,284.32322c0,0 -8.67632,1.02165 -13.06744,-1.30438c-4.39114,-2.32601 -8.03771,-9.87518 -8.03771,-9.87518l12.64006,-19.32466l15.7905,10.74405z" data-paper-data="{&quot;origRot&quot;:0,&quot;origPos&quot;:null,&quot;index&quot;:null}" fill="#ffd499" stroke="#806c4d" stroke-width="2" stroke-linecap="butt"/><path d="M114.52717,148.42538c0,0 7.70347,-2.3369 10.12432,-0.11106c14.10981,12.13031 42.57997,54.09797 39.39717,62.23597c-4.51051,11.53285 -27.98003,62.13645 -27.98003,62.13645c0,0 -7.83037,-2.25547 -11.96775,-5.6596c-4.08675,-3.36247 -9.50222,-8.16573 -9.50222,-8.16573c0,0 24.40322,-45.95015 25.30948,-54.0309c-0.89723,-12.4447 -23.98759,-29.71304 -23.98759,-29.71304z" data-paper-data="{&quot;origPos&quot;:null,&quot;index&quot;:null,&quot;origRot&quot;:0}" id="ID0.5423141438513994" fill="#000000" stroke="#000000" stroke-width="2.54325" stroke-linecap="round"/><g data-paper-data="{&quot;origRot&quot;:0}" stroke="#000000" stroke-linecap="butt"><path d="M63.54234,442.62359l-1.45077,-151.3153l53.32757,-0.61232l9.01493,149.8478l-19.27112,0.39926c0,0 -1.79996,-131.28894 -14.81809,-131.63938c-12.39301,-0.4972 -8.07539,132.30105 -8.07539,132.30105z" data-paper-data="{&quot;origPos&quot;:null,&quot;index&quot;:null}" fill="#333333" stroke-width="2.5"/><path d="M37.45813,464.03145l-0.2454,-12.44229c0,0 12.5743,-9.12669 21.11904,-11.28648c9.20272,-2.32611 24.30819,-2.66293 24.30819,-2.66293l0.50275,25.49068z" data-paper-data="{&quot;origPos&quot;:null,&quot;index&quot;:null}" fill="#666666" stroke-width="2.54325"/><path d="M105.0978,462.25797l-0.50275,-25.49066c0,0 15.10702,-0.25906 24.39429,1.70238c8.62324,1.8212 21.55975,11.05868 21.55975,11.05868l0.23329,11.82858z" data-paper-data="{&quot;origPos&quot;:null,&quot;index&quot;:null}" fill="#666666" stroke-width="2.54325"/></g><g data-paper-data="{&quot;origPos&quot;:null,&quot;origRot&quot;:0}" stroke="#000000"><path d="M58.33746,148.96658l53.67079,-0.35274l2.17031,144.11165l-52.8,0.33605z" data-paper-data="{&quot;origPos&quot;:null,&quot;index&quot;:null,&quot;origRot&quot;:0}" id="ID0.9171315478160977" fill="url(#color-1)" stroke-width="2.54325" stroke-linecap="butt"/><g data-paper-data="{&quot;origPos&quot;:null,&quot;index&quot;:null,&quot;origRot&quot;:0}" stroke-width="0" stroke-linecap="butt"><path d="M87.20487,227.81227l-4.7745,0.16865l6.50095,-21.73874l-5.34134,0.66805l4.94374,-17.95342l17.0461,-0.8671l-5.74722,13.63936l3.65303,-0.27072l-6.57799,20.76809l3.19644,0.23001l-19.43733,32.67455z" data-paper-data="{&quot;index&quot;:null,&quot;origPos&quot;:null}" fill="#ffde00"/><path d="M85.70143,224.59396l-4.7745,0.16865l6.50097,-21.73874l-5.34134,0.66805l4.94375,-17.95342l17.0461,-0.8671l-5.74722,13.63936l3.65303,-0.27072l-6.57798,20.76809l3.19644,0.23001l-17.99074,32.91751z" data-paper-data="{&quot;index&quot;:null,&quot;origPos&quot;:null}" fill="#ff0000"/><path d="M82.81346,224.37861l-4.77452,0.16865l6.50097,-21.73874l-5.34134,0.66805l4.94375,-17.95342l17.0461,-0.8671l-5.74722,13.63936l3.65303,-0.27073l-6.57798,20.76809l3.19643,0.23001l-15.13898,31.23944z" data-paper-data="{&quot;index&quot;:null,&quot;origPos&quot;:null}" fill="#000000"/></g><path d="M91.83054,157.71606c0,0 6.66333,-3.43786 10.92554,-5.77763c4.26852,-2.34323 10.97084,-4.26259 10.97084,-4.26259c0,0 1.09555,22.01543 1.15305,24.75122c0.65797,31.2864 3.43977,130.44781 3.43977,130.44781l-21.35597,1.44015z" data-paper-data="{&quot;origPos&quot;:null,&quot;index&quot;:null,&quot;origRot&quot;:0}" id="ID0.5423141438513994" fill="url(#color-2)" stroke-width="2.54325" stroke-linecap="round"/><path d="M84.61682,305.32403l-26.43319,-1.06564c0,0 -0.5779,-98.7359 -1.11754,-130.02457c-0.04719,-2.73604 0.18658,-25.10353 0.18658,-25.10353c0,0 7.17919,1.8763 11.79155,3.98295c3.9141,1.78772 14.57396,5.07351 14.57396,5.07351z" data-paper-data="{&quot;origPos&quot;:null,&quot;index&quot;:null,&quot;origRot&quot;:0}" id="ID0.5423141438513994" fill="url(#color-3)" stroke-width="2.54325" stroke-linecap="round"/><path d="M103.70727,282.10069c-2.15306,0.2966 -5.53985,-0.15598 -5.53985,-0.15598l-1.0092,-25.02732c0,0 1.5051,0.23056 2.45859,-0.01274c1.11934,-0.28558 2.85293,-1.34249 2.85293,-1.34249l6.54214,24.8886c0,0 -3.22545,1.36348 -5.30461,1.64989z" data-paper-data="{&quot;origPos&quot;:null,&quot;index&quot;:null,&quot;origRot&quot;:0}" fill="#1f1f1f" stroke-width="0" stroke-linecap="butt"/><path d="M101.80181,256.53972c0,0 2.57016,6.73205 3.7838,10.92113c1.41711,4.89133 2.95717,12.34632 2.95717,12.34632" data-paper-data="{&quot;origPos&quot;:null,&quot;origRot&quot;:0,&quot;index&quot;:null}" fill="none" stroke-width="2.54325" stroke-linecap="round"/><path d="M71.81622,281.66544l5.28691,-25.18513c0,0 1.78434,0.96869 2.91661,1.19787c0.96452,0.1952 2.45617,-0.11044 2.45617,-0.11044l0.24605,25.04642c0,0 -3.35986,0.62171 -5.52508,0.43333c-2.09089,-0.18189 -5.38061,-1.38205 -5.38061,-1.38205z" data-paper-data="{&quot;origPos&quot;:null,&quot;origRot&quot;:0}" fill="#1f1f1f" stroke-width="0" stroke-linecap="butt"/><path d="M71.29094,280.71774c0,0 1.54028,-7.76816 2.7105,-12.72434c1.00221,-4.24465 2.85616,-10.85163 2.85616,-10.85163" data-paper-data="{&quot;origPos&quot;:null,&quot;origRot&quot;:0}" fill="none" stroke-width="2.54325" stroke-linecap="round"/></g><path d="M178.24476,349.2005l-51.05406,-41.96306l358.97388,-1.23422l59.03126,41.96308z" data-paper-data="{&quot;origPos&quot;:null}" fill="#90704e" stroke="#000000" stroke-width="2" stroke-linecap="butt"/><path d="M154.58148,326.84423l21.14864,-1.84989l3.02389,3.37388l-20.69411,2.58978z" data-paper-data="{&quot;origPos&quot;:null,&quot;origRot&quot;:0}" fill="#ff2e2e" stroke="#000000" stroke-width="2" stroke-linecap="butt"/><path d="M194.63943,332.10665l-20.76251,-1.96756l2.92128,-3.4631l21.19464,1.21435z" data-paper-data="{&quot;origPos&quot;:null,&quot;origRot&quot;:0,&quot;index&quot;:null}" fill="#ffffff" stroke="#000000" stroke-width="2" stroke-linecap="butt"/><path d="M209.98864,336.24979l-17.42198,-3.21845l2.03935,-6.4957l17.85783,2.73284z" data-paper-data="{&quot;origPos&quot;:null,&quot;origRot&quot;:0,&quot;index&quot;:null}" fill="#ffffff" stroke="#000000" stroke-width="2" stroke-linecap="butt"/><path d="M200.60311,327.48035l-20.81285,2.77881l-3.35643,-2.61113l20.28397,-3.36374z" data-paper-data="{&quot;origPos&quot;:null,&quot;origRot&quot;:0}" fill="#ff2e2e" stroke="#000000" stroke-width="2" stroke-linecap="butt"/><path d="M171.0958,329.18631l20.90811,1.93585l2.68908,3.2943l-20.52311,-1.24764z" data-paper-data="{&quot;origPos&quot;:null,&quot;origRot&quot;:0}" fill="#ff2e2e" stroke="#000000" stroke-width="2" stroke-linecap="butt"/><g data-paper-data="{&quot;origRot&quot;:0,&quot;origPos&quot;:null}" stroke="#000000"><path d="M149.09033,315.35125l-0.05487,-7.63776l30.48845,-0.21914l0.05487,7.63776z" data-paper-data="{&quot;origPos&quot;:null}" fill="#ffffff" stroke-width="1" stroke-linecap="butt"/><path d="M144.37891,313.14902l-0.08835,-7.93708l5.09196,2.88046l-0.23023,7.16448z" data-paper-data="{&quot;origPos&quot;:null}" fill="#ffffff" stroke-width="1" stroke-linecap="butt"/><path d="M149.56739,307.68343l-4.68297,-2.60099l29.80195,0.08209l4.17951,2.24059z" data-paper-data="{&quot;origPos&quot;:null}" fill="#ffffff" stroke-width="1" stroke-linecap="butt"/><path d="M150.72203,313.71173l-0.03333,-4.63274l27.17043,-0.19532l0.03333,4.63274z" data-paper-data="{&quot;origPos&quot;:null}" fill="#ff2e2e" stroke-width="0" stroke-linecap="butt"/><path d="M149.79491,306.67492l-0.63008,-0.55894l24.54194,-0.05118l1.13005,0.43012z" data-paper-data="{&quot;origPos&quot;:null}" fill="#ff2e2e" stroke-width="0" stroke-linecap="butt"/><path d="M148.78671,311.55204l-4.01928,-1.72413" data-paper-data="{&quot;origPos&quot;:null}" fill="none" stroke-width="0.5" stroke-linecap="round"/></g><path d="M176.64932,378.04801v-31.06592h368.54652v31.06592z" data-paper-data="{&quot;origPos&quot;:null}" fill="#90704e" stroke="#000000" stroke-width="2" stroke-linecap="butt"/><path d="M329.92452,329.98091l-8.64443,-22.37119l6.1229,3.65504l11.53523,22.50434z" data-paper-data="{&quot;origPos&quot;:null,&quot;origRot&quot;:0,&quot;index&quot;:null}" fill="#ff2e2e" stroke="#000000" stroke-width="2" stroke-linecap="butt"/><path d="M307.20027,321.60772l26.07006,-10.82405l1.17192,7.81949l-25.58496,12.38636z" data-paper-data="{&quot;origPos&quot;:null,&quot;origRot&quot;:0,&quot;index&quot;:null}" fill="#ffffff" stroke="#000000" stroke-width="2" stroke-linecap="butt"/><path d="M307.38885,329.4774l-3.0073,-23.79396l5.06349,5.02099l5.78113,24.6188z" data-paper-data="{&quot;origPos&quot;:null,&quot;origRot&quot;:0,&quot;index&quot;:null}" fill="#ff2e2e" stroke="#000000" stroke-width="2" stroke-linecap="butt"/><path d="M290.06932,329.12682l14.62457,-24.14395l5.56863,5.61322l-13.30958,25.11706z" data-paper-data="{&quot;origPos&quot;:null,&quot;origRot&quot;:0,&quot;index&quot;:null}" fill="#ffffff" stroke="#000000" stroke-width="2" stroke-linecap="butt"/><path d="M288.15127,329.32918l-3.0073,-23.79396l5.06349,5.02099l5.78113,24.6188z" data-paper-data="{&quot;origPos&quot;:null,&quot;origRot&quot;:0,&quot;index&quot;:null}" fill="#ff2e2e" stroke="#000000" stroke-width="2" stroke-linecap="butt"/><path d="M270.83173,328.97861l14.62457,-24.14395l5.56863,5.61322l-13.30958,25.11706z" data-paper-data="{&quot;origPos&quot;:null,&quot;origRot&quot;:0,&quot;index&quot;:null}" fill="#ffffff" stroke="#000000" stroke-width="2" stroke-linecap="butt"/><path d="M267.84596,329.14306l-3.0073,-23.79396l5.06349,5.02099l5.78113,24.6188z" data-paper-data="{&quot;origPos&quot;:null,&quot;origRot&quot;:0,&quot;index&quot;:null}" fill="#ff2e2e" stroke="#000000" stroke-width="2" stroke-linecap="butt"/><path d="M250.52645,328.79249l14.62457,-24.14395l5.56863,5.61322l-13.30958,25.11706z" data-paper-data="{&quot;origPos&quot;:null,&quot;origRot&quot;:0,&quot;index&quot;:null}" fill="#ffffff" stroke="#000000" stroke-width="2" stroke-linecap="butt"/><g data-paper-data="{&quot;origPos&quot;:null,&quot;origRot&quot;:0}"><path d="M83.54025,46.5754c14.77269,-0.58259 28.3904,4.79951 38.45737,13.9654c10.0671,9.16707 11.42647,24.01307 10.87258,40.78335c-0.38163,11.55478 -2.95656,23.14121 -11.83677,32.60406c-9.32031,9.93047 -23.71546,17.71372 -33.36851,18.13827c-9.65285,0.4246 -24.51015,-3.61225 -34.57718,-12.77811c-10.06722,-9.16724 -16.50188,-19.50539 -17.07086,-34.05688c-0.56896,-14.5516 0.95446,-31.77346 10.27491,-41.70516c9.32035,-9.93051 22.47583,-16.36843 37.24841,-16.95099z" data-paper-data="{&quot;origPos&quot;:null,&quot;origRot&quot;:0}" id="ID0.7719937418587506" fill="#ffd499" stroke="#806c4d" stroke-width="2.5" stroke-linecap="butt"/><path d="M86.96745,49.31471c5.56232,-0.01636 3.95865,10.55272 4.48428,16.08992c1.18929,12.54145 5.33405,26.82977 0.67243,38.92639c-4.04076,9.42001 -13.56051,16.44401 -23.19564,19.74509c-10.46285,3.15044 -21.45584,4.33501 -26.04236,-1.2615c-8.14107,-17.16885 -4.7465,-42.65356 6.07595,-58.66653c9.53244,-13.10971 21.83051,-14.77863 38.00533,-14.83334z" data-paper-data="{&quot;origPos&quot;:null,&quot;origRot&quot;:0}" id="ID0.479907026514411" fill="url(#color-4)" stroke="#666666" stroke-width="2.5" stroke-linecap="round"/><path d="M110.75077,93.64277c0.29032,5.1085 0.3144,16.20466 0.3144,16.20466" data-paper-data="{&quot;origPos&quot;:null,&quot;origRot&quot;:0}" id="ID0.21129454905167222" fill="none" stroke="#000000" stroke-width="2.5" stroke-linecap="round"/><path d="M97.19186,133.23039c0,0 -7.85618,0.50048 -12.47853,-0.09139c-1.54079,-0.19729 -3.89618,-1.00441 -3.89618,-1.00441" data-paper-data="{&quot;origPos&quot;:null,&quot;index&quot;:null,&quot;origRot&quot;:0}" fill="none" stroke="#000000" stroke-width="2" stroke-linecap="round"/><path d="M56.05503,101.85826c-0.28097,-9.10476 6.87212,-16.71347 15.9769,-16.99448c9.10478,-0.28096 16.71347,6.87212 16.99448,15.9769c0.28097,9.10476 -6.87212,16.71347 -15.9769,16.99448c-9.10478,0.28096 -16.71347,-6.87212 -16.99448,-15.9769z" data-paper-data="{&quot;origPos&quot;:null,&quot;origRot&quot;:0}" fill="url(#color-5)" stroke="none" stroke-width="0" stroke-linecap="butt"/><path d="M61.60967,101.85026c-0.18363,-5.94966 4.49066,-10.92168 10.44033,-11.10529c5.94966,-0.18363 10.92168,4.49066 11.10529,10.44033c0.18363,5.94966 -4.49066,10.92168 -10.44033,11.10529c-5.94966,0.18363 -10.92168,-4.49066 -11.10529,-10.44033z" data-paper-data="{&quot;origPos&quot;:null,&quot;origRot&quot;:0}" fill="url(#color-6)" stroke="#666666" stroke-width="2" stroke-linecap="butt"/><path d="M41.7299,124.50828c0,0 2.766,-22.40651 6.40828,-37.08443c2.40863,-9.70652 9.1099,-24.96248 9.1099,-24.96248l32.85646,6.00125l0.63442,4.71635c0,0 -9.06012,-0.61468 -14.05632,-0.97042c-4.61697,-0.3287 -9.33978,-3.27968 -13.14017,-0.63737c-6.9593,4.83866 -6.65703,13.43799 -8.75625,21.65c-2.83625,11.0951 -4.44638,31.61037 -4.44638,31.61037z" data-paper-data="{&quot;origRot&quot;:0,&quot;origPos&quot;:null}" fill="#7a7a7a" stroke="none" stroke-width="0" stroke-linecap="butt"/><path d="M93.65463,73.0772l-0.40221,-4.56224l32.84598,-0.87721c0,0 -6.68876,3.43706 -13.59805,4.0794c-6.9608,0.64706 -18.58343,1.35771 -18.58343,1.35771z" data-paper-data="{&quot;origPos&quot;:null,&quot;origRot&quot;:0}" fill="#b0936a" stroke="none" stroke-width="0" stroke-linecap="butt"/><path d="M44.03788,126.77429l5.43763,0.92802l-0.45107,5.97917z" data-paper-data="{&quot;origPos&quot;:null,&quot;origRot&quot;:0}" fill="#b0936a" stroke="none" stroke-width="0" stroke-linecap="butt"/><path d="M90.63814,27.84417c13.88929,-0.32032 21.72631,0.61663 35.61496,0.96408c8.04185,0.20119 23.8474,-0.12737 23.8474,-0.12737c0,0 -9.87013,5.94687 -11.73328,6.50334c-3.45569,1.03214 -9.60116,3.39856 -9.60116,3.39856c0,0 4.9405,1.10265 8.43821,2.31718c3.76037,1.30577 9.51344,2.45964 9.51344,2.45964c0,0 -5.67084,2.62031 -9.27438,3.65746c-4.50165,1.29561 -10.54936,4.19549 -10.54936,4.19549c0,0 7.27121,3.49623 12.73975,4.53003c5.49936,1.0396 12.73808,3.37017 12.73808,3.37017c0,0 -9.91132,5.82532 -16.41443,7.00174c-16.40306,2.96932 -33.38619,0.7273 -50.03894,1.39985c-10.15214,0.4087 -25.29834,-6.14395 -30.13681,3.06661c-12.79694,22.8025 -10.39266,79.52381 -14.39708,77.77784c-4.00461,-1.74612 -17.19683,-60.95949 -13.65434,-91.66843c1.37082,-11.86791 12.02113,-19.04702 25.43865,-25.08295c13.41752,-6.03583 25.1283,-3.24235 37.46937,-3.76329z" data-paper-data="{&quot;origPos&quot;:null,&quot;origRot&quot;:0}" id="ID0.5302143599838018" fill="url(#color-7)" stroke="#a96300" stroke-width="3.5" stroke-linecap="round"/></g><path d="M248.51265,328.47641l-3.0073,-23.79395l5.06349,5.02099l5.78113,24.6188z" data-paper-data="{&quot;origPos&quot;:null,&quot;origRot&quot;:0,&quot;index&quot;:null}" fill="#ff2e2e" stroke="#000000" stroke-width="2" stroke-linecap="butt"/><path d="M231.19311,328.12584l14.62456,-24.14395l5.56863,5.61323l-13.30958,25.11706z" data-paper-data="{&quot;origPos&quot;:null,&quot;origRot&quot;:0,&quot;index&quot;:null}" fill="#ffffff" stroke="#000000" stroke-width="2" stroke-linecap="butt"/><path d="M289.27187,309.21467l-5.67568,-5.33333h20.43243l7.56757,5.66667z" data-paper-data="{&quot;origPos&quot;:null}" fill="#ffffff" stroke="#000000" stroke-width="2" stroke-linecap="butt"/><path d="M310.60519,309.54801l-5.67568,-5.33333h20.43243l7.56757,5.66667z" data-paper-data="{&quot;origPos&quot;:null}" fill="#ffffff" stroke="#000000" stroke-width="2" stroke-linecap="butt"/><path d="M269.30271,309.89874l-5.89189,-5.09346l20.41486,-0.84701l7.79598,5.34807z" data-paper-data="{&quot;origPos&quot;:null,&quot;origRot&quot;:0}" fill="#ffffff" stroke="#000000" stroke-width="2" stroke-linecap="butt"/><path d="M245.95613,310.08938l-5.74061,-5.26337l20.43089,-0.2504l7.63646,5.57348z" data-paper-data="{&quot;origPos&quot;:null,&quot;origRot&quot;:0}" fill="#ffffff" stroke="#000000" stroke-width="2" stroke-linecap="butt"/><path d="M323.92157,303.67795l-15.76001,-17.69774l6.93298,1.257l18.48071,16.81786z" data-paper-data="{&quot;origPos&quot;:null,&quot;origRot&quot;:0,&quot;index&quot;:null}" fill="#ff2e2e" stroke="#000000" stroke-width="2" stroke-linecap="butt"/><path d="M301.36869,303.53853l14.45054,-23.85664l5.50236,5.54642l-13.15119,24.81817z" data-paper-data="{&quot;origPos&quot;:null,&quot;origRot&quot;:0,&quot;index&quot;:null}" fill="#ffffff" stroke="#000000" stroke-width="2" stroke-linecap="butt"/><path d="M299.47346,303.73848l-2.97151,-23.51081l5.00323,4.96124l5.71233,24.32583z" data-paper-data="{&quot;origPos&quot;:null,&quot;origRot&quot;:0,&quot;index&quot;:null}" fill="#ff2e2e" stroke="#000000" stroke-width="2" stroke-linecap="butt"/><path d="M282.36004,303.39207l14.45054,-23.85664l5.50236,5.54642l-13.15119,24.81817z" data-paper-data="{&quot;origPos&quot;:null,&quot;origRot&quot;:0,&quot;index&quot;:null}" fill="#ffffff" stroke="#000000" stroke-width="2" stroke-linecap="butt"/><path d="M279.40979,303.55458l-2.97151,-23.51081l5.00323,4.96124l5.71233,24.32583z" data-paper-data="{&quot;origPos&quot;:null,&quot;origRot&quot;:0,&quot;index&quot;:null}" fill="#ff2e2e" stroke="#000000" stroke-width="2" stroke-linecap="butt"/><path d="M262.29639,303.2082l14.45054,-23.85664l5.50236,5.54642l-13.15119,24.81817z" data-paper-data="{&quot;origPos&quot;:null,&quot;origRot&quot;:0,&quot;index&quot;:null}" fill="#ffffff" stroke="#000000" stroke-width="2" stroke-linecap="butt"/><path d="M260.30655,302.89583l-2.97151,-23.5108l5.00323,4.96124l5.71233,24.32583z" data-paper-data="{&quot;origPos&quot;:null,&quot;origRot&quot;:0,&quot;index&quot;:null}" fill="#ff2e2e" stroke="#000000" stroke-width="2" stroke-linecap="butt"/><path d="M242.52645,304.54946l15.11719,-25.85664l5.50236,5.54643l-14.48453,25.48483z" data-paper-data="{&quot;origPos&quot;:null,&quot;origRot&quot;:0,&quot;index&quot;:null}" fill="#ffffff" stroke="#000000" stroke-width="2" stroke-linecap="butt"/><path d="M300.58072,283.86332l-5.60814,-5.26986h20.18928l7.47752,5.59924z" data-paper-data="{&quot;origPos&quot;:null}" fill="#ffffff" stroke="#000000" stroke-width="2" stroke-linecap="butt"/><path d="M280.84921,284.53927l-5.82178,-5.03285l20.17192,-0.83693l7.70321,5.28443z" data-paper-data="{&quot;origPos&quot;:null,&quot;origRot&quot;:0}" fill="#ffffff" stroke="#000000" stroke-width="2" stroke-linecap="butt"/><path d="M257.78045,284.72764l-5.6723,-5.20074l20.18776,-0.24742l7.54559,5.50716z" data-paper-data="{&quot;origPos&quot;:null,&quot;origRot&quot;:0}" fill="#ffffff" stroke="#000000" stroke-width="2" stroke-linecap="butt"/><path d="M35.86433,265.56307l15.7905,-10.74404l12.64006,19.32466c0,0 -3.64657,7.54917 -8.03771,9.87518c-4.39112,2.32603 -13.06744,1.30438 -13.06744,1.30438z" data-paper-data="{&quot;origRot&quot;:0,&quot;origPos&quot;:null,&quot;index&quot;:null}" fill="#ffd499" stroke="#806c4d" stroke-width="2" stroke-linecap="butt"/><path d="M56.54734,176.11746c0,0 -23.09036,17.26834 -23.98759,29.71304c0.90626,8.08075 25.30948,54.0309 25.30948,54.0309c0,0 -5.41547,4.80327 -9.50222,8.16573c-4.13739,3.40413 -11.96776,5.6596 -11.96776,5.6596c0,0 -23.46952,-50.6036 -27.98003,-62.13645c-3.18279,-8.138 25.28737,-50.10566 39.39717,-62.23597c2.42085,-2.22584 10.12432,0.11106 10.12432,0.11106z" data-paper-data="{&quot;origPos&quot;:null,&quot;index&quot;:null,&quot;origRot&quot;:0}" id="ID0.5423141438513994" fill="#000000" stroke="#000000" stroke-width="2.54325" stroke-linecap="round"/><path d="M238.97321,302.89583l-2.97151,-23.5108l5.00323,4.96124l5.71233,24.32583z" data-paper-data="{&quot;origPos&quot;:null,&quot;origRot&quot;:0,&quot;index&quot;:null}" fill="#ff2e2e" stroke="#000000" stroke-width="2" stroke-linecap="butt"/><path d="M335.45895,308.70403l-10.72871,-25.74591l7.72493,-1.16802l12.27181,25.26456z" data-paper-data="{&quot;origPos&quot;:null,&quot;origRot&quot;:0,&quot;index&quot;:null}" fill="#ffffff" stroke="#000000" stroke-width="2" stroke-linecap="butt"/><path d="M240.11378,284.3943l-5.6723,-5.20074l20.18776,-0.24742l7.54559,5.50716z" data-paper-data="{&quot;origPos&quot;:null,&quot;origRot&quot;:0}" fill="#ffffff" stroke="#000000" stroke-width="2" stroke-linecap="butt"/><path d="M321.44712,284.06095l-5.6723,-5.20074l20.18776,-0.24742l7.54559,5.50716z" data-paper-data="{&quot;origPos&quot;:null,&quot;origRot&quot;:0}" fill="#ffffff" stroke="#000000" stroke-width="2" stroke-linecap="butt"/><path d="M331.02747,278.33016l-3.0073,-23.79396l5.06349,5.02099l5.78113,24.6188z" data-paper-data="{&quot;origPos&quot;:null,&quot;origRot&quot;:0,&quot;index&quot;:null}" fill="#ff2e2e" stroke="#000000" stroke-width="2" stroke-linecap="butt"/><path d="M310.8391,272.50325l23.91776,-14.99163l2.45059,7.51748l-23.18064,16.45203z" data-paper-data="{&quot;origPos&quot;:null,&quot;origRot&quot;:0,&quot;index&quot;:null}" fill="#ffffff" stroke="#000000" stroke-width="2" stroke-linecap="butt"/><path d="M310.72219,278.14405l-3.0073,-23.79396l5.06349,5.02099l5.78113,24.6188z" data-paper-data="{&quot;origPos&quot;:null,&quot;origRot&quot;:0,&quot;index&quot;:null}" fill="#ff2e2e" stroke="#000000" stroke-width="2" stroke-linecap="butt"/><path d="M293.40265,277.79348l14.62457,-24.14395l5.56863,5.61322l-13.30958,25.11706z" data-paper-data="{&quot;origPos&quot;:null,&quot;origRot&quot;:0,&quot;index&quot;:null}" fill="#ffffff" stroke="#000000" stroke-width="2" stroke-linecap="butt"/><path d="M291.4846,277.99584l-3.0073,-23.79396l5.06349,5.02099l5.78113,24.6188z" data-paper-data="{&quot;origPos&quot;:null,&quot;origRot&quot;:0,&quot;index&quot;:null}" fill="#ff2e2e" stroke="#000000" stroke-width="2" stroke-linecap="butt"/><path d="M274.16507,277.64527l14.62457,-24.14395l5.56863,5.61322l-13.30958,25.11706z" data-paper-data="{&quot;origPos&quot;:null,&quot;origRot&quot;:0,&quot;index&quot;:null}" fill="#ffffff" stroke="#000000" stroke-width="2" stroke-linecap="butt"/><path d="M271.17931,277.80974l-3.0073,-23.79396l5.06349,5.02099l5.78113,24.6188z" data-paper-data="{&quot;origPos&quot;:null,&quot;origRot&quot;:0,&quot;index&quot;:null}" fill="#ff2e2e" stroke="#000000" stroke-width="2" stroke-linecap="butt"/><path d="M253.85978,277.45917l14.62457,-24.14395l5.56863,5.61322l-13.30958,25.11706z" data-paper-data="{&quot;origPos&quot;:null,&quot;origRot&quot;:0,&quot;index&quot;:null}" fill="#ffffff" stroke="#000000" stroke-width="2" stroke-linecap="butt"/><path d="M251.84598,277.14306l-3.0073,-23.79395l5.06349,5.02099l5.78113,24.6188z" data-paper-data="{&quot;origPos&quot;:null,&quot;origRot&quot;:0,&quot;index&quot;:null}" fill="#ff2e2e" stroke="#000000" stroke-width="2" stroke-linecap="butt"/><path d="M234.52644,276.79249l14.62456,-24.14395l5.56863,5.61323l-13.30958,25.11706z" data-paper-data="{&quot;origPos&quot;:null,&quot;origRot&quot;:0,&quot;index&quot;:null}" fill="#ffffff" stroke="#000000" stroke-width="2" stroke-linecap="butt"/><path d="M292.60519,257.88131l-5.67568,-5.33333h20.43243l7.56757,5.66667z" data-paper-data="{&quot;origPos&quot;:null}" fill="#ffffff" stroke="#000000" stroke-width="2" stroke-linecap="butt"/><path d="M315.21346,260.79899l-7.10752,-3.18448l19.30943,-6.68058l9.00442,2.88093z" data-paper-data="{&quot;origPos&quot;:null,&quot;origRot&quot;:0}" fill="#ffffff" stroke="#000000" stroke-width="2" stroke-linecap="butt"/><path d="M272.63604,258.5654l-5.89189,-5.09346l20.41486,-0.84701l7.79598,5.34807z" data-paper-data="{&quot;origPos&quot;:null,&quot;origRot&quot;:0}" fill="#ffffff" stroke="#000000" stroke-width="2" stroke-linecap="butt"/><path d="M249.28946,258.75604l-5.74061,-5.26337l20.43089,-0.2504l7.63646,5.57348z" data-paper-data="{&quot;origPos&quot;:null,&quot;origRot&quot;:0}" fill="#ffffff" stroke="#000000" stroke-width="2" stroke-linecap="butt"/><path d="M319.72069,249.59844l19.57751,-13.35324l-2.13814,6.71376l-19.05481,16.16449z" data-paper-data="{&quot;origPos&quot;:null,&quot;origRot&quot;:0,&quot;index&quot;:null}" fill="#ff2e2e" stroke="#000000" stroke-width="2" stroke-linecap="butt"/><path d="M310.41521,245.0926l27.81894,2.01587l-2.43615,7.4232l-28.08412,-0.42134z" data-paper-data="{&quot;origPos&quot;:null,&quot;origRot&quot;:0,&quot;index&quot;:null}" fill="#ffffff" stroke="#000000" stroke-width="2" stroke-linecap="butt"/><path d="M302.8068,252.40514l-2.97151,-23.51081l5.00323,4.96124l5.71233,24.32583z" data-paper-data="{&quot;origPos&quot;:null,&quot;origRot&quot;:0,&quot;index&quot;:null}" fill="#ff2e2e" stroke="#000000" stroke-width="2" stroke-linecap="butt"/><path d="M285.69336,252.05874l14.45054,-23.85664l5.50236,5.54642l-13.15119,24.81817z" data-paper-data="{&quot;origPos&quot;:null,&quot;origRot&quot;:0,&quot;index&quot;:null}" fill="#ffffff" stroke="#000000" stroke-width="2" stroke-linecap="butt"/><path d="M282.74314,252.22126l-2.97151,-23.51081l5.00323,4.96124l5.71233,24.32583z" data-paper-data="{&quot;origPos&quot;:null,&quot;origRot&quot;:0,&quot;index&quot;:null}" fill="#ff2e2e" stroke="#000000" stroke-width="2" stroke-linecap="butt"/><path d="M265.62971,251.87486l14.45054,-23.85664l5.50236,5.54642l-13.15119,24.81817z" data-paper-data="{&quot;origPos&quot;:null,&quot;origRot&quot;:0,&quot;index&quot;:null}" fill="#ffffff" stroke="#000000" stroke-width="2" stroke-linecap="butt"/><path d="M263.63988,251.56252l-2.97151,-23.5108l5.00323,4.96124l5.71233,24.32583z" data-paper-data="{&quot;origPos&quot;:null,&quot;origRot&quot;:0,&quot;index&quot;:null}" fill="#ff2e2e" stroke="#000000" stroke-width="2" stroke-linecap="butt"/><path d="M245.85978,253.21612l15.11719,-25.85664l5.50236,5.54643l-14.48453,25.48483z" data-paper-data="{&quot;origPos&quot;:null,&quot;origRot&quot;:0,&quot;index&quot;:null}" fill="#ffffff" stroke="#000000" stroke-width="2" stroke-linecap="butt"/><path d="M308.64229,234.05641l-3.87981,-6.64603l19.35731,5.736l5.57857,7.49295z" data-paper-data="{&quot;origPos&quot;:null,&quot;origRot&quot;:0}" fill="#ffffff" stroke="#000000" stroke-width="2" stroke-linecap="butt"/><path d="M284.18253,233.20593l-5.82178,-5.03285l20.17192,-0.83693l7.70321,5.28443z" data-paper-data="{&quot;origPos&quot;:null,&quot;origRot&quot;:0}" fill="#ffffff" stroke="#000000" stroke-width="2" stroke-linecap="butt"/><path d="M261.11377,233.3943l-5.6723,-5.20074l20.18776,-0.24742l7.54559,5.50716z" data-paper-data="{&quot;origPos&quot;:null,&quot;origRot&quot;:0}" fill="#ffffff" stroke="#000000" stroke-width="2" stroke-linecap="butt"/><path d="M242.30655,251.56252l-2.97151,-23.5108l5.00323,4.96124l5.71233,24.32583z" data-paper-data="{&quot;origPos&quot;:null,&quot;origRot&quot;:0,&quot;index&quot;:null}" fill="#ff2e2e" stroke="#000000" stroke-width="2" stroke-linecap="butt"/><path d="M351.99655,257.12344l14.37925,-23.89968l5.51889,5.52997l-13.07703,24.85733z" data-paper-data="{&quot;origPos&quot;:null,&quot;origRot&quot;:0,&quot;index&quot;:null}" fill="#ffffff" stroke="#000000" stroke-width="2" stroke-linecap="butt"/><path d="M243.44712,233.06097l-5.6723,-5.20074l20.18776,-0.24742l7.54559,5.50716z" data-paper-data="{&quot;origPos&quot;:null,&quot;origRot&quot;:0}" fill="#ffffff" stroke="#000000" stroke-width="2" stroke-linecap="butt"/><path d="M345.34737,224.99415l-1.16052,-7.60762l15.88597,12.45966l2.42819,9.02045z" data-paper-data="{&quot;origPos&quot;:null,&quot;origRot&quot;:0}" fill="#ffffff" stroke="#000000" stroke-width="2" stroke-linecap="butt"/><path d="M238.40069,334.0397l-3.37866,-26.73221l5.68877,5.64102l6.49503,27.65891z" data-paper-data="{&quot;origPos&quot;:null,&quot;origRot&quot;:0,&quot;index&quot;:null}" fill="#ff2e2e" stroke="#000000" stroke-width="2" stroke-linecap="butt"/><path d="M218.94241,333.64583l16.43052,-27.12542l6.25628,6.30638l-14.95314,28.2187z" data-paper-data="{&quot;origPos&quot;:null,&quot;origRot&quot;:0,&quot;index&quot;:null}" fill="#ffffff" stroke="#000000" stroke-width="2" stroke-linecap="butt"/><path d="M216.67994,333.29071l-3.37866,-26.7322l5.68877,5.64102l6.49503,27.65891z" data-paper-data="{&quot;origPos&quot;:null,&quot;origRot&quot;:0,&quot;index&quot;:null}" fill="#ff2e2e" stroke="#000000" stroke-width="2" stroke-linecap="butt"/><path d="M197.22165,332.89685l16.43051,-27.12542l6.25628,6.30639l-14.95314,28.2187z" data-paper-data="{&quot;origPos&quot;:null,&quot;origRot&quot;:0,&quot;index&quot;:null}" fill="#ffffff" stroke="#000000" stroke-width="2" stroke-linecap="butt"/><path d="M213.80772,312.63311l-6.4495,-5.91333l22.95384,-0.28132l8.57947,6.26173z" data-paper-data="{&quot;origPos&quot;:null,&quot;origRot&quot;:0}" fill="#ffffff" stroke="#000000" stroke-width="2" stroke-linecap="butt"/><path d="M232.16579,304.90218l16.235,-26.80263l6.18183,6.23133l-14.77519,27.8829z" data-paper-data="{&quot;origPos&quot;:null,&quot;origRot&quot;:0,&quot;index&quot;:null}" fill="#ffffff" stroke="#000000" stroke-width="2" stroke-linecap="butt"/><path d="M229.93023,304.55127l-3.33845,-26.41408l5.62107,5.57389l6.41773,27.32976z" data-paper-data="{&quot;origPos&quot;:null,&quot;origRot&quot;:0,&quot;index&quot;:null}" fill="#ff2e2e" stroke="#000000" stroke-width="2" stroke-linecap="butt"/><path d="M209.95452,306.40907l16.98397,-29.04961l6.18183,6.23134l-16.27318,28.63188z" data-paper-data="{&quot;origPos&quot;:null,&quot;origRot&quot;:0,&quot;index&quot;:null}" fill="#ffffff" stroke="#000000" stroke-width="2" stroke-linecap="butt"/><path d="M227.09219,284.13952l-6.37276,-5.84297l22.68069,-0.27797l8.47737,6.18722z" data-paper-data="{&quot;origPos&quot;:null,&quot;origRot&quot;:0}" fill="#ffffff" stroke="#000000" stroke-width="2" stroke-linecap="butt"/><path d="M205.9625,304.55127l-3.33845,-26.41408l5.62107,5.57389l6.41773,27.32976z" data-paper-data="{&quot;origPos&quot;:null,&quot;origRot&quot;:0,&quot;index&quot;:null}" fill="#ff2e2e" stroke="#000000" stroke-width="2" stroke-linecap="butt"/><path d="M207.24392,283.76502l-6.37276,-5.84297l22.68069,-0.27797l8.47737,6.18722z" data-paper-data="{&quot;origPos&quot;:null,&quot;origRot&quot;:0}" fill="#ffffff" stroke="#000000" stroke-width="2" stroke-linecap="butt"/><path d="M240.90069,276.53971l-3.37867,-26.73221l5.68877,5.64101l6.49502,27.65891z" data-paper-data="{&quot;origPos&quot;:null,&quot;origRot&quot;:0,&quot;index&quot;:null}" fill="#ff2e2e" stroke="#000000" stroke-width="2" stroke-linecap="butt"/><path d="M221.44242,276.14583l16.43051,-27.12542l6.25629,6.30638l-14.95314,28.2187z" data-paper-data="{&quot;origPos&quot;:null,&quot;origRot&quot;:0,&quot;index&quot;:null}" fill="#ffffff" stroke="#000000" stroke-width="2" stroke-linecap="butt"/><path d="M219.17994,275.79071l-3.37866,-26.7322l5.68877,5.64101l6.49502,27.65891z" data-paper-data="{&quot;origPos&quot;:null,&quot;origRot&quot;:0,&quot;index&quot;:null}" fill="#ff2e2e" stroke="#000000" stroke-width="2" stroke-linecap="butt"/><path d="M199.72166,275.39682l16.43051,-27.12542l6.25628,6.3064l-14.95315,28.21869z" data-paper-data="{&quot;origPos&quot;:null,&quot;origRot&quot;:0,&quot;index&quot;:null}" fill="#ffffff" stroke="#000000" stroke-width="2" stroke-linecap="butt"/><path d="M216.30772,255.13312l-6.4495,-5.91333l22.95385,-0.28132l8.57946,6.26173z" data-paper-data="{&quot;origPos&quot;:null,&quot;origRot&quot;:0}" fill="#ffffff" stroke="#000000" stroke-width="2" stroke-linecap="butt"/><path d="M234.66579,247.4022l16.235,-26.80263l6.18183,6.23134l-14.77519,27.8829z" data-paper-data="{&quot;origPos&quot;:null,&quot;origRot&quot;:0,&quot;index&quot;:null}" fill="#ffffff" stroke="#000000" stroke-width="2" stroke-linecap="butt"/><path d="M232.43023,247.05128l-3.33845,-26.41408l5.62107,5.57389l6.41773,27.32976z" data-paper-data="{&quot;origPos&quot;:null,&quot;origRot&quot;:0,&quot;index&quot;:null}" fill="#ff2e2e" stroke="#000000" stroke-width="2" stroke-linecap="butt"/><path d="M212.45452,248.90909l16.98397,-29.0496l6.18183,6.23134l-16.27318,28.63188z" data-paper-data="{&quot;origPos&quot;:null,&quot;origRot&quot;:0,&quot;index&quot;:null}" fill="#ffffff" stroke="#000000" stroke-width="2" stroke-linecap="butt"/><path d="M229.59219,226.63953l-6.37276,-5.84296l22.68069,-0.27797l8.47737,6.18722z" data-paper-data="{&quot;origPos&quot;:null,&quot;origRot&quot;:0}" fill="#ffffff" stroke="#000000" stroke-width="2" stroke-linecap="butt"/><path d="M208.4625,247.05128l-3.33845,-26.41408l5.62106,5.57389l6.41773,27.32976z" data-paper-data="{&quot;origPos&quot;:null,&quot;origRot&quot;:0,&quot;index&quot;:null}" fill="#ff2e2e" stroke="#000000" stroke-width="2" stroke-linecap="butt"/><path d="M209.74392,226.26502l-6.37276,-5.84296l22.68069,-0.27797l8.47737,6.18723z" data-paper-data="{&quot;origPos&quot;:null,&quot;origRot&quot;:0}" fill="#ffffff" stroke="#000000" stroke-width="2" stroke-linecap="butt"/><path d="M391.99318,337.61196l-26.17561,-6.39246l7.30082,-3.29864l28.15429,3.81267z" data-paper-data="{&quot;origPos&quot;:null,&quot;origRot&quot;:0,&quot;index&quot;:null}" fill="#ff2e2e" stroke="#000000" stroke-width="2" stroke-linecap="butt"/><path d="M354.1561,332.93397l20.11806,-24.51558l5.29673,7.13135l-18.81101,25.8077z" data-paper-data="{&quot;origPos&quot;:null,&quot;origRot&quot;:0,&quot;index&quot;:null}" fill="#ffffff" stroke="#000000" stroke-width="2" stroke-linecap="butt"/><path d="M353.01926,338.56863l-20.20091,-17.83113l7.99736,0.47462l23.15227,16.46733z" data-paper-data="{&quot;origPos&quot;:null,&quot;origRot&quot;:0,&quot;index&quot;:null}" fill="#ff2e2e" stroke="#000000" stroke-width="2" stroke-linecap="butt"/><path d="M327.03352,323.07611l30.16993,-9.7737l0.60817,8.86238l-29.76738,11.56696z" data-paper-data="{&quot;origPos&quot;:null,&quot;origRot&quot;:0,&quot;index&quot;:null}" fill="#ffffff" stroke="#000000" stroke-width="2" stroke-linecap="butt"/><path d="M346.85105,309.63705l-4.32715,-7.60521l21.93577,6.76615l6.24788,8.58956z" data-paper-data="{&quot;origPos&quot;:null,&quot;origRot&quot;:0}" fill="#ffffff" stroke="#000000" stroke-width="2" stroke-linecap="butt"/><path d="M378.46057,305.38524l24.12181,-20.00236l3.79845,7.91304l-23.09662,21.50137z" data-paper-data="{&quot;origPos&quot;:null,&quot;origRot&quot;:0,&quot;index&quot;:null}" fill="#ffffff" stroke="#000000" stroke-width="2" stroke-linecap="butt"/><path d="M368.15721,312.35617l-4.99638,-26.1512l5.96114,5.20858l8.12726,26.871z" data-paper-data="{&quot;origPos&quot;:null,&quot;origRot&quot;:0,&quot;index&quot;:null}" fill="#ff2e2e" stroke="#000000" stroke-width="2" stroke-linecap="butt"/><path d="M344.68955,303.65853l27.46069,-19.44854l3.0584,8.22745l-26.64084,19.36146z" data-paper-data="{&quot;origPos&quot;:null,&quot;origRot&quot;:0,&quot;index&quot;:null}" fill="#ffffff" stroke="#000000" stroke-width="2" stroke-linecap="butt"/><path d="M369.49153,290.44892l-3.39263,-7.95251l20.77298,9.10903l5.16747,9.13482z" data-paper-data="{&quot;origPos&quot;:null,&quot;origRot&quot;:0}" fill="#ffffff" stroke="#000000" stroke-width="2" stroke-linecap="butt"/><path d="M347.16091,305.89882l-16.44005,-20.94215l7.68662,1.89218l19.5521,20.14494z" data-paper-data="{&quot;origPos&quot;:null,&quot;origRot&quot;:0,&quot;index&quot;:null}" fill="#ff2e2e" stroke="#000000" stroke-width="2" stroke-linecap="butt"/><path d="M350.4662,282.34971l-1.47219,-8.51968l18.12036,13.64346l2.92745,10.07858z" data-paper-data="{&quot;origPos&quot;:null,&quot;origRot&quot;:0}" fill="#ffffff" stroke="#000000" stroke-width="2" stroke-linecap="butt"/><path d="M413.7419,301.6189l14.24352,-22.87244l0.85496,7.96569l-12.41025,25.55751z" data-paper-data="{&quot;origPos&quot;:null,&quot;origRot&quot;:0,&quot;index&quot;:null}" fill="#ff2e2e" stroke="#000000" stroke-width="2" stroke-linecap="butt"/><path d="M373.91021,283.24221l31.29828,-5.11553l-0.73431,8.85282l-31.17054,6.94899z" data-paper-data="{&quot;origPos&quot;:null,&quot;origRot&quot;:0,&quot;index&quot;:null}" fill="#ffffff" stroke="#000000" stroke-width="2" stroke-linecap="butt"/><path d="M361.55274,280.40409l7.95721,-25.74313l2.85298,7.48623l-5.50127,27.87358z" data-paper-data="{&quot;origPos&quot;:null,&quot;origRot&quot;:0,&quot;index&quot;:null}" fill="#ff2e2e" stroke="#000000" stroke-width="2" stroke-linecap="butt"/><path d="M335.04068,268.16426l30.6425,-8.17235l0.14091,8.88211l-30.33488,9.98429z" data-paper-data="{&quot;origPos&quot;:null,&quot;origRot&quot;:0,&quot;index&quot;:null}" fill="#ffffff" stroke="#000000" stroke-width="2" stroke-linecap="butt"/><path d="M388.58268,277.92919l-5.44742,-6.84755l22.7164,3.30504l7.49691,7.52416z" data-paper-data="{&quot;origPos&quot;:null,&quot;origRot&quot;:0}" fill="#ffffff" stroke="#000000" stroke-width="2" stroke-linecap="butt"/><path d="M406.47182,269.89249l29.22989,-11.29469l1.08533,8.71015l-28.73452,13.04188z" data-paper-data="{&quot;origPos&quot;:null,&quot;origRot&quot;:0,&quot;index&quot;:null}" fill="#ffffff" stroke="#000000" stroke-width="2" stroke-linecap="butt"/><path d="M414.53305,272.81822l-23.09847,-13.24045l7.83486,-1.13125l25.68378,11.33344z" data-paper-data="{&quot;origPos&quot;:null,&quot;origRot&quot;:0,&quot;index&quot;:null}" fill="#ff2e2e" stroke="#000000" stroke-width="2" stroke-linecap="butt"/><path d="M377.83831,270.29735l20.01446,-27.051l5.4746,6.861l-19.26279,26.71227z" data-paper-data="{&quot;origPos&quot;:null,&quot;origRot&quot;:0,&quot;index&quot;:null}" fill="#ffffff" stroke="#000000" stroke-width="2" stroke-linecap="butt"/><path d="M409.12762,256.14809l-3.30235,-7.9904l20.66852,9.34364l5.06369,9.19274z" data-paper-data="{&quot;origPos&quot;:null,&quot;origRot&quot;:0}" fill="#ffffff" stroke="#000000" stroke-width="2" stroke-linecap="butt"/><path d="M369.65413,249.8034l7.86253,-25.43678l2.81902,7.39714l-5.4358,27.54188z" data-paper-data="{&quot;origPos&quot;:null,&quot;origRot&quot;:0,&quot;index&quot;:null}" fill="#ff2e2e" stroke="#000000" stroke-width="2" stroke-linecap="butt"/><path d="M383.98442,256.41408l-7.73009,-3.87272l21.73612,-6.48323l9.84847,3.62701z" data-paper-data="{&quot;origPos&quot;:null,&quot;origRot&quot;:0}" fill="#ffffff" stroke="#000000" stroke-width="2" stroke-linecap="butt"/><path d="M248.45452,220.90909l16.98397,-29.0496l6.18183,6.23134l-16.27318,28.63188z" data-paper-data="{&quot;origPos&quot;:null,&quot;origRot&quot;:0,&quot;index&quot;:null}" fill="#ffffff" stroke="#000000" stroke-width="2" stroke-linecap="butt"/><path d="M244.4625,219.05129l-3.33845,-26.41408l5.62106,5.57389l6.41773,27.32976z" data-paper-data="{&quot;origPos&quot;:null,&quot;origRot&quot;:0,&quot;index&quot;:null}" fill="#ff2e2e" stroke="#000000" stroke-width="2" stroke-linecap="butt"/><path d="M226.66579,218.9022l16.235,-26.80263l6.18183,6.23134l-14.77519,27.88289z" data-paper-data="{&quot;origPos&quot;:null,&quot;origRot&quot;:0,&quot;index&quot;:null}" fill="#ffffff" stroke="#000000" stroke-width="2" stroke-linecap="butt"/><path d="M224.43023,218.55129l-3.33845,-26.41408l5.62107,5.57389l6.41773,27.32976z" data-paper-data="{&quot;origPos&quot;:null,&quot;origRot&quot;:0,&quot;index&quot;:null}" fill="#ff2e2e" stroke="#000000" stroke-width="2" stroke-linecap="butt"/><path d="M204.45452,220.40909l16.98397,-29.0496l6.18183,6.23134l-16.27318,28.63188z" data-paper-data="{&quot;origPos&quot;:null,&quot;origRot&quot;:0,&quot;index&quot;:null}" fill="#ffffff" stroke="#000000" stroke-width="2" stroke-linecap="butt"/><path d="M200.4625,218.55129l-3.33845,-26.41408l5.62106,5.57389l6.41773,27.32976z" data-paper-data="{&quot;origPos&quot;:null,&quot;origRot&quot;:0,&quot;index&quot;:null}" fill="#ff2e2e" stroke="#000000" stroke-width="2" stroke-linecap="butt"/><path d="M223.09219,197.63953l-6.37276,-5.84297l22.68069,-0.27797l8.47737,6.18723z" data-paper-data="{&quot;origPos&quot;:null,&quot;origRot&quot;:0}" fill="#ffffff" stroke="#000000" stroke-width="2" stroke-linecap="butt"/><path d="M203.24392,197.26503l-6.37276,-5.84296l22.68069,-0.27797l8.47737,6.18722z" data-paper-data="{&quot;origPos&quot;:null,&quot;origRot&quot;:0}" fill="#ffffff" stroke="#000000" stroke-width="2" stroke-linecap="butt"/><path d="M245.59219,198.13953l-6.37276,-5.84297l22.68069,-0.27797l8.47737,6.18723z" data-paper-data="{&quot;origPos&quot;:null,&quot;origRot&quot;:0}" fill="#ffffff" stroke="#000000" stroke-width="2" stroke-linecap="butt"/><path d="M431.12626,249.65902l32.7629,-7.67645l-0.26482,8.77351l-31.9706,7.90451z" data-paper-data="{&quot;origPos&quot;:null,&quot;origRot&quot;:0,&quot;index&quot;:null}" fill="#ffffff" stroke="#000000" stroke-width="2" stroke-linecap="butt"/><path d="M417.56708,238.59469l26.60109,-1.10966l-6.02601,5.13339l-27.77198,4.10123z" data-paper-data="{&quot;origPos&quot;:null,&quot;origRot&quot;:0,&quot;index&quot;:null}" fill="#ff2e2e" stroke="#000000" stroke-width="2" stroke-linecap="butt"/><path d="M398.77205,236.32524l30.01063,-9.01769l0.41354,8.76776l-29.65081,10.79772z" data-paper-data="{&quot;origPos&quot;:null,&quot;origRot&quot;:0,&quot;index&quot;:null}" fill="#ffffff" stroke="#000000" stroke-width="2" stroke-linecap="butt"/><path d="M401.5444,241.33569l-10.90634,-24.28787l7.00372,3.68948l14.11881,24.26443z" data-paper-data="{&quot;origPos&quot;:null,&quot;origRot&quot;:0,&quot;index&quot;:null}" fill="#ff2e2e" stroke="#000000" stroke-width="2" stroke-linecap="butt"/><path d="M374.45788,236.54754l20.01446,-27.051l5.4746,6.861l-19.26279,26.71227z" data-paper-data="{&quot;origPos&quot;:null,&quot;origRot&quot;:0,&quot;index&quot;:null}" fill="#ffffff" stroke="#000000" stroke-width="2" stroke-linecap="butt"/><path d="M366.12884,218.25646l-3.71579,-26.36364l5.70019,5.49295l6.80786,27.2352z" data-paper-data="{&quot;origPos&quot;:null,&quot;origRot&quot;:0,&quot;index&quot;:null}" fill="#ff2e2e" stroke="#000000" stroke-width="2" stroke-linecap="butt"/><path d="M398.4399,219.91818l-5.70624,-6.49546l22.57865,2.16688l7.76153,7.06443z" data-paper-data="{&quot;origPos&quot;:null,&quot;origRot&quot;:0}" fill="#ffffff" stroke="#000000" stroke-width="2" stroke-linecap="butt"/><path d="M380.18853,220.88825l-7.75852,-3.81545l21.68759,-6.64378l9.87503,3.55408z" data-paper-data="{&quot;origPos&quot;:null,&quot;origRot&quot;:0}" fill="#ffffff" stroke="#000000" stroke-width="2" stroke-linecap="butt"/><path d="M430.54085,244.37841l-7.16764,-4.83499l22.38955,-3.6331l9.30006,4.86384z" data-paper-data="{&quot;origPos&quot;:null,&quot;origRot&quot;:0}" fill="#ffffff" stroke="#000000" stroke-width="2" stroke-linecap="butt"/><path d="M295.75815,226.15477l-3.0033,-23.76231l5.05675,5.01431l5.77344,24.58606z" data-paper-data="{&quot;origPos&quot;:null,&quot;origRot&quot;:0,&quot;index&quot;:null}" fill="#ff2e2e" stroke="#000000" stroke-width="2" stroke-linecap="butt"/><path d="M277.78785,227.82606l15.27891,-26.13325l5.56122,5.60577l-14.63948,25.75746z" data-paper-data="{&quot;origPos&quot;:null,&quot;origRot&quot;:0,&quot;index&quot;:null}" fill="#ffffff" stroke="#000000" stroke-width="2" stroke-linecap="butt"/><path d="M324.17695,232.70576l3.87161,-23.63636l3.42375,6.24437l-1.44965,25.2132z" data-paper-data="{&quot;origPos&quot;:null,&quot;origRot&quot;:0,&quot;index&quot;:null}" fill="#ff2e2e" stroke="#000000" stroke-width="2" stroke-linecap="butt"/><path d="M306.47235,229.20262l22.07404,-20.71542l3.73939,6.95476l-21.35419,20.53679z" data-paper-data="{&quot;origPos&quot;:null,&quot;origRot&quot;:0,&quot;index&quot;:null}" fill="#ffffff" stroke="#000000" stroke-width="2" stroke-linecap="butt"/><path d="M239.92482,191.32144l-3.00329,-23.76231l5.05676,5.01432l5.77344,24.58606z" data-paper-data="{&quot;origPos&quot;:null,&quot;origRot&quot;:0,&quot;index&quot;:null}" fill="#ff2e2e" stroke="#000000" stroke-width="2" stroke-linecap="butt"/><path d="M221.95452,192.99273l15.27891,-26.13325l5.56122,5.60576l-14.63948,25.75746z" data-paper-data="{&quot;origPos&quot;:null,&quot;origRot&quot;:0,&quot;index&quot;:null}" fill="#ffffff" stroke="#000000" stroke-width="2" stroke-linecap="butt"/><path d="M262.42482,191.32144l-3.00329,-23.76231l5.05676,5.01432l5.77344,24.58606z" data-paper-data="{&quot;origPos&quot;:null,&quot;origRot&quot;:0,&quot;index&quot;:null}" fill="#ff2e2e" stroke="#000000" stroke-width="2" stroke-linecap="butt"/><path d="M244.45452,192.99273l15.27891,-26.13325l5.56122,5.60576l-14.63947,25.75746z" data-paper-data="{&quot;origPos&quot;:null,&quot;origRot&quot;:0,&quot;index&quot;:null}" fill="#ffffff" stroke="#000000" stroke-width="2" stroke-linecap="butt"/><path d="M214.92482,190.82144l-3.0033,-23.76231l5.05676,5.01432l5.77344,24.58606z" data-paper-data="{&quot;origPos&quot;:null,&quot;origRot&quot;:0,&quot;index&quot;:null}" fill="#ff2e2e" stroke="#000000" stroke-width="2" stroke-linecap="butt"/><path d="M196.95452,192.49273l15.27891,-26.13325l5.56122,5.60576l-14.63948,25.75746z" data-paper-data="{&quot;origPos&quot;:null,&quot;origRot&quot;:0,&quot;index&quot;:null}" fill="#ffffff" stroke="#000000" stroke-width="2" stroke-linecap="butt"/><path d="M414.86101,215.34239l-0.42606,-23.94756l4.48718,5.52987l3.09135,25.06492z" data-paper-data="{&quot;origPos&quot;:null,&quot;origRot&quot;:0,&quot;index&quot;:null}" fill="#ff2e2e" stroke="#000000" stroke-width="2" stroke-linecap="butt"/><path d="M395.24774,212.67469l22.37739,-20.38736l3.63634,7.0092l-21.65498,20.21937z" data-paper-data="{&quot;origPos&quot;:null,&quot;origRot&quot;:0,&quot;index&quot;:null}" fill="#ffffff" stroke="#000000" stroke-width="2" stroke-linecap="butt"/><path d="M450.84294,230.89864l-21.77467,-9.97651l6.92688,-1.65306l23.93515,8.05699z" data-paper-data="{&quot;origPos&quot;:null,&quot;origRot&quot;:0,&quot;index&quot;:null}" fill="#ff2e2e" stroke="#000000" stroke-width="2" stroke-linecap="butt"/><path d="M424.55001,214.53229l26.75197,-14.16771l1.77491,7.69424l-26.01049,14.18504z" data-paper-data="{&quot;origPos&quot;:null,&quot;origRot&quot;:0,&quot;index&quot;:null}" fill="#ffffff" stroke="#000000" stroke-width="2" stroke-linecap="butt"/><path d="M386.51495,209.96452l10.30533,-21.62099l1.5479,6.95113l-8.41877,23.81032z" data-paper-data="{&quot;origPos&quot;:null,&quot;origRot&quot;:0,&quot;index&quot;:null}" fill="#ff2e2e" stroke="#000000" stroke-width="2" stroke-linecap="butt"/><path d="M365.2706,218.45601l13.80348,-26.94171l5.86406,5.28815l-13.18591,26.53097z" data-paper-data="{&quot;origPos&quot;:null,&quot;origRot&quot;:0,&quot;index&quot;:null}" fill="#ffffff" stroke="#000000" stroke-width="2" stroke-linecap="butt"/></g></g></svg>