<svg version="1.1" xmlns="http://www.w3.org/2000/svg" xmlns:xlink="http://www.w3.org/1999/xlink" width="494.83612" height="368.61787"><g transform="translate(14.47933,3.93395)"><g data-paper-data="{&quot;isPaintingLayer&quot;:true}" fill-rule="nonzero" stroke-linejoin="miter" stroke-miterlimit="10" stroke-dasharray="" stroke-dashoffset="0" style="mix-blend-mode: normal"><path d="M-0.24024,363.93392v-367.86787h480.48048v367.86787z" data-paper-data="{&quot;origPos&quot;:null}" fill="#00e7e7" stroke="none" stroke-width="NaN" stroke-linecap="butt"/><path d="M-2.37519,363.93392v-91.59159h481.98198v91.59159z" data-paper-data="{&quot;origPos&quot;:null}" fill="#31c700" stroke="#000000" stroke-width="1.5" stroke-linecap="butt"/><path d="M-3.75938,291.84962v-294.29429h79.57958v294.29429z" fill="#dde983" stroke="#000000" stroke-width="1.5" stroke-linecap="butt"/><path d="M-12.76839,186.74452v-131.33133h61.56156v131.33133z" data-paper-data="{&quot;origPos&quot;:null}" fill="#91b8c7" stroke="#000000" stroke-width="3" stroke-linecap="butt"/><path d="M-12.72933,119.75h60.5" data-paper-data="{&quot;origPos&quot;:null}" fill="none" stroke="#000000" stroke-width="3.5" stroke-linecap="round"/><path d="M15.77067,185l0.5,-130" data-paper-data="{&quot;origPos&quot;:null}" fill="none" stroke="#000000" stroke-width="3.5" stroke-linecap="round"/><path d="M403.09248,214.62811l-18.91504,9.71425l-6.89616,10.6906l-2.33715,-11.536z" data-paper-data="{&quot;origPos&quot;:null,&quot;origRot&quot;:0}" fill="#91b8c7" stroke="#000000" stroke-width="1.5" stroke-linecap="butt"/><path d="M305.4926,265.58144l-7.53147,-1.1301l-6.01246,4.67443l-2.9114,-11.12535l6.54141,-0.67815z" data-paper-data="{&quot;origPos&quot;:null,&quot;origRot&quot;:0}" fill="#91b8c7" stroke="#000000" stroke-width="1.5" stroke-linecap="butt"/><path d="M370.81595,161.83373l7.20554,5.1313l5.04118,7.92695l-6.13233,3.30067l-2.06379,-6.50295z" data-paper-data="{&quot;origPos&quot;:null,&quot;origRot&quot;:0}" fill="#91b8c7" stroke="#000000" stroke-width="1.5" stroke-linecap="butt"/><path d="M289.50598,182.41223l0.45635,-10.78387l7.56841,-2.99485l1.63255,5.79524l-3.71776,2.14145z" data-paper-data="{&quot;origPos&quot;:null,&quot;origRot&quot;:0}" fill="#91b8c7" stroke="#000000" stroke-width="1.5" stroke-linecap="butt"/><path d="M330.37739,104.72989l3.99529,-2.16817l2.73498,-4.7023l3.99116,2.01758l0.90845,4.57546l-4.15257,2.19605z" data-paper-data="{&quot;origPos&quot;:null,&quot;origRot&quot;:0}" fill="#91b8c7" stroke="#000000" stroke-width="1.5" stroke-linecap="butt"/></g></g></svg>