<svg xmlns="http://www.w3.org/2000/svg" xmlns:xlink="http://www.w3.org/1999/xlink" width="248.415" height="86.972" version="1.1" viewBox="0 0 248.415 86.972"><g><g fill-rule="nonzero" stroke-dashoffset="0" stroke-linejoin="miter" stroke-miterlimit="10" data-paper-data="{&quot;isPaintingLayer&quot;:true}" transform="translate(-241.35931,-213.7972)" style="mix-blend-mode:normal"><path fill="#ff2e2e" stroke="#000" stroke-linecap="butt" stroke-width="2" d="M249.0812,291.10696l-6.5681,-75.58336l13.7389,7.13831l9.42592,76.41413z" data-paper-data="{&quot;origPos&quot;:null,&quot;origRot&quot;:0,&quot;index&quot;:null}"/><path fill="#ffd499" stroke="#806c4d" stroke-linecap="butt" stroke-width="2" d="M260.53586,289.25842c0,0 -11.70436,-21.72349 -10.16155,-35.67391c1.54283,-13.95045 17.57678,-31.37646 17.57678,-31.37646l63.89303,13.10208l-11.79752,52.64018z" data-paper-data="{&quot;origRot&quot;:0,&quot;origPos&quot;:null,&quot;index&quot;:null}"/><path id="ID0.5423141438513994" fill="#000" stroke="#000" stroke-linecap="round" stroke-width="2.543" d="M460.15428,226.01593c33.8897,-15.54563 37.25798,65.58589 10.8331,65.84546c-37.44829,0.36787 -184.63642,-2.99517 -184.63642,-2.99517c0,0 -5.5111,-21.32139 -3.76393,-34.25596c1.61931,-11.98798 7.20807,-28.72833 7.20807,-28.72833c0,0 146.66959,6.31557 170.35917,0.134z" data-paper-data="{&quot;origPos&quot;:null,&quot;index&quot;:null,&quot;origRot&quot;:0}"/></g></g></svg>