<svg version="1.1" xmlns="http://www.w3.org/2000/svg" xmlns:xlink="http://www.w3.org/1999/xlink" width="494.83612" height="368.61787"><g transform="translate(14.47933,3.93394)"><g data-paper-data="{&quot;isPaintingLayer&quot;:true}" fill-rule="nonzero" stroke-linejoin="miter" stroke-miterlimit="10" stroke-dasharray="" stroke-dashoffset="0" style="mix-blend-mode: normal"><path d="M-0.87369,363.93393v-367.86787h480.48048v367.86787z" data-paper-data="{&quot;origPos&quot;:null}" fill="#00e7e7" stroke="none" stroke-width="NaN" stroke-linecap="butt"/><g data-paper-data="{&quot;origPos&quot;:null,&quot;origRot&quot;:0}"><path d="M220.65957,76.68986c2.08715,-0.68983 3.32401,1.04894 3.32401,1.04894l2.26656,9.03413l-6.36151,1.67673l-2.26656,-9.03413c0,0 0.10132,-2.06343 3.03753,-2.72566z" data-paper-data="{&quot;origRot&quot;:0,&quot;origPos&quot;:null,&quot;index&quot;:null}" fill="#ffd499" stroke="#806c4d" stroke-width="2" stroke-linecap="butt"/><path d="M245.12217,131.03901c0,0 -2.50941,1.65518 -3.61258,1.11559c-3.30946,-1.61874 -9.40252,-12.58365 -13.40014,-21.78514c-3.99761,-9.20148 -9.99248,-27.10105 -9.99248,-27.10105c0,0 2.0793,-0.74598 3.44475,-1.12529c1.35936,-0.37761 3.53722,-0.8142 3.53722,-0.8142c0,0 3.75341,14.33811 8.15926,25.53611c4.40585,11.19801 8.52879,14.76658 8.52879,14.76658z" data-paper-data="{&quot;origPos&quot;:null,&quot;index&quot;:null,&quot;origRot&quot;:0}" id="ID0.5423141438513994" fill="#7e7e7e" stroke="#000000" stroke-width="2.54325" stroke-linecap="round"/><path d="M220.28751,21.10702c0,0 9.11679,17.46849 12.22397,29.83801c1.96557,7.82487 -1.97808,21.88108 2.07382,20.85613c5.50604,-1.50136 9.3545,-14.1815 8.14649,-22.9041c-1.64639,-11.88799 -13.4984,-29.46456 -13.4984,-29.46456l7.51709,-1.47082c0,0 10.89802,17.78793 12.7416,29.6763c1.72405,11.11755 -3.59999,29.27352 -3.59999,29.27352l-20.75995,4.26135c0,0 0.85152,-17.55921 -1.36507,-28.2548c-2.5457,-12.28367 -10.83769,-30.6267 -10.83769,-30.6267z" data-paper-data="{&quot;origPos&quot;:null,&quot;index&quot;:null}" fill="#4232a1" stroke="#000000" stroke-width="2.5" stroke-linecap="butt"/><path d="M250.36475,66.90019c2.70292,-1.32445 4.07523,0.21983 4.07523,0.21983l3.8966,8.45987l-6.00773,2.68096l-3.8966,-8.45987c0,0 -0.12615,-2.13007 1.93251,-2.9008z" data-paper-data="{&quot;origRot&quot;:0,&quot;origPos&quot;:null,&quot;index&quot;:null}" fill="#ffd499" stroke="#806c4d" stroke-width="2" stroke-linecap="butt"/><path d="M262.07256,115.16051c0,0 -1.26167,-7.04485 -4.84772,-18.53167c-3.58605,-11.48682 -7.41132,-23.33137 -7.41132,-23.33137c0,0 1.97059,-1.02491 3.26646,-1.58274c1.30167,-0.56033 3.3894,-1.2824 3.3894,-1.2824c0,0 4.31111,16.02451 6.96381,25.69981c2.65269,9.6753 7.01535,23.71808 5.45135,27.05375c-0.52134,1.1119 -3.5141,1.39514 -3.5141,1.39514z" data-paper-data="{&quot;origPos&quot;:null,&quot;index&quot;:null,&quot;origRot&quot;:0}" id="ID0.5423141438513994" fill="#7e7e7e" stroke="#000000" stroke-width="2.54325" stroke-linecap="round"/><path d="M246.73028,72.85971l18.15571,51.53465l-20.47583,7.21365l-18.15571,-51.53465z" data-paper-data="{&quot;origPos&quot;:null,&quot;origRot&quot;:0}" fill="#7e7e7e" stroke="#000000" stroke-width="2.54325" stroke-linecap="butt"/><path d="M225.26412,9.26536l2.13162,4.4623c0,0 -3.0519,5.36726 -5.78945,7.55174c-2.94835,2.35272 -8.35939,4.95469 -8.35939,4.95469l-4.3671,-9.14197z" data-paper-data="{&quot;origPos&quot;:null,&quot;index&quot;:null,&quot;origRot&quot;:0}" fill="#666666" stroke="#000000" stroke-width="2.54325" stroke-linecap="butt"/><path d="M242.05964,5.13846l2.59943,3.91738c0,0 -2.13706,5.94431 -4.54247,8.48994c-2.59063,2.74163 -7.58497,6.07424 -7.58497,6.07424l-5.60179,-8.44197z" data-paper-data="{&quot;origPos&quot;:null,&quot;index&quot;:null,&quot;origRot&quot;:0}" fill="#666666" stroke="#000000" stroke-width="2.54325" stroke-linecap="butt"/><path d="M259.32307,125.21576l-4.27711,-12.40895" data-paper-data="{&quot;origPos&quot;:null,&quot;origRot&quot;:0}" fill="none" stroke="#3b3b3b" stroke-width="5" stroke-linecap="round"/><path d="M249.49908,128.64089l-5.64676,-16.56502" data-paper-data="{&quot;origPos&quot;:null,&quot;origRot&quot;:0}" fill="none" stroke="#3b3b3b" stroke-width="5" stroke-linecap="round"/><path d="M272.59023,161.91279c-4.90334,2.53685 -10.36225,2.8744 -15.22054,1.3704c-4.85855,-1.50438 -8.53108,-6.81428 -11.03159,-11.64341c-2.50049,-4.82908 -2.31921,-9.37271 -0.74257,-14.20654c1.57685,-4.83335 5.6553,-8.88552 8.86741,-10.52891c3.21217,-1.64345 9.32176,-1.77299 14.18003,-0.26899c4.62912,1.4334 7.60311,4.71976 9.85921,8.40054c3.27445,5.3422 5.57267,10.41274 3.99604,15.2465c-1.57684,4.83334 -5.00458,9.09351 -9.908,11.6304z" data-paper-data="{&quot;origPos&quot;:null,&quot;origRot&quot;:0}" id="ID0.7719937418587506" fill="#ffd499" stroke="#806c4d" stroke-width="2.5" stroke-linecap="butt"/><path d="M242.48796,121.31744l2.94509,8.82005l-2.66163,1.19373l-3.29002,-9.33863z" data-paper-data="{&quot;origPos&quot;:null,&quot;origRot&quot;:0}" fill="#7e7e7e" stroke="none" stroke-width="0" stroke-linecap="butt"/><path d="M263.01732,114.08881l3.22,9.13993l-2.82042,0.74304l-3.16799,-8.53177z" data-paper-data="{&quot;origPos&quot;:null,&quot;index&quot;:null,&quot;origRot&quot;:0}" fill="#7e7e7e" stroke="none" stroke-width="0" stroke-linecap="butt"/><path d="M247.245,89.09276c0,0 -0.60761,-0.01164 -1.43186,-3.02277c-0.6338,-2.31534 -0.41687,-2.52837 -0.41687,-2.52837" data-paper-data="{&quot;origPos&quot;:null,&quot;origRot&quot;:0}" fill="none" stroke="#616161" stroke-width="5" stroke-linecap="round"/><path d="M234.58463,87.13673c0,0 0.30255,0.03 1.25998,2.23133c1.24514,2.86284 0.77902,3.25276 0.77902,3.25276" data-paper-data="{&quot;origPos&quot;:null,&quot;index&quot;:null,&quot;origRot&quot;:0}" fill="none" stroke="#616161" stroke-width="5" stroke-linecap="round"/><path d="M251.56612,140.64291c0,0 1.43338,2.61785 2.28178,4.32988c0.46602,0.94038 1.21324,2.28917 1.21324,2.28917" data-paper-data="{&quot;origPos&quot;:null,&quot;origRot&quot;:0}" id="ID0.21129454905167222" fill="none" stroke="#000000" stroke-width="2.5" stroke-linecap="round"/><path d="M247.57395,159.96072l2.47605,-7.25496l6.34602,3.98501l3.00224,-8.35906l6.2224,2.64837l3.78717,-7.745l4.71113,3.64153l8.18733,-9.76837l1.25163,9.01589l3.09125,-1.63304l-3.33382,10.52969l1.80822,1.08394l-7.5646,7.66674l0.89174,0.75243l-10.44297,4.08934l0.1189,1.1607l-8.50602,-0.19659l-1.09976,1.19274l-7.23294,-4.33576l-1.73884,0.91859z" data-paper-data="{&quot;origPos&quot;:null,&quot;index&quot;:null,&quot;origRot&quot;:0}" fill="#2400ea" stroke="#000000" stroke-width="3" stroke-linecap="round"/><path d="M269.9903,132.64947c0,0 1.43338,2.61785 2.28178,4.32988c0.46602,0.94038 1.21324,2.28917 1.21324,2.28917" data-paper-data="{&quot;origPos&quot;:null,&quot;origRot&quot;:0}" id="ID0.21129454905167222" fill="none" stroke="#000000" stroke-width="2.5" stroke-linecap="round"/><path d="M264.2206,138.08452l-3.6618,1.93445" data-paper-data="{&quot;origPos&quot;:null,&quot;origRot&quot;:0}" fill="none" stroke="#000000" stroke-width="2" stroke-linecap="round"/></g><path d="M-2.37519,363.93393v-91.59159h481.98198v91.59159z" data-paper-data="{&quot;origPos&quot;:null}" fill="#31c700" stroke="#000000" stroke-width="1.5" stroke-linecap="butt"/><path d="M-3.75938,291.84963v-294.29429h79.57958v294.29429z" fill="#dde983" stroke="#000000" stroke-width="1.5" stroke-linecap="butt"/><path d="M-12.76839,186.74452v-131.33133h61.56156v131.33133z" data-paper-data="{&quot;origPos&quot;:null}" fill="#91b8c7" stroke="#000000" stroke-width="3" stroke-linecap="butt"/><path d="M-12.72933,119.75h60.5" data-paper-data="{&quot;origPos&quot;:null}" fill="none" stroke="#000000" stroke-width="3.5" stroke-linecap="round"/><path d="M16.27067,55l-0.5,130" data-paper-data="{&quot;origPos&quot;:null}" fill="none" stroke="#000000" stroke-width="3.5" stroke-linecap="round"/><path d="M249.96444,150.29683l-8.51895,19.48263l1.41228,12.64324l-9.10205,-7.46286z" data-paper-data="{&quot;origPos&quot;:null,&quot;origRot&quot;:0}" fill="#91b8c7" stroke="#000000" stroke-width="1.5" stroke-linecap="butt"/><path d="M188.0083,192.79562l6.88967,3.24538l7.1016,-2.75087l-0.40621,11.49282l-6.46062,-1.22897z" data-paper-data="{&quot;origPos&quot;:null,&quot;origRot&quot;:0}" fill="#91b8c7" stroke="#000000" stroke-width="1.5" stroke-linecap="butt"/><path d="M228.48828,113.57623l4.37337,-7.68919l7.37428,-5.8198l3.90611,5.76561l-6.25987,2.71324z" data-paper-data="{&quot;origPos&quot;:null,&quot;origRot&quot;:0}" fill="#91b8c7" stroke="#000000" stroke-width="1.5" stroke-linecap="butt"/><path d="M187.9338,96.37163l-8.082,-7.15411l2.44795,-7.76257l5.52733,2.38718l-0.68223,4.23581z" data-paper-data="{&quot;origPos&quot;:null,&quot;origRot&quot;:0}" fill="#91b8c7" stroke="#000000" stroke-width="1.5" stroke-linecap="butt"/><path d="M194.60439,49.91374l4.27736,-1.53866l3.41502,-4.23432l3.63992,2.59826l0.20567,4.66024l-4.43704,1.54242z" data-paper-data="{&quot;origPos&quot;:null,&quot;origRot&quot;:0}" fill="#91b8c7" stroke="#000000" stroke-width="1.5" stroke-linecap="butt"/></g></g></svg>