<svg version="1.1" xmlns="http://www.w3.org/2000/svg" xmlns:xlink="http://www.w3.org/1999/xlink" width="27.48286" height="11.65521" viewBox="0,0,27.48286,11.65521"><g transform="translate(-227.26714,-174.23898)"><g data-paper-data="{&quot;isPaintingLayer&quot;:true}" fill="none" fill-rule="nonzero" stroke="#000000" stroke-width="none" stroke-linecap="butt" stroke-linejoin="miter" stroke-miterlimit="10" stroke-dasharray="" stroke-dashoffset="0" font-family="none" font-weight="none" font-size="none" text-anchor="none" style="mix-blend-mode: normal"><path d="M253.75,180.53144c0,3.19139 -5.12067,4.36275 -12.3625,4.36275c-7.24183,0 -12.9875,-3.32347 -12.7375,-6.59679c0.40263,-5.2717 7.31504,-2.12871 12.7375,-2.12871c7.24183,0 12.3625,1.84157 12.3625,4.36275z" data-paper-data="{&quot;origPos&quot;:null}" fill="#000000" stroke-width="2"/><path d="M228.5125,176.38437l2.875,-1.82898l19.75,2.48219l2,1.82898l-18.90858,-0.7792z" data-paper-data="{&quot;origPos&quot;:null}" fill="#ffffff" stroke-width="0"/><path d="M253.5125,182.83382l-2.875,2.22158l-15.375,-0.12343l-5.75,-3.82605c0,0 3.1641,1.19718 5.02928,1.33146c5.59552,0.40285 18.97072,0.39644 18.97072,0.39644z" data-paper-data="{&quot;origPos&quot;:null,&quot;index&quot;:null}" fill="#ffffff" stroke-width="0"/><path d="M253.375,180.53144c0,3.19139 -5.12067,4.36275 -12.3625,4.36275c-7.24183,0 -12.9875,-3.32347 -12.7375,-6.59679c0.40263,-5.2717 7.31504,-2.12871 12.7375,-2.12871c7.24183,0 12.3625,1.84157 12.3625,4.36275z" data-paper-data="{&quot;origPos&quot;:null}" fill="none" stroke-width="2"/></g></g></svg>