<svg xmlns="http://www.w3.org/2000/svg" xmlns:xlink="http://www.w3.org/1999/xlink" width="129.677" height="305.79" version="1.1" viewBox="0 0 129.677 305.79"><defs><radialGradient id="color-1" cx="228.189" cy="146.165" r="97.283" gradientUnits="userSpaceOnUse"><stop offset="0" stop-color="#0ff"/><stop offset="1" stop-color="#003fff"/></radialGradient><linearGradient id="color-2" x1="237.349" x2="259.912" y1="190.146" y2="188.943" gradientUnits="userSpaceOnUse"><stop offset="0" stop-color="#3b3b3b"/><stop offset="1" stop-color="#000"/></linearGradient><linearGradient id="color-3" x1="191.877" x2="240.257" y1="190.471" y2="196.342" gradientUnits="userSpaceOnUse"><stop offset="0" stop-color="#000"/><stop offset="1" stop-color="#3b3b3b"/></linearGradient><radialGradient id="color-4" cx="210.141" cy="66.733" r="51.995" gradientUnits="userSpaceOnUse"><stop offset="0" stop-color="#b6b6b6"/><stop offset="1" stop-color="#666"/></radialGradient><radialGradient id="color-5" cx="218.392" cy="72.694" r="15.718" gradientUnits="userSpaceOnUse"><stop offset="0" stop-color="red"/><stop offset="1" stop-color="red" stop-opacity="0"/></radialGradient><radialGradient id="color-6" cx="219.071" cy="74.601" r="10.271" gradientUnits="userSpaceOnUse"><stop offset="0" stop-color="red"/><stop offset="1" stop-color="#d20000"/></radialGradient><linearGradient id="color-7" x1="179.41" x2="298.885" y1=".871" y2="8.15" gradientUnits="userSpaceOnUse"><stop offset="0" stop-color="#c70"/><stop offset="1" stop-color="#946f48"/></linearGradient></defs><g><g fill-rule="nonzero" stroke-dashoffset="0" stroke-linejoin="miter" stroke-miterlimit="10" data-paper-data="{&quot;isPaintingLayer&quot;:true}" transform="translate(-175.85646,-0.83185)" style="mix-blend-mode:normal"><path fill="#333" stroke="#000" stroke-linecap="butt" stroke-width="2.5" d="M253.49583,252.1683c0,0 12.01633,16.33213 19.70641,27.10625c6.50463,9.11326 8.27077,16.04239 13.66147,25.85576c0.00903,0.01644 -20.64116,-0.23499 -20.64116,-0.23499c0,0 -8.4037,-33.72999 -24.98379,-34.50375c-4.14908,-0.40375 -2.66758,11.16246 -0.97379,14.97151c3.42702,7.70677 9.21535,19.67344 9.21535,19.67344l-21.37171,0.32228c0,0 -4.60033,-11.19467 -9.25158,-18.35983c-4.62027,-7.11743 -10.75553,-31.48753 -10.75553,-31.48753z" data-paper-data="{&quot;origPos&quot;:null,&quot;index&quot;:null}"/><path id="ID0.9171315478160977" fill="url(#color-1)" stroke="#000" stroke-linecap="butt" stroke-width="2.543" d="M201.69552,117.84635l51.10673,-2.08259l6.75696,137.18708l-50.2779,2.03837z" data-paper-data="{&quot;origPos&quot;:null,&quot;index&quot;:null,&quot;origRot&quot;:0}"/><g stroke="#000" stroke-linecap="butt" stroke-width="0" data-paper-data="{&quot;origPos&quot;:null,&quot;index&quot;:null,&quot;origRot&quot;:0}"><path fill="#ffde00" d="M231.7559,192.00271l-4.54193,0.316l5.48431,-20.91642l-5.06556,0.81009l4.12435,-17.26044l16.20716,-1.3806l-5.03002,13.17772l3.47048,-0.37672l-5.58928,19.99442l3.05191,0.11505l-17.44954,31.7531z" data-paper-data="{&quot;index&quot;:null,&quot;origPos&quot;:null}"/><path fill="red" d="M230.21923,188.98639l-4.54193,0.316l5.48433,-20.91642l-5.06556,0.81009l4.12436,-17.26044l16.20716,-1.3806l-5.03002,13.17772l3.47048,-0.37672l-5.58927,19.99442l3.05191,0.11505l-16.06386,31.93744z" data-paper-data="{&quot;index&quot;:null,&quot;origPos&quot;:null}"/><path fill="#000" d="M227.46163,188.87526l-4.54195,0.316l5.48433,-20.91642l-5.06556,0.81009l4.12436,-17.26044l16.20716,-1.3806l-5.03002,13.17772l3.47048,-0.37673l-5.58927,19.99442l3.0519,0.11505l-13.40233,30.24637z" data-paper-data="{&quot;index&quot;:null,&quot;origPos&quot;:null}"/></g><path id="ID0.5423141438513994" fill="url(#color-2)" stroke="#000" stroke-linecap="round" stroke-width="2.543" d="M233.8804,125.08972c0,0 6.23455,-3.49121 10.21791,-5.8584c3.98925,-2.37069 10.31035,-4.4169 10.31035,-4.4169c0,0 1.7599,20.93272 1.90369,23.53653c1.64483,29.77701 7.5214,124.13177 7.5214,124.13177l-20.29341,2.06665z" data-paper-data="{&quot;origPos&quot;:null,&quot;index&quot;:null,&quot;origRot&quot;:0}"/><path id="ID0.5423141438513994" fill="url(#color-3)" stroke="#000" stroke-linecap="round" stroke-width="2.543" d="M231.81344,265.91226l-25.2107,-0.15473c0,0 -3.76361,-94.02123 -5.29582,-123.80424c-0.13398,-2.60437 -0.63925,-23.91568 -0.63925,-23.91568c0,0 6.89881,1.55342 11.36036,3.40978c3.78613,1.57532 14.04593,4.35793 14.04593,4.35793z" data-paper-data="{&quot;origPos&quot;:null,&quot;index&quot;:null,&quot;origRot&quot;:0}"/><path fill="#1f1f1f" stroke="#000" stroke-linecap="butt" stroke-width="0" d="M249.24018,243.17215c-2.041,0.35257 -5.28146,0.03172 -5.28146,0.03172l-1.77567,-23.80417c0,0 1.44102,0.17061 2.34125,-0.09215c1.05681,-0.30843 2.67356,-1.37148 2.67356,-1.37148l7.04096,23.492c0,0 -3.02769,1.4036 -4.99862,1.74406z" data-paper-data="{&quot;origPos&quot;:null,&quot;index&quot;:null,&quot;origRot&quot;:0}"/><path fill="none" stroke="#000" stroke-linecap="round" stroke-width="2.543" d="M246.5935,218.88889c0,0 2.66701,6.32822 3.95925,10.27859c1.50889,4.61258 3.21831,11.66289 3.21831,11.66289" data-paper-data="{&quot;origPos&quot;:null,&quot;origRot&quot;:0,&quot;index&quot;:null}"/><path fill="#1f1f1f" stroke="#000" stroke-linecap="butt" stroke-width="0" d="M218.85169,243.79544l4.21585,-24.15939c0,0 1.73101,0.86455 2.81688,1.04598c0.925,0.15453 2.33577,-0.18512 2.33577,-0.18512l1.04945,23.84721c0,0 -3.17984,0.70148 -5.24821,0.59254c-1.99737,-0.1052 -5.16968,-1.14121 -5.16968,-1.14121z" data-paper-data="{&quot;origPos&quot;:null,&quot;origRot&quot;:0}"/><path fill="none" stroke="#000" stroke-linecap="round" stroke-width="2.543" d="M218.32057,242.90991c0,0 1.21422,-7.44884 2.1675,-12.20738c0.81642,-4.07539 2.36718,-10.42848 2.36718,-10.42848" data-paper-data="{&quot;origPos&quot;:null,&quot;origRot&quot;:0}"/><path fill="#ffd499" stroke="#806c4d" stroke-linecap="butt" stroke-width="2" d="M259.78778,246.42738l7.22226,-14.72597l13.78531,7.6877l-6.23911,14.70091c0,0 -4.89467,1.95094 -9.89259,-0.70901c-4.46841,-2.37812 -4.87586,-6.95364 -4.87586,-6.95364z" data-paper-data="{&quot;origRot&quot;:0,&quot;origPos&quot;:null,&quot;index&quot;:null}"/><path id="ID0.5423141438513994" fill="#000" stroke="#000" stroke-linecap="round" stroke-width="2.543" d="M254.69092,118.22752c0,0 7.19857,-2.6526 9.62572,-0.66996c7.28146,5.94798 17.21447,42.18951 21.7936,67.3796c6.72156,31.04761 -7.25739,61.73243 -7.25739,61.73243c0,0 -5.58785,-2.58344 -9.15695,-4.66361c-3.00867,-1.75355 -7.69777,-5.1598 -7.69777,-5.1598c0,0 12.53321,-21.27467 8.10145,-51.66329c-4.43181,-30.38863 -12.59526,-41.63914 -12.59526,-41.63914z" data-paper-data="{&quot;origPos&quot;:null,&quot;index&quot;:null,&quot;origRot&quot;:0}"/><g stroke="#000" data-paper-data="{&quot;origRot&quot;:0,&quot;origPos&quot;:null}"><path fill="#fff" stroke-linecap="butt" stroke-width="1" d="M255.94924,207.10118l-8.00759,-2.92478l11.67514,-31.96476l8.00759,2.92478z" data-paper-data="{&quot;origPos&quot;:null}"/><path fill="#fff" stroke-linecap="butt" stroke-width="1" d="M251.80693,211.16762l-8.33362,-3.00666l5.00001,-4.19955l7.40139,3.03811z" data-paper-data="{&quot;origPos&quot;:null}"/><path fill="#fff" stroke-linecap="butt" stroke-width="1" d="M248.11787,203.60842l-4.54809,3.88103l11.72204,-31.12932l3.9747,-3.49531z" data-paper-data="{&quot;origPos&quot;:null}"/><path fill="#ff2e2e" stroke-linecap="butt" stroke-width="0" d="M254.87202,204.7549l-4.85708,-1.77404l10.40452,-28.48607l4.85708,1.77404z" data-paper-data="{&quot;origPos&quot;:null}"/><path fill="#ff2e2e" stroke-linecap="butt" stroke-width="0" d="M247.15225,202.97675l-0.83045,0.44059l9.52893,-25.6814l0.89096,-1.01365z" data-paper-data="{&quot;origPos&quot;:null}"/><path fill="none" stroke-linecap="round" stroke-width=".5" d="M251.85816,205.93523l-3.37213,3.52944" data-paper-data="{&quot;origPos&quot;:null}"/></g><path fill="#ffd499" stroke="#806c4d" stroke-linecap="butt" stroke-width="2" d="M223.4239,204.09886l-3.58157,-14.46594l25.18001,-14.12791c0,0 7.25424,6.51693 8.66228,11.67357c2.17734,7.97414 -2.23664,14.82487 -2.23664,14.82487z" data-paper-data="{&quot;origRot&quot;:0,&quot;origPos&quot;:null,&quot;index&quot;:null}"/><path id="ID0.5423141438513994" fill="#000" stroke="#000" stroke-linecap="round" stroke-width="2.543" d="M208.75625,142.26561c0,0 -7.49553,30.55579 -1.75608,45.84301c3.73947,6.78723 31.66469,-13.13729 31.66469,-13.13729c0,0 3.87567,7.98276 5.03603,16.11144c1.16036,8.12868 0.47706,14.00962 0.47706,14.00962c0,0 -43.78733,2.60698 -51.95773,-5.90879c-5.76534,-6.00904 -8.92153,-61.52738 -0.90959,-77.34684c1.32198,-2.84157 8.95741,-3.58727 8.95741,-3.58727z" data-paper-data="{&quot;origPos&quot;:null,&quot;index&quot;:null,&quot;origRot&quot;:0}"/><g data-paper-data="{&quot;origPos&quot;:null,&quot;origRot&quot;:0}"><path id="ID0.7719937418587506" fill="#ffd499" stroke="#806c4d" stroke-linecap="butt" stroke-width="2.5" d="M234.03816,21.80335c14.06334,0.85437 26.46344,7.25464 35.13636,16.90466c8.67291,9.65116 8.5481,23.85795 6.42586,39.70723c-1.46223,10.92019 -5.00722,21.66154 -14.32882,29.78879c-9.78345,8.52876 -24.17449,14.53817 -33.3682,14.02149c-9.19352,-0.51662 -22.89716,-5.75933 -31.57012,-15.40933c-8.67302,-9.65132 -13.79001,-20.067 -12.94378,-33.91928c0.84626,-13.85238 3.93085,-30.03752 13.71453,-38.56742c9.78348,-8.52879 22.87094,-13.38059 36.93414,-12.52621z" data-paper-data="{&quot;origPos&quot;:null,&quot;origRot&quot;:0}"/><path id="ID0.479907026514411" fill="url(#color-4)" stroke="#666" stroke-linecap="round" stroke-width="2.5" d="M237.02705,24.72719c5.2759,0.51418 2.74875,10.38335 2.71985,15.6839c-0.0666,12.00539 2.50288,25.94864 -3.06936,36.97504c-4.72864,8.54749 -14.42439,14.30127 -23.87504,16.51387c-10.22116,1.99094 -20.7578,2.06732 -24.57391,-3.67621c-6.08459,-17.05524 -0.43884,-40.89723 11.34819,-55.05051c10.28736,-11.52319 22.10763,-11.93456 37.45021,-10.4461z" data-paper-data="{&quot;origPos&quot;:null,&quot;origRot&quot;:0}"/><path id="ID0.21129454905167222" fill="none" stroke="#000" stroke-linecap="round" stroke-width="2.5" d="M255.35763,69.02512c-0.21118,4.87166 -1.24506,15.39562 -1.24506,15.39562" data-paper-data="{&quot;origPos&quot;:null,&quot;origRot&quot;:0}"/><path fill="none" stroke="#000" stroke-linecap="round" stroke-width="2" d="M224.49416,104.28454l14.23664,0.98734" data-paper-data="{&quot;origPos&quot;:null,&quot;index&quot;:null,&quot;origRot&quot;:0}"/><path fill="url(#color-5)" stroke="none" stroke-linecap="butt" stroke-width="0" d="M202.71135,71.60658c0.60063,-8.66014 8.10795,-15.19372 16.76809,-14.59312c8.66016,0.60063 15.19372,8.10795 14.59312,16.76809c-0.60063,8.66014 -8.10795,15.19372 -16.76809,14.59312c-8.66016,-0.60063 -15.19372,-8.10795 -14.59312,-16.76809z" data-paper-data="{&quot;origPos&quot;:null,&quot;origRot&quot;:0}"/><path fill="url(#color-6)" stroke="#666" stroke-linecap="butt" stroke-width="2" d="M207.97917,72.12793c0.39247,-5.65911 5.29826,-9.92857 10.95736,-9.53609c5.65911,0.39247 9.92857,5.29826 9.53609,10.95736c-0.39247,5.65911 -5.29826,9.92857 -10.95736,9.53609c-5.65911,-0.39247 -9.92857,-5.29826 -9.53609,-10.95736z" data-paper-data="{&quot;origPos&quot;:null,&quot;origRot&quot;:0}"/><path fill="#7a7a7a" stroke="none" stroke-linecap="butt" stroke-width="0" d="M186.97092,91.71972c0,0 4.75656,-20.98303 9.60805,-34.55414c3.20828,-8.97461 11.01543,-22.80252 11.01543,-22.80252l30.58385,8.81947l0.15243,4.53256c0,0 -8.5325,-1.44565 -13.23617,-2.25874c-4.34663,-0.75137 -8.5439,-3.99931 -12.39915,-1.8557c-7.05979,3.9254 -7.59207,12.1083 -10.36463,19.69523c-3.74599,10.25057 -7.22644,29.55033 -7.22644,29.55033z" data-paper-data="{&quot;origRot&quot;:0,&quot;origPos&quot;:null}"/><path fill="#b0936a" stroke="none" stroke-linecap="butt" stroke-width="0" d="M241.1051,47.89625l0.05309,-4.36434l31.22895,2.29612c0,0 -6.66977,2.62214 -13.2825,2.57324c-6.66206,-0.04931 -17.75058,-0.48227 -17.75058,-0.48227z" data-paper-data="{&quot;origPos&quot;:null,&quot;origRot&quot;:0}"/><path fill="#b0936a" stroke="none" stroke-linecap="butt" stroke-width="0" d="M188.94363,94.0882l5.06773,1.39782l-0.99711,5.62663z" data-paper-data="{&quot;origPos&quot;:null,&quot;origRot&quot;:0}"/><path id="ID0.5302143599838018" fill="url(#color-7)" stroke="#a96300" stroke-linecap="round" stroke-width="3.5" d="M242.55233,4.71788c13.20068,1.01895 20.54273,2.65372 33.67922,4.30577c7.60633,0.95659 22.62485,2.15021 22.62485,2.15021c0,0 -9.92542,4.69904 -11.74511,5.04927c-3.37506,0.64961 -9.42772,2.30828 -9.42772,2.30828c0,0 4.5797,1.51603 7.78066,3.00079c3.44135,1.59627 8.78666,3.23827 8.78666,3.23827c0,0 -5.62676,1.94462 -9.14251,2.58489c-4.39196,0.79984 -10.40273,2.97365 -10.40273,2.97365c0,0 6.56181,4.00766 11.64875,5.50869c5.11564,1.50948 11.75763,4.40872 11.75763,4.40872c0,0 -9.95291,4.57987 -16.23136,5.07608c-15.83659,1.25353 -31.72692,-2.48973 -47.58154,-3.43784c-9.66543,-0.57925 -23.40345,-8.23503 -28.86855,0.0379c-14.30585,20.40326 -17.42766,74.41685 -21.05847,72.37993c-3.63099,-2.03707 -10.50131,-59.44103 -4.21781,-88.22269c2.43003,-11.12291 13.21259,-16.91612 26.51024,-21.36177c13.29763,-4.4456 24.13607,-0.68149 35.88781,-0.00025z" data-paper-data="{&quot;origPos&quot;:null,&quot;origRot&quot;:0}"/></g></g></g></svg>