<svg version="1.1" xmlns="http://www.w3.org/2000/svg" xmlns:xlink="http://www.w3.org/1999/xlink" width="130.04265" height="304.88194" viewBox="0,0,130.04265,304.88194"><defs><radialGradient cx="231.79897" cy="146.83322" r="97.28323" gradientUnits="userSpaceOnUse" id="color-1"><stop offset="0" stop-color="#00ffff"/><stop offset="1" stop-color="#003fff"/></radialGradient><linearGradient x1="239.46433" y1="191.09959" x2="262.05516" y2="190.66123" gradientUnits="userSpaceOnUse" id="color-2"><stop offset="0" stop-color="#3b3b3b"/><stop offset="1" stop-color="#000000"/></linearGradient><linearGradient x1="194.00699" y1="189.88414" x2="242.16019" y2="197.39065" gradientUnits="userSpaceOnUse" id="color-3"><stop offset="0" stop-color="#000000"/><stop offset="1" stop-color="#3b3b3b"/></linearGradient><radialGradient cx="216.87288" cy="67.56227" r="51.99462" gradientUnits="userSpaceOnUse" id="color-4"><stop offset="0" stop-color="#b6b6b6"/><stop offset="1" stop-color="#666666"/></radialGradient><radialGradient cx="224.99285" cy="76.08558" r="15.71829" gradientUnits="userSpaceOnUse" id="color-5"><stop offset="0" stop-color="#ff0000"/><stop offset="1" stop-color="#ff0000" stop-opacity="0"/></radialGradient><radialGradient cx="225.65743" cy="77.9978" r="10.27134" gradientUnits="userSpaceOnUse" id="color-6"><stop offset="0" stop-color="#ff0000"/><stop offset="1" stop-color="#d20000"/></radialGradient><linearGradient x1="186.65437" y1="1.4635" x2="306.06953" y2="9.66973" gradientUnits="userSpaceOnUse" id="color-7"><stop offset="0" stop-color="#cc7700"/><stop offset="1" stop-color="#946f48"/></linearGradient></defs><g transform="translate(-182.66081,-1.73956)"><g data-paper-data="{&quot;isPaintingLayer&quot;:true}" fill-rule="nonzero" stroke-linejoin="miter" stroke-miterlimit="10" stroke-dasharray="" stroke-dashoffset="0" style="mix-blend-mode: normal"><path d="M253.49584,252.1683c0,0 12.01633,16.33213 19.70641,27.10625c6.50463,9.11326 8.27077,16.04239 13.66147,25.85576c0.00903,0.01644 -20.64116,-0.23499 -20.64116,-0.23499c0,0 -8.4037,-33.72999 -24.98379,-34.50375c-4.14908,-0.40375 -2.66758,11.16246 -0.97379,14.97151c3.42702,7.70677 9.21535,19.67344 9.21535,19.67344l-21.37171,0.32228c0,0 -4.60033,-11.19467 -9.25158,-18.35983c-4.62027,-7.11743 -10.75553,-31.48753 -10.75553,-31.48753z" data-paper-data="{&quot;origPos&quot;:null,&quot;index&quot;:null}" fill="#333333" stroke="#000000" stroke-width="2.5" stroke-linecap="butt"/><path d="M206.27927,117.63411l51.14794,-0.35073l2.10743,137.33721l-50.31809,0.33461z" data-paper-data="{&quot;origPos&quot;:null,&quot;index&quot;:null,&quot;origRot&quot;:0}" id="ID0.9171315478160977" fill="url(#color-1)" stroke="#000000" stroke-width="2.54325" stroke-linecap="butt"/><g data-paper-data="{&quot;origPos&quot;:null,&quot;index&quot;:null,&quot;origRot&quot;:0}" stroke="#000000" stroke-width="0" stroke-linecap="butt"><path d="M233.8112,192.76589l-4.55003,0.16201l6.18947,-20.7187l-5.09009,0.63809l4.70649,-17.11087l16.24462,-0.83097l-5.47338,12.99983l3.48125,-0.25898l-6.26316,19.79368l3.04626,0.21833l-18.51481,31.14398z" data-paper-data="{&quot;index&quot;:null,&quot;origPos&quot;:null}" fill="#ffde00"/><path d="M232.37755,189.69927l-4.55003,0.16201l6.18949,-20.7187l-5.09009,0.63809l4.7065,-17.11087l16.24462,-0.83097l-5.47338,12.99983l3.48125,-0.25898l-6.26315,19.79368l3.04626,0.21833l-17.13617,31.37514z" data-paper-data="{&quot;index&quot;:null,&quot;origPos&quot;:null}" fill="#ff0000"/><path d="M229.6253,189.49482l-4.55005,0.16201l6.18949,-20.7187l-5.09009,0.63809l4.7065,-17.11087l16.24462,-0.83097l-5.47338,12.99983l3.48125,-0.25899l-6.26315,19.79368l3.04625,0.21833l-14.4189,29.77517z" data-paper-data="{&quot;index&quot;:null,&quot;origPos&quot;:null}" fill="#000000"/></g><path d="M238.2004,125.96322c0,0 6.3492,-3.27808 10.41044,-5.50902c4.06724,-2.23424 10.45401,-4.06522 10.45401,-4.06522c0,0 1.05003,20.98031 1.10556,23.5875c0.63553,29.81563 3.31353,124.31528 3.31353,124.31528l-20.35176,1.37826z" data-paper-data="{&quot;origPos&quot;:null,&quot;index&quot;:null,&quot;origRot&quot;:0}" id="ID0.5423141438513994" fill="url(#color-2)" stroke="#000000" stroke-width="2.54325" stroke-linecap="round"/><path d="M231.36585,266.635l-25.191,-1.00837c0,0 -0.57755,-94.09475 -1.10032,-123.91257c-0.04571,-2.60741 0.17099,-23.92361 0.17099,-23.92361c0,0 6.84225,1.78615 11.23838,3.79253c3.73061,1.70263 13.8903,4.83108 13.8903,4.83108z" data-paper-data="{&quot;origPos&quot;:null,&quot;index&quot;:null,&quot;origRot&quot;:0}" id="ID0.5423141438513994" fill="url(#color-3)" stroke="#000000" stroke-width="2.54325" stroke-linecap="round"/><path d="M241.11843,22.8193c14.05628,0.96355 26.4063,7.45991 35.00403,17.17699c8.59771,9.71821 8.36258,23.92361 6.11733,39.75593c-1.54698,10.90851 -5.17528,21.62201 -14.5597,29.67663c-9.84938,8.45253 -24.28665,14.35001 -33.47607,13.76196c-9.18923,-0.588 -22.85175,-5.93696 -31.44951,-15.65401c-8.59781,-9.71838 -13.63377,-20.17348 -12.68,-34.01877c0.9538,-13.84539 4.16397,-30.00609 14.0136,-38.45976c9.84941,-8.45256 22.97415,-13.20259 37.0303,-12.23903z" data-paper-data="{&quot;origPos&quot;:null,&quot;origRot&quot;:0}" id="ID0.7719937418587506" fill="#ffd499" stroke="#806c4d" stroke-width="2.5" stroke-linecap="butt"/><path d="M244.08452,25.76626c5.27174,0.55513 2.66804,10.40438 2.59798,15.70454c-0.15982,12.00451 2.30131,25.96729 -3.35639,36.95009c-4.79487,8.51051 -14.53501,14.18883 -24.00255,16.32798c-10.23631,1.91151 -20.77323,1.90607 -24.54462,-3.86692c-5.95197,-17.10197 -0.12126,-40.8994 11.77533,-54.96073c10.37653,-11.44296 22.19963,-11.76252 37.5302,-10.15497z" data-paper-data="{&quot;origPos&quot;:null,&quot;origRot&quot;:0}" id="ID0.479907026514411" fill="url(#color-4)" stroke="#666666" stroke-width="2.5" stroke-linecap="round"/><path d="M261.9859,72.70376c-0.249,4.86987 -1.36457,15.38548 -1.36457,15.38548" data-paper-data="{&quot;origPos&quot;:null,&quot;origRot&quot;:0}" id="ID0.21129454905167222" fill="none" stroke="#000000" stroke-width="2.5" stroke-linecap="round"/><path d="M245.16277,106.32176l-14.22854,-1.09786" data-paper-data="{&quot;origPos&quot;:null,&quot;index&quot;:null,&quot;origRot&quot;:0}" fill="none" stroke="#000000" stroke-width="2" stroke-linecap="round"/><path d="M209.32117,74.87634c0.66786,-8.65522 8.22569,-15.13031 16.8809,-14.46248c8.65524,0.66786 15.13031,8.22569 14.46248,16.8809c-0.66786,8.65522 -8.22569,15.13031 -16.8809,14.46248c-8.65524,-0.66786 -15.13031,-8.22569 -14.46248,-16.8809z" data-paper-data="{&quot;origPos&quot;:null,&quot;origRot&quot;:0}" fill="url(#color-5)" stroke="none" stroke-width="0" stroke-linecap="butt"/><path d="M214.58478,75.43858c0.4364,-5.6559 5.3752,-9.88713 11.03108,-9.45072c5.6559,0.4364 9.88713,5.3752 9.45072,11.03108c-0.4364,5.6559 -5.3752,9.88713 -11.03108,9.45072c-5.6559,-0.4364 -9.88713,-5.3752 -9.45072,-11.03108z" data-paper-data="{&quot;origPos&quot;:null,&quot;origRot&quot;:0}" fill="url(#color-6)" stroke="#666666" stroke-width="2" stroke-linecap="butt"/><path d="M193.50969,92.36808c0,0 4.91935,-20.94547 9.87608,-34.47849c3.27787,-8.94942 11.19217,-22.71629 11.19217,-22.71629l30.51444,9.0567l0.11723,4.53361c0,0 -8.52102,-1.51186 -13.21823,-2.36145c-4.34066,-0.7851 -8.51259,-4.06554 -12.38436,-1.95193c-7.09005,3.87046 -7.68586,12.04898 -10.51726,19.61416c-3.82547,10.22117 -7.45569,29.49333 -7.45569,29.49333z" data-paper-data="{&quot;origRot&quot;:0,&quot;origPos&quot;:null}" fill="#7a7a7a" stroke="none" stroke-width="0" stroke-linecap="butt"/><path d="M247.98254,48.96629l0.08697,-4.3638l31.21018,2.53855c0,0 -6.68993,2.57027 -13.30208,2.47002c-6.66148,-0.10104 -17.7463,-0.62009 -17.7463,-0.62009z" data-paper-data="{&quot;origPos&quot;:null,&quot;origRot&quot;:0}" fill="#b0936a" stroke="none" stroke-width="0" stroke-linecap="butt"/><path d="M195.94673,95.26845l5.05672,1.43713l-1.04077,5.61872z" data-paper-data="{&quot;origPos&quot;:null,&quot;origRot&quot;:0}" fill="#b0936a" stroke="none" stroke-width="0" stroke-linecap="butt"/><path d="M249.76501,5.80047c13.19237,1.12143 20.52151,2.81316 33.64477,4.56717c7.59868,1.01562 22.60747,2.32584 22.60747,2.32584c0,0 -9.96161,4.62182 -11.78396,4.95792c-3.38,0.62338 -9.44536,2.235 -9.44536,2.235c0,0 4.56779,1.55154 7.75713,3.06112c3.42885,1.62294 8.76125,3.3064 8.76125,3.3064c0,0 -5.64169,1.90087 -9.1623,2.51382c-4.39804,0.76572 -10.42551,2.89278 -10.42551,2.89278c0,0 6.53049,4.05849 11.60562,5.59898c5.10377,1.54916 11.72304,4.49989 11.72304,4.49989c0,0 -9.98818,4.50245 -16.27028,4.94989c-15.84584,1.13052 -31.70663,-2.73602 -47.55341,-3.80722c-9.66064,-0.65429 -23.3388,-8.41651 -28.86797,-0.18627c-14.46385,20.29156 -18.005,74.27928 -21.61988,72.21423c-3.61506,-2.0652 -10.03943,-59.52078 -3.53261,-88.25278c2.51633,-11.10371 13.34355,-16.81301 26.67531,-21.15527c13.33175,-4.34221 24.14064,-0.49405 35.88673,0.27843z" data-paper-data="{&quot;origPos&quot;:null,&quot;origRot&quot;:0}" id="ID0.5302143599838018" fill="url(#color-7)" stroke="#a96300" stroke-width="3.5" stroke-linecap="round"/><path d="M249.55266,244.49807c-2.05177,0.28325 -5.27951,-0.14715 -5.27951,-0.14715l-0.96855,-23.85065c0,0 1.43442,0.21931 2.34303,-0.01281c1.06665,-0.27247 2.71847,-1.28016 2.71847,-1.28016l6.2414,23.71696c0,0 -3.07348,1.30027 -5.05481,1.57379z" data-paper-data="{&quot;origPos&quot;:null,&quot;index&quot;:null,&quot;origRot&quot;:0}" fill="#1f1f1f" stroke="#000000" stroke-width="0" stroke-linecap="butt"/><path d="M247.72982,220.13911c0,0 2.45118,6.41491 3.60891,10.40677c1.35183,4.66103 2.82152,11.76518 2.82152,11.76518" data-paper-data="{&quot;origPos&quot;:null,&quot;origRot&quot;:0,&quot;index&quot;:null}" fill="none" stroke="#000000" stroke-width="2.54325" stroke-linecap="round"/><path d="M219.1605,244.09193l5.03156,-24.00277c0,0 1.70074,0.92267 2.77984,1.14077c0.91924,0.18577 2.3407,-0.10592 2.3407,-0.10592l0.24129,23.86907c0,0 -3.20177,0.5934 -5.26527,0.41448c-1.99266,-0.17278 -5.12807,-1.31562 -5.12807,-1.31562z" data-paper-data="{&quot;origPos&quot;:null,&quot;origRot&quot;:0}" fill="#1f1f1f" stroke="#000000" stroke-width="0" stroke-linecap="butt"/><path d="M218.65967,243.18893c0,0 1.46577,-7.40345 2.57964,-12.12698c0.95396,-4.04541 2.71897,-10.34234 2.71897,-10.34234" data-paper-data="{&quot;origPos&quot;:null,&quot;origRot&quot;:0}" fill="none" stroke="#000000" stroke-width="2.54325" stroke-linecap="round"/><path d="M259.98398,248.10861l7.71679,-14.47295l13.51707,8.15011l-6.73336,14.4812c0,0 -4.95793,1.78407 -9.86291,-1.0436c-4.38532,-2.52807 -4.63759,-7.11477 -4.63759,-7.11477z" data-paper-data="{&quot;origRot&quot;:0,&quot;origPos&quot;:null,&quot;index&quot;:null}" fill="#ffd499" stroke="#806c4d" stroke-width="2" stroke-linecap="butt"/><path d="M259.23134,119.80968c0,0 7.28427,-2.40731 9.64289,-0.34361c7.07586,6.19115 14.7759,43.74826 18.49938,69.07897c5.66632,31.25742 -8.34371,60.45126 -8.34371,60.45126c0,0 -5.49716,-2.77118 -8.99377,-4.97102c-2.94756,-1.85443 -7.51863,-5.41752 -7.51863,-5.41752c0,0 12.24646,-19.83805 8.84631,-50.35931c-3.4002,-30.52128 -10.17798,-43.04178 -10.17798,-43.04178z" data-paper-data="{&quot;origPos&quot;:null,&quot;index&quot;:null,&quot;origRot&quot;:0}" id="ID0.5423141438513994" fill="#000000" stroke="#000000" stroke-width="2.54325" stroke-linecap="round"/><g data-paper-data="{&quot;origPos&quot;:null,&quot;origRot&quot;:0}" stroke="#000000"><path d="M231.32454,265.86646l-2.76388,-7.46276l29.78991,-11.03288l2.76388,7.46276z" data-paper-data="{&quot;origPos&quot;:null}" fill="#ffffff" stroke-width="1" stroke-linecap="butt"/><path d="M225.92762,265.38078l-2.90287,-7.74411l6.01033,1.01502l2.31661,7.10029z" data-paper-data="{&quot;origPos&quot;:null}" fill="#ffffff" stroke-width="1" stroke-linecap="butt"/><path d="M229.0711,258.18546l-5.51051,-0.88635l29.22425,-10.49418l4.88945,0.71195z" data-paper-data="{&quot;origPos&quot;:null}" fill="#ffffff" stroke-width="1" stroke-linecap="butt"/><path d="M232.34123,263.68135l-1.67645,-4.52659l26.54788,-9.83217l1.67645,4.52659z" data-paper-data="{&quot;origPos&quot;:null}" fill="#ff2e2e" stroke-width="0" stroke-linecap="butt"/><path d="M228.93616,257.11679l-0.81559,-0.32398l24.02404,-8.75833l1.25965,0.02041z" data-paper-data="{&quot;origPos&quot;:null}" fill="#ff2e2e" stroke-width="0" stroke-linecap="butt"/><path d="M229.679,262.25232l-4.54922,-0.26287" data-paper-data="{&quot;origPos&quot;:null}" fill="none" stroke-width="0.5" stroke-linecap="round"/></g><path d="M225.94728,261.3268l-8.82758,-23.30763l16.38739,-6.43059l13.45702,19.91803c0,0 -3.34177,7.95373 -7.55477,9.7942c-6.51493,2.84609 -13.46207,0.02597 -13.46207,0.02597z" data-paper-data="{&quot;origRot&quot;:0,&quot;origPos&quot;:null,&quot;index&quot;:null}" fill="#ffd499" stroke="#806c4d" stroke-width="2" stroke-linecap="butt"/><path d="M212.30419,142.9747c0,0 -6.74965,15.33831 0.1567,45.26172c6.90637,29.92343 35.35671,52.96361 35.35671,52.96361c0,0 -10.83938,7.29491 -13.7582,8.57981c-0.9715,0.42767 -14.06966,4.05506 -14.06966,4.05506c0,0 -13.47683,-28.04287 -24.3905,-58.32862c-4.8812,-25.1333 -3.70354,-66.08363 0.92084,-74.2698c1.54147,-2.72874 9.2119,-2.87134 9.2119,-2.87134z" data-paper-data="{&quot;origPos&quot;:null,&quot;index&quot;:null,&quot;origRot&quot;:0}" id="ID0.5423141438513994" fill="#000000" stroke="#000000" stroke-width="2.54325" stroke-linecap="round"/></g></g></svg>