<svg version="1.1" xmlns="http://www.w3.org/2000/svg" xmlns:xlink="http://www.w3.org/1999/xlink" width="423.90299" height="303.475" viewBox="0,0,423.90299,303.475"><defs><radialGradient cx="255.17081" cy="225.12697" r="102.08147" gradientUnits="userSpaceOnUse" id="color-1"><stop offset="0" stop-color="#00ffff"/><stop offset="1" stop-color="#003fff"/></radialGradient><linearGradient x1="262.28344" y1="271.72827" x2="285.99297" y2="271.74255" gradientUnits="userSpaceOnUse" id="color-2"><stop offset="0" stop-color="#3b3b3b"/><stop offset="1" stop-color="#000000"/></linearGradient><linearGradient x1="214.6191" y1="269.49896" x2="264.97966" y2="278.38488" gradientUnits="userSpaceOnUse" id="color-3"><stop offset="0" stop-color="#000000"/><stop offset="1" stop-color="#3b3b3b"/></linearGradient><radialGradient cx="239.54052" cy="144.6598" r="54.55912" gradientUnits="userSpaceOnUse" id="color-4"><stop offset="0" stop-color="#b6b6b6"/><stop offset="1" stop-color="#666666"/></radialGradient><radialGradient cx="248.21126" cy="150.89717" r="16.49355" gradientUnits="userSpaceOnUse" id="color-5"><stop offset="0" stop-color="#ff0000"/><stop offset="1" stop-color="#ff0000" stop-opacity="0"/></radialGradient><radialGradient cx="248.9282" cy="152.8968" r="10.77795" gradientUnits="userSpaceOnUse" id="color-6"><stop offset="0" stop-color="#ff0000"/><stop offset="1" stop-color="#d20000"/></radialGradient><linearGradient x1="207.15452" y1="75.61439" x2="332.53776" y2="82.99908" gradientUnits="userSpaceOnUse" id="color-7"><stop offset="0" stop-color="#cc7700"/><stop offset="1" stop-color="#946f48"/></linearGradient></defs><g transform="translate(-124.41078,-75.57299)"><g data-paper-data="{&quot;isPaintingLayer&quot;:true}" fill-rule="nonzero" stroke-linejoin="miter" stroke-miterlimit="10" stroke-dasharray="" stroke-dashoffset="0" style="mix-blend-mode: normal"><g data-paper-data="{&quot;origPos&quot;:null}" stroke="#000000"><path d="M229.01067,193.95815l53.66731,0.70567l-0.67187,144.12643l-52.79636,-0.70518z" data-paper-data="{&quot;origPos&quot;:null,&quot;index&quot;:null,&quot;origRot&quot;:0}" id="ID0.9171315478160977" fill="url(#color-1)" stroke-width="2.54325" stroke-linecap="butt"/><g data-paper-data="{&quot;origPos&quot;:null,&quot;index&quot;:null,&quot;origRot&quot;:0}" stroke-width="0" stroke-linecap="butt"><path d="M256.3177,273.35775l-4.7769,0.07447l6.92835,-21.60632l-5.35347,0.56259l5.2968,-17.85244l17.05988,-0.5308l-6.01506,13.52338l3.65766,-0.19863l-6.98624,20.63434l3.19128,0.293l-20.07786,32.28491z" data-paper-data="{&quot;index&quot;:null,&quot;origPos&quot;:null}" fill="#ffde00"/><path d="M254.87801,270.11042l-4.7769,0.07447l6.92837,-21.60632l-5.35347,0.56259l5.29681,-17.85244l17.05988,-0.5308l-6.01506,13.52338l3.65766,-0.19863l-6.98623,20.63434l3.19128,0.293l-18.63635,32.55635z" data-paper-data="{&quot;index&quot;:null,&quot;origPos&quot;:null}" fill="#ff0000"/><path d="M251.99487,269.83816l-4.77692,0.07447l6.92837,-21.60632l-5.35347,0.56259l5.29681,-17.85244l17.05988,-0.5308l-6.01506,13.52338l3.65766,-0.19864l-6.98623,20.63434l3.19127,0.293l-15.75205,30.93484z" data-paper-data="{&quot;index&quot;:null,&quot;origPos&quot;:null}" fill="#000000"/></g><path d="M262.3247,203.36638c0,0 6.72983,-3.3058 11.03735,-5.56106c4.3139,-2.2586 11.05276,-4.04543 11.05276,-4.04543c0,0 0.66121,22.03275 0.66475,24.76914c0.0409,31.29329 0.86679,130.49027 0.86679,130.49027l-21.38022,1.01875z" data-paper-data="{&quot;origPos&quot;:null,&quot;index&quot;:null,&quot;origRot&quot;:0}" id="ID0.5423141438513994" fill="url(#color-2)" stroke-width="2.54325" stroke-linecap="round"/><path d="M252.20169,350.80342l-26.40704,-1.58667c0,0 1.3692,-98.7281 1.44665,-130.02132c0.00677,-2.73644 0.68156,-25.09497 0.68156,-25.09497c0,0 7.1408,2.0175 11.71072,4.21469c3.87809,1.86456 14.47108,5.35991 14.47108,5.35991z" data-paper-data="{&quot;origPos&quot;:null,&quot;index&quot;:null,&quot;origRot&quot;:0}" id="ID0.5423141438513994" fill="url(#color-3)" stroke-width="2.54325" stroke-linecap="round"/><path d="M271.74637,327.96102c-2.15849,0.25409 -5.5357,-0.26519 -5.5357,-0.26519l-0.51549,-25.04235c0,0 1.50026,0.26019 2.45836,0.03574c1.12475,-0.26345 2.87885,-1.28597 2.87885,-1.28597l6.05009,25.01277c0,0 -3.25171,1.29961 -5.33611,1.54497z" data-paper-data="{&quot;origPos&quot;:null,&quot;index&quot;:null,&quot;origRot&quot;:0}" fill="#1f1f1f" stroke-width="0" stroke-linecap="butt"/><path d="M270.34532,302.36746c0,0 2.43691,6.78142 3.56771,10.99362c1.32038,4.91832 2.71314,12.40223 2.71314,12.40223" data-paper-data="{&quot;origPos&quot;:null,&quot;origRot&quot;:0,&quot;index&quot;:null}" fill="none" stroke-width="2.54325" stroke-linecap="round"/><path d="M239.8701,326.89699l5.78251,-25.07598c0,0 1.76489,1.00369 2.89242,1.25515c0.96048,0.21418 2.45787,-0.06199 2.45787,-0.06199l-0.24789,25.0464c0,0 -3.37147,0.55534 -5.53255,0.3243c-2.0869,-0.22309 -5.35231,-1.48788 -5.35231,-1.48788z" data-paper-data="{&quot;origPos&quot;:null,&quot;origRot&quot;:0}" fill="#1f1f1f" stroke-width="0" stroke-linecap="butt"/><path d="M239.36363,325.93914c0,0 1.69316,-7.73628 2.96089,-12.66842c1.08572,-4.22406 3.06959,-10.7932 3.06959,-10.7932" data-paper-data="{&quot;origPos&quot;:null,&quot;origRot&quot;:0}" fill="none" stroke-width="2.54325" stroke-linecap="round"/></g><path d="M178.24474,349.20048l-51.05406,-41.96306l358.97388,-1.23422l59.03126,41.96308z" data-paper-data="{&quot;origPos&quot;:null}" fill="#90704e" stroke="#000000" stroke-width="2" stroke-linecap="butt"/><path d="M154.58146,326.84421l21.14864,-1.84989l3.02389,3.37388l-20.69411,2.58978z" data-paper-data="{&quot;origPos&quot;:null,&quot;origRot&quot;:0}" fill="#ff2e2e" stroke="#000000" stroke-width="2" stroke-linecap="butt"/><path d="M194.63941,332.10663l-20.76251,-1.96756l2.92128,-3.4631l21.19464,1.21435z" data-paper-data="{&quot;origPos&quot;:null,&quot;origRot&quot;:0,&quot;index&quot;:null}" fill="#ffffff" stroke="#000000" stroke-width="2" stroke-linecap="butt"/><path d="M209.98862,336.24977l-17.42198,-3.21845l2.03935,-6.4957l17.85783,2.73284z" data-paper-data="{&quot;origPos&quot;:null,&quot;origRot&quot;:0,&quot;index&quot;:null}" fill="#ffffff" stroke="#000000" stroke-width="2" stroke-linecap="butt"/><path d="M171.09578,329.18632l20.90811,1.93585l2.68908,3.2943l-20.52311,-1.24764z" data-paper-data="{&quot;origPos&quot;:null,&quot;origRot&quot;:0}" fill="#ff2e2e" stroke="#000000" stroke-width="2" stroke-linecap="butt"/><g data-paper-data="{&quot;origRot&quot;:0,&quot;origPos&quot;:null}" stroke="#000000"><path d="M149.09031,315.35126l-0.05487,-7.63776l30.48845,-0.21914l0.05487,7.63776z" data-paper-data="{&quot;origPos&quot;:null}" fill="#ffffff" stroke-width="1" stroke-linecap="butt"/><path d="M144.37889,313.149l-0.08835,-7.93708l5.09196,2.88046l-0.23023,7.16448z" data-paper-data="{&quot;origPos&quot;:null}" fill="#ffffff" stroke-width="1" stroke-linecap="butt"/><path d="M149.56737,307.68341l-4.68297,-2.60099l29.80195,0.08209l4.17951,2.24059z" data-paper-data="{&quot;origPos&quot;:null}" fill="#ffffff" stroke-width="1" stroke-linecap="butt"/><path d="M150.72201,313.71174l-0.03333,-4.63274l27.17043,-0.19532l0.03333,4.63274z" data-paper-data="{&quot;origPos&quot;:null}" fill="#ff2e2e" stroke-width="0" stroke-linecap="butt"/><path d="M149.79489,306.67491l-0.63008,-0.55894l24.54194,-0.05118l1.13005,0.43012z" data-paper-data="{&quot;origPos&quot;:null}" fill="#ff2e2e" stroke-width="0" stroke-linecap="butt"/><path d="M144.76741,309.82789l4.01928,1.72413" data-paper-data="{&quot;origPos&quot;:null}" fill="none" stroke-width="0.5" stroke-linecap="round"/></g><path d="M176.6493,378.04799v-31.06592h368.54652v31.06592z" data-paper-data="{&quot;origPos&quot;:null}" fill="#90704e" stroke="#000000" stroke-width="2" stroke-linecap="butt"/><path d="M327.69413,329.66348l-3.0073,-23.79396l5.06349,5.02099l5.78113,24.6188z" data-paper-data="{&quot;origPos&quot;:null,&quot;origRot&quot;:0,&quot;index&quot;:null}" fill="#ff2e2e" stroke="#000000" stroke-width="2" stroke-linecap="butt"/><path d="M310.37459,329.31291l14.62456,-24.14395l5.56863,5.61322l-13.30958,25.11706z" data-paper-data="{&quot;origPos&quot;:null,&quot;origRot&quot;:0,&quot;index&quot;:null}" fill="#ffffff" stroke="#000000" stroke-width="2" stroke-linecap="butt"/><path d="M307.38884,329.47738l-3.0073,-23.79396l5.06349,5.02099l5.78113,24.6188z" data-paper-data="{&quot;origPos&quot;:null,&quot;origRot&quot;:0,&quot;index&quot;:null}" fill="#ff2e2e" stroke="#000000" stroke-width="2" stroke-linecap="butt"/><path d="M290.0693,329.1268l14.62457,-24.14395l5.56863,5.61322l-13.30958,25.11706z" data-paper-data="{&quot;origPos&quot;:null,&quot;origRot&quot;:0,&quot;index&quot;:null}" fill="#ffffff" stroke="#000000" stroke-width="2" stroke-linecap="butt"/><path d="M288.15125,329.32916l-3.0073,-23.79396l5.06349,5.02099l5.78113,24.6188z" data-paper-data="{&quot;origPos&quot;:null,&quot;origRot&quot;:0,&quot;index&quot;:null}" fill="#ff2e2e" stroke="#000000" stroke-width="2" stroke-linecap="butt"/><path d="M270.83172,328.97859l14.62457,-24.14395l5.56863,5.61322l-13.30958,25.11706z" data-paper-data="{&quot;origPos&quot;:null,&quot;origRot&quot;:0,&quot;index&quot;:null}" fill="#ffffff" stroke="#000000" stroke-width="2" stroke-linecap="butt"/><path d="M267.84596,329.14306l-3.0073,-23.79396l5.06349,5.02099l5.78113,24.6188z" data-paper-data="{&quot;origPos&quot;:null,&quot;origRot&quot;:0,&quot;index&quot;:null}" fill="#ff2e2e" stroke="#000000" stroke-width="2" stroke-linecap="butt"/><path d="M250.52643,328.79249l14.62457,-24.14395l5.56863,5.61322l-13.30958,25.11706z" data-paper-data="{&quot;origPos&quot;:null,&quot;origRot&quot;:0,&quot;index&quot;:null}" fill="#ffffff" stroke="#000000" stroke-width="2" stroke-linecap="butt"/><path d="M248.51263,328.47639l-3.0073,-23.79395l5.06349,5.02099l5.78113,24.6188z" data-paper-data="{&quot;origPos&quot;:null,&quot;origRot&quot;:0,&quot;index&quot;:null}" fill="#ff2e2e" stroke="#000000" stroke-width="2" stroke-linecap="butt"/><path d="M231.19309,328.12582l14.62456,-24.14395l5.56863,5.61323l-13.30958,25.11706z" data-paper-data="{&quot;origPos&quot;:null,&quot;origRot&quot;:0,&quot;index&quot;:null}" fill="#ffffff" stroke="#000000" stroke-width="2" stroke-linecap="butt"/><path d="M289.27185,309.21465l-5.67568,-5.33333h20.43243l7.56757,5.66667z" data-paper-data="{&quot;origPos&quot;:null}" fill="#ffffff" stroke="#000000" stroke-width="2" stroke-linecap="butt"/><path d="M310.60519,309.54799l-5.67568,-5.33333h20.43243l7.56757,5.66667z" data-paper-data="{&quot;origPos&quot;:null}" fill="#ffffff" stroke="#000000" stroke-width="2" stroke-linecap="butt"/><path d="M269.30269,309.89872l-5.89189,-5.09346l20.41486,-0.84701l7.79598,5.34807z" data-paper-data="{&quot;origPos&quot;:null,&quot;origRot&quot;:0}" fill="#ffffff" stroke="#000000" stroke-width="2" stroke-linecap="butt"/><path d="M245.95611,310.08936l-5.74061,-5.26337l20.43089,-0.2504l7.63646,5.57348z" data-paper-data="{&quot;origPos&quot;:null,&quot;origRot&quot;:0}" fill="#ffffff" stroke="#000000" stroke-width="2" stroke-linecap="butt"/><path d="M318.48211,303.88492l-2.97151,-23.51081l5.00323,4.96124l5.71233,24.32583z" data-paper-data="{&quot;origPos&quot;:null,&quot;origRot&quot;:0,&quot;index&quot;:null}" fill="#ff2e2e" stroke="#000000" stroke-width="2" stroke-linecap="butt"/><path d="M301.36867,303.53851l14.45054,-23.85664l5.50236,5.54642l-13.15119,24.81817z" data-paper-data="{&quot;origPos&quot;:null,&quot;origRot&quot;:0,&quot;index&quot;:null}" fill="#ffffff" stroke="#000000" stroke-width="2" stroke-linecap="butt"/><path d="M299.47345,303.73846l-2.97151,-23.51081l5.00323,4.96124l5.71233,24.32583z" data-paper-data="{&quot;origPos&quot;:null,&quot;origRot&quot;:0,&quot;index&quot;:null}" fill="#ff2e2e" stroke="#000000" stroke-width="2" stroke-linecap="butt"/><path d="M282.36002,303.39206l14.45054,-23.85664l5.50236,5.54642l-13.15119,24.81817z" data-paper-data="{&quot;origPos&quot;:null,&quot;origRot&quot;:0,&quot;index&quot;:null}" fill="#ffffff" stroke="#000000" stroke-width="2" stroke-linecap="butt"/><path d="M279.40979,303.55458l-2.97151,-23.51081l5.00323,4.96124l5.71233,24.32583z" data-paper-data="{&quot;origPos&quot;:null,&quot;origRot&quot;:0,&quot;index&quot;:null}" fill="#ff2e2e" stroke="#000000" stroke-width="2" stroke-linecap="butt"/><path d="M262.29637,303.20818l14.45054,-23.85664l5.50236,5.54642l-13.15119,24.81817z" data-paper-data="{&quot;origPos&quot;:null,&quot;origRot&quot;:0,&quot;index&quot;:null}" fill="#ffffff" stroke="#000000" stroke-width="2" stroke-linecap="butt"/><path d="M260.30653,302.89584l-2.97151,-23.5108l5.00323,4.96124l5.71233,24.32583z" data-paper-data="{&quot;origPos&quot;:null,&quot;origRot&quot;:0,&quot;index&quot;:null}" fill="#ff2e2e" stroke="#000000" stroke-width="2" stroke-linecap="butt"/><path d="M242.52643,304.54944l15.11719,-25.85664l5.50236,5.54643l-14.48453,25.48483z" data-paper-data="{&quot;origPos&quot;:null,&quot;origRot&quot;:0,&quot;index&quot;:null}" fill="#ffffff" stroke="#000000" stroke-width="2" stroke-linecap="butt"/><path d="M300.58071,283.86332l-5.60814,-5.26986h20.18928l7.47752,5.59924z" data-paper-data="{&quot;origPos&quot;:null}" fill="#ffffff" stroke="#000000" stroke-width="2" stroke-linecap="butt"/><path d="M280.84919,284.53925l-5.82178,-5.03285l20.17192,-0.83693l7.70321,5.28443z" data-paper-data="{&quot;origPos&quot;:null,&quot;origRot&quot;:0}" fill="#ffffff" stroke="#000000" stroke-width="2" stroke-linecap="butt"/><path d="M257.78043,284.72762l-5.6723,-5.20074l20.18776,-0.24742l7.54559,5.50716z" data-paper-data="{&quot;origPos&quot;:null,&quot;origRot&quot;:0}" fill="#ffffff" stroke="#000000" stroke-width="2" stroke-linecap="butt"/><path d="M312.80678,279.40513l-2.97152,-23.51081l5.00324,4.96124l5.71233,24.32583z" data-paper-data="{&quot;origPos&quot;:null,&quot;origRot&quot;:0,&quot;index&quot;:null}" fill="#ff2e2e" stroke="#000000" stroke-width="2" stroke-linecap="butt"/><path d="M295.69335,279.05873l14.45054,-23.85663l5.50236,5.54642l-13.1512,24.81817z" data-paper-data="{&quot;origPos&quot;:null,&quot;origRot&quot;:0,&quot;index&quot;:null}" fill="#ffffff" stroke="#000000" stroke-width="2" stroke-linecap="butt"/><path d="M292.74313,279.22125l-2.97151,-23.51081l5.00323,4.96123l5.71233,24.32584z" data-paper-data="{&quot;origPos&quot;:null,&quot;origRot&quot;:0,&quot;index&quot;:null}" fill="#ff2e2e" stroke="#000000" stroke-width="2" stroke-linecap="butt"/><path d="M275.6297,278.87485l14.45054,-23.85664l5.50236,5.54642l-13.15119,24.81817z" data-paper-data="{&quot;origPos&quot;:null,&quot;origRot&quot;:0,&quot;index&quot;:null}" fill="#ffffff" stroke="#000000" stroke-width="2" stroke-linecap="butt"/><path d="M273.63986,278.56251l-2.97151,-23.5108l5.00323,4.96124l5.71233,24.32584z" data-paper-data="{&quot;origPos&quot;:null,&quot;origRot&quot;:0,&quot;index&quot;:null}" fill="#ff2e2e" stroke="#000000" stroke-width="2" stroke-linecap="butt"/><path d="M255.85976,280.21611l15.11719,-25.85663l5.50236,5.54643l-14.81786,25.48483z" data-paper-data="{&quot;origPos&quot;:null,&quot;origRot&quot;:0,&quot;index&quot;:null}" fill="#ffffff" stroke="#000000" stroke-width="2" stroke-linecap="butt"/><path d="M294.18252,260.20591l-5.82178,-5.03285l20.17193,-0.83693l7.7032,5.28442z" data-paper-data="{&quot;origPos&quot;:null,&quot;origRot&quot;:0}" fill="#ffffff" stroke="#000000" stroke-width="2" stroke-linecap="butt"/><path d="M271.11376,260.39429l-5.6723,-5.20074l20.18776,-0.24743l7.54559,5.50716z" data-paper-data="{&quot;origPos&quot;:null,&quot;origRot&quot;:0}" fill="#ffffff" stroke="#000000" stroke-width="2" stroke-linecap="butt"/><path d="M369.43611,324.59325l-18.01271,-2.25421l2.63208,-2.93672l18.40834,1.61019z" data-paper-data="{&quot;origPos&quot;:null,&quot;origRot&quot;:0,&quot;index&quot;:null}" fill="#ff2e2e" stroke="#000000" stroke-width="2" stroke-linecap="butt"/><path d="M370.08146,321.41933l15.54393,-1.67542l1.7751,3.98232l-15.16456,1.97314z" data-paper-data="{&quot;origPos&quot;:null,&quot;origRot&quot;:0,&quot;index&quot;:null}" fill="#ffffff" stroke="#000000" stroke-width="2" stroke-linecap="butt"/><path d="M282.68685,240.26086l8.53244,20.09218l-5.20429,-0.54603l-9.5602,-20.02602z" data-paper-data="{&quot;origPos&quot;:null,&quot;origRot&quot;:0,&quot;index&quot;:null}" fill="#ff2e2e" stroke="#000000" stroke-width="2" stroke-linecap="butt"/><path d="M378.41356,325.51763l-17.86387,1.08598l2.34065,-2.86745l18.19898,-1.68502z" data-paper-data="{&quot;origPos&quot;:null,&quot;origRot&quot;:0,&quot;index&quot;:null}" fill="#ff2e2e" stroke="#000000" stroke-width="2" stroke-linecap="butt"/><path d="M290.72655,260.71144c0,0 -6.30365,-6.04869 -7.29909,-10.91709c-0.99546,-4.8684 2.51456,-12.48202 2.51456,-12.48202l22.95291,-2.5253l1.74258,19.0194z" data-paper-data="{&quot;origRot&quot;:0,&quot;origPos&quot;:null,&quot;index&quot;:null}" fill="#ffd499" stroke="#806c4d" stroke-width="2" stroke-linecap="butt"/><path d="M280.28829,197.34847c0,0 7.08551,-3.82102 9.90036,-2.1206c16.2388,9.08474 68.98038,23.72511 69.47811,32.33326c0.06926,4.13431 -2.70323,5.80598 -5.82799,8.51397c-9.37428,8.12397 -55.78145,21.86582 -55.78145,21.86582l-7.1817,-21.47212c0,0 41.21291,-4.20021 40.49543,-6.79991c-1.68547,-3.01827 -44.41336,-6.43747 -44.41336,-6.43747z" data-paper-data="{&quot;origPos&quot;:null,&quot;index&quot;:null,&quot;origRot&quot;:0}" id="ID0.5423141438513994" fill="#000000" stroke="#000000" stroke-width="2.54325" stroke-linecap="round"/><path d="M277.36652,237.30647l-7.40336,26.1775l-5.35065,2.86169l6.32453,-25.8037z" data-paper-data="{&quot;origPos&quot;:null,&quot;origRot&quot;:0}" fill="#ffffff" stroke="#000000" stroke-width="2" stroke-linecap="butt"/><path d="M249.92191,266.1275l-5.72348,-18.22131l22.15255,-6.5175c0,0 6.17361,5.67221 7.13168,10.54812c0.9581,4.87589 -2.52682,12.887 -2.52682,12.887z" data-paper-data="{&quot;origRot&quot;:0,&quot;origPos&quot;:null,&quot;index&quot;:null}" fill="#ffd499" stroke="#806c4d" stroke-width="2" stroke-linecap="butt"/><path d="M228.98344,219.18065c0,0 -23.92731,16.51966 -23.4555,28.98774c1.78622,7.93278 55.52016,-5.46702 55.52016,-5.46702c0,0 1.27517,6.46825 1.45129,10.60826c0.19813,4.65725 -0.49233,11.93362 -0.49233,11.93362c0,0 -74.51422,7.13602 -80.26127,-3.83315c-4.05535,-7.74025 22.92665,-54.31116 35.62233,-67.91451c2.16236,-2.4777 10.07553,-0.99897 10.07553,-0.99897z" data-paper-data="{&quot;origPos&quot;:null,&quot;index&quot;:null,&quot;origRot&quot;:0}" id="ID0.5423141438513994" fill="#000000" stroke="#000000" stroke-width="2.54325" stroke-linecap="round"/><g data-paper-data="{&quot;origPos&quot;:null,&quot;origRot&quot;:0}"><path d="M264.52136,97.46334c14.75875,0.86673 27.784,7.5564 36.90509,17.66399c9.12109,10.10878 9.02023,25.01654 6.82687,41.65199c-1.51122,11.46188 -5.20831,22.7405 -14.97244,31.28834c-10.2479,8.97012 -25.336,15.3064 -34.98423,14.7837c-9.64805,-0.52264 -24.03866,-5.99489 -33.15981,-16.10246c-9.12121,-10.10896 -14.51264,-21.0275 -13.65402,-35.56478c0.85865,-14.53738 4.0611,-31.52731 14.30925,-40.49863c10.24795,-8.97015 23.9706,-14.08896 38.72922,-13.22222z" data-paper-data="{&quot;origPos&quot;:null,&quot;origRot&quot;:0}" id="ID0.7719937418587506" fill="#ffd499" stroke="#806c4d" stroke-width="2.5" stroke-linecap="butt"/><path d="M267.66385,100.52507c5.5372,0.52837 2.90632,10.88964 2.88722,16.45169c-0.04446,12.59764 2.68128,27.22314 -3.14242,38.80516c-4.94374,8.97907 -15.10552,15.03716 -25.01759,17.37891c-10.72105,2.11079 -21.77721,2.21324 -25.79369,-3.80548c-6.4208,-17.88351 -0.5471,-42.91336 11.7913,-57.78965c10.77032,-12.11331 23.17271,-12.57 39.27515,-11.04062z" data-paper-data="{&quot;origPos&quot;:null,&quot;origRot&quot;:0}" id="ID0.479907026514411" fill="url(#color-4)" stroke="#666666" stroke-width="2.5" stroke-linecap="round"/><path d="M286.99232,146.96894c-0.21129,5.11238 -1.27385,16.15757 -1.27385,16.15757" data-paper-data="{&quot;origPos&quot;:null,&quot;origRot&quot;:0}" id="ID0.21129454905167222" fill="none" stroke="#000000" stroke-width="2.5" stroke-linecap="round"/><path d="M269.6222,185.03864l-14.94088,-1.00589" data-paper-data="{&quot;origPos&quot;:null,&quot;index&quot;:null,&quot;origRot&quot;:0}" fill="none" stroke="#000000" stroke-width="2" stroke-linecap="round"/><path d="M231.75498,149.78921c0.61191,-9.08852 8.47566,-15.96025 17.5642,-15.34838c9.08854,0.61191 15.96025,8.47566 15.34838,17.5642c-0.61191,9.08852 -8.47566,15.96025 -17.5642,15.34838c-9.08854,-0.61191 -15.96025,-8.47566 -15.34838,-17.5642z" data-paper-data="{&quot;origPos&quot;:null,&quot;origRot&quot;:0}" fill="url(#color-5)" stroke="none" stroke-width="0" stroke-linecap="butt"/><path d="M237.2837,150.32515c0.39983,-5.93904 5.53853,-10.42948 11.47758,-10.02962c5.93904,0.39983 10.42948,5.53853 10.02962,11.47758c-0.39983,5.93904 -5.53853,10.42948 -11.47758,10.02962c-5.93904,-0.39983 -10.42948,-5.53853 -10.02962,-11.47758z" data-paper-data="{&quot;origPos&quot;:null,&quot;origRot&quot;:0}" fill="url(#color-6)" stroke="#666666" stroke-width="2" stroke-linecap="butt"/><path d="M215.28083,170.92768c0,0 4.94672,-22.02799 10.00874,-36.27872c3.3475,-9.42403 11.51042,-23.95049 11.51042,-23.95049l32.11093,9.18967l0.16955,4.7558c0,0 -8.95639,-1.49889 -13.89375,-2.34213c-4.5626,-0.77921 -8.97376,-4.17847 -13.01461,-1.92097c-7.39966,4.13396 -7.94087,12.72156 -10.83411,20.68856c-3.90904,10.76406 -7.52026,31.02307 -7.52026,31.02307z" data-paper-data="{&quot;origRot&quot;:0,&quot;origPos&quot;:null}" fill="#7a7a7a" stroke="none" stroke-width="0" stroke-linecap="butt"/><path d="M271.9921,124.82816l0.04646,-4.5797l32.77403,2.34324c0,0 -6.99317,2.76559 -13.93215,2.7283c-6.99072,-0.03764 -18.62707,-0.46847 -18.62707,-0.46847z" data-paper-data="{&quot;origPos&quot;:null,&quot;origRot&quot;:0}" fill="#b0936a" stroke="none" stroke-width="0" stroke-linecap="butt"/><path d="M217.35583,173.40879l5.32063,1.45601l-1.03438,5.90627z" data-paper-data="{&quot;origPos&quot;:null,&quot;origRot&quot;:0}" fill="#b0936a" stroke="none" stroke-width="0" stroke-linecap="butt"/><path d="M273.41927,79.51714c13.8539,1.04124 21.56152,2.74108 35.34941,4.44682c7.9835,0.98767 23.74527,2.20835 23.74527,2.20835c0,0 -10.405,4.95182 -12.31369,5.32318c-3.54015,0.6888 -9.88781,2.4421 -9.88781,2.4421c0,0 4.80879,1.58111 8.17076,3.13231c3.61445,1.66771 9.22688,3.37936 9.22688,3.37936c0,0 -5.90016,2.05244 -9.58795,2.73174c-4.60688,0.84859 -10.90949,3.14235 -10.90949,3.14235c0,0 6.89393,4.19141 12.23495,5.75572c5.37114,1.57309 12.34686,4.60126 12.34686,4.60126c0,0 -10.4341,4.82683 -17.02115,5.36081c-16.61499,1.34888 -33.29697,-2.54533 -49.93555,-3.50662c-10.14337,-0.58735 -24.57516,-8.59161 -30.29226,0.10091c-14.96823,21.43986 -18.12959,78.12402 -21.9438,75.99433c-3.81438,-2.12985 -11.14512,-62.35044 -4.61267,-92.56493c2.52632,-11.67664 13.82842,-17.7784 27.7725,-22.47149c13.94407,-4.693 25.32503,-0.76624 37.65781,-0.07626z" data-paper-data="{&quot;origPos&quot;:null,&quot;origRot&quot;:0}" id="ID0.5302143599838018" fill="url(#color-7)" stroke="#a96300" stroke-width="3.5" stroke-linecap="round"/></g></g></g></svg>