<svg version="1.1" xmlns="http://www.w3.org/2000/svg" xmlns:xlink="http://www.w3.org/1999/xlink" width="127.31024" height="335.02919" viewBox="0,0,127.31024,335.02919"><defs><radialGradient cx="224.51033" cy="147.87636" r="97.28323" gradientUnits="userSpaceOnUse" id="color-1"><stop offset="0" stop-color="#00ffff"/><stop offset="1" stop-color="#003fff"/></radialGradient><linearGradient x1="234.9046" y1="191.58251" x2="257.42483" y2="189.7448" gradientUnits="userSpaceOnUse" id="color-2"><stop offset="0" stop-color="#3b3b3b"/><stop offset="1" stop-color="#000000"/></linearGradient><linearGradient x1="189.45933" y1="193.18686" x2="237.98521" y2="197.69438" gradientUnits="userSpaceOnUse" id="color-3"><stop offset="0" stop-color="#000000"/><stop offset="1" stop-color="#3b3b3b"/></linearGradient><radialGradient cx="204.69968" cy="69.68293" r="51.99462" gradientUnits="userSpaceOnUse" id="color-4"><stop offset="0" stop-color="#b6b6b6"/><stop offset="1" stop-color="#666666"/></radialGradient><radialGradient cx="213.31616" cy="76.18667" r="15.71829" gradientUnits="userSpaceOnUse" id="color-5"><stop offset="0" stop-color="#ff0000"/><stop offset="1" stop-color="#ff0000" stop-opacity="0"/></radialGradient><radialGradient cx="214.09798" cy="78.05401" r="10.27134" gradientUnits="userSpaceOnUse" id="color-6"><stop offset="0" stop-color="#ff0000"/><stop offset="1" stop-color="#d20000"/></radialGradient><linearGradient x1="170.44244" y1="5.5842" x2="290.13665" y2="6.37326" gradientUnits="userSpaceOnUse" id="color-7"><stop offset="0" stop-color="#cc7700"/><stop offset="1" stop-color="#946f48"/></linearGradient></defs><g transform="translate(-169.56228,-4.25112)"><g data-paper-data="{&quot;isPaintingLayer&quot;:true}" fill-rule="nonzero" stroke-linejoin="miter" stroke-miterlimit="10" stroke-dasharray="" stroke-dashoffset="0" style="mix-blend-mode: normal"><path d="M250.49583,254.16824c0,0 14.01633,14.33213 21.70641,25.10625c6.50463,9.11326 8.27077,16.04239 13.66147,25.85576c0.00903,0.01644 -20.64116,-0.23499 -20.64116,-0.23499c0,0 -8.4037,-32.22999 -24.98379,-33.00375c-4.14908,-0.40375 -2.66758,9.66246 -0.97379,13.47151c3.42702,7.70677 9.21535,19.67344 9.21535,19.67344l-21.37171,0.32228c0,0 -4.60033,-11.19467 -9.25158,-18.35983c-4.62027,-7.11743 -11.75553,-26.48753 -11.75553,-26.48753z" data-paper-data="{&quot;origPos&quot;:null,&quot;index&quot;:null}" fill="#333333" stroke="#000000" stroke-width="2.5" stroke-linecap="butt"/><path d="M197.22991,120.31509l51.02787,-3.52024l10.6156,136.94254l-50.20061,3.4527z" data-paper-data="{&quot;origPos&quot;:null,&quot;index&quot;:null,&quot;origRot&quot;:0}" id="ID0.9171315478160977" fill="url(#color-1)" stroke="#000000" stroke-width="2.54325" stroke-linecap="butt"/><g data-paper-data="{&quot;origPos&quot;:null,&quot;index&quot;:null,&quot;origRot&quot;:0}" stroke="#000000" stroke-width="0" stroke-linecap="butt"><path d="M229.36562,193.59599l-4.53123,0.44372l4.89342,-21.0625l-5.04075,0.95235l3.6369,-17.36969l16.16188,-1.83623l-4.65712,13.31407l3.4585,-0.47425l-5.02429,20.14381l3.05394,0.0291l-16.5489,32.23166z" data-paper-data="{&quot;index&quot;:null,&quot;origPos&quot;:null}" fill="#ffde00"/><path d="M227.74466,190.62409l-4.53123,0.44372l4.89344,-21.0625l-5.04075,0.95235l3.63691,-17.36969l16.16188,-1.83623l-4.65712,13.31407l3.4585,-0.47425l-5.02428,20.14381l3.05394,0.0291l-15.15857,32.37692z" data-paper-data="{&quot;index&quot;:null,&quot;origPos&quot;:null}" fill="#ff0000"/><path d="M224.98502,190.59064l-4.53125,0.44372l4.89344,-21.0625l-5.04075,0.95235l3.63691,-17.36969l16.16188,-1.83623l-4.65712,13.31407l3.4585,-0.47426l-5.02428,20.14381l3.05393,0.0291l-12.5457,30.61161z" data-paper-data="{&quot;index&quot;:null,&quot;origPos&quot;:null}" fill="#000000"/></g><path d="M229.60592,126.64971c0,0 6.13381,-3.66531 10.04897,-6.14368c3.92094,-2.48203 10.18194,-4.70535 10.18194,-4.70535c0,0 2.34838,20.87489 2.56541,23.47363c2.48229,29.71891 11.01228,123.87089 11.01228,123.87089l-20.2272,2.63702z" data-paper-data="{&quot;origPos&quot;:null,&quot;index&quot;:null,&quot;origRot&quot;:0}" id="ID0.5423141438513994" fill="url(#color-2)" stroke="#000000" stroke-width="2.54325" stroke-linecap="round"/><path d="M231.50342,267.47463l-25.20506,0.55492c0,0 -6.40848,-93.87805 -8.77836,-123.60613c-0.20723,-2.59957 -1.31214,-23.88821 -1.31214,-23.88821c0,0 6.9398,1.35863 11.45184,3.08867c3.82897,1.46813 14.16303,3.96086 14.16303,3.96086z" data-paper-data="{&quot;origPos&quot;:null,&quot;index&quot;:null,&quot;origRot&quot;:0}" id="ID0.5423141438513994" fill="url(#color-3)" stroke="#000000" stroke-width="2.54325" stroke-linecap="round"/><path d="M250.63538,338.65312v-10.81353h43.16551v10.81353z" data-paper-data="{&quot;origPos&quot;:null}" fill="#ffffff" stroke="#000000" stroke-width="1" stroke-linecap="butt"/><path d="M243.98771,335.48747l-0.04432,-11.23762l7.17948,4.12973l-0.39886,10.14058z" data-paper-data="{&quot;origPos&quot;:null}" fill="#ffffff" stroke="#000000" stroke-width="1" stroke-linecap="butt"/><path d="M251.38878,327.80247l-6.60333,-3.7299l42.19052,0.41947l5.89425,3.21459z" data-paper-data="{&quot;origPos&quot;:null}" fill="#ffffff" stroke="#000000" stroke-width="1" stroke-linecap="butt"/><path d="M252.96206,336.3486v-6.55902h38.46782v6.55902z" data-paper-data="{&quot;origPos&quot;:null}" fill="#ff2e2e" stroke="#000000" stroke-width="0" stroke-linecap="butt"/><path d="M251.72116,326.37709l-0.88635,-0.79772l34.74513,0.17727l1.59544,0.62045z" data-paper-data="{&quot;origPos&quot;:null}" fill="#ff2e2e" stroke="#000000" stroke-width="0" stroke-linecap="butt"/><path d="M244.57151,330.78958l5.67266,2.4818" data-paper-data="{&quot;origPos&quot;:null}" fill="none" stroke="#000000" stroke-width="0.5" stroke-linecap="round"/><path d="M226.12542,23.52323c14.08898,0.09048 26.8179,5.80889 36.00137,14.9744c9.18352,9.16664 9.82931,23.3593 8.56966,39.30033c-0.86789,10.98342 -3.82518,21.9012 -12.69233,30.52199c-9.30655,9.04675 -23.35054,15.82772 -32.55873,15.81037c-9.208,-0.01732 -23.17579,-4.50918 -32.3593,-13.67466c-9.18363,-9.16679 -14.85792,-19.28966 -14.76412,-33.16746c0.09383,-13.87789 2.29617,-30.20649 11.6029,-39.25438c9.30658,-9.04678 22.11168,-14.60115 36.20052,-14.51065z" data-paper-data="{&quot;origPos&quot;:null,&quot;origRot&quot;:0}" id="ID0.7719937418587506" fill="#ffd499" stroke="#806c4d" stroke-width="2.5" stroke-linecap="butt"/><path d="M229.26847,26.28069c5.29602,0.22731 3.30778,10.21901 3.56635,15.51332c0.58453,11.99134 3.90635,25.77473 -1.05975,37.08708c-4.25816,8.79133 -13.62763,15.06244 -22.94439,17.78428c-10.09816,2.54228 -20.61515,3.18994 -24.7371,-2.3382c-7.00052,-16.70019 -2.65599,-40.81326 8.34619,-55.58489c9.64734,-12.0641 21.4279,-13.11585 36.82863,-12.46159z" data-paper-data="{&quot;origPos&quot;:null,&quot;origRot&quot;:0}" id="ID0.479907026514411" fill="url(#color-4)" stroke="#666666" stroke-width="2.5" stroke-linecap="round"/><path d="M250.02848,70.5185c0.05331,4.87594 -0.40835,15.44048 -0.40835,15.44048" data-paper-data="{&quot;origPos&quot;:null,&quot;origRot&quot;:0}" id="ID0.21129454905167222" fill="none" stroke="#000000" stroke-width="2.5" stroke-linecap="round"/><path d="M235.33751,106.61447l-14.26923,-0.21386" data-paper-data="{&quot;origPos&quot;:null,&quot;index&quot;:null,&quot;origRot&quot;:0}" fill="none" stroke="#000000" stroke-width="2" stroke-linecap="round"/><path d="M197.59965,75.95109c0.13012,-8.67998 7.27208,-15.61104 15.95206,-15.48096c8.68,0.13012 15.61104,7.27208 15.48096,15.95206c-0.13012,8.67998 -7.27208,15.61104 -15.95206,15.48096c-8.68,-0.13012 -15.61104,-7.27208 -15.48096,-15.95206z" data-paper-data="{&quot;origPos&quot;:null,&quot;origRot&quot;:0}" fill="url(#color-5)" stroke="none" stroke-width="0" stroke-linecap="butt"/><path d="M202.888,76.186c0.085,-5.67206 4.75205,-10.20127 10.42412,-10.11626c5.67206,0.085 10.20127,4.75205 10.11626,10.42412c-0.085,5.67206 -4.75205,10.20127 -10.42412,10.11626c-5.67206,-0.085 -10.20127,-4.75205 -10.11626,-10.42412z" data-paper-data="{&quot;origPos&quot;:null,&quot;origRot&quot;:0}" fill="url(#color-6)" stroke="#666666" stroke-width="2" stroke-linecap="butt"/><path d="M182.91889,95.88911c0,0 3.61168,-21.2101 7.7201,-35.02433c2.71688,-9.13538 9.76268,-23.36631 9.76268,-23.36631l31.01711,7.14798l0.398,4.51762c0,0 -8.59834,-0.98081 -13.33919,-1.53764c-4.38098,-0.51456 -8.74821,-3.53011 -12.48153,-1.18059c-6.83653,4.30247 -6.92428,12.50219 -9.28134,20.22831c-3.18461,10.43862 -5.61334,29.89873 -5.61334,29.89873z" data-paper-data="{&quot;origRot&quot;:0,&quot;origPos&quot;:null}" fill="#7a7a7a" stroke="none" stroke-width="0" stroke-linecap="butt"/><path d="M234.59693,49.19451l-0.18367,-4.36079l31.30751,0.59925c0,0 -6.51776,2.97998 -13.12341,3.28974c-6.65493,0.31204 -17.75062,0.48103 -17.75062,0.48103z" data-paper-data="{&quot;origPos&quot;:null,&quot;origRot&quot;:0}" fill="#b0936a" stroke="none" stroke-width="0" stroke-linecap="butt"/><path d="M185.53101,98.63286l5.13607,1.12096l-0.69051,5.67243z" data-paper-data="{&quot;origPos&quot;:null,&quot;origRot&quot;:0}" fill="#b0936a" stroke="none" stroke-width="0" stroke-linecap="butt"/><path d="M233.70054,6.0012c13.23652,0.3016 20.65641,1.53582 33.86316,2.47306c7.64701,0.54269 22.70817,0.92014 22.70817,0.92014c0,0 -9.65599,5.23036 -11.45401,5.67876c-3.33486,0.83167 -9.28867,2.81613 -9.28867,2.81613c0,0 4.65517,1.26545 7.93194,2.57444c3.52284,1.4073 8.94934,2.75702 8.94934,2.75702c0,0 -5.51303,2.24689 -8.98888,3.07687c-4.34212,1.03684 -10.22617,3.5334 -10.22617,3.5334c0,0 6.76948,3.64593 11.93034,4.86889c5.18997,1.22985 11.97941,3.76463 11.97941,3.76463c0,0 -9.68991,5.11286 -15.9322,5.94881c-15.74531,2.11048 -31.81525,-0.76557 -47.69795,-0.85251c-9.68263,-0.05426 -23.81559,-6.95378 -28.82401,1.60334c-13.17836,21.14902 -13.36651,75.25243 -17.10244,73.4154c-3.73611,-1.83717 -13.70926,-58.78409 -8.99578,-87.86415c1.82327,-11.23832 12.27582,-17.60772 25.31281,-22.76794c13.03699,-5.16017 24.0636,-1.98935 35.83499,-1.94638z" data-paper-data="{&quot;origPos&quot;:null,&quot;origRot&quot;:0}" id="ID0.5302143599838018" fill="url(#color-7)" stroke="#a96300" stroke-width="3.5" stroke-linecap="round"/><path d="M248.28321,244.25298c-2.03027,0.40987 -5.27847,0.18036 -5.27847,0.18036l-2.44497,-23.74476c0,0 1.44525,0.12998 2.33773,-0.15801c1.04771,-0.33806 2.63389,-1.44619 2.63389,-1.44619l7.69939,23.28452c0,0 -2.98698,1.48826 -4.94755,1.88407z" data-paper-data="{&quot;origPos&quot;:null,&quot;index&quot;:null,&quot;origRot&quot;:0}" fill="#1f1f1f" stroke="#000000" stroke-width="0" stroke-linecap="butt"/><path d="M244.95409,220.05388c0,0 2.84407,6.25065 4.24699,10.16308c1.63812,4.56828 3.54531,11.56769 3.54531,11.56769" data-paper-data="{&quot;origPos&quot;:null,&quot;origRot&quot;:0,&quot;index&quot;:null}" fill="none" stroke="#000000" stroke-width="2.54325" stroke-linecap="round"/><path d="M217.9243,245.73135l3.53418,-24.26848c0,0 1.75466,0.81549 2.8452,0.96628c0.92899,0.12843 2.32963,-0.25079 2.32963,-0.25079l1.72024,23.80822c0,0 -3.15884,0.7907 -5.22945,0.74003c-1.99954,-0.04894 -5.19975,-0.99525 -5.19975,-0.99525z" data-paper-data="{&quot;origPos&quot;:null,&quot;origRot&quot;:0}" fill="#1f1f1f" stroke="#000000" stroke-width="0" stroke-linecap="butt"/><path d="M217.36847,244.86115c0,0 1.00408,-7.48006 1.82305,-12.26355c0.70139,-4.09675 2.07272,-10.49098 2.07272,-10.49098" data-paper-data="{&quot;origPos&quot;:null,&quot;origRot&quot;:0}" fill="none" stroke="#000000" stroke-width="2.54325" stroke-linecap="round"/><path d="M207.4679,260.1404c-4.10864,2.72174 -7.80848,-0.31103 -7.80848,-0.31103l-10.22477,-18.20784l12.77378,-7.37452l10.22477,18.20784c0,0 0.99635,4.52332 -4.9653,7.68554z" data-paper-data="{&quot;origRot&quot;:0,&quot;origPos&quot;:null,&quot;index&quot;:null}" fill="#ffd499" stroke="#806c4d" stroke-width="2" stroke-linecap="butt"/><path d="M198.44014,145.80568c0,0 -9.40784,13.86773 -8.01718,44.54631c1.39068,30.67858 18.99274,53.61172 18.99274,53.61172c0,0 -3.13575,4.35492 -6.06653,5.84398c-2.93078,1.48906 -8.99438,1.8081 -8.99438,1.8081c0,0 -16.56217,-25.39912 -21.82888,-57.15751c-0.26357,-25.60156 8.2877,-65.6664 14.31397,-72.88321c2.00876,-2.40561 9.57891,-1.1611 9.57891,-1.1611z" data-paper-data="{&quot;origPos&quot;:null,&quot;index&quot;:null,&quot;origRot&quot;:0}" id="ID0.5423141438513994" fill="#000000" stroke="#000000" stroke-width="2.54325" stroke-linecap="round"/><path d="M253.50148,248.20654c-3.75892,-2.69481 -2.33426,-6.95238 -2.33426,-6.95238l9.06903,-13.6663l10.03547,9.01736l-8.37172,13.39017c0,0 -3.63459,2.38409 -8.3985,-1.78886z" data-paper-data="{&quot;origRot&quot;:0,&quot;origPos&quot;:null,&quot;index&quot;:null}" fill="#ffd499" stroke="#806c4d" stroke-width="2" stroke-linecap="butt"/><path d="M252.27063,119.16336c0,0 7.20473,-2.63582 9.62726,-0.64752c7.26758,5.96495 17.11606,42.22953 21.63646,67.43022c6.64916,31.06319 -16.40773,58.25167 -16.40773,58.25167l-13.89502,-12.834c0,0 18.65245,-14.8104 14.29155,-45.20928c-4.36094,-30.39888 -12.49815,-41.66839 -12.49815,-41.66839z" data-paper-data="{&quot;origPos&quot;:null,&quot;index&quot;:null,&quot;origRot&quot;:0}" id="ID0.5423141438513994" fill="#000000" stroke="#000000" stroke-width="2.54325" stroke-linecap="round"/></g></g></svg>