<svg version="1.1" xmlns="http://www.w3.org/2000/svg" xmlns:xlink="http://www.w3.org/1999/xlink" width="528.96682" height="368.61787" viewBox="0,0,528.96682,368.61787"><g transform="translate(48.61003,3.93394)"><g data-paper-data="{&quot;isPaintingLayer&quot;:true}" fill-rule="nonzero" stroke-linejoin="miter" stroke-miterlimit="10" stroke-dasharray="" stroke-dashoffset="0" style="mix-blend-mode: normal"><path d="M-0.87369,363.93393v-367.86787h480.48048v367.86787z" data-paper-data="{&quot;origPos&quot;:null}" fill="#00e7e7" stroke="none" stroke-width="NaN" stroke-linecap="butt"/><g data-paper-data="{&quot;origPos&quot;:null,&quot;origRot&quot;:0}"><path d="M19.71958,154.53952c-0.31103,-2.17608 1.61856,-3.08699 1.61856,-3.08699l9.29223,-0.63822l0.52885,6.55749l-9.29223,0.63822c0,0 -2.01324,-0.46353 -2.1474,-3.47051z" data-paper-data="{&quot;origRot&quot;:0,&quot;origPos&quot;:null,&quot;index&quot;:null}" fill="#ffd499" stroke="#806c4d" stroke-width="2" stroke-linecap="butt"/><path d="M77.53037,140.04256c0,0 1.1868,2.76194 0.46117,3.75268c-2.17688,2.97221 -14.0443,7.03657 -23.80647,9.34923c-9.76216,2.31265 -28.43829,5.0577 -28.43829,5.0577c0,0 -0.36769,-2.17825 -0.50031,-3.58918c-0.13203,-1.40464 -0.17779,-3.62536 -0.17779,-3.62536c0,0 14.77526,-1.16663 26.57465,-3.52911c11.79939,-2.36248 16.03898,-5.79165 16.03898,-5.79165z" data-paper-data="{&quot;origPos&quot;:null,&quot;index&quot;:null,&quot;origRot&quot;:0}" id="ID0.5423141438513994" fill="#7e7e7e" stroke="#000000" stroke-width="2.54325" stroke-linecap="round"/><path d="M-35.05811,145.10582c0,0 18.80223,-5.89406 31.52581,-6.77166c8.04883,-0.55516 21.18954,5.80499 20.89505,1.63586c-0.50706,-5.6845 -12.31003,-11.70833 -21.10897,-12.05714c-11.99204,-0.4754 -31.38291,8.09198 -31.38291,8.09198l-0.12243,-7.65865c0,0 19.43072,-7.59107 31.4579,-7.30971c11.24736,0.26312 28.1802,8.70487 28.1802,8.70487l0.53436,21.18606c0,0 -17.134,-3.93408 -28.05284,-3.63798c-12.54008,0.34006 -32.05773,5.26805 -32.05773,5.26805z" data-paper-data="{&quot;origPos&quot;:null,&quot;index&quot;:null}" fill="#4232a1" stroke="#000000" stroke-width="2.5" stroke-linecap="butt"/><path d="M15.32067,123.57366c-0.82714,-2.89409 0.93489,-3.97263 0.93489,-3.97263l9.01436,-2.34398l1.57973,6.3863l-9.01436,2.34398c0,0 -2.11893,-0.25138 -2.51463,-2.41368z" data-paper-data="{&quot;origRot&quot;:0,&quot;origPos&quot;:null,&quot;index&quot;:null}" fill="#ffd499" stroke="#806c4d" stroke-width="2" stroke-linecap="butt"/><path d="M64.88918,120.55814c0,0 -7.15693,-0.00019 -19.09607,1.50441c-11.93914,1.5046 -24.27258,3.18161 -24.27258,3.18161c0,0 -0.66142,-2.12042 -0.98203,-3.49434c-0.32205,-1.38007 -0.66471,-3.5624 -0.66471,-3.5624c0,0 16.53358,-1.41826 26.52501,-2.32353c9.99144,-0.90526 24.58341,-2.72367 27.59107,-0.59604c1.00256,0.70922 0.75371,3.70503 0.75371,3.70503z" data-paper-data="{&quot;origPos&quot;:null,&quot;index&quot;:null,&quot;origRot&quot;:0}" id="ID0.5423141438513994" fill="#7e7e7e" stroke="#000000" stroke-width="2.54325" stroke-linecap="round"/><path d="M20.54603,128.20192l53.9284,-8.7851l3.49051,21.42691l-53.9284,8.7851z" data-paper-data="{&quot;origPos&quot;:null,&quot;origRot&quot;:0}" fill="#7e7e7e" stroke="#000000" stroke-width="2.54325" stroke-linecap="butt"/><path d="M-45.83682,138.11935l4.76823,-1.31148c0,0 4.74509,3.9504 6.41269,7.03022c1.79603,3.31698 3.4032,9.102 3.4032,9.102l-9.76873,2.68685z" data-paper-data="{&quot;origPos&quot;:null,&quot;index&quot;:null,&quot;origRot&quot;:0}" fill="#666666" stroke="#000000" stroke-width="2.54325" stroke-linecap="butt"/><path d="M-46.93783,120.85932l4.31432,-1.86803c0,0 5.4744,3.15163 7.55604,5.96818c2.24192,3.03343 4.64176,8.53711 4.64176,8.53711l-9.29739,4.02561z" data-paper-data="{&quot;origPos&quot;:null,&quot;index&quot;:null,&quot;origRot&quot;:0}" fill="#666666" stroke="#000000" stroke-width="2.54325" stroke-linecap="butt"/><path d="M74.30215,125.03742l-12.96866,2.02226" data-paper-data="{&quot;origPos&quot;:null,&quot;origRot&quot;:0}" fill="none" stroke="#3b3b3b" stroke-width="5" stroke-linecap="round"/><path d="M58.64042,137.94908l17.3011,-2.63768" data-paper-data="{&quot;origPos&quot;:null,&quot;origRot&quot;:0}" fill="none" stroke="#3b3b3b" stroke-width="5" stroke-linecap="round"/><path d="M112.76344,118.44824c1.63259,5.27381 1.00238,10.7067 -1.33464,15.22372c-2.33744,4.5172 -8.21166,7.19599 -13.40601,8.8059c-5.1943,1.60989 -9.63479,0.63036 -14.11491,-1.77385c-4.47961,-2.40432 -7.74923,-7.13333 -8.80055,-10.58487c-1.05135,-3.45161 -0.10168,-9.48832 2.23534,-14.00532c2.22712,-4.30387 5.98634,-6.65185 10.00724,-8.22364c5.83583,-2.28126 11.23215,-3.64948 15.7122,-1.2453c4.47961,2.40431 8.06869,6.52948 9.7013,11.80337z" data-paper-data="{&quot;origPos&quot;:null,&quot;origRot&quot;:0}" id="ID0.7719937418587506" fill="#ffd499" stroke="#806c4d" stroke-width="2.5" stroke-linecap="butt"/><path d="M67.49666,140.92148l9.20113,-1.34387l0.70575,2.8304l-9.77241,1.59196z" data-paper-data="{&quot;origPos&quot;:null,&quot;origRot&quot;:0}" fill="#7e7e7e" stroke="none" stroke-width="0" stroke-linecap="butt"/><path d="M64.00084,119.43922l9.56447,-1.55808l0.23412,2.90723l-8.95667,1.6141z" data-paper-data="{&quot;origPos&quot;:null,&quot;index&quot;:null,&quot;origRot&quot;:0}" fill="#7e7e7e" stroke="none" stroke-width="0" stroke-linecap="butt"/><path d="M36.61552,130.55736c0,0 -0.11859,0.59603 -3.22787,0.87648c-2.39082,0.21565 -2.56225,-0.03545 -2.56225,-0.03545" data-paper-data="{&quot;origPos&quot;:null,&quot;origRot&quot;:0}" fill="none" stroke="#616161" stroke-width="5" stroke-linecap="round"/><path d="M32.45795,142.67453c0,0 0.08287,-0.29253 2.41852,-0.84684c3.03753,-0.72088 3.33916,-0.19331 3.33916,-0.19331" data-paper-data="{&quot;origPos&quot;:null,&quot;index&quot;:null,&quot;origRot&quot;:0}" fill="none" stroke="#616161" stroke-width="5" stroke-linecap="round"/><path d="M88.11996,135.39285c0,0 2.82956,-0.94936 4.66436,-1.48263c1.00781,-0.29291 2.46722,-0.79063 2.46722,-0.79063" data-paper-data="{&quot;origPos&quot;:null,&quot;origRot&quot;:0}" id="ID0.21129454905167222" fill="none" stroke="#000000" stroke-width="2.5" stroke-linecap="round"/><path d="M106.43129,142.72844l-6.70475,-3.7164l5.04147,-5.544l-7.69878,-4.429l3.70397,-5.65798l-6.95594,-5.09338l4.41511,-3.99528l-8.17181,-9.78135l9.09533,0.35759l-1.06243,-3.33076l9.77694,5.13811l1.38577,-1.58879l6.21291,8.79783l0.89786,-0.74511l2.18406,11.00037l1.16347,0.0876l-1.69323,8.33811l0.98015,1.29283l-5.54309,6.35518l0.59762,1.87356z" data-paper-data="{&quot;origPos&quot;:null,&quot;index&quot;:null,&quot;origRot&quot;:0}" fill="#2400ea" stroke="#000000" stroke-width="3" stroke-linecap="round"/><path d="M83.50016,115.84795c0,0 2.82956,-0.94936 4.66436,-1.48263c1.00781,-0.29291 2.46722,-0.79063 2.46722,-0.79063" data-paper-data="{&quot;origPos&quot;:null,&quot;origRot&quot;:0}" id="ID0.21129454905167222" fill="none" stroke="#000000" stroke-width="2.5" stroke-linecap="round"/><path d="M87.83279,122.48553l1.25852,3.9455" data-paper-data="{&quot;origPos&quot;:null,&quot;origRot&quot;:0}" fill="none" stroke="#000000" stroke-width="2" stroke-linecap="round"/></g><path d="M-2.37519,363.93393v-91.59159h481.98198v91.59159z" data-paper-data="{&quot;origPos&quot;:null}" fill="#31c700" stroke="#000000" stroke-width="1.5" stroke-linecap="butt"/><path d="M-3.75938,291.84963v-294.29429h79.57958v294.29429z" fill="#dde983" stroke="#000000" stroke-width="1.5" stroke-linecap="butt"/><path d="M-12.76839,186.74452v-131.33133h61.56156v131.33133z" data-paper-data="{&quot;origPos&quot;:null}" fill="#91b8c7" stroke="#000000" stroke-width="3" stroke-linecap="butt"/><path d="M-12.72933,119.75h60.5" data-paper-data="{&quot;origPos&quot;:null}" fill="none" stroke="#000000" stroke-width="3.5" stroke-linecap="round"/><path d="M15.77067,185l0.5,-130" data-paper-data="{&quot;origPos&quot;:null}" fill="none" stroke="#000000" stroke-width="3.5" stroke-linecap="round"/><path d="M101.73161,157.24451l20.01615,-7.17629l8.22576,-9.7048l0.81965,11.74179z" data-paper-data="{&quot;origPos&quot;:null}" fill="#91b8c7" stroke="#000000" stroke-width="1.5" stroke-linecap="butt"/><path d="M81.82712,175.28942l3,-7l-3,-7h11.5l-1,6.5z" data-paper-data="{&quot;origPos&quot;:null}" fill="#91b8c7" stroke="#000000" stroke-width="1.5" stroke-linecap="butt"/><path d="M87.82712,141.28942l6,-6.5l8.5,-4l2.5,6.5l-6.71148,1.22623z" data-paper-data="{&quot;origPos&quot;:null}" fill="#91b8c7" stroke="#000000" stroke-width="1.5" stroke-linecap="butt"/><path d="M77.32712,107.78942l2.5,-10.5l8,-1.5l0.5,6l-4.05732,1.3949z" data-paper-data="{&quot;origPos&quot;:null}" fill="#91b8c7" stroke="#000000" stroke-width="1.5" stroke-linecap="butt"/><path d="M96.82712,100.78942l0.64286,-4.5l-2.14286,-5l4,-2l4.21428,2l-0.71429,4.64286z" data-paper-data="{&quot;origPos&quot;:null}" fill="#91b8c7" stroke="#000000" stroke-width="1.5" stroke-linecap="butt"/></g></g></svg>