<svg version="1.1" xmlns="http://www.w3.org/2000/svg" xmlns:xlink="http://www.w3.org/1999/xlink" width="423.90299" height="294.45998" viewBox="0,0,423.90299,294.45998"><defs><radialGradient cx="248.50414" cy="237.14199" r="102.08147" gradientUnits="userSpaceOnUse" id="color-1"><stop offset="0" stop-color="#00ffff"/><stop offset="1" stop-color="#003fff"/></radialGradient><linearGradient x1="255.61677" y1="283.74329" x2="279.3263" y2="283.75757" gradientUnits="userSpaceOnUse" id="color-2"><stop offset="0" stop-color="#3b3b3b"/><stop offset="1" stop-color="#000000"/></linearGradient><linearGradient x1="207.95243" y1="281.51398" x2="258.31299" y2="290.3999" gradientUnits="userSpaceOnUse" id="color-3"><stop offset="0" stop-color="#000000"/><stop offset="1" stop-color="#3b3b3b"/></linearGradient><radialGradient cx="232.87385" cy="153.67482" r="54.55912" gradientUnits="userSpaceOnUse" id="color-4"><stop offset="0" stop-color="#b6b6b6"/><stop offset="1" stop-color="#666666"/></radialGradient><radialGradient cx="241.54459" cy="159.91219" r="16.49355" gradientUnits="userSpaceOnUse" id="color-5"><stop offset="0" stop-color="#ff0000"/><stop offset="1" stop-color="#ff0000" stop-opacity="0"/></radialGradient><radialGradient cx="242.26153" cy="161.91182" r="10.77795" gradientUnits="userSpaceOnUse" id="color-6"><stop offset="0" stop-color="#ff0000"/><stop offset="1" stop-color="#d20000"/></radialGradient><linearGradient x1="200.48785" y1="84.62941" x2="325.87109" y2="92.0141" gradientUnits="userSpaceOnUse" id="color-7"><stop offset="0" stop-color="#cc7700"/><stop offset="1" stop-color="#946f48"/></linearGradient></defs><g transform="translate(-124.41079,-84.58801)"><g data-paper-data="{&quot;isPaintingLayer&quot;:true}" fill-rule="nonzero" stroke-linejoin="miter" stroke-miterlimit="10" stroke-dasharray="" stroke-dashoffset="0" style="mix-blend-mode: normal"><g data-paper-data="{&quot;origPos&quot;:null}" stroke="#000000"><path d="M222.344,205.97317l53.66731,0.70567l-0.67187,144.12643l-52.79636,-0.70518z" data-paper-data="{&quot;origPos&quot;:null,&quot;index&quot;:null,&quot;origRot&quot;:0}" id="ID0.9171315478160977" fill="url(#color-1)" stroke-width="2.54325" stroke-linecap="butt"/><g data-paper-data="{&quot;origPos&quot;:null,&quot;index&quot;:null,&quot;origRot&quot;:0}" stroke-width="0" stroke-linecap="butt"><path d="M249.65103,285.37277l-4.7769,0.07447l6.92835,-21.60632l-5.35347,0.56259l5.2968,-17.85244l17.05988,-0.5308l-6.01506,13.52338l3.65766,-0.19863l-6.98624,20.63434l3.19128,0.293l-20.07786,32.28491z" data-paper-data="{&quot;index&quot;:null,&quot;origPos&quot;:null}" fill="#ffde00"/><path d="M248.21134,282.12544l-4.7769,0.07447l6.92837,-21.60632l-5.35347,0.56259l5.29681,-17.85244l17.05988,-0.5308l-6.01506,13.52338l3.65766,-0.19863l-6.98623,20.63434l3.19128,0.293l-18.63635,32.55635z" data-paper-data="{&quot;index&quot;:null,&quot;origPos&quot;:null}" fill="#ff0000"/><path d="M245.3282,281.85318l-4.77692,0.07447l6.92837,-21.60632l-5.35347,0.56259l5.29681,-17.85244l17.05988,-0.5308l-6.01506,13.52338l3.65766,-0.19864l-6.98623,20.63434l3.19127,0.293l-15.75205,30.93484z" data-paper-data="{&quot;index&quot;:null,&quot;origPos&quot;:null}" fill="#000000"/></g><path d="M255.65803,215.3814c0,0 6.72983,-3.3058 11.03735,-5.56106c4.3139,-2.2586 11.05276,-4.04543 11.05276,-4.04543c0,0 0.66121,22.03275 0.66475,24.76914c0.0409,31.29329 0.86679,130.49027 0.86679,130.49027l-21.38022,1.01875z" data-paper-data="{&quot;origPos&quot;:null,&quot;index&quot;:null,&quot;origRot&quot;:0}" id="ID0.5423141438513994" fill="url(#color-2)" stroke-width="2.54325" stroke-linecap="round"/><path d="M245.53502,362.81844l-26.40704,-1.58667c0,0 1.3692,-98.7281 1.44665,-130.02132c0.00677,-2.73644 0.68156,-25.09497 0.68156,-25.09497c0,0 7.1408,2.0175 11.71072,4.21469c3.87809,1.86456 14.47108,5.35991 14.47108,5.35991z" data-paper-data="{&quot;origPos&quot;:null,&quot;index&quot;:null,&quot;origRot&quot;:0}" id="ID0.5423141438513994" fill="url(#color-3)" stroke-width="2.54325" stroke-linecap="round"/><path d="M265.0797,339.97604c-2.15849,0.25409 -5.5357,-0.26519 -5.5357,-0.26519l-0.51549,-25.04235c0,0 1.50026,0.26019 2.45836,0.03574c1.12475,-0.26345 2.87885,-1.28597 2.87885,-1.28597l6.05009,25.01277c0,0 -3.25171,1.29961 -5.33611,1.54497z" data-paper-data="{&quot;origPos&quot;:null,&quot;index&quot;:null,&quot;origRot&quot;:0}" fill="#1f1f1f" stroke-width="0" stroke-linecap="butt"/><path d="M263.67865,314.38248c0,0 2.43691,6.78142 3.56771,10.99362c1.32038,4.91832 2.71314,12.40223 2.71314,12.40223" data-paper-data="{&quot;origPos&quot;:null,&quot;origRot&quot;:0,&quot;index&quot;:null}" fill="none" stroke-width="2.54325" stroke-linecap="round"/><path d="M233.20343,338.91201l5.78251,-25.07598c0,0 1.76489,1.00369 2.89242,1.25515c0.96048,0.21418 2.45787,-0.06199 2.45787,-0.06199l-0.24789,25.0464c0,0 -3.37147,0.55534 -5.53255,0.3243c-2.0869,-0.22309 -5.35231,-1.48788 -5.35231,-1.48788z" data-paper-data="{&quot;origPos&quot;:null,&quot;origRot&quot;:0}" fill="#1f1f1f" stroke-width="0" stroke-linecap="butt"/><path d="M232.69696,337.95416c0,0 1.69316,-7.73628 2.96089,-12.66842c1.08572,-4.22406 3.06959,-10.7932 3.06959,-10.7932" data-paper-data="{&quot;origPos&quot;:null,&quot;origRot&quot;:0}" fill="none" stroke-width="2.54325" stroke-linecap="round"/></g><path d="M178.24474,349.20048l-51.05406,-41.96306l358.97388,-1.23422l59.03126,41.96308z" data-paper-data="{&quot;origPos&quot;:null}" fill="#90704e" stroke="#000000" stroke-width="2" stroke-linecap="butt"/><path d="M154.58146,326.84421l21.14864,-1.84989l3.02389,3.37388l-20.69411,2.58978z" data-paper-data="{&quot;origPos&quot;:null,&quot;origRot&quot;:0}" fill="#ff2e2e" stroke="#000000" stroke-width="2" stroke-linecap="butt"/><path d="M194.63941,332.10663l-20.76251,-1.96756l2.92128,-3.4631l21.19464,1.21435z" data-paper-data="{&quot;origPos&quot;:null,&quot;origRot&quot;:0,&quot;index&quot;:null}" fill="#ffffff" stroke="#000000" stroke-width="2" stroke-linecap="butt"/><path d="M213.98862,333.74977l-17.42198,-3.21845l2.03935,-6.4957l17.85783,2.73284z" data-paper-data="{&quot;origPos&quot;:null,&quot;origRot&quot;:0,&quot;index&quot;:null}" fill="#ffffff" stroke="#000000" stroke-width="2" stroke-linecap="butt"/><path d="M204.45015,331.21621l-19.9668,-6.49795l-1.8966,-3.80612l19.743,5.74179z" data-paper-data="{&quot;origPos&quot;:null,&quot;origRot&quot;:0}" fill="#ff2e2e" stroke="#000000" stroke-width="2" stroke-linecap="butt"/><path d="M169.82365,321.77424l20.81422,-1.35647l-2.21383,4.95933l-21.09568,2.39726z" data-paper-data="{&quot;origPos&quot;:null,&quot;origRot&quot;:0,&quot;index&quot;:null}" fill="#ffffff" stroke="#000000" stroke-width="2" stroke-linecap="butt"/><path d="M184.09578,321.18632l20.90811,1.93585l2.68908,3.2943l-20.52311,-1.24764z" data-paper-data="{&quot;origPos&quot;:null,&quot;origRot&quot;:0}" fill="#ff2e2e" stroke="#000000" stroke-width="2" stroke-linecap="butt"/><path d="M220.66863,331.44932l-21.25813,-2.08526l-2.12059,-4.28725l20.99815,1.18565z" data-paper-data="{&quot;origPos&quot;:null,&quot;origRot&quot;:0}" fill="#ff2e2e" stroke="#000000" stroke-width="2" stroke-linecap="butt"/><g data-paper-data="{&quot;origRot&quot;:0,&quot;origPos&quot;:null}" stroke="#000000"><path d="M147.79142,319.35126l-0.06289,-8.75343l34.94199,-0.25115l0.06289,8.75343z" data-paper-data="{&quot;origPos&quot;:null}" fill="#ffffff" stroke-width="1" stroke-linecap="butt"/><path d="M142.39179,316.82731l-0.10125,-9.09647l5.83576,3.30122l-0.26386,8.21102z" data-paper-data="{&quot;origPos&quot;:null}" fill="#ffffff" stroke-width="1" stroke-linecap="butt"/><path d="M148.33817,310.56334l-5.36703,-2.98092l34.15521,0.09408l4.79002,2.56788z" data-paper-data="{&quot;origPos&quot;:null}" fill="#ffffff" stroke-width="1" stroke-linecap="butt"/><path d="M149.66147,317.47225l-0.0382,-5.30946l31.1393,-0.22385l0.0382,5.30946z" data-paper-data="{&quot;origPos&quot;:null}" fill="#ff2e2e" stroke-width="0" stroke-linecap="butt"/><path d="M148.59892,309.40753l-0.72212,-0.64059l28.12685,-0.05866l1.29512,0.49295z" data-paper-data="{&quot;origPos&quot;:null}" fill="#ff2e2e" stroke-width="0" stroke-linecap="butt"/><path d="M147.44345,314.99705l-4.60639,-1.97598" data-paper-data="{&quot;origPos&quot;:null}" fill="none" stroke-width="0.5" stroke-linecap="round"/></g><path d="M205.8934,305.54171l10.71554,-17.71878l21.1831,13.34347c0,0 -0.18689,9.08764 -3.46546,13.36266c-3.27855,4.27502 -12.2924,7.18446 -12.2924,7.18446z" data-paper-data="{&quot;origRot&quot;:0,&quot;origPos&quot;:null,&quot;index&quot;:null}" fill="#ffd499" stroke="#806c4d" stroke-width="2" stroke-linecap="butt"/><path d="M222.26596,233.0727c0,0 -23.81556,16.2536 -25.25013,28.64786c0.55595,8.11238 33.28944,35.40377 33.28944,35.40377c0,0 -2.15364,8.19463 -5.1511,12.56544c-2.99745,4.37082 -9.0288,8.11135 -9.0288,8.11135c0,0 -39.46731,-39.69298 -43.47485,-51.4101c-2.82786,-8.26803 27.43061,-48.9652 42.0518,-60.47395c2.51484,-2.11907 10.11004,0.5488 10.11004,0.5488z" data-paper-data="{&quot;origPos&quot;:null,&quot;index&quot;:null,&quot;origRot&quot;:0}" id="ID0.5423141438513994" fill="#000000" stroke="#000000" stroke-width="2.54325" stroke-linecap="round"/><path d="M176.6493,378.04799v-31.06592h368.54652v31.06592z" data-paper-data="{&quot;origPos&quot;:null}" fill="#90704e" stroke="#000000" stroke-width="2" stroke-linecap="butt"/><path d="M271.59918,319.55215c0,0 -8.68465,-3.78035 -11.52766,-8.35659c-2.84302,-4.57625 -2.13681,-13.63834 -2.13681,-13.63834l22.39079,-11.19931l8.92418,18.6852z" data-paper-data="{&quot;origRot&quot;:0,&quot;origPos&quot;:null,&quot;index&quot;:null}" fill="#ffd499" stroke="#806c4d" stroke-width="2" stroke-linecap="butt"/><path d="M280.14914,204.58852c0,0 7.82043,-1.90931 10.11507,0.44643c13.42065,12.88862 38.01416,58.21931 34.38822,66.16976c-5.13854,11.26706 -46.7889,45.03404 -46.7889,45.03404c0,0 -5.63497,-4.31461 -8.18883,-8.95859c-2.55386,-4.64398 -3.89257,-13.01046 -3.89257,-13.01046c0,0 34.85758,-23.31512 36.20731,-31.33373c-0.21081,-12.47522 -21.9184,-31.61917 -21.9184,-31.61917z" data-paper-data="{&quot;origPos&quot;:null,&quot;index&quot;:null,&quot;origRot&quot;:0}" id="ID0.5423141438513994" fill="#000000" stroke="#000000" stroke-width="2.54325" stroke-linecap="round"/><path d="M327.69413,329.66348l-3.0073,-23.79396l5.06349,5.02099l5.78113,24.6188z" data-paper-data="{&quot;origPos&quot;:null,&quot;origRot&quot;:0,&quot;index&quot;:null}" fill="#ff2e2e" stroke="#000000" stroke-width="2" stroke-linecap="butt"/><path d="M310.37459,329.31291l14.62456,-24.14395l5.56863,5.61322l-13.30958,25.11706z" data-paper-data="{&quot;origPos&quot;:null,&quot;origRot&quot;:0,&quot;index&quot;:null}" fill="#ffffff" stroke="#000000" stroke-width="2" stroke-linecap="butt"/><path d="M307.38884,329.47738l-3.0073,-23.79396l5.06349,5.02099l5.78113,24.6188z" data-paper-data="{&quot;origPos&quot;:null,&quot;origRot&quot;:0,&quot;index&quot;:null}" fill="#ff2e2e" stroke="#000000" stroke-width="2" stroke-linecap="butt"/><path d="M290.0693,329.1268l14.62457,-24.14395l5.56863,5.61322l-13.30958,25.11706z" data-paper-data="{&quot;origPos&quot;:null,&quot;origRot&quot;:0,&quot;index&quot;:null}" fill="#ffffff" stroke="#000000" stroke-width="2" stroke-linecap="butt"/><path d="M288.15125,329.32916l-3.0073,-23.79396l5.06349,5.02099l5.78113,24.6188z" data-paper-data="{&quot;origPos&quot;:null,&quot;origRot&quot;:0,&quot;index&quot;:null}" fill="#ff2e2e" stroke="#000000" stroke-width="2" stroke-linecap="butt"/><path d="M270.83172,328.97859l14.62457,-24.14395l5.56863,5.61322l-13.30958,25.11706z" data-paper-data="{&quot;origPos&quot;:null,&quot;origRot&quot;:0,&quot;index&quot;:null}" fill="#ffffff" stroke="#000000" stroke-width="2" stroke-linecap="butt"/><path d="M267.84596,329.14306l-3.0073,-23.79396l5.06349,5.02099l5.78113,24.6188z" data-paper-data="{&quot;origPos&quot;:null,&quot;origRot&quot;:0,&quot;index&quot;:null}" fill="#ff2e2e" stroke="#000000" stroke-width="2" stroke-linecap="butt"/><path d="M250.52643,328.79249l14.62457,-24.14395l5.56863,5.61322l-13.30958,25.11706z" data-paper-data="{&quot;origPos&quot;:null,&quot;origRot&quot;:0,&quot;index&quot;:null}" fill="#ffffff" stroke="#000000" stroke-width="2" stroke-linecap="butt"/><g data-paper-data="{&quot;origPos&quot;:null,&quot;origRot&quot;:0}"><path d="M257.85469,106.47836c14.75875,0.86673 27.784,7.5564 36.90509,17.66399c9.12109,10.10878 9.02023,25.01654 6.82687,41.65199c-1.51122,11.46188 -5.20831,22.7405 -14.97244,31.28834c-10.2479,8.97012 -25.336,15.3064 -34.98423,14.7837c-9.64805,-0.52264 -24.03866,-5.99489 -33.15981,-16.10246c-9.12121,-10.10896 -14.51264,-21.0275 -13.65402,-35.56478c0.85865,-14.53738 4.0611,-31.52731 14.30925,-40.49863c10.24795,-8.97015 23.9706,-14.08896 38.72922,-13.22222z" data-paper-data="{&quot;origPos&quot;:null,&quot;origRot&quot;:0}" id="ID0.7719937418587506" fill="#ffd499" stroke="#806c4d" stroke-width="2.5" stroke-linecap="butt"/><path d="M260.99718,109.54009c5.5372,0.52837 2.90632,10.88964 2.88722,16.45169c-0.04446,12.59764 2.68128,27.22314 -3.14242,38.80516c-4.94374,8.97907 -15.10552,15.03716 -25.01759,17.37891c-10.72105,2.11079 -21.77721,2.21324 -25.79369,-3.80548c-6.4208,-17.88351 -0.5471,-42.91336 11.7913,-57.78965c10.77032,-12.11331 23.17271,-12.57 39.27515,-11.04062z" data-paper-data="{&quot;origPos&quot;:null,&quot;origRot&quot;:0}" id="ID0.479907026514411" fill="url(#color-4)" stroke="#666666" stroke-width="2.5" stroke-linecap="round"/><path d="M280.32565,155.98396c-0.21129,5.11238 -1.27385,16.15757 -1.27385,16.15757" data-paper-data="{&quot;origPos&quot;:null,&quot;origRot&quot;:0}" id="ID0.21129454905167222" fill="none" stroke="#000000" stroke-width="2.5" stroke-linecap="round"/><path d="M262.95553,194.05366l-14.94088,-1.00589" data-paper-data="{&quot;origPos&quot;:null,&quot;index&quot;:null,&quot;origRot&quot;:0}" fill="none" stroke="#000000" stroke-width="2" stroke-linecap="round"/><path d="M225.08831,158.80423c0.61191,-9.08852 8.47566,-15.96025 17.5642,-15.34838c9.08854,0.61191 15.96025,8.47566 15.34838,17.5642c-0.61191,9.08852 -8.47566,15.96025 -17.5642,15.34838c-9.08854,-0.61191 -15.96025,-8.47566 -15.34838,-17.5642z" data-paper-data="{&quot;origPos&quot;:null,&quot;origRot&quot;:0}" fill="url(#color-5)" stroke="none" stroke-width="0" stroke-linecap="butt"/><path d="M230.61703,159.34017c0.39983,-5.93904 5.53853,-10.42948 11.47758,-10.02962c5.93904,0.39983 10.42948,5.53853 10.02962,11.47758c-0.39983,5.93904 -5.53853,10.42948 -11.47758,10.02962c-5.93904,-0.39983 -10.42948,-5.53853 -10.02962,-11.47758z" data-paper-data="{&quot;origPos&quot;:null,&quot;origRot&quot;:0}" fill="url(#color-6)" stroke="#666666" stroke-width="2" stroke-linecap="butt"/><path d="M208.61416,179.9427c0,0 4.94672,-22.02799 10.00874,-36.27872c3.3475,-9.42403 11.51042,-23.95049 11.51042,-23.95049l32.11093,9.18967l0.16955,4.7558c0,0 -8.95639,-1.49889 -13.89375,-2.34213c-4.5626,-0.77921 -8.97376,-4.17847 -13.01461,-1.92097c-7.39966,4.13396 -7.94087,12.72156 -10.83411,20.68856c-3.90904,10.76406 -7.52026,31.02307 -7.52026,31.02307z" data-paper-data="{&quot;origRot&quot;:0,&quot;origPos&quot;:null}" fill="#7a7a7a" stroke="none" stroke-width="0" stroke-linecap="butt"/><path d="M265.32543,133.84318l0.04646,-4.5797l32.77403,2.34324c0,0 -6.99317,2.76559 -13.93215,2.7283c-6.99072,-0.03764 -18.62707,-0.46847 -18.62707,-0.46847z" data-paper-data="{&quot;origPos&quot;:null,&quot;origRot&quot;:0}" fill="#b0936a" stroke="none" stroke-width="0" stroke-linecap="butt"/><path d="M210.68916,182.42381l5.32063,1.45601l-1.03438,5.90627z" data-paper-data="{&quot;origPos&quot;:null,&quot;origRot&quot;:0}" fill="#b0936a" stroke="none" stroke-width="0" stroke-linecap="butt"/><path d="M266.7526,88.53216c13.8539,1.04124 21.56152,2.74108 35.34941,4.44682c7.9835,0.98767 23.74527,2.20835 23.74527,2.20835c0,0 -10.405,4.95182 -12.31369,5.32318c-3.54015,0.6888 -9.88781,2.4421 -9.88781,2.4421c0,0 4.80879,1.58111 8.17076,3.13231c3.61445,1.66771 9.22688,3.37936 9.22688,3.37936c0,0 -5.90016,2.05244 -9.58795,2.73174c-4.60688,0.84859 -10.90949,3.14235 -10.90949,3.14235c0,0 6.89393,4.19141 12.23495,5.75572c5.37114,1.57309 12.34686,4.60126 12.34686,4.60126c0,0 -10.4341,4.82683 -17.02115,5.36081c-16.61499,1.34888 -33.29697,-2.54533 -49.93555,-3.50662c-10.14337,-0.58735 -24.57516,-8.59161 -30.29226,0.10091c-14.96823,21.43986 -18.12959,78.12402 -21.9438,75.99433c-3.81438,-2.12985 -11.14512,-62.35044 -4.61267,-92.56493c2.52632,-11.67664 13.82842,-17.7784 27.7725,-22.47149c13.94407,-4.693 25.32503,-0.76624 37.65781,-0.07626z" data-paper-data="{&quot;origPos&quot;:null,&quot;origRot&quot;:0}" id="ID0.5302143599838018" fill="url(#color-7)" stroke="#a96300" stroke-width="3.5" stroke-linecap="round"/></g><path d="M248.51263,328.47639l-3.0073,-23.79395l5.06349,5.02099l5.78113,24.6188z" data-paper-data="{&quot;origPos&quot;:null,&quot;origRot&quot;:0,&quot;index&quot;:null}" fill="#ff2e2e" stroke="#000000" stroke-width="2" stroke-linecap="butt"/><path d="M231.19309,328.12582l14.62456,-24.14395l5.56863,5.61323l-13.30958,25.11706z" data-paper-data="{&quot;origPos&quot;:null,&quot;origRot&quot;:0,&quot;index&quot;:null}" fill="#ffffff" stroke="#000000" stroke-width="2" stroke-linecap="butt"/><path d="M287.27185,309.21465l-5.67568,-5.33333h20.43243l7.56757,5.66667z" data-paper-data="{&quot;origPos&quot;:null}" fill="#ffffff" stroke="#000000" stroke-width="2" stroke-linecap="butt"/><path d="M308.93852,309.54799l-5.67568,-5.33333h20.43243l7.56757,5.66667z" data-paper-data="{&quot;origPos&quot;:null}" fill="#ffffff" stroke="#000000" stroke-width="2" stroke-linecap="butt"/><path d="M265.30269,309.89872l-5.89189,-5.09346l20.41486,-0.84701l7.79598,5.34807z" data-paper-data="{&quot;origPos&quot;:null,&quot;origRot&quot;:0}" fill="#ffffff" stroke="#000000" stroke-width="2" stroke-linecap="butt"/></g></g></svg>