<svg version="1.1" xmlns="http://www.w3.org/2000/svg" xmlns:xlink="http://www.w3.org/1999/xlink" width="494.83612" height="368.61787"><g transform="translate(14.47933,3.93395)"><g data-paper-data="{&quot;isPaintingLayer&quot;:true}" fill-rule="nonzero" stroke-linejoin="miter" stroke-miterlimit="10" stroke-dasharray="" stroke-dashoffset="0" style="mix-blend-mode: normal"><path d="M-0.24024,363.93393v-367.86787h480.48048v367.86787z" data-paper-data="{&quot;origPos&quot;:null}" fill="#00e7e7" stroke="none" stroke-width="NaN" stroke-linecap="butt"/><g data-paper-data="{&quot;origPos&quot;:null,&quot;origRot&quot;:0}"><path d="M402.157,47.07706c0.75151,2.06575 -0.94976,3.35369 -0.94976,3.35369l-8.96283,2.53384l-1.8649,-6.30891l8.96283,-2.53384c0,0 2.06553,0.04 2.81466,2.95525z" data-paper-data="{&quot;origRot&quot;:0,&quot;origPos&quot;:null,&quot;index&quot;:null}" fill="#ffd499" stroke="#806c4d" stroke-width="2" stroke-linecap="butt"/><path d="M348.55829,73.14287c0,0 -1.72897,-2.45915 -1.22238,-3.57786c1.51974,-3.35608 12.29888,-9.77207 21.37758,-14.04118c9.0787,-4.2691 26.79235,-10.79289 26.79235,-10.79289c0,0 0.8074,2.05623 1.22709,3.40982c0.41782,1.34755 0.91889,3.51148 0.91889,3.51148c0,0 -14.22032,4.17755 -25.28255,8.91401c-11.06223,4.73645 -14.50679,8.96354 -14.50679,8.96354z" data-paper-data="{&quot;origPos&quot;:null,&quot;index&quot;:null,&quot;origRot&quot;:0}" id="ID0.5423141438513994" fill="#7e7e7e" stroke="#000000" stroke-width="2.54325" stroke-linecap="round"/><path d="M457.70428,45.05452c0,0 -17.19004,9.63153 -29.46184,13.10467c-7.76305,2.19707 -21.93017,-1.32741 -20.78534,2.69227c1.66421,5.45902 14.45304,8.92923 23.13592,7.46272c11.83385,-1.9987 29.05071,-14.36745 29.05071,-14.36745l1.69341,7.4701c0,0 -17.45645,11.42146 -29.28482,13.61727c-11.06145,2.05345 -29.36751,-2.72907 -29.36751,-2.72907l-4.87597,-20.62425c0,0 17.57675,0.32969 28.2018,-2.20355c12.20266,-2.90936 30.29135,-11.74243 30.29135,-11.74243z" data-paper-data="{&quot;origPos&quot;:null,&quot;index&quot;:null}" fill="#4232a1" stroke="#000000" stroke-width="2.5" stroke-linecap="butt"/><path d="M412.82451,76.47842c1.40413,2.6624 -0.09871,4.07996 -0.09871,4.07996l-8.34042,4.14611l-2.85818,-5.92547l8.34042,-4.14611c0,0 2.12538,-0.18935 2.95691,1.84551z" data-paper-data="{&quot;origRot&quot;:0,&quot;origPos&quot;:null,&quot;index&quot;:null}" fill="#ffd499" stroke="#806c4d" stroke-width="2" stroke-linecap="butt"/><path d="M364.93315,89.61424c0,0 7.00428,-1.47032 18.37954,-5.39591c11.37526,-3.92559 23.10099,-8.10092 23.10099,-8.10092c0,0 1.08297,1.93928 1.67905,3.21802c0.59874,1.28446 1.38249,3.34982 1.38249,3.34982c0,0 -15.88942,4.78508 -25.48167,7.72395c-9.59226,2.93885 -23.49928,7.71661 -26.87993,6.25235c-1.12689,-0.48809 -1.49888,-3.47112 -1.49888,-3.47112z" data-paper-data="{&quot;origPos&quot;:null,&quot;index&quot;:null,&quot;origRot&quot;:0}" id="ID0.5423141438513994" fill="#7e7e7e" stroke="#000000" stroke-width="2.54325" stroke-linecap="round"/><path d="M406.75968,73.02252l-50.97275,19.67812l-7.81853,-20.25258l50.97275,-19.67812z" data-paper-data="{&quot;origPos&quot;:null,&quot;origRot&quot;:0}" fill="#7e7e7e" stroke="#000000" stroke-width="2.54325" stroke-linecap="butt"/><path d="M469.6885,49.67728l-4.39703,2.26319c0,0 -5.45552,-2.89117 -7.72034,-5.56263c-2.43924,-2.87718 -5.20075,-8.20856 -5.20075,-8.20856l9.00825,-4.63666z" data-paper-data="{&quot;origPos&quot;:null,&quot;index&quot;:null,&quot;origRot&quot;:0}" fill="#666666" stroke="#000000" stroke-width="2.54325" stroke-linecap="butt"/><path d="M474.31235,66.34283l-3.83846,2.71462c0,0 -6.00515,-1.95959 -8.62109,-4.28834c-2.81735,-2.50806 -6.29681,-7.40124 -6.29681,-7.40124l8.27189,-5.85001z" data-paper-data="{&quot;origPos&quot;:null,&quot;index&quot;:null,&quot;origRot&quot;:0}" fill="#666666" stroke="#000000" stroke-width="2.54325" stroke-linecap="butt"/><path d="M367.07715,82.52084l-12.27647,4.64373" data-paper-data="{&quot;origPos&quot;:null,&quot;origRot&quot;:0}" fill="none" stroke="#3b3b3b" stroke-width="5" stroke-linecap="round"/><path d="M351.08532,77.44663l16.39002,-6.1362" data-paper-data="{&quot;origPos&quot;:null,&quot;origRot&quot;:0}" fill="none" stroke="#3b3b3b" stroke-width="5" stroke-linecap="round"/><path d="M318.51383,101.51567c-2.68134,-4.82584 -3.18086,-10.27232 -1.82179,-15.17313c1.35943,-4.90108 6.55793,-8.72968 11.31068,-11.3725c4.75269,-2.6428 9.2997,-2.59653 14.17822,-1.16413c4.87804,1.43262 9.04954,5.38894 10.7876,8.55083c1.73812,3.16195 2.04904,9.265 0.68997,14.16579c-1.2953,4.66964 -4.49189,7.73991 -8.10405,10.10433c-5.2426,3.43166 -10.24266,5.87944 -15.12111,4.44706c-4.87803,-1.43261 -9.23812,-4.73233 -11.91951,-9.55824z" data-paper-data="{&quot;origPos&quot;:null,&quot;origRot&quot;:0}" id="ID0.7719937418587506" fill="#ffd499" stroke="#806c4d" stroke-width="2.5" stroke-linecap="butt"/><path d="M358.19734,70.22112l-8.7287,3.20572l-1.27224,-2.62501l9.23681,-3.5659z" data-paper-data="{&quot;origPos&quot;:null,&quot;origRot&quot;:0}" fill="#7e7e7e" stroke="none" stroke-width="0" stroke-linecap="butt"/><path d="M366.03244,90.52676l-9.04027,3.49001l-0.82647,-2.79712l8.43393,-3.41996z" data-paper-data="{&quot;origPos&quot;:null,&quot;index&quot;:null,&quot;origRot&quot;:0}" fill="#7e7e7e" stroke="none" stroke-width="0" stroke-linecap="butt"/><path d="M390.54907,74.01909c0,0 -0.00641,-0.60769 2.97892,-1.521c2.2955,-0.70228 2.51488,-0.49177 2.51488,-0.49177" data-paper-data="{&quot;origPos&quot;:null,&quot;origRot&quot;:0}" fill="none" stroke="#616161" stroke-width="5" stroke-linecap="round"/><path d="M392.12827,61.30621c0,0 -0.021,0.30331 -2.19292,1.32569c-2.82459,1.32961 -3.22819,0.87527 -3.22819,0.87527" data-paper-data="{&quot;origPos&quot;:null,&quot;index&quot;:null,&quot;origRot&quot;:0}" fill="none" stroke="#616161" stroke-width="5" stroke-linecap="round"/><path d="M339.14998,79.86919c0,0 -2.57413,1.5105 -4.26021,2.40935c-0.92612,0.49374 -2.25213,1.28068 -2.25213,1.28068" data-paper-data="{&quot;origPos&quot;:null,&quot;origRot&quot;:0}" id="ID0.21129454905167222" fill="none" stroke="#000000" stroke-width="2.5" stroke-linecap="round"/><path d="M319.72214,76.45245l7.32529,2.25951l-3.7948,6.46156l8.44453,2.75268l-2.46242,6.2983l7.85406,3.5555l-3.50002,4.81719l10.0072,7.89363l-8.97475,1.51882l1.72412,3.04139l-10.62405,-3.01965l-1.02976,1.83962l-7.88801,-7.33358l-0.72561,0.91369l-4.39766,-10.31692l-1.15666,0.15332l-0.0561,-8.50811l-1.22488,-1.06385l4.11905,-7.35851l-0.96982,-1.71079z" data-paper-data="{&quot;origPos&quot;:null,&quot;index&quot;:null,&quot;origRot&quot;:0}" fill="#2400ea" stroke="#000000" stroke-width="3" stroke-linecap="round"/><path d="M347.68704,98.04785c0,0 -2.57413,1.5105 -4.26021,2.40935c-0.92612,0.49374 -2.25213,1.28068 -2.25213,1.28068" data-paper-data="{&quot;origPos&quot;:null,&quot;origRot&quot;:0}" id="ID0.21129454905167222" fill="none" stroke="#000000" stroke-width="2.5" stroke-linecap="round"/><path d="M342.08304,92.4421l-2.04234,-3.60273" data-paper-data="{&quot;origPos&quot;:null,&quot;origRot&quot;:0}" fill="none" stroke="#000000" stroke-width="2" stroke-linecap="round"/></g><path d="M-2.37519,363.93393v-91.59159h481.98198v91.59159z" data-paper-data="{&quot;origPos&quot;:null}" fill="#31c700" stroke="#000000" stroke-width="1.5" stroke-linecap="butt"/><path d="M-3.75938,291.84963v-294.29429h79.57958v294.29429z" fill="#dde983" stroke="#000000" stroke-width="1.5" stroke-linecap="butt"/><path d="M-12.76839,186.74452v-131.33133h61.56156v131.33133z" data-paper-data="{&quot;origPos&quot;:null}" fill="#91b8c7" stroke="#000000" stroke-width="3" stroke-linecap="butt"/><path d="M-12.72933,119.75h60.5" data-paper-data="{&quot;origPos&quot;:null}" fill="none" stroke="#000000" stroke-width="3.5" stroke-linecap="round"/><path d="M15.77067,185l0.5,-130" data-paper-data="{&quot;origPos&quot;:null}" fill="none" stroke="#000000" stroke-width="3.5" stroke-linecap="round"/><path d="M345.88329,181.62989l-21.15285,-2.16844l-11.60948,5.20249l4.32991,-10.94502z" data-paper-data="{&quot;origPos&quot;:null,&quot;origRot&quot;:0}" fill="#91b8c7" stroke="#000000" stroke-width="1.5" stroke-linecap="butt"/><path d="M257.98113,219.06745l2.22195,7.28444l6.80731,3.41476l-8.78861,7.41687l-3.42792,-5.61242z" data-paper-data="{&quot;origPos&quot;:null,&quot;origRot&quot;:0}" fill="#91b8c7" stroke="#000000" stroke-width="1.5" stroke-linecap="butt"/><path d="M301.88242,117.77792l4.57963,7.56816l1.48403,9.2762l-6.93847,0.59798l0.68446,-6.78816z" data-paper-data="{&quot;origPos&quot;:null,&quot;origRot&quot;:0}" fill="#91b8c7" stroke="#000000" stroke-width="1.5" stroke-linecap="butt"/><path d="M254.09831,122.45617l0.29227,-10.78956l7.52198,-3.10963l1.72052,5.76974l-3.68475,2.19775z" data-paper-data="{&quot;origPos&quot;:null,&quot;origRot&quot;:0}" fill="#91b8c7" stroke="#000000" stroke-width="1.5" stroke-linecap="butt"/><path d="M289.49725,71.66507l0.96616,-4.44183l-1.77618,-5.14169l4.13399,-1.7059l4.05884,2.29912l-1.04772,4.57916z" data-paper-data="{&quot;origPos&quot;:null,&quot;origRot&quot;:0}" fill="#91b8c7" stroke="#000000" stroke-width="1.5" stroke-linecap="butt"/></g></g></svg>