<svg version="1.1" xmlns="http://www.w3.org/2000/svg" xmlns:xlink="http://www.w3.org/1999/xlink" width="547.37279" height="407.80474" viewBox="0,0,547.37279,407.80474"><g transform="translate(14.47933,43.12083)"><g data-paper-data="{&quot;isPaintingLayer&quot;:true}" fill-rule="nonzero" stroke-linejoin="miter" stroke-miterlimit="10" stroke-dasharray="" stroke-dashoffset="0" style="mix-blend-mode: normal"><path d="M-0.24024,363.93392v-367.86787h480.48048v367.86787z" data-paper-data="{&quot;origPos&quot;:null}" fill="#00e7e7" stroke="none" stroke-width="NaN" stroke-linecap="butt"/><g data-paper-data="{&quot;origPos&quot;:null,&quot;origRot&quot;:0}"><path d="M510.78854,46.29014c-1.96432,0.98666 -3.44139,-0.55327 -3.44139,-0.55327l-3.55904,-8.60732l6.0492,-2.58598l3.55904,8.60732c0,0 0.2005,2.05616 -2.60785,3.13926z" data-paper-data="{&quot;origRot&quot;:0,&quot;origPos&quot;:null,&quot;index&quot;:null}" fill="#ffd499" stroke="#806c4d" stroke-width="2" stroke-linecap="butt"/><path d="M478.66597,-3.91334c0,0 2.24138,-2.00324 3.41142,-1.6302c3.51006,1.11911 11.13614,11.07891 16.43215,19.59949c5.296,8.52059 13.83565,25.3553 13.83565,25.3553c0,0 -1.94837,1.04107 -3.24397,1.61533c-1.28981,0.5717 -3.38078,1.32105 -3.38078,1.32105c0,0 -5.80305,-13.63796 -11.79393,-24.07426c-5.99087,-10.4363 -10.58988,-13.36587 -10.58988,-13.36587z" data-paper-data="{&quot;origPos&quot;:null,&quot;index&quot;:null,&quot;origRot&quot;:0}" id="ID0.5423141438513994" fill="#7e7e7e" stroke="#000000" stroke-width="2.54325" stroke-linecap="round"/><path d="M519.25762,101.22524c0,0 -11.56541,-15.95322 -16.44222,-27.73781c-3.08502,-7.45485 -1.23212,-21.93573 -5.09138,-20.33117c-5.22842,2.28781 -7.18772,15.39344 -4.72132,23.84684c3.36144,11.52109 17.64861,27.1826 17.64861,27.1826l-7.22246,2.5507c0,0 -13.37418,-16.00965 -16.93075,-27.50237c-3.32598,-10.74756 -0.70495,-29.48561 -0.70495,-29.48561l19.9172,-7.24153c0,0 1.71676,17.49581 5.46852,27.75414c4.30882,11.78149 15.1857,28.72012 15.1857,28.72012z" data-paper-data="{&quot;origPos&quot;:null,&quot;index&quot;:null}" fill="#4232a1" stroke="#000000" stroke-width="2.5" stroke-linecap="butt"/><path d="M482.82736,60.3047c-2.48103,1.70424 -4.06375,0.37647 -4.06375,0.37647l-5.08799,-7.80162l5.55285,-3.52793l5.08799,7.80162c0,0 0.43526,2.08894 -1.48909,3.15148z" data-paper-data="{&quot;origRot&quot;:0,&quot;origPos&quot;:null,&quot;index&quot;:null}" fill="#ffd499" stroke="#806c4d" stroke-width="2" stroke-linecap="butt"/><path d="M464.21081,14.26606c0,0 2.27496,6.78574 7.49688,17.62726c5.22192,10.84151 10.73264,22.00207 10.73264,22.00207c0,0 -1.80017,1.30117 -3.00091,2.04192c-1.20611,0.74407 -3.1663,1.7627 -3.1663,1.7627c0,0 -6.60058,-15.22508 -10.63511,-24.41043c-4.03451,-9.18538 -10.39726,-22.44235 -9.33611,-25.97035c0.35372,-1.17601 3.27324,-1.89241 3.27324,-1.89241z" data-paper-data="{&quot;origPos&quot;:null,&quot;index&quot;:null,&quot;origRot&quot;:0}" id="ID0.5423141438513994" fill="#7e7e7e" stroke="#000000" stroke-width="2.54325" stroke-linecap="round"/><path d="M485.55445,53.87909l-25.47282,-48.33823l19.20583,-10.1209l25.47282,48.33823z" data-paper-data="{&quot;origPos&quot;:null,&quot;origRot&quot;:0}" fill="#7e7e7e" stroke="#000000" stroke-width="2.54325" stroke-linecap="butt"/><path d="M516.06002,113.66577l-2.75922,-4.10398c0,0 2.23707,-5.75475 4.62699,-8.3149c2.57397,-2.75731 7.548,-6.12013 7.548,-6.12013l5.65288,8.40787z" data-paper-data="{&quot;origPos&quot;:null,&quot;index&quot;:null,&quot;origRot&quot;:0}" fill="#666666" stroke="#000000" stroke-width="2.54325" stroke-linecap="butt"/><path d="M500.04532,120.19648l-3.14262,-3.49669c0,0 1.24788,-6.1923 3.25659,-9.06133c2.16338,-3.08993 6.61868,-7.11486 6.61868,-7.11486l6.77235,7.53539z" data-paper-data="{&quot;origPos&quot;:null,&quot;index&quot;:null,&quot;origRot&quot;:0}" fill="#666666" stroke="#000000" stroke-width="2.54325" stroke-linecap="butt"/><path d="M471.50543,15.57053l-6.04,-11.65308" data-paper-data="{&quot;origPos&quot;:null,&quot;origRot&quot;:0}" fill="none" stroke="#3b3b3b" stroke-width="5" stroke-linecap="round"/><path d="M474.68532,-0.90292l8.00075,15.56514" data-paper-data="{&quot;origPos&quot;:null,&quot;origRot&quot;:0}" fill="none" stroke="#3b3b3b" stroke-width="5" stroke-linecap="round"/><path d="M446.99148,-30.4541c4.48125,-3.2244 9.83267,-4.35396 14.85829,-3.57409c5.02593,0.7802 9.43314,5.49814 12.61078,9.91128c3.17762,4.41307 3.66049,8.93461 2.80518,13.94661c-0.85557,5.01155 -4.29989,9.61487 -7.23818,11.70887c-2.93835,2.09407 -8.96382,3.11267 -13.98942,2.3328c-4.7886,-0.74342 -8.2098,-3.56124 -10.97828,-6.8739c-4.01809,-4.80792 -7.03078,-9.48936 -6.1755,-14.50129c0.85556,-5.01155 3.62581,-9.72581 8.10711,-12.95027z" data-paper-data="{&quot;origPos&quot;:null,&quot;origRot&quot;:0}" id="ID0.7719937418587506" fill="#ffd499" stroke="#806c4d" stroke-width="2.5" stroke-linecap="butt"/><path d="M482.68894,5.32049l-4.19914,-8.29664l2.45923,-1.5689l4.61596,8.75941z" data-paper-data="{&quot;origPos&quot;:null,&quot;origRot&quot;:0}" fill="#7e7e7e" stroke="none" stroke-width="0" stroke-linecap="butt"/><path d="M463.43233,15.46401l-4.51773,-8.57303l2.68202,-1.14617l4.37764,7.97894z" data-paper-data="{&quot;origPos&quot;:null,&quot;index&quot;:null,&quot;origRot&quot;:0}" fill="#7e7e7e" stroke="none" stroke-width="0" stroke-linecap="butt"/><path d="M482.67932,37.8944c0,0 0.60282,-0.07704 1.85713,2.78181c0.96449,2.19824 0.78092,2.44062 0.78092,2.44062" data-paper-data="{&quot;origPos&quot;:null,&quot;origRot&quot;:0}" fill="none" stroke="#616161" stroke-width="5" stroke-linecap="round"/><path d="M495.48958,37.98434c0,0 -0.30369,0.01441 -1.57174,-2.02385c-1.64909,-2.65078 -1.24478,-3.10449 -1.24478,-3.10449" data-paper-data="{&quot;origPos&quot;:null,&quot;index&quot;:null,&quot;origRot&quot;:0}" fill="none" stroke="#616161" stroke-width="5" stroke-linecap="round"/><path d="M470.89109,-12.47552c0,0 -1.79963,-2.38099 -2.88847,-3.95109c-0.5981,-0.86241 -1.53392,-2.0879 -1.53392,-2.0879" data-paper-data="{&quot;origPos&quot;:null,&quot;origRot&quot;:0}" id="ID0.21129454905167222" fill="none" stroke="#000000" stroke-width="2.5" stroke-linecap="round"/><path d="M472.02515,-32.1689l-1.39223,7.53837l-6.85905,-3.01755l-1.75188,8.70736l-6.54194,-1.71321l-2.61792,8.21427l-5.19156,-2.91602l-6.67621,10.85734l-2.5523,-8.73721l-2.82023,2.06614l1.76356,-10.90315l-1.9469,-0.80882l6.36642,-8.68739l-0.99188,-0.61443l9.73545,-5.5677l-0.2868,-1.13098l8.44385,-1.04523l0.91417,-1.3403l7.78763,3.23528l1.58639,-1.16221z" data-paper-data="{&quot;origPos&quot;:null,&quot;index&quot;:null,&quot;origRot&quot;:0}" fill="#2400ea" stroke="#000000" stroke-width="3" stroke-linecap="round"/><path d="M453.82867,-1.88218c0,0 -1.79963,-2.38099 -2.88847,-3.95109c-0.5981,-0.86241 -1.53392,-2.0879 -1.53392,-2.0879" data-paper-data="{&quot;origPos&quot;:null,&quot;origRot&quot;:0}" id="ID0.21129454905167222" fill="none" stroke="#000000" stroke-width="2.5" stroke-linecap="round"/><path d="M462.08538,-10.54759l-3.34075,2.44748" data-paper-data="{&quot;origPos&quot;:null,&quot;origRot&quot;:0}" fill="none" stroke="#000000" stroke-width="2" stroke-linecap="round"/></g><path d="M-2.37519,363.93392v-91.59159h481.98198v91.59159z" data-paper-data="{&quot;origPos&quot;:null}" fill="#31c700" stroke="#000000" stroke-width="1.5" stroke-linecap="butt"/><path d="M-3.75938,291.84962v-294.29429h79.57958v294.29429z" fill="#dde983" stroke="#000000" stroke-width="1.5" stroke-linecap="butt"/><path d="M-12.76839,186.74452v-131.33133h61.56156v131.33133z" data-paper-data="{&quot;origPos&quot;:null}" fill="#91b8c7" stroke="#000000" stroke-width="3" stroke-linecap="butt"/><path d="M-12.72933,119.75h60.5" data-paper-data="{&quot;origPos&quot;:null}" fill="none" stroke="#000000" stroke-width="3.5" stroke-linecap="round"/><path d="M15.77067,185l0.5,-130" data-paper-data="{&quot;origPos&quot;:null}" fill="none" stroke="#000000" stroke-width="3.5" stroke-linecap="round"/><path d="M382.4366,196.3333l-16.14035,13.84321l-4.22353,12.00032l-4.95352,-10.67728z" data-paper-data="{&quot;origPos&quot;:null,&quot;origRot&quot;:0}" fill="#91b8c7" stroke="#000000" stroke-width="1.5" stroke-linecap="butt"/><path d="M299.4926,250.58144l-7.53147,-1.1301l-6.01246,4.67443l-2.9114,-11.12535l6.54141,-0.67815z" data-paper-data="{&quot;origPos&quot;:null,&quot;origRot&quot;:0}" fill="#91b8c7" stroke="#000000" stroke-width="1.5" stroke-linecap="butt"/><path d="M347.81595,154.83373l7.20554,5.1313l5.04118,7.92695l-6.13233,3.30067l-2.06379,-6.50295z" data-paper-data="{&quot;origPos&quot;:null,&quot;origRot&quot;:0}" fill="#91b8c7" stroke="#000000" stroke-width="1.5" stroke-linecap="butt"/><path d="M281.50598,169.41223l0.45635,-10.78387l7.56841,-2.99485l1.63255,5.79524l-3.71776,2.14145z" data-paper-data="{&quot;origPos&quot;:null,&quot;origRot&quot;:0}" fill="#91b8c7" stroke="#000000" stroke-width="1.5" stroke-linecap="butt"/><path d="M313.37739,94.72989l3.99529,-2.16817l2.73498,-4.7023l3.99116,2.01758l0.90845,4.57546l-4.15257,2.19605z" data-paper-data="{&quot;origPos&quot;:null,&quot;origRot&quot;:0}" fill="#91b8c7" stroke="#000000" stroke-width="1.5" stroke-linecap="butt"/></g></g></svg>