<svg version="1.1" xmlns="http://www.w3.org/2000/svg" xmlns:xlink="http://www.w3.org/1999/xlink" width="25.66015" height="12.20658" viewBox="0,0,25.66015,12.20658"><g transform="translate(-228.31181,-174.27716)"><g data-paper-data="{&quot;isPaintingLayer&quot;:true}" fill="none" fill-rule="nonzero" stroke="#000000" stroke-width="none" stroke-linecap="butt" stroke-linejoin="miter" stroke-miterlimit="10" stroke-dasharray="" stroke-dashoffset="0" font-family="none" font-weight="none" font-size="none" text-anchor="none" style="mix-blend-mode: normal"><path d="M252.90405,179.74695c0.23884,3.6333 -4.38211,5.27637 -11.0412,5.71412c-6.65909,0.43774 -12.19114,-2.99861 -12.20622,-6.7403c-0.0243,-6.02599 6.5671,-2.24063 11.55322,-2.5684c6.65909,-0.43774 11.50552,0.72429 11.69421,3.59458z" data-paper-data="{&quot;origPos&quot;:null,&quot;origRot&quot;:0}" fill="#000000" stroke-width="2"/><path d="M229.43385,177.05245l2.45994,-2.7573l18.41006,2.41408l2.02277,2.48359l-17.4653,-0.04425z" data-paper-data="{&quot;origPos&quot;:null,&quot;origRot&quot;:0}" fill="#ffffff" stroke-width="0"/><path d="M252.78151,180.74209l-2.40093,4.26807l-14.15128,0.79953l-5.70532,-6.63644c0,0 3.04029,1.98548 4.77005,2.10739c5.18927,0.36578 17.48748,-0.53854 17.48748,-0.53854z" data-paper-data="{&quot;origPos&quot;:null,&quot;index&quot;:null,&quot;origRot&quot;:0}" fill="#ffffff" stroke-width="0"/><path d="M252.55923,179.76962c0.23884,3.6333 -4.38211,5.27637 -11.0412,5.71412c-6.65909,0.43774 -12.19114,-2.99861 -12.20622,-6.7403c-0.0243,-6.02599 6.1921,-2.24063 11.17822,-2.5684c6.65909,-0.43774 11.88052,0.72429 12.06921,3.59458z" data-paper-data="{&quot;origPos&quot;:null,&quot;origRot&quot;:0}" fill="none" stroke-width="2"/></g></g></svg>