<svg version="1.1" xmlns="http://www.w3.org/2000/svg" xmlns:xlink="http://www.w3.org/1999/xlink" width="148.15734" height="327.99377" viewBox="0,0,148.15734,327.99377"><defs><radialGradient cx="208.99842" cy="155.63328" r="97.28323" gradientUnits="userSpaceOnUse" id="color-1"><stop offset="0" stop-color="#00ffff"/><stop offset="1" stop-color="#003fff"/></radialGradient><linearGradient x1="223.39054" y1="198.19071" x2="245.64426" y2="194.27796" gradientUnits="userSpaceOnUse" id="color-2"><stop offset="0" stop-color="#3b3b3b"/><stop offset="1" stop-color="#000000"/></linearGradient><linearGradient x1="178.28846" y1="203.99145" x2="227.02325" y2="203.99145" gradientUnits="userSpaceOnUse" id="color-3"><stop offset="0" stop-color="#000000"/><stop offset="1" stop-color="#3b3b3b"/></linearGradient><radialGradient cx="182.65618" cy="78.08454" r="51.99462" gradientUnits="userSpaceOnUse" id="color-4"><stop offset="0" stop-color="#b6b6b6"/><stop offset="1" stop-color="#666666"/></radialGradient><radialGradient cx="191.41347" cy="80.59983" r="15.71829" gradientUnits="userSpaceOnUse" id="color-5"><stop offset="0" stop-color="#ff0000"/><stop offset="1" stop-color="#ff0000" stop-opacity="0"/></radialGradient><radialGradient cx="192.26386" cy="82.43698" r="10.27134" gradientUnits="userSpaceOnUse" id="color-6"><stop offset="0" stop-color="#ff0000"/><stop offset="1" stop-color="#d20000"/></radialGradient><linearGradient x1="146.05065" y1="15.29728" x2="265.69209" y2="11.65693" gradientUnits="userSpaceOnUse" id="color-7"><stop offset="0" stop-color="#cc7700"/><stop offset="1" stop-color="#946f48"/></linearGradient></defs><g transform="translate(-146.66568,-11.28654)"><g data-paper-data="{&quot;isPaintingLayer&quot;:true}" fill-rule="nonzero" stroke-linejoin="miter" stroke-miterlimit="10" stroke-dasharray="" stroke-dashoffset="0" style="mix-blend-mode: normal"><path d="M250.49583,254.16824c0,0 14.01633,14.33213 21.70641,25.10625c6.50463,9.11326 8.27077,16.04239 13.66147,25.85576c0.00903,0.01644 -20.64116,-0.23499 -20.64116,-0.23499c0,0 -8.4037,-28.47999 -24.98379,-29.25375c-4.14908,-0.40375 -2.66758,5.91246 -0.97379,9.72151c3.42702,7.70677 9.21535,19.67344 9.21535,19.67344l-21.37171,0.32228c0,0 -5.60033,-11.19467 -10.25158,-18.35983c-4.62027,-7.11743 -14.50553,-18.23753 -14.50553,-18.23753z" data-paper-data="{&quot;origPos&quot;:null,&quot;index&quot;:null}" fill="#333333" stroke="#000000" stroke-width="2.5" stroke-linecap="butt"/><path d="M179.28576,130.71333l50.48355,-8.22475l23.23601,135.3737l-49.66609,8.08098z" data-paper-data="{&quot;origPos&quot;:null,&quot;index&quot;:null,&quot;origRot&quot;:0}" id="ID0.9171315478160977" fill="url(#color-1)" stroke="#000000" stroke-width="2.54325" stroke-linecap="butt"/><g data-paper-data="{&quot;origPos&quot;:null,&quot;index&quot;:null,&quot;origRot&quot;:0}" stroke="#000000" stroke-width="0" stroke-linecap="butt"><path d="M218.06152,200.70787l-4.47077,0.86091l2.92436,-21.42481l-4.93106,1.41449l2.01477,-17.63162l15.92277,-3.32319l-3.40572,13.68774l3.39982,-0.79209l-3.13963,20.52217l3.04354,-0.25349l-13.49683,33.62411z" data-paper-data="{&quot;index&quot;:null,&quot;origPos&quot;:null}" fill="#ffde00"/><path d="M216.17264,197.89863l-4.47077,0.86091l2.92438,-21.42481l-4.93106,1.41449l2.01478,-17.63162l15.92277,-3.32319l-3.40572,13.68774l3.39982,-0.79209l-3.13962,20.52217l3.04354,-0.25349l-12.09903,33.64016z" data-paper-data="{&quot;index&quot;:null,&quot;origPos&quot;:null}" fill="#ff0000"/><path d="M213.42174,198.12056l-4.47079,0.86091l2.92438,-21.42481l-4.93106,1.41449l2.01478,-17.63162l15.92277,-3.32319l-3.40572,13.68774l3.39982,-0.7921l-3.13962,20.52217l3.04353,-0.25349l-9.66064,31.64075z" data-paper-data="{&quot;index&quot;:null,&quot;origPos&quot;:null}" fill="#000000"/></g><path d="M212.10888,134.02633c0,0 5.76851,-4.21692 9.43766,-7.04679c3.67457,-2.83404 9.70309,-5.62692 9.70309,-5.62692c0,0 4.26904,20.5682 4.72551,23.13573c5.22037,29.36193 22.42198,122.32139 22.42198,122.32139l-19.8966,4.49654z" data-paper-data="{&quot;origPos&quot;:null,&quot;index&quot;:null,&quot;origRot&quot;:0}" id="ID0.5423141438513994" fill="url(#color-2)" stroke="#000000" stroke-width="2.54325" stroke-linecap="round"/><path d="M233.98403,124.47579c0,0 6.93006,-3.29089 9.5261,-1.53518c7.78813,5.26719 20.94853,40.46544 27.78039,65.14001c9.49371,30.31505 -29.9258,57.69588 -29.9258,57.69588c0,0 0.79563,-8.30632 -2.63166,-8.08513c-3.82381,0.24679 -0.52066,-7.12284 -0.52066,-7.12284c0,0 24.30865,-10.93429 17.15482,-40.79952c-7.15386,-29.86523 -16.29852,-40.33381 -16.29852,-40.33381z" data-paper-data="{&quot;origPos&quot;:null,&quot;index&quot;:null,&quot;origRot&quot;:0}" id="ID0.5423141438513994" fill="#000000" stroke="#000000" stroke-width="2.54325" stroke-linecap="round"/><path d="M227.02325,274.0721l-25.04569,2.88377c0,0 -15.06386,-92.88292 -20.17316,-122.26438c-0.44677,-2.56926 -3.51595,-23.66445 -3.51595,-23.66445c0,0 7.03571,0.71094 11.68842,2.01624c3.94834,1.10769 14.46866,2.63393 14.46866,2.63393z" data-paper-data="{&quot;origPos&quot;:null,&quot;index&quot;:null,&quot;origRot&quot;:0}" id="ID0.5423141438513994" fill="url(#color-3)" stroke="#000000" stroke-width="2.54325" stroke-linecap="round"/><path d="M182.84845,155.98272c0,0 -8.08487,14.67843 -3.8627,45.09688c4.2222,30.41845 34.22825,30.14464 34.22825,30.14464c0,0 5.76175,5.659 2.111,6.82271c-3.2722,1.04307 -4.07689,12.23504 -4.07689,12.23504c0,0 -47.49569,-11.76831 -49.70289,-43.4584c-2.63035,-25.46744 2.17864,-66.15146 7.5116,-73.89471c1.77766,-2.58109 9.43046,-2.04208 9.43046,-2.04208z" data-paper-data="{&quot;origPos&quot;:null,&quot;index&quot;:null,&quot;origRot&quot;:0}" id="ID0.5423141438513994" fill="#000000" stroke="#000000" stroke-width="2.54325" stroke-linecap="round"/><path d="M250.63538,338.65312v-10.81353h43.16551v10.81353z" data-paper-data="{&quot;origPos&quot;:null}" fill="#ffffff" stroke="#000000" stroke-width="1" stroke-linecap="butt"/><path d="M243.98771,335.48747l-0.04432,-11.23762l7.17948,4.12973l-0.39886,10.14058z" data-paper-data="{&quot;origPos&quot;:null}" fill="#ffffff" stroke="#000000" stroke-width="1" stroke-linecap="butt"/><path d="M251.38878,327.80247l-6.60333,-3.7299l42.19052,0.41947l5.89425,3.21459z" data-paper-data="{&quot;origPos&quot;:null}" fill="#ffffff" stroke="#000000" stroke-width="1" stroke-linecap="butt"/><path d="M252.96206,336.3486v-6.55902h38.46782v6.55902z" data-paper-data="{&quot;origPos&quot;:null}" fill="#ff2e2e" stroke="#000000" stroke-width="0" stroke-linecap="butt"/><path d="M251.72116,326.37709l-0.88635,-0.79772l34.74513,0.17727l1.59544,0.62045z" data-paper-data="{&quot;origPos&quot;:null}" fill="#ff2e2e" stroke="#000000" stroke-width="0" stroke-linecap="butt"/><path d="M244.57151,330.78958l5.67266,2.4818" data-paper-data="{&quot;origPos&quot;:null}" fill="none" stroke="#000000" stroke-width="0.5" stroke-linecap="round"/><g data-paper-data="{&quot;origPos&quot;:null}"><path d="M202.35927,31.16367c14.08268,-0.43089 27.01448,4.81261 36.5308,13.63204c9.5164,8.82056 10.6869,22.97961 10.01796,38.95633c-0.46089,11.00801 -3.01217,22.02774 -11.55427,30.97073c-8.96544,9.38491 -22.7489,16.68089 -31.95142,17.00426c-9.20234,0.3234 -23.32676,-3.64855 -32.84311,-12.46795c-9.51653,-8.82071 -15.56149,-18.72668 -15.98126,-32.59845c-0.41974,-13.87187 1.1769,-30.27076 10.14247,-39.65683c8.96547,-9.38494 21.55628,-15.40932 35.63881,-15.84019z" data-paper-data="{&quot;origPos&quot;:null,&quot;origRot&quot;:0}" id="ID0.7719937418587506" fill="#ffd499" stroke="#806c4d" stroke-width="2.5" stroke-linecap="butt"/><path d="M205.6022,33.80294c5.3008,0.03119 3.68363,10.08961 4.13793,15.37074c1.02783,11.96149 4.85738,25.61254 0.31326,37.10089c-3.92995,8.94287 -13.06097,15.55636 -22.27062,18.62109c-9.99718,2.91417 -20.483,3.95055 -24.80668,-1.42128c-7.61366,-16.42971 -4.16433,-40.68704 6.28375,-55.85565c9.19434,-12.41281 20.92793,-13.89974 36.34231,-13.81577z" data-paper-data="{&quot;origPos&quot;:null,&quot;origRot&quot;:0}" id="ID0.479907026514411" fill="url(#color-4)" stroke="#666666" stroke-width="2.5" stroke-linecap="round"/><path d="M227.93666,76.91015c0.2337,4.87063 0.11751,12.112 0.11751,12.112" data-paper-data="{&quot;origPos&quot;:null,&quot;origRot&quot;:0}" id="ID0.21129454905167222" fill="none" stroke="#000000" stroke-width="2.5" stroke-linecap="round"/><path d="M200.37219,114.17141l14.26737,-0.31426" data-paper-data="{&quot;origPos&quot;:null,&quot;index&quot;:null,&quot;origRot&quot;:0}" fill="none" stroke="#000000" stroke-width="2" stroke-linecap="round"/><path d="M175.69901,80.94596c-0.19115,-8.67885 6.68947,-15.86944 15.36832,-16.0606c8.67887,-0.19115 15.86944,6.68947 16.0606,15.36832c0.19115,8.67885 -6.68947,15.86944 -15.36832,16.0606c-8.67887,0.19115 -15.86944,-6.68947 -16.0606,-15.36832z" data-paper-data="{&quot;origPos&quot;:null,&quot;origRot&quot;:0}" fill="url(#color-5)" stroke="none" stroke-width="0" stroke-linecap="butt"/><path d="M180.99244,80.98501c-0.12493,-5.67132 4.37133,-10.37012 10.04265,-10.49504c5.67132,-0.12493 10.37012,4.37133 10.49504,10.04265c0.12493,5.67132 -4.37133,10.37012 -10.04265,10.49504c-5.67132,0.12493 -10.37012,-4.37133 -10.49504,-10.04265z" data-paper-data="{&quot;origPos&quot;:null,&quot;origRot&quot;:0}" fill="url(#color-6)" stroke="#666666" stroke-width="2" stroke-linecap="butt"/><path d="M161.85997,105.0787c0,0 2.8244,-21.32921 6.41886,-35.28601c2.37699,-9.22966 8.89141,-23.71155 8.89141,-23.71155l31.26036,5.99541l0.56488,4.4998c0,0 -8.62875,-0.66198 -13.38695,-1.04302c-4.39703,-0.3521 -8.87284,-3.204 -12.51667,-0.71795c-6.67264,4.55248 -6.45693,12.74985 -8.5265,20.55788c-2.79618,10.54931 -4.50319,30.08595 -4.50319,30.08595z" data-paper-data="{&quot;origRot&quot;:0,&quot;origPos&quot;:null}" fill="#7a7a7a" stroke="none" stroke-width="0" stroke-linecap="butt"/><path d="M211.77486,56.50391l-0.3449,-4.351l31.30825,-0.55959c0,0 -6.40303,3.2191 -12.9927,3.77307c-6.63883,0.55807 -17.72066,1.13751 -17.72066,1.13751z" data-paper-data="{&quot;origPos&quot;:null,&quot;origRot&quot;:0}" fill="#b0936a" stroke="none" stroke-width="0" stroke-linecap="butt"/><path d="M196.57652,110.50082c0,0 2.21587,1.05623 2.27153,3.58302c0.05244,2.38065 -2.32922,3.87864 -2.32922,3.87864" data-paper-data="{&quot;origPos&quot;:null,&quot;origRot&quot;:0}" fill="none" stroke="#000000" stroke-width="2" stroke-linecap="round"/><path d="M163.79213,109.06933l5.21924,-0.62877l1.21154,5.58439z" data-paper-data="{&quot;origPos&quot;:null,&quot;origRot&quot;:0}" fill="#b0936a" stroke="none" stroke-width="0" stroke-linecap="butt"/><path d="M209.28087,13.37335c13.23862,-0.18838 20.69909,0.77044 33.93148,1.21838c7.66186,0.25937 22.72667,0.07928 22.72667,0.07928c0,0 -9.45585,5.58407 -11.23604,6.09869c-3.30181,0.9545 -9.17811,3.1579 -9.17811,3.1579c0,0 4.69881,1.09233 8.02177,2.27918c3.5725,1.27598 9.04522,2.424 9.04522,2.424c0,0 -5.42612,2.44935 -8.86888,3.40736c-4.30078,1.19679 -10.08842,3.90937 -10.08842,3.90937c0,0 6.89975,3.39295 12.10233,4.42412c5.23192,1.03697 12.1105,3.31879 12.1105,3.31879c0,0 -9.49408,5.46791 -15.70118,6.53425c-15.65644,2.69164 -31.82179,0.41216 -47.69683,0.91297c-9.67801,0.30405 -24.05659,-6.0678 -28.74495,2.66878c-12.38678,21.62215 -10.5729,75.69548 -14.37424,73.99794c-3.80152,-1.69768 -15.87497,-58.23657 -12.24073,-87.47112c1.40618,-11.29809 11.6159,-18.04989 24.45303,-23.68896c12.83713,-5.63902 23.97351,-2.87839 35.73843,-3.271z" data-paper-data="{&quot;origPos&quot;:null,&quot;origRot&quot;:0}" id="ID0.5302143599838018" fill="url(#color-7)" stroke="#a96300" stroke-width="3.5" stroke-linecap="round"/></g><path d="M231.38477,76.20834l-6,0.25" data-paper-data="{&quot;origPos&quot;:null}" fill="none" stroke="#000000" stroke-width="2.5" stroke-linecap="round"/><path d="M211.4913,253.67797l1.27442,-24.49133c0,0 1.82256,0.6497 2.92237,0.69898c0.93689,0.04196 2.29645,-0.46519 2.29645,-0.46519l3.9149,23.54707c0,0 -3.07217,1.07948 -5.13859,1.22054c-1.9955,0.13621 -5.26952,-0.51005 -5.26952,-0.51005z" data-paper-data="{&quot;origPos&quot;:null,&quot;origRot&quot;:0}" fill="#1f1f1f" stroke="#000000" stroke-width="0" stroke-linecap="butt"/><path d="M210.85735,252.86291c0,0 0.30794,-7.54087 0.68098,-12.37961c0.31948,-4.14406 1.09352,-10.63772 1.09352,-10.63772" data-paper-data="{&quot;origPos&quot;:null,&quot;origRot&quot;:0}" fill="none" stroke="#000000" stroke-width="2.54325" stroke-linecap="round"/><path d="M241.58334,249.39802c-1.98365,0.59589 -5.23917,0.6678 -5.23917,0.6678l-4.63066,-23.41684c0,0 1.45107,-0.00425 2.31309,-0.37354c1.01196,-0.43352 2.48883,-1.6836 2.48883,-1.6836l9.81999,22.47258c0,0 -2.83653,1.75815 -4.75209,2.33359z" data-paper-data="{&quot;origPos&quot;:null,&quot;index&quot;:null,&quot;origRot&quot;:0}" fill="#1f1f1f" stroke="#000000" stroke-width="0" stroke-linecap="butt"/><path d="M236.0303,225.61056c0,0 3.41,5.96081 5.16877,9.7267c2.05361,4.39719 4.60002,11.1902 4.60002,11.1902" data-paper-data="{&quot;origPos&quot;:null,&quot;origRot&quot;:0,&quot;index&quot;:null}" fill="none" stroke="#000000" stroke-width="2.54325" stroke-linecap="round"/></g></g></svg>