<svg version="1.1" xmlns="http://www.w3.org/2000/svg" xmlns:xlink="http://www.w3.org/1999/xlink" width="24" height="13.87501"><g transform="translate(-229.11232,-173.05243)"><g data-paper-data="{&quot;isPaintingLayer&quot;:true}" fill="none" fill-rule="nonzero" stroke="none" stroke-width="none" stroke-linecap="butt" stroke-linejoin="miter" stroke-miterlimit="10" stroke-dasharray="" stroke-dashoffset="0" font-family="none" font-weight="none" font-size="none" text-anchor="none" style="mix-blend-mode: normal"><path d="M252.11232,179.92743c0,3.24467 -4.92487,5.875 -11,5.875c-6.07513,0 -11,-2.13033 -11,-5.875c0,-4.24467 4.92487,-5.875 11,-5.875c6.07513,0 11,2.63033 11,5.875z" data-paper-data="{&quot;origPos&quot;:null}" fill="#000000" stroke="#000000" stroke-width="2"/><path d="M237.23732,186.05243l-7.125,-5.25h21.5l-5.75,5.09558z" data-paper-data="{&quot;origPos&quot;:null}" fill="#ffffff" stroke="none" stroke-width="0"/><path d="M245.48732,173.58185l5.75,5.09558h-21.5l7.125,-5.25z" data-paper-data="{&quot;origPos&quot;:null,&quot;index&quot;:null}" fill="#ffffff" stroke="none" stroke-width="0"/><path d="M252.11232,180.05244c0,3.24467 -4.92487,5.875 -11,5.875c-6.07513,0 -11,-2.13033 -11,-5.875c0,-4.24467 4.92487,-5.875 11,-5.875c6.07513,0 11,2.63033 11,5.875z" data-paper-data="{&quot;origPos&quot;:null}" fill="none" stroke="#000000" stroke-width="2"/></g></g></svg>