<svg version="1.1" xmlns="http://www.w3.org/2000/svg" xmlns:xlink="http://www.w3.org/1999/xlink" width="541.41242" height="439.1373" viewBox="0,0,541.41242,439.1373"><defs><radialGradient cx="85.10714" cy="179.61349" r="102.08147" gradientUnits="userSpaceOnUse" id="color-1"><stop offset="0" stop-color="#00ffff"/><stop offset="1" stop-color="#003fff"/></radialGradient><linearGradient x1="93.13732" y1="226.06547" x2="116.84252" y2="225.61222" gradientUnits="userSpaceOnUse" id="color-2"><stop offset="0" stop-color="#3b3b3b"/><stop offset="1" stop-color="#000000"/></linearGradient><linearGradient x1="45.43829" y1="224.77649" x2="95.96428" y2="232.66762" gradientUnits="userSpaceOnUse" id="color-3"><stop offset="0" stop-color="#000000"/><stop offset="1" stop-color="#3b3b3b"/></linearGradient><radialGradient cx="64.53669" cy="94.72534" r="54.55912" gradientUnits="userSpaceOnUse" id="color-4"><stop offset="0" stop-color="#b6b6b6"/><stop offset="1" stop-color="#666666"/></radialGradient><radialGradient cx="73.51406" cy="100.51267" r="16.49355" gradientUnits="userSpaceOnUse" id="color-5"><stop offset="0" stop-color="#ff0000"/><stop offset="1" stop-color="#ff0000" stop-opacity="0"/></radialGradient><radialGradient cx="74.33198" cy="102.47316" r="10.77795" gradientUnits="userSpaceOnUse" id="color-6"><stop offset="0" stop-color="#ff0000"/><stop offset="1" stop-color="#d20000"/></radialGradient><linearGradient x1="28.67369" y1="27.42029" x2="154.27035" y2="28.40488" gradientUnits="userSpaceOnUse" id="color-7"><stop offset="0" stop-color="#cc7700"/><stop offset="1" stop-color="#946f48"/></linearGradient></defs><g transform="translate(-6.90137,-26.1906)"><g data-paper-data="{&quot;isPaintingLayer&quot;:true}" fill-rule="nonzero" stroke-linejoin="miter" stroke-miterlimit="10" stroke-dasharray="" stroke-dashoffset="0" style="mix-blend-mode: normal"><path d="M129.27816,284.32322c0,0 -8.67632,1.02165 -13.06744,-1.30438c-4.39114,-2.32601 -8.03771,-9.87518 -8.03771,-9.87518l12.64006,-19.32466l15.7905,10.74405z" data-paper-data="{&quot;origRot&quot;:0,&quot;origPos&quot;:null,&quot;index&quot;:null}" fill="#ffd499" stroke="#806c4d" stroke-width="2" stroke-linecap="butt"/><path d="M114.52717,148.42538c0,0 7.70347,-2.3369 10.12432,-0.11106c14.10981,12.13031 42.57997,54.09797 39.39717,62.23597c-4.51051,11.53285 -27.98003,62.13645 -27.98003,62.13645c0,0 -7.83037,-2.25547 -11.96775,-5.6596c-4.08675,-3.36247 -9.50222,-8.16573 -9.50222,-8.16573c0,0 24.40322,-45.95015 25.30948,-54.0309c-0.89723,-12.4447 -23.98759,-29.71304 -23.98759,-29.71304z" data-paper-data="{&quot;origPos&quot;:null,&quot;index&quot;:null,&quot;origRot&quot;:0}" id="ID0.5423141438513994" fill="#000000" stroke="#000000" stroke-width="2.54325" stroke-linecap="round"/><g data-paper-data="{&quot;origRot&quot;:0}" stroke="#000000" stroke-linecap="butt"><path d="M63.54234,442.62359l-1.45077,-151.3153l53.32757,-0.61232l9.01493,149.8478l-19.27112,0.39926c0,0 -1.79996,-131.28894 -14.81809,-131.63938c-12.39301,-0.4972 -8.07539,132.30105 -8.07539,132.30105z" data-paper-data="{&quot;origPos&quot;:null,&quot;index&quot;:null}" fill="#333333" stroke-width="2.5"/><path d="M37.45813,464.03145l-0.2454,-12.44229c0,0 12.5743,-9.12669 21.11904,-11.28648c9.20272,-2.32611 24.30819,-2.66293 24.30819,-2.66293l0.50275,25.49068z" data-paper-data="{&quot;origPos&quot;:null,&quot;index&quot;:null}" fill="#666666" stroke-width="2.54325"/><path d="M105.0978,462.25797l-0.50275,-25.49066c0,0 15.10702,-0.25906 24.39429,1.70238c8.62324,1.8212 21.55975,11.05868 21.55975,11.05868l0.23329,11.82858z" data-paper-data="{&quot;origPos&quot;:null,&quot;index&quot;:null}" fill="#666666" stroke-width="2.54325"/></g><g data-paper-data="{&quot;origPos&quot;:null,&quot;origRot&quot;:0}" stroke="#000000"><path d="M58.33746,148.96658l53.67079,-0.35274l2.17031,144.11165l-52.8,0.33605z" data-paper-data="{&quot;origPos&quot;:null,&quot;index&quot;:null,&quot;origRot&quot;:0}" id="ID0.9171315478160977" fill="url(#color-1)" stroke-width="2.54325" stroke-linecap="butt"/><g data-paper-data="{&quot;origPos&quot;:null,&quot;index&quot;:null,&quot;origRot&quot;:0}" stroke-width="0" stroke-linecap="butt"><path d="M87.20487,227.81227l-4.7745,0.16865l6.50095,-21.73874l-5.34134,0.66805l4.94374,-17.95342l17.0461,-0.8671l-5.74722,13.63936l3.65303,-0.27072l-6.57799,20.76809l3.19644,0.23001l-19.43733,32.67455z" data-paper-data="{&quot;index&quot;:null,&quot;origPos&quot;:null}" fill="#ffde00"/><path d="M85.70143,224.59396l-4.7745,0.16865l6.50097,-21.73874l-5.34134,0.66805l4.94375,-17.95342l17.0461,-0.8671l-5.74722,13.63936l3.65303,-0.27072l-6.57798,20.76809l3.19644,0.23001l-17.99074,32.91751z" data-paper-data="{&quot;index&quot;:null,&quot;origPos&quot;:null}" fill="#ff0000"/><path d="M82.81346,224.37861l-4.77452,0.16865l6.50097,-21.73874l-5.34134,0.66805l4.94375,-17.95342l17.0461,-0.8671l-5.74722,13.63936l3.65303,-0.27073l-6.57798,20.76809l3.19643,0.23001l-15.13898,31.23944z" data-paper-data="{&quot;index&quot;:null,&quot;origPos&quot;:null}" fill="#000000"/></g><path d="M91.83054,157.71606c0,0 6.66333,-3.43786 10.92554,-5.77763c4.26852,-2.34323 10.97084,-4.26259 10.97084,-4.26259c0,0 1.09555,22.01543 1.15305,24.75122c0.65797,31.2864 3.43977,130.44781 3.43977,130.44781l-21.35597,1.44015z" data-paper-data="{&quot;origPos&quot;:null,&quot;index&quot;:null,&quot;origRot&quot;:0}" id="ID0.5423141438513994" fill="url(#color-2)" stroke-width="2.54325" stroke-linecap="round"/><path d="M84.61682,305.32403l-26.43319,-1.06564c0,0 -0.5779,-98.7359 -1.11754,-130.02457c-0.04719,-2.73604 0.18658,-25.10353 0.18658,-25.10353c0,0 7.17919,1.8763 11.79155,3.98295c3.9141,1.78772 14.57396,5.07351 14.57396,5.07351z" data-paper-data="{&quot;origPos&quot;:null,&quot;index&quot;:null,&quot;origRot&quot;:0}" id="ID0.5423141438513994" fill="url(#color-3)" stroke-width="2.54325" stroke-linecap="round"/><path d="M103.70727,282.10069c-2.15306,0.2966 -5.53985,-0.15598 -5.53985,-0.15598l-1.0092,-25.02732c0,0 1.5051,0.23056 2.45859,-0.01274c1.11934,-0.28558 2.85293,-1.34249 2.85293,-1.34249l6.54214,24.8886c0,0 -3.22545,1.36348 -5.30461,1.64989z" data-paper-data="{&quot;origPos&quot;:null,&quot;index&quot;:null,&quot;origRot&quot;:0}" fill="#1f1f1f" stroke-width="0" stroke-linecap="butt"/><path d="M101.80181,256.53972c0,0 2.57016,6.73205 3.7838,10.92113c1.41711,4.89133 2.95717,12.34632 2.95717,12.34632" data-paper-data="{&quot;origPos&quot;:null,&quot;origRot&quot;:0,&quot;index&quot;:null}" fill="none" stroke-width="2.54325" stroke-linecap="round"/><path d="M71.81622,281.66544l5.28691,-25.18513c0,0 1.78434,0.96869 2.91661,1.19787c0.96452,0.1952 2.45617,-0.11044 2.45617,-0.11044l0.24605,25.04642c0,0 -3.35986,0.62171 -5.52508,0.43333c-2.09089,-0.18189 -5.38061,-1.38205 -5.38061,-1.38205z" data-paper-data="{&quot;origPos&quot;:null,&quot;origRot&quot;:0}" fill="#1f1f1f" stroke-width="0" stroke-linecap="butt"/><path d="M71.29094,280.71774c0,0 1.54028,-7.76816 2.7105,-12.72434c1.00221,-4.24465 2.85616,-10.85163 2.85616,-10.85163" data-paper-data="{&quot;origPos&quot;:null,&quot;origRot&quot;:0}" fill="none" stroke-width="2.54325" stroke-linecap="round"/></g><path d="M178.24476,349.2005l-51.05406,-41.96306l358.97388,-1.23422l59.03126,41.96308z" data-paper-data="{&quot;origPos&quot;:null}" fill="#90704e" stroke="#000000" stroke-width="2" stroke-linecap="butt"/><path d="M154.58148,326.84423l21.14864,-1.84989l3.02389,3.37388l-20.69411,2.58978z" data-paper-data="{&quot;origPos&quot;:null,&quot;origRot&quot;:0}" fill="#ff2e2e" stroke="#000000" stroke-width="2" stroke-linecap="butt"/><path d="M194.63943,332.10665l-20.76251,-1.96756l2.92128,-3.4631l21.19464,1.21435z" data-paper-data="{&quot;origPos&quot;:null,&quot;origRot&quot;:0,&quot;index&quot;:null}" fill="#ffffff" stroke="#000000" stroke-width="2" stroke-linecap="butt"/><path d="M209.98864,336.24979l-17.42198,-3.21845l2.03935,-6.4957l17.85783,2.73284z" data-paper-data="{&quot;origPos&quot;:null,&quot;origRot&quot;:0,&quot;index&quot;:null}" fill="#ffffff" stroke="#000000" stroke-width="2" stroke-linecap="butt"/><path d="M200.60311,327.48035l-20.81285,2.77881l-3.35643,-2.61113l20.28397,-3.36374z" data-paper-data="{&quot;origPos&quot;:null,&quot;origRot&quot;:0}" fill="#ff2e2e" stroke="#000000" stroke-width="2" stroke-linecap="butt"/><path d="M171.0958,329.18631l20.90811,1.93585l2.68908,3.2943l-20.52311,-1.24764z" data-paper-data="{&quot;origPos&quot;:null,&quot;origRot&quot;:0}" fill="#ff2e2e" stroke="#000000" stroke-width="2" stroke-linecap="butt"/><g data-paper-data="{&quot;origRot&quot;:0,&quot;origPos&quot;:null}" stroke="#000000"><path d="M149.09033,315.35125l-0.05487,-7.63776l30.48845,-0.21914l0.05487,7.63776z" data-paper-data="{&quot;origPos&quot;:null}" fill="#ffffff" stroke-width="1" stroke-linecap="butt"/><path d="M144.37891,313.14902l-0.08835,-7.93708l5.09196,2.88046l-0.23023,7.16448z" data-paper-data="{&quot;origPos&quot;:null}" fill="#ffffff" stroke-width="1" stroke-linecap="butt"/><path d="M149.56739,307.68343l-4.68297,-2.60099l29.80195,0.08209l4.17951,2.24059z" data-paper-data="{&quot;origPos&quot;:null}" fill="#ffffff" stroke-width="1" stroke-linecap="butt"/><path d="M150.72203,313.71173l-0.03333,-4.63274l27.17043,-0.19532l0.03333,4.63274z" data-paper-data="{&quot;origPos&quot;:null}" fill="#ff2e2e" stroke-width="0" stroke-linecap="butt"/><path d="M149.79491,306.67492l-0.63008,-0.55894l24.54194,-0.05118l1.13005,0.43012z" data-paper-data="{&quot;origPos&quot;:null}" fill="#ff2e2e" stroke-width="0" stroke-linecap="butt"/><path d="M144.76743,309.82791l4.01928,1.72413" data-paper-data="{&quot;origPos&quot;:null}" fill="none" stroke-width="0.5" stroke-linecap="round"/></g><path d="M176.64932,378.04801v-31.06592h368.54652v31.06592z" data-paper-data="{&quot;origPos&quot;:null}" fill="#90704e" stroke="#000000" stroke-width="2" stroke-linecap="butt"/><path d="M329.92452,329.98091l-8.64443,-22.37119l6.1229,3.65504l11.53523,22.50434z" data-paper-data="{&quot;origPos&quot;:null,&quot;origRot&quot;:0,&quot;index&quot;:null}" fill="#ff2e2e" stroke="#000000" stroke-width="2" stroke-linecap="butt"/><path d="M307.20027,321.60772l26.07006,-10.82405l1.17192,7.81949l-25.58496,12.38636z" data-paper-data="{&quot;origPos&quot;:null,&quot;origRot&quot;:0,&quot;index&quot;:null}" fill="#ffffff" stroke="#000000" stroke-width="2" stroke-linecap="butt"/><path d="M312.77447,329.30911l-15.70507,-18.12586l6.99855,1.36732l18.47037,17.27286z" data-paper-data="{&quot;origPos&quot;:null,&quot;origRot&quot;:0,&quot;index&quot;:null}" fill="#ff2e2e" stroke="#000000" stroke-width="2" stroke-linecap="butt"/><path d="M289.45714,326.52443l25.55732,-11.98463l1.52213,7.75893l-25.0025,13.52356z" data-paper-data="{&quot;origPos&quot;:null,&quot;origRot&quot;:0,&quot;index&quot;:null}" fill="#ffffff" stroke="#000000" stroke-width="2" stroke-linecap="butt"/><path d="M282.71713,328.79712l9.73506,-21.9186l1.73597,6.91633l-7.78791,24.05941z" data-paper-data="{&quot;origPos&quot;:null,&quot;origRot&quot;:0,&quot;index&quot;:null}" fill="#ff2e2e" stroke="#000000" stroke-width="2" stroke-linecap="butt"/><path d="M269.32391,326.85911l19.01984,-20.85796l4.37728,6.58462l-17.91798,22.06712z" data-paper-data="{&quot;origPos&quot;:null,&quot;origRot&quot;:0,&quot;index&quot;:null}" fill="#ffffff" stroke="#000000" stroke-width="2" stroke-linecap="butt"/><path d="M263.08309,326.07189l11.37079,-21.11638l1.20594,7.02815l-9.59175,23.39882z" data-paper-data="{&quot;origPos&quot;:null,&quot;origRot&quot;:0,&quot;index&quot;:null}" fill="#ff2e2e" stroke="#000000" stroke-width="2" stroke-linecap="butt"/><path d="M248.77709,327.05955l16.79762,-22.68586l5.02488,6.10479l-15.5784,23.77657z" data-paper-data="{&quot;origPos&quot;:null,&quot;origRot&quot;:0,&quot;index&quot;:null}" fill="#ffffff" stroke="#000000" stroke-width="2" stroke-linecap="butt"/><g data-paper-data="{&quot;origPos&quot;:null,&quot;origRot&quot;:0}"><path d="M87.07956,46.31699c14.78374,0.11339 28.13303,6.13048 37.75741,15.76005c9.62446,9.63075 10.28354,24.52428 8.94091,41.24991c-0.92508,11.52401 -4.04251,22.9764 -13.35828,32.01079c-9.77739,9.48077 -24.52294,16.57783 -34.18527,16.54756c-9.66213,-0.03021 -24.31296,-4.76191 -33.93741,-14.39145c-9.62457,-9.63093 -15.5655,-20.26049 -15.44893,-34.82264c0.11659,-14.56226 2.44893,-31.69332 12.22653,-41.17531c9.77743,-9.4808 23.22135,-15.29238 38.00499,-15.17897z" data-paper-data="{&quot;origPos&quot;:null,&quot;origRot&quot;:0}" id="ID0.7719937418587506" fill="#ffd499" stroke="#806c4d" stroke-width="2.5" stroke-linecap="butt"/><path d="M90.37401,49.21458c5.55692,0.24547 3.45756,10.72735 3.72198,16.28315c0.59766,12.58352 4.0653,27.0511 -1.16053,38.9149c-4.47966,9.21938 -14.31947,15.78751 -24.09931,18.63142c-10.59954,2.65447 -21.6361,3.32031 -25.95412,-2.48588c-7.32394,-17.53301 -2.73359,-42.8297 8.83056,-58.31552c10.13893,-12.6465 22.50193,-13.73472 38.66139,-13.02804z" data-paper-data="{&quot;origPos&quot;:null,&quot;origRot&quot;:0}" id="ID0.479907026514411" fill="url(#color-4)" stroke="#666666" stroke-width="2.5" stroke-linecap="round"/><path d="M112.04452,94.61295c0.04955,5.1165 -0.44868,16.2015 -0.44868,16.2015" data-paper-data="{&quot;origPos&quot;:null,&quot;origRot&quot;:0}" id="ID0.21129454905167222" fill="none" stroke="#000000" stroke-width="2.5" stroke-linecap="round"/><path d="M97.1258,134.02975l-16.95923,-0.78102" data-paper-data="{&quot;origPos&quot;:null,&quot;index&quot;:null,&quot;origRot&quot;:0}" fill="none" stroke="#000000" stroke-width="2" stroke-linecap="round"/><path d="M57.02271,100.24489c0.14789,-9.10789 7.65118,-16.37148 16.7591,-16.22364c9.10791,0.1479 16.37148,7.65118 16.22364,16.7591c-0.14789,9.10789 -7.65118,16.37148 -16.7591,16.22364c-9.10791,-0.1479 -16.37148,-7.65118 -16.22364,-16.7591z" data-paper-data="{&quot;origPos&quot;:null,&quot;origRot&quot;:0}" fill="url(#color-5)" stroke="none" stroke-width="0" stroke-linecap="butt"/><path d="M62.57157,100.49835c0.09661,-5.95171 4.99975,-10.69821 10.95147,-10.60157c5.95171,0.09661 10.69821,4.99975 10.60157,10.95147c-0.09661,5.95171 -4.99975,10.69821 -10.95147,10.60157c-5.95171,-0.09661 -10.69821,-4.99975 -10.60157,-10.95147z" data-paper-data="{&quot;origPos&quot;:null,&quot;origRot&quot;:0}" fill="url(#color-6)" stroke="#666666" stroke-width="2" stroke-linecap="butt"/><path d="M41.64735,122.19554c0,0 3.81758,-22.25148 8.14669,-36.7417c2.86283,-9.58239 10.27475,-24.50602 10.27475,-24.50602l32.53757,7.54111l0.41172,4.74098c0,0 -9.02114,-1.04044 -13.99507,-1.63096c-4.59639,-0.54565 -9.17506,-3.71566 -13.0956,-1.25515c-7.17934,4.50574 -7.28216,13.10975 -9.76558,21.21386c-3.35534,10.94931 -5.92931,31.36605 -5.92931,31.36605z" data-paper-data="{&quot;origRot&quot;:0,&quot;origPos&quot;:null}" fill="#7a7a7a" stroke="none" stroke-width="0" stroke-linecap="butt"/><path d="M95.93532,73.26548l-0.18703,-4.57612l32.85087,0.66978c0,0 -6.84312,3.11842 -13.77499,3.43484c-6.98354,0.31871 -18.62674,0.48151 -18.62674,0.48151z" data-paper-data="{&quot;origPos&quot;:null,&quot;origRot&quot;:0}" fill="#b0936a" stroke="none" stroke-width="0" stroke-linecap="butt"/><path d="M43.84611,124.56767l5.38792,1.18293l-0.732,5.95132z" data-paper-data="{&quot;origPos&quot;:null,&quot;origRot&quot;:0}" fill="#b0936a" stroke="none" stroke-width="0" stroke-linecap="butt"/><path d="M95.05123,27.94061c13.88897,0.33378 21.67321,1.63857 35.53011,2.63936c8.02346,0.57948 23.82696,0.99523 23.82696,0.99523c0,0 -10.1391,5.47571 -12.02637,5.94386c-3.50044,0.86834 -9.75049,2.94288 -9.75049,2.94288c0,0 4.88312,1.33397 8.31979,2.71179c3.69474,1.48131 9.38712,2.9047 9.38712,2.9047c0,0 -5.78788,2.35049 -9.43625,3.21688c-4.55764,1.08229 -10.73514,3.6943 -10.73514,3.6943c0,0 7.09858,3.83461 12.51241,5.12465c5.44433,1.29729 12.56533,3.966 12.56533,3.966c0,0 -10.17453,5.35235 -16.72579,6.22138c-16.52464,2.19396 -33.38342,-0.84495 -50.04937,-0.95696c-10.16013,-0.0696 -24.98112,-7.3279 -30.24775,1.64472c-13.85604,22.1749 -14.12422,78.9465 -18.04201,77.01398c-3.91798,-1.93268 -14.30849,-61.70136 -9.3245,-92.20952c1.9279,-11.79023 12.90432,-18.46009 26.59107,-23.85779c13.68675,-5.39759 25.25306,-2.056 37.60497,-1.99549z" data-paper-data="{&quot;origPos&quot;:null,&quot;origRot&quot;:0}" id="ID0.5302143599838018" fill="url(#color-7)" stroke="#a96300" stroke-width="3.5" stroke-linecap="round"/></g><path d="M248.51265,328.47641l-3.0073,-23.79395l5.06349,5.02099l5.78113,24.6188z" data-paper-data="{&quot;origPos&quot;:null,&quot;origRot&quot;:0,&quot;index&quot;:null}" fill="#ff2e2e" stroke="#000000" stroke-width="2" stroke-linecap="butt"/><path d="M231.19311,328.12584l14.62456,-24.14395l5.56863,5.61323l-13.30958,25.11706z" data-paper-data="{&quot;origPos&quot;:null,&quot;origRot&quot;:0,&quot;index&quot;:null}" fill="#ffffff" stroke="#000000" stroke-width="2" stroke-linecap="butt"/><path d="M289.16905,311.15395l-5.15739,-5.83602l20.34463,1.89218l7.01028,6.34313z" data-paper-data="{&quot;origPos&quot;:null,&quot;origRot&quot;:0}" fill="#ffffff" stroke="#000000" stroke-width="2" stroke-linecap="butt"/><path d="M310.37982,313.46147l-5.15739,-5.83602l20.34463,1.89218l7.01028,6.34313z" data-paper-data="{&quot;origPos&quot;:null,&quot;origRot&quot;:0}" fill="#ffffff" stroke="#000000" stroke-width="2" stroke-linecap="butt"/><path d="M269.22235,309.98581l-5.39488,-5.6172l20.40557,1.04718l7.26721,6.04705z" data-paper-data="{&quot;origPos&quot;:null,&quot;origRot&quot;:0}" fill="#ffffff" stroke="#000000" stroke-width="2" stroke-linecap="butt"/><path d="M245.95613,310.08938l-5.74061,-5.26337l20.43089,-0.2504l7.63646,5.57348z" data-paper-data="{&quot;origPos&quot;:null,&quot;origRot&quot;:0}" fill="#ffffff" stroke="#000000" stroke-width="2" stroke-linecap="butt"/><path d="M324.18259,308.84982l-14.05335,-19.08117l6.78678,1.89364l16.84385,18.45703z" data-paper-data="{&quot;origPos&quot;:null,&quot;origRot&quot;:0,&quot;index&quot;:null}" fill="#ff2e2e" stroke="#000000" stroke-width="2" stroke-linecap="butt"/><path d="M301.73953,306.62245l16.59773,-22.4159l4.96508,6.03214l-15.39301,23.49363z" data-paper-data="{&quot;origPos&quot;:null,&quot;origRot&quot;:0,&quot;index&quot;:null}" fill="#ffffff" stroke="#000000" stroke-width="2" stroke-linecap="butt"/><path d="M299.83393,306.64603l-0.78148,-23.68496l4.52229,5.40325l3.43505,24.7503z" data-paper-data="{&quot;origPos&quot;:null,&quot;origRot&quot;:0,&quot;index&quot;:null}" fill="#ff2e2e" stroke="#000000" stroke-width="2" stroke-linecap="butt"/><path d="M282.82613,304.71629l16.59773,-22.4159l4.96508,6.03214l-15.39301,23.49363z" data-paper-data="{&quot;origPos&quot;:null,&quot;origRot&quot;:0,&quot;index&quot;:null}" fill="#ffffff" stroke="#000000" stroke-width="2" stroke-linecap="butt"/><path d="M279.87351,304.60489l-0.78148,-23.68496l4.52229,5.40325l3.43505,24.7503z" data-paper-data="{&quot;origPos&quot;:null,&quot;origRot&quot;:0,&quot;index&quot;:null}" fill="#ff2e2e" stroke="#000000" stroke-width="2" stroke-linecap="butt"/><path d="M262.86573,302.67518l16.59773,-22.4159l4.96508,6.03214l-15.39301,23.49363z" data-paper-data="{&quot;origPos&quot;:null,&quot;origRot&quot;:0,&quot;index&quot;:null}" fill="#ffffff" stroke="#000000" stroke-width="2" stroke-linecap="butt"/><path d="M260.91337,302.17988l-0.78148,-23.68495l4.52229,5.40325l3.43505,24.7503z" data-paper-data="{&quot;origPos&quot;:null,&quot;origRot&quot;:0,&quot;index&quot;:null}" fill="#ff2e2e" stroke="#000000" stroke-width="2" stroke-linecap="butt"/><path d="M243.05653,302.17985l17.44673,-24.34557l4.96508,6.03215l-16.78235,24.03395z" data-paper-data="{&quot;origPos&quot;:null,&quot;origRot&quot;:0,&quot;index&quot;:null}" fill="#ffffff" stroke="#000000" stroke-width="2" stroke-linecap="butt"/><path d="M302.77701,286.95882l-5.09602,-5.76657l20.10252,1.86966l6.92686,6.26765z" data-paper-data="{&quot;origPos&quot;:null,&quot;origRot&quot;:0}" fill="#ffffff" stroke="#000000" stroke-width="2" stroke-linecap="butt"/><path d="M283.06769,285.8046l-5.33069,-5.55036l20.16274,1.03472l7.18073,5.97509z" data-paper-data="{&quot;origPos&quot;:null,&quot;origRot&quot;:0}" fill="#ffffff" stroke="#000000" stroke-width="2" stroke-linecap="butt"/><path d="M260.08062,283.85583l-5.1663,-5.70368l20.12392,1.62317l7.00316,6.18227z" data-paper-data="{&quot;origPos&quot;:null,&quot;origRot&quot;:0}" fill="#ffffff" stroke="#000000" stroke-width="2" stroke-linecap="butt"/><path d="M35.86433,265.56307l15.7905,-10.74404l12.64006,19.32466c0,0 -3.64657,7.54917 -8.03771,9.87518c-4.39112,2.32603 -13.06744,1.30438 -13.06744,1.30438z" data-paper-data="{&quot;origRot&quot;:0,&quot;origPos&quot;:null,&quot;index&quot;:null}" fill="#ffd499" stroke="#806c4d" stroke-width="2" stroke-linecap="butt"/><path d="M56.54734,176.11746c0,0 -23.09036,17.26834 -23.98759,29.71304c0.90626,8.08075 25.30948,54.0309 25.30948,54.0309c0,0 -5.41547,4.80327 -9.50222,8.16573c-4.13739,3.40413 -11.96776,5.6596 -11.96776,5.6596c0,0 -23.46952,-50.6036 -27.98003,-62.13645c-3.18279,-8.138 25.28737,-50.10566 39.39717,-62.23597c2.42085,-2.22584 10.12432,0.11106 10.12432,0.11106z" data-paper-data="{&quot;origPos&quot;:null,&quot;index&quot;:null,&quot;origRot&quot;:0}" id="ID0.5423141438513994" fill="#000000" stroke="#000000" stroke-width="2.54325" stroke-linecap="round"/><path d="M238.97321,302.89583l-2.97151,-23.5108l5.00323,4.96124l5.71233,24.32583z" data-paper-data="{&quot;origPos&quot;:null,&quot;origRot&quot;:0,&quot;index&quot;:null}" fill="#ff2e2e" stroke="#000000" stroke-width="2" stroke-linecap="butt"/><path d="M353.68612,318.69655l-21.56121,-17.69382l6.272,-4.65841l22.69762,16.54428z" data-paper-data="{&quot;origPos&quot;:null,&quot;origRot&quot;:0,&quot;index&quot;:null}" fill="#ffffff" stroke="#000000" stroke-width="2" stroke-linecap="butt"/><path d="M240.11378,284.3943l-5.6723,-5.20074l20.18776,-0.24742l7.54559,5.50716z" data-paper-data="{&quot;origPos&quot;:null,&quot;origRot&quot;:0}" fill="#ffffff" stroke="#000000" stroke-width="2" stroke-linecap="butt"/><path d="M329.99483,309.22975l-7.23949,-2.61007l18.52978,-8.01586l9.086,2.17014z" data-paper-data="{&quot;origPos&quot;:null,&quot;origRot&quot;:0}" fill="#ffffff" stroke="#000000" stroke-width="2" stroke-linecap="butt"/><path d="M360.41429,293.55155l-21.72265,-10.16478l6.94918,-1.59944l23.90139,8.26017z" data-paper-data="{&quot;origPos&quot;:null,&quot;origRot&quot;:0,&quot;index&quot;:null}" fill="#ff2e2e" stroke="#000000" stroke-width="2" stroke-linecap="butt"/><path d="M344.70621,307.50789l0.09877,-28.22761l7.6644,1.9429l1.52959,28.38436z" data-paper-data="{&quot;origPos&quot;:null,&quot;origRot&quot;:0,&quot;index&quot;:null}" fill="#ffffff" stroke="#000000" stroke-width="2" stroke-linecap="butt"/><path d="M310.93936,284.27521l0.91417,-23.96583l4.17666,5.77968l1.68797,25.23207z" data-paper-data="{&quot;origPos&quot;:null,&quot;origRot&quot;:0,&quot;index&quot;:null}" fill="#ff2e2e" stroke="#000000" stroke-width="2" stroke-linecap="butt"/><path d="M293.90897,281.10424l18.36698,-21.43508l4.57844,6.44637l-17.22833,22.60965z" data-paper-data="{&quot;origPos&quot;:null,&quot;origRot&quot;:0,&quot;index&quot;:null}" fill="#ffffff" stroke="#000000" stroke-width="2" stroke-linecap="butt"/><path d="M291.98359,280.99102l0.91417,-23.96583l4.17666,5.77968l1.68797,25.23207z" data-paper-data="{&quot;origPos&quot;:null,&quot;origRot&quot;:0,&quot;index&quot;:null}" fill="#ff2e2e" stroke="#000000" stroke-width="2" stroke-linecap="butt"/><path d="M274.95322,277.82004l18.36698,-21.43508l4.57844,6.44637l-17.22833,22.60965z" data-paper-data="{&quot;origPos&quot;:null,&quot;origRot&quot;:0,&quot;index&quot;:null}" fill="#ffffff" stroke="#000000" stroke-width="2" stroke-linecap="butt"/><path d="M271.98062,277.49529l0.91417,-23.96583l4.17666,5.77968l1.68797,25.23207z" data-paper-data="{&quot;origPos&quot;:null,&quot;origRot&quot;:0,&quot;index&quot;:null}" fill="#ff2e2e" stroke="#000000" stroke-width="2" stroke-linecap="butt"/><path d="M254.95024,274.32432l18.36698,-21.43508l4.57844,6.44637l-17.22833,22.60965z" data-paper-data="{&quot;origPos&quot;:null,&quot;origRot&quot;:0,&quot;index&quot;:null}" fill="#ffffff" stroke="#000000" stroke-width="2" stroke-linecap="butt"/><path d="M251.84598,277.14306l-3.0073,-23.79395l5.06349,5.02099l5.78113,24.6188z" data-paper-data="{&quot;origPos&quot;:null,&quot;origRot&quot;:0,&quot;index&quot;:null}" fill="#ff2e2e" stroke="#000000" stroke-width="2" stroke-linecap="butt"/><path d="M234.52644,276.79249l14.62456,-24.14395l5.56863,5.61323l-13.30958,25.11706z" data-paper-data="{&quot;origPos&quot;:null,&quot;origRot&quot;:0,&quot;index&quot;:null}" fill="#ffffff" stroke="#000000" stroke-width="2" stroke-linecap="butt"/><path d="M296.37019,261.32867l-4.72971,-6.1877l20.15878,3.33286l6.54189,6.82517z" data-paper-data="{&quot;origPos&quot;:null,&quot;origRot&quot;:0}" fill="#ffffff" stroke="#000000" stroke-width="2" stroke-linecap="butt"/><path d="M337.14701,297.55887l-6.48813,4.30836l4.66422,-19.89294l7.24455,-6.07421z" data-paper-data="{&quot;origPos&quot;:null,&quot;origRot&quot;:0}" fill="#ffffff" stroke="#000000" stroke-width="2" stroke-linecap="butt"/><path d="M276.5569,258.74631l-4.98215,-5.9863l20.2796,2.49433l6.81921,6.5481z" data-paper-data="{&quot;origPos&quot;:null,&quot;origRot&quot;:0}" fill="#ffffff" stroke="#000000" stroke-width="2" stroke-linecap="butt"/><path d="M253.49191,255.12618l-4.80519,-6.12926l20.1981,3.08557l6.62506,6.74447z" data-paper-data="{&quot;origPos&quot;:null,&quot;origRot&quot;:0}" fill="#ffffff" stroke="#000000" stroke-width="2" stroke-linecap="butt"/><path d="M330.08463,287.76652l-0.834,-23.68317l4.53425,5.39321l3.48993,24.74262z" data-paper-data="{&quot;origPos&quot;:null,&quot;origRot&quot;:0,&quot;index&quot;:null}" fill="#ff2e2e" stroke="#000000" stroke-width="2" stroke-linecap="butt"/><path d="M322.54558,298.20198l18.56838,-20.8128l4.39565,6.45887l-17.46672,21.99566z" data-paper-data="{&quot;origPos&quot;:null,&quot;origRot&quot;:0,&quot;index&quot;:null}" fill="#ffffff" stroke="#000000" stroke-width="2" stroke-linecap="butt"/><path d="M307.32842,257.5899l0.90329,-23.68063l4.12697,5.7109l1.66789,24.93181z" data-paper-data="{&quot;origPos&quot;:null,&quot;origRot&quot;:0,&quot;index&quot;:null}" fill="#ff2e2e" stroke="#000000" stroke-width="2" stroke-linecap="butt"/><path d="M290.50068,254.45665l18.14841,-21.18l4.52396,6.36966l-17.02331,22.3406z" data-paper-data="{&quot;origPos&quot;:null,&quot;origRot&quot;:0,&quot;index&quot;:null}" fill="#ffffff" stroke="#000000" stroke-width="2" stroke-linecap="butt"/><path d="M287.56347,254.13576l0.90329,-23.68063l4.12697,5.7109l1.66789,24.93181z" data-paper-data="{&quot;origPos&quot;:null,&quot;origRot&quot;:0,&quot;index&quot;:null}" fill="#ff2e2e" stroke="#000000" stroke-width="2" stroke-linecap="butt"/><path d="M270.73575,251.00252l18.14841,-21.18l4.52396,6.36966l-17.02331,22.3406z" data-paper-data="{&quot;origPos&quot;:null,&quot;origRot&quot;:0,&quot;index&quot;:null}" fill="#ffffff" stroke="#000000" stroke-width="2" stroke-linecap="butt"/><path d="M268.82352,250.36979l0.90328,-23.68062l4.12697,5.7109l1.66789,24.93181z" data-paper-data="{&quot;origPos&quot;:null,&quot;origRot&quot;:0,&quot;index&quot;:null}" fill="#ff2e2e" stroke="#000000" stroke-width="2" stroke-linecap="butt"/><path d="M251.01182,249.10102l19.13237,-23.04447l4.52395,6.36967l-18.44752,22.78084z" data-paper-data="{&quot;origPos&quot;:null,&quot;origRot&quot;:0,&quot;index&quot;:null}" fill="#ffffff" stroke="#000000" stroke-width="2" stroke-linecap="butt"/><path d="M312.71938,292.87407l-7.63294,-0.98025l16.354,-11.83866l9.34035,0.15088z" data-paper-data="{&quot;origPos&quot;:null,&quot;origRot&quot;:0}" fill="#ffffff" stroke="#000000" stroke-width="2" stroke-linecap="butt"/><path d="M292.08529,235.6099l-4.92287,-5.91507l20.03827,2.46465l6.73806,6.47017z" data-paper-data="{&quot;origPos&quot;:null,&quot;origRot&quot;:0}" fill="#ffffff" stroke="#000000" stroke-width="2" stroke-linecap="butt"/><path d="M269.29477,232.03285l-4.748,-6.05633l19.95774,3.04885l6.54622,6.66421z" data-paper-data="{&quot;origPos&quot;:null,&quot;origRot&quot;:0}" fill="#ffffff" stroke="#000000" stroke-width="2" stroke-linecap="butt"/><path d="M242.30655,251.56252l-2.97151,-23.5108l5.00323,4.96124l5.71233,24.32583z" data-paper-data="{&quot;origPos&quot;:null,&quot;origRot&quot;:0,&quot;index&quot;:null}" fill="#ff2e2e" stroke="#000000" stroke-width="2" stroke-linecap="butt"/><path d="M377.65507,300.92689l25.35391,-11.62485l1.43815,7.67922l-24.81874,13.15012z" data-paper-data="{&quot;origPos&quot;:null,&quot;origRot&quot;:0,&quot;index&quot;:null}" fill="#ffffff" stroke="#000000" stroke-width="2" stroke-linecap="butt"/><path d="M251.91911,228.82227l-4.748,-6.05633l19.95774,3.04885l6.54622,6.66421z" data-paper-data="{&quot;origPos&quot;:null,&quot;origRot&quot;:0}" fill="#ffffff" stroke="#000000" stroke-width="2" stroke-linecap="butt"/><path d="M409.09037,275.8633l7.58912,1.27597l-16.80147,11.19453l-9.32744,-0.51352z" data-paper-data="{&quot;origPos&quot;:null,&quot;origRot&quot;:0}" fill="#ffffff" stroke="#000000" stroke-width="2" stroke-linecap="butt"/><path d="M238.40069,334.0397l-3.37866,-26.73221l5.68877,5.64102l6.49503,27.65891z" data-paper-data="{&quot;origPos&quot;:null,&quot;origRot&quot;:0,&quot;index&quot;:null}" fill="#ff2e2e" stroke="#000000" stroke-width="2" stroke-linecap="butt"/><path d="M218.94241,333.64583l16.43052,-27.12542l6.25628,6.30638l-14.95314,28.2187z" data-paper-data="{&quot;origPos&quot;:null,&quot;origRot&quot;:0,&quot;index&quot;:null}" fill="#ffffff" stroke="#000000" stroke-width="2" stroke-linecap="butt"/><path d="M216.67994,333.29071l-3.37866,-26.7322l5.68877,5.64102l6.49503,27.65891z" data-paper-data="{&quot;origPos&quot;:null,&quot;origRot&quot;:0,&quot;index&quot;:null}" fill="#ff2e2e" stroke="#000000" stroke-width="2" stroke-linecap="butt"/><path d="M197.22165,332.89685l16.43051,-27.12542l6.25628,6.30639l-14.95314,28.2187z" data-paper-data="{&quot;origPos&quot;:null,&quot;origRot&quot;:0,&quot;index&quot;:null}" fill="#ffffff" stroke="#000000" stroke-width="2" stroke-linecap="butt"/><path d="M213.80772,312.63311l-6.4495,-5.91333l22.95384,-0.28132l8.57947,6.26173z" data-paper-data="{&quot;origPos&quot;:null,&quot;origRot&quot;:0}" fill="#ffffff" stroke="#000000" stroke-width="2" stroke-linecap="butt"/><path d="M232.16579,304.90218l16.235,-26.80263l6.18183,6.23133l-14.77519,27.8829z" data-paper-data="{&quot;origPos&quot;:null,&quot;origRot&quot;:0,&quot;index&quot;:null}" fill="#ffffff" stroke="#000000" stroke-width="2" stroke-linecap="butt"/><path d="M229.93023,304.55127l-3.33845,-26.41408l5.62107,5.57389l6.41773,27.32976z" data-paper-data="{&quot;origPos&quot;:null,&quot;origRot&quot;:0,&quot;index&quot;:null}" fill="#ff2e2e" stroke="#000000" stroke-width="2" stroke-linecap="butt"/><path d="M209.95452,306.40907l16.98397,-29.04961l6.18183,6.23134l-16.27318,28.63188z" data-paper-data="{&quot;origPos&quot;:null,&quot;origRot&quot;:0,&quot;index&quot;:null}" fill="#ffffff" stroke="#000000" stroke-width="2" stroke-linecap="butt"/><path d="M227.09219,284.13952l-6.37276,-5.84297l22.68069,-0.27797l8.47737,6.18722z" data-paper-data="{&quot;origPos&quot;:null,&quot;origRot&quot;:0}" fill="#ffffff" stroke="#000000" stroke-width="2" stroke-linecap="butt"/><path d="M205.9625,304.55127l-3.33845,-26.41408l5.62107,5.57389l6.41773,27.32976z" data-paper-data="{&quot;origPos&quot;:null,&quot;origRot&quot;:0,&quot;index&quot;:null}" fill="#ff2e2e" stroke="#000000" stroke-width="2" stroke-linecap="butt"/><path d="M207.24392,283.76502l-6.37276,-5.84297l22.68069,-0.27797l8.47737,6.18722z" data-paper-data="{&quot;origPos&quot;:null,&quot;origRot&quot;:0}" fill="#ffffff" stroke="#000000" stroke-width="2" stroke-linecap="butt"/><path d="M240.90069,276.53971l-3.37867,-26.73221l5.68877,5.64101l6.49502,27.65891z" data-paper-data="{&quot;origPos&quot;:null,&quot;origRot&quot;:0,&quot;index&quot;:null}" fill="#ff2e2e" stroke="#000000" stroke-width="2" stroke-linecap="butt"/><path d="M221.44242,276.14583l16.43051,-27.12542l6.25629,6.30638l-14.95314,28.2187z" data-paper-data="{&quot;origPos&quot;:null,&quot;origRot&quot;:0,&quot;index&quot;:null}" fill="#ffffff" stroke="#000000" stroke-width="2" stroke-linecap="butt"/><path d="M219.17994,275.79071l-3.37866,-26.7322l5.68877,5.64101l6.49502,27.65891z" data-paper-data="{&quot;origPos&quot;:null,&quot;origRot&quot;:0,&quot;index&quot;:null}" fill="#ff2e2e" stroke="#000000" stroke-width="2" stroke-linecap="butt"/><path d="M199.72166,275.39682l16.43051,-27.12542l6.25628,6.3064l-14.95315,28.21869z" data-paper-data="{&quot;origPos&quot;:null,&quot;origRot&quot;:0,&quot;index&quot;:null}" fill="#ffffff" stroke="#000000" stroke-width="2" stroke-linecap="butt"/><path d="M216.30772,255.13312l-6.4495,-5.91333l22.95385,-0.28132l8.57946,6.26173z" data-paper-data="{&quot;origPos&quot;:null,&quot;origRot&quot;:0}" fill="#ffffff" stroke="#000000" stroke-width="2" stroke-linecap="butt"/><path d="M234.66579,247.4022l16.235,-26.80263l6.18183,6.23134l-14.77519,27.8829z" data-paper-data="{&quot;origPos&quot;:null,&quot;origRot&quot;:0,&quot;index&quot;:null}" fill="#ffffff" stroke="#000000" stroke-width="2" stroke-linecap="butt"/><path d="M232.43023,247.05128l-3.33845,-26.41408l5.62107,5.57389l6.41773,27.32976z" data-paper-data="{&quot;origPos&quot;:null,&quot;origRot&quot;:0,&quot;index&quot;:null}" fill="#ff2e2e" stroke="#000000" stroke-width="2" stroke-linecap="butt"/><path d="M212.45452,248.90909l16.98397,-29.0496l6.18183,6.23134l-16.27318,28.63188z" data-paper-data="{&quot;origPos&quot;:null,&quot;origRot&quot;:0,&quot;index&quot;:null}" fill="#ffffff" stroke="#000000" stroke-width="2" stroke-linecap="butt"/><path d="M229.59219,226.63953l-6.37276,-5.84296l22.68069,-0.27797l8.47737,6.18722z" data-paper-data="{&quot;origPos&quot;:null,&quot;origRot&quot;:0}" fill="#ffffff" stroke="#000000" stroke-width="2" stroke-linecap="butt"/><path d="M208.4625,247.05128l-3.33845,-26.41408l5.62106,5.57389l6.41773,27.32976z" data-paper-data="{&quot;origPos&quot;:null,&quot;origRot&quot;:0,&quot;index&quot;:null}" fill="#ff2e2e" stroke="#000000" stroke-width="2" stroke-linecap="butt"/><path d="M209.74392,226.26502l-6.37276,-5.84296l22.68069,-0.27797l8.47737,6.18723z" data-paper-data="{&quot;origPos&quot;:null,&quot;origRot&quot;:0}" fill="#ffffff" stroke="#000000" stroke-width="2" stroke-linecap="butt"/><path d="M393.2639,332.13844l-25.35025,9.13187l4.26335,-6.78283l25.57442,-12.37536z" data-paper-data="{&quot;origPos&quot;:null,&quot;origRot&quot;:0,&quot;index&quot;:null}" fill="#ff2e2e" stroke="#000000" stroke-width="2" stroke-linecap="butt"/><path d="M354.1561,332.93397l20.11806,-24.51558l5.29673,7.13135l-18.81101,25.8077z" data-paper-data="{&quot;origPos&quot;:null,&quot;origRot&quot;:0,&quot;index&quot;:null}" fill="#ffffff" stroke="#000000" stroke-width="2" stroke-linecap="butt"/><path d="M353.01926,338.56863l-20.20091,-17.83113l7.99736,0.47462l23.15227,16.46733z" data-paper-data="{&quot;origPos&quot;:null,&quot;origRot&quot;:0,&quot;index&quot;:null}" fill="#ff2e2e" stroke="#000000" stroke-width="2" stroke-linecap="butt"/><path d="M327.03352,323.07611l30.16993,-9.7737l0.60817,8.86238l-29.76738,11.56696z" data-paper-data="{&quot;origPos&quot;:null,&quot;origRot&quot;:0,&quot;index&quot;:null}" fill="#ffffff" stroke="#000000" stroke-width="2" stroke-linecap="butt"/><path d="M346.85105,309.63705l-4.32715,-7.60521l21.93577,6.76615l6.24788,8.58956z" data-paper-data="{&quot;origPos&quot;:null,&quot;origRot&quot;:0}" fill="#ffffff" stroke="#000000" stroke-width="2" stroke-linecap="butt"/><path d="M375.762,320.99176l29.79242,-9.71432l0.61768,8.75574l-29.39125,11.48551z" data-paper-data="{&quot;origPos&quot;:null,&quot;origRot&quot;:0,&quot;index&quot;:null}" fill="#ffffff" stroke="#000000" stroke-width="2" stroke-linecap="butt"/><path d="M363.61569,323.67879l4.98452,-26.15346l3.62428,7.03769l-2.33869,27.97559z" data-paper-data="{&quot;origPos&quot;:null,&quot;origRot&quot;:0,&quot;index&quot;:null}" fill="#ff2e2e" stroke="#000000" stroke-width="2" stroke-linecap="butt"/><path d="M344.99983,306.95068l32.69274,-7.96992l-0.18615,8.77554l-31.89844,8.19086z" data-paper-data="{&quot;origPos&quot;:null,&quot;origRot&quot;:0,&quot;index&quot;:null}" fill="#ffffff" stroke="#000000" stroke-width="2" stroke-linecap="butt"/><path d="M372.92329,303.80226l-0.22584,-8.64299l15.95904,16.11832l1.44059,10.39579z" data-paper-data="{&quot;origPos&quot;:null,&quot;origRot&quot;:0}" fill="#ffffff" stroke="#000000" stroke-width="2" stroke-linecap="butt"/><path d="M362.70076,310.72526l-24.34827,-10.77082l7.67506,-1.93854l26.72162,8.60573z" data-paper-data="{&quot;origPos&quot;:null,&quot;origRot&quot;:0,&quot;index&quot;:null}" fill="#ff2e2e" stroke="#000000" stroke-width="2" stroke-linecap="butt"/><path d="M358.21724,310.76635l1.76851,-8.46314l11.82307,19.35734l-0.98955,10.44837z" data-paper-data="{&quot;origPos&quot;:null,&quot;origRot&quot;:0}" fill="#ffffff" stroke="#000000" stroke-width="2" stroke-linecap="butt"/><path d="M409.76297,326.26551l26.23732,-6.13427l-5.02027,6.24341l-26.83565,9.32997z" data-paper-data="{&quot;origPos&quot;:null,&quot;origRot&quot;:0,&quot;index&quot;:null}" fill="#ff2e2e" stroke="#000000" stroke-width="2" stroke-linecap="butt"/><path d="M375.86562,306.08836l23.8664,20.88411l-7.29547,5.0683l-25.19922,-19.61862z" data-paper-data="{&quot;origPos&quot;:null,&quot;origRot&quot;:0,&quot;index&quot;:null}" fill="#ffffff" stroke="#000000" stroke-width="2" stroke-linecap="butt"/><path d="M363.46706,306.83377l25.90455,-7.41484l-4.70774,6.48231l-26.3453,10.63606z" data-paper-data="{&quot;origPos&quot;:null,&quot;origRot&quot;:0,&quot;index&quot;:null}" fill="#ff2e2e" stroke="#000000" stroke-width="2" stroke-linecap="butt"/><path d="M350.01912,310.61696l30.89397,7.16328l-4.04376,7.90947l-31.47263,-5.41889z" data-paper-data="{&quot;origPos&quot;:null,&quot;origRot&quot;:0,&quot;index&quot;:null}" fill="#ffffff" stroke="#000000" stroke-width="2" stroke-linecap="butt"/><path d="M389.30228,314.02343l1.81426,-8.5599l11.90947,19.62454l-1.03166,10.5713z" data-paper-data="{&quot;origPos&quot;:null,&quot;origRot&quot;:0}" fill="#ffffff" stroke="#000000" stroke-width="2" stroke-linecap="butt"/><path d="M406.88706,301.20593l27.31583,15.35585l-6.02726,6.38098l-28.34812,-13.86172z" data-paper-data="{&quot;origPos&quot;:null,&quot;origRot&quot;:0,&quot;index&quot;:null}" fill="#ffffff" stroke="#000000" stroke-width="2" stroke-linecap="butt"/><path d="M409.76131,330.78565l-4.48956,-26.24295l5.85928,5.32293l7.60593,27.0232z" data-paper-data="{&quot;origPos&quot;:null,&quot;origRot&quot;:0,&quot;index&quot;:null}" fill="#ff2e2e" stroke="#000000" stroke-width="2" stroke-linecap="butt"/><path d="M380.83425,314.9422l33.59278,1.96487l-2.7507,8.33536l-32.89814,-1.52077z" data-paper-data="{&quot;origPos&quot;:null,&quot;origRot&quot;:0,&quot;index&quot;:null}" fill="#ffffff" stroke="#000000" stroke-width="2" stroke-linecap="butt"/><path d="M409.79045,311.90189l4.88413,-7.13424l3.47914,22.41399l-4.92764,9.26638z" data-paper-data="{&quot;origPos&quot;:null,&quot;origRot&quot;:0}" fill="#ffffff" stroke="#000000" stroke-width="2" stroke-linecap="butt"/><path d="M395.01742,303.8834l25.59629,-7.32659l-4.65172,6.40515l-26.03178,10.50949z" data-paper-data="{&quot;origPos&quot;:null,&quot;origRot&quot;:0,&quot;index&quot;:null}" fill="#ff2e2e" stroke="#000000" stroke-width="2" stroke-linecap="butt"/><path d="M403.14997,308.67944l-1.53715,-8.5082l18.22392,13.5048l3.00425,10.05595z" data-paper-data="{&quot;origPos&quot;:null,&quot;origRot&quot;:0}" fill="#ffffff" stroke="#000000" stroke-width="2" stroke-linecap="butt"/><path d="M248.45452,220.90909l16.98397,-29.0496l6.18183,6.23134l-16.27318,28.63188z" data-paper-data="{&quot;origPos&quot;:null,&quot;origRot&quot;:0,&quot;index&quot;:null}" fill="#ffffff" stroke="#000000" stroke-width="2" stroke-linecap="butt"/><path d="M244.4625,219.05129l-3.33845,-26.41408l5.62106,5.57389l6.41773,27.32976z" data-paper-data="{&quot;origPos&quot;:null,&quot;origRot&quot;:0,&quot;index&quot;:null}" fill="#ff2e2e" stroke="#000000" stroke-width="2" stroke-linecap="butt"/><path d="M226.66579,218.9022l16.235,-26.80263l6.18183,6.23134l-14.77519,27.88289z" data-paper-data="{&quot;origPos&quot;:null,&quot;origRot&quot;:0,&quot;index&quot;:null}" fill="#ffffff" stroke="#000000" stroke-width="2" stroke-linecap="butt"/><path d="M224.43023,218.55129l-3.33845,-26.41408l5.62107,5.57389l6.41773,27.32976z" data-paper-data="{&quot;origPos&quot;:null,&quot;origRot&quot;:0,&quot;index&quot;:null}" fill="#ff2e2e" stroke="#000000" stroke-width="2" stroke-linecap="butt"/><path d="M204.45452,220.40909l16.98397,-29.0496l6.18183,6.23134l-16.27318,28.63188z" data-paper-data="{&quot;origPos&quot;:null,&quot;origRot&quot;:0,&quot;index&quot;:null}" fill="#ffffff" stroke="#000000" stroke-width="2" stroke-linecap="butt"/><path d="M200.4625,218.55129l-3.33845,-26.41408l5.62106,5.57389l6.41773,27.32976z" data-paper-data="{&quot;origPos&quot;:null,&quot;origRot&quot;:0,&quot;index&quot;:null}" fill="#ff2e2e" stroke="#000000" stroke-width="2" stroke-linecap="butt"/><path d="M223.09219,197.63953l-6.37276,-5.84297l22.68069,-0.27797l8.47737,6.18723z" data-paper-data="{&quot;origPos&quot;:null,&quot;origRot&quot;:0}" fill="#ffffff" stroke="#000000" stroke-width="2" stroke-linecap="butt"/><path d="M203.24392,197.26503l-6.37276,-5.84296l22.68069,-0.27797l8.47737,6.18722z" data-paper-data="{&quot;origPos&quot;:null,&quot;origRot&quot;:0}" fill="#ffffff" stroke="#000000" stroke-width="2" stroke-linecap="butt"/><path d="M245.59219,198.13953l-6.37276,-5.84297l22.68069,-0.27797l8.47737,6.18723z" data-paper-data="{&quot;origPos&quot;:null,&quot;origRot&quot;:0}" fill="#ffffff" stroke="#000000" stroke-width="2" stroke-linecap="butt"/><path d="M438.18508,307.34339l26.77381,20.38377l-6.93547,5.37994l-26.44543,-19.62753z" data-paper-data="{&quot;origPos&quot;:null,&quot;origRot&quot;:0,&quot;index&quot;:null}" fill="#ffffff" stroke="#000000" stroke-width="2" stroke-linecap="butt"/><path d="M429.10189,309.36917l15.4752,21.66488l-7.59309,-2.23819l-18.62016,-21.00935z" data-paper-data="{&quot;origPos&quot;:null,&quot;origRot&quot;:0,&quot;index&quot;:null}" fill="#ff2e2e" stroke="#000000" stroke-width="2" stroke-linecap="butt"/><path d="M424.52049,309.32843l23.9606,20.1952l-7.11465,5.14067l-25.25417,-18.92058z" data-paper-data="{&quot;origPos&quot;:null,&quot;origRot&quot;:0,&quot;index&quot;:null}" fill="#ffffff" stroke="#000000" stroke-width="2" stroke-linecap="butt"/><path d="M418.0454,318.95308l14.37108,-22.41252l0.74081,7.88134l-12.5948,25.08932z" data-paper-data="{&quot;origPos&quot;:null,&quot;origRot&quot;:0,&quot;index&quot;:null}" fill="#ff2e2e" stroke="#000000" stroke-width="2" stroke-linecap="butt"/><path d="M408.24267,304.15669l33.59278,1.96487l-2.7507,8.33536l-32.89814,-1.52077z" data-paper-data="{&quot;origPos&quot;:null,&quot;origRot&quot;:0,&quot;index&quot;:null}" fill="#ffffff" stroke="#000000" stroke-width="2" stroke-linecap="butt"/><path d="M417.17737,272.41872l25.72118,-6.87528l-4.76365,6.32236l-26.21259,10.05003z" data-paper-data="{&quot;origPos&quot;:null,&quot;origRot&quot;:0,&quot;index&quot;:null}" fill="#ff2e2e" stroke="#000000" stroke-width="2" stroke-linecap="butt"/><path d="M434.27951,304.64221l2.31799,-8.32941l10.53236,20.08881l-1.67047,10.36133z" data-paper-data="{&quot;origPos&quot;:null,&quot;origRot&quot;:0}" fill="#ffffff" stroke="#000000" stroke-width="2" stroke-linecap="butt"/><path d="M422.98702,302.39176l-1.04808,-8.58218l17.4218,14.52488l2.42427,10.21129z" data-paper-data="{&quot;origPos&quot;:null,&quot;origRot&quot;:0}" fill="#ffffff" stroke="#000000" stroke-width="2" stroke-linecap="butt"/><path d="M431.88311,322.64817l0.9668,-8.59171l13.58684,18.16285l-0.00503,10.49514z" data-paper-data="{&quot;origPos&quot;:null,&quot;origRot&quot;:0}" fill="#ffffff" stroke="#000000" stroke-width="2" stroke-linecap="butt"/><path d="M308.78082,231.04166l13.33342,-19.89692l0.52293,7.10215l-11.78449,22.3368z" data-paper-data="{&quot;origPos&quot;:null,&quot;origRot&quot;:0,&quot;index&quot;:null}" fill="#ff2e2e" stroke="#000000" stroke-width="2" stroke-linecap="butt"/><path d="M290.83315,226.43722l25.8709,-15.71904l2.22508,7.57633l-25.12969,15.69266z" data-paper-data="{&quot;origPos&quot;:null,&quot;origRot&quot;:0,&quot;index&quot;:null}" fill="#ffffff" stroke="#000000" stroke-width="2" stroke-linecap="butt"/><path d="M326.03476,276.88093l22.17819,-9.04406l-3.53664,6.18114l-22.25782,11.93299z" data-paper-data="{&quot;origPos&quot;:null,&quot;origRot&quot;:0,&quot;index&quot;:null}" fill="#ff2e2e" stroke="#000000" stroke-width="2" stroke-linecap="butt"/><path d="M308.18997,289.39556l18.56725,-23.90919l4.77985,6.28529l-17.88413,23.62031z" data-paper-data="{&quot;origPos&quot;:null,&quot;origRot&quot;:0,&quot;index&quot;:null}" fill="#ffffff" stroke="#000000" stroke-width="2" stroke-linecap="butt"/><path d="M239.92482,191.32144l-3.00329,-23.76231l5.05676,5.01432l5.77344,24.58606z" data-paper-data="{&quot;origPos&quot;:null,&quot;origRot&quot;:0,&quot;index&quot;:null}" fill="#ff2e2e" stroke="#000000" stroke-width="2" stroke-linecap="butt"/><path d="M221.95452,192.99273l15.27891,-26.13325l5.56122,5.60576l-14.63948,25.75746z" data-paper-data="{&quot;origPos&quot;:null,&quot;origRot&quot;:0,&quot;index&quot;:null}" fill="#ffffff" stroke="#000000" stroke-width="2" stroke-linecap="butt"/><path d="M262.42482,191.32144l-3.00329,-23.76231l5.05676,5.01432l5.77344,24.58606z" data-paper-data="{&quot;origPos&quot;:null,&quot;origRot&quot;:0,&quot;index&quot;:null}" fill="#ff2e2e" stroke="#000000" stroke-width="2" stroke-linecap="butt"/><path d="M244.45452,192.99273l15.27891,-26.13325l5.56122,5.60576l-14.63947,25.75746z" data-paper-data="{&quot;origPos&quot;:null,&quot;origRot&quot;:0,&quot;index&quot;:null}" fill="#ffffff" stroke="#000000" stroke-width="2" stroke-linecap="butt"/><path d="M214.92482,190.82144l-3.0033,-23.76231l5.05676,5.01432l5.77344,24.58606z" data-paper-data="{&quot;origPos&quot;:null,&quot;origRot&quot;:0,&quot;index&quot;:null}" fill="#ff2e2e" stroke="#000000" stroke-width="2" stroke-linecap="butt"/><path d="M196.95452,192.49273l15.27891,-26.13325l5.56122,5.60576l-14.63948,25.75746z" data-paper-data="{&quot;origPos&quot;:null,&quot;origRot&quot;:0,&quot;index&quot;:null}" fill="#ffffff" stroke="#000000" stroke-width="2" stroke-linecap="butt"/><path d="M447.09006,315.88857l19.81704,-13.45185l-2.17617,6.78075l-19.2951,16.29435z" data-paper-data="{&quot;origPos&quot;:null,&quot;origRot&quot;:0,&quot;index&quot;:null}" fill="#ff2e2e" stroke="#000000" stroke-width="2" stroke-linecap="butt"/><path d="M436.6586,306.21123l28.64271,-9.7973l0.54638,7.87739l-27.91313,9.9307z" data-paper-data="{&quot;origPos&quot;:null,&quot;origRot&quot;:0,&quot;index&quot;:null}" fill="#ffffff" stroke="#000000" stroke-width="2" stroke-linecap="butt"/><path d="M462.57225,330.50211l-22.18157,-9.03576l6.84981,-1.94792l24.25795,7.02556z" data-paper-data="{&quot;origPos&quot;:null,&quot;origRot&quot;:0,&quot;index&quot;:null}" fill="#ff2e2e" stroke="#000000" stroke-width="2" stroke-linecap="butt"/><path d="M453.0665,302.05768l26.49052,14.65073l-5.47141,5.69344l-26.09957,-14.02046z" data-paper-data="{&quot;origPos&quot;:null,&quot;origRot&quot;:0,&quot;index&quot;:null}" fill="#ffffff" stroke="#000000" stroke-width="2" stroke-linecap="butt"/><path d="M436.09232,296.21517l23.73731,-3.1948l-4.97338,5.09703l-24.5387,5.97149z" data-paper-data="{&quot;origPos&quot;:null,&quot;origRot&quot;:0,&quot;index&quot;:null}" fill="#ff2e2e" stroke="#000000" stroke-width="2" stroke-linecap="butt"/><path d="M417.3659,283.07177l30.10495,-3.17549l-1.22087,7.80136l-29.42336,3.46795z" data-paper-data="{&quot;origPos&quot;:null,&quot;origRot&quot;:0,&quot;index&quot;:null}" fill="#ffffff" stroke="#000000" stroke-width="2" stroke-linecap="butt"/></g></g></svg>