<svg version="1.1" xmlns="http://www.w3.org/2000/svg" xmlns:xlink="http://www.w3.org/1999/xlink" width="128.50279" height="337.99659" viewBox="0,0,128.50279,337.99659"><defs><radialGradient cx="228.18938" cy="146.16452" r="97.28323" gradientUnits="userSpaceOnUse" id="color-1"><stop offset="0" stop-color="#00ffff"/><stop offset="1" stop-color="#003fff"/></radialGradient><linearGradient x1="237.34936" y1="190.14593" x2="259.91239" y2="188.94281" gradientUnits="userSpaceOnUse" id="color-2"><stop offset="0" stop-color="#3b3b3b"/><stop offset="1" stop-color="#000000"/></linearGradient><linearGradient x1="191.87694" y1="190.47053" x2="240.25672" y2="196.34209" gradientUnits="userSpaceOnUse" id="color-3"><stop offset="0" stop-color="#000000"/><stop offset="1" stop-color="#3b3b3b"/></linearGradient><radialGradient cx="210.58744" cy="67.44449" r="51.99462" gradientUnits="userSpaceOnUse" id="color-4"><stop offset="0" stop-color="#b6b6b6"/><stop offset="1" stop-color="#666666"/></radialGradient><radialGradient cx="218.99139" cy="75.68794" r="15.71829" gradientUnits="userSpaceOnUse" id="color-5"><stop offset="0" stop-color="#ff0000"/><stop offset="1" stop-color="#ff0000" stop-opacity="0"/></radialGradient><radialGradient cx="219.72034" cy="77.57656" r="10.27134" gradientUnits="userSpaceOnUse" id="color-6"><stop offset="0" stop-color="#ff0000"/><stop offset="1" stop-color="#d20000"/></radialGradient><linearGradient x1="178.14792" y1="2.40694" x2="297.77249" y2="6.56464" gradientUnits="userSpaceOnUse" id="color-7"><stop offset="0" stop-color="#cc7700"/><stop offset="1" stop-color="#946f48"/></linearGradient></defs><g transform="translate(-175.96248,-1.28374)"><g data-paper-data="{&quot;isPaintingLayer&quot;:true}" fill-rule="nonzero" stroke-linejoin="miter" stroke-miterlimit="10" stroke-dasharray="" stroke-dashoffset="0" style="mix-blend-mode: normal"><path d="M253.49583,252.1683c0,0 12.01633,16.33213 19.70641,27.10625c6.50463,9.11326 8.27077,16.04239 13.66147,25.85576c0.00903,0.01644 -20.64116,-0.23499 -20.64116,-0.23499c0,0 -8.4037,-33.72999 -24.98379,-34.50375c-4.14908,-0.40375 -2.66758,11.16246 -0.97379,14.97151c3.42702,7.70677 9.21535,19.67344 9.21535,19.67344l-21.37171,0.32228c0,0 -4.60033,-11.19467 -9.25158,-18.35983c-4.62027,-7.11743 -10.75553,-31.48753 -10.75553,-31.48753z" data-paper-data="{&quot;origPos&quot;:null,&quot;index&quot;:null}" fill="#333333" stroke="#000000" stroke-width="2.5" stroke-linecap="butt"/><path d="M201.69552,117.84635l51.10673,-2.08259l6.75696,137.18708l-50.2779,2.03837z" data-paper-data="{&quot;origPos&quot;:null,&quot;index&quot;:null,&quot;origRot&quot;:0}" id="ID0.9171315478160977" fill="url(#color-1)" stroke="#000000" stroke-width="2.54325" stroke-linecap="butt"/><g data-paper-data="{&quot;origPos&quot;:null,&quot;index&quot;:null,&quot;origRot&quot;:0}" stroke="#000000" stroke-width="0" stroke-linecap="butt"><path d="M231.7559,192.00271l-4.54193,0.316l5.48431,-20.91642l-5.06556,0.81009l4.12435,-17.26044l16.20716,-1.3806l-5.03002,13.17772l3.47048,-0.37672l-5.58928,19.99442l3.05191,0.11505l-17.44954,31.7531z" data-paper-data="{&quot;index&quot;:null,&quot;origPos&quot;:null}" fill="#ffde00"/><path d="M230.21923,188.98639l-4.54193,0.316l5.48433,-20.91642l-5.06556,0.81009l4.12436,-17.26044l16.20716,-1.3806l-5.03002,13.17772l3.47048,-0.37672l-5.58927,19.99442l3.05191,0.11505l-16.06386,31.93744z" data-paper-data="{&quot;index&quot;:null,&quot;origPos&quot;:null}" fill="#ff0000"/><path d="M227.46163,188.87526l-4.54195,0.316l5.48433,-20.91642l-5.06556,0.81009l4.12436,-17.26044l16.20716,-1.3806l-5.03002,13.17772l3.47048,-0.37673l-5.58927,19.99442l3.0519,0.11505l-13.40233,30.24637z" data-paper-data="{&quot;index&quot;:null,&quot;origPos&quot;:null}" fill="#000000"/></g><path d="M233.8804,125.08972c0,0 6.23455,-3.49121 10.21791,-5.8584c3.98925,-2.37069 10.31035,-4.4169 10.31035,-4.4169c0,0 1.7599,20.93272 1.90369,23.53653c1.64483,29.77701 7.5214,124.13177 7.5214,124.13177l-20.29341,2.06665z" data-paper-data="{&quot;origPos&quot;:null,&quot;index&quot;:null,&quot;origRot&quot;:0}" id="ID0.5423141438513994" fill="url(#color-2)" stroke="#000000" stroke-width="2.54325" stroke-linecap="round"/><path d="M231.81344,265.91226l-25.2107,-0.15473c0,0 -3.76361,-94.02123 -5.29582,-123.80424c-0.13398,-2.60437 -0.63925,-23.91568 -0.63925,-23.91568c0,0 6.89881,1.55342 11.36036,3.40978c3.78613,1.57532 14.04593,4.35793 14.04593,4.35793z" data-paper-data="{&quot;origPos&quot;:null,&quot;index&quot;:null,&quot;origRot&quot;:0}" id="ID0.5423141438513994" fill="url(#color-3)" stroke="#000000" stroke-width="2.54325" stroke-linecap="round"/><path d="M251.63538,338.65325v-10.81353h43.16551v10.81353z" data-paper-data="{&quot;origPos&quot;:null}" fill="#ffffff" stroke="#000000" stroke-width="1" stroke-linecap="butt"/><path d="M244.98771,335.48749l-0.04432,-11.23762l7.17948,4.12973l-0.39886,10.14058z" data-paper-data="{&quot;origPos&quot;:null}" fill="#ffffff" stroke="#000000" stroke-width="1" stroke-linecap="butt"/><path d="M252.38878,327.80251l-6.60333,-3.7299l42.19052,0.41947l5.89425,3.21459z" data-paper-data="{&quot;origPos&quot;:null}" fill="#ffffff" stroke="#000000" stroke-width="1" stroke-linecap="butt"/><path d="M253.96206,336.34873v-6.55902h38.46782v6.55902z" data-paper-data="{&quot;origPos&quot;:null}" fill="#ff2e2e" stroke="#000000" stroke-width="0" stroke-linecap="butt"/><path d="M252.72116,326.37712l-0.88635,-0.79772l34.74513,0.17727l1.59544,0.62045z" data-paper-data="{&quot;origPos&quot;:null}" fill="#ff2e2e" stroke="#000000" stroke-width="0" stroke-linecap="butt"/><path d="M245.57151,330.78967l5.67266,2.4818" data-paper-data="{&quot;origPos&quot;:null}" fill="none" stroke="#000000" stroke-width="0.5" stroke-linecap="round"/><path d="M233.30392,21.90614c14.08085,0.487 26.64378,6.56142 35.56563,15.98177c8.92187,9.42149 9.16793,23.6267 7.4601,39.52597c-1.17669,10.95464 -4.44011,21.78486 -13.54639,30.15265c-9.5575,8.78122 -23.78678,15.16422 -32.99084,14.88769c-9.20387,-0.27648 -23.03969,-5.15971 -31.96158,-14.58004c-8.92198,-9.42165 -14.3091,-19.70022 -13.82473,-33.56987c0.4844,-13.86975 3.14547,-30.12989 12.70317,-38.91225c9.55753,-8.78125 22.51389,-13.97301 36.5946,-13.48599z" data-paper-data="{&quot;origPos&quot;:null,&quot;origRot&quot;:0}" id="ID0.7719937418587506" fill="#ffd499" stroke="#806c4d" stroke-width="2.5" stroke-linecap="butt"/><path d="M236.36811,24.75097c5.28752,0.37629 3.01884,10.30806 3.1283,15.60756c0.24679,12.00304 3.17934,25.87447 -2.1032,37.04256c-4.50392,8.668 -14.04619,14.6729 -23.43586,17.13143c-10.16571,2.25705 -20.69677,2.60843 -24.66149,-3.03353c-6.52769,-16.89061 -1.50619,-40.87184 9.9074,-55.32796c9.98308,-11.78778 21.78858,-12.50754 37.16479,-11.42006z" data-paper-data="{&quot;origPos&quot;:null,&quot;origRot&quot;:0}" id="ID0.479907026514411" fill="url(#color-4)" stroke="#666666" stroke-width="2.5" stroke-linecap="round"/><path d="M255.8487,71.05534c-0.08395,4.87551 -0.84278,15.42287 -0.84278,15.42287" data-paper-data="{&quot;origPos&quot;:null,&quot;origRot&quot;:0}" id="ID0.21129454905167222" fill="none" stroke="#000000" stroke-width="2.5" stroke-linecap="round"/><path d="M225.91609,104.60835l14.25756,0.6154" data-paper-data="{&quot;origPos&quot;:null,&quot;index&quot;:null,&quot;origRot&quot;:0}" fill="none" stroke="#000000" stroke-width="2" stroke-linecap="round"/><path d="M203.28774,75.01009c0.37438,-8.67287 7.7086,-15.40018 16.38147,-15.02583c8.67289,0.37438 15.40018,7.7086 15.02583,16.38147c-0.37438,8.67287 -7.7086,15.40018 -16.38147,15.02583c-8.67289,-0.37438 -15.40018,-7.7086 -15.02583,-16.38147z" data-paper-data="{&quot;origPos&quot;:null,&quot;origRot&quot;:0}" fill="url(#color-5)" stroke="none" stroke-width="0" stroke-linecap="butt"/><path d="M208.56738,75.39377c0.24462,-5.66743 5.0373,-10.06348 10.70472,-9.81885c5.66743,0.24462 10.06348,5.0373 9.81885,10.70472c-0.24462,5.66743 -5.0373,10.06348 -10.70472,9.81885c-5.66743,-0.24462 -10.06348,-5.0373 -9.81885,-10.70472z" data-paper-data="{&quot;origPos&quot;:null,&quot;origRot&quot;:0}" fill="url(#color-6)" stroke="#666666" stroke-width="2" stroke-linecap="butt"/><path d="M188.07767,93.02724c0,0 4.20724,-21.10004 8.70285,-34.79316c2.97293,-9.05529 10.41649,-23.08227 10.41649,-23.08227l30.80363,8.01817l0.27069,4.52704c0,0 -8.56733,-1.22244 -13.29062,-1.91248c-4.36476,-0.63766 -8.64538,-3.77494 -12.44336,-1.53143c-6.95492,4.10834 -7.27343,12.30234 -9.84702,19.95906c-3.47715,10.34485 -6.45266,29.72889 -6.45266,29.72889z" data-paper-data="{&quot;origRot&quot;:0,&quot;origPos&quot;:null}" fill="#7a7a7a" stroke="none" stroke-width="0" stroke-linecap="butt"/><path d="M241.04953,47.80569l-0.06085,-4.36424l31.27824,1.4802c0,0 -6.59905,2.79534 -13.21081,2.91906c-6.66108,0.1246 -17.75712,-0.01878 -17.75712,-0.01878z" data-paper-data="{&quot;origPos&quot;:null,&quot;origRot&quot;:0}" fill="#b0936a" stroke="none" stroke-width="0" stroke-linecap="butt"/><path d="M190.61153,95.84342l5.10249,1.26507l-0.8499,5.65074z" data-paper-data="{&quot;origPos&quot;:null,&quot;origRot&quot;:0}" fill="#b0936a" stroke="none" stroke-width="0" stroke-linecap="butt"/><path d="M241.36923,4.60426c13.22278,0.67404 20.605,2.11661 33.78013,3.42521c7.62871,0.75772 22.67327,1.55893 22.67327,1.55893c0,0 -9.79938,4.95651 -11.60931,5.35412c-3.35695,0.73748 -9.36426,2.55357 -9.36426,2.55357c0,0 4.61771,1.39597 7.85634,2.79668c3.48184,1.5059 8.86819,3.00782 8.86819,3.00782c0,0 -5.57408,2.09083 -9.07192,2.82265c-4.36959,0.91421 -10.32157,3.24417 -10.32157,3.24417c0,0 6.66418,3.83502 11.78857,5.20276c5.1533,1.37544 11.8687,4.10032 11.8687,4.10032c0,0 -9.82998,4.8381 -16.09333,5.49802c-15.79847,1.66647 -31.7811,-1.66075 -47.65506,-2.1947c-9.67726,-0.32677 -23.61043,-7.62135 -28.85772,0.79141c-13.76841,20.76972 -15.4793,74.84639 -19.16204,72.90494c-3.68292,-1.9416 -12.04926,-59.14667 -6.51915,-88.08254c2.13887,-11.18255 12.76655,-17.25523 25.94362,-22.04646c13.17706,-4.79118 24.11006,-1.31126 35.87558,-0.93699z" data-paper-data="{&quot;origPos&quot;:null,&quot;origRot&quot;:0}" id="ID0.5302143599838018" fill="url(#color-7)" stroke="#a96300" stroke-width="3.5" stroke-linecap="round"/><path d="M249.24018,243.17215c-2.041,0.35257 -5.28146,0.03172 -5.28146,0.03172l-1.77567,-23.80417c0,0 1.44102,0.17061 2.34125,-0.09215c1.05681,-0.30843 2.67356,-1.37148 2.67356,-1.37148l7.04096,23.492c0,0 -3.02769,1.4036 -4.99862,1.74406z" data-paper-data="{&quot;origPos&quot;:null,&quot;index&quot;:null,&quot;origRot&quot;:0}" fill="#1f1f1f" stroke="#000000" stroke-width="0" stroke-linecap="butt"/><path d="M246.5935,218.88889c0,0 2.66701,6.32822 3.95925,10.27859c1.50889,4.61258 3.21831,11.66289 3.21831,11.66289" data-paper-data="{&quot;origPos&quot;:null,&quot;origRot&quot;:0,&quot;index&quot;:null}" fill="none" stroke="#000000" stroke-width="2.54325" stroke-linecap="round"/><path d="M218.85169,243.79544l4.21585,-24.15939c0,0 1.73101,0.86455 2.81688,1.04598c0.925,0.15453 2.33577,-0.18512 2.33577,-0.18512l1.04945,23.84721c0,0 -3.17984,0.70148 -5.24821,0.59254c-1.99737,-0.1052 -5.16968,-1.14121 -5.16968,-1.14121z" data-paper-data="{&quot;origPos&quot;:null,&quot;origRot&quot;:0}" fill="#1f1f1f" stroke="#000000" stroke-width="0" stroke-linecap="butt"/><path d="M218.32057,242.90991c0,0 1.21422,-7.44884 2.1675,-12.20738c0.81642,-4.07539 2.36718,-10.42848 2.36718,-10.42848" data-paper-data="{&quot;origPos&quot;:null,&quot;origRot&quot;:0}" fill="none" stroke="#000000" stroke-width="2.54325" stroke-linecap="round"/><path d="M208.32714,257.5201l-8.43496,-19.10295l13.42103,-6.11795l12.15559,16.05861c0,0 -2.43781,6.80496 -5.87976,8.53447c-5.32259,2.6745 -11.2619,0.62781 -11.2619,0.62781z" data-paper-data="{&quot;origRot&quot;:0,&quot;origPos&quot;:null,&quot;index&quot;:null}" fill="#ffd499" stroke="#806c4d" stroke-width="2" stroke-linecap="butt"/><path d="M203.56975,142.37547c0,0 -8.21424,14.60643 -4.26096,45.06099c3.9533,30.45457 24.24326,53.58517 24.24326,53.58517c0,0 -6.32822,4.69979 -9.3585,5.69373c-3.03027,0.99394 -11.31496,1.96023 -11.31496,1.96023c0,0 -13.1543,-24.44322 -21.06041,-55.64943c-2.40524,-25.48968 2.76298,-66.12963 8.16414,-73.82546c1.8004,-2.56529 9.44813,-1.95868 9.44813,-1.95868z" data-paper-data="{&quot;origPos&quot;:null,&quot;index&quot;:null,&quot;origRot&quot;:0}" id="ID0.5423141438513994" fill="#000000" stroke="#000000" stroke-width="2.54325" stroke-linecap="round"/><path d="M259.78778,246.42738l7.22226,-14.72597l13.78531,7.6877l-6.23911,14.70091c0,0 -4.89467,1.95094 -9.89259,-0.70901c-4.46841,-2.37812 -4.87586,-6.95364 -4.87586,-6.95364z" data-paper-data="{&quot;origRot&quot;:0,&quot;origPos&quot;:null,&quot;index&quot;:null}" fill="#ffd499" stroke="#806c4d" stroke-width="2" stroke-linecap="butt"/><path d="M254.69092,118.22752c0,0 7.19857,-2.6526 9.62572,-0.66996c7.28146,5.94798 17.21447,42.18951 21.7936,67.3796c6.72156,31.04761 -7.25739,61.73243 -7.25739,61.73243c0,0 -5.58785,-2.58344 -9.15695,-4.66361c-3.00867,-1.75355 -7.69777,-5.1598 -7.69777,-5.1598c0,0 12.53321,-21.27467 8.10145,-51.66329c-4.43181,-30.38863 -12.59526,-41.63914 -12.59526,-41.63914z" data-paper-data="{&quot;origPos&quot;:null,&quot;index&quot;:null,&quot;origRot&quot;:0}" id="ID0.5423141438513994" fill="#000000" stroke="#000000" stroke-width="2.54325" stroke-linecap="round"/></g></g></svg>