<svg version="1.1" xmlns="http://www.w3.org/2000/svg" xmlns:xlink="http://www.w3.org/1999/xlink" width="19.73622" height="14.46965"><g transform="translate(-230.63749,-172.83573)"><g data-paper-data="{&quot;isPaintingLayer&quot;:true}" fill="none" fill-rule="nonzero" stroke="none" stroke-width="none" stroke-linecap="butt" stroke-linejoin="miter" stroke-miterlimit="10" stroke-dasharray="" stroke-dashoffset="0" font-family="none" font-weight="none" font-size="none" text-anchor="none" style="mix-blend-mode: normal"><path d="M249.24871,180.07055c0,3.79787 -4.59578,6.23483 -9.00921,6.23483c-4.41342,0 -8.60201,-2.52864 -8.60201,-6.32651c0,-3.79787 4.18858,-6.14314 8.60201,-6.14314c4.41342,0 9.00921,2.43696 9.00921,6.23483z" data-paper-data="{&quot;origPos&quot;:null}" fill="#000000" stroke="#000000" stroke-width="2"/><path d="M240.68223,180.40066c-1.0426,2.06435 -1.01212,4.48439 -1.93645,4.01755c-0.92433,-0.46684 -2.20346,-3.51877 -1.16086,-5.58311c1.0426,-2.06435 4.01212,-2.35939 4.93645,-1.89255c0.92433,0.46684 -0.79654,1.39377 -1.83914,3.45811z" data-paper-data="{&quot;origRot&quot;:0,&quot;origPos&quot;:null}" fill="#ff7171" stroke="none" stroke-width="0"/><path d="M232.0125,177.55538l3.75,-4l9,0.14815l3.625,3.85185z" data-paper-data="{&quot;origPos&quot;:null}" fill="#ffffff" stroke="none" stroke-width="0"/><path d="M235.6375,186.30538l-2.625,-3.875l15.75,0.48438l-3.875,3.39063z" data-paper-data="{&quot;origPos&quot;:null}" fill="#ffffff" stroke="none" stroke-width="0"/><path d="M249.37371,180.07055c0,3.79787 -4.59578,6.23483 -9.00921,6.23483c-4.41342,0 -8.60201,-2.52864 -8.60201,-6.32651c0,-3.79787 4.18858,-6.14314 8.60201,-6.14314c4.41342,0 9.00921,2.43696 9.00921,6.23483z" data-paper-data="{&quot;origPos&quot;:null}" fill="none" stroke="#000000" stroke-width="2"/></g></g></svg>