<svg version="1.1" xmlns="http://www.w3.org/2000/svg" xmlns:xlink="http://www.w3.org/1999/xlink" width="19.39067" height="10.05779" viewBox="0,0,19.39067,10.05779"><g transform="translate(-229.87761,-172.74707)"><g data-paper-data="{&quot;isPaintingLayer&quot;:true}" fill="none" fill-rule="nonzero" stroke="none" stroke-width="none" stroke-linecap="butt" stroke-linejoin="miter" stroke-miterlimit="10" stroke-dasharray="" stroke-dashoffset="0" font-family="none" font-weight="none" font-size="none" text-anchor="none" style="mix-blend-mode: normal"><path d="M247.3875,179.36169c0,0.58779 -0.21244,1.67791 -0.70466,2.08526c-1.47667,1.22203 -3.96728,0.71269 -6.73284,0.71269c-3.33265,0 -6.59325,0.63962 -7.46388,-0.56456c-0.29021,-0.40139 -0.07411,-1.37801 -0.22362,-2.341c-0.14951,-0.96299 -0.18467,-3.50909 -0.18467,-3.50909c0,0 1.97764,0.3025 3.26141,0.6343c1.74599,0.45126 2.78779,0.39968 4.61076,0.39968c0,0 5.11202,-0.65815 6.68565,0.50432c0.52454,0.38749 0.75185,0.2954 0.75185,2.0784z" data-paper-data="{&quot;origPos&quot;:null}" fill="#000000" stroke-width="0"/><path d="M233.5125,181.72918l0.5,-4.95021l11.375,0.32284v4.62737z" data-paper-data="{&quot;origPos&quot;:null}" fill="#ffffff" stroke-width="0"/><path d="M248.34872,177.48115l-0.33792,0.0068c-0.58685,0.0842 -1.21529,-0.2886 -1.76113,-0.13196c-2.83494,0.76524 -5.87242,0.14075 -8.73717,0.14075c-3.7199,0 -5.48422,-1.12929 -7.49904,-3.73115c0,0 -0.41603,-0.53724 0.20801,-0.8954c0.62404,-0.35816 1.04006,0.17908 1.04006,0.17908c1.76872,2.28405 2.99653,3.1561 6.25096,3.1561c2.57904,0 5.74784,1.0503 8.26283,0.24836c0.63573,-0.18244 1.3262,-0.14449 1.98887,-0.23958l0.91208,0.0068c0,0 0.7319,0.141 0.56812,0.7711c-0.16378,0.6301 -0.89568,0.4891 -0.89568,0.4891z" data-paper-data="{&quot;index&quot;:null,&quot;origPos&quot;:null}" fill="#000000" stroke-width="0.5"/><path d="M248.26215,181.70948c0.02289,0.64538 -0.72676,0.66509 -0.72676,0.66509l-0.14789,0.0003c-2.52891,0 -5.03406,0.10761 -7.5625,0.10761c-2.6703,0 -5.91135,-0.4389 -8.45033,0.28971c0,0 -0.71151,0.20418 -0.94868,-0.40836c-0.23717,-0.61255 0.47434,-0.81673 0.47434,-0.81673c2.71542,-0.77924 6.07494,-0.35597 8.92467,-0.35597c2.5282,0 5.03354,-0.10761 7.5625,-0.10761l0.10211,0.0003c0,0 0.74965,-0.01971 0.77254,0.62567z" data-paper-data="{&quot;origPos&quot;:null}" fill="#000000" stroke-width="0.5"/></g></g></svg>