<svg version="1.1" xmlns="http://www.w3.org/2000/svg" xmlns:xlink="http://www.w3.org/1999/xlink" width="92.66663" height="87.66669"><defs><linearGradient x1="240.00005" y1="202.16669" x2="240.00005" y2="223.83334" gradientUnits="userSpaceOnUse" id="color-1"><stop offset="0" stop-color="#f2cf5b"/><stop offset="1" stop-color="#f2cf5b" stop-opacity="0"/></linearGradient><linearGradient x1="240.00006" y1="136.16669" x2="240.00006" y2="157.83334" gradientUnits="userSpaceOnUse" id="color-2"><stop offset="0" stop-color="#f2cf5b" stop-opacity="0"/><stop offset="1" stop-color="#f2cf5b"/></linearGradient><linearGradient x1="193.16674" y1="180.00003" x2="216.8334" y2="180.00003" gradientUnits="userSpaceOnUse" id="color-3"><stop offset="0" stop-color="#f2cf5b" stop-opacity="0"/><stop offset="1" stop-color="#f2cf5b"/></linearGradient><linearGradient x1="262.1667" y1="180.00004" x2="285.8334" y2="180.00004" gradientUnits="userSpaceOnUse" id="color-4"><stop offset="0" stop-color="#f2cf5b"/><stop offset="1" stop-color="#f2cf5b" stop-opacity="0"/></linearGradient></defs><g transform="translate(-193.16673,-136.16667)"><g data-paper-data="{&quot;isPaintingLayer&quot;:true}" fill="none" fill-rule="nonzero" stroke="none" stroke-width="none" stroke-linecap="butt" stroke-linejoin="miter" stroke-miterlimit="10" stroke-dasharray="" stroke-dashoffset="0" font-family="none" font-weight="none" font-size="none" text-anchor="none" style="mix-blend-mode: normal"><path d="M206.16672,223.19296c0,-0.74976 0,-12.36495 0,-20.27914c0,-0.29158 1.82921,-0.74713 3,-0.74713c23.93612,0 57.76404,0 61.66666,0c1.30088,0 3,0.26031 3,0.85386c0,0.49984 0,12.0031 0,19.95895c0,0.33323 -1.01623,0.85386 -1.66667,0.85386c-1.95132,0 -39.22643,0 -64.33333,0c-0.65043,0 -1.66666,-0.39047 -1.66666,-0.6404z" data-paper-data="{&quot;origPos&quot;:null}" fill="url(#color-1)" stroke="none" stroke-width="0"/><path d="M206.16673,157.19294c0,-0.74977 0,-12.36495 0,-20.27914c0,-0.29158 1.82921,-0.74713 3,-0.74713c23.93612,0 57.76404,0 61.66666,0c1.30088,0 3,0.26031 3,0.85386c0,0.49984 0,12.0031 0,19.95895c0,0.33323 -1.01623,0.85386 -1.66667,0.85386c-1.95132,0 -39.22643,0 -64.33333,0c-0.65043,0 -1.66666,-0.39047 -1.66666,-0.64039z" data-paper-data="{&quot;origPos&quot;:null}" fill="url(#color-2)" stroke="none" stroke-width="0"/><path d="M193.16674,211.83337c0,-2.34158 0,-38.61669 0,-63.33334c0,-0.91062 0.63977,-2.33333 1.04926,-2.33333c8.37174,0 20.20318,0 21.56814,0c0.45499,0 1.04926,0.81298 1.04926,2.66666c0,1.56105 0,37.4866 0,62.33334c0,1.0407 -0.35543,2.66666 -0.58292,2.66666c-0.68248,0 -13.71958,0 -22.50081,0c-0.22749,0 -0.58292,-1.21947 -0.58292,-2z" data-paper-data="{&quot;origPos&quot;:null}" fill="url(#color-3)" stroke="none" stroke-width="0"/><path d="M262.1667,211.83338c0,-2.34158 0,-38.61669 0,-63.33334c0,-0.91062 0.63977,-2.33333 1.04926,-2.33333c8.37174,0 20.20318,0 21.56814,0c0.45499,0 1.04926,0.81298 1.04926,2.66666c0,1.56105 0,37.4866 0,62.33334c0,1.0407 -0.35543,2.66666 -0.58292,2.66666c-0.68248,0 -13.71959,0 -22.50082,0c-0.22749,0 -0.58292,-1.21947 -0.58292,-2z" data-paper-data="{&quot;origPos&quot;:null}" fill="url(#color-4)" stroke="none" stroke-width="0"/><path d="M206.16673,211.83334c0,-2.34158 0,-38.61669 0,-63.33334c0,-0.91062 1.82921,-2.33333 3,-2.33333c23.93612,0 57.76404,0 61.66666,0c1.30088,0 3,0.81298 3,2.66666c0,1.56105 0,37.4866 0,62.33334c0,1.0407 -1.01623,2.66666 -1.66667,2.66666c-1.95132,0 -39.22643,0 -64.33333,0c-0.65043,0 -1.66666,-1.21947 -1.66666,-2z" data-paper-data="{&quot;origPos&quot;:null}" fill="#e2bc3e" stroke="none" stroke-width="0"/><text transform="translate(213.12008,187.25005) scale(0.5625,0.5625)" font-size="40" xml:space="preserve" data-paper-data="{&quot;origPos&quot;:null}" fill="#f9f8f4" fill-rule="nonzero" stroke="#f9f8f4" stroke-width="2" stroke-linecap="butt" stroke-linejoin="miter" stroke-miterlimit="10" stroke-dasharray="" stroke-dashoffset="0" font-family="Sans Serif" font-weight="normal" text-anchor="start" style="mix-blend-mode: normal"><tspan x="0" dy="0">1024</tspan></text></g></g></svg>