<svg version="1.1" xmlns="http://www.w3.org/2000/svg" xmlns:xlink="http://www.w3.org/1999/xlink" width="96.14447" height="93.75971"><defs><linearGradient x1="193.58063" y1="180.00003" x2="207.16674" y2="180.00003" gradientUnits="userSpaceOnUse" id="color-1"><stop offset="0" stop-color="#a36262" stop-opacity="0"/><stop offset="1" stop-color="#a36262"/></linearGradient><linearGradient x1="272.80565" y1="179.92504" x2="289.7251" y2="179.92504" gradientUnits="userSpaceOnUse" id="color-2"><stop offset="0" stop-color="#a36262"/><stop offset="1" stop-color="#a36262" stop-opacity="0"/></linearGradient><linearGradient x1="239.71805" y1="133.55472" x2="239.71805" y2="147.9811" gradientUnits="userSpaceOnUse" id="color-3"><stop offset="0" stop-color="#a36262" stop-opacity="0"/><stop offset="1" stop-color="#a36262"/></linearGradient><linearGradient x1="239.38472" y1="212.88804" x2="239.38472" y2="227.31443" gradientUnits="userSpaceOnUse" id="color-4"><stop offset="0" stop-color="#a36262"/><stop offset="1" stop-color="#a36262" stop-opacity="0"/></linearGradient></defs><g transform="translate(-193.58063,-133.55472)"><g data-paper-data="{&quot;isPaintingLayer&quot;:true}" fill="none" fill-rule="nonzero" stroke="none" stroke-width="none" stroke-linecap="butt" stroke-linejoin="miter" stroke-miterlimit="10" stroke-dasharray="" stroke-dashoffset="0" font-family="none" font-weight="none" font-size="none" text-anchor="none" style="mix-blend-mode: normal"><path d="M193.58063,211.83337c0,-2.34158 0,-38.61669 0,-63.33334c0,-0.91062 0.36727,-2.33333 0.60234,-2.33333c4.80589,0 11.59786,0 12.38143,0c0.26119,0 0.60234,0.81298 0.60234,2.66666c0,1.56105 0,37.4866 0,62.33334c0,1.0407 -0.20404,2.66666 -0.33463,2.66666c-0.39179,0 -7.87588,0 -12.91684,0c-0.13059,0 -0.33463,-1.21947 -0.33463,-2z" data-paper-data="{&quot;origPos&quot;:null}" fill="url(#color-1)" stroke="none" stroke-width="0"/><path d="M206.16667,211.83334c0,-2.34158 0,-38.61669 0,-63.33334c0,-0.91062 1.82921,-2.33333 3,-2.33333c23.93612,0 57.76404,0 61.66666,0c1.30088,0 3,0.81298 3,2.66666c0,1.56105 0,37.4866 0,62.33334c0,1.0407 -1.01623,2.66666 -1.66667,2.66666c-1.95132,0 -39.22643,0 -64.33333,0c-0.65043,0 -1.66666,-1.21947 -1.66666,-2z" data-paper-data="{&quot;origPos&quot;:null}" fill="#a66464" stroke="none" stroke-width="0"/><path d="M289.72507,211.75837c0,0.78053 -0.2541,2 -0.41673,2c-6.27775,0 -15.59806,0 -16.08596,0c-0.16263,0 -0.41673,-1.62596 -0.41673,-2.66666c0,-24.84674 0,-60.77229 0,-62.33334c0,-1.85368 0.42485,-2.66666 0.75013,-2.66666c0.97582,0 9.43418,0 15.41919,0c0.29275,0 0.75013,1.42271 0.75013,2.33333c0,24.71665 0,60.99176 0,63.33334z" data-paper-data="{&quot;origPos&quot;:null,&quot;index&quot;:null}" fill="url(#color-2)" stroke="none" stroke-width="0"/><path d="M205.88472,147.9811v-14.42638h67.66666v14.42638z" data-paper-data="{&quot;origPos&quot;:null}" fill="url(#color-3)" stroke="none" stroke-width="0"/><path d="M205.55139,227.31443v-14.42639h67.66666v14.42639z" data-paper-data="{&quot;origPos&quot;:null}" fill="url(#color-4)" stroke="none" stroke-width="0"/><path d="M236.16667,211.83334c0,-2.34158 0,-38.61669 0,-63.33334c0,-0.91062 1.01823,-2.33333 1.66995,-2.33333c13.32405,0 32.15436,0 34.32676,0c0.72414,0 1.66995,0.81298 1.66995,2.66666c0,1.56105 0,37.4866 0,62.33334c0,1.0407 -0.56568,2.66666 -0.92775,2.66666c-1.0862,0 -21.8354,0 -35.81116,0c-0.36206,0 -0.92775,-1.21947 -0.92775,-2z" data-paper-data="{&quot;origPos&quot;:null}" fill="#a66464" stroke="none" stroke-width="0"/><text transform="translate(208.62261,185.48556) scale(0.45713,0.45713)" font-size="40" xml:space="preserve" data-paper-data="{&quot;origPos&quot;:null}" fill="#f9f8f4" fill-rule="nonzero" stroke="#f9f8f4" stroke-width="2" stroke-linecap="butt" stroke-linejoin="miter" stroke-miterlimit="10" stroke-dasharray="" stroke-dashoffset="0" font-family="Sans Serif" font-weight="normal" text-anchor="start" style="mix-blend-mode: normal"><tspan x="0" dy="0">131072</tspan></text></g></g></svg>