<svg version="1.1" xmlns="http://www.w3.org/2000/svg" xmlns:xlink="http://www.w3.org/1999/xlink" width="23.7059" height="23.65679"><g transform="translate(-227.82356,-171.7648)"><g data-paper-data="{&quot;isPaintingLayer&quot;:true}" fill="none" fill-rule="nonzero" stroke="none" stroke-width="none" stroke-linecap="butt" stroke-linejoin="miter" stroke-miterlimit="10" stroke-dasharray="" stroke-dashoffset="0" font-family="none" font-weight="none" font-size="none" text-anchor="none" style="mix-blend-mode: normal"><path d="M227.8236,189.86983c0,-4.98158 0,-7.7831 0,-12.76468c0,-3.37401 1.96633,-5.34034 5.34032,-5.34034c4.98158,0 8.56463,0 13.54621,0c4.02202,0 4.81934,3.01794 4.81934,4.94959c0,5.33742 0,8.33904 0,13.67646c0,1.93163 -0.67341,4.94959 -4.94959,4.94959c-5.48992,0 -8.58035,0.18259 -14.06723,0c-3.91401,-0.13024 -4.68908,-3.33562 -4.68908,-5.47059z" data-paper-data="{&quot;origPos&quot;:null}" fill="#000000" stroke="none" stroke-width="0"/><path d="M246.1156,183.64564c0,3.43973 -2.75025,6.22817 -6.14286,6.22817c-3.39261,0 -6.14286,-2.78845 -6.14286,-6.22817c0,-3.43973 2.75025,-6.22817 6.14286,-6.22817c3.39261,0 6.14286,2.78845 6.14286,6.22817z" data-paper-data="{&quot;origPos&quot;:null}" fill="none" stroke="#d9d9d9" stroke-width="2.5"/><path d="M232.04054,189.06305c0,0 -0.09719,-2.40535 -0.1594,-3.9449c-0.11807,-2.92201 -0.30253,-7.48729 -0.30253,-7.48729l8.64496,3.54557z" data-paper-data="{&quot;origPos&quot;:null,&quot;index&quot;:null,&quot;origRot&quot;:0}" fill="#d9d9d9" stroke="none" stroke-width="0"/></g></g></svg>