<svg xmlns="http://www.w3.org/2000/svg" viewBox="0 0 209.765 34.9201" width="209.765" height="34.9201" xmlns:xlink="http://www.w3.org/1999/xlink" version="1.1"><g transform="translate(-233.19 -274.293)"><g font-family="none" font-size="none" font-weight="none" style="mix-blend-mode: normal" fill="none" fill-rule="nonzero" stroke="none" stroke-dasharray="" stroke-dashoffset="0" stroke-linecap="none" stroke-linejoin="miter" stroke-miterlimit="10" stroke-width="none" text-anchor="none" data-paper-data="{&quot;isPaintingLayer&quot;:true}"><path fill="#a03838" stroke="none" stroke-linecap="butt" stroke-width="0" d="" data-paper-data="{&quot;origPos&quot;:null}"/><path fill="#a03838" stroke="none" stroke-linecap="butt" stroke-width="0" d="" data-paper-data="{&quot;origPos&quot;:null}"/><path fill="#000303" stroke="none" stroke-linecap="butt" stroke-width="0.5" d=""/><path fill="#000303" stroke="#000303" stroke-linecap="round" stroke-width="5" d="M 320.335 306.713 h -13.2366 c 0 0 1.55721 -5.67273 2.55392 -9.30359 c 1.49712 -5.45377 3.83617 -13.9746 3.83617 -13.9746 Z" data-paper-data="{&quot;origPos&quot;:null}"/><path fill="#000303" stroke="#000303" stroke-linecap="round" stroke-width="5" d="M 337.589 306.713 h -13.2366 c 0 0 1.55722 -5.67273 2.55392 -9.30359 c 1.49712 -5.45377 3.83617 -13.9746 3.83617 -13.9746 Z" data-paper-data="{&quot;origPos&quot;:null}"/><path fill="#000303" stroke="#000303" stroke-linecap="round" stroke-width="5" d="M 354.093 306.713 h -13.2366 c 0 0 1.55722 -5.67273 2.55392 -9.30359 c 1.49712 -5.45377 3.83616 -13.9746 3.83616 -13.9746 Z" data-paper-data="{&quot;origPos&quot;:null}"/><path fill="#000303" stroke="#000303" stroke-linecap="round" stroke-width="5" d="M 371.347 306.713 h -13.2366 c 0 0 1.55721 -5.67273 2.55392 -9.30359 c 1.49712 -5.45377 3.83617 -13.9746 3.83617 -13.9746 Z" data-paper-data="{&quot;origPos&quot;:null}"/><path fill="#000303" stroke="#000303" stroke-linecap="round" stroke-width="5" d="M 388.601 306.713 h -13.2366 c 0 0 1.55721 -5.67273 2.55392 -9.30359 c 1.49712 -5.45377 3.83617 -13.9746 3.83617 -13.9746 Z" data-paper-data="{&quot;origPos&quot;:null}"/><path fill="#000303" stroke="#000303" stroke-linecap="round" stroke-width="5" d="M 405.855 306.713 h -13.2366 c 0 0 1.55721 -5.67273 2.55392 -9.30359 c 1.49712 -5.45377 3.83617 -13.9746 3.83617 -13.9746 Z" data-paper-data="{&quot;origPos&quot;:null}"/><path fill="#000303" stroke="#000303" stroke-linecap="round" stroke-width="5" d="M 422.359 306.713 h -13.2366 c 0 0 1.55722 -5.67273 2.55392 -9.30359 c 1.49712 -5.45377 3.83617 -13.9746 3.83617 -13.9746 Z" data-paper-data="{&quot;origPos&quot;:null}"/><path fill="#000303" stroke="#000303" stroke-linecap="round" stroke-width="5" d="M 439.614 306.713 h -13.2366 c 0 0 1.55722 -5.67273 2.55392 -9.30359 c 1.49712 -5.45377 3.83616 -13.9746 3.83616 -13.9746 Z" data-paper-data="{&quot;origPos&quot;:null}"/><path fill="#000303" stroke="#000303" stroke-linecap="round" stroke-width="5" d="M 302.706 306.713 h -13.2366 c 0 0 1.55721 -5.67273 2.55392 -9.30359 c 1.49712 -5.45377 3.83617 -13.9746 3.83617 -13.9746 Z" data-paper-data="{&quot;origPos&quot;:null}"/><path fill="#000303" stroke="#000303" stroke-linecap="round" stroke-width="5" d="M 267.335 306.713 h -13.2366 c 0 0 1.55721 -5.67273 2.55392 -9.30359 c 1.49712 -5.45377 3.83617 -13.9746 3.83617 -13.9746 Z" data-paper-data="{&quot;origPos&quot;:null}"/><path fill="#000303" stroke="#000303" stroke-linecap="round" stroke-width="5" d="M 284.589 306.713 h -13.2366 c 0 0 1.55722 -5.67273 2.55392 -9.30359 c 1.49712 -5.45377 3.83617 -13.9746 3.83617 -13.9746 Z" data-paper-data="{&quot;origPos&quot;:null}"/><path fill="#000303" stroke="#000303" stroke-linecap="round" stroke-width="5" d="M 249.706 306.713 h -13.2366 c 0 0 1.55721 -5.67273 2.55392 -9.30359 c 1.49712 -5.45377 3.83617 -13.9746 3.83617 -13.9746 Z" data-paper-data="{&quot;origPos&quot;:null}"/></g></g></svg>