<svg xmlns="http://www.w3.org/2000/svg" width="677" height="486.32" xmlns:xlink="http://www.w3.org/1999/xlink" version="1.1"><g transform="translate(25.5 69.16)"><g font-family="none" font-size="none" font-weight="none" style="mix-blend-mode: normal" fill="#6a6a6a" fill-rule="nonzero" stroke="#6a6a6a" stroke-dasharray="" stroke-dashoffset="0" stroke-linecap="butt" stroke-linejoin="miter" stroke-miterlimit="10" stroke-width="7" text-anchor="none" data-paper-data="{&quot;isPaintingLayer&quot;:true}"><path d="M 174 294 c 0 0 7 -23.0597 7 -49.34 c 0 -17.4291 17 -66.66 17 -66.66 h 50 v 112 Z" data-paper-data="{&quot;origPos&quot;:null}"/><path d="M 137 39.34 c 0 0 -17.3067 -9.17716 -21.5629 -15.3582 c -7.08058 -10.2827 -3.43712 -16.1571 -3.43712 -28.6418 c 0 -26.9281 25 -61 25 -61 h 442 v 105 c 0 0 -5.1181 -24.3238 -9.92063 -37.2301 c -1.60084 -4.3021 -1.5029 -4.38187 -2.96677 -8.73248 c -25.1275 -74.6788 -146.992 -25.8081 -232.252 -29.3387 c -19.8405 -0.82158 -0.00345 61.3012 -19.8609 61.3012 c 0 0 -7.58848 1.85176 -19.4688 2.70624 c 0 0 -29.552 9.46054 -49.7375 11.1512 c -37.0012 3.09903 -107.794 0.14258 -107.794 0.14258 Z" data-paper-data="{&quot;origPos&quot;:null}"/><path d="M -22 413.66 v -132 h 670 v 132 Z" data-paper-data="{&quot;origPos&quot;:null}"/></g></g></svg>