<svg version="1.1" xmlns="http://www.w3.org/2000/svg" xmlns:xlink="http://www.w3.org/1999/xlink" width="394.32243" height="269.74182" viewBox="0,0,394.32243,269.74182"><g transform="translate(15.85625,-37.41369)"><g data-paper-data="{&quot;isPaintingLayer&quot;:true}" fill="none" fill-rule="nonzero" stroke="none" stroke-width="none" stroke-linecap="none" stroke-linejoin="miter" stroke-miterlimit="10" stroke-dasharray="" stroke-dashoffset="0" font-family="none" font-weight="none" font-size="none" text-anchor="none" style="mix-blend-mode: normal"><path d="" data-paper-data="{&quot;origPos&quot;:null}" fill="#a03838" stroke="none" stroke-width="0" stroke-linecap="butt"/><path d="" data-paper-data="{&quot;origPos&quot;:null}" fill="#a03838" stroke="none" stroke-width="0" stroke-linecap="butt"/><path d="" fill="#000303" stroke="none" stroke-width="0.5" stroke-linecap="butt"/><path d="M375.125,304.6555h-13.2366c0,0 1.55722,-5.67273 2.55392,-9.30359c1.49712,-5.45377 3.83616,-13.9746 3.83616,-13.9746z" data-paper-data="{&quot;origPos&quot;:null}" fill="#000303" stroke="#000303" stroke-width="5" stroke-linecap="round"/><path d="M-11.74769,55.00269l11.8224,-5.95304c0,0 1.16042,5.76699 1.90314,9.45819c1.11561,5.54441 2.85863,14.20682 2.85863,14.20682z" data-paper-data="{&quot;origPos&quot;:null,&quot;origRot&quot;:0}" fill="#000303" stroke="#000303" stroke-width="5" stroke-linecap="round"/><path d="M3.99781,47.07421l11.8224,-5.95304c0,0 1.16042,5.76699 1.90314,9.45819c1.11561,5.54441 2.85863,14.20682 2.85863,14.20682z" data-paper-data="{&quot;origPos&quot;:null,&quot;origRot&quot;:0}" fill="#000303" stroke="#000303" stroke-width="5" stroke-linecap="round"/><path d="M200.07183,57.85593l10.54094,8.00601c0,0 -4.67117,3.57561 -7.66098,5.86418c-4.49088,3.43758 -11.5073,8.80838 -11.5073,8.80838z" data-paper-data="{&quot;origPos&quot;:null,&quot;origRot&quot;:0}" fill="#000303" stroke="#000303" stroke-width="5" stroke-linecap="round"/><path d="M214.11065,68.51863l10.54094,8.00601c0,0 -4.67117,3.57561 -7.66098,5.86418c-4.49088,3.43758 -11.5073,8.80838 -11.5073,8.80838z" data-paper-data="{&quot;origPos&quot;:null,&quot;origRot&quot;:0}" fill="#000303" stroke="#000303" stroke-width="5" stroke-linecap="round"/><path d="M355.79167,304.6555h-13.2366c0,0 1.55722,-5.67273 2.55392,-9.30359c1.49712,-5.45377 3.83616,-13.9746 3.83616,-13.9746z" data-paper-data="{&quot;origPos&quot;:null}" fill="#000303" stroke="#000303" stroke-width="5" stroke-linecap="round"/><path d="M336.79167,304.6555h-13.2366c0,0 1.55722,-5.67273 2.55392,-9.30359c1.49712,-5.45377 3.83616,-13.9746 3.83616,-13.9746z" data-paper-data="{&quot;origPos&quot;:null}" fill="#000303" stroke="#000303" stroke-width="5" stroke-linecap="round"/></g></g></svg>