<svg xmlns="http://www.w3.org/2000/svg" width="591" height="475" xmlns:xlink="http://www.w3.org/1999/xlink" version="1.1"><g transform="translate(0.5 2.5)"><g font-family="none" font-size="none" font-weight="none" style="mix-blend-mode: normal" fill="#6a6a6a" fill-rule="nonzero" stroke="#6a6a6a" stroke-dasharray="" stroke-dashoffset="0" stroke-linecap="butt" stroke-linejoin="miter" stroke-miterlimit="10" stroke-width="7" text-anchor="none" data-paper-data="{&quot;isPaintingLayer&quot;:true}"><path d="M 4 382.66 v -100 h 487 v 100 Z" data-paper-data="{&quot;origPos&quot;:null}"/><path d="M 203 469 v -180 h 53 v 180 Z" data-paper-data="{&quot;origPos&quot;:null}"/><path d="M 3 85 v -84 h 584 v 84 c 0 0 -80.2942 -12.4299 -140.004 -11.6213 c -39.3368 0.53272 -36.8629 8.11113 -65.8175 14.0389 c -1.67963 0.34387 -17.6028 1.63571 -19.2341 2.1633 c -4.89382 1.58276 -24.037 0.69049 -39.4965 1.88413 c -1.90957 0.14744 -11.984 -2.77578 -13.8952 -2.651 c -58.3154 3.80713 -102.114 -5.81401 -160.553 -5.81401 c -30.8308 0 -145 2 -145 2 Z" data-paper-data="{&quot;origPos&quot;:null}"/></g></g></svg>