<svg xmlns="http://www.w3.org/2000/svg" viewBox="0 0 526.296 445.263" width="526.296" height="445.263" xmlns:xlink="http://www.w3.org/1999/xlink" version="1.1"><g transform="translate(2.5 28.1029)"><g font-family="none" font-size="none" font-weight="none" style="mix-blend-mode: normal" fill="none" fill-rule="nonzero" stroke="none" stroke-dasharray="" stroke-dashoffset="0" stroke-linecap="none" stroke-linejoin="miter" stroke-miterlimit="10" stroke-width="none" text-anchor="none" data-paper-data="{&quot;isPaintingLayer&quot;:true}"><path fill="#6a6a6a" stroke="#6a6a6a" stroke-linecap="butt" stroke-width="7" d="M 1 381.66 v -100 h 487 v 100 Z" data-paper-data="{&quot;origPos&quot;:null}"/><path fill="none" stroke="#6a6a6a" stroke-linecap="round" stroke-width="25" d="M 480.145 78.5148 l -62.0583 10.9417 c 0 0 -56.3287 -9.38739 -77.6607 -33.9573 c -0.14228 -0.16387 -0.22229 -0.25603 -0.36457 -0.41991 c -0.42684 -0.49162 -53.1487 -61.2158 -53.1487 -61.2158" data-paper-data="{&quot;origPos&quot;:null,&quot;origRot&quot;:0}"/><path fill="none" stroke="#6a6a6a" stroke-linecap="butt" stroke-width="25" d="M 211 404.66 v -181 h 22 v 181 Z" data-paper-data="{&quot;origPos&quot;:null}"/><path fill="#6a6a6a" stroke="none" stroke-linecap="butt" stroke-width="0.5" d="M 381.5 -3.79052 c 1.25113 -0.81354 2.30087 -2.59069 3.52489 -3.51261 c 5.97923 -4.50351 12.4204 -7.25692 18.764 -10.8783 c 4.39977 -2.51169 8.78069 -5.84462 13.5823 -7.46533 c 2.98898 -1.00889 7.30951 -1.67581 10.6291 -1.6932 c 3.19339 -0.01673 32.7629 -2.35607 44.5118 1.24178 c 3.97066 1.21593 6.89958 3.58438 10.7269 5.06598 c 3.40663 1.31874 8.10122 5.50804 9.6363 9.19224 c 3.19263 7.66231 3.41776 11.3538 3.24147 18.4157 c 12.5538 -0.88902 23.5356 7.61627 27.019 20.3887 c 2.73276 10.0201 -3.64948 15.0182 -7.58908 22.5046 c -13.6445 25.9285 -41.2406 35.7527 -68.47 41.7728 c -12.3936 2.74009 -25.3842 0.54903 -38.0764 0.41823 c -2.24238 -0.02311 -4.41631 -0.83557 -6.65277 -1 c -8.4008 -0.61765 -17.1197 -0.12799 -24.8472 -4.125 c -5.96432 -3.08499 -9.78879 -9.18293 -13.442 -14.5204 c -3.03395 -4.43271 -5.83107 -8.94018 -8.54911 -13.4789 c -0.82514 0.08222 -1.6621 0.12432 -2.50889 0.12432 c -4.16768 0 -8.09717 -1.01982 -11.5525 -2.82353 c -3.71751 -0.92938 -9.02653 -5.81898 -10.0398 -9.56791 c -2.16617 -3.70159 -3.40772 -8.01009 -3.40772 -12.6086 c 0 -2.43264 0.34745 -4.78413 0.99543 -7.00756 c -0.02797 0.00266 -0.05584 0.00518 -0.0836 0.00756 c -3.13726 0.26864 -6.15684 0.86688 -9.14592 1.33182 c -1.85099 0.43697 -3.78145 0.66818 -5.76591 0.66818 c -0.52738 0 -1.05094 -0.01633 -1.57021 -0.04851 c -2.44313 -0.05261 -4.91346 -0.44578 -7.45818 -1.43014 c -1.04477 -0.40414 -2.01434 -0.95843 -2.95312 -1.57416 c -1.53034 -0.83723 -2.96353 -1.82985 -4.27834 -2.95666 c -1.28357 -0.80421 -2.55617 -1.87147 -3.16912 -3.25661 c -3.48374 -4.29656 -5.57103 -9.77149 -5.57103 -15.7339 c 0 -1.84019 0.19882 -3.63395 0.57615 -5.36096 c 0.18748 -1.99597 0.48815 -3.95318 1.37768 -5.71664 c 1.8272 -3.62239 4.37517 -6.32689 7.38329 -8.40876 c 3.44783 -2.77486 7.64748 -4.65344 12.2452 -5.28197 c 4.71549 -1.28622 9.64687 -1.66925 14.5204 -2.04194 c 23.0552 -1.76311 39.3668 2.39844 53.2766 20.9494 c 1.08262 -0.44118 2.13409 -0.94838 3.12037 -1.5897 Z"/></g></g></svg>