<svg version="1.1" xmlns="http://www.w3.org/2000/svg" xmlns:xlink="http://www.w3.org/1999/xlink" width="597.0369" height="504" viewBox="0,0,597.0369,504"><g transform="translate(6.5369,2.5)"><g data-paper-data="{&quot;isPaintingLayer&quot;:true}" fill="#6a6a6a" fill-rule="nonzero" stroke="#6a6a6a" stroke-width="7" stroke-linecap="butt" stroke-linejoin="miter" stroke-miterlimit="10" stroke-dasharray="" stroke-dashoffset="0" font-family="none" font-weight="none" font-size="none" text-anchor="none" style="mix-blend-mode: normal"><path d="M4,382.66v-100c0,0 102.43584,0 168,0c29.65998,0 115.34002,55 145,55c88.97993,0 174,-55 174,-55v100z" data-paper-data="{&quot;origPos&quot;:null}"/><path d="M159,498v-180h53v180z" data-paper-data="{&quot;origPos&quot;:null}"/><path d="M-3,54l6,-53h584v84c0,0 -80.2942,-12.4299 -140.004,-11.6213c-39.3368,0.53272 -27.8629,-9.88887 -56.8175,-3.9611c-1.67963,0.34387 -27.6028,5.63571 -29.2341,6.1633c-4.89382,1.58276 -23.037,14.69049 -38.4965,15.88413c-3.45655,0.26689 -50.32225,0.05097 -53.70156,-0.72314c-2.01042,-0.46053 -34.38552,-4.81223 -36.44364,-4.67786c-43.14552,2.81676 -109.30234,-34.06401 -109.30269,-34.06401c-0.00012,0 -0.00019,0 -0.0003,0c-30.8308,0 -123,18 -123,18z" data-paper-data="{&quot;origPos&quot;:null}"/><path d="M92,398c0,0 -43.52129,-9.86665 -32.33403,-29.62288c7.15509,-12.63559 107.33403,-28.37712 107.33403,-28.37712c0,0 159.61192,-0.07417 231.01383,3.7412c23.80064,1.27179 30.98617,10.2588 30.98617,10.2588l-251,50z" data-paper-data="{&quot;origPos&quot;:null}"/></g></g></svg>