<svg xmlns="http://www.w3.org/2000/svg" width="24.82" height="50.9292" xmlns:xlink="http://www.w3.org/1999/xlink" version="1.1"><g transform="translate(-227.59 -154.989)"><g font-family="none" font-size="none" font-weight="none" style="mix-blend-mode: normal" fill="none" fill-rule="nonzero" stroke="#000000" stroke-dasharray="" stroke-dashoffset="0" stroke-linecap="none" stroke-linejoin="miter" stroke-miterlimit="10" stroke-width="none" text-anchor="none" data-paper-data="{&quot;isPaintingLayer&quot;:true}"><path fill="none" stroke-linecap="round" stroke-width="5" d="M 237.774 203.374 l -3.95383 -0.8 l 6.29799 -12.8615 v -18.1432" data-paper-data="{&quot;origPos&quot;:null}"/><path fill="none" stroke-linecap="round" stroke-width="5" d="M 247.441 199.812 l -2.81899 1.98705 l -1.13099 -4.31596 l -2.70296 -6.75736" data-paper-data="{&quot;origPos&quot;:null,&quot;origRot&quot;:0}"/><path fill="none" stroke-linecap="round" stroke-width="7" d="M 248.91 174.95 c 0 0 -0.77161 1.72097 -1.74435 2.10417 c -1.43613 0.56575 -4.42809 0.3274 -4.42809 0.3274" data-paper-data="{&quot;origPos&quot;:null}"/><path fill="none" stroke-linecap="round" stroke-width="7" d="M 231.09 180.934 c 0 0 0.77162 -1.72097 1.74436 -2.10417 c 1.43614 -0.56575 4.42809 -0.3274 4.42809 -0.3274" data-paper-data="{&quot;origPos&quot;:null,&quot;index&quot;:null}"/><path fill="#000000" stroke-linecap="butt" stroke-width="7" d="M 233.946 164.288 c 0 -3.20234 2.59601 -5.79836 5.79836 -5.79836 c 3.20234 0 5.79836 2.59601 5.79836 5.79836 c 0 3.20234 -2.59601 5.79836 -5.79836 5.79836 c -3.20234 0 -5.79836 -2.59601 -5.79836 -5.79836 Z" data-paper-data="{&quot;origPos&quot;:null}"/></g></g></svg>