<svg xmlns="http://www.w3.org/2000/svg" width="24.8195" height="49.7684" xmlns:xlink="http://www.w3.org/1999/xlink" version="1.1"><g transform="translate(-227.59 -154.616)"><g font-family="none" font-size="none" font-weight="none" style="mix-blend-mode: normal" fill="none" fill-rule="nonzero" stroke="#000000" stroke-dasharray="" stroke-dashoffset="0" stroke-linecap="none" stroke-linejoin="miter" stroke-miterlimit="10" stroke-width="none" text-anchor="none" data-paper-data="{&quot;isPaintingLayer&quot;:true}"><path fill="none" stroke-linecap="round" stroke-width="5" d="M 248.91 201.884 l -3.36678 -0.18705 c 0 0 1.05582 -5.3775 0.29498 -7.26303 c -0.91808 -2.27525 -5.71926 -4.89482 -5.71926 -4.89482 v -18.1432" data-paper-data="{&quot;origPos&quot;:null}"/><path fill="none" stroke-linecap="round" stroke-width="5" d="M 236.19 201.697 l -3.36679 -0.74817 l 3.74088 -3.92791 l 3.17974 -6.35949" data-paper-data="{&quot;origPos&quot;:null}"/><path fill="none" stroke-linecap="round" stroke-width="7" d="M 248.91 174.576 c 0 0 -0.77161 1.72097 -1.74435 2.10417 c -1.43613 0.56575 -4.42809 0.3274 -4.42809 0.3274" data-paper-data="{&quot;origPos&quot;:null}"/><path fill="none" stroke-linecap="round" stroke-width="7" d="M 237.263 177.331 c 0 0 -2.99195 0.23835 -4.42809 -0.3274 c -0.97274 -0.3832 -1.74436 -2.10417 -1.74436 -2.10417" data-paper-data="{&quot;origPos&quot;:null,&quot;index&quot;:null}"/><path fill="#000000" stroke-linecap="butt" stroke-width="7" d="M 233.947 163.914 c 0 -3.20234 2.59601 -5.79836 5.79836 -5.79836 c 3.20234 0 5.79836 2.59601 5.79836 5.79836 c 0 3.20234 -2.59601 5.79836 -5.79836 5.79836 c -3.20234 0 -5.79836 -2.59601 -5.79836 -5.79836 Z" data-paper-data="{&quot;origPos&quot;:null}"/></g></g></svg>