<svg version="1.1" xmlns="http://www.w3.org/2000/svg" xmlns:xlink="http://www.w3.org/1999/xlink" width="354.12443" height="332.94578" viewBox="0,0,354.12443,332.94578"><g transform="translate(-45.27631,-44.70971)"><g data-paper-data="{&quot;isPaintingLayer&quot;:true}" fill="none" fill-rule="nonzero" stroke="none" stroke-width="none" stroke-linecap="none" stroke-linejoin="miter" stroke-miterlimit="10" stroke-dasharray="" stroke-dashoffset="0" font-family="none" font-weight="none" font-size="none" text-anchor="none" style="mix-blend-mode: normal"><path d="" data-paper-data="{&quot;origPos&quot;:null}" fill="#a03838" stroke="none" stroke-width="0" stroke-linecap="butt"/><path d="" data-paper-data="{&quot;origPos&quot;:null}" fill="#a03838" stroke="none" stroke-width="0" stroke-linecap="butt"/><path d="" fill="#000303" stroke="none" stroke-width="0.5" stroke-linecap="butt"/><path d="M236.625,306.1555h-13.2366c0,0 1.55722,-5.67273 2.55392,-9.30359c1.49712,-5.45377 3.83616,-13.9746 3.83616,-13.9746z" data-paper-data="{&quot;origPos&quot;:null}" fill="#000303" stroke="#000303" stroke-width="5" stroke-linecap="round"/><path d="M238.25231,138.00269l11.8224,-5.95304c0,0 1.16042,5.76699 1.90314,9.45819c1.11561,5.54441 2.85863,14.20682 2.85863,14.20682z" data-paper-data="{&quot;origPos&quot;:null,&quot;origRot&quot;:0}" fill="#000303" stroke="#000303" stroke-width="5" stroke-linecap="round"/><path d="M253.99781,130.07421l11.8224,-5.95304c0,0 1.16042,5.76699 1.90314,9.45819c1.11561,5.54441 2.85863,14.20682 2.85863,14.20682z" data-paper-data="{&quot;origPos&quot;:null,&quot;origRot&quot;:0}" fill="#000303" stroke="#000303" stroke-width="5" stroke-linecap="round"/><path d="M365.20982,47.28229l13.23343,0.28988c0,0 -1.68107,5.63727 -2.75706,9.24543c-1.6162,5.41967 -4.14129,13.88724 -4.14129,13.88724z" data-paper-data="{&quot;origPos&quot;:null,&quot;origRot&quot;:0}" fill="#000303" stroke="#000303" stroke-width="5" stroke-linecap="round"/><path d="M382.8346,47.66836l13.23343,0.28988c0,0 -1.68107,5.63727 -2.75706,9.24543c-1.6162,5.41967 -4.14129,13.88724 -4.14129,13.88724z" data-paper-data="{&quot;origPos&quot;:null,&quot;origRot&quot;:0}" fill="#000303" stroke="#000303" stroke-width="5" stroke-linecap="round"/><path d="M217.29167,306.1555h-13.2366c0,0 1.55722,-5.67273 2.55392,-9.30359c1.49712,-5.45377 3.83616,-13.9746 3.83616,-13.9746z" data-paper-data="{&quot;origPos&quot;:null}" fill="#000303" stroke="#000303" stroke-width="5" stroke-linecap="round"/><path d="M198.29167,306.1555h-13.2366c0,0 1.55722,-5.67273 2.55392,-9.30359c1.49712,-5.45377 3.83616,-13.9746 3.83616,-13.9746z" data-paper-data="{&quot;origPos&quot;:null}" fill="#000303" stroke="#000303" stroke-width="5" stroke-linecap="round"/><path d="M180.125,306.1555h-13.2366c0,0 1.55722,-5.67273 2.55392,-9.30359c1.49712,-5.45377 3.83616,-13.9746 3.83616,-13.9746z" data-paper-data="{&quot;origPos&quot;:null}" fill="#000303" stroke="#000303" stroke-width="5" stroke-linecap="round"/><path d="M160.79167,306.1555h-13.2366c0,0 1.55722,-5.67273 2.55392,-9.30359c1.49712,-5.45377 3.83616,-13.9746 3.83616,-13.9746z" data-paper-data="{&quot;origPos&quot;:null}" fill="#000303" stroke="#000303" stroke-width="5" stroke-linecap="round"/><path d="M61.79167,375.1555h-13.2366c0,0 1.55722,-5.67273 2.55392,-9.30359c1.49712,-5.45377 3.83616,-13.9746 3.83616,-13.9746z" data-paper-data="{&quot;origPos&quot;:null}" fill="#000303" stroke="#000303" stroke-width="5" stroke-linecap="round"/></g></g></svg>