<svg version="1.1" xmlns="http://www.w3.org/2000/svg" xmlns:xlink="http://www.w3.org/1999/xlink" width="591" height="538"><g transform="translate(83.5,65.5)"><g data-paper-data="{&quot;isPaintingLayer&quot;:true}" fill="#6a6a6a" fill-rule="nonzero" stroke="#6a6a6a" stroke-width="7" stroke-linecap="butt" stroke-linejoin="miter" stroke-miterlimit="10" stroke-dasharray="" stroke-dashoffset="0" font-family="none" font-weight="none" font-size="none" text-anchor="none" style="mix-blend-mode: normal"><path d="M4,382.66v-100h487v100z" data-paper-data="{&quot;origPos&quot;:null}"/><path d="M203,469v-180h53v180z" data-paper-data="{&quot;origPos&quot;:null}"/><path d="M-80,22v-84h584v84c0,0 -80.2942,-12.4299 -140.004,-11.6213c-39.3368,0.53272 -36.8629,8.11113 -65.8175,14.0389c-1.67963,0.34387 -17.6028,1.63571 -19.2341,2.1633c-4.89382,1.58276 46.963,70.69049 31.5035,71.88413c-1.90957,0.14744 -55.984,16.22422 -57.8952,16.349c-1.81629,0.11858 -44.83812,-23.82054 -46.65563,-23.72252c-5.45254,0.29407 -79.9714,-71.09149 -140.89737,-71.09149c-30.8308,0 -145,2 -145,2z" data-paper-data="{&quot;origPos&quot;:null}"/></g></g></svg>