<svg version="1.1" xmlns="http://www.w3.org/2000/svg" xmlns:xlink="http://www.w3.org/1999/xlink" width="235.33333" height="91.52083"><g transform="translate(-39.16667,-99.16667)"><g data-paper-data="{&quot;isPaintingLayer&quot;:true}" fill="#000000" fill-rule="nonzero" stroke="#000000" stroke-width="5" stroke-linecap="butt" stroke-linejoin="miter" stroke-miterlimit="10" stroke-dasharray="" stroke-dashoffset="0" font-family="none" font-weight="none" font-size="none" text-anchor="none" style="mix-blend-mode: normal"><path d="M251.125,168.375v-27.625h20.875v27.625z" data-paper-data="{&quot;origPos&quot;:null}"/><path d="M231.8125,188.1875v-16.375h16.375v16.375z" data-paper-data="{&quot;origPos&quot;:null}"/><path d="M146,144v-39h39v39z" data-paper-data="{&quot;origPos&quot;:null}"/><path d="M42.33333,140c0,0 -0.33333,-1.04869 -0.33333,-3c0,-11.83797 -0.33333,-24.86965 -0.33333,-30.33333c0,-1.82123 1,-4 1,-4c0,0 1.97553,-1 3.66667,-1c5.07342,0 17.47913,0.33333 28.66667,0.33333c2.73184,0 5,1.66666 5,1.66666c0,0 2,2.19501 2,4.66667c0,9.75657 0,15.24343 0,25c0,3.38228 -2,6.66666 -2,6.66666c0,0 -1.04869,2 -3,2c0,0 -25.59325,0 -30.66666,0c-1.69114,0 -4,-2 -4,-2z" data-paper-data="{&quot;origPos&quot;:null}"/></g></g></svg>