<svg version="1.1" xmlns="http://www.w3.org/2000/svg" xmlns:xlink="http://www.w3.org/1999/xlink" width="597.0369" height="475" viewBox="0,0,597.0369,475"><g transform="translate(6.5369,2.5)"><g data-paper-data="{&quot;isPaintingLayer&quot;:true}" fill="none" fill-rule="nonzero" stroke="none" stroke-width="7" stroke-linecap="butt" stroke-linejoin="miter" stroke-miterlimit="10" stroke-dasharray="" stroke-dashoffset="0" font-family="none" font-weight="none" font-size="none" text-anchor="none" style="mix-blend-mode: normal"><path d="M4,382.66v-100c0,0 102.43584,0 168,0c124.49385,0 319,0 319,0v100z" data-paper-data="{&quot;origPos&quot;:null}" fill="#6a6a6a" stroke="#6a6a6a"/><path d="M203,469v-180h53v180z" data-paper-data="{&quot;origPos&quot;:null}" fill="#6a6a6a" stroke="#6a6a6a"/><path d="M-3,54l6,-53h584v84c0,0 -80.2942,-12.4299 -140.004,-11.6213c-39.3368,0.53272 -27.8629,-9.88887 -56.8175,-3.9611c-1.67963,0.34387 -27.6028,5.63571 -29.2341,6.1633c-4.89382,1.58276 -23.037,14.69049 -38.4965,15.88413c-3.45655,0.26689 -52.32225,-35.94903 -55.70156,-36.72314c-2.01042,-0.46053 -33.13552,13.93777 -35.19364,14.07214c-58.3154,3.80713 -50.114,-16.81401 -108.553,-16.81401c-30.8308,0 -123,18 -123,18z" data-paper-data="{&quot;origPos&quot;:null}" fill="#6a6a6a" stroke="#6a6a6a"/><path d="M143,319c0,0 -43.52129,-9.86665 -32.33403,-29.62288c7.15509,-12.63559 107.33403,-28.37712 107.33403,-28.37712c0,0 159.61192,-0.07417 231.01383,3.7412c23.80064,1.27179 30.98617,10.2588 30.98617,10.2588l-251,50z" data-paper-data="{&quot;origPos&quot;:null}" fill="#6a6a6a" stroke="#6a6a6a"/></g></g></svg>