<svg version="1.1" xmlns="http://www.w3.org/2000/svg" xmlns:xlink="http://www.w3.org/1999/xlink" width="198.06387" height="146.15166"><g transform="translate(-89.75,-70)"><g data-paper-data="{&quot;isPaintingLayer&quot;:true}" fill="none" fill-rule="nonzero" stroke="none" stroke-width="none" stroke-linecap="none" stroke-linejoin="miter" stroke-miterlimit="10" stroke-dasharray="" stroke-dashoffset="0" font-family="none" font-weight="none" font-size="none" text-anchor="none" style="mix-blend-mode: normal"><path d="" fill="#e9ddff" stroke="none" stroke-width="0.5" stroke-linecap="butt"/><text transform="translate(90,93.66001) scale(0.5,0.5)" font-size="40" xml:space="preserve" fill="none" fill-rule="nonzero" stroke="none" stroke-width="1" stroke-linecap="butt" stroke-linejoin="miter" stroke-miterlimit="10" stroke-dasharray="" stroke-dashoffset="0" font-family="Sans Serif" font-weight="normal" text-anchor="start" style="mix-blend-mode: normal"><tspan x="0" dy="0">!</tspan></text><text transform="translate(280.841,209.92001) rotate(-7.2454) scale(0.5,0.5)" font-size="40" xml:space="preserve" data-paper-data="{&quot;origPos&quot;:null,&quot;origRot&quot;:-6.02781}" fill="none" fill-rule="nonzero" stroke="none" stroke-width="1" stroke-linecap="butt" stroke-linejoin="miter" stroke-miterlimit="10" stroke-dasharray="" stroke-dashoffset="0" font-family="Sans Serif" font-weight="normal" text-anchor="start" style="mix-blend-mode: normal"><tspan x="0" dy="0">!</tspan></text><path d="M177,75v43" data-paper-data="{&quot;origPos&quot;:null}" fill="none" stroke="#c5bbd7" stroke-width="10" stroke-linecap="round"/><path d="M206,75v41" data-paper-data="{&quot;origPos&quot;:null}" fill="none" stroke="#c5bbd7" stroke-width="10" stroke-linecap="round"/><path d="M157.5,143c0,0 0,-10.97527 0,-18c0,-2.34158 2.5,-4.5 2.5,-4.5c0,0 1.15842,-1.5 3.5,-1.5c7.02473,0 35.97449,0 59,0c1.56105,0 2,0.5 2,0.5c0,0 2,1.93895 2,3.5c0,4.68315 0,20 0,20z" data-paper-data="{&quot;origPos&quot;:null}" fill="#c5bbd7" stroke="#c5bbd7" stroke-width="10" stroke-linecap="butt"/><text transform="translate(185.53615,141.75922) rotate(-1.42217) scale(0.93958,0.81886) skewX(0.39262)" font-size="40" xml:space="preserve" data-paper-data="{&quot;origPos&quot;:null,&quot;origRot&quot;:-4.0479,&quot;index&quot;:null}" fill="#e9ddff" fill-rule="nonzero" stroke="none" stroke-width="1" stroke-linecap="butt" stroke-linejoin="miter" stroke-miterlimit="10" stroke-dasharray="" stroke-dashoffset="0" font-family="Sans Serif" font-weight="normal" text-anchor="start" style="mix-blend-mode: normal"><tspan x="0" dy="0">!</tspan></text></g></g></svg>