<svg version="1.1" xmlns="http://www.w3.org/2000/svg" xmlns:xlink="http://www.w3.org/1999/xlink" width="84.07206" height="86.39044" viewBox="0,0,84.07206,86.39044"><g transform="translate(-197.97482,-136.94369)"><g data-paper-data="{&quot;isPaintingLayer&quot;:true}" fill="#000000" fill-rule="nonzero" stroke="none" stroke-width="none" stroke-linecap="none" stroke-linejoin="miter" stroke-miterlimit="10" stroke-dasharray="" stroke-dashoffset="0" font-family="none" font-weight="none" font-size="none" text-anchor="none" style="mix-blend-mode: normal"><path d="M223.9463,179.63578c0,-9.38884 7.61116,-17 17,-17c9.38884,0 17,7.61116 17,17c0,9.38884 -7.61116,17 -17,17c-9.38884,0 -17,-7.61116 -17,-17z" data-paper-data="{&quot;origPos&quot;:null}" stroke="none" stroke-width="0" stroke-linecap="butt"/><path d="M234.01705,165.25075l5.41667,-27.0833l5.41667,24.9167z" data-paper-data="{&quot;origPos&quot;:null}" stroke="#000000" stroke-width="0.5" stroke-linecap="round"/><path d="M243.3303,164.23778l19.9861,-19.0631l-9.87265,23.5098z" data-paper-data="{&quot;origPos&quot;:null,&quot;origRot&quot;:0}" stroke="#000000" stroke-width="0.5" stroke-linecap="round"/><path d="M240.1793,165.19578l9.68443,-25.8662l1.35607,25.4625z" data-paper-data="{&quot;origPos&quot;:null,&quot;origRot&quot;:0}" stroke="#000000" stroke-width="0.5" stroke-linecap="round"/><path d="M245.8673,164.09578l24.3677,-13.0024l-15.8179,19.9993z" data-paper-data="{&quot;origPos&quot;:null,&quot;origRot&quot;:0}" stroke="#000000" stroke-width="0.5" stroke-linecap="round"/><path d="M253.4113,169.50377l27.4161,3.34691l-24.4341,7.29089z" data-paper-data="{&quot;origPos&quot;:null,&quot;origRot&quot;:0}" stroke="#000000" stroke-width="0.5" stroke-linecap="round"/><path d="M250.6713,167.67578l26.1356,-8.93181l-18.8169,17.2078z" data-paper-data="{&quot;origPos&quot;:null,&quot;origRot&quot;:0}" stroke="#000000" stroke-width="0.5" stroke-linecap="round"/><path d="M226.2943,178.07878l-22.1153,-16.5458l24.8221,5.83462z" data-paper-data="{&quot;origPos&quot;:null,&quot;origRot&quot;:0}" stroke="#000000" stroke-width="0.5" stroke-linecap="round"/><path d="M227.9903,168.95277l-8.6053,-26.2449l16.9718,19.0299z" data-paper-data="{&quot;origPos&quot;:null,&quot;origRot&quot;:0}" stroke="#000000" stroke-width="0.5" stroke-linecap="round"/><path d="M227.4973,172.20877l-19.1798,-19.8742l23.5672,9.73483z" data-paper-data="{&quot;origPos&quot;:null,&quot;origRot&quot;:0}" stroke="#000000" stroke-width="0.5" stroke-linecap="round"/><path d="M228.9533,166.60177l-1.24886,-27.5914l11.2443,22.8855z" data-paper-data="{&quot;origPos&quot;:null,&quot;origRot&quot;:0}" stroke="#000000" stroke-width="0.5" stroke-linecap="round"/><path d="M230.1853,191.32378l-27.2593,4.44738l21.4234,-13.8281z" data-paper-data="{&quot;origPos&quot;:null,&quot;origRot&quot;:0}" stroke="#000000" stroke-width="0.5" stroke-linecap="round"/><path d="M224.7893,183.77078l-24.8711,-12.0113l25.4798,0.98028z" data-paper-data="{&quot;origPos&quot;:null,&quot;origRot&quot;:0}" stroke="#000000" stroke-width="0.5" stroke-linecap="round"/><path d="M226.7923,186.38477l-27.6197,0.02409l23.3616,-10.2184z" data-paper-data="{&quot;origPos&quot;:null,&quot;origRot&quot;:0}" stroke="#000000" stroke-width="0.5" stroke-linecap="round"/><path d="M250.7573,189.25677l12.9175,24.4129l-19.9441,-15.8875z" data-paper-data="{&quot;origPos&quot;:null,&quot;origRot&quot;:0}" stroke="#000000" stroke-width="0.5" stroke-linecap="round"/><path d="M252.9023,175.61978l26.5435,7.6348l-25.2789,3.34048z" data-paper-data="{&quot;origPos&quot;:null,&quot;origRot&quot;:0}" stroke="#000000" stroke-width="0.5" stroke-linecap="round"/><path d="M254.5513,184.75478l17.3475,21.4921l-22.6142,-11.7804z" data-paper-data="{&quot;origPos&quot;:null,&quot;origRot&quot;:0}" stroke="#000000" stroke-width="0.5" stroke-linecap="round"/><path d="M253.8583,181.53478l24.9781,11.7875l-25.4876,-0.75133z" data-paper-data="{&quot;origPos&quot;:null,&quot;origRot&quot;:0}" stroke="#000000" stroke-width="0.5" stroke-linecap="round"/><path d="M249.11114,194.83728l-4.3541,27.27441l-6.38626,-24.68594z" data-paper-data="{&quot;origPos&quot;:null,&quot;origRot&quot;:0}" stroke="#000000" stroke-width="0.5" stroke-linecap="round"/><path d="M243.46804,195.9919l-15.00696,23.18707l4.13681,-25.16085z" data-paper-data="{&quot;origPos&quot;:null,&quot;origRot&quot;:0}" stroke="#000000" stroke-width="0.5" stroke-linecap="round"/><path d="M238.14869,197.99104l-21.65266,17.14683l11.99033,-22.50359z" data-paper-data="{&quot;origPos&quot;:null,&quot;origRot&quot;:0}" stroke="#000000" stroke-width="0.5" stroke-linecap="round"/><path d="M233.7969,195.32675l-24.11938,13.45751l15.43977,-20.29273z" data-paper-data="{&quot;origPos&quot;:null,&quot;origRot&quot;:0}" stroke="#000000" stroke-width="0.5" stroke-linecap="round"/></g></g></svg>